<svg width="538.674805" height="428.446899" viewBox="0 0 538.675 428.447" fill="none" xmlns="http://www.w3.org/2000/svg" xmlns:xlink="http://www.w3.org/1999/xlink">
	<desc>
			Created with Pixso.
	</desc>
	<defs>
		<radialGradient gradientTransform="translate(9037.91 10560.7) rotate(0) scale(1187.77 1187.76)" cx="0.000000" cy="0.000000" r="1.000000" id="paint_radial_115_293_0" gradientUnits="userSpaceOnUse">
			<stop stop-color="#334D86"/>
			<stop offset="1.000000" stop-color="#2F3F75"/>
		</radialGradient>
		<linearGradient x1="8312.362305" y1="10132.560547" x2="10414.122070" y2="10132.560547" id="paint_linear_115_294_0" gradientUnits="userSpaceOnUse">
			<stop stop-color="#DFEEFB"/>
			<stop offset="1.000000" stop-color="#97BFE5"/>
		</linearGradient>
		<radialGradient gradientTransform="translate(7331.89 4383.08) rotate(0) scale(2146.99 2147)" cx="0.000000" cy="0.000000" r="1.000000" id="paint_radial_115_295_0" gradientUnits="userSpaceOnUse">
			<stop stop-color="#77A2D4"/>
			<stop offset="1.000000" stop-color="#3F6AA9"/>
		</radialGradient>
		<radialGradient gradientTransform="translate(7331.89 4383.08) rotate(0) scale(2146.99 2147)" cx="0.000000" cy="0.000000" r="1.000000" id="paint_radial_115_296_0" gradientUnits="userSpaceOnUse">
			<stop stop-color="#77A2D4"/>
			<stop offset="1.000000" stop-color="#3F6AA9"/>
		</radialGradient>
		<radialGradient gradientTransform="translate(9037.91 10560.7) rotate(0) scale(1187.77 1187.76)" cx="0.000000" cy="0.000000" r="1.000000" id="paint_radial_115_299_0" gradientUnits="userSpaceOnUse">
			<stop stop-color="#334D86"/>
			<stop offset="1.000000" stop-color="#2F3F75"/>
		</radialGradient>
		<linearGradient x1="17235.591797" y1="5176.141113" x2="19337.351562" y2="5176.141113" id="paint_linear_115_300_0" gradientUnits="userSpaceOnUse">
			<stop stop-color="#DFEEFB"/>
			<stop offset="1.000000" stop-color="#97BFE5"/>
		</linearGradient>
		<radialGradient gradientTransform="translate(7331.89 4383.08) rotate(0) scale(2146.99 2147)" cx="0.000000" cy="0.000000" r="1.000000" id="paint_radial_115_301_0" gradientUnits="userSpaceOnUse">
			<stop stop-color="#77A2D4"/>
			<stop offset="1.000000" stop-color="#3F6AA9"/>
		</radialGradient>
		<radialGradient gradientTransform="translate(7331.89 4383.08) rotate(0) scale(2146.99 2147)" cx="0.000000" cy="0.000000" r="1.000000" id="paint_radial_115_302_0" gradientUnits="userSpaceOnUse">
			<stop stop-color="#77A2D4"/>
			<stop offset="1.000000" stop-color="#3F6AA9"/>
		</radialGradient>
		<radialGradient gradientTransform="translate(7331.89 4383.08) rotate(0) scale(2146.99 2147)" cx="0.000000" cy="0.000000" r="1.000000" id="paint_radial_115_303_0" gradientUnits="userSpaceOnUse">
			<stop stop-color="#77A2D4"/>
			<stop offset="1.000000" stop-color="#3F6AA9"/>
		</radialGradient>
		<radialGradient gradientTransform="translate(9037.91 10560.7) rotate(0) scale(1187.77 1187.76)" cx="0.000000" cy="0.000000" r="1.000000" id="paint_radial_115_306_0" gradientUnits="userSpaceOnUse">
			<stop stop-color="#334D86"/>
			<stop offset="1.000000" stop-color="#2F3F75"/>
		</radialGradient>
		<linearGradient x1="17235.593750" y1="5176.142090" x2="19337.351562" y2="5176.142090" id="paint_linear_115_307_0" gradientUnits="userSpaceOnUse">
			<stop stop-color="#DFEEFB"/>
			<stop offset="1.000000" stop-color="#97BFE5"/>
		</linearGradient>
		<radialGradient gradientTransform="translate(7331.89 4383.08) rotate(0) scale(2146.99 2147)" cx="0.000000" cy="0.000000" r="1.000000" id="paint_radial_115_308_0" gradientUnits="userSpaceOnUse">
			<stop stop-color="#77A2D4"/>
			<stop offset="1.000000" stop-color="#3F6AA9"/>
		</radialGradient>
		<radialGradient gradientTransform="translate(7331.89 4383.09) rotate(0) scale(2146.99 2147)" cx="0.000000" cy="0.000000" r="1.000000" id="paint_radial_115_309_0" gradientUnits="userSpaceOnUse">
			<stop stop-color="#77A2D4"/>
			<stop offset="1.000000" stop-color="#3F6AA9"/>
		</radialGradient>
		<radialGradient gradientTransform="translate(9037.91 10560.7) rotate(0) scale(1187.77 1187.76)" cx="0.000000" cy="0.000000" r="1.000000" id="paint_radial_115_312_0" gradientUnits="userSpaceOnUse">
			<stop stop-color="#334D86"/>
			<stop offset="1.000000" stop-color="#2F3F75"/>
		</radialGradient>
		<linearGradient x1="8312.362305" y1="5176.140625" x2="10414.122070" y2="5176.140625" id="paint_linear_115_313_0" gradientUnits="userSpaceOnUse">
			<stop stop-color="#DFEEFB"/>
			<stop offset="1.000000" stop-color="#97BFE5"/>
		</linearGradient>
		<radialGradient gradientTransform="translate(7331.89 4383.08) rotate(0) scale(2146.99 2147)" cx="0.000000" cy="0.000000" r="1.000000" id="paint_radial_115_314_0" gradientUnits="userSpaceOnUse">
			<stop stop-color="#77A2D4"/>
			<stop offset="1.000000" stop-color="#3F6AA9"/>
		</radialGradient>
		<radialGradient gradientTransform="translate(7331.89 4383.08) rotate(0) scale(2146.99 2147)" cx="0.000000" cy="0.000000" r="1.000000" id="paint_radial_115_315_0" gradientUnits="userSpaceOnUse">
			<stop stop-color="#77A2D4"/>
			<stop offset="1.000000" stop-color="#3F6AA9"/>
		</radialGradient>
		<radialGradient gradientTransform="translate(7331.89 4383.08) rotate(0) scale(2146.99 2147)" cx="0.000000" cy="0.000000" r="1.000000" id="paint_radial_115_316_0" gradientUnits="userSpaceOnUse">
			<stop stop-color="#77A2D4"/>
			<stop offset="1.000000" stop-color="#3F6AA9"/>
		</radialGradient>
		<radialGradient gradientTransform="translate(12726 5448.86) rotate(0) scale(4273.75 4273.71)" cx="0.000000" cy="0.000000" r="1.000000" id="paint_radial_115_319_0" gradientUnits="userSpaceOnUse">
			<stop stop-color="#3F6AA9"/>
			<stop offset="1.000000" stop-color="#334D86"/>
		</radialGradient>
		<linearGradient x1="11376.734375" y1="2420.522705" x2="15361.813477" y2="4848.562500" id="paint_linear_115_320_0" gradientUnits="userSpaceOnUse">
			<stop stop-color="#DFEEFB"/>
			<stop offset="1.000000" stop-color="#97BFE5"/>
		</linearGradient>
		<linearGradient x1="211.522461" y1="173.053635" x2="285.138611" y2="193.973419" id="paint_linear_115_323_0" gradientUnits="userSpaceOnUse">
			<stop stop-color="#4E3E8E"/>
			<stop offset="1.000000" stop-color="#634E99"/>
		</linearGradient>
		<linearGradient x1="211.522461" y1="173.053635" x2="285.138611" y2="193.973419" id="paint_linear_115_324_0" gradientUnits="userSpaceOnUse">
			<stop stop-color="#4E3E8E"/>
			<stop offset="1.000000" stop-color="#634E99"/>
		</linearGradient>
		<radialGradient gradientTransform="translate(7331.89 4383.08) rotate(0) scale(2146.99 2147)" cx="0.000000" cy="0.000000" r="1.000000" id="paint_radial_115_398_0" gradientUnits="userSpaceOnUse">
			<stop stop-color="#77A2D4"/>
			<stop offset="1.000000" stop-color="#3F6AA9"/>
		</radialGradient>
		<linearGradient x1="12553.135742" y1="10038.795898" x2="14922.704102" y2="11451.535156" id="paint_linear_115_401_0" gradientUnits="userSpaceOnUse">
			<stop stop-color="#DFEEFB"/>
			<stop offset="0.839216" stop-color="#97BFE5"/>
			<stop offset="1.000000" stop-color="#97BFE5"/>
		</linearGradient>
		<radialGradient gradientTransform="translate(7331.89 4383.08) rotate(0) scale(2146.99 2147)" cx="0.000000" cy="0.000000" r="1.000000" id="paint_radial_115_412_0" gradientUnits="userSpaceOnUse">
			<stop stop-color="#77A2D4"/>
			<stop offset="1.000000" stop-color="#3F6AA9"/>
		</radialGradient>
		<linearGradient x1="12553.135742" y1="10038.795898" x2="14922.708008" y2="11451.532227" id="paint_linear_115_415_0" gradientUnits="userSpaceOnUse">
			<stop stop-color="#DFEEFB"/>
			<stop offset="0.839216" stop-color="#97BFE5"/>
			<stop offset="1.000000" stop-color="#97BFE5"/>
		</linearGradient>
		<radialGradient gradientTransform="translate(7331.89 4383.08) rotate(0) scale(2146.99 2147)" cx="0.000000" cy="0.000000" r="1.000000" id="paint_radial_115_426_0" gradientUnits="userSpaceOnUse">
			<stop stop-color="#77A2D4"/>
			<stop offset="1.000000" stop-color="#3F6AA9"/>
		</radialGradient>
		<linearGradient x1="8091.633789" y1="6937.249023" x2="10461.205078" y2="8349.978516" id="paint_linear_115_429_0" gradientUnits="userSpaceOnUse">
			<stop stop-color="#DFEEFB"/>
			<stop offset="0.839216" stop-color="#97BFE5"/>
			<stop offset="1.000000" stop-color="#97BFE5"/>
		</linearGradient>
	</defs>
	<path id="path" d="M498.43 117.56L497.11 116.8L496.95 116.71L470.95 101.69L496.95 116.71L535.71 94.33L496.95 71.95L458.19 94.33L456.71 93.47L496.95 70.24L497.32 70.46L538.66 94.33L498.43 117.56ZM495.47 117.56L482.72 110.19L495.47 117.56Z" fill="#DCEEFB" fill-opacity="1.000000" fill-rule="nonzero"/>
	<path id="path" d="M417.95 117.56L437.33 106.37L417.95 117.56ZM415 117.56L393.21 104.98L415 117.56ZM416.48 116.7L397.1 105.51L416.48 116.7L439.98 103.13L416.48 116.7ZM455.24 94.33L416.48 71.95L385.68 89.73L385.68 88.02L416.48 70.24L456.71 93.47L455.24 94.33Z" fill="#DCEEFB" fill-opacity="1.000000" fill-rule="nonzero"/>
	<path id="path" d="M458.19 140.79L484.96 125.33L458.19 140.79ZM456.71 139.93L417.95 117.56L416.58 116.77L416.48 116.7L439.98 103.13L455.24 94.33L456.71 93.47L458.19 94.33L470.94 101.69L496.95 116.71L495.47 117.56L482.72 110.19L456.71 95.18L437.33 106.37L417.95 117.56L456.71 139.93L470.65 131.89L456.71 139.93ZM498.43 117.56L497.32 116.92L497.11 116.8L498.43 117.56Z" fill="#DCEEFB" fill-opacity="1.000000" fill-rule="nonzero"/>
	<path id="path" d="M498.43 164.02L496.95 163.16L458.19 140.79L456.88 140.03L456.71 139.93L470.65 131.89L495.47 117.56L496.95 116.7L497.11 116.8L497.32 116.92L498.43 117.56L538.66 140.79L498.43 164.02ZM458.19 140.79L496.95 163.16L535.71 140.79L496.95 118.41L484.96 125.33L458.19 140.79Z" fill="#DCEEFB" fill-opacity="1.000000" fill-rule="nonzero"/>
	<path id="path" d="M349.04 79.47L350.51 78.62L349.04 79.47Z" fill="#DCEEFB" fill-opacity="1.000000" fill-rule="nonzero"/>
	<path id="path" d="M385.68 136.19L397.1 129.6L385.68 136.19ZM385.68 134.48L391.5 131.13L385.68 134.48ZM417.95 117.56L416.84 116.92L416.58 116.77L417.95 117.56ZM415 117.56L393.21 104.98L385.68 100.63L385.68 98.92L397.1 105.51L416.48 116.7L415 117.56Z" fill="#DCEEFB" fill-opacity="1.000000" fill-rule="nonzero"/>
	<path id="path" d="M417.95 164.02L434.92 154.22L417.95 164.02ZM416.48 163.16L385.68 145.38L416.48 163.16L441.96 148.45L416.48 163.16ZM458.19 140.79L457.08 140.15L456.88 140.03L458.19 140.79ZM455.24 140.79L416.48 118.41L397.1 129.6L385.68 136.19L385.68 134.48L391.5 131.13L415 117.56L416.48 116.7L416.58 116.77L416.84 116.92L417.95 117.56L456.71 139.93L455.24 140.79Z" fill="#DCEEFB" fill-opacity="1.000000" fill-rule="nonzero"/>
	<path id="path" d="M458.19 187.25L469.34 180.81L458.19 187.25ZM456.71 186.4L417.95 164.02L416.66 163.27L416.48 163.16L441.96 148.45L455.24 140.79L456.71 139.93L456.88 140.03L457.08 140.15L458.19 140.79L496.95 163.16L495.47 164.02L456.71 141.64L434.92 154.22L417.95 164.02L456.71 186.4L476.09 175.21L456.71 186.4Z" fill="#DCEEFB" fill-opacity="1.000000" fill-rule="nonzero"/>
	<path id="path" d="M498.43 210.48L497.18 209.76L496.95 209.63L458.19 187.25L456.9 186.5L456.72 186.4L476.09 175.21L495.47 164.02L496.95 163.16L498.43 164.02L538.66 187.25L498.43 210.48ZM458.19 187.25L496.95 209.63L535.71 187.25L496.95 164.87L469.34 180.81L458.19 187.25Z" fill="#DCEEFB" fill-opacity="1.000000" fill-rule="nonzero"/>
	<path id="polygon" d="" fill="#DCEEFB" fill-opacity="1.000000" fill-rule="nonzero"/>
	<path id="path" d="M385.68 182.65L391 179.58L385.68 182.65ZM385.68 180.95L398.03 173.81L385.68 180.95ZM417.95 164.02L416.85 163.38L416.66 163.27L417.95 164.02ZM415 164.02L385.68 147.09L385.68 145.38L416.48 163.16L415 164.02Z" fill="#DCEEFB" fill-opacity="1.000000" fill-rule="nonzero"/>
	<path id="path" d="M417.96 210.48L437.34 199.29L417.96 210.48ZM416.48 209.63L385.68 191.85L416.48 209.63L438.27 197.04L416.48 209.63ZM458.19 187.25L457.08 186.61L456.9 186.5L458.19 187.25ZM455.24 187.25L416.48 164.87L391 179.58L385.68 182.65L385.68 180.95L398.03 173.81L415 164.02L416.48 163.16L416.66 163.27L416.85 163.38L417.95 164.02L456.71 186.4L455.24 187.25Z" fill="#DCEEFB" fill-opacity="1.000000" fill-rule="nonzero"/>
	<path id="path" d="M458.19 233.71L481.7 220.14L458.19 233.71ZM456.72 232.86L417.96 210.48L416.71 209.76L416.48 209.63L438.27 197.04L455.24 187.25L456.72 186.4L456.9 186.5L457.08 186.61L458.19 187.25L496.95 209.63L495.48 210.48L456.72 188.1L437.34 199.29L417.96 210.48L456.72 232.86L476.1 221.67L456.72 232.86ZM498.43 210.48L497.32 209.84L497.19 209.76L498.43 210.48Z" fill="#DCEEFB" fill-opacity="1.000000" fill-rule="nonzero"/>
	<path id="path" d="M498.43 256.94L497.14 256.2L496.95 256.09L458.19 233.71L456.96 233L456.72 232.86L476.1 221.67L495.48 210.48L496.95 209.63L497.18 209.76L497.32 209.84L498.43 210.48L538.67 233.71L498.43 256.94ZM458.19 233.71L496.95 256.09L535.71 233.71L496.95 211.33L481.7 220.14L458.19 233.71Z" fill="#DCEEFB" fill-opacity="1.000000" fill-rule="nonzero"/>
	<path id="path" d="M176.54 117.55L201.36 103.22L176.54 117.55ZM175.06 116.7L136.3 94.32L134.96 93.55L134.82 93.47L175.06 70.24L175.43 70.45L205.86 88.03L205.86 89.73L175.06 71.95L136.3 94.32L175.06 116.7L187.05 109.78L175.06 116.7Z" fill="#DCEEFB" fill-opacity="1.000000" fill-rule="nonzero"/>
	<path id="path" d="M205.86 136.19L201.06 133.42L205.86 136.19ZM205.86 134.49L189.29 124.92L205.86 134.49ZM176.54 117.55L175.06 116.7L187.05 109.78L205.86 98.92L205.86 100.62L201.36 103.22L176.54 117.55Z" fill="#DCEEFB" fill-opacity="1.000000" fill-rule="nonzero"/>
	<path id="path" d="M385.68 229.11L402.54 219.38L385.68 229.11ZM385.68 227.41L393.45 222.92L385.68 227.41ZM417.96 210.48L416.85 209.84L416.71 209.76L417.96 210.48ZM415 210.48L385.68 193.55L385.68 191.85L416.48 209.63L415 210.48Z" fill="#DCEEFB" fill-opacity="1.000000" fill-rule="nonzero"/>
	<path id="path" d="M417.96 256.94L439.54 244.48L417.96 256.94ZM415 256.94L395.62 245.75L415 256.94ZM416.48 256.09L403.72 248.72L416.48 256.09L429.76 248.42L416.48 256.09ZM458.19 233.71L457.08 233.07L456.96 233L458.19 233.71ZM455.24 233.71L416.48 211.33L402.54 219.38L385.68 229.11L385.68 227.41L393.45 222.92L415 210.48L416.48 209.63L416.71 209.76L416.85 209.84L417.96 210.48L456.72 232.86L455.24 233.71Z" fill="#DCEEFB" fill-opacity="1.000000" fill-rule="nonzero"/>
	<path id="path" d="M458.19 280.17L475.16 270.37L458.19 280.17ZM456.72 279.32L417.96 256.94L416.58 256.14L416.48 256.09L429.76 248.42L455.24 233.71L456.72 232.86L456.96 233L457.08 233.07L458.19 233.71L496.95 256.09L495.48 256.94L456.72 234.56L439.54 244.48L417.96 256.94L456.72 279.32L476.1 268.13L456.72 279.32ZM498.43 256.94L497.32 256.3L497.14 256.2L498.43 256.94Z" fill="#DCEEFB" fill-opacity="1.000000" fill-rule="nonzero"/>
	<path id="path" d="M498.43 303.4L497.09 302.62L496.95 302.55L458.19 280.17L456.85 279.39L456.72 279.32L476.1 268.13L495.48 256.94L496.95 256.09L497.14 256.2L497.32 256.3L498.43 256.94L538.67 280.17L498.43 303.4ZM458.19 280.17L496.95 302.55L535.71 280.17L496.95 257.79L475.16 270.37L458.19 280.17Z" fill="#DCEEFB" fill-opacity="1.000000" fill-rule="nonzero"/>
	<path id="path" d="M96.06 117.55L115.44 106.37L96.06 117.55ZM93.11 117.55L52.87 94.32L94.59 70.24L94.96 70.45L134.82 93.47L133.35 94.32L94.59 71.95L55.83 94.32L94.59 116.7L113.97 105.51L94.59 116.7L93.11 117.55ZM136.3 94.32L135.19 93.68L134.96 93.55L136.3 94.32Z" fill="#DCEEFB" fill-opacity="1.000000" fill-rule="nonzero"/>
	<path id="path" d="M136.3 140.78L155.68 129.6L136.3 140.78ZM134.82 139.93L94.96 116.91L94.59 116.7L113.97 105.51L133.35 94.32L134.82 93.47L134.96 93.55L135.19 93.68L136.3 94.32L175.06 116.7L173.58 117.55L134.82 95.18L115.44 106.36L96.06 117.55L134.82 139.93L154.2 128.74L134.82 139.93Z" fill="#DCEEFB" fill-opacity="1.000000" fill-rule="nonzero"/>
	<path id="path" d="M176.54 164.02L201.3 149.72L176.54 164.02ZM175.06 163.16L136.3 140.78L134.96 140.01L134.82 139.93L154.2 128.74L173.58 117.55L175.06 116.7L176.54 117.55L189.29 124.92L205.86 134.49L205.86 136.19L201.06 133.42L175.06 118.41L155.68 129.6L136.3 140.78L175.06 163.16L196.62 150.72L175.06 163.16Z" fill="#DCEEFB" fill-opacity="1.000000" fill-rule="nonzero"/>
	<path id="path" d="M205.86 182.65L194.44 176.06L205.86 182.65ZM205.86 180.95L202.54 179.03L205.86 180.95ZM176.54 164.01L175.06 163.16L196.62 150.72L205.86 145.38L205.86 147.08L201.3 149.72L176.54 164.01Z" fill="#DCEEFB" fill-opacity="1.000000" fill-rule="nonzero"/>
	<path id="path" d="M376.24 279.32L361.8 270.98L376.24 279.32L381.86 276.08L376.24 279.32ZM386.42 275.15L391.72 272.09L386.42 275.15ZM385.83 273.78L403.01 263.86L385.83 273.78ZM417.96 256.94L416.85 256.3L416.58 256.14L417.96 256.94ZM415 256.94L395.62 245.75L385.68 240.01L385.68 238.3L403.72 248.72L416.48 256.09L415 256.94Z" fill="#DCEEFB" fill-opacity="1.000000" fill-rule="nonzero"/>
	<path id="path" d="M417.96 303.4L437.34 292.21L417.96 303.4ZM415.01 303.4L390.83 289.44L415.01 303.4ZM416.48 302.55L403.73 295.18L416.48 302.55L439.99 288.98L416.48 302.55ZM458.19 280.17L457.09 279.53L456.85 279.39L458.19 280.17ZM455.24 280.17L416.48 257.79L391.72 272.09L386.42 275.15C386.29 274.67 386.09 274.21 385.83 273.78L403.01 263.86L415 256.94L416.48 256.09L416.58 256.14L416.85 256.3L417.96 256.94L456.72 279.32L455.24 280.17ZM377.2 279.87L376.25 279.32L381.86 276.08C381.95 276.19 382 276.29 382 276.37C382 276.66 381.58 277.34 380.44 278L377.2 279.87Z" fill="#DCEEFB" fill-opacity="1.000000" fill-rule="nonzero"/>
	<path id="path" d="M458.2 326.63L475.37 316.72L458.2 326.63ZM456.72 325.78L417.96 303.4L416.58 302.6L416.48 302.55L439.99 288.98L455.24 280.17L456.72 279.32L456.85 279.39L457.09 279.53L458.19 280.17L496.95 302.55L495.48 303.4L456.72 281.02L437.34 292.21L417.96 303.4L456.72 325.78L482.28 311.02L456.72 325.78ZM498.43 303.4L497.32 302.76L497.09 302.62L498.43 303.4Z" fill="#DCEEFB" fill-opacity="1.000000" fill-rule="nonzero"/>
	<path id="path" d="M498.43 349.86L497.25 349.18L496.96 349.01L458.2 326.63L456.92 325.9L456.72 325.78L482.28 311.02L495.48 303.4L496.95 302.55L497.09 302.62L497.32 302.76L498.43 303.4L538.67 326.63L498.43 349.86ZM458.2 326.63L496.96 349.01L535.71 326.63L496.95 304.25L475.37 316.72L458.2 326.63Z" fill="#DCEEFB" fill-opacity="1.000000" fill-rule="nonzero"/>
	<path id="path" d="M96.06 164.01L117.85 151.43L96.06 164.01ZM93.11 164.01L52.87 140.78L93.11 117.55L94.59 116.7L94.96 116.91L134.82 139.93L133.35 140.78L94.59 118.41L55.83 140.78L94.59 163.16L120.15 148.41L94.59 163.16L93.11 164.01ZM136.3 140.78L135.19 140.14L134.96 140.01L136.3 140.78Z" fill="#DCEEFB" fill-opacity="1.000000" fill-rule="nonzero"/>
	<path id="path" d="M136.3 187.25L149.5 179.63L136.3 187.25ZM134.83 186.39L94.96 163.38L94.59 163.16L120.15 148.41L133.35 140.78L134.82 139.93L134.96 140.01L135.19 140.14L136.3 140.78L175.06 163.16L173.59 164.01L134.82 141.64L117.86 151.43L96.06 164.01L134.83 186.39L151.8 176.6L134.83 186.39Z" fill="#DCEEFB" fill-opacity="1.000000" fill-rule="nonzero"/>
	<path id="path" d="M176.54 210.48L190.48 202.43L176.54 210.48ZM175.06 209.62L136.3 187.25L135.01 186.5L134.83 186.39L151.8 176.6L173.59 164.01L175.06 163.16L176.54 164.01L202.54 179.03L205.86 180.95L205.86 182.65L194.44 176.06L175.06 164.87L149.5 179.63L136.3 187.25L175.06 209.62L196.42 197.29L175.06 209.62Z" fill="#DCEEFB" fill-opacity="1.000000" fill-rule="nonzero"/>
	<path id="polygon" d="M205.86 227.41L176.54 210.48L175.3 209.76L175.06 209.62L196.42 197.29L205.86 191.84L205.86 193.55L190.48 202.43L176.54 210.48L205.86 227.41Z" fill="#DCEEFB" fill-opacity="1.000000" fill-rule="nonzero"/>
	<path id="polygon" d="M374.77 280.17L360.32 271.83L361.8 270.98L376.24 279.32L374.77 280.17Z" fill="#DCEEFB" fill-opacity="1.000000" fill-rule="nonzero"/>
	<path id="path" d="M377.72 326.63L397.1 315.44L377.72 326.63ZM376.25 325.78L354.91 313.46L376.25 325.78L392.14 316.6L376.25 325.78ZM417.96 303.4L416.85 302.76L416.58 302.6L417.96 303.4ZM415.01 303.4L390.83 289.44L380.3 283.37L381.78 282.51L403.73 295.18L416.48 302.55L415.01 303.4ZM369.61 284.27L368.64 283.71L374.77 280.17L376.25 279.32L377.2 279.87L369.61 284.27Z" fill="#DCEEFB" fill-opacity="1.000000" fill-rule="nonzero"/>
	<path id="path" d="M417.96 349.86L439.32 337.53L417.96 349.86ZM416.48 349.01L377.72 326.63L376.38 325.85L376.25 325.78L392.14 316.6L415.01 303.4L416.48 302.55L416.58 302.6L416.85 302.76L417.96 303.4L456.72 325.78L455.24 326.63L416.48 304.25L397.1 315.44L377.72 326.63L416.48 349.01L430.48 340.93L416.48 349.01ZM458.2 326.63L457.09 325.99L456.92 325.9L458.2 326.63Z" fill="#DCEEFB" fill-opacity="1.000000" fill-rule="nonzero"/>
	<path id="path" d="M458.2 373.09L473.45 364.29L458.2 373.09ZM455.24 373.09L442.49 365.73L455.24 373.09ZM456.72 372.24L430.72 357.23L456.72 372.24L476.1 361.05L456.72 372.24ZM498.43 349.86L497.33 349.22L497.25 349.18L498.43 349.86ZM495.48 349.86L456.72 327.48L439.32 337.53L417.96 349.86L416.48 349.01L430.48 340.93L455.24 326.63L456.72 325.78L456.92 325.9L457.09 325.99L458.2 326.63L496.96 349.01L495.48 349.86Z" fill="#DCEEFB" fill-opacity="1.000000" fill-rule="nonzero"/>
	<path id="path" d="M496.96 397.18L496.59 396.96L456.72 373.94L458.2 373.09L456.72 372.24L476.1 361.05L495.48 349.86L496.96 349.01L497.25 349.18L497.33 349.22L498.43 349.86L538.67 373.09L496.96 397.18ZM458.2 373.09L496.96 395.47L535.72 373.09L496.96 350.71L473.45 364.29L458.2 373.09Z" fill="#DCEEFB" fill-opacity="1.000000" fill-rule="nonzero"/>
	<path id="path" d="M96.07 210.48L115.45 199.29L96.07 210.48ZM93.11 210.48L52.88 187.24L93.11 164.01L94.59 163.16L94.96 163.38L134.83 186.39L133.35 187.25L94.59 164.87L55.83 187.24L94.59 209.62L113.97 198.43L94.59 209.62L93.11 210.48ZM136.3 187.25L135.19 186.61L135.01 186.5L136.3 187.25Z" fill="#DCEEFB" fill-opacity="1.000000" fill-rule="nonzero"/>
	<path id="path" d="M136.3 233.71L155.68 222.52L136.3 233.71ZM134.83 232.85L94.96 209.84L94.59 209.62L113.97 198.43L133.35 187.25L134.83 186.39L135.01 186.5L135.19 186.61L136.3 187.25L175.06 209.62L173.59 210.48L134.83 188.1L115.45 199.29L96.07 210.48L134.83 232.85L154.21 221.67L134.83 232.85ZM176.54 210.48L175.43 209.84L175.3 209.76L176.54 210.48Z" fill="#DCEEFB" fill-opacity="1.000000" fill-rule="nonzero"/>
	<path id="path" d="M176.54 256.94L202.02 242.22L176.54 256.94ZM175.06 256.08L136.3 233.71L135.06 232.99L134.83 232.85L154.21 221.67L173.59 210.48L175.06 209.62L175.3 209.76L175.43 209.84L176.54 210.48L205.86 227.41L205.86 229.11L175.06 211.33L155.68 222.52L136.3 233.71L175.06 256.08L192.24 246.17L175.06 256.08Z" fill="#DCEEFB" fill-opacity="1.000000" fill-rule="nonzero"/>
	<path id="path" d="M216.78 280.17L227.76 273.83L216.78 280.17ZM215.3 279.31L213.91 278.51L215.3 279.31L226.28 272.97L215.3 279.31ZM209.51 275.97L176.54 256.94L175.2 256.16L175.06 256.08L192.24 246.17L205.86 238.3L205.86 240.01L202.02 242.23L176.54 256.94L209.51 275.97Z" fill="#DCEEFB" fill-opacity="1.000000" fill-rule="nonzero"/>
	<path id="polygon" d="M216.78 280.17L215.3 279.31L226.29 272.97L227.76 273.83L216.78 280.17Z" fill="#DCEEFB" fill-opacity="1.000000" fill-rule="nonzero"/>
	<path id="path" d="M337.49 349.86L356.87 338.67L337.49 349.86ZM336.01 349.01L314.72 336.72L336.01 349.01L355.39 337.82L336.01 349.01ZM377.72 326.63L376.62 325.99L376.38 325.85L377.72 326.63ZM374.77 326.63L353.43 314.31L354.91 313.46L376.25 325.78L374.77 326.63Z" fill="#DCEEFB" fill-opacity="1.000000" fill-rule="nonzero"/>
	<path id="path" d="M377.73 373.09L397.1 361.9L377.73 373.09ZM376.25 372.24L337.49 349.86L336.14 349.09L336.01 349.01L355.39 337.82L374.77 326.63L376.25 325.78L376.38 325.85L376.62 325.99L377.72 326.63L416.48 349.01L415.01 349.86L376.25 327.48L356.87 338.67L337.49 349.86L376.25 372.24L399.75 358.67L376.25 372.24Z" fill="#DCEEFB" fill-opacity="1.000000" fill-rule="nonzero"/>
	<path id="path" d="M416.49 397.17L416.12 396.96L376.25 373.94L377.72 373.09L376.25 372.24L399.75 358.67L415.01 349.86L416.48 349.01L417.96 349.86L430.72 357.23L456.72 372.24L458.2 373.09L456.72 373.95L416.49 397.17ZM377.72 373.09L416.49 395.47L455.24 373.09L442.49 365.73L416.48 350.71L397.1 361.9L377.72 373.09Z" fill="#DCEEFB" fill-opacity="1.000000" fill-rule="nonzero"/>
	<path id="path" d="M96.07 256.94L123.68 240.99L96.07 256.94ZM93.11 256.94L52.88 233.7L93.11 210.48L94.59 209.62L94.96 209.84L134.83 232.85L133.35 233.71L94.59 211.33L55.83 233.7L94.59 256.08L107.79 248.46L94.59 256.08L93.11 256.94ZM136.3 233.71L135.2 233.07L135.06 232.99L136.3 233.71Z" fill="#DCEEFB" fill-opacity="1.000000" fill-rule="nonzero"/>
	<path id="path" d="M136.31 280.17L155.68 268.98L136.31 280.17ZM134.83 279.31L94.96 256.3L94.59 256.08L107.79 248.46L133.35 233.71L134.83 232.85L135.06 232.99L135.2 233.07L136.3 233.71L175.06 256.08L173.59 256.94L134.83 234.56L123.68 240.99L96.07 256.94L134.83 279.31L150.08 270.51L134.83 279.31ZM176.54 256.94L175.43 256.3L175.2 256.16L176.54 256.94Z" fill="#DCEEFB" fill-opacity="1.000000" fill-rule="nonzero"/>
	<path id="path" d="M176.54 303.4L195.92 292.21L176.54 303.4ZM175.07 302.54L136.31 280.17L134.96 279.39L134.83 279.31L150.08 270.51L173.59 256.94L175.06 256.08L175.2 256.16L175.43 256.3L176.54 256.94L209.51 275.97C209.11 276.32 208.76 276.68 208.46 277.07L175.06 257.79L155.68 268.98L136.31 280.17L175.07 302.54L190.32 293.74L175.07 302.54ZM213.83 280.17L212.52 279.42C212.74 279.23 213.02 279.03 213.36 278.84L213.91 278.51L215.3 279.31L213.83 280.17Z" fill="#DCEEFB" fill-opacity="1.000000" fill-rule="nonzero"/>
	<path id="path" d="M216.78 326.63L230.06 318.96L216.78 326.63ZM213.82 326.63L196.65 316.71L213.82 326.63ZM215.3 325.78L189.74 311.02L215.3 325.78L234.58 314.64L215.3 325.78ZM176.54 303.4L175.06 302.54L190.32 293.74L208.21 283.41C208.5 283.81 208.85 284.17 209.26 284.51L195.92 292.21L176.54 303.4ZM225.75 287.05L215.3 281.02L213.73 281.93L212.56 281.25C212.45 281.19 212.36 281.12 212.27 281.06L213.82 280.17L215.3 279.31L216.78 280.17L227.22 286.2L225.75 287.05Z" fill="#DCEEFB" fill-opacity="1.000000" fill-rule="nonzero"/>
	<path id="path" d="M257.02 349.86L274.41 339.81L257.02 349.86ZM255.54 349.01L216.78 326.63L215.47 325.87L215.3 325.78L234.58 314.64L236.06 315.5L230.06 318.96L216.78 326.63L255.54 349.01L274.82 337.87L255.54 349.01Z" fill="#DCEEFB" fill-opacity="1.000000" fill-rule="nonzero"/>
	<path id="path" d="M297.25 373.09L319.04 360.51L297.25 373.09ZM294.3 373.09L268.29 358.08L294.3 373.09ZM295.78 372.24L281.19 363.82L295.78 372.24L315.15 361.05L295.78 372.24ZM337.49 349.86L336.38 349.22L336.14 349.09L337.49 349.86ZM334.53 349.86L313.25 337.57L314.72 336.72L336.01 349.01L334.53 349.86ZM257.02 349.86L255.54 349.01L274.82 337.87L276.3 338.73L274.41 339.81L257.02 349.86Z" fill="#DCEEFB" fill-opacity="1.000000" fill-rule="nonzero"/>
	<path id="path" d="M336.01 397.17L335.64 396.96L295.78 373.94L297.25 373.09L295.78 372.24L315.15 361.05L334.53 349.86L336.01 349.01L336.14 349.09L336.38 349.22L337.49 349.86L376.25 372.24L377.72 373.09L376.25 373.94L336.01 397.17ZM297.25 373.09L336.01 395.47L374.77 373.09L336.01 350.71L319.04 360.51L297.25 373.09Z" fill="#DCEEFB" fill-opacity="1.000000" fill-rule="nonzero"/>
	<path id="path" d="M96.07 303.4L110.07 295.32L96.07 303.4ZM93.12 303.4L52.88 280.17L93.11 256.94L94.59 256.08L94.96 256.3L134.83 279.31L133.35 280.17L94.59 257.79L55.83 280.17L94.59 302.54L119.35 288.25L94.59 302.54L93.12 303.4ZM136.31 280.17L135.2 279.53L134.96 279.39L136.31 280.17Z" fill="#DCEEFB" fill-opacity="1.000000" fill-rule="nonzero"/>
	<path id="path" d="M136.31 326.63L149.58 318.96L136.31 326.63ZM133.35 326.63L113.97 315.44L133.35 326.63ZM134.83 325.78L115.45 314.59L134.83 325.78L160.31 311.06L134.83 325.78ZM173.59 303.4L134.83 281.02L110.07 295.32L96.07 303.4L94.59 302.54L119.35 288.25L133.35 280.17L134.83 279.31L134.96 279.39L135.2 279.53L136.31 280.17L175.07 302.54L173.59 303.4Z" fill="#DCEEFB" fill-opacity="1.000000" fill-rule="nonzero"/>
	<path id="path" d="M176.54 349.86L195.92 338.67L176.54 349.86ZM175.07 349.01L136.31 326.63L134.99 325.87L134.83 325.78L160.31 311.06L173.59 303.4L175.07 302.54L176.54 303.4L189.74 311.02L215.3 325.78L213.83 326.63L196.65 316.71L175.07 304.25L149.58 318.96L136.31 326.63L175.07 349.01L194.45 337.82L175.07 349.01ZM216.78 326.63L215.67 325.99L215.47 325.87L216.78 326.63Z" fill="#DCEEFB" fill-opacity="1.000000" fill-rule="nonzero"/>
	<path id="path" d="M213.83 373.09L198.57 364.28L213.83 373.09ZM216.78 373.09L232.03 364.28L216.78 373.09ZM215.3 372.24L195.92 361.05L215.3 372.24L234.68 361.05L215.3 372.24ZM254.06 349.86L215.3 327.48L195.92 338.67L176.54 349.86L175.07 349.01L194.45 337.82L213.82 326.63L215.3 325.78L215.46 325.87L215.67 325.99L216.78 326.63L255.54 349.01L254.06 349.86Z" fill="#DCEEFB" fill-opacity="1.000000" fill-rule="nonzero"/>
	<path id="path" d="M255.54 397.17L255.17 396.96L215.3 373.94L216.78 373.09L215.3 372.24L234.68 361.05L254.06 349.86L255.54 349.01L257.02 349.86L281.19 363.82L295.78 372.24L297.25 373.09L295.78 373.94L255.54 397.17ZM216.78 373.09L255.54 395.47L294.3 373.09L268.29 358.08L255.54 350.71L232.03 364.28L216.78 373.09Z" fill="#DCEEFB" fill-opacity="1.000000" fill-rule="nonzero"/>
	<path id="path" d="M96.07 349.86L122.84 334.4L96.07 349.86ZM93.12 349.86L52.88 326.63L93.12 303.4L94.59 302.54L96.07 303.4L115.45 314.59L134.83 325.78L133.35 326.63L113.97 315.44L94.59 304.25L55.83 326.63L94.59 349.01L108.53 340.96L94.59 349.01L93.12 349.86ZM136.31 326.63L135.2 325.99L134.99 325.87L136.31 326.63Z" fill="#DCEEFB" fill-opacity="1.000000" fill-rule="nonzero"/>
	<path id="path" d="M136.31 373.09L161.13 358.76L136.31 373.09ZM134.83 372.24L94.96 349.22L94.59 349.01L108.53 340.96L133.35 326.63L134.83 325.78L134.99 325.87L135.2 325.99L136.31 326.63L175.07 349.01L173.59 349.86L134.83 327.48L122.84 334.4L96.07 349.86L134.83 372.24L146.82 365.31L134.83 372.24Z" fill="#DCEEFB" fill-opacity="1.000000" fill-rule="nonzero"/>
	<path id="path" d="M175.07 397.17L134.83 373.94L136.31 373.09L134.83 372.24L146.82 365.31L173.59 349.86L175.07 349.01L176.54 349.86L195.92 361.05L215.3 372.24L216.78 373.09L215.3 373.94L175.07 397.17ZM136.31 373.09L175.07 395.47L213.83 373.09L198.57 364.28L175.07 350.71L161.13 358.76L136.31 373.09Z" fill="#DCEEFB" fill-opacity="1.000000" fill-rule="nonzero"/>
	<path id="path" d="M94.59 397.17L94.23 396.96L52.88 373.09L93.12 349.86L94.59 349.01L94.96 349.22L134.83 372.24L136.31 373.09L134.83 373.94L94.59 397.17ZM94.59 350.71L55.83 373.09L94.59 395.46L133.35 373.09L94.59 350.71Z" fill="#DCEEFB" fill-opacity="1.000000" fill-rule="nonzero"/>
	<path id="path" d="M53.28 272.63C52.49 273.09 51.73 273.66 51 274.3C50.69 264.07 43.3 260 34.21 265.25C26.8 269.53 20.53 278.68 18.28 287.65C16.45 287.41 14.3 287.88 12 289.21C5.37 293.04 0 302.35 0 310C0 317.66 5.37 320.76 12 316.93L53.28 293.1C58.17 290.27 62.14 283.4 62.14 277.75C62.14 272.1 58.17 269.81 53.28 272.63Z" fill="#FEFEFE" fill-opacity="1.000000" fill-rule="nonzero"/>
	<path id="path" d="M373.52 335.3C373.52 337.79 371.78 340.8 369.62 342.05C367.48 343.29 365.73 342.28 365.73 339.8C365.73 337.32 367.48 334.3 369.62 333.06C371.78 331.82 373.52 332.82 373.52 335.3Z" fill="#FEFEFE" fill-opacity="1.000000" fill-rule="nonzero"/>
	<path id="path" d="M386.13 328.02C386.13 330.5 384.39 333.52 382.24 334.76C380.09 336 378.35 335 378.35 332.52C378.35 330.03 380.09 327.01 382.24 325.78C384.39 324.53 386.13 325.54 386.13 328.02Z" fill="#FEFEFE" fill-opacity="1.000000" fill-rule="nonzero"/>
	<path id="path" d="M398.75 320.74C398.75 323.22 397.01 326.24 394.86 327.48C392.71 328.72 390.96 327.71 390.96 325.23C390.96 322.75 392.71 319.73 394.86 318.49C397.01 317.25 398.75 318.26 398.75 320.74Z" fill="#FEFEFE" fill-opacity="1.000000" fill-rule="nonzero"/>
	<path id="path" d="M411.37 313.46C411.37 315.94 409.62 318.96 407.47 320.2C405.32 321.44 403.58 320.43 403.58 317.95C403.58 315.47 405.32 312.45 407.47 311.21C409.62 309.97 411.37 310.97 411.37 313.46Z" fill="#FEFEFE" fill-opacity="1.000000" fill-rule="nonzero"/>
	<path id="path" d="M191.81 404.88C191.81 407.36 190.07 410.38 187.92 411.62C185.77 412.86 184.03 411.85 184.03 409.37C184.03 406.89 185.77 403.87 187.92 402.63C190.07 401.39 191.81 402.4 191.81 404.88Z" fill="#FEFEFE" fill-opacity="1.000000" fill-rule="nonzero"/>
	<path id="path" d="M202.55 398.68C202.55 401.16 200.81 404.18 198.66 405.42C196.51 406.66 194.77 405.65 194.77 403.17C194.77 400.69 196.51 397.67 198.66 396.43C200.81 395.19 202.55 396.2 202.55 398.68Z" fill="#FEFEFE" fill-opacity="1.000000" fill-rule="nonzero"/>
	<path id="path" d="M191.81 392.48C191.81 394.96 190.07 397.98 187.92 399.22C185.77 400.46 184.03 399.46 184.03 396.97C184.03 394.49 185.77 391.47 187.92 390.23C190.07 388.99 191.81 390 191.81 392.48Z" fill="#FEFEFE" fill-opacity="1.000000" fill-rule="nonzero"/>
	<path id="path" d="M202.55 386.28C202.55 388.76 200.81 391.78 198.66 393.02C196.51 394.26 194.77 393.26 194.77 390.78C194.77 388.29 196.51 385.28 198.66 384.03C200.81 382.79 202.55 383.8 202.55 386.28Z" fill="#FEFEFE" fill-opacity="1.000000" fill-rule="nonzero"/>
	<path id="polygon" d="M155.75 94.21L147.97 98.7L147.97 89.71L155.75 85.22L155.75 94.21Z" fill="#FEFEFE" fill-opacity="1.000000" fill-rule="nonzero"/>
	<path id="polygon" d="M166.56 87.89L158.77 92.38L158.77 83.4L166.56 78.9L166.56 87.89Z" fill="#FEFEFE" fill-opacity="1.000000" fill-rule="nonzero"/>
	<path id="polygon" d="M155.82 105.87L148.04 110.36L148.04 101.37L155.82 96.88L155.82 105.87Z" fill="#FEFEFE" fill-opacity="1.000000" fill-rule="nonzero"/>
	<path id="polygon" d="M166.56 99.67L158.77 104.16L158.77 95.18L166.56 90.68L166.56 99.67Z" fill="#FEFEFE" fill-opacity="1.000000" fill-rule="nonzero"/>
	<path id="path" d="M408.58 60.53C405.75 60.53 403.81 58.28 403.81 54.37C403.81 48.87 407.67 42.18 412.44 39.44C413.81 38.64 415.11 38.27 416.27 38.27C416.69 38.27 417.1 38.32 417.48 38.41C417.38 37.56 417.3 36.68 417.3 35.73C417.3 24.23 425.37 10.25 435.33 4.5C438.22 2.84 440.94 2.05 443.36 2.05C446.87 2.05 449.72 3.71 451.47 6.77C453.21 4.66 455.2 2.88 457.32 1.66C459.28 0.53 461.13 0 462.76 0C466.67 0 469.38 3.04 469.51 8.33C470.64 6.99 471.94 5.85 473.31 5.06C474.64 4.29 475.9 3.93 477.01 3.93C479.73 3.93 481.6 6.1 481.6 9.85C481.6 11.83 481.08 13.97 480.19 16.01C479.53 11.89 477.03 9.55 473.61 9.55C471.97 9.55 470.13 10.09 468.17 11.22C466.05 12.44 464.05 14.22 462.32 16.33C460.57 13.27 457.71 11.61 454.2 11.61C451.79 11.61 449.06 12.4 446.18 14.06C436.22 19.81 428.15 33.79 428.15 45.29C428.15 46.24 428.22 47.12 428.33 47.97C427.95 47.88 427.54 47.82 427.11 47.82C425.96 47.82 424.66 48.2 423.28 48.99C420.42 50.65 417.88 53.73 416.31 57.12L412.44 59.35C411.05 60.15 409.74 60.53 408.58 60.53Z" fill="#D1E9F9" fill-opacity="1.000000" fill-rule="nonzero"/>
	<path id="path" d="M419.43 70.09C416.6 70.09 414.66 67.84 414.66 63.93C414.66 61.74 415.27 59.36 416.31 57.12L473.31 24.21C476.17 22.55 478.7 19.42 480.19 16.01C480.28 16.6 480.34 17.22 480.35 17.88C481.49 16.55 482.78 15.41 484.16 14.62C485.49 13.85 486.74 13.48 487.86 13.48C490.58 13.48 492.45 15.65 492.45 19.4C492.45 24.69 488.74 31.12 484.16 33.77L423.28 68.91C421.9 69.71 420.59 70.09 419.43 70.09Z" fill="#E3F3FD" fill-opacity="1.000000" fill-rule="nonzero"/>
	<path id="path" d="M416.31 57.12C417.88 53.73 420.42 50.65 423.28 48.99C424.66 48.2 425.96 47.82 427.11 47.82C427.54 47.82 427.95 47.88 428.33 47.97C428.23 47.12 428.15 46.24 428.15 45.29C428.15 33.79 436.22 19.81 446.18 14.06C449.06 12.4 451.79 11.61 454.2 11.61C457.71 11.61 460.57 13.27 462.32 16.33C464.05 14.22 466.05 12.44 468.17 11.22C470.13 10.09 471.97 9.55 473.61 9.55C477.03 9.55 479.53 11.89 480.19 16.01C478.7 19.42 476.17 22.56 473.31 24.21L416.31 57.12Z" fill="#E9F6FD" fill-opacity="1.000000" fill-rule="nonzero"/>
	<path id="path" d="M495 24.18C493.63 24.97 492.34 26.1 491.2 27.44C491.02 19.95 485.64 16.95 479.02 20.78C476.9 22 474.9 23.78 473.16 25.88C470.21 20.73 464.1 19.53 457.02 23.62C447.07 29.37 439 43.35 439 54.84C439 55.79 439.07 56.68 439.18 57.53C437.76 57.16 436.02 57.46 434.13 58.55C429.37 61.3 425.5 67.99 425.5 73.49C425.5 78.99 429.37 81.22 434.13 78.47L495 43.33C499.58 40.68 503.3 34.25 503.3 28.96C503.3 23.68 499.58 21.53 495 24.18Z" fill="#FEFEFE" fill-opacity="1.000000" fill-rule="nonzero"/>
	<path id="path" d="M162.37 278.71L162.39 278.71L162.37 278.71ZM143.37 267.73L143.37 287.5L160.49 277.62L160.49 257.85L143.37 267.73ZM141.49 292.65C141.16 292.65 140.84 292.56 140.55 292.39C139.96 292.06 139.6 291.43 139.6 290.76L139.6 266.65C139.6 265.97 139.96 265.35 140.55 265.01L161.43 252.96C162.01 252.62 162.73 252.62 163.31 252.96C163.9 253.29 164.26 253.91 164.26 254.59L164.26 278.71C164.26 279.38 163.9 280 163.31 280.34L142.43 292.39C142.14 292.56 141.81 292.65 141.49 292.65Z" fill="#FEFEFE" fill-opacity="1.000000" fill-rule="nonzero"/>
	<path id="polygon" d="M127.14 410.36L97.02 392.97L127.14 375.58L157.27 392.97L127.14 410.36Z" fill="#8FC8EC" fill-opacity="1.000000" fill-rule="nonzero"/>
	<path id="path" d="M101.6 379.91L127.14 394.66L152.68 379.91L127.14 365.17L101.6 379.91ZM127.14 399.6C126.75 399.6 126.35 399.49 126 399.29L95.88 381.9C95.17 381.49 94.73 380.73 94.73 379.91C94.73 379.1 95.17 378.34 95.88 377.93L126 360.54C126.71 360.13 127.58 360.13 128.29 360.54L158.41 377.93C159.12 378.34 159.56 379.1 159.56 379.91C159.56 380.73 159.12 381.49 158.41 381.9L128.29 399.29C127.93 399.49 127.54 399.6 127.14 399.6Z" fill="#FEFEFE" fill-opacity="1.000000" fill-rule="nonzero"/>
	<path id="polygon" d="M157.27 366.33L127.14 383.72L127.14 348.94L157.27 331.55L157.27 366.33Z" fill="url(#paint_radial_115_293_0)" fill-opacity="1.000000" fill-rule="evenodd"/>
	<path id="polygon" d="M127.14 348.94L97.02 331.55L127.14 314.16L157.26 331.55L127.14 348.94Z" fill="url(#paint_linear_115_294_0)" fill-opacity="1.000000" fill-rule="evenodd"/>
	<path id="polygon" d="M127.14 383.72L97.02 366.33L97.02 331.55L127.14 348.94L127.14 383.72Z" fill="url(#paint_radial_115_295_0)" fill-opacity="1.000000" fill-rule="evenodd"/>
	<path id="polygon" d="M116.3 364.93L107.87 360.06L107.87 350.34L116.3 355.2L116.3 364.93Z" fill="url(#paint_radial_115_296_0)" fill-opacity="1.000000" fill-rule="evenodd"/>
	<path id="polygon" d="M464.4 223.04L434.28 205.64L464.4 188.26L494.52 205.64L464.4 223.04Z" fill="#8FC8EC" fill-opacity="1.000000" fill-rule="nonzero"/>
	<path id="path" d="M438.86 192.59L464.4 207.33L489.94 192.59L464.4 177.84L438.86 192.59ZM464.4 212.27C464.01 212.27 463.61 212.16 463.26 211.96L433.13 194.57C432.43 194.16 431.99 193.4 431.99 192.59C431.99 191.77 432.43 191.01 433.13 190.6L463.25 173.21C463.96 172.8 464.84 172.8 465.54 173.21L495.67 190.6C496.37 191.01 496.81 191.77 496.81 192.59C496.81 193.4 496.37 194.16 495.67 194.57L465.54 211.96C465.19 212.16 464.8 212.27 464.4 212.27Z" fill="#FEFEFE" fill-opacity="1.000000" fill-rule="nonzero"/>
	<path id="polygon" d="M494.52 179L464.4 196.39L464.4 161.61L494.52 144.22L494.52 179Z" fill="url(#paint_radial_115_299_0)" fill-opacity="1.000000" fill-rule="evenodd"/>
	<path id="polygon" d="M464.4 161.61L434.28 144.22L464.4 126.83L494.52 144.22L464.4 161.61Z" fill="url(#paint_linear_115_300_0)" fill-opacity="1.000000" fill-rule="evenodd"/>
	<path id="polygon" d="M464.4 196.39L434.28 179L434.28 144.22L464.4 161.61L464.4 196.39Z" fill="url(#paint_radial_115_301_0)" fill-opacity="1.000000" fill-rule="evenodd"/>
	<path id="polygon" d="M453.55 177.6L445.13 172.74L445.13 163.01L453.55 167.87L453.55 177.6Z" fill="url(#paint_radial_115_302_0)" fill-opacity="1.000000" fill-rule="evenodd"/>
	<path id="polygon" d="M455.98 144.32L464.34 139.36L472.82 144.12L464.46 149.08L455.98 144.32Z" fill="url(#paint_radial_115_303_0)" fill-opacity="1.000000" fill-rule="evenodd"/>
	<path id="polygon" d="M464.4 410.36L434.28 392.97L464.4 375.58L494.52 392.97L464.4 410.36Z" fill="#8FC8EC" fill-opacity="1.000000" fill-rule="nonzero"/>
	<path id="path" d="M438.86 379.91L464.4 394.66L489.94 379.91L464.4 365.17L438.86 379.91ZM464.4 399.6C464.01 399.6 463.61 399.49 463.26 399.29L433.13 381.9C432.43 381.49 431.99 380.73 431.99 379.91C431.99 379.1 432.43 378.34 433.13 377.93L463.25 360.54C463.96 360.13 464.84 360.13 465.54 360.54L495.67 377.93C496.37 378.34 496.81 379.1 496.81 379.91C496.81 380.73 496.37 381.49 495.67 381.9L465.54 399.29C465.19 399.49 464.8 399.6 464.4 399.6Z" fill="#FEFEFE" fill-opacity="1.000000" fill-rule="nonzero"/>
	<path id="polygon" d="M494.52 366.33L464.4 383.72L464.4 348.94L494.52 331.55L494.52 366.33Z" fill="url(#paint_radial_115_306_0)" fill-opacity="1.000000" fill-rule="evenodd"/>
	<path id="polygon" d="M464.4 348.94L434.28 331.55L464.4 314.16L494.52 331.55L464.4 348.94Z" fill="url(#paint_linear_115_307_0)" fill-opacity="1.000000" fill-rule="evenodd"/>
	<path id="polygon" d="M464.4 383.72L434.28 366.33L434.28 331.55L464.4 348.94L464.4 383.72Z" fill="url(#paint_radial_115_308_0)" fill-opacity="1.000000" fill-rule="evenodd"/>
	<path id="polygon" d="M453.55 364.93L445.13 360.06L445.13 350.34L453.55 355.2L453.55 364.93Z" fill="url(#paint_radial_115_309_0)" fill-opacity="1.000000" fill-rule="evenodd"/>
	<path id="polygon" d="M127.14 223.04L97.02 205.64L127.14 188.26L157.27 205.64L127.14 223.04Z" fill="#8FC8EC" fill-opacity="1.000000" fill-rule="nonzero"/>
	<path id="path" d="M101.6 192.59L127.14 207.33L152.68 192.59L127.14 177.84L101.6 192.59ZM127.14 212.27C126.75 212.27 126.35 212.16 126 211.96L95.88 194.57C95.17 194.16 94.73 193.4 94.73 192.59C94.73 191.77 95.17 191.01 95.88 190.6L126 173.21C126.71 172.8 127.58 172.8 128.29 173.21L158.41 190.6C159.12 191.01 159.56 191.77 159.56 192.59C159.56 193.4 159.12 194.16 158.41 194.57L128.29 211.96C127.93 212.16 127.54 212.27 127.14 212.27Z" fill="#FEFEFE" fill-opacity="1.000000" fill-rule="nonzero"/>
	<path id="polygon" d="M157.27 179L127.14 196.39L127.14 161.61L157.27 144.22L157.27 179Z" fill="url(#paint_radial_115_312_0)" fill-opacity="1.000000" fill-rule="evenodd"/>
	<path id="polygon" d="M127.14 161.61L97.02 144.22L127.14 126.83L157.26 144.22L127.14 161.61Z" fill="url(#paint_linear_115_313_0)" fill-opacity="1.000000" fill-rule="evenodd"/>
	<path id="polygon" d="M127.14 196.39L97.02 179L97.02 144.22L127.14 161.61L127.14 196.39Z" fill="url(#paint_radial_115_314_0)" fill-opacity="1.000000" fill-rule="evenodd"/>
	<path id="polygon" d="M116.3 177.6L107.87 172.74L107.87 163.01L116.3 167.87L116.3 177.6Z" fill="url(#paint_radial_115_315_0)" fill-opacity="1.000000" fill-rule="evenodd"/>
	<path id="polygon" d="M362.46 223.34L360.17 219.37L447.76 168.8L450.05 172.76L362.46 223.34Z" fill="url(#paint_radial_115_316_0)" fill-opacity="1.000000" fill-rule="evenodd"/>
	<path id="path" d="M288.67 345.87L211.42 301.27C208.59 299.63 208.94 296.78 212.21 294.89L294.08 247.5C297.35 245.61 302.3 245.41 305.13 247.04L382.38 291.64C385.21 293.27 384.85 296.13 381.58 298.01L299.71 345.41C296.44 347.3 291.5 347.5 288.67 345.87Z" fill="#8FC8EC" fill-opacity="1.000000" fill-rule="nonzero"/>
	<path id="path" d="M289.81 325.85C291.93 327.07 296.02 326.86 298.56 325.39L380.44 278C381.58 277.34 382 276.66 382 276.37C382 276.2 381.76 275.89 381.23 275.59L303.98 230.99C301.86 229.76 297.77 229.98 295.23 231.45L213.35 278.84C212.21 279.5 211.79 280.17 211.79 280.46C211.79 280.63 212.03 280.94 212.56 281.25L289.81 325.85ZM293.47 331.21C291.27 331.21 289.14 330.75 287.52 329.81L210.27 285.21C208.33 284.09 207.22 282.36 207.22 280.46C207.22 278.32 208.62 276.28 211.06 274.87L292.94 227.48C296.9 225.19 302.76 224.99 306.27 227.02L383.52 271.62C385.46 272.74 386.58 274.47 386.58 276.37C386.58 278.51 385.17 280.55 382.73 281.96L300.85 329.35C298.72 330.59 296.04 331.21 293.47 331.21Z" fill="#FEFEFE" fill-opacity="1.000000" fill-rule="nonzero"/>
	<path id="path" d="M294.06 310.05C295.12 309.31 295.77 307.79 295.77 305.69L295.77 117.1C295.77 115.12 295.19 112.99 294.24 111.11L308.8 102.7L310.28 101.85L349.04 79.47L350.51 78.62L384.12 59.22C385.08 61.1 385.68 63.24 385.68 65.24L385.68 253.83C385.68 256.01 384.97 257.55 383.85 258.25L383.85 258.26L383.69 258.35L383.65 258.38L372.11 265.03L367.53 267.67L361.8 270.98L360.32 271.83L354.19 275.37L294.06 310.05Z" fill="url(#paint_radial_115_319_0)" fill-opacity="1.000000" fill-rule="evenodd"/>
	<path id="path" d="M294.24 111.11C293.23 109.11 291.8 107.41 290.22 106.5L211.41 61C210.63 60.54 209.89 60.33 209.21 60.33C208.77 60.33 208.35 60.42 207.98 60.6L297.73 8.82C298.15 8.59 298.62 8.47 299.12 8.47C299.8 8.47 300.54 8.68 301.32 9.13L380.13 54.63C381.7 55.54 383.12 57.23 384.13 59.21L350.51 78.62L349.04 79.47L310.28 101.85L308.8 102.7L294.24 111.11Z" fill="url(#paint_linear_115_320_0)" fill-opacity="1.000000" fill-rule="evenodd"/>
	<path id="path" d="M290.22 309.89L211.41 264.39C208.35 262.62 205.86 257.87 205.86 253.79L205.86 65.19C205.86 61.1 208.35 59.23 211.41 61L290.22 106.5C293.29 108.27 295.77 113.01 295.77 117.1L295.77 305.69C295.77 309.78 293.29 311.66 290.22 309.89Z" fill="#6097D0" fill-opacity="1.000000" fill-rule="nonzero"/>
	<path id="path" d="M291.91 105.55L213.1 60.05C211.33 59.02 209.75 59.23 208.74 60.37C209.53 60.24 210.44 60.44 211.41 61L290.22 106.5C293.29 108.27 295.77 113.01 295.77 117.1L295.77 305.69C295.77 307.41 295.33 308.74 294.59 309.57C296.3 309.3 297.46 307.54 297.46 304.74L297.46 116.15C297.46 112.07 294.98 107.32 291.91 105.55Z" fill="#FEFEFE" fill-opacity="1.000000" fill-rule="nonzero"/>
	<path id="path" d="M285.26 298.54L216.37 258.76C213.69 257.21 211.52 253.06 211.52 249.49L211.52 74.34C211.52 70.77 213.69 69.13 216.37 70.67L285.26 110.45C287.94 112 290.12 116.14 290.12 119.72L290.12 294.87C290.12 298.44 287.94 300.08 285.26 298.54Z" fill="url(#paint_linear_115_323_0)" fill-opacity="1.000000" fill-rule="evenodd"/>
	<path id="path" d="M285.26 298.54L216.37 258.76C213.69 257.21 211.52 253.06 211.52 249.49L211.52 74.34C211.52 70.77 213.69 69.13 216.37 70.67L285.26 110.45C287.94 112 290.12 116.14 290.12 119.72L290.12 294.87C290.12 298.44 287.94 300.08 285.26 298.54Z" fill="url(#paint_linear_115_324_0)" fill-opacity="1.000000" fill-rule="evenodd"/>
	<path id="path" d="M285.26 298.54L216.37 258.76C213.69 257.21 211.52 253.06 211.52 249.49L211.52 74.34C211.52 70.77 213.69 69.13 216.37 70.67L285.26 110.45C287.94 112 290.12 116.14 290.12 119.72L290.12 294.87C290.12 298.44 287.94 300.08 285.26 298.54Z" fill="#2F3E74" fill-opacity="1.000000" fill-rule="nonzero"/>
	<path id="path" d="M287.51 297.21L218.62 257.44C215.94 255.89 213.77 251.74 213.77 248.17L213.77 73.01C213.77 71.8 214.03 70.81 214.47 70.09C212.73 70.08 211.52 71.67 211.52 74.34L211.52 249.49C211.52 253.06 213.69 257.21 216.37 258.76L285.26 298.54C287.03 299.56 288.57 299.18 289.42 297.79C288.84 297.79 288.19 297.6 287.51 297.21Z" fill="#3F6AA9" fill-opacity="1.000000" fill-rule="nonzero"/>
	<path id="path" d="M285.26 218.12L259.66 203.34L218.82 226.92L290.12 268.08L290.12 227.39C290.12 223.82 287.94 219.67 285.26 218.12Z" fill="#2F3E74" fill-opacity="1.000000" fill-rule="nonzero"/>
	<path id="path" d="M285.26 182.23L259.66 167.45L218.82 191.02L290.12 232.19L290.12 191.5C290.12 187.93 287.94 183.78 285.26 182.23Z" fill="#2F3E74" fill-opacity="1.000000" fill-rule="nonzero"/>
	<path id="path" d="M285.26 146.34L259.66 131.56L218.82 155.13L290.12 196.3L290.12 155.61C290.12 152.03 287.94 147.89 285.26 146.34Z" fill="#2F3E74" fill-opacity="1.000000" fill-rule="nonzero"/>
	<path id="path" d="M285.26 110.45L259.66 95.66L218.82 119.24L290.12 160.41L290.12 119.72C290.12 116.14 287.94 112 285.26 110.45Z" fill="#2F3E74" fill-opacity="1.000000" fill-rule="nonzero"/>
	<path id="path" d="M285.26 110.45L228.57 77.72L218.82 83.35L290.12 124.52L290.12 119.72C290.12 116.14 287.94 112 285.26 110.45Z" fill="#2F3E74" fill-opacity="1.000000" fill-rule="nonzero"/>
	<path id="polygon" d="M290.12 124.52L218.82 83.35L218.82 106.04L290.12 147.2L290.12 124.52Z" fill="#6097D0" fill-opacity="1.000000" fill-rule="nonzero"/>
	<path id="polygon" d="M290.12 160.41L218.82 119.24L218.82 141.93L290.12 183.09L290.12 160.41Z" fill="#6097D0" fill-opacity="1.000000" fill-rule="nonzero"/>
	<path id="polygon" d="M290.12 196.3L218.82 155.13L218.82 177.82L290.12 218.98L290.12 196.3Z" fill="#6097D0" fill-opacity="1.000000" fill-rule="nonzero"/>
	<path id="polygon" d="M290.12 232.19L218.82 191.02L218.82 213.71L290.12 254.87L290.12 232.19Z" fill="#6097D0" fill-opacity="1.000000" fill-rule="nonzero"/>
	<path id="polygon" d="M290.12 268.08L218.82 226.92L218.82 249.6L290.12 290.76L290.12 268.08Z" fill="#6097D0" fill-opacity="1.000000" fill-rule="nonzero"/>
	<path id="path" d="M283.83 139.12L230.12 108.11C228.61 107.24 227.38 104.89 227.38 102.87L227.38 96.79C227.38 94.77 228.61 93.84 230.12 94.72L283.83 125.72C285.34 126.6 286.57 128.95 286.57 130.97L286.57 137.04C286.57 139.07 285.34 139.99 283.83 139.12Z" fill="#2F3E74" fill-opacity="1.000000" fill-rule="nonzero"/>
	<path id="path" d="M284.13 139.27C284.03 139.23 283.93 139.18 283.83 139.12L230.12 108.11C228.61 107.24 227.38 104.89 227.38 102.87C227.38 104.89 228.61 107.24 230.12 108.11L283.83 139.12C283.93 139.18 284.03 139.23 284.13 139.27ZM227.38 96.79C227.38 95.29 228.06 94.39 229.02 94.39C228.06 94.39 227.38 95.29 227.38 96.79ZM229.04 94.39C229.04 94.39 229.04 94.39 229.04 94.39C229.04 94.39 229.04 94.39 229.04 94.39Z" fill="#4766A2" fill-opacity="1.000000" fill-rule="nonzero"/>
	<path id="path" d="M284.91 139.45C284.67 139.45 284.41 139.39 284.13 139.27C284.03 139.23 283.93 139.18 283.83 139.12L230.12 108.11C228.61 107.24 227.38 104.89 227.38 102.87L227.38 96.79C227.38 95.29 228.06 94.39 229.02 94.39C229.03 94.39 229.03 94.39 229.04 94.39C229.04 94.39 229.04 94.39 229.04 94.39C229.37 94.39 229.74 94.49 230.12 94.72L230.19 94.76C230.14 95.02 230.09 95.3 230.09 95.63L230.09 101.7C230.09 103.73 231.32 106.07 232.84 106.95L286.47 137.91C286.26 138.89 285.68 139.45 284.91 139.45Z" fill="#313663" fill-opacity="1.000000" fill-rule="nonzero"/>
	<path id="path" d="M266.97 122.47L234.66 103.81C234.12 103.5 233.69 102.68 233.69 101.96C233.69 101.25 234.12 100.93 234.66 101.23L266.97 119.89C267.51 120.2 267.94 121.03 267.94 121.74C267.94 122.45 267.51 122.78 266.97 122.47Z" fill="#FEFEFE" fill-opacity="1.000000" fill-rule="nonzero"/>
	<path id="path" d="M283.83 174.79L230.12 143.78C228.61 142.91 227.38 140.56 227.38 138.53L227.38 132.46C227.38 130.44 228.61 129.51 230.12 130.39L283.83 161.39C285.34 162.27 286.57 164.62 286.57 166.64L286.57 172.71C286.57 174.73 285.34 175.66 283.83 174.79Z" fill="#2F3E74" fill-opacity="1.000000" fill-rule="nonzero"/>
	<path id="path" d="M284.06 174.91C284.06 174.91 284.06 174.9 284.05 174.9C284.06 174.9 284.06 174.91 284.06 174.91ZM284.04 174.9C283.97 174.87 283.9 174.83 283.83 174.79L230.12 143.78C228.61 142.91 227.38 140.56 227.38 138.53C227.38 140.56 228.61 142.91 230.12 143.78L283.83 174.79C283.9 174.83 283.97 174.87 284.04 174.9ZM227.38 132.39C227.39 131.5 227.65 130.83 228.06 130.44C227.65 130.83 227.39 131.5 227.38 132.39ZM228.06 130.44C228.06 130.44 228.07 130.44 228.07 130.44C228.07 130.44 228.06 130.44 228.06 130.44Z" fill="#4766A2" fill-opacity="1.000000" fill-rule="nonzero"/>
	<path id="path" d="M284.91 175.11C284.65 175.11 284.36 175.05 284.06 174.91C284.06 174.91 284.06 174.9 284.05 174.9C284.05 174.9 284.05 174.9 284.04 174.9C283.97 174.87 283.9 174.83 283.83 174.79L230.12 143.78C228.61 142.91 227.38 140.56 227.38 138.53L227.38 132.46C227.38 132.44 227.38 132.41 227.38 132.39C227.39 131.5 227.65 130.83 228.06 130.44C228.06 130.44 228.07 130.44 228.07 130.44C228.33 130.19 228.66 130.06 229.03 130.06C229.37 130.06 229.74 130.16 230.12 130.39L230.19 130.42C230.14 130.69 230.09 130.97 230.09 131.3L230.09 137.37C230.09 139.39 231.32 141.74 232.84 142.62L286.47 173.58C286.26 174.55 285.68 175.11 284.91 175.11Z" fill="#313663" fill-opacity="1.000000" fill-rule="nonzero"/>
	<path id="path" d="M266.97 158.14L234.66 139.48C234.12 139.17 233.69 138.35 233.69 137.63C233.69 136.92 234.12 136.59 234.66 136.9L266.97 155.56C267.51 155.87 267.94 156.69 267.94 157.4C267.94 158.12 267.51 158.45 266.97 158.14Z" fill="#FEFEFE" fill-opacity="1.000000" fill-rule="nonzero"/>
	<path id="path" d="M283.83 210.79L230.12 179.78C228.61 178.91 227.38 176.56 227.38 174.54L227.38 168.46C227.38 166.44 228.61 165.51 230.12 166.39L283.83 197.39C285.34 198.27 286.57 200.62 286.57 202.64L286.57 208.71C286.57 210.73 285.34 211.66 283.83 210.79Z" fill="#2F3E74" fill-opacity="1.000000" fill-rule="nonzero"/>
	<path id="path" d="M227.38 168.46C227.38 166.96 228.06 166.06 229.03 166.06C228.06 166.06 227.38 166.96 227.38 168.46ZM230.19 166.43L230.12 166.39L230.19 166.43ZM230.12 166.39C230.11 166.38 230.09 166.37 230.07 166.36C230.09 166.37 230.11 166.38 230.12 166.39Z" fill="#4766A2" fill-opacity="1.000000" fill-rule="nonzero"/>
	<path id="path" d="M284.91 211.12C284.58 211.12 284.21 211.01 283.83 210.79L230.12 179.78C228.61 178.91 227.38 176.56 227.38 174.54L227.38 168.46C227.38 166.96 228.06 166.06 229.03 166.06C229.03 166.06 229.03 166.06 229.03 166.06C229.35 166.06 229.71 166.16 230.07 166.36C230.09 166.37 230.11 166.38 230.12 166.39L230.19 166.43C230.14 166.69 230.09 166.98 230.09 167.3L230.09 173.37C230.09 175.4 231.32 177.74 232.84 178.62L286.47 209.59C286.26 210.56 285.68 211.12 284.91 211.12Z" fill="#313663" fill-opacity="1.000000" fill-rule="nonzero"/>
	<path id="path" d="M266.97 194.14L234.66 175.48C234.12 175.17 233.69 174.35 233.69 173.63C233.69 172.92 234.12 172.6 234.66 172.9L266.97 191.56C267.51 191.87 267.94 192.7 267.94 193.41C267.94 194.12 267.51 194.45 266.97 194.14Z" fill="#DFEEFB" fill-opacity="1.000000" fill-rule="nonzero"/>
	<path id="path" d="M283.83 247.12L230.12 216.12C228.61 215.24 227.38 212.89 227.38 210.87L227.38 204.8C227.38 202.78 228.61 201.85 230.12 202.72L283.83 233.73C285.34 234.6 286.57 236.95 286.57 238.97L286.57 245.05C286.57 247.07 285.34 248 283.83 247.12Z" fill="#2F3E74" fill-opacity="1.000000" fill-rule="nonzero"/>
	<path id="path" d="M284.08 247.25C284.08 247.25 284.07 247.25 284.07 247.25C284.07 247.25 284.08 247.25 284.08 247.25ZM284.06 247.25C283.99 247.21 283.91 247.17 283.83 247.12L230.12 216.12C228.61 215.24 227.38 212.89 227.38 210.87C227.38 212.89 228.61 215.24 230.12 216.12L283.83 247.12C283.91 247.17 283.99 247.21 284.06 247.25ZM227.38 204.8C227.38 203.3 228.06 202.4 229.02 202.39C228.06 202.4 227.38 203.3 227.38 204.8ZM229.04 202.39C229.04 202.39 229.04 202.39 229.04 202.39C229.04 202.39 229.04 202.39 229.04 202.39Z" fill="#4766A2" fill-opacity="1.000000" fill-rule="nonzero"/>
	<path id="path" d="M284.91 247.45C284.65 247.45 284.37 247.39 284.08 247.25C284.08 247.25 284.07 247.25 284.07 247.25C284.07 247.25 284.07 247.25 284.06 247.25C283.99 247.21 283.91 247.17 283.83 247.12L230.12 216.12C228.61 215.24 227.38 212.89 227.38 210.87L227.38 204.8C227.38 203.3 228.06 202.4 229.02 202.39C229.03 202.39 229.03 202.39 229.04 202.39C229.04 202.39 229.04 202.39 229.04 202.39C229.37 202.39 229.74 202.5 230.12 202.72L230.19 202.76C230.14 203.02 230.09 203.31 230.09 203.63L230.09 209.71C230.09 211.73 231.32 214.08 232.84 214.95L286.47 245.92C286.26 246.89 285.68 247.45 284.91 247.45Z" fill="#313663" fill-opacity="1.000000" fill-rule="nonzero"/>
	<path id="path" d="M266.97 230.47L234.66 211.81C234.12 211.51 233.69 210.68 233.69 209.97C233.69 209.26 234.12 208.93 234.66 209.24L266.97 227.9C267.51 228.2 267.94 229.03 267.94 229.74C267.94 230.45 267.51 230.78 266.97 230.47Z" fill="#E8348A" fill-opacity="1.000000" fill-rule="nonzero"/>
	<path id="path" d="M283.83 282.74L230.12 251.73C228.61 250.86 227.38 248.51 227.38 246.48L227.38 240.41C227.38 238.39 228.61 237.46 230.12 238.34L283.83 269.34C285.34 270.22 286.57 272.57 286.57 274.59L286.57 280.66C286.57 282.68 285.34 283.61 283.83 282.74Z" fill="#2F3E74" fill-opacity="1.000000" fill-rule="nonzero"/>
	<path id="path" d="M227.38 240.41C227.38 238.91 228.06 238.01 229.02 238.01C228.06 238.01 227.38 238.91 227.38 240.41ZM230.19 238.38L230.12 238.34L230.19 238.38ZM230.12 238.34C230.1 238.32 230.08 238.31 230.05 238.3C230.08 238.31 230.1 238.32 230.12 238.34ZM229.04 238.01C229.04 238.01 229.04 238.01 229.03 238.01C229.04 238.01 229.04 238.01 229.04 238.01Z" fill="#4766A2" fill-opacity="1.000000" fill-rule="nonzero"/>
	<path id="path" d="M284.91 283.06C284.58 283.06 284.21 282.96 283.83 282.74L230.12 251.73C228.61 250.86 227.38 248.51 227.38 246.49L227.38 240.41C227.38 238.91 228.06 238.01 229.02 238.01C229.03 238.01 229.03 238.01 229.03 238.01C229.04 238.01 229.04 238.01 229.04 238.01C229.35 238.01 229.69 238.1 230.05 238.3C230.08 238.31 230.1 238.32 230.12 238.34L230.19 238.38C230.14 238.64 230.09 238.92 230.09 239.25L230.09 245.32C230.09 247.35 231.32 249.69 232.84 250.57L286.47 281.53C286.26 282.5 285.68 283.06 284.91 283.06Z" fill="#313663" fill-opacity="1.000000" fill-rule="nonzero"/>
	<path id="path" d="M266.97 266.09L234.66 247.43C234.12 247.12 233.69 246.29 233.69 245.58C233.69 244.87 234.12 244.54 234.66 244.85L266.97 263.51C267.51 263.82 267.94 264.65 267.94 265.35C267.94 266.07 267.51 266.39 266.97 266.09Z" fill="#DFEEFB" fill-opacity="1.000000" fill-rule="nonzero"/>
	<path id="path" d="M224.43 109.28L218.82 106.04L224.43 109.28ZM224.43 86.59L218.82 83.35L224.43 86.59Z" fill="#2F3E74" fill-opacity="1.000000" fill-rule="nonzero"/>
	<path id="polygon" d="" fill="#2F3E74" fill-opacity="1.000000" fill-rule="nonzero"/>
	<path id="polygon" d="M224.43 109.28L218.82 106.04L218.82 83.35L224.43 86.59L224.43 109.28Z" fill="#3F67A3" fill-opacity="1.000000" fill-rule="nonzero"/>
	<path id="polygon" d="" fill="#2F3E74" fill-opacity="1.000000" fill-rule="nonzero"/>
	<path id="polygon" d="M224.43 145.17L218.82 141.93L218.82 119.24L224.43 122.49L224.43 145.17Z" fill="#3F67A3" fill-opacity="1.000000" fill-rule="nonzero"/>
	<path id="polygon" d="M224.43 181.06L218.82 177.82L218.82 155.13L224.43 158.38L224.43 181.06Z" fill="#3F67A3" fill-opacity="1.000000" fill-rule="nonzero"/>
	<path id="polygon" d="" fill="#2F3E74" fill-opacity="1.000000" fill-rule="nonzero"/>
	<path id="polygon" d="M224.43 216.95L218.82 213.71L218.82 191.02L224.43 194.27L224.43 216.95Z" fill="#3F67A3" fill-opacity="1.000000" fill-rule="nonzero"/>
	<path id="polygon" d="" fill="#2F3E74" fill-opacity="1.000000" fill-rule="nonzero"/>
	<path id="polygon" d="" fill="#2F3E74" fill-opacity="1.000000" fill-rule="nonzero"/>
	<path id="polygon" d="M224.43 252.84L218.82 249.6L218.82 226.92L224.43 230.16L224.43 252.84Z" fill="#3F67A3" fill-opacity="1.000000" fill-rule="nonzero"/>
	<path id="path" d="M273.34 124.71C273.34 125.43 272.83 125.73 272.21 125.36C271.58 125 271.07 124.12 271.07 123.39C271.07 122.67 271.58 122.38 272.21 122.74C272.83 123.1 273.34 123.98 273.34 124.71Z" fill="#DFEEFB" fill-opacity="1.000000" fill-rule="nonzero"/>
	<path id="path" d="M278.16 127.49C278.16 128.21 277.65 128.51 277.02 128.14C276.4 127.78 275.89 126.9 275.89 126.18C275.89 125.45 276.4 125.16 277.02 125.52C277.65 125.88 278.16 126.77 278.16 127.49Z" fill="#E8348A" fill-opacity="1.000000" fill-rule="nonzero"/>
	<path id="path" d="M282.98 130.27C282.98 131 282.47 131.29 281.84 130.93C281.22 130.57 280.71 129.68 280.71 128.96C280.71 128.24 281.22 127.94 281.84 128.3C282.47 128.67 282.98 129.55 282.98 130.27Z" fill="#DFEEFB" fill-opacity="1.000000" fill-rule="nonzero"/>
	<path id="path" d="M273.34 160.58C273.34 161.3 272.83 161.6 272.21 161.24C271.58 160.87 271.07 159.99 271.07 159.27C271.07 158.54 271.58 158.25 272.21 158.61C272.83 158.97 273.34 159.85 273.34 160.58Z" fill="#E8348A" fill-opacity="1.000000" fill-rule="nonzero"/>
	<path id="path" d="M278.16 163.36C278.16 164.09 277.65 164.38 277.02 164.02C276.4 163.66 275.89 162.77 275.89 162.05C275.89 161.33 276.4 161.03 277.02 161.39C277.65 161.75 278.16 162.64 278.16 163.36Z" fill="#DFEEFB" fill-opacity="1.000000" fill-rule="nonzero"/>
	<path id="path" d="M282.98 166.15C282.98 166.87 282.47 167.16 281.84 166.8C281.22 166.44 280.71 165.56 280.71 164.83C280.71 164.11 281.22 163.81 281.84 164.18C282.47 164.54 282.98 165.42 282.98 166.15Z" fill="#FEFEFE" fill-opacity="1.000000" fill-rule="nonzero"/>
	<path id="path" d="M273.34 196.72C273.34 197.45 272.83 197.74 272.21 197.38C271.58 197.02 271.07 196.14 271.07 195.41C271.07 194.69 271.58 194.39 272.21 194.75C272.83 195.12 273.34 196 273.34 196.72Z" fill="#FEFEFE" fill-opacity="1.000000" fill-rule="nonzero"/>
	<path id="path" d="M278.16 199.51C278.16 200.23 277.65 200.52 277.02 200.16C276.4 199.8 275.89 198.92 275.89 198.19C275.89 197.47 276.4 197.18 277.02 197.54C277.65 197.9 278.16 198.78 278.16 199.51Z" fill="#E8348A" fill-opacity="1.000000" fill-rule="nonzero"/>
	<path id="path" d="M282.98 202.29C282.98 203.01 282.47 203.31 281.84 202.95C281.22 202.58 280.71 201.7 280.71 200.98C280.71 200.25 281.22 199.96 281.84 200.32C282.47 200.68 282.98 201.56 282.98 202.29Z" fill="#FEFEFE" fill-opacity="1.000000" fill-rule="nonzero"/>
	<path id="path" d="M273.34 232.34C273.34 233.07 272.83 233.36 272.21 233C271.58 232.63 271.07 231.75 271.07 231.03C271.07 230.3 271.58 230.01 272.21 230.37C272.83 230.73 273.34 231.62 273.34 232.34Z" fill="#FEFEFE" fill-opacity="1.000000" fill-rule="nonzero"/>
	<path id="path" d="M278.16 235.12C278.16 235.85 277.65 236.14 277.02 235.78C276.4 235.42 275.89 234.54 275.89 233.81C275.89 233.08 276.4 232.79 277.02 233.15C277.65 233.52 278.16 234.4 278.16 235.12Z" fill="#DFEEFB" fill-opacity="1.000000" fill-rule="nonzero"/>
	<path id="path" d="M282.98 237.91C282.98 238.63 282.47 238.92 281.84 238.56C281.22 238.2 280.71 237.32 280.71 236.59C280.71 235.87 281.22 235.57 281.84 235.94C282.47 236.3 282.98 237.18 282.98 237.91Z" fill="#DFEEFB" fill-opacity="1.000000" fill-rule="nonzero"/>
	<path id="path" d="M273.34 268.44C273.34 269.17 272.83 269.46 272.21 269.1C271.58 268.74 271.07 267.85 271.07 267.13C271.07 266.41 271.58 266.11 272.21 266.47C272.83 266.84 273.34 267.72 273.34 268.44Z" fill="#FEFEFE" fill-opacity="1.000000" fill-rule="nonzero"/>
	<path id="path" d="M278.16 271.23C278.16 271.95 277.65 272.25 277.02 271.88C276.4 271.52 275.89 270.64 275.89 269.91C275.89 269.19 276.4 268.9 277.02 269.26C277.65 269.62 278.16 270.5 278.16 271.23Z" fill="#E8348A" fill-opacity="1.000000" fill-rule="nonzero"/>
	<path id="path" d="M282.98 274.01C282.98 274.73 282.47 275.03 281.84 274.67C281.22 274.3 280.71 273.42 280.71 272.7C280.71 271.97 281.22 271.68 281.84 272.04C282.47 272.4 282.98 273.29 282.98 274.01Z" fill="#DFEEFB" fill-opacity="1.000000" fill-rule="nonzero"/>
	<path id="path" d="M308.97 124.57L308.97 282.09L373.76 244.69L373.76 87.17L308.97 124.57ZM307.64 284.4L307.64 123.81L307.97 123.62L375.09 84.87L375.09 245.46L374.76 245.65L307.64 284.4Z" fill="#2F3E74" fill-opacity="1.000000" fill-rule="nonzero"/>
	<path id="path" d="M357.66 157.12L327.56 174.5C325.54 175.66 323.9 174.42 323.9 171.73L323.9 155.04C323.9 152.35 325.54 149.22 327.56 148.05L357.66 130.67C359.68 129.51 361.32 130.75 361.32 133.44L361.32 150.13C361.32 152.82 359.68 155.95 357.66 157.12Z" fill="#2F3E74" fill-opacity="1.000000" fill-rule="nonzero"/>
	<path id="path" d="M358.39 130.35C358.56 130.82 358.66 131.38 358.66 132.02L358.66 148.71C358.66 151.4 357.02 154.54 355 155.7L324.9 173.08C324.65 173.22 324.41 173.33 324.17 173.4C324.72 174.87 326.03 175.38 327.56 174.5L357.66 157.12C359.68 155.95 361.32 152.82 361.32 150.13L361.32 133.44C361.32 131.08 360.06 129.84 358.39 130.35Z" fill="#6097D0" fill-opacity="1.000000" fill-rule="nonzero"/>
	<path id="path" d="M352.16 147.07C352.71 146.75 353.17 147.01 353.17 147.65L353.17 151.46C353.17 152.1 352.71 152.88 352.16 153.2C351.6 153.52 351.15 153.26 351.15 152.62L351.15 148.82C351.15 148.17 351.6 147.39 352.16 147.07Z" fill="#FEFEFE" fill-opacity="1.000000" fill-rule="nonzero"/>
	<path id="path" d="M347.84 150.04C348.4 149.72 348.85 149.98 348.85 150.62L348.85 153.95C348.85 154.59 348.4 155.37 347.84 155.69C347.28 156.01 346.83 155.75 346.83 155.11L346.83 151.78C346.83 151.14 347.28 150.36 347.84 150.04Z" fill="#DFEEFB" fill-opacity="1.000000" fill-rule="nonzero"/>
	<path id="path" d="M343.52 148.82C344.08 148.5 344.53 148.76 344.53 149.4L344.53 156.44C344.53 157.08 344.08 157.86 343.52 158.18C342.97 158.51 342.52 158.25 342.52 157.6L342.52 150.57C342.52 149.92 342.97 149.14 343.52 148.82Z" fill="#E8348A" fill-opacity="1.000000" fill-rule="nonzero"/>
	<path id="path" d="M339.21 147.26C339.76 146.94 340.21 147.2 340.21 147.84L340.21 158.93C340.21 159.57 339.76 160.35 339.21 160.68C338.65 161 338.2 160.74 338.2 160.09L338.2 149C338.2 148.36 338.65 147.58 339.21 147.26Z" fill="#DFEEFB" fill-opacity="1.000000" fill-rule="nonzero"/>
	<path id="path" d="M334.89 150.91C335.45 150.59 335.9 150.85 335.9 151.5L335.9 161.42C335.9 162.07 335.45 162.85 334.89 163.17C334.33 163.49 333.88 163.23 333.88 162.59L333.88 152.66C333.88 152.02 334.33 151.24 334.89 150.91Z" fill="#DFEEFB" fill-opacity="1.000000" fill-rule="nonzero"/>
	<path id="path" d="M330.57 157.94C331.13 157.62 331.58 157.88 331.58 158.53L331.58 163.92C331.58 164.56 331.13 165.34 330.57 165.66C330.02 165.98 329.56 165.72 329.56 165.08L329.56 159.69C329.56 159.05 330.02 158.27 330.57 157.94Z" fill="#FEFEFE" fill-opacity="1.000000" fill-rule="nonzero"/>
	<path id="path" d="M351.17 145.15C351.17 145.78 351.61 146.04 352.16 145.73C352.7 145.41 353.15 144.64 353.15 144.01C353.15 143.38 352.7 143.12 352.16 143.44C351.61 143.75 351.17 144.52 351.17 145.15Z" fill="#E8348A" fill-opacity="1.000000" fill-rule="nonzero"/>
	<path id="path" d="M351.17 141.58C351.17 142.21 351.61 142.47 352.16 142.15C352.7 141.84 353.15 141.07 353.15 140.44C353.15 139.8 352.7 139.55 352.16 139.86C351.61 140.18 351.17 140.95 351.17 141.58Z" fill="#FEFEFE" fill-opacity="1.000000" fill-rule="nonzero"/>
	<path id="polygon" d="M462.11 144.22L466.69 144.22L466.69 55.38L462.11 55.38L462.11 144.22Z" fill="#FEFEFE" fill-opacity="1.000000" fill-rule="nonzero"/>
	<path id="path" d="M290.66 427.34L244.64 400.77C241.82 399.14 242.17 396.29 245.43 394.41L289.86 368.76C293.12 366.88 298.06 366.67 300.88 368.3L346.9 394.87C349.72 396.5 349.37 399.35 346.11 401.23L301.68 426.89C298.41 428.77 293.48 428.97 290.66 427.34Z" fill="#8FC8EC" fill-opacity="1.000000" fill-rule="nonzero"/>
	<path id="path" d="M291.96 410.54C293.99 411.71 297.92 411.5 300.37 410.08L344.8 384.43C345.92 383.78 346.18 383.2 346.19 383.09C346.17 383.06 346.02 382.85 345.59 382.59L299.57 356.03C297.55 354.86 293.62 355.07 291.17 356.48L246.74 382.14C245.62 382.78 245.35 383.36 245.35 383.47C245.36 383.51 245.51 383.72 245.95 383.97L291.96 410.54ZM295.46 416.53C293.22 416.53 291.05 416.05 289.35 415.07L243.33 388.5C241.29 387.32 240.12 385.49 240.12 383.47C240.12 381.22 241.58 379.08 244.12 377.61L288.56 351.96C292.67 349.58 298.52 349.39 302.19 351.5L348.2 378.07C350.25 379.25 351.42 381.08 351.42 383.09C351.42 385.35 349.96 387.49 347.41 388.96L302.98 414.61C300.78 415.88 298.07 416.53 295.46 416.53Z" fill="#FEFEFE" fill-opacity="1.000000" fill-rule="nonzero"/>
	<path id="path" d="M348.79 366.81L348.79 350.94L313.19 350.92L300.88 343.81C298.06 342.18 293.12 342.39 289.86 344.27L278.38 350.9L242.75 350.88L242.75 367.21C242.67 368.31 243.28 369.38 244.64 370.16L290.66 396.73C293.48 398.36 298.41 398.15 301.67 396.27L346.11 370.62C347.99 369.53 348.9 368.12 348.79 366.81Z" fill="#3F6AA9" fill-opacity="1.000000" fill-rule="nonzero"/>
	<path id="path" d="M295.77 342.72C293.7 342.77 291.56 343.29 289.86 344.27L278.38 350.9L242.75 350.88L242.75 367.21C242.67 368.31 243.28 369.38 244.64 370.16L290.66 396.73C292.01 397.51 293.86 397.86 295.77 397.82L295.77 342.72Z" fill="url(#paint_radial_115_398_0)" fill-opacity="1.000000" fill-rule="evenodd"/>
	<path id="path" d="M246.78 350.88L242.75 350.88L242.75 367.21C242.67 368.31 243.28 369.38 244.64 370.16L246.78 371.39L246.78 350.88Z" fill="#DFEEFB" fill-opacity="1.000000" fill-rule="nonzero"/>
	<path id="path" d="M291.36 397.07C293.8 398.12 297.32 398.06 300.17 396.97L300.17 378.43L291.36 378.43L291.36 397.07Z" fill="#6097D0" fill-opacity="1.000000" fill-rule="nonzero"/>
	<path id="path" d="M290.66 380.46L244.64 353.89C241.82 352.26 242.17 349.41 245.43 347.53L289.86 321.87C293.12 319.99 298.06 319.79 300.88 321.42L346.9 347.99C349.72 349.62 349.37 352.46 346.11 354.35L301.68 380C298.41 381.88 293.48 382.09 290.66 380.46Z" fill="url(#paint_linear_115_401_0)" fill-opacity="1.000000" fill-rule="evenodd"/>
	<path id="path" d="M346.11 351.22L301.67 376.87C298.41 378.76 293.48 378.96 290.66 377.33L244.64 350.76C244.01 350.4 243.55 349.97 243.23 349.51C242.26 351.07 242.7 352.77 244.64 353.89L290.66 380.46C293.48 382.09 298.41 381.88 301.67 380L346.11 354.35C348.64 352.88 349.41 350.84 348.31 349.24C347.86 349.95 347.13 350.63 346.11 351.22Z" fill="#FEFEFE" fill-opacity="1.000000" fill-rule="nonzero"/>
	<path id="path" d="M331.86 371C331.86 372.19 331.03 373.63 330.01 374.22C328.98 374.82 328.15 374.34 328.15 373.15C328.15 371.96 328.98 370.52 330.01 369.93C331.03 369.34 331.86 369.82 331.86 371Z" fill="#DFEEFB" fill-opacity="1.000000" fill-rule="nonzero"/>
	<path id="path" d="M337.84 367.55C337.84 368.74 337.01 370.18 335.98 370.77C334.96 371.36 334.13 370.88 334.13 369.7C334.13 368.51 334.96 367.07 335.98 366.48C337.01 365.89 337.84 366.37 337.84 367.55Z" fill="#DFEEFB" fill-opacity="1.000000" fill-rule="nonzero"/>
	<path id="path" d="M343.82 364.1C343.82 365.29 342.99 366.73 341.97 367.32C340.94 367.91 340.11 367.43 340.11 366.24C340.11 365.06 340.94 363.62 341.97 363.03C342.99 362.43 343.82 362.91 343.82 364.1Z" fill="#DFEEFB" fill-opacity="1.000000" fill-rule="nonzero"/>
	<path id="path" d="M293.38 363.99L271.84 351.55C270.52 350.79 270.69 349.46 272.21 348.57L293.01 336.57C294.53 335.69 296.84 335.59 298.16 336.36L319.69 348.79C321.02 349.55 320.85 350.89 319.32 351.77L298.53 363.77C297.01 364.65 294.7 364.75 293.38 363.99Z" fill="#6097D0" fill-opacity="1.000000" fill-rule="nonzero"/>
	<path id="path" d="M295.44 353.57L292.46 351.85C292.28 351.75 292.3 351.56 292.51 351.44L295.39 349.78C295.6 349.66 295.92 349.65 296.1 349.75L299.08 351.47C299.26 351.58 299.24 351.76 299.03 351.88L296.15 353.54C295.94 353.67 295.62 353.68 295.44 353.57Z" fill="#DFEEFB" fill-opacity="1.000000" fill-rule="nonzero"/>
	<path id="path" d="M271.84 351.55L271.9 351.59L272.21 351.37L293.01 339.37C294.53 338.49 296.84 338.39 298.16 339.16L319.63 351.55C320.85 350.68 320.92 349.49 319.69 348.79L298.16 336.36C296.84 335.59 294.53 335.69 293.01 336.57L272.21 348.57C270.69 349.46 270.52 350.79 271.84 351.55Z" fill="#3F6AA9" fill-opacity="1.000000" fill-rule="nonzero"/>
	<path id="path" d="M459.29 310.12L413.27 283.55C410.45 281.92 410.8 279.07 414.06 277.19L458.5 251.54C461.76 249.65 466.69 249.45 469.51 251.08L515.53 277.65C518.35 279.28 518 282.13 514.74 284.01L470.31 309.66C467.04 311.54 462.11 311.75 459.29 310.12Z" fill="#8FC8EC" fill-opacity="1.000000" fill-rule="nonzero"/>
	<path id="path" d="M460.59 293.32C462.62 294.49 466.55 294.27 469 292.86L513.43 267.21C514.55 266.56 514.82 265.98 514.82 265.87C514.81 265.84 514.66 265.62 514.22 265.37L468.21 238.8C466.18 237.63 462.25 237.85 459.8 239.26L415.37 264.91C414.25 265.56 413.99 266.14 413.98 266.25C413.99 266.28 414.14 266.5 414.58 266.75L460.59 293.32ZM464.1 299.31C461.85 299.31 459.68 298.82 457.98 297.84L411.96 271.27C409.92 270.1 408.75 268.26 408.75 266.25C408.75 263.99 410.21 261.85 412.76 260.39L457.19 234.73C461.3 232.36 467.16 232.16 470.82 234.28L516.84 260.84C518.88 262.02 520.05 263.85 520.05 265.87C520.05 268.13 518.59 270.26 516.04 271.73L471.61 297.38C469.41 298.66 466.7 299.31 464.1 299.31Z" fill="#FEFEFE" fill-opacity="1.000000" fill-rule="nonzero"/>
	<path id="path" d="M517.42 249.59L517.42 233.71L481.82 233.69L469.51 226.59C466.69 224.96 461.76 225.16 458.5 227.04L447.01 233.67L411.38 233.65L411.38 249.98C411.3 251.09 411.91 252.15 413.27 252.93L459.29 279.5C462.11 281.13 467.04 280.93 470.31 279.04L514.74 253.39C516.62 252.31 517.53 250.9 517.42 249.59Z" fill="#3F6AA9" fill-opacity="1.000000" fill-rule="nonzero"/>
	<path id="path" d="M464.4 225.5C462.33 225.55 460.19 226.07 458.5 227.04L447.01 233.67L411.38 233.65L411.38 249.98C411.3 251.09 411.91 252.15 413.27 252.93L459.29 279.5C460.64 280.29 462.49 280.64 464.4 280.59L464.4 225.5Z" fill="url(#paint_radial_115_412_0)" fill-opacity="1.000000" fill-rule="evenodd"/>
	<path id="path" d="M415.41 233.66L411.38 233.65L411.38 249.98C411.3 251.09 411.91 252.15 413.27 252.93L415.41 254.17L415.41 233.66Z" fill="#DFEEFB" fill-opacity="1.000000" fill-rule="nonzero"/>
	<path id="path" d="M460 279.85C462.43 280.89 465.96 280.84 468.8 279.75L468.8 261.21L460 261.21L460 279.85Z" fill="#6097D0" fill-opacity="1.000000" fill-rule="nonzero"/>
	<path id="path" d="M459.29 263.23L413.27 236.66C410.45 235.03 410.8 232.19 414.06 230.3L458.5 204.65C461.76 202.77 466.69 202.56 469.51 204.19L515.53 230.76C518.35 232.39 518 235.24 514.74 237.12L470.31 262.78C467.04 264.66 462.11 264.86 459.29 263.23Z" fill="url(#paint_linear_115_415_0)" fill-opacity="1.000000" fill-rule="evenodd"/>
	<path id="path" d="M514.74 234L470.31 259.65C467.04 261.53 462.11 261.74 459.29 260.11L413.27 233.54C412.64 233.18 412.18 232.75 411.86 232.29C410.89 233.85 411.33 235.55 413.27 236.66L459.29 263.23C462.11 264.86 467.04 264.66 470.31 262.78L514.74 237.12C517.27 235.66 518.04 233.62 516.94 232.01C516.5 232.72 515.76 233.41 514.74 234Z" fill="#FEFEFE" fill-opacity="1.000000" fill-rule="nonzero"/>
	<path id="path" d="M500.5 253.78C500.5 254.97 499.66 256.41 498.64 257C497.61 257.59 496.78 257.11 496.78 255.93C496.78 254.74 497.61 253.3 498.64 252.71C499.66 252.12 500.5 252.6 500.5 253.78Z" fill="#DFEEFB" fill-opacity="1.000000" fill-rule="nonzero"/>
	<path id="path" d="M506.48 250.33C506.48 251.51 505.64 252.95 504.62 253.55C503.59 254.14 502.76 253.66 502.76 252.47C502.76 251.29 503.59 249.85 504.62 249.25C505.64 248.66 506.48 249.14 506.48 250.33Z" fill="#DFEEFB" fill-opacity="1.000000" fill-rule="nonzero"/>
	<path id="path" d="M512.46 246.88C512.46 248.06 511.62 249.5 510.6 250.09C509.57 250.69 508.74 250.21 508.74 249.02C508.74 247.84 509.57 246.4 510.6 245.8C511.62 245.21 512.46 245.69 512.46 246.88Z" fill="#DFEEFB" fill-opacity="1.000000" fill-rule="nonzero"/>
	<path id="path" d="M462.01 246.76L440.48 234.33C439.15 233.57 439.32 232.23 440.84 231.35L461.64 219.35C463.16 218.47 465.47 218.37 466.79 219.13L488.33 231.57C489.65 232.33 489.48 233.66 487.96 234.54L467.16 246.55C465.64 247.43 463.33 247.52 462.01 246.76Z" fill="#6097D0" fill-opacity="1.000000" fill-rule="nonzero"/>
	<path id="path" d="M464.07 236.35L461.09 234.63C460.91 234.53 460.93 234.34 461.14 234.22L464.02 232.56C464.23 232.44 464.55 232.42 464.73 232.53L467.71 234.25C467.89 234.35 467.87 234.54 467.66 234.66L464.78 236.32C464.57 236.44 464.25 236.46 464.07 236.35Z" fill="#DFEEFB" fill-opacity="1.000000" fill-rule="nonzero"/>
	<path id="path" d="M440.48 234.33L440.54 234.36L440.84 234.15L461.64 222.15C463.16 221.27 465.47 221.17 466.79 221.93L488.27 234.33C489.48 233.46 489.55 232.27 488.33 231.57L466.79 219.13C465.47 218.37 463.16 218.47 461.64 219.35L440.84 231.35C439.32 232.23 439.15 233.57 440.48 234.33Z" fill="#3F6AA9" fill-opacity="1.000000" fill-rule="nonzero"/>
	<path id="path" d="M122.03 310.12L76.01 283.55C73.19 281.92 73.54 279.07 76.81 277.19L121.24 251.54C124.5 249.65 129.43 249.45 132.26 251.08L178.27 277.65C181.1 279.28 180.74 282.13 177.48 284.01L133.05 309.66C129.79 311.54 124.85 311.75 122.03 310.12Z" fill="#8FC8EC" fill-opacity="1.000000" fill-rule="nonzero"/>
	<path id="path" d="M123.34 293.32C125.37 294.49 129.29 294.27 131.74 292.86L176.17 267.21C177.29 266.56 177.56 265.98 177.56 265.87C177.55 265.84 177.4 265.62 176.97 265.37L130.95 238.8C128.92 237.63 125 237.85 122.55 239.26L78.11 264.91C77 265.56 76.73 266.14 76.72 266.25C76.74 266.28 76.89 266.5 77.32 266.75L123.34 293.32ZM126.84 299.31C124.59 299.31 122.42 298.82 120.73 297.84L74.71 271.27C72.67 270.1 71.5 268.26 71.5 266.25C71.5 263.99 72.95 261.85 75.5 260.39L119.93 234.73C124.04 232.36 129.9 232.16 133.56 234.28L179.58 260.84C181.62 262.02 182.79 263.85 182.79 265.87C182.79 268.13 181.33 270.26 178.79 271.73L134.36 297.38C132.15 298.66 129.44 299.31 126.84 299.31Z" fill="#FEFEFE" fill-opacity="1.000000" fill-rule="nonzero"/>
	<path id="path" d="M180.16 249.59L180.16 233.71L144.56 233.69L132.26 226.59C129.43 224.96 124.5 225.16 121.24 227.04L109.76 233.67L74.12 233.65L74.12 249.98C74.04 251.09 74.66 252.15 76.01 252.93L122.03 279.5C124.86 281.13 129.79 280.93 133.05 279.04L177.48 253.39C179.36 252.31 180.27 250.9 180.16 249.59Z" fill="#3F6AA9" fill-opacity="1.000000" fill-rule="nonzero"/>
	<path id="path" d="M127.14 225.5C125.08 225.55 122.93 226.07 121.24 227.04L109.76 233.67L74.12 233.65L74.12 249.98C74.04 251.09 74.66 252.15 76.01 252.93L122.03 279.5C123.39 280.29 125.23 280.64 127.14 280.59L127.14 225.5Z" fill="url(#paint_radial_115_426_0)" fill-opacity="1.000000" fill-rule="evenodd"/>
	<path id="path" d="M78.16 233.66L74.12 233.65L74.12 249.98C74.04 251.09 74.66 252.15 76.01 252.93L78.16 254.17L78.16 233.66Z" fill="#DFEEFB" fill-opacity="1.000000" fill-rule="nonzero"/>
	<path id="path" d="M122.74 279.85C125.18 280.89 128.7 280.84 131.55 279.75L131.55 261.21L122.74 261.21L122.74 279.85Z" fill="#6097D0" fill-opacity="1.000000" fill-rule="nonzero"/>
	<path id="path" d="M122.03 263.23L76.01 236.66C73.19 235.03 73.54 232.19 76.81 230.3L121.24 204.65C124.5 202.77 129.43 202.56 132.26 204.19L178.27 230.76C181.1 232.39 180.74 235.24 177.48 237.12L133.05 262.78C129.79 264.66 124.85 264.86 122.03 263.23Z" fill="url(#paint_linear_115_429_0)" fill-opacity="1.000000" fill-rule="evenodd"/>
	<path id="path" d="M177.48 234L133.05 259.65C129.79 261.53 124.85 261.74 122.03 260.11L76.01 233.54C75.39 233.18 74.92 232.75 74.61 232.29C73.63 233.85 74.08 235.55 76.01 236.66L122.03 263.23C124.85 264.86 129.79 264.66 133.05 262.78L177.48 237.12C180.02 235.66 180.79 233.62 179.68 232.01C179.24 232.72 178.5 233.41 177.48 234Z" fill="#FEFEFE" fill-opacity="1.000000" fill-rule="nonzero"/>
	<path id="path" d="M163.24 253.78C163.24 254.97 162.41 256.41 161.38 257C160.35 257.59 159.52 257.11 159.52 255.93C159.52 254.74 160.35 253.3 161.38 252.71C162.41 252.12 163.24 252.6 163.24 253.78Z" fill="#DFEEFB" fill-opacity="1.000000" fill-rule="nonzero"/>
	<path id="path" d="M169.22 250.33C169.22 251.51 168.39 252.95 167.36 253.55C166.34 254.14 165.5 253.66 165.5 252.47C165.5 251.29 166.34 249.85 167.36 249.25C168.39 248.66 169.22 249.14 169.22 250.33Z" fill="#DFEEFB" fill-opacity="1.000000" fill-rule="nonzero"/>
	<path id="path" d="M175.2 246.88C175.2 248.06 174.37 249.5 173.34 250.09C172.31 250.69 171.48 250.21 171.48 249.02C171.48 247.84 172.31 246.4 173.34 245.8C174.37 245.21 175.2 245.69 175.2 246.88Z" fill="#DFEEFB" fill-opacity="1.000000" fill-rule="nonzero"/>
	<path id="path" d="M124.75 246.76L103.22 234.33C101.9 233.57 102.06 232.23 103.59 231.35L124.38 219.35C125.91 218.47 128.22 218.37 129.54 219.13L151.07 231.57C152.39 232.33 152.23 233.66 150.7 234.54L129.91 246.55C128.38 247.43 126.07 247.52 124.75 246.76Z" fill="#6097D0" fill-opacity="1.000000" fill-rule="nonzero"/>
	<path id="path" d="M126.81 236.35L123.84 234.63C123.65 234.53 123.67 234.34 123.89 234.22L126.76 232.56C126.97 232.44 127.29 232.42 127.48 232.53L130.45 234.25C130.64 234.35 130.62 234.54 130.4 234.66L127.53 236.32C127.32 236.44 127 236.46 126.81 236.35Z" fill="#DFEEFB" fill-opacity="1.000000" fill-rule="nonzero"/>
	<path id="path" d="M103.22 234.33L103.28 234.36L103.59 234.15L124.38 222.15C125.91 221.27 128.22 221.17 129.54 221.93L151.01 234.33C152.23 233.46 152.29 232.27 151.07 231.57L129.54 219.13C128.22 218.37 125.91 218.47 124.38 219.35L103.59 231.35C102.06 232.23 101.9 233.57 103.22 234.33Z" fill="#3F6AA9" fill-opacity="1.000000" fill-rule="nonzero"/>
</svg>
