<svg width="1018.407715" height="398.000000" viewBox="0 0 1018.41 398" fill="none" xmlns="http://www.w3.org/2000/svg" xmlns:xlink="http://www.w3.org/1999/xlink">
	<desc>
			Created with Pixso.
	</desc>
	<defs/>
	<path id="4" d="M0 304.1L0 248.51L165.41 11.69L247.93 11.69L247.93 242.45L292.4 242.45L292.4 304.1L247.93 304.1L247.93 376L177.02 376L177.02 304.1L0 304.1ZM181.59 87.54L77.82 242.45L181.59 242.45L181.59 87.54Z" fill="#FFFFFF" fill-opacity="1.000000" fill-rule="nonzero"/>
	<path id="4" d="M726 304.1L726 248.51L891.41 11.69L973.93 11.69L973.93 242.45L1018.41 242.45L1018.41 304.1L973.93 304.1L973.93 376L903.02 376L903.02 304.1L726 304.1ZM907.59 87.54L803.82 242.45L907.59 242.45L907.59 87.54Z" fill="#FFFFFF" fill-opacity="1.000000" fill-rule="nonzero"/>
	<path id="path" d="M508.59 182.3L488.05 217.73C487.39 218.88 489.47 220.67 490.6 219.96C492.99 218.46 495.51 217.24 498.17 216.3C498.78 216.09 499.3 215.67 499.63 215.11L508.59 199.65C509.6 197.9 512.11 197.9 513.12 199.65L522.16 215.26C522.48 215.81 523 216.23 523.59 216.44C526.39 217.46 529.03 218.79 531.52 220.44C532.52 221.11 534.6 219.37 534 218.33L513.12 182.3C512.1 180.55 509.6 180.55 508.59 182.3Z" fill="#F1C804" fill-opacity="1.000000" fill-rule="nonzero"/>
	<path id="path" d="M522.39 228.89C522.37 228.87 522.38 228.85 522.4 228.85C522.42 228.85 522.43 228.83 522.42 228.81L512.94 213.85C511.91 212.23 509.55 212.23 508.52 213.85L499.23 228.52C499.09 228.74 498.92 228.93 498.73 229.11C498.37 229.43 498.04 229.76 497.71 230.11C497.29 230.55 496.89 231.01 496.52 231.5C496.15 231.98 495.8 232.48 495.48 233C495.16 233.52 494.86 234.05 494.59 234.6C494.32 235.15 494.08 235.71 493.87 236.28C493.66 236.85 493.48 237.44 493.33 238.03C493.17 238.62 493.05 239.22 492.96 239.82C492.86 240.43 492.8 241.03 492.77 241.64C492.74 242.26 492.74 242.87 492.77 243.48C492.8 244.09 492.86 244.7 492.95 245.3C493.04 245.9 493.16 246.5 493.31 247.1C493.47 247.69 493.65 248.27 493.86 248.84C494.07 249.42 494.31 249.98 494.57 250.53C494.84 251.08 495.13 251.61 495.45 252.13C495.77 252.65 496.12 253.15 496.49 253.64C496.86 254.12 497.26 254.58 497.67 255.03C498.09 255.47 498.53 255.89 498.99 256.29C499.45 256.69 499.93 257.06 500.43 257.41C500.93 257.76 501.44 258.09 501.97 258.38C502.5 258.68 503.05 258.95 503.6 259.19C504.16 259.43 504.73 259.64 505.31 259.83C505.89 260.01 506.47 260.16 507.07 260.29C507.66 260.41 508.26 260.5 508.87 260.57C509.47 260.63 510.08 260.66 510.68 260.66C511.29 260.66 511.9 260.63 512.5 260.57C513.1 260.5 513.7 260.41 514.3 260.29C514.89 260.16 515.48 260.01 516.06 259.83C516.64 259.64 517.2 259.43 517.76 259.19C518.32 258.95 518.86 258.68 519.39 258.38C519.93 258.09 520.44 257.76 520.94 257.41C521.44 257.06 521.91 256.69 522.37 256.29C522.83 255.89 523.27 255.47 523.69 255.03C524.11 254.58 524.5 254.12 524.88 253.64C525.25 253.15 525.59 252.65 525.91 252.13C526.23 251.61 526.53 251.08 526.79 250.53C527.06 249.98 527.3 249.42 527.51 248.84C527.72 248.27 527.9 247.69 528.05 247.1C528.2 246.5 528.32 245.9 528.42 245.3C528.51 244.7 528.57 244.09 528.6 243.48C528.63 242.87 528.63 242.26 528.59 241.64C528.56 241.03 528.5 240.43 528.41 239.82C528.32 239.22 528.19 238.62 528.04 238.03C527.89 237.44 527.7 236.85 527.49 236.28C527.28 235.71 527.04 235.15 526.77 234.6C526.5 234.05 526.21 233.52 525.89 233C525.57 232.48 525.22 231.98 524.84 231.5C524.47 231.01 524.08 230.55 523.66 230.11C523.25 229.68 522.83 229.27 522.39 228.89ZM510.69 251.76C510.1 251.76 509.51 251.7 508.93 251.59C508.35 251.47 507.78 251.3 507.24 251.07C506.69 250.84 506.17 250.56 505.68 250.23C505.18 249.89 504.73 249.52 504.31 249.09C503.89 248.67 503.51 248.21 503.18 247.72C502.86 247.22 502.58 246.69 502.35 246.14C502.12 245.59 501.95 245.02 501.84 244.44C501.72 243.85 501.66 243.26 501.66 242.66C501.66 242.06 501.72 241.47 501.84 240.88C501.95 240.3 502.12 239.73 502.35 239.18C502.58 238.63 502.86 238.1 503.19 237.6C503.52 237.11 503.89 236.65 504.31 236.22C504.73 235.8 505.19 235.43 505.68 235.09C506.17 234.76 506.69 234.48 507.24 234.25C507.79 234.02 508.35 233.85 508.93 233.73C509.52 233.62 510.1 233.56 510.7 233.56C511.29 233.56 511.88 233.62 512.46 233.73C513.04 233.85 513.6 234.02 514.15 234.25C514.7 234.48 515.22 234.76 515.71 235.09C516.2 235.42 516.66 235.8 517.08 236.22C517.5 236.64 517.87 237.1 518.2 237.6C518.53 238.1 518.81 238.62 519.04 239.17C519.27 239.73 519.44 240.29 519.55 240.88C519.67 241.47 519.73 242.06 519.73 242.66C519.73 243.25 519.67 243.85 519.55 244.43C519.44 245.02 519.27 245.59 519.04 246.14C518.81 246.69 518.53 247.22 518.21 247.71C517.88 248.21 517.5 248.67 517.08 249.09C516.66 249.52 516.21 249.89 515.71 250.23C515.22 250.56 514.7 250.84 514.15 251.07C513.6 251.3 513.04 251.47 512.46 251.59C511.87 251.7 511.29 251.76 510.69 251.76Z" fill="#FFFFFF" fill-opacity="1.000000" fill-rule="nonzero"/>
	<path id="polygon" d="M448.33 209.7L423.38 252.76C421.33 256.29 423.86 260.72 427.91 260.72L451.09 260.72C452.95 260.72 454.68 259.72 455.62 258.1L476.17 222.69C477.78 219.91 476.57 216.33 473.6 215.12L454.82 207.47C452.41 206.48 449.64 207.43 448.33 209.7Z" fill="#FFFFFF" fill-opacity="1.000000" fill-rule="nonzero"/>
	<path id="polygon" d="M566.92 207.54L548.25 215.15C545.28 216.36 544.07 219.95 545.69 222.73L566.3 258.11C567.24 259.73 568.96 260.72 570.82 260.72L593.8 260.72C597.85 260.72 600.37 256.29 598.33 252.76L573.42 209.78C572.1 207.51 569.34 206.56 566.92 207.54Z" fill="#FFFFFF" fill-opacity="1.000000" fill-rule="nonzero"/>
	<path id="polygon" d="M561.95 189.98L515.38 109.62C513.35 106.12 508.35 106.12 506.32 109.62L459.8 189.9C458.19 192.69 459.4 196.27 462.36 197.48L481.16 205.13C483.57 206.12 486.34 205.17 487.65 202.9L506.33 170.71C508.35 167.22 513.35 167.22 515.38 170.7L534.17 202.95C535.49 205.22 538.25 206.16 540.66 205.18L559.38 197.55C562.35 196.34 563.56 192.76 561.95 189.98Z" fill="#FFFFFF" fill-opacity="1.000000" fill-rule="nonzero"/>
	<path id="Subtract" d="M510.158 0C539.095 0 566.589 6.17639 591.395 17.2827L591.19 17.5909C607.114 63.1112 574.479 71.499 556.158 70L556.204 69.9304C541.813 64.796 526.312 62 510.158 62C434.495 62 373.158 123.337 373.158 199C373.158 234.388 386.575 266.643 408.601 290.954C389.988 290.858 363.962 301.068 374.023 343.187L373.628 343.779C335.165 307.494 311.158 256.051 311.158 199C311.158 89.0953 400.253 0 510.158 0ZM619.421 116.34C638.407 116.783 666.087 106.583 654.338 61.8386C688.308 97.5355 709.158 145.833 709.158 199C709.158 308.905 620.062 398 510.158 398C484.824 398 460.596 393.266 438.31 384.635L439.464 382.905C424.443 338.789 455.574 330.082 473.92 331.245L473.97 331.17C474.098 331.205 474.226 331.24 474.355 331.274C474.496 331.285 474.636 331.295 474.775 331.307L474.73 331.375C486.03 334.392 497.906 336 510.158 336C585.821 336 647.158 274.663 647.158 199C647.158 167.952 636.829 139.316 619.421 116.34Z" clip-rule="evenodd" fill="#F1C804" fill-opacity="1.000000" fill-rule="evenodd"/>
</svg>
