<svg width="195.000000" height="195.000000" viewBox="0 0 195 195" fill="none" xmlns="http://www.w3.org/2000/svg" xmlns:xlink="http://www.w3.org/1999/xlink">
	<desc>
			Created with Pixso.
	</desc>
	<defs>
		<linearGradient x1="135.895248" y1="46.081245" x2="149.518158" y2="46.081245" id="paint_linear_77_1429_0" gradientUnits="userSpaceOnUse">
			<stop stop-color="#A57D24"/>
			<stop offset="0.210000" stop-color="#D8BE62"/>
			<stop offset="0.330000" stop-color="#F1DD80"/>
			<stop offset="0.520000" stop-color="#FBF2A8"/>
			<stop offset="0.730000" stop-color="#F1DD80"/>
			<stop offset="1.000000" stop-color="#A57D24"/>
		</linearGradient>
		<linearGradient x1="115.227676" y1="170.839905" x2="127.021553" y2="170.839905" id="paint_linear_77_1430_0" gradientUnits="userSpaceOnUse">
			<stop stop-color="#A57D24"/>
			<stop offset="0.210000" stop-color="#D8BE62"/>
			<stop offset="0.330000" stop-color="#F1DD80"/>
			<stop offset="0.520000" stop-color="#FBF2A8"/>
			<stop offset="0.730000" stop-color="#F1DD80"/>
			<stop offset="1.000000" stop-color="#A57D24"/>
		</linearGradient>
		<linearGradient x1="115.190430" y1="180.627869" x2="136.027847" y2="180.627869" id="paint_linear_77_1431_0" gradientUnits="userSpaceOnUse">
			<stop stop-color="#A57D24"/>
			<stop offset="0.210000" stop-color="#D8BE62"/>
			<stop offset="0.330000" stop-color="#F1DD80"/>
			<stop offset="0.520000" stop-color="#FBF2A8"/>
			<stop offset="0.730000" stop-color="#F1DD80"/>
			<stop offset="1.000000" stop-color="#A57D24"/>
		</linearGradient>
		<linearGradient x1="128.881042" y1="165.215866" x2="137.880569" y2="165.215866" id="paint_linear_77_1432_0" gradientUnits="userSpaceOnUse">
			<stop stop-color="#A57D24"/>
			<stop offset="0.210000" stop-color="#D8BE62"/>
			<stop offset="0.330000" stop-color="#F1DD80"/>
			<stop offset="0.520000" stop-color="#FBF2A8"/>
			<stop offset="0.730000" stop-color="#F1DD80"/>
			<stop offset="1.000000" stop-color="#A57D24"/>
		</linearGradient>
		<linearGradient x1="128.975861" y1="173.920151" x2="149.213776" y2="173.920151" id="paint_linear_77_1433_0" gradientUnits="userSpaceOnUse">
			<stop stop-color="#A57D24"/>
			<stop offset="0.210000" stop-color="#D8BE62"/>
			<stop offset="0.330000" stop-color="#F1DD80"/>
			<stop offset="0.520000" stop-color="#FBF2A8"/>
			<stop offset="0.730000" stop-color="#F1DD80"/>
			<stop offset="1.000000" stop-color="#A57D24"/>
		</linearGradient>
		<linearGradient x1="140.170425" y1="157.754700" x2="147.466232" y2="157.754700" id="paint_linear_77_1434_0" gradientUnits="userSpaceOnUse">
			<stop stop-color="#A57D24"/>
			<stop offset="0.210000" stop-color="#D8BE62"/>
			<stop offset="0.330000" stop-color="#F1DD80"/>
			<stop offset="0.520000" stop-color="#FBF2A8"/>
			<stop offset="0.730000" stop-color="#F1DD80"/>
			<stop offset="1.000000" stop-color="#A57D24"/>
		</linearGradient>
		<linearGradient x1="140.989243" y1="165.094193" x2="160.271988" y2="165.094193" id="paint_linear_77_1435_0" gradientUnits="userSpaceOnUse">
			<stop stop-color="#A57D24"/>
			<stop offset="0.210000" stop-color="#D8BE62"/>
			<stop offset="0.330000" stop-color="#F1DD80"/>
			<stop offset="0.520000" stop-color="#FBF2A8"/>
			<stop offset="0.730000" stop-color="#F1DD80"/>
			<stop offset="1.000000" stop-color="#A57D24"/>
		</linearGradient>
		<linearGradient x1="149.115494" y1="148.749939" x2="155.615341" y2="148.749939" id="paint_linear_77_1436_0" gradientUnits="userSpaceOnUse">
			<stop stop-color="#A57D24"/>
			<stop offset="0.210000" stop-color="#D8BE62"/>
			<stop offset="0.330000" stop-color="#F1DD80"/>
			<stop offset="0.520000" stop-color="#FBF2A8"/>
			<stop offset="0.730000" stop-color="#F1DD80"/>
			<stop offset="1.000000" stop-color="#A57D24"/>
		</linearGradient>
		<linearGradient x1="151.154526" y1="154.478271" x2="169.123077" y2="154.478271" id="paint_linear_77_1437_0" gradientUnits="userSpaceOnUse">
			<stop stop-color="#A57D24"/>
			<stop offset="0.210000" stop-color="#D8BE62"/>
			<stop offset="0.330000" stop-color="#F1DD80"/>
			<stop offset="0.520000" stop-color="#FBF2A8"/>
			<stop offset="0.730000" stop-color="#F1DD80"/>
			<stop offset="1.000000" stop-color="#A57D24"/>
		</linearGradient>
		<linearGradient x1="155.828781" y1="138.502319" x2="162.189743" y2="138.502319" id="paint_linear_77_1438_0" gradientUnits="userSpaceOnUse">
			<stop stop-color="#A57D24"/>
			<stop offset="0.210000" stop-color="#D8BE62"/>
			<stop offset="0.330000" stop-color="#F1DD80"/>
			<stop offset="0.520000" stop-color="#FBF2A8"/>
			<stop offset="0.730000" stop-color="#F1DD80"/>
			<stop offset="1.000000" stop-color="#A57D24"/>
		</linearGradient>
		<linearGradient x1="159.395248" y1="142.410233" x2="175.677032" y2="142.410233" id="paint_linear_77_1439_0" gradientUnits="userSpaceOnUse">
			<stop stop-color="#A57D24"/>
			<stop offset="0.210000" stop-color="#D8BE62"/>
			<stop offset="0.330000" stop-color="#F1DD80"/>
			<stop offset="0.520000" stop-color="#FBF2A8"/>
			<stop offset="0.730000" stop-color="#F1DD80"/>
			<stop offset="1.000000" stop-color="#A57D24"/>
		</linearGradient>
		<linearGradient x1="160.211624" y1="127.316208" x2="167.107758" y2="127.316208" id="paint_linear_77_1440_0" gradientUnits="userSpaceOnUse">
			<stop stop-color="#A57D24"/>
			<stop offset="0.210000" stop-color="#D8BE62"/>
			<stop offset="0.330000" stop-color="#F1DD80"/>
			<stop offset="0.520000" stop-color="#FBF2A8"/>
			<stop offset="0.730000" stop-color="#F1DD80"/>
			<stop offset="1.000000" stop-color="#A57D24"/>
		</linearGradient>
		<linearGradient x1="165.631119" y1="129.325363" x2="179.853531" y2="129.325363" id="paint_linear_77_1441_0" gradientUnits="userSpaceOnUse">
			<stop stop-color="#A57D24"/>
			<stop offset="0.210000" stop-color="#D8BE62"/>
			<stop offset="0.330000" stop-color="#F1DD80"/>
			<stop offset="0.520000" stop-color="#FBF2A8"/>
			<stop offset="0.730000" stop-color="#F1DD80"/>
			<stop offset="1.000000" stop-color="#A57D24"/>
		</linearGradient>
		<linearGradient x1="162.071274" y1="115.491165" x2="170.362885" y2="115.491165" id="paint_linear_77_1442_0" gradientUnits="userSpaceOnUse">
			<stop stop-color="#A57D24"/>
			<stop offset="0.210000" stop-color="#D8BE62"/>
			<stop offset="0.330000" stop-color="#F1DD80"/>
			<stop offset="0.520000" stop-color="#FBF2A8"/>
			<stop offset="0.730000" stop-color="#F1DD80"/>
			<stop offset="1.000000" stop-color="#A57D24"/>
		</linearGradient>
		<linearGradient x1="169.789795" y1="115.703590" x2="181.570114" y2="115.703590" id="paint_linear_77_1443_0" gradientUnits="userSpaceOnUse">
			<stop stop-color="#A57D24"/>
			<stop offset="0.210000" stop-color="#D8BE62"/>
			<stop offset="0.330000" stop-color="#F1DD80"/>
			<stop offset="0.520000" stop-color="#FBF2A8"/>
			<stop offset="0.730000" stop-color="#F1DD80"/>
			<stop offset="1.000000" stop-color="#A57D24"/>
		</linearGradient>
		<linearGradient x1="161.573349" y1="103.331650" x2="171.992065" y2="103.331650" id="paint_linear_77_1444_0" gradientUnits="userSpaceOnUse">
			<stop stop-color="#A57D24"/>
			<stop offset="0.210000" stop-color="#D8BE62"/>
			<stop offset="0.330000" stop-color="#F1DD80"/>
			<stop offset="0.520000" stop-color="#FBF2A8"/>
			<stop offset="0.730000" stop-color="#F1DD80"/>
			<stop offset="1.000000" stop-color="#A57D24"/>
		</linearGradient>
		<linearGradient x1="171.792175" y1="101.807999" x2="180.950897" y2="101.807999" id="paint_linear_77_1445_0" gradientUnits="userSpaceOnUse">
			<stop stop-color="#A57D24"/>
			<stop offset="0.210000" stop-color="#D8BE62"/>
			<stop offset="0.330000" stop-color="#F1DD80"/>
			<stop offset="0.520000" stop-color="#FBF2A8"/>
			<stop offset="0.730000" stop-color="#F1DD80"/>
			<stop offset="1.000000" stop-color="#A57D24"/>
		</linearGradient>
		<linearGradient x1="159.063309" y1="91.111328" x2="171.734436" y2="91.111328" id="paint_linear_77_1446_0" gradientUnits="userSpaceOnUse">
			<stop stop-color="#A57D24"/>
			<stop offset="0.210000" stop-color="#D8BE62"/>
			<stop offset="0.330000" stop-color="#F1DD80"/>
			<stop offset="0.520000" stop-color="#FBF2A8"/>
			<stop offset="0.730000" stop-color="#F1DD80"/>
			<stop offset="1.000000" stop-color="#A57D24"/>
		</linearGradient>
		<linearGradient x1="171.365372" y1="87.926575" x2="178.447800" y2="87.926575" id="paint_linear_77_1447_0" gradientUnits="userSpaceOnUse">
			<stop stop-color="#A57D24"/>
			<stop offset="0.210000" stop-color="#D8BE62"/>
			<stop offset="0.330000" stop-color="#F1DD80"/>
			<stop offset="0.520000" stop-color="#FBF2A8"/>
			<stop offset="0.730000" stop-color="#F1DD80"/>
			<stop offset="1.000000" stop-color="#A57D24"/>
		</linearGradient>
		<linearGradient x1="154.470459" y1="79.019501" x2="169.184006" y2="79.019501" id="paint_linear_77_1448_0" gradientUnits="userSpaceOnUse">
			<stop stop-color="#A57D24"/>
			<stop offset="0.210000" stop-color="#D8BE62"/>
			<stop offset="0.330000" stop-color="#F1DD80"/>
			<stop offset="0.520000" stop-color="#FBF2A8"/>
			<stop offset="0.730000" stop-color="#F1DD80"/>
			<stop offset="1.000000" stop-color="#A57D24"/>
		</linearGradient>
		<linearGradient x1="167.551422" y1="74.405525" x2="173.953033" y2="74.405525" id="paint_linear_77_1449_0" gradientUnits="userSpaceOnUse">
			<stop stop-color="#A57D24"/>
			<stop offset="0.210000" stop-color="#D8BE62"/>
			<stop offset="0.330000" stop-color="#F1DD80"/>
			<stop offset="0.520000" stop-color="#FBF2A8"/>
			<stop offset="0.730000" stop-color="#F1DD80"/>
			<stop offset="1.000000" stop-color="#A57D24"/>
		</linearGradient>
		<linearGradient x1="147.726898" y1="67.464424" x2="164.235611" y2="67.464424" id="paint_linear_77_1450_0" gradientUnits="userSpaceOnUse">
			<stop stop-color="#A57D24"/>
			<stop offset="0.210000" stop-color="#D8BE62"/>
			<stop offset="0.330000" stop-color="#F1DD80"/>
			<stop offset="0.520000" stop-color="#FBF2A8"/>
			<stop offset="0.730000" stop-color="#F1DD80"/>
			<stop offset="1.000000" stop-color="#A57D24"/>
		</linearGradient>
		<linearGradient x1="160.349869" y1="61.601280" x2="167.296814" y2="61.601280" id="paint_linear_77_1451_0" gradientUnits="userSpaceOnUse">
			<stop stop-color="#A57D24"/>
			<stop offset="0.210000" stop-color="#D8BE62"/>
			<stop offset="0.330000" stop-color="#F1DD80"/>
			<stop offset="0.520000" stop-color="#FBF2A8"/>
			<stop offset="0.730000" stop-color="#F1DD80"/>
			<stop offset="1.000000" stop-color="#A57D24"/>
		</linearGradient>
		<linearGradient x1="138.757812" y1="56.879211" x2="156.817810" y2="56.879211" id="paint_linear_77_1452_0" gradientUnits="userSpaceOnUse">
			<stop stop-color="#A57D24"/>
			<stop offset="0.210000" stop-color="#D8BE62"/>
			<stop offset="0.330000" stop-color="#F1DD80"/>
			<stop offset="0.520000" stop-color="#FBF2A8"/>
			<stop offset="0.730000" stop-color="#F1DD80"/>
			<stop offset="1.000000" stop-color="#A57D24"/>
		</linearGradient>
		<linearGradient x1="149.704865" y1="49.853714" x2="158.450348" y2="49.853714" id="paint_linear_77_1453_0" gradientUnits="userSpaceOnUse">
			<stop stop-color="#A57D24"/>
			<stop offset="0.210000" stop-color="#D8BE62"/>
			<stop offset="0.330000" stop-color="#F1DD80"/>
			<stop offset="0.520000" stop-color="#FBF2A8"/>
			<stop offset="0.730000" stop-color="#F1DD80"/>
			<stop offset="1.000000" stop-color="#A57D24"/>
		</linearGradient>
		<linearGradient x1="96.080330" y1="114.514534" x2="172.076630" y2="114.514534" id="paint_linear_77_1454_0" gradientUnits="userSpaceOnUse">
			<stop stop-color="#A57D24"/>
			<stop offset="0.210000" stop-color="#D8BE62"/>
			<stop offset="0.330000" stop-color="#F1DD80"/>
			<stop offset="0.520000" stop-color="#FBF2A8"/>
			<stop offset="0.730000" stop-color="#F1DD80"/>
			<stop offset="1.000000" stop-color="#A57D24"/>
		</linearGradient>
		<linearGradient x1="45.483158" y1="46.081249" x2="59.109451" y2="46.081249" id="paint_linear_77_1455_0" gradientUnits="userSpaceOnUse">
			<stop stop-color="#A57D24"/>
			<stop offset="0.210000" stop-color="#D8BE62"/>
			<stop offset="0.330000" stop-color="#F1DD80"/>
			<stop offset="0.520000" stop-color="#FBF2A8"/>
			<stop offset="0.730000" stop-color="#F1DD80"/>
			<stop offset="1.000000" stop-color="#A57D24"/>
		</linearGradient>
		<linearGradient x1="67.984360" y1="170.839905" x2="79.774841" y2="170.839905" id="paint_linear_77_1456_0" gradientUnits="userSpaceOnUse">
			<stop stop-color="#A57D24"/>
			<stop offset="0.210000" stop-color="#D8BE62"/>
			<stop offset="0.330000" stop-color="#F1DD80"/>
			<stop offset="0.520000" stop-color="#FBF2A8"/>
			<stop offset="0.730000" stop-color="#F1DD80"/>
			<stop offset="1.000000" stop-color="#A57D24"/>
		</linearGradient>
		<linearGradient x1="58.974640" y1="180.627869" x2="79.815445" y2="180.627869" id="paint_linear_77_1457_0" gradientUnits="userSpaceOnUse">
			<stop stop-color="#A57D24"/>
			<stop offset="0.210000" stop-color="#D8BE62"/>
			<stop offset="0.330000" stop-color="#F1DD80"/>
			<stop offset="0.520000" stop-color="#FBF2A8"/>
			<stop offset="0.730000" stop-color="#F1DD80"/>
			<stop offset="1.000000" stop-color="#A57D24"/>
		</linearGradient>
		<linearGradient x1="57.125332" y1="165.215866" x2="66.124847" y2="165.215866" id="paint_linear_77_1458_0" gradientUnits="userSpaceOnUse">
			<stop stop-color="#A57D24"/>
			<stop offset="0.210000" stop-color="#D8BE62"/>
			<stop offset="0.330000" stop-color="#F1DD80"/>
			<stop offset="0.520000" stop-color="#FBF2A8"/>
			<stop offset="0.730000" stop-color="#F1DD80"/>
			<stop offset="1.000000" stop-color="#A57D24"/>
		</linearGradient>
		<linearGradient x1="45.788105" y1="173.920120" x2="66.029404" y2="173.920120" id="paint_linear_77_1459_0" gradientUnits="userSpaceOnUse">
			<stop stop-color="#A57D24"/>
			<stop offset="0.210000" stop-color="#D8BE62"/>
			<stop offset="0.330000" stop-color="#F1DD80"/>
			<stop offset="0.520000" stop-color="#FBF2A8"/>
			<stop offset="0.730000" stop-color="#F1DD80"/>
			<stop offset="1.000000" stop-color="#A57D24"/>
		</linearGradient>
		<linearGradient x1="47.536396" y1="157.754684" x2="54.835594" y2="157.754684" id="paint_linear_77_1460_0" gradientUnits="userSpaceOnUse">
			<stop stop-color="#A57D24"/>
			<stop offset="0.210000" stop-color="#D8BE62"/>
			<stop offset="0.330000" stop-color="#F1DD80"/>
			<stop offset="0.520000" stop-color="#FBF2A8"/>
			<stop offset="0.730000" stop-color="#F1DD80"/>
			<stop offset="1.000000" stop-color="#A57D24"/>
		</linearGradient>
		<linearGradient x1="34.729931" y1="165.094452" x2="54.016060" y2="165.094452" id="paint_linear_77_1461_0" gradientUnits="userSpaceOnUse">
			<stop stop-color="#A57D24"/>
			<stop offset="0.210000" stop-color="#D8BE62"/>
			<stop offset="0.330000" stop-color="#F1DD80"/>
			<stop offset="0.520000" stop-color="#FBF2A8"/>
			<stop offset="0.730000" stop-color="#F1DD80"/>
			<stop offset="1.000000" stop-color="#A57D24"/>
		</linearGradient>
		<linearGradient x1="39.390560" y1="148.749939" x2="45.887012" y2="148.749939" id="paint_linear_77_1462_0" gradientUnits="userSpaceOnUse">
			<stop stop-color="#A57D24"/>
			<stop offset="0.210000" stop-color="#D8BE62"/>
			<stop offset="0.330000" stop-color="#F1DD80"/>
			<stop offset="0.520000" stop-color="#FBF2A8"/>
			<stop offset="0.730000" stop-color="#F1DD80"/>
			<stop offset="1.000000" stop-color="#A57D24"/>
		</linearGradient>
		<linearGradient x1="25.882933" y1="154.478760" x2="43.851486" y2="154.478760" id="paint_linear_77_1463_0" gradientUnits="userSpaceOnUse">
			<stop stop-color="#A57D24"/>
			<stop offset="0.210000" stop-color="#D8BE62"/>
			<stop offset="0.330000" stop-color="#F1DD80"/>
			<stop offset="0.520000" stop-color="#FBF2A8"/>
			<stop offset="0.730000" stop-color="#F1DD80"/>
			<stop offset="1.000000" stop-color="#A57D24"/>
		</linearGradient>
		<linearGradient x1="32.816181" y1="138.502335" x2="39.177151" y2="138.502335" id="paint_linear_77_1464_0" gradientUnits="userSpaceOnUse">
			<stop stop-color="#A57D24"/>
			<stop offset="0.210000" stop-color="#D8BE62"/>
			<stop offset="0.330000" stop-color="#F1DD80"/>
			<stop offset="0.520000" stop-color="#FBF2A8"/>
			<stop offset="0.730000" stop-color="#F1DD80"/>
			<stop offset="1.000000" stop-color="#A57D24"/>
		</linearGradient>
		<linearGradient x1="19.328857" y1="142.410233" x2="35.610634" y2="142.410233" id="paint_linear_77_1465_0" gradientUnits="userSpaceOnUse">
			<stop stop-color="#A57D24"/>
			<stop offset="0.210000" stop-color="#D8BE62"/>
			<stop offset="0.330000" stop-color="#F1DD80"/>
			<stop offset="0.520000" stop-color="#FBF2A8"/>
			<stop offset="0.730000" stop-color="#F1DD80"/>
			<stop offset="1.000000" stop-color="#A57D24"/>
		</linearGradient>
		<linearGradient x1="27.897573" y1="127.316208" x2="34.793701" y2="127.316208" id="paint_linear_77_1466_0" gradientUnits="userSpaceOnUse">
			<stop stop-color="#A57D24"/>
			<stop offset="0.210000" stop-color="#D8BE62"/>
			<stop offset="0.330000" stop-color="#F1DD80"/>
			<stop offset="0.520000" stop-color="#FBF2A8"/>
			<stop offset="0.730000" stop-color="#F1DD80"/>
			<stop offset="1.000000" stop-color="#A57D24"/>
		</linearGradient>
		<linearGradient x1="15.152437" y1="129.325409" x2="29.371469" y2="129.325409" id="paint_linear_77_1467_0" gradientUnits="userSpaceOnUse">
			<stop stop-color="#A57D24"/>
			<stop offset="0.210000" stop-color="#D8BE62"/>
			<stop offset="0.330000" stop-color="#F1DD80"/>
			<stop offset="0.520000" stop-color="#FBF2A8"/>
			<stop offset="0.730000" stop-color="#F1DD80"/>
			<stop offset="1.000000" stop-color="#A57D24"/>
		</linearGradient>
		<linearGradient x1="24.639616" y1="115.491165" x2="32.934616" y2="115.491165" id="paint_linear_77_1468_0" gradientUnits="userSpaceOnUse">
			<stop stop-color="#A57D24"/>
			<stop offset="0.210000" stop-color="#D8BE62"/>
			<stop offset="0.330000" stop-color="#F1DD80"/>
			<stop offset="0.520000" stop-color="#FBF2A8"/>
			<stop offset="0.730000" stop-color="#F1DD80"/>
			<stop offset="1.000000" stop-color="#A57D24"/>
		</linearGradient>
		<linearGradient x1="13.435191" y1="115.703926" x2="25.215515" y2="115.703926" id="paint_linear_77_1469_0" gradientUnits="userSpaceOnUse">
			<stop stop-color="#A57D24"/>
			<stop offset="0.210000" stop-color="#D8BE62"/>
			<stop offset="0.330000" stop-color="#F1DD80"/>
			<stop offset="0.520000" stop-color="#FBF2A8"/>
			<stop offset="0.730000" stop-color="#F1DD80"/>
			<stop offset="1.000000" stop-color="#A57D24"/>
		</linearGradient>
		<linearGradient x1="23.010429" y1="103.331657" x2="33.432526" y2="103.331657" id="paint_linear_77_1470_0" gradientUnits="userSpaceOnUse">
			<stop stop-color="#A57D24"/>
			<stop offset="0.210000" stop-color="#D8BE62"/>
			<stop offset="0.330000" stop-color="#F1DD80"/>
			<stop offset="0.520000" stop-color="#FBF2A8"/>
			<stop offset="0.730000" stop-color="#F1DD80"/>
			<stop offset="1.000000" stop-color="#A57D24"/>
		</linearGradient>
		<linearGradient x1="14.054256" y1="101.808479" x2="23.212967" y2="101.808479" id="paint_linear_77_1471_0" gradientUnits="userSpaceOnUse">
			<stop stop-color="#A57D24"/>
			<stop offset="0.210000" stop-color="#D8BE62"/>
			<stop offset="0.330000" stop-color="#F1DD80"/>
			<stop offset="0.520000" stop-color="#FBF2A8"/>
			<stop offset="0.730000" stop-color="#F1DD80"/>
			<stop offset="1.000000" stop-color="#A57D24"/>
		</linearGradient>
		<linearGradient x1="23.271187" y1="91.111137" x2="35.942318" y2="91.111137" id="paint_linear_77_1472_0" gradientUnits="userSpaceOnUse">
			<stop stop-color="#A57D24"/>
			<stop offset="0.210000" stop-color="#D8BE62"/>
			<stop offset="0.330000" stop-color="#F1DD80"/>
			<stop offset="0.520000" stop-color="#FBF2A8"/>
			<stop offset="0.730000" stop-color="#F1DD80"/>
			<stop offset="1.000000" stop-color="#A57D24"/>
		</linearGradient>
		<linearGradient x1="16.558104" y1="87.926575" x2="23.640524" y2="87.926575" id="paint_linear_77_1473_0" gradientUnits="userSpaceOnUse">
			<stop stop-color="#A57D24"/>
			<stop offset="0.210000" stop-color="#D8BE62"/>
			<stop offset="0.330000" stop-color="#F1DD80"/>
			<stop offset="0.520000" stop-color="#FBF2A8"/>
			<stop offset="0.730000" stop-color="#F1DD80"/>
			<stop offset="1.000000" stop-color="#A57D24"/>
		</linearGradient>
		<linearGradient x1="25.821840" y1="79.019669" x2="40.535393" y2="79.019669" id="paint_linear_77_1474_0" gradientUnits="userSpaceOnUse">
			<stop stop-color="#A57D24"/>
			<stop offset="0.210000" stop-color="#D8BE62"/>
			<stop offset="0.330000" stop-color="#F1DD80"/>
			<stop offset="0.520000" stop-color="#FBF2A8"/>
			<stop offset="0.730000" stop-color="#F1DD80"/>
			<stop offset="1.000000" stop-color="#A57D24"/>
		</linearGradient>
		<linearGradient x1="21.052691" y1="74.405441" x2="27.450916" y2="74.405441" id="paint_linear_77_1475_0" gradientUnits="userSpaceOnUse">
			<stop stop-color="#A57D24"/>
			<stop offset="0.210000" stop-color="#D8BE62"/>
			<stop offset="0.330000" stop-color="#F1DD80"/>
			<stop offset="0.520000" stop-color="#FBF2A8"/>
			<stop offset="0.730000" stop-color="#F1DD80"/>
			<stop offset="1.000000" stop-color="#A57D24"/>
		</linearGradient>
		<linearGradient x1="30.767015" y1="67.464424" x2="47.279118" y2="67.464424" id="paint_linear_77_1476_0" gradientUnits="userSpaceOnUse">
			<stop stop-color="#A57D24"/>
			<stop offset="0.210000" stop-color="#D8BE62"/>
			<stop offset="0.330000" stop-color="#F1DD80"/>
			<stop offset="0.520000" stop-color="#FBF2A8"/>
			<stop offset="0.730000" stop-color="#F1DD80"/>
			<stop offset="1.000000" stop-color="#A57D24"/>
		</linearGradient>
		<linearGradient x1="27.708410" y1="61.601280" x2="34.655350" y2="61.601280" id="paint_linear_77_1477_0" gradientUnits="userSpaceOnUse">
			<stop stop-color="#A57D24"/>
			<stop offset="0.210000" stop-color="#D8BE62"/>
			<stop offset="0.330000" stop-color="#F1DD80"/>
			<stop offset="0.520000" stop-color="#FBF2A8"/>
			<stop offset="0.730000" stop-color="#F1DD80"/>
			<stop offset="1.000000" stop-color="#A57D24"/>
		</linearGradient>
		<linearGradient x1="38.188232" y1="56.878967" x2="56.248238" y2="56.878967" id="paint_linear_77_1478_0" gradientUnits="userSpaceOnUse">
			<stop stop-color="#A57D24"/>
			<stop offset="0.210000" stop-color="#D8BE62"/>
			<stop offset="0.330000" stop-color="#F1DD80"/>
			<stop offset="0.520000" stop-color="#FBF2A8"/>
			<stop offset="0.730000" stop-color="#F1DD80"/>
			<stop offset="1.000000" stop-color="#A57D24"/>
		</linearGradient>
		<linearGradient x1="36.555695" y1="49.853714" x2="45.301178" y2="49.853714" id="paint_linear_77_1479_0" gradientUnits="userSpaceOnUse">
			<stop stop-color="#A57D24"/>
			<stop offset="0.210000" stop-color="#D8BE62"/>
			<stop offset="0.330000" stop-color="#F1DD80"/>
			<stop offset="0.520000" stop-color="#FBF2A8"/>
			<stop offset="0.730000" stop-color="#F1DD80"/>
			<stop offset="1.000000" stop-color="#A57D24"/>
		</linearGradient>
		<linearGradient x1="22.929281" y1="114.514526" x2="98.925591" y2="114.514526" id="paint_linear_77_1480_0" gradientUnits="userSpaceOnUse">
			<stop stop-color="#A57D24"/>
			<stop offset="0.210000" stop-color="#D8BE62"/>
			<stop offset="0.330000" stop-color="#F1DD80"/>
			<stop offset="0.520000" stop-color="#FBF2A8"/>
			<stop offset="0.730000" stop-color="#F1DD80"/>
			<stop offset="1.000000" stop-color="#A57D24"/>
		</linearGradient>
		<linearGradient x1="89.214607" y1="180.618134" x2="105.164452" y2="180.618134" id="paint_linear_77_1481_0" gradientUnits="userSpaceOnUse">
			<stop stop-color="#A57D24"/>
			<stop offset="0.210000" stop-color="#D8BE62"/>
			<stop offset="0.330000" stop-color="#F1DD80"/>
			<stop offset="0.520000" stop-color="#FBF2A8"/>
			<stop offset="0.730000" stop-color="#F1DD80"/>
			<stop offset="1.000000" stop-color="#A57D24"/>
		</linearGradient>
		<linearGradient x1="67.845009" y1="29.196358" x2="127.163239" y2="29.196358" id="paint_linear_77_1482_0" gradientUnits="userSpaceOnUse">
			<stop stop-color="#BA973B"/>
			<stop offset="0.120000" stop-color="#A57D24"/>
			<stop offset="0.260000" stop-color="#F1DD80"/>
			<stop offset="0.370000" stop-color="#F1DD80"/>
			<stop offset="0.470000" stop-color="#DABF64"/>
			<stop offset="0.600000" stop-color="#C3A348"/>
			<stop offset="0.730000" stop-color="#B28E34"/>
			<stop offset="0.850000" stop-color="#A88128"/>
			<stop offset="0.970000" stop-color="#A57D24"/>
		</linearGradient>
		<linearGradient x1="72.015205" y1="29.193090" x2="121.907135" y2="29.193090" id="paint_linear_77_1483_0" gradientUnits="userSpaceOnUse">
			<stop offset="0.030000" stop-color="#A57D24"/>
			<stop offset="0.130000" stop-color="#A88128"/>
			<stop offset="0.230000" stop-color="#B28E34"/>
			<stop offset="0.340000" stop-color="#C3A348"/>
			<stop offset="0.440000" stop-color="#DABF64"/>
			<stop offset="0.530000" stop-color="#F1DD80"/>
			<stop offset="0.740000" stop-color="#F1DD80"/>
			<stop offset="0.880000" stop-color="#A57D24"/>
			<stop offset="1.000000" stop-color="#BA973B"/>
		</linearGradient>
	</defs>
	<g opacity="0.330000">
		<rect id="Rectangle 96" rx="94.000000" width="195.000000" height="195.000000" fill="#EDEDED" fill-opacity="1.000000"/>
	</g>
	<path id="path" d="M145.08 43.48C148.84 46.9 149.51 52.26 149.51 52.26C149.51 52.26 144.09 52.09 140.33 48.66C136.56 45.24 135.89 39.88 135.89 39.88C135.89 39.88 141.31 40.06 145.08 43.48Z" fill="url(#paint_linear_77_1429_0)" fill-opacity="1.000000" fill-rule="nonzero"/>
	<path id="path" d="M118.62 169.57C115.38 173.72 115.19 178.61 115.23 178.63C115.23 178.69 122.03 176.79 125.09 172.21C128.13 167.7 126.65 163.02 126.7 163.03C126.67 163.09 121.86 165.47 118.62 169.57Z" fill="url(#paint_linear_77_1430_0)" fill-opacity="1.000000" fill-rule="nonzero"/>
	<path id="path" d="M123.39 183.92C117.41 182.91 115.18 178.4 115.19 178.44C115.25 178.46 121.66 176.62 127.18 177.27C132.75 177.94 136.02 181.4 136.02 181.43C136.1 181.46 129.43 184.96 123.39 183.92Z" fill="url(#paint_linear_77_1431_0)" fill-opacity="1.000000" fill-rule="nonzero"/>
	<path id="path" d="M130.43 164.4C129.04 167.36 128.58 170.46 129.05 173.7C129.05 173.76 135.03 170.8 137.04 165.86C139.08 160.99 136.77 156.71 136.81 156.72C136.85 156.72 132.66 159.89 130.43 164.4Z" fill="url(#paint_linear_77_1432_0)" fill-opacity="1.000000" fill-rule="nonzero"/>
	<path id="path" d="M137.74 177.46C136.06 177.48 134.45 177.15 132.92 176.46C131.39 175.78 130.07 174.8 128.97 173.53C129.04 173.53 134.65 170.7 140.01 170.4C145.43 170.11 149.21 172.9 149.21 172.93C149.28 172.94 143.6 177.45 137.74 177.46Z" fill="url(#paint_linear_77_1433_0)" fill-opacity="1.000000" fill-rule="nonzero"/>
	<path id="path" d="M140.63 157.39C139.87 160.52 140.02 163.6 141.09 166.63C141.09 166.69 146.22 162.82 147.25 157.69C148.28 152.63 145.29 148.87 145.32 148.87C145.36 148.87 141.9 152.66 140.63 157.39Z" fill="url(#paint_linear_77_1434_0)" fill-opacity="1.000000" fill-rule="nonzero"/>
	<path id="path" d="M150.08 168.79C148.47 169.09 146.87 169.04 145.28 168.64C143.69 168.23 142.26 167.51 140.98 166.48C141.05 166.48 145.84 162.78 150.94 161.57C156.03 160.36 160.26 162.42 160.27 162.46C160.34 162.45 155.69 167.8 150.08 168.79Z" fill="url(#paint_linear_77_1435_0)" fill-opacity="1.000000" fill-rule="nonzero"/>
	<path id="path" d="M149.15 148.86C148.98 152.03 149.7 154.99 151.28 157.74C151.28 157.8 155.53 153.16 155.61 148C155.72 142.89 152.15 139.76 152.19 139.75C152.18 139.8 149.51 144.04 149.15 148.86Z" fill="url(#paint_linear_77_1436_0)" fill-opacity="1.000000" fill-rule="nonzero"/>
	<path id="path" d="M160.36 158.29C158.85 158.86 157.29 159.08 155.68 158.96C154.07 158.85 152.56 158.4 151.15 157.61C151.2 157.61 155.15 153.2 159.89 151.13C162.88 149.86 165.96 149.6 169.12 150.37C169.18 150.35 165.6 156.36 160.36 158.29Z" fill="url(#paint_linear_77_1437_0)" fill-opacity="1.000000" fill-rule="nonzero"/>
	<path id="path" d="M155.9 139.08C156.29 142.19 157.51 144.95 159.54 147.35C159.56 147.41 162.86 142.16 162.06 137.11C161.26 132.06 157.27 129.68 157.3 129.66C157.31 129.7 155.42 134.32 155.9 139.08Z" fill="url(#paint_linear_77_1438_0)" fill-opacity="1.000000" fill-rule="nonzero"/>
	<path id="path" d="M168.48 146.3C167.11 147.11 165.63 147.6 164.04 147.77C162.45 147.93 160.9 147.76 159.39 147.24C159.44 147.23 162.5 142.25 166.78 139.41C169.48 137.64 172.44 136.85 175.67 137.04C175.73 137 173.24 143.5 168.48 146.3Z" fill="url(#paint_linear_77_1439_0)" fill-opacity="1.000000" fill-rule="nonzero"/>
	<path id="path" d="M160.83 128.34C161.74 131.3 163.39 133.78 165.79 135.77C165.82 135.82 168.16 130.11 166.53 125.3C164.89 120.48 160.59 118.85 160.62 118.84C160.64 118.9 159.55 123.77 160.83 128.34Z" fill="url(#paint_linear_77_1440_0)" fill-opacity="1.000000" fill-rule="nonzero"/>
	<path id="path" d="M174.36 133.16C173.16 134.2 171.8 134.94 170.27 135.39C168.75 135.83 167.2 135.93 165.63 135.69C165.67 135.67 167.81 130.27 171.53 126.72C175.25 123.17 179.83 122.79 179.85 122.82C179.9 122.79 178.55 129.6 174.36 133.16Z" fill="url(#paint_linear_77_1441_0)" fill-opacity="1.000000" fill-rule="nonzero"/>
	<path id="path" d="M163.86 116.93C165.24 119.68 167.27 121.82 169.95 123.35C169.98 123.4 171.31 117.38 168.94 112.94C166.56 108.5 162.04 107.66 162.07 107.64C162.09 107.67 161.84 112.67 163.86 116.93Z" fill="url(#paint_linear_77_1442_0)" fill-opacity="1.000000" fill-rule="nonzero"/>
	<path id="path" d="M177.91 119.26C176.92 120.5 175.71 121.47 174.29 122.17C172.87 122.88 171.37 123.26 169.79 123.32C169.82 123.28 171.03 117.61 174.07 113.45C177.11 109.29 181.52 108.09 181.56 108.11C181.61 108.06 181.43 115.01 177.91 119.26Z" fill="url(#paint_linear_77_1443_0)" fill-opacity="1.000000" fill-rule="nonzero"/>
	<path id="path" d="M164.91 105.15C166.72 107.62 169.07 109.36 171.96 110.38C172 110.43 172.3 104.26 169.2 100.29C166.1 96.32 161.55 96.29 161.57 96.27C161.6 96.3 162.22 101.31 164.91 105.15Z" fill="url(#paint_linear_77_1444_0)" fill-opacity="1.000000" fill-rule="nonzero"/>
	<path id="path" d="M179.06 104.93C178.3 106.32 177.28 107.49 176.01 108.44C174.74 109.39 173.33 110.04 171.78 110.37C171.81 110.34 172.04 104.53 174.31 99.86C176.58 95.2 180.69 93.21 180.72 93.23C180.75 93.19 181.79 100.11 179.06 104.93Z" fill="url(#paint_linear_77_1445_0)" fill-opacity="1.000000" fill-rule="nonzero"/>
	<path id="path" d="M163.92 93.31C166.11 95.43 168.71 96.74 171.73 97.24C171.78 97.28 171.01 91.11 167.26 87.71C163.51 84.31 159.04 85.09 159.06 85.06C159.1 85.07 160.62 89.96 163.92 93.31Z" fill="url(#paint_linear_77_1446_0)" fill-opacity="1.000000" fill-rule="nonzero"/>
	<path id="path" d="M177.73 90.54C177.24 92.05 176.45 93.39 175.38 94.56C174.3 95.73 173.02 96.63 171.56 97.24C171.58 97.2 170.8 91.4 172.19 86.35C173.57 81.3 177.22 78.59 177.27 78.6C177.29 78.55 179.56 85.27 177.73 90.54Z" fill="url(#paint_linear_77_1447_0)" fill-opacity="1.000000" fill-rule="nonzero"/>
	<path id="path" d="M160.81 81.65C163.33 83.38 166.12 84.22 169.18 84.18C169.23 84.21 167.36 78.2 163.03 75.45C161.75 74.66 160.37 74.15 158.88 73.94C157.39 73.73 155.91 73.83 154.47 74.24C154.52 74.26 156.97 78.91 160.81 81.65Z" fill="url(#paint_linear_77_1448_0)" fill-opacity="1.000000" fill-rule="nonzero"/>
	<path id="path" d="M173.83 76.45C173.63 78.03 173.11 79.5 172.27 80.86C171.43 82.21 170.34 83.33 169.01 84.22C169.03 84.17 167.22 78.53 167.6 73.22C167.98 67.91 171.03 64.54 171.07 64.55C171.1 64.51 174.66 70.86 173.83 76.45Z" fill="url(#paint_linear_77_1449_0)" fill-opacity="1.000000" fill-rule="nonzero"/>
	<path id="path" d="M155.51 70.52C158.3 71.82 161.21 72.18 164.23 71.59C164.3 71.62 161.28 65.91 156.44 63.89C155.04 63.3 153.58 63.03 152.06 63.07C150.54 63.12 149.1 63.47 147.73 64.14C147.78 64.16 151.19 68.44 155.51 70.52Z" fill="url(#paint_linear_77_1450_0)" fill-opacity="1.000000" fill-rule="nonzero"/>
	<path id="path" d="M167.27 63.01C167.61 68.72 164.03 71.67 164.08 71.68C164.13 71.68 161.21 66.29 160.48 60.87C159.75 55.45 162.03 51.51 162.08 51.52C162.1 51.45 166.95 57.25 167.27 63.01Z" fill="url(#paint_linear_77_1451_0)" fill-opacity="1.000000" fill-rule="nonzero"/>
	<path id="path" d="M147.96 60.21C150.95 61.05 153.91 60.92 156.81 59.8C156.89 59.8 152.69 54.57 147.4 53.33C145.9 52.96 144.4 52.92 142.88 53.22C141.37 53.52 139.99 54.12 138.75 55.04C138.82 55.05 143.22 58.83 147.96 60.21Z" fill="url(#paint_linear_77_1452_0)" fill-opacity="1.000000" fill-rule="nonzero"/>
	<path id="path" d="M157.97 50.59C159.56 56.3 156.62 59.9 156.68 59.9C156.74 59.9 152.71 54.95 150.75 49.57C148.79 44.19 150.14 39.81 150.19 39.8C150.21 39.74 156.41 44.81 157.97 50.59Z" fill="url(#paint_linear_77_1453_0)" fill-opacity="1.000000" fill-rule="nonzero"/>
	<path id="path" d="M96.08 180.11L96.17 179.07C104.97 179.86 113.57 178.9 121.97 176.19C130.27 173.53 137.78 169.43 144.51 163.9C158.56 152.39 167.62 135.96 170.03 117.63C171.99 102.63 170.98 89.26 167.03 77.9C162.77 65.7 155.21 56.15 144.53 49.52L145.09 48.63C155.98 55.39 163.69 65.12 168.02 77.56C172.03 89.08 173.06 102.61 171.07 117.77C168.63 136.35 159.44 153.02 145.18 164.72C138.35 170.35 130.71 174.51 122.28 177.22C113.74 179.96 105.01 180.93 96.08 180.11Z" fill="url(#paint_linear_77_1454_0)" fill-opacity="1.000000" fill-rule="nonzero"/>
	<path id="path" d="M49.92 43.48C46.16 46.9 45.48 52.26 45.48 52.26C45.48 52.26 50.9 52.09 54.66 48.66C58.43 45.24 59.1 39.88 59.1 39.88C59.1 39.88 53.68 40.06 49.92 43.48Z" fill="url(#paint_linear_77_1455_0)" fill-opacity="1.000000" fill-rule="nonzero"/>
	<path id="path" d="M76.38 169.57C79.61 173.72 79.81 178.61 79.76 178.63C79.76 178.69 72.97 176.79 69.91 172.21C66.86 167.7 68.34 163.02 68.3 163.03C68.32 163.09 73.14 165.47 76.38 169.57Z" fill="url(#paint_linear_77_1456_0)" fill-opacity="1.000000" fill-rule="nonzero"/>
	<path id="path" d="M71.61 183.92C77.58 182.91 79.81 178.4 79.81 178.44C79.74 178.46 73.34 176.62 67.82 177.27C62.25 177.94 58.97 181.4 58.97 181.43C58.89 181.46 65.56 184.96 71.61 183.92Z" fill="url(#paint_linear_77_1457_0)" fill-opacity="1.000000" fill-rule="nonzero"/>
	<path id="path" d="M64.58 164.4C65.96 167.36 66.42 170.46 65.95 173.7C65.95 173.76 59.97 170.8 57.95 165.86C55.92 160.99 58.23 156.71 58.19 156.72C58.2 156.77 62.33 159.89 64.58 164.4Z" fill="url(#paint_linear_77_1458_0)" fill-opacity="1.000000" fill-rule="nonzero"/>
	<path id="path" d="M57.26 177.46C58.94 177.48 60.55 177.15 62.08 176.46C63.61 175.77 64.92 174.8 66.02 173.53C65.96 173.53 60.34 170.7 54.99 170.4C49.57 170.11 45.79 172.9 45.79 172.93C45.71 172.94 51.39 177.45 57.26 177.46Z" fill="url(#paint_linear_77_1459_0)" fill-opacity="1.000000" fill-rule="nonzero"/>
	<path id="path" d="M54.36 157.39C55.12 160.52 54.97 163.6 53.91 166.63C53.91 166.69 48.78 162.82 47.75 157.69C46.72 152.63 49.71 148.87 49.67 148.87C49.63 148.87 53.09 152.66 54.36 157.39Z" fill="url(#paint_linear_77_1460_0)" fill-opacity="1.000000" fill-rule="nonzero"/>
	<path id="path" d="M44.93 168.8C46.54 169.09 48.14 169.04 49.73 168.64C51.32 168.23 52.76 167.51 54.03 166.48C53.97 166.48 49.17 162.78 44.08 161.57C38.93 160.37 34.75 162.42 34.75 162.46C34.66 162.45 39.31 167.8 44.93 168.8Z" fill="url(#paint_linear_77_1461_0)" fill-opacity="1.000000" fill-rule="nonzero"/>
	<path id="path" d="M45.85 148.86C46.01 152.03 45.3 154.99 43.71 157.74C43.71 157.8 39.47 153.16 39.39 148C39.28 142.89 42.85 139.76 42.82 139.75C42.81 139.8 45.48 144.04 45.85 148.86Z" fill="url(#paint_linear_77_1462_0)" fill-opacity="1.000000" fill-rule="nonzero"/>
	<path id="path" d="M34.64 158.29C36.15 158.86 37.71 159.08 39.32 158.96C40.93 158.85 42.44 158.4 43.85 157.62C43.79 157.62 39.85 153.2 35.11 151.13C32.12 149.86 29.04 149.6 25.88 150.37C25.81 150.35 29.4 156.36 34.64 158.29Z" fill="url(#paint_linear_77_1463_0)" fill-opacity="1.000000" fill-rule="nonzero"/>
	<path id="path" d="M39.09 139.08C38.7 142.19 37.48 144.95 35.45 147.35C35.45 147.41 32.13 142.16 32.92 137.11C33.72 132.06 37.72 129.68 37.69 129.66C37.68 129.7 39.58 134.32 39.09 139.08Z" fill="url(#paint_linear_77_1464_0)" fill-opacity="1.000000" fill-rule="nonzero"/>
	<path id="path" d="M26.52 146.3C27.89 147.11 29.37 147.6 30.96 147.77C32.55 147.93 34.09 147.76 35.61 147.24C35.55 147.23 32.5 142.25 28.22 139.41C25.52 137.64 22.55 136.85 19.32 137.04C19.27 137 21.75 143.5 26.52 146.3Z" fill="url(#paint_linear_77_1465_0)" fill-opacity="1.000000" fill-rule="nonzero"/>
	<path id="path" d="M34.17 128.34C33.25 131.3 31.6 133.78 29.21 135.77C29.18 135.82 26.84 130.11 28.47 125.3C30.1 120.48 34.41 118.85 34.38 118.84C34.36 118.9 35.45 123.77 34.17 128.34Z" fill="url(#paint_linear_77_1466_0)" fill-opacity="1.000000" fill-rule="nonzero"/>
	<path id="path" d="M20.64 133.16C21.84 134.2 23.2 134.94 24.72 135.39C26.25 135.83 27.8 135.93 29.37 135.69C29.32 135.67 27.18 130.27 23.46 126.72C19.75 123.17 15.17 122.79 15.15 122.82C15.09 122.79 16.44 129.6 20.64 133.16Z" fill="url(#paint_linear_77_1467_0)" fill-opacity="1.000000" fill-rule="nonzero"/>
	<path id="path" d="M31.14 116.93C29.76 119.68 27.73 121.82 25.04 123.35C25.01 123.4 23.67 117.38 26.06 112.94C28.45 108.5 32.95 107.66 32.93 107.64C32.9 107.67 33.15 112.67 31.14 116.93Z" fill="url(#paint_linear_77_1468_0)" fill-opacity="1.000000" fill-rule="nonzero"/>
	<path id="path" d="M17.08 119.26C18.08 120.5 19.28 121.47 20.7 122.18C22.12 122.88 23.62 123.26 25.21 123.32C25.17 123.28 23.97 117.61 20.92 113.45C17.87 109.29 13.46 108.07 13.43 108.1C13.39 108.06 13.57 115.01 17.08 119.26Z" fill="url(#paint_linear_77_1469_0)" fill-opacity="1.000000" fill-rule="nonzero"/>
	<path id="path" d="M30.08 105.15C28.27 107.62 25.92 109.36 23.03 110.38C22.99 110.43 22.69 104.26 25.79 100.29C28.89 96.32 33.45 96.29 33.41 96.27C33.39 96.3 32.77 101.31 30.08 105.15Z" fill="url(#paint_linear_77_1470_0)" fill-opacity="1.000000" fill-rule="nonzero"/>
	<path id="path" d="M15.93 104.93C16.69 106.33 17.7 107.5 18.97 108.44C20.25 109.39 21.66 110.04 23.21 110.37C23.17 110.34 22.95 104.53 20.68 99.86C18.41 95.2 14.3 93.21 14.27 93.23C14.23 93.19 13.21 100.11 15.93 104.93Z" fill="url(#paint_linear_77_1471_0)" fill-opacity="1.000000" fill-rule="nonzero"/>
	<path id="path" d="M31.08 93.31C28.88 95.43 26.27 96.74 23.25 97.22C23.21 97.26 23.97 91.09 27.72 87.69C31.48 84.3 35.94 85.07 35.92 85.04C35.89 85.07 34.37 89.96 31.08 93.31Z" fill="url(#paint_linear_77_1472_0)" fill-opacity="1.000000" fill-rule="nonzero"/>
	<path id="path" d="M17.26 90.54C17.76 92.05 18.54 93.39 19.62 94.56C20.7 95.73 21.97 96.63 23.44 97.24C23.42 97.2 24.19 91.4 22.81 86.35C21.42 81.3 17.78 78.59 17.73 78.6C17.7 78.55 15.44 85.27 17.26 90.54Z" fill="url(#paint_linear_77_1473_0)" fill-opacity="1.000000" fill-rule="nonzero"/>
	<path id="path" d="M34.19 81.65C31.67 83.38 28.88 84.23 25.82 84.19C25.76 84.22 27.64 78.21 31.97 75.46C33.24 74.66 34.63 74.16 36.12 73.94C37.61 73.73 39.08 73.83 40.53 74.24C40.48 74.26 38.03 78.91 34.19 81.65Z" fill="url(#paint_linear_77_1474_0)" fill-opacity="1.000000" fill-rule="nonzero"/>
	<path id="path" d="M21.17 76.45C21.36 78.03 21.88 79.5 22.72 80.86C23.56 82.21 24.65 83.33 25.98 84.22C25.96 84.17 27.78 78.53 27.4 73.22C27.01 67.91 23.97 64.56 23.93 64.57C23.9 64.51 20.36 70.86 21.17 76.45Z" fill="url(#paint_linear_77_1475_0)" fill-opacity="1.000000" fill-rule="nonzero"/>
	<path id="path" d="M39.48 70.52C36.69 71.82 33.79 72.18 30.77 71.59C30.7 71.62 33.71 65.91 38.56 63.89C39.96 63.3 41.42 63.03 42.94 63.07C44.46 63.12 45.9 63.47 47.26 64.14C47.21 64.16 43.8 68.44 39.48 70.52Z" fill="url(#paint_linear_77_1476_0)" fill-opacity="1.000000" fill-rule="nonzero"/>
	<path id="path" d="M27.73 63.01C27.39 68.72 30.96 71.67 30.91 71.68C30.87 71.68 33.78 66.29 34.51 60.87C35.24 55.45 32.96 51.51 32.92 51.52C32.9 51.45 28.04 57.25 27.73 63.01Z" fill="url(#paint_linear_77_1477_0)" fill-opacity="1.000000" fill-rule="nonzero"/>
	<path id="path" d="M47.04 60.21C44.04 61.05 41.09 60.92 38.18 59.8C38.11 59.8 42.3 54.57 47.6 53.33C49.1 52.96 50.6 52.92 52.11 53.22C53.63 53.52 55 54.13 56.24 55.05C56.18 55.05 51.77 58.83 47.04 60.21Z" fill="url(#paint_linear_77_1478_0)" fill-opacity="1.000000" fill-rule="nonzero"/>
	<path id="path" d="M37.02 50.59C35.43 56.3 38.38 59.9 38.32 59.9C38.25 59.9 42.29 54.95 44.25 49.57C46.22 44.19 44.86 39.81 44.81 39.8C44.78 39.74 38.58 44.81 37.02 50.59Z" fill="url(#paint_linear_77_1479_0)" fill-opacity="1.000000" fill-rule="nonzero"/>
	<path id="path" d="M98.92 180.11L98.83 179.07C90.04 179.86 81.44 178.91 73.04 176.21C64.73 173.54 57.2 169.44 50.47 163.9C36.42 152.38 27.36 135.95 24.95 117.63C22.98 102.63 23.99 89.26 27.95 77.9C32.19 65.7 39.77 56.15 50.44 49.52L49.88 48.63C39 55.39 31.28 65.12 26.95 77.56C22.94 89.08 21.91 102.61 23.9 117.77C26.34 136.35 35.53 153.02 49.79 164.72C56.62 170.35 64.26 174.51 72.69 177.22C81.24 179.97 89.98 180.93 98.92 180.11Z" fill="url(#paint_linear_77_1480_0)" fill-opacity="1.000000" fill-rule="nonzero"/>
	<path id="polygon" d="M97.19 174.77L89.21 180.62L97.19 186.46L105.16 180.62L97.19 174.77Z" fill="url(#paint_linear_77_1481_0)" fill-opacity="1.000000" fill-rule="nonzero"/>
	<path id="polygon" d="M108 31.74L96.5 8.81L85.42 30.91L72.29 8.81L76.2 49.57L117.71 49.57L121.62 8.81L108 31.74Z" fill="url(#paint_linear_77_1482_0)" fill-opacity="1.000000" fill-rule="nonzero"/>
	<path id="path" d="M117.71 49.85L76.2 49.85C76.03 49.85 75.94 49.77 75.93 49.6L72.03 8.83C72.01 8.69 72.07 8.59 72.22 8.54C72.36 8.49 72.48 8.53 72.56 8.67L85.43 30.33L96.27 8.69C96.32 8.58 96.4 8.53 96.52 8.53C96.63 8.53 96.71 8.58 96.77 8.69L108.02 31.16L121.38 8.67C121.46 8.54 121.57 8.5 121.71 8.55C121.84 8.59 121.91 8.69 121.9 8.83L117.99 49.6C117.97 49.77 117.88 49.85 117.71 49.85ZM76.46 49.29L117.44 49.29L121.23 10.02L108.24 31.88C108.19 31.98 108.1 32.02 107.99 32.02C107.88 32.02 107.8 31.97 107.75 31.87L96.5 9.43L85.66 31.05C85.61 31.15 85.53 31.2 85.42 31.2C85.31 31.21 85.23 31.16 85.17 31.07L72.7 10.02L76.46 49.29Z" fill="url(#paint_linear_77_1483_0)" fill-opacity="1.000000" fill-rule="nonzero"/>
	<path id="IT and Technology Field" d="M73.97 123.53L73.97 113L71.41 113L71.41 123.53L73.97 123.53ZM83.41 115.05L83.41 113L75.26 113L75.26 115.05L78.06 115.05L78.06 123.53L80.62 123.53L80.62 115.05L83.41 115.05ZM90.51 121.67L94.44 121.67L95.07 123.53L97.78 123.53L93.97 113L91 113L87.19 123.53L89.88 123.53L90.51 121.67ZM105.79 123.53L108.36 123.53L108.36 113L105.79 113L105.79 119.52L101.5 113L98.94 113L98.94 123.53L101.5 123.53L101.5 117.03L105.79 123.53ZM117.07 113.66Q115.83 113 114.16 113L110.22 113L110.22 123.53L114.16 123.53Q115.81 123.53 117.06 122.87Q117.79 122.49 118.32 121.93Q118.71 121.52 119 121.01Q119.06 120.89 119.12 120.78Q119.68 119.66 119.68 118.26Q119.68 116.78 119.06 115.63Q119.03 115.57 119 115.51Q118.71 115.01 118.33 114.6Q117.79 114.04 117.07 113.66ZM116.08 120.67Q115.3 121.31 114 121.31L112.78 121.31L112.78 115.19L114 115.19Q115.27 115.19 116.05 115.81Q116.16 115.9 116.26 116Q116.36 116.1 116.46 116.22Q117.07 117 117.07 118.26Q117.07 119.54 116.45 120.31Q116.36 120.42 116.26 120.51Q116.17 120.6 116.08 120.67ZM92.47 115.83L93.78 119.69L91.18 119.69L92.47 115.83ZM100.11 141.31Q101.02 141.63 102.05 141.63Q103.08 141.63 103.99 141.3Q104.39 141.15 104.76 140.95Q105.32 140.63 105.77 140.21Q106.32 139.69 106.71 139.02Q106.88 138.73 107 138.44Q107.43 137.43 107.43 136.23Q107.43 135 106.98 133.96Q106.86 133.7 106.72 133.46Q106.36 132.83 105.85 132.34Q105.38 131.87 104.77 131.54Q104.38 131.32 103.96 131.17Q103.06 130.85 102.05 130.85Q101.02 130.85 100.11 131.18Q99.71 131.32 99.32 131.54Q98.75 131.86 98.28 132.29Q97.75 132.8 97.36 133.46Q97.2 133.73 97.07 134.02Q96.63 135.03 96.63 136.23Q96.63 137.42 97.06 138.42Q97.19 138.73 97.36 139.02Q97.76 139.69 98.31 140.21Q98.76 140.63 99.32 140.95Q99.71 141.16 100.11 141.31ZM119.06 141.31Q119.97 141.63 120.99 141.63Q122.03 141.63 122.94 141.3Q123.34 141.15 123.71 140.95Q124.26 140.63 124.72 140.21Q125.26 139.69 125.66 139.02Q125.82 138.73 125.95 138.44Q126.38 137.43 126.38 136.23Q126.38 135 125.92 133.96Q125.81 133.7 125.66 133.46Q125.3 132.83 124.8 132.34Q124.32 131.87 123.72 131.54Q123.32 131.32 122.9 131.17Q122 130.85 120.99 130.85Q119.97 130.85 119.06 131.18Q118.65 131.32 118.27 131.54Q117.69 131.86 117.23 132.29Q116.69 132.8 116.3 133.46Q116.14 133.73 116.02 134.02Q115.58 135.03 115.58 136.23Q115.58 137.42 116 138.42Q116.13 138.73 116.3 139.02Q116.7 139.69 117.25 140.21Q117.71 140.63 118.27 140.95Q118.65 141.16 119.06 141.31ZM63.54 133.63Q62.96 134.79 62.96 136.25Q62.96 137.71 63.55 138.87Q63.59 138.95 63.63 139.02Q63.98 139.65 64.48 140.14Q64.93 140.59 65.51 140.92Q65.67 141.01 65.84 141.09Q66.92 141.6 68.25 141.6Q69.77 141.6 70.93 140.96Q71.21 140.81 71.46 140.62Q71.94 140.27 72.3 139.83Q72.96 139.03 73.25 137.93L70.43 137.93Q70.2 138.41 69.82 138.73Q69.69 138.84 69.53 138.93Q69.43 139 69.32 139.05Q68.83 139.28 68.22 139.28Q67.5 139.28 66.95 138.98Q66.59 138.78 66.3 138.46Q66.23 138.38 66.17 138.3Q65.57 137.5 65.57 136.25Q65.57 134.99 66.17 134.2Q66.23 134.12 66.3 134.04Q66.59 133.72 66.95 133.52Q67.5 133.22 68.22 133.22Q68.83 133.22 69.32 133.45Q69.43 133.5 69.53 133.56Q69.69 133.65 69.82 133.76Q70.2 134.08 70.43 134.57L73.25 134.57Q72.96 133.48 72.32 132.69Q71.95 132.23 71.46 131.87Q71.19 131.67 70.89 131.5Q69.74 130.88 68.25 130.88Q66.93 130.88 65.86 131.39Q65.68 131.47 65.51 131.56Q64.95 131.88 64.51 132.31Q63.99 132.81 63.63 133.47Q63.59 133.55 63.54 133.63ZM134.47 133.89Q134.66 134.08 134.8 134.33L137.63 134.33Q137.37 133.34 136.79 132.61Q136.42 132.15 135.91 131.79Q135.84 131.74 135.77 131.7Q134.51 130.88 132.72 130.88Q131.3 130.88 130.16 131.45Q130.05 131.5 129.95 131.56Q129.37 131.88 128.92 132.33Q128.41 132.82 128.05 133.47Q127.99 133.57 127.94 133.67Q127.37 134.82 127.37 136.25Q127.37 137.69 127.95 138.83Q128 138.93 128.05 139.02Q128.38 139.62 128.85 140.08Q129.33 140.57 129.96 140.92Q130.07 140.98 130.18 141.04Q131.32 141.6 132.74 141.6Q134.06 141.6 135.11 141.09Q136.12 140.6 136.79 139.81Q136.82 139.78 136.84 139.76Q137.47 138.99 137.77 138.11Q137.79 138.04 137.81 137.97L137.81 135.59L132.23 135.59L132.23 137.48L135.48 137.48Q135.21 138.3 134.65 138.77Q134.59 138.81 134.53 138.86Q134.45 138.92 134.37 138.97Q133.76 139.34 132.93 139.34Q131.82 139.34 131.1 138.81Q130.92 138.68 130.77 138.52Q130.69 138.44 130.63 138.36Q129.98 137.57 129.98 136.25Q129.98 135.05 130.55 134.28Q130.63 134.17 130.73 134.06Q130.97 133.8 131.27 133.62Q131.88 133.25 132.72 133.25Q133.44 133.25 133.97 133.53Q134.26 133.67 134.47 133.89ZM53.99 133.05L53.99 131L45.84 131L45.84 133.05L48.63 133.05L48.63 141.53L51.2 141.53L51.2 133.05L53.99 133.05ZM57.84 135.18L57.84 133.05L61.73 133.05L61.73 131L55.28 131L55.28 141.53L61.73 141.53L61.73 139.47L57.84 139.47L57.84 137.16L61.28 137.16L61.28 135.18L57.84 135.18ZM83.94 141.53L83.94 131L81.38 131L81.38 135.12L77.39 135.12L77.39 131L74.82 131L74.82 141.53L77.39 141.53L77.39 137.19L81.38 137.19L81.38 141.53L83.94 141.53ZM92.64 141.53L95.21 141.53L95.21 131L92.64 131L92.64 137.52L88.35 131L85.79 131L85.79 141.53L88.35 141.53L88.35 135.03L92.64 141.53ZM114.78 139.55L111.42 139.55L111.42 131L108.86 131L108.86 141.53L114.78 141.53L114.78 139.55ZM144.62 138.05L148.26 131L145.38 131L143.36 135.41L141.32 131L138.41 131L142.05 138.05L142.05 141.53L144.62 141.53L144.62 138.05ZM103.5 138.93Q102.88 139.29 102.05 139.29Q101.17 139.29 100.54 138.9Q100.25 138.72 100.02 138.46Q99.93 138.36 99.85 138.25Q99.26 137.46 99.26 136.23Q99.26 134.96 99.87 134.17Q99.94 134.08 100.02 134Q100.25 133.75 100.53 133.57Q101.16 133.17 102.05 133.17Q102.89 133.17 103.51 133.55Q103.82 133.73 104.07 134Q104.16 134.1 104.24 134.21Q104.83 135 104.83 136.23Q104.83 137.42 104.27 138.21Q104.17 138.34 104.07 138.46Q103.81 138.74 103.5 138.93ZM122.44 138.93Q121.83 139.29 120.99 139.29Q120.12 139.29 119.49 138.9Q119.2 138.72 118.96 138.46Q118.87 138.36 118.79 138.25Q118.2 137.46 118.2 136.23Q118.2 134.96 118.82 134.17Q118.89 134.08 118.96 134Q119.19 133.75 119.47 133.57Q120.11 133.17 120.99 133.17Q121.84 133.17 122.46 133.55Q122.76 133.73 123.01 134Q123.1 134.1 123.18 134.21Q123.77 135 123.77 136.23Q123.77 137.42 123.21 138.21Q123.12 138.34 123.01 138.46Q122.76 138.74 122.44 138.93ZM85.31 151.05L85.31 149L78.45 149L78.45 159.53L81.02 159.53L81.02 155.27L84.23 155.27L84.23 153.27L81.02 153.27L81.02 151.05L85.31 151.05ZM89.22 159.53L89.22 149L86.66 149L86.66 159.53L89.22 159.53ZM93.65 153.18L93.65 151.05L97.53 151.05L97.53 149L91.08 149L91.08 159.53L97.53 159.53L97.53 157.47L93.65 157.47L93.65 155.16L97.08 155.16L97.08 153.18L93.65 153.18ZM105.12 157.55L101.76 157.55L101.76 149L99.2 149L99.2 159.53L105.12 159.53L105.12 157.55ZM113.21 149.66Q111.96 149 110.3 149L106.35 149L106.35 159.53L110.3 159.53Q111.95 159.53 113.2 158.87Q113.93 158.49 114.46 157.93Q114.85 157.52 115.14 157.01Q115.2 156.89 115.26 156.78Q115.82 155.66 115.82 154.26Q115.82 152.78 115.2 151.63Q115.17 151.57 115.14 151.51Q114.85 151.01 114.46 150.6Q113.93 150.04 113.21 149.66ZM112.22 156.67Q111.43 157.31 110.13 157.31L108.92 157.31L108.92 151.19L110.13 151.19Q111.41 151.19 112.18 151.81Q112.3 151.9 112.4 152Q112.5 152.1 112.59 152.22Q113.21 153 113.21 154.26Q113.21 155.54 112.58 156.31Q112.5 156.42 112.4 156.51Q112.31 156.6 112.22 156.67Z" fill="#002175" fill-opacity="1.000000" fill-rule="evenodd"/>
	<path id="RITEG Award Contribution" d="M85.12 75.03Q85.44 75.3 85.65 75.69L87.91 75.69Q87.63 74.82 87.08 74.18Q86.71 73.76 86.23 73.44Q86.05 73.32 85.86 73.22Q84.77 72.63 83.36 72.63Q82.29 72.63 81.37 73Q81.08 73.12 80.81 73.27Q80.27 73.57 79.84 73.99Q79.36 74.45 79.02 75.05Q78.92 75.23 78.83 75.42Q78.37 76.42 78.37 77.63Q78.37 78.87 78.85 79.88Q78.93 80.04 79.02 80.2Q79.35 80.77 79.8 81.22Q80.25 81.66 80.81 81.98Q81.03 82.1 81.26 82.2Q82.23 82.61 83.37 82.61Q84.51 82.61 85.46 82.18Q85.55 82.13 85.64 82.09Q86.43 81.68 86.99 81.06Q87.16 80.89 87.3 80.69Q87.75 80.09 87.98 79.41Q88.08 79.11 88.14 78.8L88.14 77.1L82.85 77.1L82.85 78.59L86.21 78.59Q86.02 79.49 85.49 80.05Q85.39 80.16 85.28 80.25Q85.19 80.32 85.1 80.39Q84.42 80.85 83.44 80.85Q82.53 80.85 81.84 80.46Q81.59 80.31 81.38 80.12Q81.01 79.79 80.77 79.33Q80.39 78.61 80.39 77.63Q80.39 76.68 80.76 75.95Q81.02 75.46 81.4 75.12Q81.59 74.96 81.82 74.83Q81.9 74.78 81.98 74.74Q82.59 74.44 83.36 74.44Q84.14 74.44 84.73 74.76Q84.94 74.87 85.12 75.03ZM73.36 76.79L73.36 74.34L77.07 74.34L77.07 72.74L71.4 72.74L71.4 82.53L77.07 82.53L77.07 80.93L73.36 80.93L73.36 78.34L76.65 78.34L76.65 76.79L73.36 76.79ZM95.03 80.66L98.92 80.66L99.57 82.53L101.64 82.53L98.13 72.74L95.85 72.74L92.33 82.53L94.39 82.53L95.03 80.66ZM119.39 80.66L123.29 80.66L123.93 82.53L126 82.53L122.49 72.74L120.21 72.74L116.69 82.53L118.75 82.53L119.39 80.66ZM53.34 78.72L55.5 82.53L57.76 82.53L55.43 78.57Q56.39 78.31 56.93 77.69Q57.02 77.6 57.09 77.5Q57.37 77.11 57.51 76.69Q57.65 76.25 57.65 75.75Q57.65 75.14 57.44 74.61Q57.36 74.42 57.25 74.23Q57.19 74.13 57.13 74.04Q56.74 73.49 56.06 73.16Q55.26 72.76 54.12 72.76L50.46 72.76L50.46 82.53L52.42 82.53L52.42 78.72L53.34 78.72ZM61.39 82.53L61.39 72.76L59.43 72.76L59.43 82.53L61.39 82.53ZM69.97 74.34L69.97 72.76L62.8 72.76L62.8 74.34L65.41 74.34L65.41 82.53L67.37 82.53L67.37 74.34L69.97 74.34ZM113.29 82.53L116.02 72.76L113.91 72.76L112.17 80.3L110.29 72.76L108.11 72.76L106.12 80.34L104.4 72.76L102.3 72.76L104.93 82.54L107.23 82.53L109.14 75.57L110.98 82.53L113.29 82.53ZM130.2 78.72L132.36 82.53L134.63 82.53L132.29 78.57Q133.25 78.31 133.8 77.69Q133.88 77.6 133.95 77.5Q134.23 77.11 134.37 76.69Q134.51 76.25 134.51 75.75Q134.51 75.14 134.3 74.61Q134.22 74.42 134.11 74.23Q134.05 74.13 133.99 74.04Q133.6 73.49 132.92 73.16Q132.12 72.76 130.99 72.76L127.32 72.76L127.32 82.53L129.28 82.53L129.28 78.72L130.2 78.72ZM142.42 73.36Q141.25 72.76 139.71 72.76L136.29 72.76L136.29 82.53L139.71 82.53Q141.25 82.53 142.42 81.93Q143.13 81.56 143.65 81Q143.98 80.65 144.22 80.23Q144.86 79.13 144.86 77.66Q144.86 76.21 144.24 75.11Q144.23 75.09 144.22 75.07Q143.95 74.6 143.59 74.22Q143.09 73.7 142.42 73.36ZM54.05 77.25L52.42 77.25L52.42 74.38L54.05 74.38Q54.85 74.38 55.24 74.75Q55.31 74.81 55.37 74.89Q55.64 75.24 55.64 75.79Q55.64 76.37 55.36 76.74Q55.3 76.81 55.24 76.87Q54.85 77.25 54.05 77.25ZM130.91 77.25L129.28 77.25L129.28 74.38L130.91 74.38Q131.71 74.38 132.1 74.75Q132.17 74.81 132.23 74.89Q132.5 75.24 132.5 75.79Q132.5 76.37 132.22 76.74Q132.16 76.81 132.1 76.87Q131.71 77.25 130.91 77.25ZM141.84 80.18Q141.02 80.86 139.64 80.86L138.25 80.86L138.25 74.41L139.64 74.41Q140.98 74.41 141.79 75.06Q141.91 75.16 142.02 75.27Q142.11 75.37 142.2 75.48Q142.86 76.31 142.86 77.66Q142.86 79.01 142.2 79.82Q142.11 79.93 142.02 80.02Q141.93 80.11 141.84 80.18ZM96.98 75.01L98.39 79.1L95.57 79.1L96.98 75.01ZM121.34 75.01L122.75 79.1L119.93 79.1L121.34 75.01ZM59.45 100.34Q60.27 100.63 61.19 100.63Q62.09 100.63 62.9 100.35Q63.31 100.2 63.71 99.98Q64.27 99.67 64.72 99.23Q65.18 98.77 65.52 98.2Q65.64 97.98 65.75 97.75Q66.18 96.78 66.18 95.61Q66.18 94.51 65.79 93.58Q65.67 93.31 65.52 93.05Q65.17 92.44 64.68 91.98Q64.25 91.56 63.71 91.26Q63.38 91.07 63.02 90.94Q62.16 90.62 61.19 90.62Q60.28 90.62 59.47 90.9Q59.05 91.04 58.67 91.26Q58.13 91.56 57.7 91.97Q57.21 92.43 56.85 93.05Q56.68 93.32 56.56 93.62Q56.17 94.53 56.17 95.61Q56.17 96.76 56.6 97.72Q56.71 97.97 56.85 98.2Q57.2 98.8 57.69 99.27Q58.13 99.68 58.67 99.98Q59.05 100.2 59.45 100.34ZM132.41 100.34Q133.22 100.63 134.14 100.63Q135.05 100.63 135.85 100.35Q136.27 100.2 136.66 99.98Q137.23 99.67 137.67 99.23Q138.14 98.77 138.47 98.2Q138.6 97.98 138.7 97.75Q139.14 96.78 139.14 95.61Q139.14 94.51 138.74 93.58Q138.63 93.31 138.47 93.05Q138.12 92.44 137.64 91.98Q137.21 91.56 136.67 91.26Q136.33 91.07 135.97 90.94Q135.12 90.62 134.14 90.62Q133.23 90.62 132.42 90.9Q132.01 91.04 131.62 91.26Q131.09 91.56 130.66 91.97Q130.16 92.43 129.8 93.05Q129.64 93.32 129.51 93.62Q129.13 94.53 129.13 95.61Q129.13 96.76 129.56 97.72Q129.67 97.97 129.8 98.2Q130.16 98.8 130.65 99.27Q131.08 99.68 131.62 99.98Q132 100.2 132.41 100.34ZM45.88 93.42Q45.42 94.42 45.42 95.63Q45.42 96.87 45.9 97.88Q45.98 98.04 46.07 98.2Q46.42 98.81 46.91 99.28Q47.33 99.68 47.85 99.98Q48.09 100.11 48.33 100.22Q49.27 100.61 50.38 100.61Q51.72 100.61 52.77 100.07Q53.02 99.94 53.26 99.78Q53.69 99.49 54.02 99.11Q54.65 98.42 54.97 97.45L52.72 97.45Q52.46 97.99 52.04 98.33Q51.91 98.43 51.77 98.51Q51.74 98.53 51.7 98.55Q51.12 98.86 50.36 98.86Q49.66 98.86 49.09 98.59Q48.96 98.53 48.84 98.46Q48.65 98.34 48.47 98.19Q48.07 97.84 47.81 97.33Q47.44 96.59 47.44 95.63Q47.44 94.65 47.81 93.92Q48.06 93.43 48.45 93.08Q48.63 92.92 48.84 92.79Q48.96 92.72 49.09 92.66Q49.66 92.39 50.36 92.39Q51.13 92.39 51.72 92.71Q51.74 92.73 51.77 92.74Q51.91 92.82 52.03 92.91Q52.45 93.25 52.72 93.79L54.97 93.79Q54.67 92.88 54.09 92.21Q53.72 91.79 53.25 91.47Q52.96 91.28 52.66 91.13Q51.64 90.63 50.38 90.63Q49.28 90.63 48.35 91.02Q48.1 91.13 47.85 91.27Q47.35 91.55 46.94 91.93Q46.43 92.41 46.07 93.05Q45.97 93.23 45.88 93.42ZM74.04 100.53L76 100.53L76 90.74L74.04 90.74L74.04 97.46L69.6 90.74L67.64 90.74L67.64 100.53L69.6 100.53L69.6 93.82L74.04 100.53ZM146.99 100.53L148.95 100.53L148.95 90.74L146.99 90.74L146.99 97.46L142.56 90.74L140.6 90.74L140.6 100.53L142.56 100.53L142.56 93.82L146.99 100.53ZM84.58 92.34L84.58 90.76L77.41 90.76L77.41 92.34L80.02 92.34L80.02 100.53L81.98 100.53L81.98 92.34L84.58 92.34ZM88.89 96.72L91.05 100.53L93.32 100.53L90.98 96.57Q91.94 96.31 92.49 95.69Q92.57 95.6 92.64 95.5Q92.92 95.11 93.06 94.69Q93.21 94.25 93.21 93.75Q93.21 93.14 92.99 92.61Q92.91 92.42 92.81 92.23Q92.75 92.13 92.68 92.04Q92.29 91.49 91.61 91.16Q90.81 90.76 89.68 90.76L86.01 90.76L86.01 100.53L87.97 100.53L87.97 96.72L88.89 96.72ZM96.94 100.53L96.94 90.76L94.98 90.76L94.98 100.53L96.94 100.53ZM105.1 95.76Q104.79 95.59 104.42 95.52Q104.97 95.34 105.36 94.99Q105.51 94.86 105.63 94.7Q105.7 94.61 105.76 94.51Q106.09 93.99 106.09 93.27Q106.09 92.77 105.91 92.34Q105.83 92.15 105.71 91.97Q105.68 91.93 105.65 91.88Q105.28 91.37 104.62 91.08Q103.9 90.76 102.91 90.76L98.88 90.76L98.88 100.53L103.09 100.53Q104.08 100.53 104.81 100.19Q105.46 99.89 105.83 99.39Q105.88 99.33 105.92 99.26Q106 99.14 106.07 99.01Q106.31 98.51 106.31 97.88Q106.31 97.42 106.16 97.01Q106.03 96.66 105.78 96.34Q105.48 95.97 105.1 95.76ZM109.81 96.8L109.81 90.76L107.85 90.76L107.85 96.79Q107.85 98.04 108.37 98.9Q108.65 99.37 109.05 99.72Q109.38 100 109.78 100.19Q109.81 100.21 109.85 100.23Q110.71 100.63 111.75 100.63Q112.85 100.63 113.74 100.21Q113.75 100.2 113.76 100.19Q114.17 100 114.5 99.71Q114.91 99.37 115.21 98.9Q115.75 98.04 115.75 96.79L115.75 90.76L113.77 90.76L113.77 96.8Q113.77 97.75 113.3 98.27Q113.28 98.3 113.25 98.32Q113.2 98.38 113.14 98.42Q112.64 98.85 111.78 98.85Q110.96 98.85 110.46 98.45Q110.39 98.39 110.33 98.32Q110.3 98.3 110.28 98.28Q109.81 97.76 109.81 96.8ZM124.28 92.34L124.28 90.76L117.12 90.76L117.12 92.34L119.72 92.34L119.72 100.53L121.68 100.53L121.68 92.34L124.28 92.34ZM127.67 100.53L127.67 90.76L125.71 90.76L125.71 100.53L127.67 100.53ZM102.63 94.79L100.84 94.79L100.84 92.34L102.63 92.34Q103.33 92.34 103.7 92.66Q103.81 92.75 103.88 92.85Q104.08 93.14 104.08 93.57Q104.08 94 103.88 94.28Q103.8 94.39 103.7 94.47Q103.33 94.79 102.63 94.79ZM62.62 98.54Q61.99 98.88 61.19 98.88Q60.41 98.88 59.78 98.56Q59.7 98.52 59.63 98.48Q59.4 98.35 59.21 98.18Q58.82 97.83 58.57 97.33Q58.19 96.59 58.19 95.61Q58.19 94.63 58.57 93.9Q58.82 93.41 59.2 93.08Q59.4 92.91 59.63 92.77Q59.69 92.74 59.75 92.71Q60.38 92.38 61.19 92.38Q62.01 92.38 62.65 92.72Q62.7 92.75 62.74 92.77Q62.96 92.9 63.14 93.06Q63.53 93.4 63.79 93.9Q64.17 94.63 64.17 95.61Q64.17 96.59 63.79 97.33Q63.53 97.85 63.13 98.2Q62.95 98.35 62.74 98.48Q62.68 98.51 62.62 98.54ZM89.61 95.25L87.97 95.25L87.97 92.38L89.61 92.38Q90.41 92.38 90.8 92.75Q90.86 92.81 90.92 92.89Q91.19 93.24 91.19 93.79Q91.19 94.37 90.91 94.74Q90.86 94.81 90.8 94.87Q90.41 95.25 89.61 95.25ZM135.57 98.54Q134.95 98.88 134.14 98.88Q133.36 98.88 132.74 98.56Q132.66 98.52 132.58 98.48Q132.36 98.35 132.17 98.18Q131.78 97.83 131.52 97.33Q131.14 96.59 131.14 95.61Q131.14 94.63 131.52 93.9Q131.77 93.41 132.15 93.08Q132.35 92.91 132.58 92.77Q132.64 92.74 132.7 92.71Q133.34 92.38 134.14 92.38Q134.97 92.38 135.61 92.72Q135.65 92.75 135.69 92.77Q135.91 92.9 136.1 93.06Q136.49 93.4 136.74 93.9Q137.12 94.63 137.12 95.61Q137.12 96.59 136.74 97.33Q136.48 97.85 136.08 98.2Q135.9 98.35 135.69 98.48Q135.64 98.51 135.57 98.54ZM103.92 98.6Q103.52 98.93 102.81 98.93L100.84 98.93L100.84 96.3L102.77 96.3Q103.46 96.3 103.88 96.64Q103.89 96.65 103.9 96.66Q104.03 96.77 104.12 96.91Q104.32 97.21 104.32 97.64Q104.32 98.09 104.11 98.38Q104.03 98.5 103.92 98.6Z" fill="#000000" fill-opacity="0.600000" fill-rule="evenodd"/>
</svg>
