<svg width="195.000000" height="195.000000" viewBox="0 0 195 195" fill="none" xmlns="http://www.w3.org/2000/svg" xmlns:xlink="http://www.w3.org/1999/xlink">
	<desc>
			Created with Pixso.
	</desc>
	<defs>
		<linearGradient x1="135.895248" y1="46.081245" x2="149.518158" y2="46.081245" id="paint_linear_77_1372_0" gradientUnits="userSpaceOnUse">
			<stop stop-color="#A57D24"/>
			<stop offset="0.210000" stop-color="#D8BE62"/>
			<stop offset="0.330000" stop-color="#F1DD80"/>
			<stop offset="0.520000" stop-color="#FBF2A8"/>
			<stop offset="0.730000" stop-color="#F1DD80"/>
			<stop offset="1.000000" stop-color="#A57D24"/>
		</linearGradient>
		<linearGradient x1="115.227676" y1="170.839905" x2="127.021553" y2="170.839905" id="paint_linear_77_1373_0" gradientUnits="userSpaceOnUse">
			<stop stop-color="#A57D24"/>
			<stop offset="0.210000" stop-color="#D8BE62"/>
			<stop offset="0.330000" stop-color="#F1DD80"/>
			<stop offset="0.520000" stop-color="#FBF2A8"/>
			<stop offset="0.730000" stop-color="#F1DD80"/>
			<stop offset="1.000000" stop-color="#A57D24"/>
		</linearGradient>
		<linearGradient x1="115.190430" y1="180.627869" x2="136.027847" y2="180.627869" id="paint_linear_77_1374_0" gradientUnits="userSpaceOnUse">
			<stop stop-color="#A57D24"/>
			<stop offset="0.210000" stop-color="#D8BE62"/>
			<stop offset="0.330000" stop-color="#F1DD80"/>
			<stop offset="0.520000" stop-color="#FBF2A8"/>
			<stop offset="0.730000" stop-color="#F1DD80"/>
			<stop offset="1.000000" stop-color="#A57D24"/>
		</linearGradient>
		<linearGradient x1="128.881042" y1="165.215866" x2="137.880569" y2="165.215866" id="paint_linear_77_1375_0" gradientUnits="userSpaceOnUse">
			<stop stop-color="#A57D24"/>
			<stop offset="0.210000" stop-color="#D8BE62"/>
			<stop offset="0.330000" stop-color="#F1DD80"/>
			<stop offset="0.520000" stop-color="#FBF2A8"/>
			<stop offset="0.730000" stop-color="#F1DD80"/>
			<stop offset="1.000000" stop-color="#A57D24"/>
		</linearGradient>
		<linearGradient x1="128.975861" y1="173.920151" x2="149.213776" y2="173.920151" id="paint_linear_77_1376_0" gradientUnits="userSpaceOnUse">
			<stop stop-color="#A57D24"/>
			<stop offset="0.210000" stop-color="#D8BE62"/>
			<stop offset="0.330000" stop-color="#F1DD80"/>
			<stop offset="0.520000" stop-color="#FBF2A8"/>
			<stop offset="0.730000" stop-color="#F1DD80"/>
			<stop offset="1.000000" stop-color="#A57D24"/>
		</linearGradient>
		<linearGradient x1="140.170425" y1="157.754700" x2="147.466232" y2="157.754700" id="paint_linear_77_1377_0" gradientUnits="userSpaceOnUse">
			<stop stop-color="#A57D24"/>
			<stop offset="0.210000" stop-color="#D8BE62"/>
			<stop offset="0.330000" stop-color="#F1DD80"/>
			<stop offset="0.520000" stop-color="#FBF2A8"/>
			<stop offset="0.730000" stop-color="#F1DD80"/>
			<stop offset="1.000000" stop-color="#A57D24"/>
		</linearGradient>
		<linearGradient x1="140.989243" y1="165.094193" x2="160.271988" y2="165.094193" id="paint_linear_77_1378_0" gradientUnits="userSpaceOnUse">
			<stop stop-color="#A57D24"/>
			<stop offset="0.210000" stop-color="#D8BE62"/>
			<stop offset="0.330000" stop-color="#F1DD80"/>
			<stop offset="0.520000" stop-color="#FBF2A8"/>
			<stop offset="0.730000" stop-color="#F1DD80"/>
			<stop offset="1.000000" stop-color="#A57D24"/>
		</linearGradient>
		<linearGradient x1="149.115494" y1="148.749939" x2="155.615341" y2="148.749939" id="paint_linear_77_1379_0" gradientUnits="userSpaceOnUse">
			<stop stop-color="#A57D24"/>
			<stop offset="0.210000" stop-color="#D8BE62"/>
			<stop offset="0.330000" stop-color="#F1DD80"/>
			<stop offset="0.520000" stop-color="#FBF2A8"/>
			<stop offset="0.730000" stop-color="#F1DD80"/>
			<stop offset="1.000000" stop-color="#A57D24"/>
		</linearGradient>
		<linearGradient x1="151.154526" y1="154.478271" x2="169.123077" y2="154.478271" id="paint_linear_77_1380_0" gradientUnits="userSpaceOnUse">
			<stop stop-color="#A57D24"/>
			<stop offset="0.210000" stop-color="#D8BE62"/>
			<stop offset="0.330000" stop-color="#F1DD80"/>
			<stop offset="0.520000" stop-color="#FBF2A8"/>
			<stop offset="0.730000" stop-color="#F1DD80"/>
			<stop offset="1.000000" stop-color="#A57D24"/>
		</linearGradient>
		<linearGradient x1="155.828781" y1="138.502319" x2="162.189743" y2="138.502319" id="paint_linear_77_1381_0" gradientUnits="userSpaceOnUse">
			<stop stop-color="#A57D24"/>
			<stop offset="0.210000" stop-color="#D8BE62"/>
			<stop offset="0.330000" stop-color="#F1DD80"/>
			<stop offset="0.520000" stop-color="#FBF2A8"/>
			<stop offset="0.730000" stop-color="#F1DD80"/>
			<stop offset="1.000000" stop-color="#A57D24"/>
		</linearGradient>
		<linearGradient x1="159.395248" y1="142.410233" x2="175.677032" y2="142.410233" id="paint_linear_77_1382_0" gradientUnits="userSpaceOnUse">
			<stop stop-color="#A57D24"/>
			<stop offset="0.210000" stop-color="#D8BE62"/>
			<stop offset="0.330000" stop-color="#F1DD80"/>
			<stop offset="0.520000" stop-color="#FBF2A8"/>
			<stop offset="0.730000" stop-color="#F1DD80"/>
			<stop offset="1.000000" stop-color="#A57D24"/>
		</linearGradient>
		<linearGradient x1="160.211624" y1="127.316208" x2="167.107758" y2="127.316208" id="paint_linear_77_1383_0" gradientUnits="userSpaceOnUse">
			<stop stop-color="#A57D24"/>
			<stop offset="0.210000" stop-color="#D8BE62"/>
			<stop offset="0.330000" stop-color="#F1DD80"/>
			<stop offset="0.520000" stop-color="#FBF2A8"/>
			<stop offset="0.730000" stop-color="#F1DD80"/>
			<stop offset="1.000000" stop-color="#A57D24"/>
		</linearGradient>
		<linearGradient x1="165.631119" y1="129.325363" x2="179.853531" y2="129.325363" id="paint_linear_77_1384_0" gradientUnits="userSpaceOnUse">
			<stop stop-color="#A57D24"/>
			<stop offset="0.210000" stop-color="#D8BE62"/>
			<stop offset="0.330000" stop-color="#F1DD80"/>
			<stop offset="0.520000" stop-color="#FBF2A8"/>
			<stop offset="0.730000" stop-color="#F1DD80"/>
			<stop offset="1.000000" stop-color="#A57D24"/>
		</linearGradient>
		<linearGradient x1="162.071274" y1="115.491165" x2="170.362885" y2="115.491165" id="paint_linear_77_1385_0" gradientUnits="userSpaceOnUse">
			<stop stop-color="#A57D24"/>
			<stop offset="0.210000" stop-color="#D8BE62"/>
			<stop offset="0.330000" stop-color="#F1DD80"/>
			<stop offset="0.520000" stop-color="#FBF2A8"/>
			<stop offset="0.730000" stop-color="#F1DD80"/>
			<stop offset="1.000000" stop-color="#A57D24"/>
		</linearGradient>
		<linearGradient x1="169.789795" y1="115.703590" x2="181.570114" y2="115.703590" id="paint_linear_77_1386_0" gradientUnits="userSpaceOnUse">
			<stop stop-color="#A57D24"/>
			<stop offset="0.210000" stop-color="#D8BE62"/>
			<stop offset="0.330000" stop-color="#F1DD80"/>
			<stop offset="0.520000" stop-color="#FBF2A8"/>
			<stop offset="0.730000" stop-color="#F1DD80"/>
			<stop offset="1.000000" stop-color="#A57D24"/>
		</linearGradient>
		<linearGradient x1="161.573349" y1="103.331650" x2="171.992065" y2="103.331650" id="paint_linear_77_1387_0" gradientUnits="userSpaceOnUse">
			<stop stop-color="#A57D24"/>
			<stop offset="0.210000" stop-color="#D8BE62"/>
			<stop offset="0.330000" stop-color="#F1DD80"/>
			<stop offset="0.520000" stop-color="#FBF2A8"/>
			<stop offset="0.730000" stop-color="#F1DD80"/>
			<stop offset="1.000000" stop-color="#A57D24"/>
		</linearGradient>
		<linearGradient x1="171.792175" y1="101.807999" x2="180.950897" y2="101.807999" id="paint_linear_77_1388_0" gradientUnits="userSpaceOnUse">
			<stop stop-color="#A57D24"/>
			<stop offset="0.210000" stop-color="#D8BE62"/>
			<stop offset="0.330000" stop-color="#F1DD80"/>
			<stop offset="0.520000" stop-color="#FBF2A8"/>
			<stop offset="0.730000" stop-color="#F1DD80"/>
			<stop offset="1.000000" stop-color="#A57D24"/>
		</linearGradient>
		<linearGradient x1="159.063309" y1="91.111328" x2="171.734436" y2="91.111328" id="paint_linear_77_1389_0" gradientUnits="userSpaceOnUse">
			<stop stop-color="#A57D24"/>
			<stop offset="0.210000" stop-color="#D8BE62"/>
			<stop offset="0.330000" stop-color="#F1DD80"/>
			<stop offset="0.520000" stop-color="#FBF2A8"/>
			<stop offset="0.730000" stop-color="#F1DD80"/>
			<stop offset="1.000000" stop-color="#A57D24"/>
		</linearGradient>
		<linearGradient x1="171.365372" y1="87.926575" x2="178.447800" y2="87.926575" id="paint_linear_77_1390_0" gradientUnits="userSpaceOnUse">
			<stop stop-color="#A57D24"/>
			<stop offset="0.210000" stop-color="#D8BE62"/>
			<stop offset="0.330000" stop-color="#F1DD80"/>
			<stop offset="0.520000" stop-color="#FBF2A8"/>
			<stop offset="0.730000" stop-color="#F1DD80"/>
			<stop offset="1.000000" stop-color="#A57D24"/>
		</linearGradient>
		<linearGradient x1="154.470459" y1="79.019501" x2="169.184006" y2="79.019501" id="paint_linear_77_1391_0" gradientUnits="userSpaceOnUse">
			<stop stop-color="#A57D24"/>
			<stop offset="0.210000" stop-color="#D8BE62"/>
			<stop offset="0.330000" stop-color="#F1DD80"/>
			<stop offset="0.520000" stop-color="#FBF2A8"/>
			<stop offset="0.730000" stop-color="#F1DD80"/>
			<stop offset="1.000000" stop-color="#A57D24"/>
		</linearGradient>
		<linearGradient x1="167.551422" y1="74.405525" x2="173.953033" y2="74.405525" id="paint_linear_77_1392_0" gradientUnits="userSpaceOnUse">
			<stop stop-color="#A57D24"/>
			<stop offset="0.210000" stop-color="#D8BE62"/>
			<stop offset="0.330000" stop-color="#F1DD80"/>
			<stop offset="0.520000" stop-color="#FBF2A8"/>
			<stop offset="0.730000" stop-color="#F1DD80"/>
			<stop offset="1.000000" stop-color="#A57D24"/>
		</linearGradient>
		<linearGradient x1="147.726898" y1="67.464424" x2="164.235611" y2="67.464424" id="paint_linear_77_1393_0" gradientUnits="userSpaceOnUse">
			<stop stop-color="#A57D24"/>
			<stop offset="0.210000" stop-color="#D8BE62"/>
			<stop offset="0.330000" stop-color="#F1DD80"/>
			<stop offset="0.520000" stop-color="#FBF2A8"/>
			<stop offset="0.730000" stop-color="#F1DD80"/>
			<stop offset="1.000000" stop-color="#A57D24"/>
		</linearGradient>
		<linearGradient x1="160.349869" y1="61.601280" x2="167.296814" y2="61.601280" id="paint_linear_77_1394_0" gradientUnits="userSpaceOnUse">
			<stop stop-color="#A57D24"/>
			<stop offset="0.210000" stop-color="#D8BE62"/>
			<stop offset="0.330000" stop-color="#F1DD80"/>
			<stop offset="0.520000" stop-color="#FBF2A8"/>
			<stop offset="0.730000" stop-color="#F1DD80"/>
			<stop offset="1.000000" stop-color="#A57D24"/>
		</linearGradient>
		<linearGradient x1="138.757812" y1="56.879211" x2="156.817810" y2="56.879211" id="paint_linear_77_1395_0" gradientUnits="userSpaceOnUse">
			<stop stop-color="#A57D24"/>
			<stop offset="0.210000" stop-color="#D8BE62"/>
			<stop offset="0.330000" stop-color="#F1DD80"/>
			<stop offset="0.520000" stop-color="#FBF2A8"/>
			<stop offset="0.730000" stop-color="#F1DD80"/>
			<stop offset="1.000000" stop-color="#A57D24"/>
		</linearGradient>
		<linearGradient x1="149.704865" y1="49.853714" x2="158.450348" y2="49.853714" id="paint_linear_77_1396_0" gradientUnits="userSpaceOnUse">
			<stop stop-color="#A57D24"/>
			<stop offset="0.210000" stop-color="#D8BE62"/>
			<stop offset="0.330000" stop-color="#F1DD80"/>
			<stop offset="0.520000" stop-color="#FBF2A8"/>
			<stop offset="0.730000" stop-color="#F1DD80"/>
			<stop offset="1.000000" stop-color="#A57D24"/>
		</linearGradient>
		<linearGradient x1="96.080330" y1="114.514534" x2="172.076630" y2="114.514534" id="paint_linear_77_1397_0" gradientUnits="userSpaceOnUse">
			<stop stop-color="#A57D24"/>
			<stop offset="0.210000" stop-color="#D8BE62"/>
			<stop offset="0.330000" stop-color="#F1DD80"/>
			<stop offset="0.520000" stop-color="#FBF2A8"/>
			<stop offset="0.730000" stop-color="#F1DD80"/>
			<stop offset="1.000000" stop-color="#A57D24"/>
		</linearGradient>
		<linearGradient x1="45.483158" y1="46.081249" x2="59.109451" y2="46.081249" id="paint_linear_77_1398_0" gradientUnits="userSpaceOnUse">
			<stop stop-color="#A57D24"/>
			<stop offset="0.210000" stop-color="#D8BE62"/>
			<stop offset="0.330000" stop-color="#F1DD80"/>
			<stop offset="0.520000" stop-color="#FBF2A8"/>
			<stop offset="0.730000" stop-color="#F1DD80"/>
			<stop offset="1.000000" stop-color="#A57D24"/>
		</linearGradient>
		<linearGradient x1="67.984360" y1="170.839905" x2="79.774841" y2="170.839905" id="paint_linear_77_1399_0" gradientUnits="userSpaceOnUse">
			<stop stop-color="#A57D24"/>
			<stop offset="0.210000" stop-color="#D8BE62"/>
			<stop offset="0.330000" stop-color="#F1DD80"/>
			<stop offset="0.520000" stop-color="#FBF2A8"/>
			<stop offset="0.730000" stop-color="#F1DD80"/>
			<stop offset="1.000000" stop-color="#A57D24"/>
		</linearGradient>
		<linearGradient x1="58.974640" y1="180.627869" x2="79.815445" y2="180.627869" id="paint_linear_77_1400_0" gradientUnits="userSpaceOnUse">
			<stop stop-color="#A57D24"/>
			<stop offset="0.210000" stop-color="#D8BE62"/>
			<stop offset="0.330000" stop-color="#F1DD80"/>
			<stop offset="0.520000" stop-color="#FBF2A8"/>
			<stop offset="0.730000" stop-color="#F1DD80"/>
			<stop offset="1.000000" stop-color="#A57D24"/>
		</linearGradient>
		<linearGradient x1="57.125332" y1="165.215866" x2="66.124847" y2="165.215866" id="paint_linear_77_1401_0" gradientUnits="userSpaceOnUse">
			<stop stop-color="#A57D24"/>
			<stop offset="0.210000" stop-color="#D8BE62"/>
			<stop offset="0.330000" stop-color="#F1DD80"/>
			<stop offset="0.520000" stop-color="#FBF2A8"/>
			<stop offset="0.730000" stop-color="#F1DD80"/>
			<stop offset="1.000000" stop-color="#A57D24"/>
		</linearGradient>
		<linearGradient x1="45.788105" y1="173.920120" x2="66.029404" y2="173.920120" id="paint_linear_77_1402_0" gradientUnits="userSpaceOnUse">
			<stop stop-color="#A57D24"/>
			<stop offset="0.210000" stop-color="#D8BE62"/>
			<stop offset="0.330000" stop-color="#F1DD80"/>
			<stop offset="0.520000" stop-color="#FBF2A8"/>
			<stop offset="0.730000" stop-color="#F1DD80"/>
			<stop offset="1.000000" stop-color="#A57D24"/>
		</linearGradient>
		<linearGradient x1="47.536396" y1="157.754684" x2="54.835594" y2="157.754684" id="paint_linear_77_1403_0" gradientUnits="userSpaceOnUse">
			<stop stop-color="#A57D24"/>
			<stop offset="0.210000" stop-color="#D8BE62"/>
			<stop offset="0.330000" stop-color="#F1DD80"/>
			<stop offset="0.520000" stop-color="#FBF2A8"/>
			<stop offset="0.730000" stop-color="#F1DD80"/>
			<stop offset="1.000000" stop-color="#A57D24"/>
		</linearGradient>
		<linearGradient x1="34.729931" y1="165.094452" x2="54.016060" y2="165.094452" id="paint_linear_77_1404_0" gradientUnits="userSpaceOnUse">
			<stop stop-color="#A57D24"/>
			<stop offset="0.210000" stop-color="#D8BE62"/>
			<stop offset="0.330000" stop-color="#F1DD80"/>
			<stop offset="0.520000" stop-color="#FBF2A8"/>
			<stop offset="0.730000" stop-color="#F1DD80"/>
			<stop offset="1.000000" stop-color="#A57D24"/>
		</linearGradient>
		<linearGradient x1="39.390560" y1="148.749939" x2="45.887012" y2="148.749939" id="paint_linear_77_1405_0" gradientUnits="userSpaceOnUse">
			<stop stop-color="#A57D24"/>
			<stop offset="0.210000" stop-color="#D8BE62"/>
			<stop offset="0.330000" stop-color="#F1DD80"/>
			<stop offset="0.520000" stop-color="#FBF2A8"/>
			<stop offset="0.730000" stop-color="#F1DD80"/>
			<stop offset="1.000000" stop-color="#A57D24"/>
		</linearGradient>
		<linearGradient x1="25.882933" y1="154.478760" x2="43.851486" y2="154.478760" id="paint_linear_77_1406_0" gradientUnits="userSpaceOnUse">
			<stop stop-color="#A57D24"/>
			<stop offset="0.210000" stop-color="#D8BE62"/>
			<stop offset="0.330000" stop-color="#F1DD80"/>
			<stop offset="0.520000" stop-color="#FBF2A8"/>
			<stop offset="0.730000" stop-color="#F1DD80"/>
			<stop offset="1.000000" stop-color="#A57D24"/>
		</linearGradient>
		<linearGradient x1="32.816181" y1="138.502335" x2="39.177151" y2="138.502335" id="paint_linear_77_1407_0" gradientUnits="userSpaceOnUse">
			<stop stop-color="#A57D24"/>
			<stop offset="0.210000" stop-color="#D8BE62"/>
			<stop offset="0.330000" stop-color="#F1DD80"/>
			<stop offset="0.520000" stop-color="#FBF2A8"/>
			<stop offset="0.730000" stop-color="#F1DD80"/>
			<stop offset="1.000000" stop-color="#A57D24"/>
		</linearGradient>
		<linearGradient x1="19.328857" y1="142.410233" x2="35.610634" y2="142.410233" id="paint_linear_77_1408_0" gradientUnits="userSpaceOnUse">
			<stop stop-color="#A57D24"/>
			<stop offset="0.210000" stop-color="#D8BE62"/>
			<stop offset="0.330000" stop-color="#F1DD80"/>
			<stop offset="0.520000" stop-color="#FBF2A8"/>
			<stop offset="0.730000" stop-color="#F1DD80"/>
			<stop offset="1.000000" stop-color="#A57D24"/>
		</linearGradient>
		<linearGradient x1="27.897573" y1="127.316208" x2="34.793701" y2="127.316208" id="paint_linear_77_1409_0" gradientUnits="userSpaceOnUse">
			<stop stop-color="#A57D24"/>
			<stop offset="0.210000" stop-color="#D8BE62"/>
			<stop offset="0.330000" stop-color="#F1DD80"/>
			<stop offset="0.520000" stop-color="#FBF2A8"/>
			<stop offset="0.730000" stop-color="#F1DD80"/>
			<stop offset="1.000000" stop-color="#A57D24"/>
		</linearGradient>
		<linearGradient x1="15.152437" y1="129.325409" x2="29.371469" y2="129.325409" id="paint_linear_77_1410_0" gradientUnits="userSpaceOnUse">
			<stop stop-color="#A57D24"/>
			<stop offset="0.210000" stop-color="#D8BE62"/>
			<stop offset="0.330000" stop-color="#F1DD80"/>
			<stop offset="0.520000" stop-color="#FBF2A8"/>
			<stop offset="0.730000" stop-color="#F1DD80"/>
			<stop offset="1.000000" stop-color="#A57D24"/>
		</linearGradient>
		<linearGradient x1="24.639616" y1="115.491165" x2="32.934616" y2="115.491165" id="paint_linear_77_1411_0" gradientUnits="userSpaceOnUse">
			<stop stop-color="#A57D24"/>
			<stop offset="0.210000" stop-color="#D8BE62"/>
			<stop offset="0.330000" stop-color="#F1DD80"/>
			<stop offset="0.520000" stop-color="#FBF2A8"/>
			<stop offset="0.730000" stop-color="#F1DD80"/>
			<stop offset="1.000000" stop-color="#A57D24"/>
		</linearGradient>
		<linearGradient x1="13.435191" y1="115.703926" x2="25.215515" y2="115.703926" id="paint_linear_77_1412_0" gradientUnits="userSpaceOnUse">
			<stop stop-color="#A57D24"/>
			<stop offset="0.210000" stop-color="#D8BE62"/>
			<stop offset="0.330000" stop-color="#F1DD80"/>
			<stop offset="0.520000" stop-color="#FBF2A8"/>
			<stop offset="0.730000" stop-color="#F1DD80"/>
			<stop offset="1.000000" stop-color="#A57D24"/>
		</linearGradient>
		<linearGradient x1="23.010429" y1="103.331657" x2="33.432526" y2="103.331657" id="paint_linear_77_1413_0" gradientUnits="userSpaceOnUse">
			<stop stop-color="#A57D24"/>
			<stop offset="0.210000" stop-color="#D8BE62"/>
			<stop offset="0.330000" stop-color="#F1DD80"/>
			<stop offset="0.520000" stop-color="#FBF2A8"/>
			<stop offset="0.730000" stop-color="#F1DD80"/>
			<stop offset="1.000000" stop-color="#A57D24"/>
		</linearGradient>
		<linearGradient x1="14.054256" y1="101.808479" x2="23.212967" y2="101.808479" id="paint_linear_77_1414_0" gradientUnits="userSpaceOnUse">
			<stop stop-color="#A57D24"/>
			<stop offset="0.210000" stop-color="#D8BE62"/>
			<stop offset="0.330000" stop-color="#F1DD80"/>
			<stop offset="0.520000" stop-color="#FBF2A8"/>
			<stop offset="0.730000" stop-color="#F1DD80"/>
			<stop offset="1.000000" stop-color="#A57D24"/>
		</linearGradient>
		<linearGradient x1="23.271187" y1="91.111137" x2="35.942318" y2="91.111137" id="paint_linear_77_1415_0" gradientUnits="userSpaceOnUse">
			<stop stop-color="#A57D24"/>
			<stop offset="0.210000" stop-color="#D8BE62"/>
			<stop offset="0.330000" stop-color="#F1DD80"/>
			<stop offset="0.520000" stop-color="#FBF2A8"/>
			<stop offset="0.730000" stop-color="#F1DD80"/>
			<stop offset="1.000000" stop-color="#A57D24"/>
		</linearGradient>
		<linearGradient x1="16.558104" y1="87.926575" x2="23.640524" y2="87.926575" id="paint_linear_77_1416_0" gradientUnits="userSpaceOnUse">
			<stop stop-color="#A57D24"/>
			<stop offset="0.210000" stop-color="#D8BE62"/>
			<stop offset="0.330000" stop-color="#F1DD80"/>
			<stop offset="0.520000" stop-color="#FBF2A8"/>
			<stop offset="0.730000" stop-color="#F1DD80"/>
			<stop offset="1.000000" stop-color="#A57D24"/>
		</linearGradient>
		<linearGradient x1="25.821840" y1="79.019669" x2="40.535393" y2="79.019669" id="paint_linear_77_1417_0" gradientUnits="userSpaceOnUse">
			<stop stop-color="#A57D24"/>
			<stop offset="0.210000" stop-color="#D8BE62"/>
			<stop offset="0.330000" stop-color="#F1DD80"/>
			<stop offset="0.520000" stop-color="#FBF2A8"/>
			<stop offset="0.730000" stop-color="#F1DD80"/>
			<stop offset="1.000000" stop-color="#A57D24"/>
		</linearGradient>
		<linearGradient x1="21.052691" y1="74.405441" x2="27.450916" y2="74.405441" id="paint_linear_77_1418_0" gradientUnits="userSpaceOnUse">
			<stop stop-color="#A57D24"/>
			<stop offset="0.210000" stop-color="#D8BE62"/>
			<stop offset="0.330000" stop-color="#F1DD80"/>
			<stop offset="0.520000" stop-color="#FBF2A8"/>
			<stop offset="0.730000" stop-color="#F1DD80"/>
			<stop offset="1.000000" stop-color="#A57D24"/>
		</linearGradient>
		<linearGradient x1="30.767015" y1="67.464424" x2="47.279118" y2="67.464424" id="paint_linear_77_1419_0" gradientUnits="userSpaceOnUse">
			<stop stop-color="#A57D24"/>
			<stop offset="0.210000" stop-color="#D8BE62"/>
			<stop offset="0.330000" stop-color="#F1DD80"/>
			<stop offset="0.520000" stop-color="#FBF2A8"/>
			<stop offset="0.730000" stop-color="#F1DD80"/>
			<stop offset="1.000000" stop-color="#A57D24"/>
		</linearGradient>
		<linearGradient x1="27.708410" y1="61.601280" x2="34.655350" y2="61.601280" id="paint_linear_77_1420_0" gradientUnits="userSpaceOnUse">
			<stop stop-color="#A57D24"/>
			<stop offset="0.210000" stop-color="#D8BE62"/>
			<stop offset="0.330000" stop-color="#F1DD80"/>
			<stop offset="0.520000" stop-color="#FBF2A8"/>
			<stop offset="0.730000" stop-color="#F1DD80"/>
			<stop offset="1.000000" stop-color="#A57D24"/>
		</linearGradient>
		<linearGradient x1="38.188232" y1="56.878967" x2="56.248238" y2="56.878967" id="paint_linear_77_1421_0" gradientUnits="userSpaceOnUse">
			<stop stop-color="#A57D24"/>
			<stop offset="0.210000" stop-color="#D8BE62"/>
			<stop offset="0.330000" stop-color="#F1DD80"/>
			<stop offset="0.520000" stop-color="#FBF2A8"/>
			<stop offset="0.730000" stop-color="#F1DD80"/>
			<stop offset="1.000000" stop-color="#A57D24"/>
		</linearGradient>
		<linearGradient x1="36.555695" y1="49.853714" x2="45.301178" y2="49.853714" id="paint_linear_77_1422_0" gradientUnits="userSpaceOnUse">
			<stop stop-color="#A57D24"/>
			<stop offset="0.210000" stop-color="#D8BE62"/>
			<stop offset="0.330000" stop-color="#F1DD80"/>
			<stop offset="0.520000" stop-color="#FBF2A8"/>
			<stop offset="0.730000" stop-color="#F1DD80"/>
			<stop offset="1.000000" stop-color="#A57D24"/>
		</linearGradient>
		<linearGradient x1="22.929281" y1="114.514526" x2="98.925591" y2="114.514526" id="paint_linear_77_1423_0" gradientUnits="userSpaceOnUse">
			<stop stop-color="#A57D24"/>
			<stop offset="0.210000" stop-color="#D8BE62"/>
			<stop offset="0.330000" stop-color="#F1DD80"/>
			<stop offset="0.520000" stop-color="#FBF2A8"/>
			<stop offset="0.730000" stop-color="#F1DD80"/>
			<stop offset="1.000000" stop-color="#A57D24"/>
		</linearGradient>
		<linearGradient x1="89.214607" y1="180.618134" x2="105.164452" y2="180.618134" id="paint_linear_77_1424_0" gradientUnits="userSpaceOnUse">
			<stop stop-color="#A57D24"/>
			<stop offset="0.210000" stop-color="#D8BE62"/>
			<stop offset="0.330000" stop-color="#F1DD80"/>
			<stop offset="0.520000" stop-color="#FBF2A8"/>
			<stop offset="0.730000" stop-color="#F1DD80"/>
			<stop offset="1.000000" stop-color="#A57D24"/>
		</linearGradient>
		<linearGradient x1="67.845009" y1="29.196358" x2="127.163239" y2="29.196358" id="paint_linear_77_1425_0" gradientUnits="userSpaceOnUse">
			<stop stop-color="#BA973B"/>
			<stop offset="0.120000" stop-color="#A57D24"/>
			<stop offset="0.260000" stop-color="#F1DD80"/>
			<stop offset="0.370000" stop-color="#F1DD80"/>
			<stop offset="0.470000" stop-color="#DABF64"/>
			<stop offset="0.600000" stop-color="#C3A348"/>
			<stop offset="0.730000" stop-color="#B28E34"/>
			<stop offset="0.850000" stop-color="#A88128"/>
			<stop offset="0.970000" stop-color="#A57D24"/>
		</linearGradient>
		<linearGradient x1="72.015205" y1="29.193090" x2="121.907135" y2="29.193090" id="paint_linear_77_1426_0" gradientUnits="userSpaceOnUse">
			<stop offset="0.030000" stop-color="#A57D24"/>
			<stop offset="0.130000" stop-color="#A88128"/>
			<stop offset="0.230000" stop-color="#B28E34"/>
			<stop offset="0.340000" stop-color="#C3A348"/>
			<stop offset="0.440000" stop-color="#DABF64"/>
			<stop offset="0.530000" stop-color="#F1DD80"/>
			<stop offset="0.740000" stop-color="#F1DD80"/>
			<stop offset="0.880000" stop-color="#A57D24"/>
			<stop offset="1.000000" stop-color="#BA973B"/>
		</linearGradient>
	</defs>
	<g opacity="0.330000">
		<rect id="Rectangle 92" rx="94.000000" width="195.000000" height="195.000000" fill="#EDEDED" fill-opacity="1.000000"/>
	</g>
	<path id="path" d="M145.08 43.48C148.84 46.9 149.51 52.26 149.51 52.26C149.51 52.26 144.09 52.09 140.33 48.66C136.56 45.24 135.89 39.88 135.89 39.88C135.89 39.88 141.31 40.06 145.08 43.48Z" fill="url(#paint_linear_77_1372_0)" fill-opacity="1.000000" fill-rule="nonzero"/>
	<path id="path" d="M118.62 169.57C115.38 173.72 115.19 178.61 115.23 178.63C115.23 178.69 122.03 176.79 125.09 172.21C128.13 167.7 126.65 163.02 126.7 163.03C126.67 163.09 121.86 165.47 118.62 169.57Z" fill="url(#paint_linear_77_1373_0)" fill-opacity="1.000000" fill-rule="nonzero"/>
	<path id="path" d="M123.39 183.92C117.41 182.91 115.18 178.4 115.19 178.44C115.25 178.46 121.66 176.62 127.18 177.27C132.75 177.94 136.02 181.4 136.02 181.43C136.1 181.46 129.43 184.96 123.39 183.92Z" fill="url(#paint_linear_77_1374_0)" fill-opacity="1.000000" fill-rule="nonzero"/>
	<path id="path" d="M130.43 164.4C129.04 167.36 128.58 170.46 129.05 173.7C129.05 173.76 135.03 170.8 137.04 165.86C139.08 160.99 136.77 156.71 136.81 156.72C136.85 156.72 132.66 159.89 130.43 164.4Z" fill="url(#paint_linear_77_1375_0)" fill-opacity="1.000000" fill-rule="nonzero"/>
	<path id="path" d="M137.74 177.46C136.06 177.48 134.45 177.15 132.92 176.46C131.39 175.78 130.07 174.8 128.97 173.53C129.04 173.53 134.65 170.7 140.01 170.4C145.43 170.11 149.21 172.9 149.21 172.93C149.28 172.94 143.6 177.45 137.74 177.46Z" fill="url(#paint_linear_77_1376_0)" fill-opacity="1.000000" fill-rule="nonzero"/>
	<path id="path" d="M140.63 157.39C139.87 160.52 140.02 163.6 141.09 166.63C141.09 166.69 146.22 162.82 147.25 157.69C148.28 152.63 145.29 148.87 145.32 148.87C145.36 148.87 141.9 152.66 140.63 157.39Z" fill="url(#paint_linear_77_1377_0)" fill-opacity="1.000000" fill-rule="nonzero"/>
	<path id="path" d="M150.08 168.79C148.47 169.09 146.87 169.04 145.28 168.64C143.69 168.23 142.26 167.51 140.98 166.48C141.05 166.48 145.84 162.78 150.94 161.57C156.03 160.36 160.26 162.42 160.27 162.46C160.34 162.45 155.69 167.8 150.08 168.79Z" fill="url(#paint_linear_77_1378_0)" fill-opacity="1.000000" fill-rule="nonzero"/>
	<path id="path" d="M149.15 148.86C148.98 152.03 149.7 154.99 151.28 157.74C151.28 157.8 155.53 153.16 155.61 148C155.72 142.89 152.15 139.76 152.19 139.75C152.18 139.8 149.51 144.04 149.15 148.86Z" fill="url(#paint_linear_77_1379_0)" fill-opacity="1.000000" fill-rule="nonzero"/>
	<path id="path" d="M160.36 158.29C158.85 158.86 157.29 159.08 155.68 158.96C154.07 158.85 152.56 158.4 151.15 157.61C151.2 157.61 155.15 153.2 159.89 151.13C162.88 149.86 165.96 149.6 169.12 150.37C169.18 150.35 165.6 156.36 160.36 158.29Z" fill="url(#paint_linear_77_1380_0)" fill-opacity="1.000000" fill-rule="nonzero"/>
	<path id="path" d="M155.9 139.08C156.29 142.19 157.51 144.95 159.54 147.35C159.56 147.41 162.86 142.16 162.06 137.11C161.26 132.06 157.27 129.68 157.3 129.66C157.31 129.7 155.42 134.32 155.9 139.08Z" fill="url(#paint_linear_77_1381_0)" fill-opacity="1.000000" fill-rule="nonzero"/>
	<path id="path" d="M168.48 146.3C167.11 147.11 165.63 147.6 164.04 147.77C162.45 147.93 160.9 147.76 159.39 147.24C159.44 147.23 162.5 142.25 166.78 139.41C169.48 137.64 172.44 136.85 175.67 137.04C175.73 137 173.24 143.5 168.48 146.3Z" fill="url(#paint_linear_77_1382_0)" fill-opacity="1.000000" fill-rule="nonzero"/>
	<path id="path" d="M160.83 128.34C161.74 131.3 163.39 133.78 165.79 135.77C165.82 135.82 168.16 130.11 166.53 125.3C164.89 120.48 160.59 118.85 160.62 118.84C160.64 118.9 159.55 123.77 160.83 128.34Z" fill="url(#paint_linear_77_1383_0)" fill-opacity="1.000000" fill-rule="nonzero"/>
	<path id="path" d="M174.36 133.16C173.16 134.2 171.8 134.94 170.27 135.39C168.75 135.83 167.2 135.93 165.63 135.69C165.67 135.67 167.81 130.27 171.53 126.72C175.25 123.17 179.83 122.79 179.85 122.82C179.9 122.79 178.55 129.6 174.36 133.16Z" fill="url(#paint_linear_77_1384_0)" fill-opacity="1.000000" fill-rule="nonzero"/>
	<path id="path" d="M163.86 116.93C165.24 119.68 167.27 121.82 169.95 123.35C169.98 123.4 171.31 117.38 168.94 112.94C166.56 108.5 162.04 107.66 162.07 107.64C162.09 107.67 161.84 112.67 163.86 116.93Z" fill="url(#paint_linear_77_1385_0)" fill-opacity="1.000000" fill-rule="nonzero"/>
	<path id="path" d="M177.91 119.26C176.92 120.5 175.71 121.47 174.29 122.17C172.87 122.88 171.37 123.26 169.79 123.32C169.82 123.28 171.03 117.61 174.07 113.45C177.11 109.29 181.52 108.09 181.56 108.11C181.61 108.06 181.43 115.01 177.91 119.26Z" fill="url(#paint_linear_77_1386_0)" fill-opacity="1.000000" fill-rule="nonzero"/>
	<path id="path" d="M164.91 105.15C166.72 107.62 169.07 109.36 171.96 110.38C172 110.43 172.3 104.26 169.2 100.29C166.1 96.32 161.55 96.29 161.57 96.27C161.6 96.3 162.22 101.31 164.91 105.15Z" fill="url(#paint_linear_77_1387_0)" fill-opacity="1.000000" fill-rule="nonzero"/>
	<path id="path" d="M179.06 104.93C178.3 106.32 177.28 107.49 176.01 108.44C174.74 109.39 173.33 110.04 171.78 110.37C171.81 110.34 172.04 104.53 174.31 99.86C176.58 95.2 180.69 93.21 180.72 93.23C180.75 93.19 181.79 100.11 179.06 104.93Z" fill="url(#paint_linear_77_1388_0)" fill-opacity="1.000000" fill-rule="nonzero"/>
	<path id="path" d="M163.92 93.31C166.11 95.43 168.71 96.74 171.73 97.24C171.78 97.28 171.01 91.11 167.26 87.71C163.51 84.31 159.04 85.09 159.06 85.06C159.1 85.07 160.62 89.96 163.92 93.31Z" fill="url(#paint_linear_77_1389_0)" fill-opacity="1.000000" fill-rule="nonzero"/>
	<path id="path" d="M177.73 90.54C177.24 92.05 176.45 93.39 175.38 94.56C174.3 95.73 173.02 96.63 171.56 97.24C171.58 97.2 170.8 91.4 172.19 86.35C173.57 81.3 177.22 78.59 177.27 78.6C177.29 78.55 179.56 85.27 177.73 90.54Z" fill="url(#paint_linear_77_1390_0)" fill-opacity="1.000000" fill-rule="nonzero"/>
	<path id="path" d="M160.81 81.65C163.33 83.38 166.12 84.22 169.18 84.18C169.23 84.21 167.36 78.2 163.03 75.45C161.75 74.66 160.37 74.15 158.88 73.94C157.39 73.73 155.91 73.83 154.47 74.24C154.52 74.26 156.97 78.91 160.81 81.65Z" fill="url(#paint_linear_77_1391_0)" fill-opacity="1.000000" fill-rule="nonzero"/>
	<path id="path" d="M173.83 76.45C173.63 78.03 173.11 79.5 172.27 80.86C171.43 82.21 170.34 83.33 169.01 84.22C169.03 84.17 167.22 78.53 167.6 73.22C167.98 67.91 171.03 64.54 171.07 64.55C171.1 64.51 174.66 70.86 173.83 76.45Z" fill="url(#paint_linear_77_1392_0)" fill-opacity="1.000000" fill-rule="nonzero"/>
	<path id="path" d="M155.51 70.52C158.3 71.82 161.21 72.18 164.23 71.59C164.3 71.62 161.28 65.91 156.44 63.89C155.04 63.3 153.58 63.03 152.06 63.07C150.54 63.12 149.1 63.47 147.73 64.14C147.78 64.16 151.19 68.44 155.51 70.52Z" fill="url(#paint_linear_77_1393_0)" fill-opacity="1.000000" fill-rule="nonzero"/>
	<path id="path" d="M167.27 63.01C167.61 68.72 164.03 71.67 164.08 71.68C164.13 71.68 161.21 66.29 160.48 60.87C159.75 55.45 162.03 51.51 162.08 51.52C162.1 51.45 166.95 57.25 167.27 63.01Z" fill="url(#paint_linear_77_1394_0)" fill-opacity="1.000000" fill-rule="nonzero"/>
	<path id="path" d="M147.96 60.21C150.95 61.05 153.91 60.92 156.81 59.8C156.89 59.8 152.69 54.57 147.4 53.33C145.9 52.96 144.4 52.92 142.88 53.22C141.37 53.52 139.99 54.12 138.75 55.04C138.82 55.05 143.22 58.83 147.96 60.21Z" fill="url(#paint_linear_77_1395_0)" fill-opacity="1.000000" fill-rule="nonzero"/>
	<path id="path" d="M157.97 50.59C159.56 56.3 156.62 59.9 156.68 59.9C156.74 59.9 152.71 54.95 150.75 49.57C148.79 44.19 150.14 39.81 150.19 39.8C150.21 39.74 156.41 44.81 157.97 50.59Z" fill="url(#paint_linear_77_1396_0)" fill-opacity="1.000000" fill-rule="nonzero"/>
	<path id="path" d="M96.08 180.11L96.17 179.07C104.97 179.86 113.57 178.9 121.97 176.19C130.27 173.53 137.78 169.43 144.51 163.9C158.56 152.39 167.62 135.96 170.03 117.63C171.99 102.63 170.98 89.26 167.03 77.9C162.77 65.7 155.21 56.15 144.53 49.52L145.09 48.63C155.98 55.39 163.69 65.12 168.02 77.56C172.03 89.08 173.06 102.61 171.07 117.77C168.63 136.35 159.44 153.02 145.18 164.72C138.35 170.35 130.71 174.51 122.28 177.22C113.74 179.96 105.01 180.93 96.08 180.11Z" fill="url(#paint_linear_77_1397_0)" fill-opacity="1.000000" fill-rule="nonzero"/>
	<path id="path" d="M49.92 43.48C46.16 46.9 45.48 52.26 45.48 52.26C45.48 52.26 50.9 52.09 54.66 48.66C58.43 45.24 59.1 39.88 59.1 39.88C59.1 39.88 53.68 40.06 49.92 43.48Z" fill="url(#paint_linear_77_1398_0)" fill-opacity="1.000000" fill-rule="nonzero"/>
	<path id="path" d="M76.38 169.57C79.61 173.72 79.81 178.61 79.76 178.63C79.76 178.69 72.97 176.79 69.91 172.21C66.86 167.7 68.34 163.02 68.3 163.03C68.32 163.09 73.14 165.47 76.38 169.57Z" fill="url(#paint_linear_77_1399_0)" fill-opacity="1.000000" fill-rule="nonzero"/>
	<path id="path" d="M71.61 183.92C77.58 182.91 79.81 178.4 79.81 178.44C79.74 178.46 73.34 176.62 67.82 177.27C62.25 177.94 58.97 181.4 58.97 181.43C58.89 181.46 65.56 184.96 71.61 183.92Z" fill="url(#paint_linear_77_1400_0)" fill-opacity="1.000000" fill-rule="nonzero"/>
	<path id="path" d="M64.58 164.4C65.96 167.36 66.42 170.46 65.95 173.7C65.95 173.76 59.97 170.8 57.95 165.86C55.92 160.99 58.23 156.71 58.19 156.72C58.2 156.77 62.33 159.89 64.58 164.4Z" fill="url(#paint_linear_77_1401_0)" fill-opacity="1.000000" fill-rule="nonzero"/>
	<path id="path" d="M57.26 177.46C58.94 177.48 60.55 177.15 62.08 176.46C63.61 175.77 64.92 174.8 66.02 173.53C65.96 173.53 60.34 170.7 54.99 170.4C49.57 170.11 45.79 172.9 45.79 172.93C45.71 172.94 51.39 177.45 57.26 177.46Z" fill="url(#paint_linear_77_1402_0)" fill-opacity="1.000000" fill-rule="nonzero"/>
	<path id="path" d="M54.36 157.39C55.12 160.52 54.97 163.6 53.91 166.63C53.91 166.69 48.78 162.82 47.75 157.69C46.72 152.63 49.71 148.87 49.67 148.87C49.63 148.87 53.09 152.66 54.36 157.39Z" fill="url(#paint_linear_77_1403_0)" fill-opacity="1.000000" fill-rule="nonzero"/>
	<path id="path" d="M44.93 168.8C46.54 169.09 48.14 169.04 49.73 168.64C51.32 168.23 52.76 167.51 54.03 166.48C53.97 166.48 49.17 162.78 44.08 161.57C38.93 160.37 34.75 162.42 34.75 162.46C34.66 162.45 39.31 167.8 44.93 168.8Z" fill="url(#paint_linear_77_1404_0)" fill-opacity="1.000000" fill-rule="nonzero"/>
	<path id="path" d="M45.85 148.86C46.01 152.03 45.3 154.99 43.71 157.74C43.71 157.8 39.47 153.16 39.39 148C39.28 142.89 42.85 139.76 42.82 139.75C42.81 139.8 45.48 144.04 45.85 148.86Z" fill="url(#paint_linear_77_1405_0)" fill-opacity="1.000000" fill-rule="nonzero"/>
	<path id="path" d="M34.64 158.29C36.15 158.86 37.71 159.08 39.32 158.96C40.93 158.85 42.44 158.4 43.85 157.62C43.79 157.62 39.85 153.2 35.11 151.13C32.12 149.86 29.04 149.6 25.88 150.37C25.81 150.35 29.4 156.36 34.64 158.29Z" fill="url(#paint_linear_77_1406_0)" fill-opacity="1.000000" fill-rule="nonzero"/>
	<path id="path" d="M39.09 139.08C38.7 142.19 37.48 144.95 35.45 147.35C35.45 147.41 32.13 142.16 32.92 137.11C33.72 132.06 37.72 129.68 37.69 129.66C37.68 129.7 39.58 134.32 39.09 139.08Z" fill="url(#paint_linear_77_1407_0)" fill-opacity="1.000000" fill-rule="nonzero"/>
	<path id="path" d="M26.52 146.3C27.89 147.11 29.37 147.6 30.96 147.77C32.55 147.93 34.09 147.76 35.61 147.24C35.55 147.23 32.5 142.25 28.22 139.41C25.52 137.64 22.55 136.85 19.32 137.04C19.27 137 21.75 143.5 26.52 146.3Z" fill="url(#paint_linear_77_1408_0)" fill-opacity="1.000000" fill-rule="nonzero"/>
	<path id="path" d="M34.17 128.34C33.25 131.3 31.6 133.78 29.21 135.77C29.18 135.82 26.84 130.11 28.47 125.3C30.1 120.48 34.41 118.85 34.38 118.84C34.36 118.9 35.45 123.77 34.17 128.34Z" fill="url(#paint_linear_77_1409_0)" fill-opacity="1.000000" fill-rule="nonzero"/>
	<path id="path" d="M20.64 133.16C21.84 134.2 23.2 134.94 24.72 135.39C26.25 135.83 27.8 135.93 29.37 135.69C29.32 135.67 27.18 130.27 23.46 126.72C19.75 123.17 15.17 122.79 15.15 122.82C15.09 122.79 16.44 129.6 20.64 133.16Z" fill="url(#paint_linear_77_1410_0)" fill-opacity="1.000000" fill-rule="nonzero"/>
	<path id="path" d="M31.14 116.93C29.76 119.68 27.73 121.82 25.04 123.35C25.01 123.4 23.67 117.38 26.06 112.94C28.45 108.5 32.95 107.66 32.93 107.64C32.9 107.67 33.15 112.67 31.14 116.93Z" fill="url(#paint_linear_77_1411_0)" fill-opacity="1.000000" fill-rule="nonzero"/>
	<path id="path" d="M17.08 119.26C18.08 120.5 19.28 121.47 20.7 122.18C22.12 122.88 23.62 123.26 25.21 123.32C25.17 123.28 23.97 117.61 20.92 113.45C17.87 109.29 13.46 108.07 13.43 108.1C13.39 108.06 13.57 115.01 17.08 119.26Z" fill="url(#paint_linear_77_1412_0)" fill-opacity="1.000000" fill-rule="nonzero"/>
	<path id="path" d="M30.08 105.15C28.27 107.62 25.92 109.36 23.03 110.38C22.99 110.43 22.69 104.26 25.79 100.29C28.89 96.32 33.45 96.29 33.41 96.27C33.39 96.3 32.77 101.31 30.08 105.15Z" fill="url(#paint_linear_77_1413_0)" fill-opacity="1.000000" fill-rule="nonzero"/>
	<path id="path" d="M15.93 104.93C16.69 106.33 17.7 107.5 18.97 108.44C20.25 109.39 21.66 110.04 23.21 110.37C23.17 110.34 22.95 104.53 20.68 99.86C18.41 95.2 14.3 93.21 14.27 93.23C14.23 93.19 13.21 100.11 15.93 104.93Z" fill="url(#paint_linear_77_1414_0)" fill-opacity="1.000000" fill-rule="nonzero"/>
	<path id="path" d="M31.08 93.31C28.88 95.43 26.27 96.74 23.25 97.22C23.21 97.26 23.97 91.09 27.72 87.69C31.48 84.3 35.94 85.07 35.92 85.04C35.89 85.07 34.37 89.96 31.08 93.31Z" fill="url(#paint_linear_77_1415_0)" fill-opacity="1.000000" fill-rule="nonzero"/>
	<path id="path" d="M17.26 90.54C17.76 92.05 18.54 93.39 19.62 94.56C20.7 95.73 21.97 96.63 23.44 97.24C23.42 97.2 24.19 91.4 22.81 86.35C21.42 81.3 17.78 78.59 17.73 78.6C17.7 78.55 15.44 85.27 17.26 90.54Z" fill="url(#paint_linear_77_1416_0)" fill-opacity="1.000000" fill-rule="nonzero"/>
	<path id="path" d="M34.19 81.65C31.67 83.38 28.88 84.23 25.82 84.19C25.76 84.22 27.64 78.21 31.97 75.46C33.24 74.66 34.63 74.16 36.12 73.94C37.61 73.73 39.08 73.83 40.53 74.24C40.48 74.26 38.03 78.91 34.19 81.65Z" fill="url(#paint_linear_77_1417_0)" fill-opacity="1.000000" fill-rule="nonzero"/>
	<path id="path" d="M21.17 76.45C21.36 78.03 21.88 79.5 22.72 80.86C23.56 82.21 24.65 83.33 25.98 84.22C25.96 84.17 27.78 78.53 27.4 73.22C27.01 67.91 23.97 64.56 23.93 64.57C23.9 64.51 20.36 70.86 21.17 76.45Z" fill="url(#paint_linear_77_1418_0)" fill-opacity="1.000000" fill-rule="nonzero"/>
	<path id="path" d="M39.48 70.52C36.69 71.82 33.79 72.18 30.77 71.59C30.7 71.62 33.71 65.91 38.56 63.89C39.96 63.3 41.42 63.03 42.94 63.07C44.46 63.12 45.9 63.47 47.26 64.14C47.21 64.16 43.8 68.44 39.48 70.52Z" fill="url(#paint_linear_77_1419_0)" fill-opacity="1.000000" fill-rule="nonzero"/>
	<path id="path" d="M27.73 63.01C27.39 68.72 30.96 71.67 30.91 71.68C30.87 71.68 33.78 66.29 34.51 60.87C35.24 55.45 32.96 51.51 32.92 51.52C32.9 51.45 28.04 57.25 27.73 63.01Z" fill="url(#paint_linear_77_1420_0)" fill-opacity="1.000000" fill-rule="nonzero"/>
	<path id="path" d="M47.04 60.21C44.04 61.05 41.09 60.92 38.18 59.8C38.11 59.8 42.3 54.57 47.6 53.33C49.1 52.96 50.6 52.92 52.11 53.22C53.63 53.52 55 54.13 56.24 55.05C56.18 55.05 51.77 58.83 47.04 60.21Z" fill="url(#paint_linear_77_1421_0)" fill-opacity="1.000000" fill-rule="nonzero"/>
	<path id="path" d="M37.02 50.59C35.43 56.3 38.38 59.9 38.32 59.9C38.25 59.9 42.29 54.95 44.25 49.57C46.22 44.19 44.86 39.81 44.81 39.8C44.78 39.74 38.58 44.81 37.02 50.59Z" fill="url(#paint_linear_77_1422_0)" fill-opacity="1.000000" fill-rule="nonzero"/>
	<path id="path" d="M98.92 180.11L98.83 179.07C90.04 179.86 81.44 178.91 73.04 176.21C64.73 173.54 57.2 169.44 50.47 163.9C36.42 152.38 27.36 135.95 24.95 117.63C22.98 102.63 23.99 89.26 27.95 77.9C32.19 65.7 39.77 56.15 50.44 49.52L49.88 48.63C39 55.39 31.28 65.12 26.95 77.56C22.94 89.08 21.91 102.61 23.9 117.77C26.34 136.35 35.53 153.02 49.79 164.72C56.62 170.35 64.26 174.51 72.69 177.22C81.24 179.97 89.98 180.93 98.92 180.11Z" fill="url(#paint_linear_77_1423_0)" fill-opacity="1.000000" fill-rule="nonzero"/>
	<path id="polygon" d="M97.19 174.77L89.21 180.62L97.19 186.46L105.16 180.62L97.19 174.77Z" fill="url(#paint_linear_77_1424_0)" fill-opacity="1.000000" fill-rule="nonzero"/>
	<path id="polygon" d="M108 31.74L96.5 8.81L85.42 30.91L72.29 8.81L76.2 49.57L117.71 49.57L121.62 8.81L108 31.74Z" fill="url(#paint_linear_77_1425_0)" fill-opacity="1.000000" fill-rule="nonzero"/>
	<path id="path" d="M117.71 49.85L76.2 49.85C76.03 49.85 75.94 49.77 75.93 49.6L72.03 8.83C72.01 8.69 72.07 8.59 72.22 8.54C72.36 8.49 72.48 8.53 72.56 8.67L85.43 30.33L96.27 8.69C96.32 8.58 96.4 8.53 96.52 8.53C96.63 8.53 96.71 8.58 96.77 8.69L108.02 31.16L121.38 8.67C121.46 8.54 121.57 8.5 121.71 8.55C121.84 8.59 121.91 8.69 121.9 8.83L117.99 49.6C117.97 49.77 117.88 49.85 117.71 49.85ZM76.46 49.29L117.44 49.29L121.23 10.02L108.24 31.88C108.19 31.98 108.1 32.02 107.99 32.02C107.88 32.02 107.8 31.97 107.75 31.87L96.5 9.43L85.66 31.05C85.61 31.15 85.53 31.2 85.42 31.2C85.31 31.21 85.23 31.16 85.17 31.07L72.7 10.02L76.46 49.29Z" fill="url(#paint_linear_77_1426_0)" fill-opacity="1.000000" fill-rule="nonzero"/>
	<path id="Data Center" d="M90.15 135.63Q89.57 136.79 89.57 138.25Q89.57 139.71 90.16 140.87Q90.2 140.95 90.24 141.02Q90.59 141.65 91.09 142.14Q91.54 142.59 92.12 142.92Q92.28 143.01 92.45 143.09Q93.53 143.6 94.86 143.6Q96.38 143.6 97.54 142.96Q97.82 142.81 98.07 142.62Q98.55 142.27 98.91 141.83Q99.57 141.03 99.86 139.93L97.04 139.93Q96.81 140.41 96.43 140.73Q96.3 140.84 96.14 140.93Q96.04 141 95.93 141.05Q95.44 141.28 94.83 141.28Q94.11 141.28 93.56 140.98Q93.2 140.78 92.91 140.46Q92.84 140.38 92.78 140.3Q92.18 139.5 92.18 138.25Q92.18 136.99 92.78 136.2Q92.84 136.12 92.91 136.04Q93.2 135.72 93.56 135.52Q94.11 135.22 94.83 135.22Q95.44 135.22 95.93 135.45Q96.04 135.5 96.14 135.56Q96.3 135.65 96.43 135.76Q96.81 136.08 97.04 136.57L99.86 136.57Q99.57 135.48 98.93 134.69Q98.56 134.23 98.07 133.87Q97.8 133.67 97.5 133.5Q96.35 132.88 94.86 132.88Q93.54 132.88 92.47 133.39Q92.29 133.47 92.12 133.56Q91.56 133.88 91.12 134.31Q90.6 134.81 90.24 135.47Q90.2 135.55 90.15 135.63ZM51.8 133.66Q50.55 133 48.89 133L44.94 133L44.94 143.53L48.89 143.53Q50.54 143.53 51.79 142.87Q52.52 142.49 53.05 141.93Q53.44 141.52 53.73 141.01Q53.79 140.89 53.85 140.78Q54.41 139.66 54.41 138.26Q54.41 136.78 53.79 135.63Q53.76 135.57 53.73 135.51Q53.44 135.01 53.05 134.6Q52.52 134.04 51.8 133.66ZM58.47 141.67L62.4 141.67L63.03 143.53L65.75 143.53L61.94 133L58.97 133L55.16 143.53L57.84 143.53L58.47 141.67ZM74.48 135.05L74.48 133L66.33 133L66.33 135.05L69.12 135.05L69.12 143.53L71.69 143.53L71.69 135.05L74.48 135.05ZM78.39 141.67L82.32 141.67L82.95 143.53L85.67 143.53L81.86 133L78.89 133L75.08 143.53L77.76 143.53L78.39 141.67ZM104 137.18L104 135.05L107.88 135.05L107.88 133L101.43 133L101.43 143.53L107.88 143.53L107.88 141.47L104 141.47L104 139.16L107.43 139.16L107.43 137.18L104 137.18ZM116.4 143.53L118.97 143.53L118.97 133L116.4 133L116.4 139.52L112.11 133L109.55 133L109.55 143.53L112.11 143.53L112.11 137.03L116.4 143.53ZM128.4 135.05L128.4 133L120.26 133L120.26 135.05L123.05 135.05L123.05 143.53L125.62 143.53L125.62 135.05L128.4 135.05ZM132.26 137.18L132.26 135.05L136.14 135.05L136.14 133L129.69 133L129.69 143.53L136.14 143.53L136.14 141.47L132.26 141.47L132.26 139.16L135.69 139.16L135.69 137.18L132.26 137.18ZM140.99 139.55L143.18 143.53L146.07 143.53L143.64 139.36Q144.67 139.05 145.25 138.36Q145.32 138.28 145.39 138.19Q145.63 137.85 145.78 137.48Q145.98 136.93 145.98 136.31Q145.98 135.64 145.75 135.05Q145.67 134.83 145.55 134.63Q145.47 134.49 145.38 134.37Q144.96 133.79 144.24 133.43Q143.36 133 142.12 133L137.81 133L137.81 143.53L140.37 143.53L140.37 139.55L140.99 139.55ZM141.97 137.74L140.37 137.74L140.37 135.13L141.97 135.13Q142.67 135.13 143.02 135.47Q143.09 135.55 143.15 135.63Q143.38 135.94 143.38 136.42Q143.38 136.97 143.1 137.3Q143.07 137.35 143.02 137.39Q142.67 137.74 141.97 137.74ZM50.81 140.67Q50.02 141.31 48.72 141.31L47.51 141.31L47.51 135.19L48.72 135.19Q50 135.19 50.77 135.81Q50.89 135.9 50.99 136Q51.09 136.1 51.18 136.22Q51.8 137 51.8 138.26Q51.8 139.54 51.17 140.31Q51.09 140.42 50.99 140.51Q50.9 140.6 50.81 140.67ZM60.44 135.83L61.74 139.69L59.15 139.69L60.44 135.83ZM80.36 135.83L81.66 139.69L79.07 139.69L80.36 135.83Z" fill="#002175" fill-opacity="1.000000" fill-rule="evenodd"/>
	<path id="Most  Recommended National" d="M92.02 83.34Q92.84 83.63 93.76 83.63Q94.66 83.63 95.47 83.35Q95.89 83.2 96.28 82.98Q96.84 82.67 97.29 82.23Q97.75 81.77 98.09 81.2Q98.22 80.98 98.32 80.75Q98.76 79.78 98.76 78.61Q98.76 77.51 98.36 76.58Q98.24 76.31 98.09 76.05Q97.74 75.44 97.26 74.98Q96.82 74.56 96.28 74.26Q95.95 74.07 95.59 73.94Q94.74 73.62 93.76 73.62Q92.85 73.62 92.04 73.9Q91.62 74.04 91.24 74.26Q90.7 74.56 90.27 74.97Q89.78 75.43 89.42 76.05Q89.25 76.32 89.13 76.62Q88.74 77.53 88.74 78.61Q88.74 79.76 89.17 80.72Q89.28 80.97 89.42 81.2Q89.78 81.8 90.26 82.27Q90.7 82.68 91.24 82.98Q91.62 83.2 92.02 83.34ZM101.74 83.28Q102.57 83.63 103.59 83.63Q104.66 83.63 105.45 83.23Q106.14 82.87 106.53 82.31Q106.59 82.24 106.64 82.16Q106.85 81.81 106.95 81.43Q107.04 81.08 107.04 80.7Q107.04 79.79 106.61 79.23Q106.28 78.81 105.86 78.55Q105.72 78.46 105.57 78.39Q104.97 78.11 104.02 77.83Q103.32 77.62 102.93 77.46Q102.55 77.3 102.29 77.04Q102.19 76.94 102.13 76.82Q102.03 76.63 102.03 76.39Q102.03 75.94 102.25 75.66Q102.3 75.59 102.37 75.53Q102.39 75.52 102.41 75.5Q102.75 75.24 103.29 75.24Q103.92 75.24 104.32 75.54Q104.33 75.56 104.35 75.57Q104.57 75.75 104.67 75.98Q104.76 76.17 104.78 76.4L106.93 76.4Q106.87 75.55 106.45 74.95Q106.22 74.61 105.89 74.35Q105.88 74.35 105.88 74.34Q104.94 73.62 103.43 73.62Q102.43 73.62 101.64 73.96Q101.02 74.23 100.62 74.69Q100.51 74.81 100.42 74.95Q100.34 75.06 100.28 75.19Q99.99 75.75 99.99 76.46Q99.99 77.38 100.42 77.94Q100.75 78.36 101.17 78.62Q101.3 78.7 101.44 78.76Q102.03 79.03 102.99 79.31Q103.68 79.51 104.08 79.67Q104.48 79.83 104.75 80.11Q104.83 80.19 104.88 80.28Q105.02 80.51 105.02 80.82Q105.02 81.12 104.9 81.35Q104.8 81.54 104.62 81.69Q104.23 82.02 103.54 82.02Q102.91 82.02 102.53 81.71Q102.51 81.69 102.49 81.67Q102.4 81.58 102.32 81.49Q102.09 81.17 102.06 80.71L99.96 80.71Q99.97 81.4 100.25 81.94Q100.34 82.11 100.45 82.27Q100.54 82.39 100.64 82.5Q101.08 82.99 101.74 83.28ZM87.29 83.53L87.29 73.76L85.08 73.76L81.97 81.02L78.86 73.76L76.64 73.76L76.64 83.53L78.6 83.53L78.6 77.17L81.23 83.53L82.71 83.53L85.33 77.17L85.33 83.53L87.29 83.53ZM115.39 75.34L115.39 73.76L108.22 73.76L108.22 75.34L110.82 75.34L110.82 83.53L112.78 83.53L112.78 75.34L115.39 75.34ZM95.19 81.54Q94.56 81.88 93.76 81.88Q92.98 81.88 92.35 81.56Q92.27 81.52 92.2 81.48Q91.97 81.35 91.78 81.18Q91.39 80.83 91.14 80.33Q90.76 79.59 90.76 78.61Q90.76 77.63 91.14 76.9Q91.39 76.41 91.77 76.08Q91.97 75.91 92.2 75.77Q92.26 75.74 92.32 75.71Q92.96 75.38 93.76 75.38Q94.59 75.38 95.23 75.72Q95.27 75.75 95.31 75.77Q95.53 75.9 95.71 76.06Q96.1 76.4 96.36 76.9Q96.74 77.63 96.74 78.61Q96.74 79.59 96.36 80.33Q96.1 80.85 95.7 81.2Q95.52 81.35 95.31 81.48Q95.25 81.51 95.19 81.54ZM74.07 101.34Q74.89 101.63 75.8 101.63Q76.71 101.63 77.51 101.35Q77.93 101.2 78.32 100.98Q78.89 100.67 79.34 100.23Q79.8 99.77 80.13 99.2Q80.26 98.98 80.36 98.75Q80.8 97.78 80.8 96.61Q80.8 95.51 80.41 94.58Q80.29 94.31 80.13 94.05Q79.78 93.44 79.3 92.98Q78.87 92.56 78.33 92.26Q77.99 92.07 77.64 91.94Q76.78 91.62 75.8 91.62Q74.89 91.62 74.08 91.9Q73.67 92.04 73.28 92.26Q72.75 92.56 72.32 92.97Q71.82 93.43 71.46 94.05Q71.3 94.32 71.18 94.62Q70.79 95.53 70.79 96.61Q70.79 97.76 71.22 98.72Q71.33 98.97 71.46 99.2Q71.82 99.8 72.31 100.27Q72.74 100.68 73.28 100.98Q73.66 101.2 74.07 101.34ZM60.49 94.42Q60.04 95.42 60.04 96.63Q60.04 97.87 60.52 98.88Q60.6 99.04 60.69 99.2Q61.04 99.81 61.52 100.28Q61.94 100.68 62.47 100.98Q62.7 101.11 62.95 101.22Q63.89 101.61 64.99 101.61Q66.33 101.61 67.39 101.07Q67.64 100.94 67.87 100.78Q68.3 100.49 68.64 100.11Q69.27 99.42 69.59 98.45L67.33 98.45Q67.07 98.99 66.65 99.33Q66.53 99.43 66.39 99.51Q66.35 99.53 66.31 99.55Q65.73 99.86 64.98 99.86Q64.28 99.86 63.7 99.59Q63.58 99.53 63.46 99.46Q63.26 99.34 63.09 99.19Q62.68 98.84 62.42 98.33Q62.05 97.59 62.05 96.63Q62.05 95.65 62.42 94.92Q62.68 94.43 63.06 94.08Q63.25 93.92 63.46 93.79Q63.58 93.72 63.7 93.66Q64.28 93.39 64.98 93.39Q65.74 93.39 66.33 93.71Q66.36 93.73 66.39 93.74Q66.52 93.82 66.64 93.91Q67.07 94.25 67.33 94.79L69.59 94.79Q69.28 93.88 68.7 93.21Q68.34 92.79 67.86 92.47Q67.58 92.28 67.27 92.13Q66.26 91.63 64.99 91.63Q63.9 91.63 62.97 92.02Q62.71 92.13 62.47 92.27Q61.97 92.55 61.56 92.93Q61.05 93.41 60.69 94.05Q60.58 94.23 60.49 94.42ZM55.03 95.79L55.03 93.34L58.74 93.34L58.74 91.74L53.07 91.74L53.07 101.53L58.74 101.53L58.74 99.93L55.03 99.93L55.03 97.34L58.32 97.34L58.32 95.79L55.03 95.79ZM109.39 95.79L109.39 93.34L113.1 93.34L113.1 91.74L107.43 91.74L107.43 101.53L113.1 101.53L113.1 99.93L109.39 99.93L109.39 97.34L112.68 97.34L112.68 95.79L109.39 95.79ZM121.27 101.53L123.24 101.53L123.24 91.74L121.27 91.74L121.27 98.46L116.84 91.74L114.88 91.74L114.88 101.53L116.84 101.53L116.84 94.82L121.27 101.53ZM137.17 95.79L137.17 93.34L140.88 93.34L140.88 91.74L135.21 91.74L135.21 101.53L140.88 101.53L140.88 99.93L137.17 99.93L137.17 97.34L140.46 97.34L140.46 95.79L137.17 95.79ZM46.98 97.72L49.13 101.53L51.4 101.53L49.06 97.57Q50.02 97.31 50.57 96.69Q50.65 96.6 50.73 96.5Q51 96.11 51.14 95.69Q51.29 95.25 51.29 94.75Q51.29 94.14 51.08 93.61Q51 93.42 50.89 93.23Q50.83 93.13 50.77 93.04Q50.37 92.49 49.69 92.16Q48.9 91.76 47.76 91.76L44.09 91.76L44.09 101.53L46.05 101.53L46.05 97.72L46.98 97.72ZM92.91 101.53L92.91 91.76L90.7 91.76L87.59 99.02L84.48 91.76L82.26 91.76L82.26 101.53L84.22 101.53L84.22 95.17L86.85 101.53L88.33 101.53L90.95 95.17L90.95 101.53L92.91 101.53ZM105.5 101.53L105.5 91.76L103.29 91.76L100.18 99.02L97.07 91.76L94.84 91.76L94.84 101.53L96.8 101.53L96.8 95.17L99.43 101.53L100.92 101.53L103.54 95.17L103.54 101.53L105.5 101.53ZM131.29 92.36Q130.12 91.76 128.58 91.76L125.17 91.76L125.17 101.53L128.58 101.53Q130.12 101.53 131.29 100.93Q132.01 100.56 132.53 100Q132.85 99.65 133.1 99.23Q133.73 98.13 133.73 96.66Q133.73 95.21 133.12 94.11Q133.11 94.09 133.1 94.07Q132.83 93.6 132.46 93.22Q131.97 92.7 131.29 92.36ZM148.78 92.36Q147.61 91.76 146.07 91.76L142.65 91.76L142.65 101.53L146.07 101.53Q147.61 101.53 148.78 100.93Q149.5 100.56 150.01 100Q150.34 99.65 150.58 99.23Q151.22 98.13 151.22 96.66Q151.22 95.21 150.6 94.11Q150.59 94.09 150.58 94.07Q150.31 93.6 149.95 93.22Q149.45 92.7 148.78 92.36ZM47.69 96.25L46.05 96.25L46.05 93.38L47.69 93.38Q48.49 93.38 48.88 93.75Q48.95 93.81 49 93.89Q49.27 94.24 49.27 94.79Q49.27 95.37 48.99 95.74Q48.94 95.81 48.88 95.87Q48.49 96.25 47.69 96.25ZM77.24 99.54Q76.61 99.88 75.8 99.88Q75.02 99.88 74.4 99.56Q74.32 99.52 74.24 99.48Q74.02 99.35 73.83 99.18Q73.44 98.83 73.18 98.33Q72.81 97.59 72.81 96.61Q72.81 95.63 73.18 94.9Q73.43 94.41 73.82 94.08Q74.01 93.91 74.24 93.77Q74.3 93.74 74.36 93.71Q75 93.38 75.8 93.38Q76.63 93.38 77.27 93.72Q77.31 93.75 77.36 93.77Q77.57 93.9 77.76 94.06Q78.15 94.4 78.4 94.9Q78.78 95.63 78.78 96.61Q78.78 97.59 78.4 98.33Q78.15 98.85 77.74 99.2Q77.56 99.35 77.36 99.48Q77.3 99.51 77.24 99.54ZM130.72 99.18Q129.9 99.86 128.51 99.86L127.13 99.86L127.13 93.41L128.51 93.41Q129.86 93.41 130.67 94.06Q130.79 94.16 130.89 94.27Q130.99 94.37 131.08 94.48Q131.73 95.31 131.73 96.66Q131.73 98.01 131.07 98.82Q130.99 98.93 130.89 99.02Q130.81 99.11 130.72 99.18ZM148.2 99.18Q147.38 99.86 146 99.86L144.61 99.86L144.61 93.41L146 93.41Q147.34 93.41 148.16 94.06Q148.27 94.16 148.38 94.27Q148.48 94.37 148.56 94.48Q149.22 95.31 149.22 96.66Q149.22 98.01 148.56 98.82Q148.47 98.93 148.38 99.02Q148.29 99.11 148.2 99.18ZM98.47 119.34Q99.29 119.63 100.21 119.63Q101.11 119.63 101.92 119.35Q102.33 119.2 102.73 118.98Q103.29 118.67 103.74 118.23Q104.2 117.78 104.54 117.2Q104.66 116.98 104.76 116.76Q105.2 115.78 105.2 114.61Q105.2 113.51 104.81 112.58Q104.69 112.31 104.54 112.05Q104.19 111.44 103.7 110.98Q103.27 110.56 102.73 110.26Q102.4 110.07 102.04 109.94Q101.18 109.62 100.21 109.62Q99.3 109.62 98.49 109.9Q98.07 110.04 97.68 110.26Q97.15 110.56 96.72 110.97Q96.23 111.44 95.87 112.05Q95.7 112.32 95.58 112.62Q95.19 113.53 95.19 114.61Q95.19 115.76 95.62 116.72Q95.73 116.97 95.87 117.2Q96.22 117.8 96.71 118.27Q97.15 118.68 97.68 118.98Q98.06 119.2 98.47 119.34ZM69.78 119.53L71.74 119.53L71.74 109.74L69.78 109.74L69.78 116.46L65.34 109.74L63.39 109.74L63.39 119.53L65.34 119.53L65.34 112.82L69.78 119.53ZM75.77 117.66L79.67 117.66L80.31 119.53L82.38 119.53L78.87 109.74L76.59 109.74L73.07 119.53L75.13 119.53L75.77 117.66ZM113.06 119.53L115.02 119.53L115.02 109.74L113.06 109.74L113.06 116.46L108.62 109.74L106.66 109.74L106.66 119.53L108.62 119.53L108.62 112.82L113.06 119.53ZM119.05 117.66L122.94 117.66L123.58 119.53L125.66 119.53L122.14 109.74L119.86 109.74L116.35 119.53L118.41 119.53L119.05 117.66ZM90.35 111.34L90.35 109.76L83.18 109.76L83.18 111.34L85.79 111.34L85.79 119.53L87.74 119.53L87.74 111.34L90.35 111.34ZM93.74 119.53L93.74 109.76L91.78 109.76L91.78 119.53L93.74 119.53ZM132.15 117.97L128.93 117.97L128.93 109.76L126.97 109.76L126.97 119.53L132.15 119.53L132.15 117.97ZM101.64 117.54Q101.01 117.88 100.21 117.88Q99.42 117.88 98.8 117.56Q98.72 117.52 98.64 117.48Q98.42 117.35 98.23 117.18Q97.84 116.83 97.58 116.34Q97.21 115.59 97.21 114.61Q97.21 113.64 97.58 112.9Q97.84 112.41 98.22 112.08Q98.41 111.91 98.64 111.77Q98.7 111.74 98.77 111.71Q99.4 111.38 100.21 111.38Q101.03 111.38 101.67 111.72Q101.72 111.75 101.76 111.77Q101.97 111.9 102.16 112.06Q102.55 112.4 102.81 112.9Q103.19 113.64 103.19 114.61Q103.19 115.59 102.81 116.34Q102.55 116.85 102.15 117.2Q101.97 117.35 101.76 117.48Q101.7 117.51 101.64 117.54ZM77.72 112.01L79.13 116.1L76.31 116.1L77.72 112.01ZM120.99 112.01L122.41 116.1L119.58 116.1L120.99 112.01Z" fill="#000000" fill-opacity="0.600000" fill-rule="evenodd"/>
</svg>
