<svg width="1924.999878" height="125.000000" viewBox="0 0 1925 125" fill="none" xmlns="http://www.w3.org/2000/svg" xmlns:xlink="http://www.w3.org/1999/xlink">
	<desc>
			Created with Pixso.
	</desc>
	<defs>
		<linearGradient x1="-96110.117188" y1="38808.949219" x2="-96110.117188" y2="48286.328125" id="paint_linear_120_4829_0" gradientUnits="userSpaceOnUse">
			<stop stop-color="#F3F3F3"/>
			<stop offset="0.011765" stop-color="#F3F3F3"/>
			<stop offset="0.458824" stop-color="#BFC9E8"/>
			<stop offset="1.000000" stop-color="#8EA0D2"/>
		</linearGradient>
	</defs>
	<mask id="mask162_415" mask-type="alpha" maskUnits="userSpaceOnUse" x="0.000000" y="0.000000" width="1924.999878" height="125.000000">
		<rect id="Rectangle 3" width="1924.999878" height="125.000000" fill="#002175" fill-opacity="1.000000"/>
	</mask>
	<g mask="url(#mask162_415)">
		<path id="path" d="M102.64 119.97L102.64 119.96L102.23 119.96C100.4 119.89 98.58 119.75 96.78 119.53L96.78 119.51L96.53 119.51C95.56 119.39 94.59 119.25 93.62 119.08L93.62 119.06L93.46 119.06C92.76 118.94 92.06 118.81 91.37 118.67L91.37 118.61L91.07 118.61C90.41 118.47 89.76 118.33 89.11 118.17L89.07 118.16C88.48 118.02 87.89 117.87 87.31 117.71C86.86 117.59 86.4 117.46 85.96 117.33L85.96 117.26L85.7 117.26C83.96 116.74 82.24 116.16 80.55 115.51L80.55 115.46L80.43 115.46C79.71 115.18 79 114.89 78.29 114.59L78.29 114.56L78.23 114.56L77.39 114.2L77.39 114.12L77.21 114.12C75.43 113.32 73.68 112.44 71.98 111.49L71.98 111.42L71.85 111.42L71.07 110.98L71.06 110.97C69.84 110.27 68.64 109.52 67.47 108.74L67.47 108.73L67.44 108.73C66.38 108.02 65.33 107.28 64.31 106.51L64.31 106.48L64.26 106.48C63.75 106.09 63.25 105.71 62.75 105.31C62.26 105.72 61.76 106.11 61.23 106.48L61.15 106.48L61.15 106.54C60.73 106.83 60.31 107.11 59.87 107.38L59.8 107.38L59.8 107.42C59.57 107.56 59.33 107.69 59.09 107.83L58.9 107.83L58.9 107.93C58.37 108.22 57.83 108.48 57.28 108.73L57.1 108.73L57.1 108.81C56.8 108.94 56.5 109.06 56.19 109.17L55.74 109.17L55.74 109.34C55.46 109.44 55.18 109.54 54.9 109.62L54.39 109.62L54.39 109.78C54.02 109.89 53.64 109.98 53.26 110.07L53.04 110.07L53.04 110.13L52.55 110.23C51.95 110.35 51.35 110.45 50.75 110.52L49.88 110.52L49.88 110.61C48.51 110.73 47.15 110.72 45.82 110.59L45.82 110.52L45.17 110.52C43.86 110.36 42.56 110.08 41.31 109.7L41.31 109.62L41.07 109.62C38.36 108.77 35.84 107.42 33.65 105.66L33.65 105.58L33.55 105.58C32.44 104.69 31.42 103.69 30.49 102.59L30.49 102.44L30.36 102.44L30.04 102.04L30.04 101.99L30 101.99C29.35 101.18 28.76 100.32 28.23 99.41L28.23 99.29L28.16 99.29C28.03 99.07 27.91 98.84 27.78 98.61L27.78 98.39L27.67 98.39C27.19 97.48 26.78 96.53 26.43 95.55L26.43 95.25L26.32 95.25C26.2 94.89 26.09 94.52 25.98 94.15L25.98 93.9L25.91 93.9C25.78 93.42 25.67 92.94 25.56 92.44C25.32 91.24 25.2 90.04 25.14 88.86C24.44 88.91 23.74 88.94 23.04 88.96L19.1 88.96C17.47 88.91 15.86 88.79 14.25 88.61L14.25 88.51L13.48 88.51C12.53 88.39 11.59 88.25 10.65 88.08L10.65 88.06L10.55 88.06C9.82 87.93 9.11 87.79 8.39 87.64L8.39 87.61L8.28 87.61C7.72 87.49 7.15 87.36 6.59 87.22L6.59 87.17L6.37 87.17C5.84 87.03 5.31 86.89 4.78 86.74L4.78 86.72L4.7 86.72C3.35 86.34 2.03 85.91 0.73 85.44L0.73 85.37L0.52 85.37C0.14 85.23 -0.24 85.08 -0.63 84.94L-0.63 84.92L-0.67 84.92C-1.72 84.51 -2.76 84.08 -3.78 83.61L-3.78 83.57L-3.87 83.57L-4.69 83.19L-4.69 83.12L-4.84 83.12L-5.59 82.76L-5.59 82.67L-5.75 82.67L-6.49 82.3L-6.49 82.22L-6.64 82.22L-7.39 81.83L-7.39 81.78L-7.49 81.78L-8.29 81.33C-9.05 80.91 -9.81 80.46 -10.55 80.01L-10.55 79.98L-10.6 79.98C-11.04 79.71 -11.47 79.43 -11.9 79.15L-11.9 79.08L-12.01 79.08C-12.43 78.81 -12.84 78.53 -13.25 78.24L-13.25 78.18L-13.34 78.18C-14.54 77.34 -15.72 76.46 -16.86 75.54L-16.86 75.49L-16.92 75.49C-17.99 74.63 -19.02 73.73 -20.02 72.8L-20.47 72.37L-20.47 72.34L-20.5 72.34L-20.92 71.94L-20.92 71.89L-20.97 71.89L-21.37 71.5L-21.37 71.44L-21.43 71.44L-21.82 71.05L-21.82 71L-21.87 71L-22.27 70.58L-22.27 70.55L-22.31 70.55L-22.72 70.12L-22.72 70.1L-22.74 70.1C-23.32 69.48 -23.89 68.86 -24.44 68.22C-25.43 68.56 -26.43 68.87 -27.48 69.08L-28.1 69.2L-28.59 69.2L-28.59 69.28C-31.04 69.65 -33.47 69.62 -35.8 69.24L-35.8 69.2L-36.04 69.2C-37.19 69 -38.31 68.7 -39.41 68.33L-39.41 68.3L-39.5 68.3C-40.24 68.05 -40.96 67.76 -41.67 67.43L-41.67 67.4L-41.73 67.4C-42.01 67.27 -42.29 67.13 -42.57 66.99L-42.57 66.95L-42.64 66.95C-44.06 66.21 -45.39 65.33 -46.63 64.31L-46.63 64.26L-46.7 64.26C-47.64 63.48 -48.52 62.62 -49.33 61.69L-49.33 61.56L-49.44 61.56L-49.78 61.15L-49.78 61.11L-49.82 61.11C-50.28 60.54 -50.72 59.95 -51.14 59.33C-52.03 57.98 -52.79 56.52 -53.39 54.97L-53.39 54.83L-53.44 54.83C-53.59 54.45 -53.72 54.07 -53.84 53.69L-53.84 53.48L-53.91 53.48C-54.13 52.77 -54.32 52.04 -54.47 51.29C-54.58 50.74 -54.67 50.18 -54.74 49.63L-54.74 48.54L-54.85 48.54C-54.91 47.77 -54.93 47 -54.91 46.24L-55.89 46.29L-60.74 46.29C-62.21 46.22 -63.67 46.09 -65.12 45.9L-65.12 45.84L-65.53 45.84C-66.15 45.76 -66.76 45.65 -67.37 45.55L-67.37 45.39L-68.19 45.39C-68.67 45.3 -69.15 45.2 -69.62 45.09L-69.62 44.94L-70.27 44.94C-70.81 44.82 -71.35 44.68 -71.88 44.53L-71.88 44.49L-72.03 44.49C-73.35 44.13 -74.65 43.72 -75.94 43.25L-75.94 43.15L-76.22 43.15C-76.58 43.02 -76.94 42.88 -77.29 42.74L-77.29 42.7L-77.4 42.7L-78.19 42.37L-78.19 42.25L-78.5 42.25L-79.1 41.99L-79.1 41.8L-79.53 41.8L-80.45 41.37L-80.45 41.35L-80.5 41.35L-81.35 40.94L-81.35 40.9L-81.42 40.9L-82.25 40.48L-82.25 40.45L-82.3 40.45C-83.05 40.06 -83.78 39.66 -84.51 39.24L-84.51 39.11L-84.73 39.11L-85.41 38.7L-85.41 38.66L-85.47 38.66L-85.86 38.42L-85.86 38.21L-86.19 38.21L-86.76 37.84L-86.76 37.76L-86.89 37.76C-87.3 37.49 -87.71 37.21 -88.11 36.92L-88.11 36.86L-88.21 36.86C-89.58 35.9 -90.9 34.87 -92.17 33.77L-92.17 33.71L-92.24 33.71L-92.62 33.38L-92.62 33.27L-92.75 33.27L-93.08 32.98L-93.08 32.82L-93.25 32.82L-93.53 32.57L-93.53 32.37L-93.74 32.37L-93.98 32.15L-93.98 31.92L-94.22 31.92C-95.23 30.95 -96.2 29.95 -97.13 28.9L-97.13 28.77L-97.24 28.77L-97.59 28.38L-97.59 28.32L-97.63 28.32C-98.08 27.81 -98.51 27.28 -98.94 26.75L-98.94 26.53L-99.11 26.53L-99.39 26.18L-99.39 26.08L-99.46 26.08C-99.74 25.71 -100.02 25.35 -100.29 24.97L-100.29 24.73L-100.47 24.73L-100.74 24.35L-100.74 24.28L-100.79 24.28C-101.4 23.41 -101.98 22.52 -102.54 21.6L-102.54 21.59C-102.69 21.34 -102.85 21.1 -103 20.85L-103 20.69L-103.09 20.69L-103.45 20.07L-103.45 19.79L-103.6 19.79L-103.9 19.26L-103.9 18.89L-104.09 18.89L-104.35 18.41L-104.35 17.99L-104.56 17.99L-104.8 17.52L-104.8 17.1L-105 17.1C-105.77 15.52 -106.45 13.89 -107.05 12.22L-107.05 11.71L-107.24 11.71L-107.51 10.91L-107.51 10.36L-107.68 10.36L-107.96 9.48L-107.96 9.01L-108.09 9.01C-108.2 8.63 -108.31 8.25 -108.41 7.87L-108.41 7.66L-108.46 7.66C-108.6 7.12 -108.73 6.58 -108.86 6.04L-108.86 5.87L-108.9 5.87L-109.08 5C-109.16 4.6 -109.24 4.21 -109.31 3.82L-109.31 3.62L-109.34 3.62C-109.53 2.57 -109.67 1.51 -109.79 0.46L-110.74 0.68C-111.18 0.77 -111.61 0.85 -112.05 0.93L-112.92 0.93L-112.92 1.06C-113.79 1.2 -114.67 1.3 -115.54 1.37L-117.88 1.37L-117.88 1.51C-118.94 1.54 -119.99 1.53 -121.03 1.49L-121.03 1.37L-122.75 1.37C-123.54 1.31 -124.32 1.22 -125.09 1.1L-125.09 0.93L-126.22 0.93C-127.51 0.7 -128.79 0.42 -130.05 0.08L-130.05 0.03L-130.25 0.03C-130.63 -0.08 -131.02 -0.19 -131.41 -0.31L-131.41 -0.42L-131.77 -0.42C-132.1 -0.53 -132.43 -0.64 -132.76 -0.75L-132.76 -0.87L-133.11 -0.87C-133.45 -0.99 -133.78 -1.11 -134.11 -1.24L-134.11 -1.32L-134.31 -1.32C-135 -1.59 -135.69 -1.88 -136.37 -2.18L-136.37 -2.22L-136.45 -2.22L-137.27 -2.6L-137.27 -2.67L-137.41 -2.67L-138.17 -3.05L-138.17 -3.12L-138.31 -3.12L-139.07 -3.52L-139.07 -3.57L-139.16 -3.57C-139.58 -3.8 -140.01 -4.04 -140.42 -4.28L-140.42 -4.46L-140.73 -4.46L-141.33 -4.83L-141.33 -4.91L-141.47 -4.91C-142.06 -5.29 -142.64 -5.67 -143.22 -6.08C-143.23 -4.78 -143.32 -3.49 -143.49 -2.22L-143.58 -2.22L-143.58 -1.57C-143.69 -0.88 -143.82 -0.2 -143.97 0.48L-144.03 0.48L-144.03 0.78C-144.15 1.28 -144.28 1.78 -144.42 2.27L-144.48 2.27L-144.48 2.5C-144.96 4.12 -145.56 5.7 -146.28 7.21L-146.29 7.23C-146.43 7.53 -146.57 7.82 -146.72 8.11L-146.74 8.11L-146.74 8.15C-147.37 9.38 -148.08 10.57 -148.87 11.71L-148.99 11.71L-148.99 11.88C-149.27 12.28 -149.56 12.67 -149.86 13.05L-149.9 13.05L-149.9 13.1C-151.57 15.26 -153.51 17.21 -155.7 18.89L-155.76 18.89L-155.76 18.94C-157.29 20.11 -158.94 21.15 -160.69 22.04L-160.72 22.04L-160.72 22.05C-161.01 22.2 -161.31 22.34 -161.61 22.49C-162.69 22.99 -163.82 23.45 -164.98 23.83L-165.23 23.83L-165.23 23.92C-165.62 24.05 -166.02 24.17 -166.42 24.28L-166.58 24.28L-166.58 24.33C-167.33 24.54 -168.09 24.72 -168.86 24.88C-169.46 25 -170.06 25.1 -170.65 25.18L-172.89 25.18L-172.89 25.41C-174.17 25.5 -175.43 25.51 -176.68 25.45C-176.91 26.11 -177.15 26.77 -177.4 27.43L-177.75 28.32L-177.86 28.32L-177.86 28.58C-178.13 29.25 -178.41 29.91 -178.7 30.57L-178.76 30.57L-178.76 30.71L-179.1 31.47L-179.21 31.47L-179.21 31.69C-179.88 33.14 -180.61 34.56 -181.38 35.96L-181.46 35.96L-181.46 36.11L-181.89 36.86L-181.91 36.86L-181.91 36.91C-182.17 37.34 -182.42 37.78 -182.68 38.21L-182.82 38.21L-182.82 38.43L-183.24 39.11L-183.27 39.11L-183.27 39.15C-183.83 40.05 -184.41 40.93 -185.02 41.8L-185.07 41.8L-185.07 41.87C-185.48 42.45 -185.89 43.03 -186.32 43.6L-186.42 43.6L-186.42 43.74C-186.84 44.3 -187.27 44.85 -187.71 45.39L-187.78 45.39L-187.78 45.48C-188.49 46.37 -189.22 47.24 -189.98 48.09L-190.03 48.09L-190.03 48.14L-190.39 48.54L-190.48 48.54L-190.48 48.64L-190.8 48.99L-190.93 48.99L-190.93 49.14C-192.49 50.81 -194.14 52.41 -195.87 53.93L-195.89 53.93L-195.89 53.95C-196.59 54.55 -197.29 55.15 -198.01 55.72L-198.15 55.72L-198.15 55.83L-198.58 56.17L-198.6 56.17L-198.6 56.19C-199.18 56.64 -199.76 57.09 -200.35 57.52L-200.4 57.52L-200.4 57.56C-201.67 58.49 -202.97 59.37 -204.31 60.21L-204.46 60.21L-204.46 60.31C-204.9 60.58 -205.33 60.85 -205.78 61.11L-205.82 61.11L-205.82 61.14L-206.55 61.56L-206.72 61.56L-206.72 61.66C-208.66 62.77 -210.66 63.79 -212.73 64.71L-213.03 64.71L-213.03 64.84L-213.76 65.16L-213.93 65.16L-213.93 65.23C-214.61 65.51 -215.3 65.79 -215.99 66.05L-216.19 66.05L-216.19 66.13C-217.4 66.58 -218.62 67.01 -219.87 67.4L-220.25 67.4L-220.25 67.52C-220.61 67.63 -220.98 67.74 -221.35 67.85L-221.6 67.85L-221.6 67.92C-222.06 68.05 -222.52 68.18 -222.98 68.3L-223.4 68.3L-223.4 68.41C-224.5 68.69 -225.62 68.95 -226.75 69.18C-227.61 69.35 -228.47 69.51 -229.34 69.65L-229.72 69.65L-229.72 69.71C-230.67 69.86 -231.61 69.99 -232.56 70.1L-232.87 70.1L-232.87 70.13C-237.75 70.67 -242.58 70.66 -247.3 70.16L-247.3 70.1L-247.82 70.1C-248.85 69.98 -249.89 69.84 -250.91 69.67L-250.91 69.65L-251.04 69.65C-251.75 69.53 -252.46 69.4 -253.17 69.26L-253.17 69.2L-253.49 69.2C-254.13 69.07 -254.78 68.93 -255.42 68.78L-255.42 68.75L-255.54 68.75C-256.11 68.62 -256.67 68.48 -257.23 68.33L-257.23 68.3L-257.34 68.3C-258.36 68.03 -259.38 67.73 -260.38 67.42L-260.38 67.4L-260.43 67.4C-260.86 67.26 -261.3 67.12 -261.74 66.97L-261.74 66.95L-261.79 66.95C-262.99 66.55 -264.17 66.1 -265.34 65.63L-265.34 65.61L-265.4 65.61L-266.24 65.26L-266.24 65.16L-266.48 65.16C-267.16 64.87 -267.83 64.57 -268.5 64.26L-269.4 63.83L-269.4 63.81L-269.45 63.81C-270.04 63.52 -270.62 63.23 -271.21 62.92L-271.23 62.91C-272.29 62.36 -273.33 61.78 -274.36 61.17L-274.36 61.11L-274.46 61.11C-275.19 60.68 -275.9 60.24 -276.62 59.78L-276.63 59.77C-277.08 59.48 -277.53 59.18 -277.97 58.88L-277.97 58.87L-277.99 58.87C-278.59 58.46 -279.19 58.04 -279.77 57.61L-279.77 57.52L-279.9 57.52C-280.65 56.98 -281.38 56.42 -282.1 55.84C-282.61 56.27 -283.15 56.68 -283.7 57.07L-283.83 57.07L-283.83 57.17C-284.24 57.45 -284.65 57.71 -285.08 57.97L-285.18 57.97L-285.18 58.03C-285.99 58.51 -286.83 58.94 -287.7 59.32L-287.89 59.32L-287.89 59.4C-288.19 59.53 -288.5 59.65 -288.81 59.77L-289.24 59.77L-289.24 59.92C-289.54 60.03 -289.83 60.12 -290.13 60.22L-290.6 60.22L-290.6 60.35C-291 60.47 -291.42 60.57 -291.83 60.66L-291.95 60.66L-291.95 60.69L-292.3 60.76C-293.07 60.92 -293.85 61.04 -294.62 61.11L-295.56 61.11L-295.56 61.19C-296.47 61.24 -297.37 61.24 -298.26 61.18L-298.26 61.11L-299.15 61.11C-300.07 61.02 -300.98 60.87 -301.87 60.67L-301.92 60.66C-303.63 60.28 -305.27 59.7 -306.83 58.95L-306.83 58.87L-306.99 58.87C-307.24 58.75 -307.49 58.62 -307.73 58.49L-307.73 58.42L-307.86 58.42C-308.12 58.28 -308.38 58.13 -308.64 57.98C-309.09 57.7 -309.55 57.41 -309.99 57.1L-309.99 57.07L-310.03 57.07C-310.8 56.53 -311.54 55.94 -312.24 55.31L-312.24 55.27L-312.28 55.27C-312.74 54.86 -313.17 54.43 -313.59 53.98L-313.59 53.93L-313.65 53.93L-314.05 53.49L-314.05 53.48C-314.87 52.55 -315.63 51.54 -316.3 50.47L-316.3 50.33L-316.39 50.33C-317.27 48.89 -318 47.34 -318.56 45.69L-318.56 45.39L-318.65 45.39C-318.78 44.99 -318.9 44.59 -319.01 44.18L-319.01 44.05L-319.04 44.05C-319.13 43.69 -319.21 43.34 -319.29 42.98C-319.35 42.66 -319.41 42.34 -319.46 42.02L-319.46 41.8L-319.49 41.8C-319.6 40.99 -319.67 40.19 -319.7 39.39C-323.27 39.63 -326.81 39.55 -330.28 39.17L-330.28 39.11L-330.88 39.11C-332.65 38.89 -334.41 38.6 -336.14 38.24L-336.14 38.21L-336.3 38.21C-336.85 38.09 -337.4 37.96 -337.95 37.83L-337.95 37.76L-338.25 37.76C-340.6 37.17 -342.91 36.45 -345.16 35.59L-345.16 35.51L-345.37 35.51C-349.08 34.08 -352.64 32.29 -355.98 30.18L-355.98 30.12L-356.07 30.12C-356.5 29.85 -356.92 29.58 -357.34 29.29L-357.34 29.22L-357.44 29.22C-358.48 28.52 -359.5 27.79 -360.49 27.03L-360.49 26.98L-360.56 26.98C-361.31 26.41 -362.04 25.82 -362.75 25.21L-362.75 25.18L-362.79 25.18L-363.2 24.83L-363.2 24.73L-363.31 24.73C-365.44 22.89 -367.44 20.89 -369.29 18.76C-369.91 18.97 -370.53 19.17 -371.16 19.34L-371.32 19.34L-371.32 19.38C-371.65 19.47 -371.99 19.55 -372.33 19.62C-372.65 19.68 -372.97 19.74 -373.29 19.79L-373.57 19.79L-373.57 19.83C-376.67 20.29 -379.72 20.1 -382.59 19.35L-382.59 19.34L-382.65 19.34C-383.55 19.11 -384.43 18.81 -385.3 18.47L-385.3 18.44L-385.38 18.44C-386.61 17.95 -387.78 17.35 -388.91 16.66L-388.91 16.65L-388.93 16.65C-392.52 14.42 -395.5 11.22 -397.41 7.32L-398.36 8.56L-398.37 8.56L-398.37 8.58L-398.7 9.01L-398.83 9.01L-398.83 9.17C-399.25 9.72 -399.68 10.27 -400.12 10.81L-400.18 10.81L-400.18 10.88L-400.48 11.26L-400.63 11.26L-400.63 11.44L-400.85 11.71L-401.08 11.71L-401.08 11.99L-401.96 13.05L-401.98 13.05L-401.98 13.08L-402.34 13.5L-402.43 13.5L-402.43 13.61L-402.73 13.95L-402.88 13.95L-402.88 14.14L-403.11 14.4L-403.34 14.4L-403.34 14.66C-403.92 15.33 -404.51 15.99 -405.1 16.65L-405.14 16.65L-405.14 16.69L-405.52 17.1L-405.59 17.1L-405.59 17.18C-407.12 18.84 -408.69 20.46 -410.3 22.04L-410.55 22.04L-410.55 22.28L-410.76 22.49L-411 22.49L-411 22.72L-411.23 22.94L-411.45 22.94L-411.45 23.15L-411.7 23.38L-411.9 23.38L-411.9 23.58L-412.18 23.83L-412.35 23.83L-412.35 24L-412.66 24.28L-412.81 24.28L-412.81 24.42L-413.14 24.73L-413.26 24.73L-413.26 24.84L-413.63 25.18L-413.71 25.18L-413.71 25.25L-414.13 25.63L-414.16 25.63L-414.16 25.65C-415.34 26.72 -416.54 27.76 -417.76 28.77C-418.3 29.23 -418.86 29.68 -419.41 30.12L-419.57 30.12L-419.57 30.25L-419.97 30.57L-420.02 30.57L-420.02 30.61L-421.11 31.47L-421.37 31.47L-421.37 31.67L-421.69 31.92L-421.83 31.92L-421.83 32.02L-422.88 32.82L-423.18 32.82L-423.18 33.04L-423.48 33.27L-423.63 33.27L-423.63 33.37L-424.71 34.16L-424.98 34.16L-424.98 34.36L-425.34 34.61L-425.43 34.61L-425.43 34.68L-426.61 35.51L-426.79 35.51L-426.79 35.63C-428.52 36.83 -430.3 37.99 -432.1 39.1L-432.2 39.1L-432.2 39.17L-432.83 39.55L-433.1 39.55L-433.1 39.72L-434.33 40.45L-434.45 40.45L-434.45 40.53L-435.09 40.9L-435.35 40.9L-435.35 41.05L-435.87 41.35L-436.26 41.35L-436.26 41.57L-436.66 41.8L-436.71 41.8L-436.71 41.82L-437.47 42.25L-437.61 42.25L-437.61 42.33L-438.29 42.7L-438.51 42.7L-438.51 42.82L-439.12 43.15L-439.41 43.15L-439.41 43.3C-440.59 43.92 -441.77 44.53 -442.97 45.11C-443.21 45.97 -443.49 46.82 -443.82 47.64L-443.92 47.64L-443.92 47.89C-444.01 48.11 -444.1 48.32 -444.2 48.54L-444.37 48.54L-444.37 48.92C-444.89 50.04 -445.49 51.11 -446.17 52.13L-446.48 52.58L-446.63 52.58L-446.63 52.79C-446.91 53.18 -447.19 53.55 -447.49 53.93L-447.53 53.93L-447.53 53.97L-447.86 54.38L-447.98 54.38L-447.98 54.51C-448.76 55.42 -449.62 56.28 -450.53 57.07L-450.69 57.07L-450.69 57.2L-451.07 57.52L-451.14 57.52L-451.14 57.58C-451.5 57.87 -451.86 58.15 -452.24 58.42L-452.49 58.42L-452.49 58.6L-452.89 58.87L-452.94 58.87L-452.94 58.9C-453.65 59.38 -454.39 59.81 -455.16 60.21L-455.2 60.21L-455.2 60.24C-455.48 60.38 -455.77 60.53 -456.06 60.66L-456.55 60.66L-456.55 60.89L-457.08 61.11L-457.45 61.11L-457.45 61.27C-457.71 61.37 -457.97 61.47 -458.24 61.56L-458.35 61.56L-458.35 61.6C-458.77 61.75 -459.19 61.89 -459.62 62.01L-459.71 62.01L-459.71 62.04L-460.13 62.16C-460.25 62.71 -460.39 63.26 -460.54 63.81L-460.61 63.81L-460.61 64.08C-461.51 67.32 -462.86 70.4 -464.6 73.24L-464.67 73.24L-464.67 73.35C-465.72 75.06 -466.92 76.67 -468.25 78.18L-468.27 78.18L-468.27 78.21L-468.65 78.63L-468.73 78.63L-468.73 78.71C-469.41 79.46 -470.14 80.18 -470.89 80.88L-470.98 80.88L-470.98 80.96L-471.39 81.33L-471.43 81.33L-471.43 81.36C-473.35 83.06 -475.46 84.56 -477.74 85.82C-478.01 85.97 -478.29 86.12 -478.57 86.27L-478.65 86.27L-478.65 86.31C-478.92 86.45 -479.19 86.58 -479.46 86.72L-479.55 86.72L-479.55 86.76C-479.84 86.9 -480.13 87.03 -480.42 87.17L-480.45 87.17C-481.57 87.67 -482.72 88.12 -483.9 88.51L-484.06 88.51L-484.06 88.56C-484.49 88.7 -484.93 88.84 -485.37 88.96L-485.41 88.96C-485.98 89.12 -486.55 89.28 -487.13 89.41L-487.21 89.41L-487.21 89.43L-488.02 89.6C-488.49 89.7 -488.96 89.79 -489.43 89.86L-490.37 89.86L-490.37 90C-491.61 90.17 -492.85 90.27 -494.08 90.31L-494.43 90.31L-494.88 90.33L-494.88 90.31L-496.31 90.31C-498.59 90.24 -500.82 89.95 -503 89.46L-503 89.41L-503.22 89.41C-503.75 89.29 -504.28 89.16 -504.8 89.01L-504.8 88.96L-504.97 88.96C-506.61 88.49 -508.21 87.91 -509.76 87.22L-509.76 87.17L-509.89 87.17L-510.66 86.8L-510.66 86.72L-510.85 86.72L-511.57 86.36L-511.57 86.27L-511.74 86.27C-512.12 86.07 -512.5 85.86 -512.87 85.65C-513.31 86.47 -513.76 87.27 -514.24 88.06L-514.27 88.06L-514.27 88.12C-515.09 89.49 -515.98 90.82 -516.92 92.11L-516.98 92.11L-516.98 92.19C-517.4 92.77 -517.84 93.34 -518.29 93.9L-518.33 93.9L-518.33 93.95C-519.18 95.02 -520.07 96.05 -521 97.05L-521.04 97.05L-521.04 97.08L-521.43 97.5L-521.49 97.5L-521.49 97.56L-521.86 97.95L-521.94 97.95L-521.94 98.02C-522.51 98.61 -523.1 99.18 -523.71 99.74L-523.74 99.74L-523.74 99.78C-524.74 100.7 -525.78 101.59 -526.85 102.44L-526.9 102.44L-526.9 102.48C-527.46 102.93 -528.04 103.36 -528.62 103.79L-528.7 103.79L-528.7 103.84C-532.14 106.34 -535.92 108.44 -539.97 110.07C-540.35 110.23 -540.73 110.38 -541.12 110.52L-541.33 110.52L-541.33 110.6C-542.59 111.07 -543.87 111.49 -545.18 111.87L-545.39 111.87L-545.39 111.93C-546.71 112.31 -548.06 112.63 -549.42 112.91C-549.98 113.02 -550.53 113.12 -551.08 113.22L-551.25 113.22L-551.25 113.25C-556.13 114.06 -560.97 114.19 -565.68 113.7L-565.68 113.67L-565.98 113.67C-568.48 113.39 -570.94 112.94 -573.35 112.32C-575.66 111.73 -577.92 110.98 -580.11 110.09L-580.11 110.07L-580.16 110.07C-587.72 107.01 -594.51 102.24 -599.95 96.16C-600.73 95.29 -601.49 94.38 -602.21 93.46C-602.67 92.87 -603.13 92.27 -603.56 91.66C-603.87 91.23 -604.17 90.79 -604.47 90.35L-604.47 90.31L-604.49 90.31C-604.79 89.87 -605.08 89.42 -605.37 88.97C-606 87.95 -606.6 86.92 -607.17 85.86L-607.17 85.82L-607.19 85.82C-607.66 84.94 -608.1 84.06 -608.52 83.15L-608.52 83.12C-609.18 81.7 -609.79 80.24 -610.33 78.75L-610.33 78.63L-610.37 78.63C-610.51 78.24 -610.65 77.84 -610.78 77.44L-610.78 77.28L-610.83 77.28C-610.97 76.86 -611.1 76.44 -611.23 76.02L-611.23 75.94L-611.25 75.94C-611.37 75.55 -611.48 75.16 -611.58 74.76L-612.1 75.04L-612.13 75.04L-612.13 75.06L-612.96 75.49L-613.03 75.49L-613.03 75.52L-613.86 75.94L-613.93 75.94L-613.93 75.97L-614.8 76.38L-614.84 76.38L-614.84 76.4C-615.49 76.71 -616.16 77 -616.83 77.28L-617.09 77.28L-617.09 77.39L-617.93 77.73L-617.99 77.73L-617.99 77.76C-619.19 78.24 -620.41 78.68 -621.65 79.08L-622.05 79.08L-622.05 79.21C-622.4 79.32 -622.74 79.43 -623.09 79.53L-623.4 79.53L-623.4 79.62C-623.82 79.74 -624.25 79.86 -624.67 79.98L-625.21 79.98L-625.21 80.12C-625.62 80.23 -626.04 80.33 -626.45 80.43L-626.56 80.43L-626.56 80.45C-627.16 80.59 -627.76 80.73 -628.37 80.85C-629.26 81.03 -630.15 81.19 -631.03 81.33L-631.52 81.33L-631.52 81.4C-632.53 81.55 -633.53 81.68 -634.53 81.78L-635.13 81.78L-635.13 81.83C-638.78 82.15 -642.4 82.14 -645.95 81.81L-645.95 81.78L-646.35 81.78C-647.28 81.68 -648.19 81.57 -649.11 81.44L-649.11 81.33L-649.85 81.33C-650.66 81.2 -651.47 81.05 -652.27 80.89L-652.27 80.88L-652.34 80.88C-652.92 80.76 -653.5 80.63 -654.07 80.5L-654.07 80.43L-654.38 80.43C-654.88 80.31 -655.38 80.18 -655.87 80.05L-655.87 79.98L-656.15 79.98C-656.66 79.84 -657.17 79.69 -657.68 79.54L-657.72 79.53C-658.16 79.4 -658.6 79.26 -659.03 79.12L-659.03 79.08L-659.15 79.08C-660.33 78.69 -661.49 78.27 -662.64 77.82L-662.64 77.73L-662.85 77.73C-663.54 77.46 -664.22 77.17 -664.89 76.87L-664.89 76.83L-664.97 76.83L-665.8 76.46L-665.8 76.38L-665.95 76.38C-667.12 75.84 -668.27 75.26 -669.4 74.64L-669.4 74.59L-669.49 74.59C-670.22 74.19 -670.94 73.77 -671.66 73.34L-671.66 73.24L-671.82 73.24C-672.52 72.81 -673.22 72.36 -673.91 71.9C-674.52 71.5 -675.13 71.08 -675.72 70.65L-675.72 70.55L-675.87 70.55C-676.43 70.14 -676.98 69.72 -677.52 69.3L-677.52 69.2L-677.65 69.2C-678.37 68.63 -679.08 68.05 -679.78 67.46L-679.78 67.4L-679.84 67.4C-682.01 65.53 -684.05 63.51 -685.94 61.33C-686.62 61.42 -687.3 61.5 -687.98 61.56L-688.34 61.56L-688.34 61.6C-692.3 61.96 -696.22 61.95 -700.07 61.58L-700.07 61.56L-700.22 61.56C-702.92 61.3 -705.58 60.86 -708.19 60.26L-708.19 60.21L-708.36 60.21C-709.97 59.84 -711.57 59.39 -713.15 58.89L-713.15 58.87L-713.21 58.87C-713.64 58.73 -714.07 58.58 -714.5 58.44L-714.5 58.42L-714.55 58.42C-719.14 56.83 -723.51 54.72 -727.58 52.15L-727.58 52.13L-727.6 52.13C-728.05 51.85 -728.49 51.56 -728.93 51.27L-728.93 51.23L-728.98 51.23C-730.04 50.52 -731.07 49.78 -732.09 49.01L-732.09 48.99L-732.12 48.99C-732.87 48.41 -733.61 47.82 -734.34 47.21L-734.34 47.19L-734.36 47.19C-737.12 44.88 -739.68 42.33 -742.01 39.56C-742.62 38.84 -743.23 38.08 -743.81 37.32C-744.59 36.3 -745.35 35.24 -746.07 34.17C-747.94 31.38 -749.61 28.4 -751.03 25.27L-751.03 25.18L-751.07 25.18C-751.53 24.15 -751.97 23.11 -752.38 22.06L-752.38 22.04L-752.83 20.86L-752.83 20.69L-752.89 20.69C-753.37 19.38 -753.8 18.04 -754.18 16.68L-754.18 16.65C-754.34 16.11 -754.5 15.57 -754.64 15.02L-754.64 14.85L-754.68 14.85C-754.82 14.28 -754.96 13.7 -755.09 13.12L-755.09 13.05L-755.1 13.05C-755.18 12.7 -755.26 12.35 -755.33 12C-755.4 11.65 -755.47 11.29 -755.54 10.93L-755.54 10.81L-755.56 10.81C-755.72 9.93 -755.87 9.04 -755.99 8.16L-755.99 7.66L-756.06 7.66C-756.22 6.38 -756.35 5.09 -756.44 3.81L-756.44 1.82L-756.54 1.82C-756.61 -0.14 -756.59 -2.08 -756.47 -4.02L-756.44 -4.02L-756.44 -4.52C-756.35 -5.86 -756.21 -7.19 -756.04 -8.51L-755.99 -8.51L-755.99 -8.88C-755.86 -9.81 -755.71 -10.73 -755.54 -11.65C-755.43 -12.25 -755.31 -12.85 -755.18 -13.45L-755.09 -13.45L-755.09 -13.86C-754.95 -14.47 -754.8 -15.08 -754.65 -15.69L-754.64 -15.74C-754.49 -16.32 -754.33 -16.9 -754.17 -17.47L-754.64 -17.9L-754.64 -17.94L-754.67 -17.94L-755.09 -18.32L-755.09 -18.39L-755.16 -18.39L-755.54 -18.74L-755.54 -18.84L-755.64 -18.84L-755.99 -19.17L-755.99 -19.29L-756.11 -19.29L-756.44 -19.6L-756.44 -19.74L-756.58 -19.74L-756.89 -20.04L-756.89 -20.19L-757.05 -20.19L-757.34 -20.47L-757.34 -20.63L-757.51 -20.63L-757.79 -20.92L-757.79 -21.08L-757.96 -21.08L-758.24 -21.36L-758.24 -21.53L-758.42 -21.53L-758.69 -21.81L-758.69 -21.98L-758.86 -21.98L-759.15 -22.27L-759.15 -22.43L-759.3 -22.43L-759.6 -22.73L-759.6 -22.88L-759.74 -22.88L-760.05 -23.2L-760.05 -23.33L-760.17 -23.33L-760.5 -23.67L-760.5 -23.78L-760.6 -23.78L-760.95 -24.15L-760.95 -24.23L-761.03 -24.23L-761.4 -24.62L-761.4 -24.68L-761.45 -24.68L-761.85 -25.11L-761.85 -25.13C-762.76 -26.12 -763.67 -27.12 -764.56 -28.14L-764.56 -28.27L-764.67 -28.27L-765.01 -28.66L-765.01 -28.72L-765.06 -28.72C-765.65 -29.41 -766.23 -30.12 -766.81 -30.82L-766.81 -30.97L-766.93 -30.97L-767.26 -31.37L-767.26 -31.41L-767.3 -31.41C-767.89 -32.15 -768.49 -32.9 -769.07 -33.65C-769.52 -34.25 -769.97 -34.85 -770.42 -35.44L-771.32 -36.67L-771.32 -36.8L-771.42 -36.8C-771.84 -37.39 -772.26 -37.98 -772.67 -38.58L-772.67 -38.6L-772.69 -38.6C-772.99 -39.03 -773.28 -39.46 -773.58 -39.89L-773.58 -39.95L-773.62 -39.95L-774.48 -41.24L-774.48 -41.3L-774.52 -41.3C-774.81 -41.74 -775.09 -42.18 -775.38 -42.63L-775.38 -42.64C-776.31 -44.09 -777.22 -45.56 -778.09 -47.04L-778.09 -47.14L-778.14 -47.14L-778.54 -47.83L-778.54 -48.03L-778.66 -48.03C-779.07 -48.77 -779.49 -49.5 -779.89 -50.25L-779.89 -50.28L-779.91 -50.28L-780.34 -51.08L-780.34 -51.18L-780.39 -51.18L-780.79 -51.93L-780.79 -52.08L-780.87 -52.08C-781.62 -53.52 -782.35 -54.97 -783.05 -56.44L-783.05 -56.57L-783.11 -56.57L-783.5 -57.4L-783.5 -57.47L-783.53 -57.47C-783.83 -58.11 -784.11 -58.75 -784.4 -59.39L-784.4 -59.71L-784.54 -59.71L-784.85 -60.42L-784.85 -60.61L-784.93 -60.61L-785.3 -61.48L-785.3 -61.51L-785.32 -61.51C-785.62 -62.23 -785.91 -62.95 -786.2 -63.67L-786.2 -63.75L-786.23 -63.75C-786.69 -64.9 -787.13 -66.06 -787.56 -67.22L-787.56 -67.35L-787.6 -67.35L-788.01 -68.48L-788.01 -68.69L-788.08 -68.69L-788.46 -69.78L-788.46 -70.04L-788.55 -70.04L-788.91 -71.14L-788.91 -71.39L-788.99 -71.39L-789.36 -72.55L-789.36 -72.74L-789.42 -72.74L-789.81 -74.01L-789.81 -74.08L-789.83 -74.08C-790.31 -75.67 -790.75 -77.27 -791.16 -78.89L-791.16 -79.03L-791.2 -79.03L-791.61 -80.71L-791.61 -81.27L-791.75 -81.27L-792.07 -82.65L-792.07 -83.07L-792.16 -83.07C-792.28 -83.63 -792.4 -84.19 -792.52 -84.76L-792.52 -85.31L-792.63 -85.31C-792.75 -85.9 -792.86 -86.48 -792.97 -87.07L-792.97 -87.11C-793.13 -87.96 -793.28 -88.81 -793.42 -89.66L-793.42 -89.81L-793.44 -89.81C-793.6 -90.75 -793.74 -91.69 -793.87 -92.64L-793.87 -93.4L-793.97 -93.4C-794.1 -94.36 -794.22 -95.32 -794.32 -96.28L-794.32 -97.44L-794.44 -97.44C-794.56 -98.66 -794.67 -99.88 -794.75 -101.11C-795.18 -100.78 -795.61 -100.46 -796.04 -100.14L-796.12 -100.14L-796.12 -100.07C-796.51 -99.79 -796.9 -99.51 -797.28 -99.24L-797.48 -99.24L-797.48 -99.1C-797.85 -98.85 -798.22 -98.59 -798.6 -98.34L-798.83 -98.34L-798.83 -98.19C-799.21 -97.94 -799.6 -97.69 -799.99 -97.44L-800.18 -97.44L-800.18 -97.32L-801.09 -96.77L-801.09 -240.78C-800.58 -240.92 -800.07 -241.05 -799.55 -241.17L-799.28 -241.17L-799.28 -241.24C-798.72 -241.38 -798.14 -241.5 -797.57 -241.62L-797.03 -241.62L-797.03 -241.73C-796.41 -241.86 -795.79 -241.97 -795.17 -242.07L-794.77 -242.07L-794.77 -242.14C-793.83 -242.29 -792.89 -242.42 -791.93 -242.52L-790.71 -242.52L-790.71 -242.64C-788.89 -242.81 -787.05 -242.89 -785.18 -242.89C-783.4 -242.89 -781.63 -242.82 -779.89 -242.66L-779.89 -242.52L-778.43 -242.52C-777.41 -242.41 -776.39 -242.27 -775.38 -242.1L-775.38 -242.07L-775.2 -242.07C-774.5 -241.96 -773.81 -241.83 -773.13 -241.69L-773.13 -241.62L-772.8 -241.62C-772.3 -241.52 -771.81 -241.41 -771.32 -241.29L-771.32 -241.17L-770.82 -241.17C-770.38 -241.07 -769.95 -240.96 -769.52 -240.84L-769.52 -240.72L-769.09 -240.72C-768.56 -240.58 -768.04 -240.43 -767.52 -240.27C-767.47 -241.02 -767.4 -241.77 -767.32 -242.52L-767.26 -242.52L-767.26 -243.04C-767.05 -244.84 -766.75 -246.62 -766.36 -248.36C-765.99 -250.04 -765.54 -251.69 -765.01 -253.3C-764.61 -254.52 -764.17 -255.72 -763.69 -256.9L-763.65 -256.9L-763.65 -256.97C-761.73 -261.66 -759.14 -266.01 -756.02 -269.92L-755.99 -269.92L-755.99 -269.96C-755.13 -271.03 -754.24 -272.06 -753.3 -273.06L-753.28 -273.06L-753.28 -273.08L-752.88 -273.51L-752.83 -273.51L-752.83 -273.56L-752.44 -273.96L-752.38 -273.96L-752.38 -274.02L-752 -274.41L-751.93 -274.41L-751.93 -274.48C-751.49 -274.91 -751.05 -275.34 -750.6 -275.76L-750.58 -275.76L-750.58 -275.78C-749.75 -276.55 -748.89 -277.29 -748.01 -278L-680.47 -278C-679.77 -277.44 -679.09 -276.85 -678.42 -276.25L-678.42 -276.21L-678.37 -276.21C-677.3 -275.24 -676.26 -274.22 -675.27 -273.16L-675.27 -273.06L-675.17 -273.06L-674.82 -272.68L-674.82 -272.61L-674.76 -272.61L-674.36 -272.18L-674.36 -272.17C-673.89 -271.64 -673.42 -271.1 -672.97 -270.55C-672.69 -270.8 -672.4 -271.03 -672.12 -271.27C-671.75 -271.57 -671.36 -271.88 -670.97 -272.17L-670.76 -272.17L-670.76 -272.33L-670.36 -272.61L-670.31 -272.61L-670.31 -272.66C-669.89 -272.95 -669.48 -273.24 -669.05 -273.51L-668.95 -273.51L-668.95 -273.58C-668.51 -273.87 -668.06 -274.14 -667.61 -274.41C-667.35 -274.56 -667.08 -274.72 -666.82 -274.86L-666.7 -274.86L-666.7 -274.93L-665.99 -275.31L-665.8 -275.31L-665.8 -275.41L-665.1 -275.76L-664.89 -275.76L-664.89 -275.86L-664.14 -276.21L-663.99 -276.21L-663.99 -276.27C-663.7 -276.41 -663.4 -276.53 -663.1 -276.66C-662.31 -276.98 -661.49 -277.29 -660.67 -277.56L-660.38 -277.56L-660.38 -277.65C-660 -277.77 -659.61 -277.89 -659.21 -278L-639.58 -278C-638.68 -277.75 -637.8 -277.46 -636.93 -277.14L-636.93 -277.11L-636.84 -277.11C-636.11 -276.83 -635.39 -276.54 -634.68 -276.22L-634.66 -276.21C-634.05 -275.94 -633.46 -275.65 -632.88 -275.35L-632.88 -275.31L-632.81 -275.31C-632.53 -275.17 -632.25 -275.01 -631.97 -274.86C-630.56 -274.08 -629.2 -273.2 -627.92 -272.24L-627.92 -272.17L-627.82 -272.17C-626.42 -271.11 -625.09 -269.95 -623.86 -268.7L-623.86 -268.57L-623.73 -268.57L-623.41 -268.23L-623.41 -268.12L-623.3 -268.12L-622.96 -267.75L-622.96 -267.68L-622.88 -267.68L-622.5 -267.25L-622.5 -267.23L-622.48 -267.23C-621.86 -266.52 -621.26 -265.79 -620.7 -265.04L-620.7 -264.98L-620.66 -264.98C-619.04 -262.83 -617.67 -260.49 -616.57 -258.01C-615.99 -257.97 -615.41 -257.91 -614.84 -257.84L-614.84 -257.79L-614.52 -257.79C-613.24 -257.6 -611.99 -257.32 -610.78 -256.94L-610.78 -256.9L-610.65 -256.9C-610.24 -256.76 -609.83 -256.62 -609.43 -256.47L-609.43 -256.45L-609.37 -256.45C-608.13 -255.97 -606.95 -255.4 -605.82 -254.75L-605.82 -254.65L-605.65 -254.65C-604.76 -254.13 -603.92 -253.55 -603.11 -252.92L-603.11 -252.85L-603.02 -252.85C-601.55 -251.7 -600.22 -250.38 -599.05 -248.93L-599.05 -248.81L-598.96 -248.81C-596.93 -246.26 -595.41 -243.29 -594.54 -240.06L-594.54 -239.83L-594.48 -239.83C-594.33 -239.24 -594.2 -238.64 -594.09 -238.03C-593.85 -236.65 -593.72 -235.23 -593.72 -233.78C-593.72 -232.47 -593.82 -231.19 -594.02 -229.94L-594.09 -229.94L-594.09 -229.51C-594.2 -228.9 -594.33 -228.3 -594.49 -227.7L-594.54 -227.7L-594.54 -227.49C-594.65 -227.1 -594.76 -226.73 -594.88 -226.35L-594.99 -226.35L-594.99 -226C-595.2 -225.41 -595.42 -224.82 -595.67 -224.24C-595.13 -224.12 -594.6 -223.96 -594.09 -223.77L-594.09 -223.66L-593.78 -223.66C-593.58 -223.58 -593.39 -223.5 -593.19 -223.41L-593.19 -223.21L-592.75 -223.21C-591.78 -222.74 -590.87 -222.17 -590.04 -221.51L-590.04 -221.41L-589.91 -221.41L-589.58 -221.14L-589.58 -220.96L-589.38 -220.96L-589.13 -220.73L-589.13 -220.51L-588.9 -220.51C-588.14 -219.77 -587.46 -218.94 -586.88 -218.05L-586.88 -217.82L-586.73 -217.82C-586.63 -217.65 -586.53 -217.48 -586.43 -217.31L-586.43 -216.92L-586.22 -216.92C-585.73 -216.01 -585.35 -215.05 -585.07 -214.04L-585.07 -213.32L-584.89 -213.32C-584.77 -212.75 -584.68 -212.17 -584.62 -211.58L-584.62 -210.63L-584.57 -210.63L-584.56 -210.22C-584.56 -209.9 -584.57 -209.59 -584.59 -209.28L-584.62 -209.28L-584.62 -208.93C-584.7 -208.18 -584.83 -207.45 -585 -206.74C-584.76 -206.85 -584.52 -206.94 -584.27 -207.04L-584.17 -207.04L-584.17 -207.07C-583.74 -207.23 -583.29 -207.37 -582.84 -207.49L-582.82 -207.49C-581.83 -207.74 -580.8 -207.9 -579.74 -207.94L-579.66 -207.94L-579.22 -207.94L-578.76 -207.94L-578.71 -207.94C-577.8 -207.9 -576.91 -207.79 -576.05 -207.6L-576.05 -207.49L-575.59 -207.49C-575.13 -207.37 -574.69 -207.23 -574.25 -207.07L-574.25 -207.04L-574.16 -207.04C-573.89 -206.94 -573.62 -206.82 -573.35 -206.71L-573.35 -206.59L-573.09 -206.59C-572.87 -206.49 -572.66 -206.38 -572.45 -206.27L-572.45 -206.14L-572.21 -206.14C-571.98 -206.01 -571.76 -205.88 -571.54 -205.75L-571.54 -205.69L-571.45 -205.69C-570.85 -205.31 -570.28 -204.88 -569.74 -204.42L-569.74 -204.34L-569.66 -204.34L-569.29 -204.01L-569.29 -203.89L-569.17 -203.89L-568.84 -203.57L-568.84 -203.44L-568.72 -203.44L-568.39 -203.08L-568.39 -203L-568.31 -203C-568.18 -202.85 -568.06 -202.7 -567.94 -202.55C-567.62 -202.15 -567.31 -201.73 -567.04 -201.3L-567.04 -201.2L-566.97 -201.2C-566.83 -200.99 -566.71 -200.77 -566.58 -200.55L-566.58 -200.3L-566.45 -200.3C-566.34 -200.1 -566.23 -199.89 -566.13 -199.68L-566.13 -199.4L-566 -199.4C-565.89 -199.15 -565.78 -198.89 -565.68 -198.63L-565.68 -198.5L-565.64 -198.5L-565.49 -198.1C-564.54 -198.71 -563.57 -199.3 -562.58 -199.85L-562.53 -199.85L-562.53 -199.88C-561.39 -200.51 -560.23 -201.1 -559.05 -201.65L-558.92 -201.65L-558.92 -201.71L-558.05 -202.1L-558.02 -202.1L-558.02 -202.11C-556.48 -202.78 -554.91 -203.37 -553.31 -203.89L-553.06 -203.89L-553.06 -203.97C-552.65 -204.1 -552.25 -204.22 -551.84 -204.34L-551.7 -204.34L-551.7 -204.38C-550.58 -204.71 -549.45 -204.99 -548.29 -205.24L-548.1 -205.24L-548.1 -205.28C-547.38 -205.43 -546.67 -205.57 -545.94 -205.69L-545.84 -205.69L-545.84 -205.71C-545.34 -205.79 -544.83 -205.87 -544.32 -205.94C-544.38 -206.21 -544.44 -206.48 -544.49 -206.75L-544.49 -207.04L-544.54 -207.04C-544.77 -208.32 -544.89 -209.64 -544.89 -210.98C-544.89 -212.4 -544.76 -213.78 -544.52 -215.12L-544.49 -215.12L-544.49 -215.27C-544.38 -215.83 -544.26 -216.38 -544.11 -216.92L-544.04 -216.92L-544.04 -217.18C-543.53 -218.99 -542.79 -220.71 -541.87 -222.31L-541.78 -222.31L-541.78 -222.46C-541.26 -223.35 -540.69 -224.2 -540.05 -225L-539.98 -225L-539.98 -225.1C-538.96 -226.38 -537.81 -227.56 -536.54 -228.6L-536.37 -228.6L-536.37 -228.73L-535.97 -229.05L-535.92 -229.05L-535.92 -229.08C-535.07 -229.73 -534.18 -230.32 -533.25 -230.84L-533.22 -230.84L-533.22 -230.86C-532.95 -231.01 -532.68 -231.15 -532.41 -231.29L-532.31 -231.29L-532.31 -231.34C-532.04 -231.48 -531.76 -231.61 -531.48 -231.74L-531.41 -231.74L-531.41 -231.77C-530.68 -232.1 -529.93 -232.39 -529.16 -232.64C-528.65 -232.81 -528.13 -232.96 -527.6 -233.09L-527.35 -233.09L-527.35 -233.15C-526.69 -233.31 -526.01 -233.44 -525.32 -233.54L-524.65 -233.54L-524.65 -233.62C-523.78 -233.72 -522.9 -233.78 -522.01 -233.78C-520.94 -233.78 -519.9 -233.68 -518.87 -233.54C-518.7 -233.84 -518.53 -234.14 -518.35 -234.44L-518.33 -234.44L-518.33 -234.46C-518.07 -234.91 -517.81 -235.35 -517.54 -235.78L-517.43 -235.78L-517.43 -235.94C-516.19 -237.92 -514.84 -239.81 -513.38 -241.62L-513.37 -241.64L-513.02 -242.07L-512.92 -242.07L-512.92 -242.19C-512.2 -243.07 -511.45 -243.93 -510.67 -244.77L-510.26 -245.22L-510.22 -245.22L-510.22 -245.26L-509.83 -245.66L-509.76 -245.66L-509.76 -245.73L-509.39 -246.11L-509.31 -246.11L-509.31 -246.19L-508.94 -246.56L-508.86 -246.56L-508.86 -246.64L-508.49 -247.01L-508.41 -247.01L-508.41 -247.09L-508.02 -247.46L-507.96 -247.46L-507.96 -247.52L-507.55 -247.91L-507.51 -247.91L-507.51 -247.94L-507.06 -248.36C-506.22 -249.13 -505.35 -249.88 -504.46 -250.61L-504.35 -250.61L-504.35 -250.69L-503.9 -251.06C-503.33 -251.52 -502.74 -251.96 -502.14 -252.4L-502.1 -252.4L-502.1 -252.44C-500.82 -253.37 -499.51 -254.26 -498.17 -255.1L-498.04 -255.1L-498.04 -255.18C-497.33 -255.61 -496.61 -256.04 -495.89 -256.45L-495.78 -256.45L-495.78 -256.5C-494.38 -257.29 -492.94 -258.02 -491.47 -258.69L-491.28 -258.69L-491.28 -258.78L-490.47 -259.14L-490.37 -259.14L-490.37 -259.18C-486.87 -260.7 -483.2 -261.9 -479.39 -262.73L-479.1 -262.73L-479.1 -262.8C-478.45 -262.94 -477.8 -263.06 -477.15 -263.18L-476.85 -263.18L-476.85 -263.24C-476.04 -263.38 -475.23 -263.51 -474.41 -263.61C-474.48 -264.05 -474.54 -264.49 -474.59 -264.93L-474.59 -265.43L-474.64 -265.43C-474.69 -266.01 -474.72 -266.61 -474.72 -267.21C-474.72 -267.67 -474.71 -268.12 -474.68 -268.57L-474.59 -268.57L-474.59 -269.65C-474.43 -271.14 -474.13 -272.58 -473.7 -273.96L-473.69 -273.99C-473.25 -275.39 -472.68 -276.74 -471.99 -278L-314.43 -278C-313.21 -277.64 -312.03 -277.21 -310.89 -276.71L-310.89 -276.66L-310.77 -276.66C-310.51 -276.54 -310.25 -276.42 -309.99 -276.3L-309.99 -276.21L-309.8 -276.21C-308.45 -275.56 -307.16 -274.83 -305.93 -274.01L-305.93 -273.96L-305.86 -273.96C-304.28 -272.9 -302.79 -271.7 -301.42 -270.38L-301.42 -270.37L-301.41 -270.37L-300.97 -269.94L-300.97 -269.92L-300.95 -269.92L-300.52 -269.48C-299.72 -268.65 -298.97 -267.77 -298.26 -266.86L-298.26 -266.78L-298.2 -266.78C-297.03 -265.24 -295.99 -263.6 -295.11 -261.86L-295.11 -261.83L-295.09 -261.83C-294.94 -261.54 -294.8 -261.24 -294.66 -260.94C-294.33 -260.25 -294.03 -259.54 -293.76 -258.83L-293.76 -258.69L-293.7 -258.69C-293.56 -258.32 -293.43 -257.94 -293.3 -257.57L-293.3 -257.34L-293.23 -257.34C-293.1 -256.94 -292.97 -256.52 -292.85 -256.11L-292.85 -256L-292.82 -256C-292.65 -255.38 -292.5 -254.76 -292.36 -254.13C-291.6 -254.93 -290.81 -255.7 -289.99 -256.45L-289.7 -256.45L-289.7 -256.7L-289.48 -256.9L-289.25 -256.9L-289.25 -257.09L-288.95 -257.34L-288.79 -257.34L-288.79 -257.48L-288.41 -257.79L-288.34 -257.79L-288.34 -257.85C-286.96 -258.96 -285.51 -260 -284 -260.94L-283.83 -260.94L-283.83 -261.04L-283.25 -261.39L-282.93 -261.39L-282.93 -261.58C-282.51 -261.82 -282.09 -262.06 -281.66 -262.28L-281.58 -262.28L-281.58 -262.33L-280.79 -262.73L-280.68 -262.73L-280.68 -262.79L-279.87 -263.18L-279.78 -263.18L-279.78 -263.23L-278.89 -263.63L-278.87 -263.63C-278.16 -263.95 -277.43 -264.25 -276.7 -264.53L-276.17 -264.53L-276.17 -264.72L-275.44 -264.98L-274.81 -264.98L-274.81 -265.19L-274.04 -265.43L-273.46 -265.43L-273.46 -265.6C-273.12 -265.69 -272.78 -265.79 -272.43 -265.88L-272.11 -265.88L-272.11 -265.96C-270.75 -266.3 -269.36 -266.57 -267.95 -266.78L-266.25 -266.78L-266.25 -266.99C-264.82 -267.13 -263.37 -267.21 -261.9 -267.21L-260.93 -267.18C-261.06 -268.69 -261.14 -270.22 -261.14 -271.76C-261.14 -272.96 -261.09 -274.14 -261.01 -275.31L-260.83 -275.31L-260.83 -277.34L-260.76 -278L117.6 -278C118.05 -276.76 118.47 -275.52 118.88 -274.26L118.88 -273.96L118.97 -273.96L119.33 -272.83L119.33 -272.61L119.39 -272.61L119.78 -271.33L119.78 -271.27L119.79 -271.27C120.27 -269.64 120.72 -268 121.13 -266.35L121.13 -266.33C121.28 -265.72 121.44 -265.1 121.58 -264.49L121.58 -264.08L121.68 -264.08L122.03 -262.48L122.03 -262.28L122.07 -262.28C122.22 -261.62 122.35 -260.96 122.48 -260.3L122.48 -260.04L122.53 -260.04C122.85 -258.42 123.13 -256.8 123.39 -255.16L123.39 -254.65L123.46 -254.65C123.6 -253.75 123.72 -252.86 123.83 -251.95L123.83 -251.5L123.89 -251.5C124.31 -248.1 124.6 -244.66 124.74 -241.17L124.74 -238.48L124.82 -238.48C124.83 -237.67 124.84 -236.87 124.84 -236.06C124.84 -235.37 124.83 -234.68 124.82 -233.99L124.74 -233.99L124.74 -230.98C124.68 -229.58 124.6 -228.19 124.5 -226.8L124.29 -226.8L124.29 -224.29C124.08 -222.12 123.82 -219.96 123.5 -217.82L123.39 -217.82L123.39 -217.04C123.29 -216.4 123.18 -215.76 123.08 -215.12L122.93 -215.12L122.93 -214.3L122.67 -212.88L122.48 -212.88L122.48 -211.88L122.23 -210.63L122.03 -210.63L122.03 -209.69C121.9 -209.11 121.77 -208.52 121.64 -207.94L121.58 -207.94L121.58 -207.68C121.43 -207.05 121.28 -206.43 121.13 -205.81C121.99 -205.93 122.86 -206.04 123.72 -206.14L124.74 -206.14L124.74 -206.26C125.87 -206.38 127 -206.49 128.13 -206.59L129.25 -206.59L129.25 -206.68C132.29 -206.91 135.32 -207.02 138.33 -207.04L139.85 -207.04C142.79 -207.01 145.73 -206.89 148.64 -206.66L148.64 -206.59L149.41 -206.59C150.51 -206.5 151.6 -206.39 152.7 -206.26L152.7 -206.14L153.81 -206.14C155.85 -205.89 157.89 -205.6 159.91 -205.25L159.98 -205.24C160.71 -205.12 161.44 -204.98 162.17 -204.84L162.17 -204.79L162.43 -204.79C163.1 -204.66 163.76 -204.53 164.42 -204.39L164.42 -204.34L164.65 -204.34C165.33 -204.2 166 -204.05 166.68 -203.9L166.71 -203.89C167.91 -203.62 169.1 -203.33 170.28 -203.02L170.28 -203L170.38 -203C171.4 -202.73 172.43 -202.45 173.44 -202.16L173.44 -202.1L173.65 -202.1L174.79 -201.77L174.79 -201.65L175.18 -201.65L176.6 -201.21L176.63 -201.2L177.95 -200.77L177.95 -200.75L178.02 -200.75L179.3 -200.32L179.3 -200.3L179.36 -200.3C180.55 -199.89 181.74 -199.47 182.91 -199.03L182.91 -198.95L183.12 -198.95L184.26 -198.51L184.28 -198.5L185.17 -198.16L185.17 -198.05L185.44 -198.05L186.52 -197.61L187.42 -197.24L187.42 -197.15L187.62 -197.15C188.31 -196.86 188.99 -196.57 189.68 -196.26C192.11 -195.18 194.53 -194.02 196.89 -192.79L196.89 -192.66L197.13 -192.66L197.79 -192.32L197.79 -192.21L197.99 -192.21L198.69 -191.84L198.69 -191.77L198.83 -191.77L199.6 -191.34L199.6 -191.32L199.64 -191.32C200.69 -190.74 201.72 -190.15 202.75 -189.54L202.75 -189.52L202.79 -189.52C203.23 -189.26 203.67 -189 204.11 -188.74L204.11 -188.62L204.29 -188.62L205.01 -188.18C205.46 -187.9 205.92 -187.62 206.36 -187.34L206.36 -187.27L206.46 -187.27C206.88 -187.01 207.3 -186.73 207.71 -186.46L207.71 -186.38L207.84 -186.38C208.25 -186.11 208.66 -185.84 209.07 -185.57L209.07 -185.48L209.2 -185.48C210.06 -184.89 210.92 -184.3 211.77 -183.69L211.79 -183.68C212.39 -183.26 212.99 -182.83 213.58 -182.39L213.58 -182.33L213.66 -182.33C214.23 -181.91 214.81 -181.47 215.38 -181.03L215.38 -180.99L215.44 -180.99L215.83 -180.69L215.83 -180.54L216.03 -180.54C216.57 -180.12 217.1 -179.7 217.63 -179.27L217.63 -179.19L217.74 -179.19C219.7 -177.61 221.62 -175.96 223.5 -174.26L223.5 -174.25L223.51 -174.25L223.95 -173.85L223.95 -173.8L224.01 -173.8L224.4 -173.44L224.4 -173.35L224.5 -173.35L224.85 -173.02L224.85 -172.9L224.98 -172.9L225.3 -172.59L225.3 -172.45L225.45 -172.45C227.25 -170.74 229.01 -168.99 230.71 -167.17L230.71 -167.06L230.82 -167.06L231.16 -166.69L231.16 -166.61L231.23 -166.61L231.61 -166.19L231.61 -166.16L231.64 -166.16C232.55 -165.17 233.44 -164.17 234.32 -163.15L234.32 -163.02L234.44 -163.02L234.77 -162.63L234.77 -162.57L234.82 -162.57C235.57 -161.69 236.3 -160.8 237.03 -159.89L237.03 -159.88L237.04 -159.88C237.49 -159.32 237.94 -158.76 238.38 -158.19L238.38 -158.08L238.46 -158.08C238.89 -157.52 239.31 -156.96 239.73 -156.4L239.73 -156.28L239.82 -156.28C240.25 -155.71 240.67 -155.13 241.09 -154.55L241.09 -154.49L241.13 -154.49C241.42 -154.09 241.7 -153.69 241.99 -153.29L241.99 -153.14L242.09 -153.14C243.3 -151.4 244.47 -149.62 245.59 -147.82L245.59 -147.75L245.64 -147.75L246.04 -147.09L246.04 -146.85L246.19 -146.85L246.95 -145.6L246.95 -145.5L247.01 -145.5L247.4 -144.83L247.4 -144.6L247.53 -144.6C247.79 -144.16 248.05 -143.72 248.3 -143.27L248.3 -143.26L248.75 -142.46L248.75 -142.36L248.81 -142.36C250.06 -140.11 251.24 -137.82 252.36 -135.48L252.36 -135.17L252.5 -135.17L252.81 -134.5L252.81 -134.27L252.91 -134.27L253.26 -133.52L253.26 -133.37L253.33 -133.37L253.71 -132.53L253.71 -132.48L253.74 -132.48C254.19 -131.45 254.63 -130.4 255.06 -129.36L255.06 -129.33C255.37 -128.6 255.68 -127.86 255.97 -127.12L255.97 -127.09C256.12 -126.7 256.27 -126.31 256.42 -125.92L256.42 -125.74L256.48 -125.74L256.87 -124.72L256.87 -124.39L256.99 -124.39C257.26 -123.65 257.51 -122.91 257.77 -122.16L257.77 -122.15L258.22 -120.81C258.7 -119.37 259.15 -117.89 259.57 -116.43L259.57 -116.31L259.61 -116.31C259.75 -115.81 259.89 -115.31 260.02 -114.82L260.02 -114.51L260.11 -114.51L260.48 -113.14L260.48 -112.71L260.59 -112.71C260.71 -112.25 260.81 -111.79 260.93 -111.32L260.93 -110.92L261.03 -110.92L261.38 -109.44L261.38 -109.12L261.45 -109.12C261.58 -108.54 261.7 -107.95 261.83 -107.36L261.83 -107.32L261.97 -106.7C262.08 -106.18 262.18 -105.66 262.28 -105.15L262.28 -105.08C262.43 -104.27 262.59 -103.47 262.73 -102.66L262.73 -102.38L262.78 -102.38C262.92 -101.53 263.06 -100.68 263.18 -99.83L263.18 -99.24L263.27 -99.24C263.61 -96.84 263.88 -94.44 264.08 -92.06L264.08 -90.7L264.19 -90.7C264.66 -84.35 264.63 -78.05 264.14 -71.84L264.08 -71.84L264.08 -71.16C263.98 -69.89 263.85 -68.61 263.7 -67.35L263.63 -67.35L263.63 -66.75C263.4 -64.84 263.13 -62.95 262.81 -61.06L262.73 -61.06L262.73 -60.6C262.6 -59.85 262.47 -59.11 262.32 -58.36L262.28 -58.36L262.28 -58.13C262.15 -57.46 262.02 -56.79 261.88 -56.12L261.83 -56.12L261.83 -55.9C261.69 -55.22 261.54 -54.55 261.38 -53.87C261.24 -53.28 261.1 -52.67 260.96 -52.08L260.93 -52.08L260.93 -51.96C260.79 -51.4 260.65 -50.84 260.5 -50.28L260.48 -50.28L260.48 -50.19C260.21 -49.17 259.93 -48.15 259.64 -47.14L259.57 -47.14L259.57 -46.93C259.29 -45.94 258.99 -44.96 258.68 -43.99L258.67 -43.97L258.24 -42.64L258.22 -42.64L258.22 -42.58L257.79 -41.3L257.77 -41.3L257.77 -41.24C257.36 -40.05 256.94 -38.87 256.49 -37.7L256.42 -37.7L256.42 -37.5L255.98 -36.36L255.97 -36.33C255.68 -35.59 255.38 -34.85 255.07 -34.11L255.06 -34.09C254.63 -33.04 254.18 -32 253.72 -30.97L253.71 -30.94L253.32 -30.07L253.26 -30.07L253.26 -29.94L252.91 -29.17L252.81 -29.17L252.81 -28.96C252.1 -27.44 251.36 -25.94 250.6 -24.45C250.89 -24.24 251.17 -24.02 251.46 -23.8L251.46 -23.78L251.49 -23.78L251.91 -23.45L251.91 -23.33L252.06 -23.33C252.94 -22.62 253.79 -21.88 254.61 -21.11L254.61 -21.08L254.64 -21.08L255.06 -20.68L255.06 -20.63L255.11 -20.63L255.51 -20.23L255.51 -20.19L255.56 -20.19L255.97 -19.77L255.97 -19.74L256 -19.74L256.42 -19.3C257.04 -18.64 257.65 -17.95 258.22 -17.25L258.22 -17.04L258.39 -17.04L258.67 -16.69L258.67 -16.59L258.75 -16.59C259.19 -16.04 259.61 -15.47 260.02 -14.88L260.02 -14.8L260.09 -14.8C260.7 -13.93 261.28 -13.03 261.83 -12.11L261.83 -12.1C261.98 -11.85 262.13 -11.59 262.28 -11.34L262.28 -11.2L262.36 -11.2L262.73 -10.52L262.73 -10.3L262.85 -10.3L263.18 -9.65L263.18 -9.41L263.31 -9.41L263.63 -8.74L263.63 -8.51L263.74 -8.51L264.08 -7.76L264.08 -7.61L264.15 -7.61C264.45 -6.94 264.72 -6.26 264.99 -5.56L264.99 -5.36L265.06 -5.36C265.19 -5.01 265.32 -4.66 265.44 -4.31L265.44 -4.02L265.54 -4.02C265.66 -3.65 265.77 -3.28 265.89 -2.91L265.89 -2.67L265.96 -2.67C266.09 -2.22 266.22 -1.77 266.34 -1.31L266.34 -0.87L266.45 -0.87C266.59 -0.3 266.72 0.28 266.84 0.86C267 1.62 267.13 2.37 267.24 3.13L267.24 4.52L267.42 4.52C267.61 6.18 267.7 7.82 267.69 9.46L267.69 9.47C267.68 10.98 267.59 12.47 267.42 13.95L267.24 13.95L267.24 15.33C267.04 16.68 266.77 18.02 266.44 19.34L266.34 19.34L266.34 19.73C266.25 20.05 266.17 20.37 266.07 20.69L265.89 20.69L265.89 21.33C265.77 21.71 265.64 22.1 265.51 22.49L265.44 22.49L265.44 22.7C265.31 23.08 265.17 23.46 265.03 23.83L264.99 23.83L264.99 23.95C264.71 24.67 264.42 25.38 264.11 26.08L264.08 26.08L264.08 26.14L263.7 26.98L263.63 26.98L263.63 27.12L263.26 27.87L263.18 27.87L263.18 28.03L262.8 28.77L262.73 28.77L262.73 28.9C262.59 29.16 262.45 29.42 262.3 29.67L262.28 29.67L262.28 29.71C261.85 30.46 261.41 31.2 260.94 31.92L260.93 31.94C260.63 32.38 260.33 32.83 260.03 33.27L259.7 33.71L259.57 33.71L259.57 33.89C259.28 34.29 258.98 34.68 258.68 35.06L258.32 35.51L258.22 35.51L258.22 35.64L257.95 35.96L257.77 35.96L257.77 36.18C256.34 37.87 254.77 39.45 253.07 40.9L252.81 40.9L252.81 41.12L252.54 41.35L252.36 41.35L252.36 41.5L251.99 41.8L251.91 41.8L251.91 41.87C251.35 42.31 250.79 42.73 250.21 43.15L250.1 43.15L250.1 43.22C249.25 43.83 248.38 44.4 247.48 44.94L247.4 44.94L247.4 44.99L246.72 45.39L246.5 45.39L246.5 45.52L245.92 45.84L245.59 45.84L245.59 46.02L245.08 46.29L244.69 46.29L244.69 46.48C243.53 47.07 242.33 47.61 241.11 48.09L241.08 48.09C240.69 48.24 240.29 48.4 239.89 48.54L239.73 48.54L239.73 48.59C239.35 48.73 238.95 48.86 238.56 48.99L237.93 48.99L237.93 49.18L237.06 49.44L236.57 49.44L236.57 49.57C236.16 49.68 235.73 49.78 235.31 49.88L235.22 49.88L235.22 49.91C234.85 49.99 234.48 50.07 234.1 50.15L233.14 50.33L232.52 50.33L232.52 50.44C231.65 50.58 230.79 50.69 229.93 50.78L227.56 50.78L227.56 50.95C226.04 51.02 224.53 51.01 223.05 50.91L223.05 50.78L221.49 50.78C220.65 50.7 219.82 50.59 218.99 50.45L218.99 50.33L218.3 50.33C217.62 50.21 216.95 50.07 216.28 49.92L216.28 49.88L216.13 49.88C215.73 49.79 215.33 49.69 214.93 49.58L214.93 49.44L214.4 49.44L213.58 49.2L213.58 48.99L212.9 48.99C212.52 48.86 212.15 48.74 211.77 48.6L211.77 48.54L211.58 48.54C211.19 48.4 210.8 48.25 210.42 48.1L210.39 48.09C208.85 47.48 207.36 46.79 205.91 46.02L205.91 45.84L205.59 45.84L205.01 45.52L205.01 45.39L204.79 45.39L204.11 44.99L204.11 44.94L204.02 44.94C203.59 44.69 203.17 44.42 202.75 44.15L202.75 44.04L202.6 44.04C202.27 43.83 201.95 43.61 201.63 43.39C201.62 44.21 201.58 45.03 201.51 45.84L201.4 45.84L201.4 46.9C201.3 47.75 201.16 48.6 200.99 49.44L200.95 49.44L200.95 49.62C200.83 50.16 200.71 50.7 200.56 51.23L200.5 51.23L200.5 51.48C200.14 52.78 199.7 54.04 199.19 55.27L199.15 55.27L199.15 55.38C199.03 55.65 198.92 55.91 198.8 56.17L198.69 56.17L198.69 56.41C197.93 58.05 197.04 59.63 196.01 61.11L195.99 61.11L195.99 61.15C194.26 63.65 192.17 65.91 189.79 67.85L189.68 67.85L189.68 67.94C189.13 68.38 188.57 68.8 188 69.2L187.87 69.2L187.87 69.29C186.73 70.08 185.52 70.8 184.27 71.44C182.92 72.14 181.5 72.74 180.03 73.24L179.75 73.24L179.75 73.33C179.38 73.46 179 73.58 178.61 73.69L178.4 73.69L178.4 73.75C177.61 73.97 176.81 74.17 175.99 74.34C175.52 74.43 175.06 74.52 174.59 74.59L172.99 74.59L172.99 74.79C171.37 74.95 169.76 74.99 168.17 74.92C168 75.41 167.82 75.9 167.64 76.38L167.58 76.38L167.58 76.54C167.31 77.24 167.04 77.94 166.75 78.63L166.68 78.63L166.68 78.82C166.26 79.81 165.82 80.8 165.35 81.78L165.32 81.78L165.32 81.84C165.04 82.42 164.76 83 164.46 83.57L164.42 83.57L164.42 83.65L163.99 84.47L163.97 84.47L163.97 84.51C163.57 85.25 163.16 85.99 162.74 86.72L162.62 86.72L162.62 86.92L162.2 87.61L162.17 87.61L162.17 87.68C161.34 89.03 160.47 90.36 159.55 91.66L159.46 91.66L159.46 91.79C159.17 92.2 158.88 92.6 158.58 93L158.56 93L158.56 93.03L158.24 93.45L158.11 93.45L158.11 93.63C157.69 94.18 157.26 94.72 156.83 95.25L156.75 95.25L156.75 95.34C156.03 96.23 155.28 97.09 154.51 97.95L154.5 97.95L154.5 97.96L154.11 98.39L154.05 98.39L154.05 98.46L153.69 98.84L153.6 98.84L153.6 98.94L153.26 99.29L153.15 99.29L153.15 99.41L152.83 99.74L152.7 99.74L152.7 99.88L152.39 100.19L152.25 100.19L152.25 100.33L151.94 100.64L151.8 100.64L151.8 100.78L151.48 101.09L151.34 101.09L151.34 101.22L151.01 101.54L150.89 101.54L150.89 101.65L150.53 101.99L150.44 101.99L150.44 102.07L150.05 102.44L149.99 102.44L149.99 102.49L149.55 102.89C148.87 103.5 148.17 104.1 147.46 104.68L147.28 104.68L147.28 104.83L146.91 105.13L146.83 105.13L146.83 105.19C146.29 105.63 145.74 106.06 145.19 106.48L145.03 106.48L145.03 106.59L144.58 106.93C143.3 107.87 141.99 108.77 140.63 109.62L140.52 109.62L140.52 109.69C140.07 109.98 139.62 110.25 139.17 110.52L138.4 110.97L138.27 110.97L138.27 111.05C136.32 112.17 134.32 113.19 132.25 114.12L131.95 114.12L131.95 114.25L131.22 114.56L131.05 114.56L131.05 114.64C130.38 114.92 129.7 115.2 129.01 115.46L128.8 115.46L128.8 115.54C127.13 116.18 125.43 116.75 123.7 117.26L123.38 117.26L123.38 117.35C122.95 117.47 122.52 117.59 122.08 117.71L121.58 117.71L121.58 117.84C121.16 117.95 120.73 118.06 120.31 118.16L120.23 118.16L120.23 118.18C119.52 118.34 118.81 118.5 118.1 118.64C117.35 118.79 116.61 118.93 115.87 119.06L115.27 119.06L115.27 119.16C114.43 119.29 113.6 119.4 112.77 119.51L112.56 119.51L112.56 119.53C110.72 119.75 108.88 119.89 107.06 119.95L103.99 119.95L103.99 120C103.54 119.99 103.09 119.98 102.64 119.97Z" fill="#FFFFFF" fill-opacity="1.000000" fill-rule="evenodd"/>
	</g>
	<g mask="url(#mask162_415)">
		<path id="path" d="M2376.61 22.77C2375.2 15.83 2371.27 10.04 2365.96 6.15C2374.24 -9.91 2377.32 -28.78 2373.42 -47.86C2364.67 -90.74 2323.94 -118.98 2281.06 -112.93C2282.63 -119.29 2283.5 -125.94 2283.5 -132.79C2283.5 -152.26 2276.7 -170.14 2265.37 -184.23C2269.8 -189.09 2272.49 -195.55 2272.49 -202.63C2272.49 -217.79 2260.17 -230.07 2244.98 -230.07C2237.11 -230.07 2230.01 -226.77 2225 -221.49C2222.98 -230.95 2214.56 -238.05 2204.46 -238.05C2202.7 -238.05 2200.99 -237.81 2199.35 -237.41C2191.7 -250.33 2177.58 -259 2161.44 -259C2147.85 -259 2135.7 -252.86 2127.62 -243.2C2125.48 -244.37 2123.03 -245.03 2120.42 -245.03C2112.13 -245.03 2105.4 -238.33 2105.4 -230.07C2105.4 -229.27 2105.49 -228.49 2105.62 -227.71C2093.09 -226.03 2082.42 -218.5 2076.46 -207.96C2075.79 -208.05 2075.11 -208.12 2074.39 -208.12C2066.12 -208.12 2059.38 -201.42 2059.38 -193.15C2059.38 -192.02 2059.53 -190.91 2059.77 -189.84C2043.17 -187.59 2030.38 -173.41 2030.38 -156.24C2030.38 -155.22 2030.43 -154.22 2030.52 -153.23L2029.88 -153.25C2022.01 -153.25 2014.91 -149.94 2009.9 -144.67C2007.88 -154.13 1999.46 -161.23 1989.36 -161.23C1987.6 -161.23 1985.9 -160.99 1984.26 -160.58C1976.6 -173.5 1962.49 -182.18 1946.34 -182.18C1932.75 -182.18 1920.6 -176.03 1912.53 -166.38C1910.39 -167.55 1907.94 -168.21 1905.33 -168.21C1897.04 -168.21 1890.32 -161.51 1890.32 -153.25C1890.32 -152.44 1890.41 -151.66 1890.52 -150.89C1877.99 -149.21 1867.32 -141.68 1861.37 -131.14C1860.69 -131.23 1860.01 -131.3 1859.31 -131.3C1851.02 -131.3 1844.3 -124.59 1844.3 -116.33C1844.3 -115.19 1844.43 -114.09 1844.68 -113.01C1839.61 -112.33 1834.89 -110.53 1830.8 -107.87C1829.53 -111.62 1825.98 -114.34 1821.79 -114.34C1820.44 -114.34 1819.16 -114.05 1818 -113.55C1818.18 -114.28 1818.29 -115.05 1818.29 -115.84C1818.29 -120.3 1815.18 -124.04 1811.01 -125.04C1811.82 -126.96 1812.29 -129.07 1812.29 -131.3C1812.29 -139.77 1805.65 -146.68 1797.3 -147.21C1793.66 -155.46 1785.39 -161.23 1775.77 -161.23C1769.85 -161.23 1764.45 -159.04 1760.31 -155.45C1753.89 -163.24 1744.15 -168.21 1733.24 -168.21C1714.67 -168.21 1699.48 -153.78 1698.31 -135.56C1694.65 -136.68 1690.75 -137.28 1686.72 -137.28C1671.95 -137.28 1659.08 -129.19 1652.3 -117.21C1631.01 -115.72 1614.19 -98.04 1614.19 -76.42C1614.19 -53.83 1632.56 -35.52 1655.21 -35.52C1664.73 -35.52 1673.49 -38.76 1680.45 -44.19C1681.97 -22.48 1691.92 -3.1 1707.07 10.73C1705.32 16.84 1704.94 23.43 1706.3 30.08C1710.63 51.26 1730.64 65.25 1751.8 62.47C1760.84 72.86 1775.07 78.23 1789.55 75.29C1793.51 74.49 1797.19 73.12 1800.56 71.29C1805.35 88.92 1823.12 100.03 1841.33 96.34C1852.01 94.17 1860.56 87.36 1865.3 78.44C1870.07 81.15 1875.8 82.21 1881.6 81.03C1891.02 79.12 1897.97 71.83 1899.88 63.02C1905.5 61.5 1909.68 57.13 1911.14 51.83C1922.98 46.01 1933.21 37.47 1941.01 27.01C1943.95 32.98 1950.63 36.47 1957.47 35.08C1958.15 34.94 1958.81 34.74 1959.46 34.52C1967.39 43.67 1979.35 48.92 1991.98 48.07C1992.01 48.85 1992.08 49.63 1992.25 50.42C1993.9 58.52 2001.82 63.75 2009.95 62.1C2012.5 61.58 2014.78 60.44 2016.63 58.87C2026.48 66.72 2039.61 70.33 2052.93 67.63C2068.76 64.41 2080.84 53.1 2085.76 38.91C2087.45 38.99 2089.17 38.88 2090.89 38.54C2100.79 36.52 2107.62 27.89 2107.7 18.21C2113.68 22.39 2121.29 24.21 2129 22.65L2129.62 22.5C2129.74 23.49 2129.88 24.49 2130.09 25.48C2133.53 42.31 2148.9 53.66 2165.62 52.56C2165.59 53.65 2165.68 54.77 2165.9 55.88C2167.56 63.98 2175.49 69.21 2183.6 67.56C2184.3 67.42 2184.96 67.22 2185.59 67C2193.54 76.14 2205.5 81.4 2218.11 80.55C2218.14 81.33 2218.23 82.11 2218.37 82.9C2220.04 91 2227.97 96.23 2236.09 94.58C2238.63 94.06 2240.9 92.92 2242.77 91.35C2252.62 99.2 2265.75 102.81 2279.08 100.11C2294.89 96.89 2306.99 85.58 2311.9 71.39C2313.59 71.47 2315.31 71.36 2317.04 71.02C2326.93 69 2333.76 60.37 2333.85 50.69C2339.82 54.87 2347.44 56.7 2355.13 55.13C2370.04 52.11 2379.64 37.62 2376.61 22.77Z" fill="url(#paint_linear_120_4829_0)" fill-opacity="1.000000" fill-rule="evenodd"/>
	</g>
</svg>
