<svg width="284.042480" height="319.997803" viewBox="0 0 284.042 319.998" fill="none" xmlns="http://www.w3.org/2000/svg" xmlns:xlink="http://www.w3.org/1999/xlink">
	<desc>
			Created with Pixso.
	</desc>
	<defs/>
	<path id="path" d="M75.99 174.65L27.7 147.1C25.94 146.08 26.16 144.3 28.2 143.12L55.98 127.07C58.01 125.89 61.1 125.76 62.87 126.78L111.16 154.34C112.92 155.36 112.7 157.14 110.66 158.31L82.91 174.36C80.65 175.63 78.34 175.73 75.99 174.65Z" fill="#B2D3EA" fill-opacity="0.100000" fill-rule="nonzero"/>
	<path id="path" d="M115.46 145.07L115.46 32.27L70.65 20.54L62.4 15.77C60.5 14.67 57.19 14.81 55.01 16.07L47.31 20.52L23.41 20.52L30.49 129.4C30.48 130.34 30.9 131 31.76 131.38L76.47 165.11C78.37 166.21 81.68 166.03 83.86 164.81L113.66 147.59C114.92 146.88 115.53 145.94 115.46 145.07Z" fill="#396CAA" fill-opacity="1.000000" fill-rule="nonzero"/>
	<path id="path" d="M58.97 15.03C57.56 15.05 56.24 15.4 55.01 16.07L47.31 20.52L23.41 20.52L23.41 133.58C23.4 134.51 23.82 135.17 24.68 135.56L76.47 165.11C77.55 165.66 78.69 165.91 79.9 165.84L80.44 52.04L58.97 15.03Z" fill="#D4ECFF" fill-opacity="1.000000" fill-rule="nonzero"/>
	<path id="path" d="M76.95 165.37C78.92 166.09 80.89 166.07 82.85 165.31L82.85 50.73L76.95 50.73L76.95 165.37Z" fill="#5793CE" fill-opacity="1.000000" fill-rule="nonzero"/>
	<path id="path" d="M76.47 52.08L24.68 22.52C22.78 21.43 23.02 19.52 25.21 18.26L55.01 1.04C57.19 -0.22 60.47 -0.36 62.4 0.73L114.19 30.28C116.09 31.38 115.85 33.29 113.66 34.56L83.86 51.77C81.68 53.04 78.35 53.18 76.47 52.08Z" fill="#D4ECFF" fill-opacity="1.000000" fill-rule="nonzero"/>
	<path id="path" d="M113.66 32.46L83.86 49.68C81.68 50.94 78.4 51.08 76.47 49.99L24.68 20.43C24.31 20.21 24.01 19.94 23.77 19.59C23.12 20.64 23.41 21.78 24.68 22.52L76.47 52.08C78.37 53.18 81.68 53 83.86 51.77L113.66 34.56C115.36 33.58 115.88 32.21 115.14 31.12C114.76 31.69 114.27 32.14 113.66 32.46Z" fill="#FAFDFF" fill-opacity="1.000000" fill-rule="nonzero"/>
	<path id="path" d="M77.93 40.11L43.45 20.1C42.54 19.59 42.68 18.7 43.7 18.1L57.65 10.02C58.78 9.4 59.93 9.35 61.1 9.89L95.59 29.9C96.5 30.42 96.36 31.31 95.34 31.91L81.39 39.96C80.26 40.59 79.11 40.64 77.93 40.11Z" fill="#173D7A" fill-opacity="1.000000" fill-rule="nonzero"/>
	<path id="path" d="M59.32 20.97L57.32 19.81C57.2 19.73 57.21 19.62 57.32 19.53L59.25 18.42C59.41 18.35 59.57 18.35 59.73 18.42L61.72 19.58C61.85 19.65 61.83 19.77 61.72 19.85L59.8 20.97C59.64 21.04 59.48 21.04 59.32 20.97Z" fill="#D4ECFF" fill-opacity="1.000000" fill-rule="nonzero"/>
	<path id="path" d="M66 24.84L64 23.7C63.87 23.64 63.89 23.51 64 23.43L65.93 22.31C66.09 22.23 66.25 22.23 66.41 22.31L68.41 23.46C68.53 23.54 68.52 23.66 68.41 23.75L66.51 24.82C66.34 24.93 66.17 24.93 66 24.84Z" fill="#D4ECFF" fill-opacity="1.000000" fill-rule="nonzero"/>
	<path id="path" d="M72.67 28.68L70.67 27.53C70.55 27.46 70.57 27.33 70.67 27.25L72.6 26.14C72.76 26.05 72.92 26.05 73.07 26.14L75.08 27.29C75.2 27.36 75.18 27.48 75.08 27.57L73.15 28.68C72.99 28.76 72.83 28.76 72.67 28.68Z" fill="#D4ECFF" fill-opacity="1.000000" fill-rule="nonzero"/>
	<path id="path" d="M79.34 32.53L77.35 31.37C77.23 31.3 77.24 31.18 77.35 31.1L79.28 29.97C79.44 29.89 79.6 29.89 79.75 29.97L81.75 31.13C81.88 31.2 81.86 31.32 81.75 31.41L79.82 32.52C79.66 32.59 79.5 32.6 79.34 32.53Z" fill="#D4ECFF" fill-opacity="1.000000" fill-rule="nonzero"/>
	<path id="path" d="M43.46 20.1L43.66 19.95L57.61 11.89C58.74 11.27 59.89 11.23 61.07 11.76L95.51 31.73C96.33 31.15 96.37 30.35 95.51 29.91L61.1 9.91C59.93 9.37 58.78 9.42 57.65 10.04L43.73 18.1C42.68 18.7 42.57 19.59 43.46 20.1Z" fill="#5793CE" fill-opacity="1.000000" fill-rule="nonzero"/>
	<path id="path" d="M89.67 74.43L109.33 63.2C110.63 62.26 111.3 60.99 111.32 59.38L111.32 52.36C111.32 50.89 110.41 50.21 109.33 50.84L89.67 62.08C88.37 63.02 87.7 64.29 87.68 65.9L87.68 72.94C87.68 74.39 88.57 75.07 89.67 74.43Z" fill="#173D7A" fill-opacity="1.000000" fill-rule="nonzero"/>
	<path id="path" d="M110.24 50.63C110.61 51.05 110.78 51.54 110.74 52.09L110.74 59.11C110.71 60.71 110.05 61.97 108.76 62.91L89.16 74.17C88.86 74.35 88.53 74.42 88.18 74.38C88.66 74.8 89.16 74.82 89.67 74.43L109.33 63.2C110.64 62.26 111.3 60.99 111.33 59.38L111.33 52.36C111.29 51.36 110.87 50.74 110.24 50.63Z" fill="#FFFFFF" fill-opacity="1.000000" fill-rule="nonzero"/>
	<path id="path" d="M95.58 66.81L97.4 65.77C97.69 65.56 97.83 65.28 97.84 64.93L97.84 63.02C97.84 62.69 97.64 62.54 97.4 62.68L95.58 63.72C95.29 63.92 95.15 64.2 95.14 64.56L95.14 66.48C95.14 66.8 95.33 66.95 95.58 66.81Z" fill="#396CAA" fill-opacity="1.000000" fill-rule="nonzero"/>
	<path id="path" d="M101.59 63.33L103.42 62.3C103.7 62.09 103.85 61.81 103.85 61.46L103.85 59.54C103.85 59.21 103.65 59.07 103.42 59.2L101.59 60.24C101.29 60.44 101.14 60.72 101.13 61.08L101.13 63.01C101.13 63.33 101.35 63.47 101.59 63.33Z" fill="#FFFFFF" fill-opacity="1.000000" fill-rule="nonzero"/>
	<path id="path" d="M89.67 125.13L109.33 113.89C110.63 112.95 111.3 111.68 111.32 110.07L111.32 103.02C111.32 101.55 110.41 100.87 109.33 101.51L89.67 112.78C88.37 113.72 87.7 114.99 87.68 116.6L87.68 123.62C87.68 125.09 88.57 125.76 89.67 125.13Z" fill="#173D7A" fill-opacity="1.000000" fill-rule="nonzero"/>
	<path id="path" d="M110.24 101.34C110.62 101.75 110.78 102.24 110.74 102.8L110.74 109.82C110.72 111.42 110.05 112.69 108.74 113.63L89.16 124.91C88.86 125.1 88.53 125.17 88.18 125.13C88.67 125.55 89.16 125.56 89.67 125.17L109.33 113.89C110.64 112.96 111.31 111.68 111.33 110.07L111.33 103.02C111.29 102.06 110.87 101.44 110.24 101.34Z" fill="#FFFFFF" fill-opacity="1.000000" fill-rule="nonzero"/>
	<path id="path" d="M95.58 117.5L97.4 116.46C97.68 116.26 97.83 115.98 97.84 115.63L97.84 113.71C97.84 113.39 97.64 113.25 97.4 113.38L95.58 114.42C95.29 114.62 95.14 114.9 95.14 115.25L95.14 117.17C95.14 117.49 95.33 117.61 95.58 117.5Z" fill="#396CAA" fill-opacity="1.000000" fill-rule="nonzero"/>
	<path id="path" d="M101.59 114.03L103.41 112.99C103.71 112.78 103.86 112.5 103.86 112.14L103.86 110.22C103.86 109.9 103.66 109.75 103.42 109.89L101.6 110.93C101.31 111.13 101.17 111.41 101.16 111.76L101.16 113.68C101.13 114.02 101.35 114.17 101.59 114.03Z" fill="#FFFFFF" fill-opacity="1.000000" fill-rule="nonzero"/>
	<path id="path" d="M89.67 150.48L109.33 139.25C110.63 138.31 111.3 137.04 111.32 135.43L111.32 128.41C111.32 126.94 110.41 126.26 109.33 126.89L89.67 138.13C88.37 139.07 87.7 140.34 87.68 141.95L87.68 148.97C87.68 150.44 88.57 151.12 89.67 150.48Z" fill="#173D7A" fill-opacity="1.000000" fill-rule="nonzero"/>
	<path id="path" d="M110.24 126.73C110.61 127.14 110.78 127.63 110.74 128.19L110.74 135.21C110.72 136.82 110.05 138.09 108.74 139.03L89.16 150.22C88.86 150.4 88.53 150.47 88.18 150.43C88.66 150.85 89.16 150.87 89.67 150.48L109.33 139.25C110.64 138.31 111.3 137.04 111.33 135.43L111.33 128.41C111.29 127.41 110.87 126.79 110.24 126.73Z" fill="#FFFFFF" fill-opacity="1.000000" fill-rule="nonzero"/>
	<path id="path" d="M95.58 142.86L97.4 141.82C97.69 141.61 97.83 141.33 97.84 140.98L97.84 139.07C97.84 138.74 97.64 138.59 97.4 138.73L95.58 139.77C95.29 139.97 95.15 140.25 95.14 140.61L95.14 142.53C95.14 142.85 95.33 143 95.58 142.86Z" fill="#396CAA" fill-opacity="1.000000" fill-rule="nonzero"/>
	<path id="path" d="M101.59 139.39L103.41 138.35C103.7 138.14 103.84 137.86 103.85 137.51L103.85 135.59C103.85 135.26 103.65 135.12 103.41 135.25L101.59 136.29C101.3 136.5 101.16 136.78 101.16 137.13L101.16 139.06C101.13 139.38 101.35 139.49 101.59 139.39Z" fill="#FFFFFF" fill-opacity="1.000000" fill-rule="nonzero"/>
	<path id="path" d="M89.67 99.78L109.33 88.54C110.63 87.61 111.3 86.33 111.32 84.72L111.32 77.71C111.32 76.24 110.41 75.56 109.33 76.2L89.67 87.43C88.37 88.37 87.7 89.64 87.68 91.25L87.68 98.26C87.68 99.74 88.57 100.42 89.67 99.78Z" fill="#173D7A" fill-opacity="1.000000" fill-rule="nonzero"/>
	<path id="path" d="M110.24 75.99C110.62 76.4 110.78 76.89 110.74 77.45L110.74 84.46C110.72 86.07 110.05 87.34 108.74 88.28L89.16 99.51C88.86 99.71 88.53 99.78 88.18 99.72C88.66 100.15 89.16 100.17 89.67 99.78L109.33 88.54C110.64 87.61 111.3 86.33 111.33 84.72L111.33 77.71C111.29 76.71 110.87 76.09 110.24 75.99Z" fill="#FFFFFF" fill-opacity="1.000000" fill-rule="nonzero"/>
	<path id="path" d="M95.58 92.16L97.4 91.12C97.68 90.91 97.83 90.64 97.84 90.29L97.84 88.36C97.84 88.04 97.64 87.9 97.4 88.03L95.58 89.07C95.29 89.27 95.14 89.55 95.14 89.9L95.14 91.83C95.14 92.15 95.33 92.29 95.58 92.16Z" fill="#396CAA" fill-opacity="1.000000" fill-rule="nonzero"/>
	<path id="path" d="M101.59 88.68L103.41 87.64C103.7 87.44 103.84 87.16 103.85 86.81L103.85 84.89C103.85 84.57 103.65 84.41 103.41 84.56L101.59 85.6C101.3 85.8 101.16 86.08 101.16 86.43L101.16 88.35C101.13 88.67 101.35 88.82 101.59 88.68Z" fill="#FFFFFF" fill-opacity="1.000000" fill-rule="nonzero"/>
	<path id="path" d="M72.7 67.25L27.46 41.12C26.27 40.25 25.66 39.08 25.64 37.61L25.64 28.98C25.64 27.62 26.46 27 27.46 27.59L72.7 53.72C73.9 54.59 74.5 55.75 74.52 57.23L74.52 65.86C74.53 67.21 73.71 67.83 72.7 67.25Z" fill="#5793CE" fill-opacity="1.000000" fill-rule="nonzero"/>
	<g opacity="0.400000">
		<path id="path" d="M71.4 64.22L28.77 39.6C28.15 39.15 27.84 38.54 27.86 37.78L27.86 31.32C27.86 30.63 28.27 30.32 28.77 30.61L71.4 55.23C72 55.67 72.3 56.26 72.31 57.01L72.31 63.5C72.33 64.2 71.91 64.52 71.4 64.22Z" fill="#D4ECFF" fill-opacity="1.000000" fill-rule="nonzero"/>
	</g>
	<path id="path" d="M37.65 41.44L31.27 37.8C30.68 37.37 30.38 36.8 30.36 36.07C30.36 35.41 30.77 35.1 31.27 35.39L37.65 39.04C38.25 39.46 38.55 40.04 38.56 40.77C38.55 41.43 38.15 41.73 37.65 41.44Z" fill="#D4ECFF" fill-opacity="1.000000" fill-rule="nonzero"/>
	<ellipse id="ellipse" rx="0.847479" ry="1.476783" transform="matrix(0.86587 -0.500269 0.499733 0.86618 42.0332 42.7799)" fill="#173D7A" fill-opacity="1.000000"/>
	<path id="path" d="M46.75 45.49C46.75 46.16 46.29 46.4 45.71 46.09C45.05 45.66 44.7 45.06 44.67 44.27C44.67 43.6 45.13 43.36 45.71 43.67C46.37 44.09 46.72 44.7 46.75 45.49Z" fill="#173D7A" fill-opacity="1.000000" fill-rule="nonzero"/>
	<path id="path" d="M50.43 47.62C50.43 48.28 49.96 48.53 49.39 48.22C48.73 47.79 48.38 47.18 48.35 46.39C48.35 45.73 48.81 45.48 49.39 45.79C50.05 46.22 50.4 46.83 50.43 47.62Z" fill="#D4ECFF" fill-opacity="1.000000" fill-rule="nonzero"/>
	<path id="path" d="M54.11 49.74C54.11 50.41 53.64 50.65 53.07 50.34C52.41 49.91 52.06 49.31 52.02 48.52C52.02 47.85 52.49 47.61 53.07 47.92C53.72 48.35 54.07 48.96 54.11 49.74Z" fill="#173D7A" fill-opacity="1.000000" fill-rule="nonzero"/>
	<path id="path" d="M69.6 60.61L67.46 59.37C67.08 59.1 66.89 58.73 66.88 58.26L66.88 55.99C66.88 55.57 67.14 55.37 67.46 55.55L69.6 56.79C69.97 57.07 70.15 57.44 70.15 57.9L70.15 60.17C70.15 60.59 69.92 60.79 69.6 60.61Z" fill="#173D7A" fill-opacity="1.000000" fill-rule="nonzero"/>
	<path id="path" d="M72.7 82.46L27.46 56.33C26.27 55.47 25.66 54.3 25.64 52.83L25.64 44.2C25.64 42.85 26.46 42.23 27.46 42.81L72.7 68.94C73.9 69.81 74.51 70.98 74.52 72.45L74.52 81.08C74.53 82.43 73.71 83.05 72.7 82.46Z" fill="#5793CE" fill-opacity="1.000000" fill-rule="nonzero"/>
	<g opacity="0.400000">
		<path id="path" d="M71.4 79.44L28.77 54.82C28.17 54.38 27.86 53.79 27.86 53.04L27.86 46.54C27.86 45.86 28.27 45.54 28.77 45.84L71.4 70.46C72 70.9 72.3 71.49 72.31 72.23L72.31 78.73C72.33 79.42 71.91 79.74 71.4 79.44Z" fill="#D4ECFF" fill-opacity="1.000000" fill-rule="nonzero"/>
	</g>
	<path id="path" d="M37.65 56.66L31.27 53.01C30.68 52.59 30.38 52.01 30.36 51.28C30.36 50.62 30.77 50.31 31.27 50.6L37.65 54.24C38.25 54.66 38.55 55.24 38.56 55.97C38.55 56.64 38.15 56.94 37.65 56.66Z" fill="#D4ECFF" fill-opacity="1.000000" fill-rule="nonzero"/>
	<path id="path" d="M43.07 58.58C43.07 59.25 42.61 59.5 42.02 59.19C41.37 58.76 41.02 58.15 40.99 57.36C40.99 56.7 41.45 56.45 42.02 56.76C42.69 57.19 43.04 57.8 43.07 58.58Z" fill="#FFFFFF" fill-opacity="1.000000" fill-rule="nonzero"/>
	<path id="path" d="M46.75 60.71C46.75 61.37 46.29 61.62 45.71 61.32C45.05 60.89 44.71 60.28 44.67 59.5C44.67 58.83 45.13 58.58 45.71 58.89C46.36 59.32 46.71 59.93 46.75 60.71Z" fill="#173D7A" fill-opacity="1.000000" fill-rule="nonzero"/>
	<path id="path" d="M50.43 62.84C50.43 63.51 49.96 63.75 49.39 63.44C48.73 63.01 48.39 62.4 48.35 61.62C48.35 60.96 48.81 60.71 49.39 61.02C50.04 61.45 50.39 62.06 50.43 62.84Z" fill="#D4ECFF" fill-opacity="1.000000" fill-rule="nonzero"/>
	<ellipse id="ellipse" rx="0.847479" ry="1.476787" transform="matrix(0.86587 -0.500269 0.499729 0.866182 53.0684 64.376)" fill="#173D7A" fill-opacity="1.000000"/>
	<path id="path" d="M69.6 75.83L67.46 74.59C67.08 74.32 66.89 73.95 66.88 73.48L66.88 71.21C66.88 70.78 67.14 70.58 67.46 70.77L69.6 72.02C69.96 72.3 70.14 72.67 70.15 73.12L70.15 75.39C70.15 75.82 69.92 76.01 69.6 75.83Z" fill="#173D7A" fill-opacity="1.000000" fill-rule="nonzero"/>
	<path id="path" d="M72.7 97.69L27.46 71.55C26.27 70.69 25.66 69.52 25.64 68.05L25.64 59.41C25.64 58.06 26.46 57.44 27.46 58.03L72.7 84.16C73.89 85.03 74.5 86.2 74.52 87.67L74.52 96.29C74.53 97.65 73.71 98.27 72.7 97.69Z" fill="#5793CE" fill-opacity="1.000000" fill-rule="nonzero"/>
	<g opacity="0.400000">
		<path id="path" d="M71.4 94.66L28.77 70.05C28.15 69.59 27.85 68.99 27.86 68.22L27.86 61.76C27.86 61.07 28.27 60.76 28.77 61.06L71.4 85.7C72.01 86.15 72.32 86.76 72.31 87.52L72.31 94.01C72.33 94.64 71.91 94.95 71.4 94.66Z" fill="#D4ECFF" fill-opacity="1.000000" fill-rule="nonzero"/>
	</g>
	<path id="path" d="M37.65 71.88L31.27 68.23C30.68 67.81 30.38 67.23 30.36 66.51C30.36 65.84 30.77 65.53 31.27 65.82L37.65 69.47C38.25 69.89 38.55 70.46 38.56 71.19C38.55 71.86 38.15 72.17 37.65 71.88Z" fill="#D4ECFF" fill-opacity="1.000000" fill-rule="nonzero"/>
	<path id="path" d="M43.07 73.85C43.07 74.51 42.61 74.76 42.02 74.45C41.37 74.02 41.02 73.41 40.99 72.63C40.99 71.96 41.45 71.71 42.02 72.02C42.68 72.45 43.03 73.06 43.07 73.85Z" fill="#FFFFFF" fill-opacity="1.000000" fill-rule="nonzero"/>
	<path id="path" d="M46.75 75.94C46.75 76.6 46.29 76.85 45.71 76.54C45.05 76.12 44.7 75.53 44.64 74.76C44.64 74.09 45.1 73.85 45.68 74.16C46.34 74.57 46.7 75.16 46.75 75.94Z" fill="#173D7A" fill-opacity="1.000000" fill-rule="nonzero"/>
	<path id="path" d="M50.43 78.06C50.43 78.73 49.96 78.97 49.39 78.66C48.73 78.23 48.38 77.62 48.35 76.84C48.35 76.17 48.81 75.93 49.39 76.24C50.05 76.66 50.4 77.27 50.43 78.06Z" fill="#D4ECFF" fill-opacity="1.000000" fill-rule="nonzero"/>
	<path id="path" d="M54.11 80.23C54.11 80.9 53.64 81.14 53.07 80.83C52.41 80.4 52.06 79.79 52.02 79.01C52.02 78.34 52.49 78.1 53.07 78.41C53.73 78.84 54.07 79.44 54.11 80.23Z" fill="#173D7A" fill-opacity="1.000000" fill-rule="nonzero"/>
	<path id="path" d="M69.6 91.04L67.46 89.81C67.08 89.54 66.89 89.17 66.88 88.7L66.88 86.43C66.88 86 67.14 85.81 67.46 85.99L69.6 87.23C69.97 87.51 70.15 87.88 70.15 88.34L70.15 90.61C70.15 91.03 69.92 91.23 69.6 91.04Z" fill="#173D7A" fill-opacity="1.000000" fill-rule="nonzero"/>
	<path id="path" d="M72.7 112.91L27.46 86.78C26.27 85.91 25.66 84.74 25.64 83.27L25.64 74.64C25.64 73.28 26.46 72.66 27.46 73.25L72.7 99.38C73.9 100.24 74.5 101.4 74.52 102.88L74.52 111.51C74.53 112.87 73.71 113.49 72.7 112.91Z" fill="#5793CE" fill-opacity="1.000000" fill-rule="nonzero"/>
	<g opacity="0.400000">
		<path id="path" d="M71.4 109.88L28.77 85.26C28.15 84.81 27.84 84.21 27.86 83.44L27.86 76.98C27.86 76.29 28.27 75.98 28.77 76.27L71.4 100.89C72 101.33 72.3 101.92 72.31 102.67L72.31 109.16C72.33 109.86 71.91 110.18 71.4 109.88Z" fill="#D4ECFF" fill-opacity="1.000000" fill-rule="nonzero"/>
	</g>
	<path id="path" d="M37.65 87.1L31.27 83.46C30.68 83.04 30.38 82.46 30.36 81.73C30.36 81.07 30.77 80.76 31.27 81.05L37.65 84.7C38.25 85.12 38.55 85.7 38.56 86.43C38.55 87.09 38.15 87.39 37.65 87.1Z" fill="#D4ECFF" fill-opacity="1.000000" fill-rule="nonzero"/>
	<path id="path" d="M43.07 89.03C43.07 89.69 42.61 89.94 42.02 89.63C41.37 89.2 41.02 88.59 40.99 87.81C40.99 87.14 41.45 86.89 42.02 87.2C42.69 87.63 43.04 88.24 43.07 89.03Z" fill="#173D7A" fill-opacity="1.000000" fill-rule="nonzero"/>
	<ellipse id="ellipse" rx="0.847479" ry="1.476787" transform="matrix(0.86587 -0.500269 0.499732 0.866181 45.709 90.5637)" fill="#173D7A" fill-opacity="1.000000"/>
	<path id="path" d="M50.43 93.28C50.43 93.94 49.96 94.19 49.39 93.88C48.73 93.45 48.38 92.84 48.35 92.06C48.35 91.39 48.81 91.14 49.39 91.45C50.05 91.88 50.4 92.49 50.43 93.28Z" fill="#D4ECFF" fill-opacity="1.000000" fill-rule="nonzero"/>
	<path id="path" d="M54.11 95.4C54.11 96.07 53.64 96.31 53.07 96C52.41 95.57 52.06 94.97 52.02 94.18C52.02 93.51 52.49 93.27 53.07 93.58C53.72 94.01 54.07 94.62 54.11 95.4Z" fill="#173D7A" fill-opacity="1.000000" fill-rule="nonzero"/>
	<path id="path" d="M69.6 106.27L67.46 105.03C67.08 104.76 66.89 104.39 66.88 103.92L66.88 101.65C66.88 101.23 67.14 101.03 67.46 101.21L69.6 102.45C69.98 102.72 70.18 103.09 70.19 103.56L70.19 105.83C70.15 106.25 69.92 106.45 69.6 106.27Z" fill="#D4ECFF" fill-opacity="1.000000" fill-rule="nonzero"/>
	<path id="path" d="M72.7 128.12L27.46 101.99C26.27 101.13 25.66 99.97 25.64 98.49L25.64 89.86C25.64 88.51 26.46 87.89 27.46 88.47L72.7 114.6C73.9 115.46 74.5 116.63 74.52 118.1L74.52 126.73C74.53 128.09 73.71 128.71 72.7 128.12Z" fill="#5793CE" fill-opacity="1.000000" fill-rule="nonzero"/>
	<g opacity="0.400000">
		<path id="path" d="M71.4 125.1L28.77 100.48C28.15 100.03 27.85 99.42 27.86 98.66L27.86 92.16C27.86 91.48 28.27 91.16 28.77 91.46L71.4 116.08C72 116.52 72.3 117.11 72.31 117.86L72.31 124.35C72.33 125.08 71.91 125.4 71.4 125.1Z" fill="#D4ECFF" fill-opacity="1.000000" fill-rule="nonzero"/>
	</g>
	<path id="path" d="M37.65 102.32L31.27 98.67C30.68 98.25 30.38 97.67 30.36 96.94C30.36 96.28 30.77 95.98 31.27 96.26L37.65 99.91C38.25 100.33 38.55 100.9 38.56 101.63C38.55 102.3 38.15 102.6 37.65 102.32Z" fill="#D4ECFF" fill-opacity="1.000000" fill-rule="nonzero"/>
	<path id="path" d="M43.07 104.25C43.07 104.91 42.61 105.16 42.02 104.85C41.37 104.42 41.03 103.81 41 103.02C41 102.36 41.46 102.11 42.03 102.42C42.69 102.85 43.04 103.46 43.07 104.25Z" fill="#173D7A" fill-opacity="1.000000" fill-rule="nonzero"/>
	<path id="path" d="M46.75 106.37C46.75 107.04 46.29 107.28 45.71 106.97C45.05 106.54 44.7 105.93 44.67 105.15C44.67 104.48 45.13 104.24 45.71 104.55C46.37 104.97 46.72 105.58 46.75 106.37Z" fill="#FFFFFF" fill-opacity="1.000000" fill-rule="nonzero"/>
	<path id="path" d="M50.43 108.49C50.43 109.16 49.96 109.41 49.39 109.1C48.73 108.66 48.39 108.06 48.35 107.27C48.35 106.61 48.81 106.36 49.39 106.67C50.04 107.1 50.39 107.71 50.43 108.49Z" fill="#D4ECFF" fill-opacity="1.000000" fill-rule="nonzero"/>
	<path id="path" d="M54.11 110.63C54.11 111.29 53.64 111.54 53.07 111.23C52.41 110.8 52.06 110.19 52.02 109.41C52.02 108.74 52.49 108.49 53.07 108.8C53.72 109.24 54.07 109.85 54.11 110.63Z" fill="#FFFFFF" fill-opacity="1.000000" fill-rule="nonzero"/>
	<path id="path" d="M69.6 121.49L67.46 120.25C67.08 119.98 66.89 119.61 66.88 119.14L66.88 116.87C66.88 116.45 67.14 116.24 67.46 116.44L69.6 117.67C69.98 117.94 70.18 118.31 70.19 118.78L70.19 121.05C70.15 121.48 69.92 121.67 69.6 121.49Z" fill="#D4ECFF" fill-opacity="1.000000" fill-rule="nonzero"/>
	<path id="path" d="M72.7 143.35L27.46 117.21C26.27 116.35 25.66 115.18 25.64 113.71L25.64 105.08C25.64 103.73 26.46 103.11 27.46 103.69L72.7 129.82C73.89 130.69 74.5 131.86 74.52 133.33L74.52 141.96C74.53 143.31 73.71 143.93 72.7 143.35Z" fill="#5793CE" fill-opacity="1.000000" fill-rule="nonzero"/>
	<g opacity="0.400000">
		<path id="path" d="M71.4 140.32L28.77 115.71C28.15 115.26 27.85 114.65 27.86 113.88L27.86 107.39C27.86 106.71 28.27 106.39 28.77 106.69L71.4 131.31C72.01 131.76 72.32 132.37 72.31 133.13L72.31 139.61C72.33 140.31 71.91 140.62 71.4 140.32Z" fill="#D4ECFF" fill-opacity="1.000000" fill-rule="nonzero"/>
	</g>
	<path id="path" d="M37.65 117.54L31.27 113.89C30.68 113.47 30.38 112.9 30.36 112.17C30.36 111.5 30.77 111.19 31.27 111.49L37.65 115.13C38.25 115.55 38.55 116.13 38.56 116.86C38.55 117.52 38.15 117.83 37.65 117.54Z" fill="#D4ECFF" fill-opacity="1.000000" fill-rule="nonzero"/>
	<ellipse id="ellipse" rx="0.847479" ry="1.476780" transform="matrix(0.86587 -0.500269 0.499733 0.86618 42.0244 118.874)" fill="#173D7A" fill-opacity="1.000000"/>
	<path id="path" d="M46.75 121.6C46.75 122.26 46.29 122.51 45.71 122.2C45.05 121.77 44.7 121.16 44.67 120.37C44.67 119.71 45.13 119.46 45.71 119.76C46.37 120.2 46.72 120.81 46.75 121.6Z" fill="#173D7A" fill-opacity="1.000000" fill-rule="nonzero"/>
	<path id="path" d="M50.43 123.72C50.43 124.39 49.96 124.63 49.39 124.32C48.73 123.89 48.38 123.28 48.35 122.5C48.35 121.83 48.81 121.59 49.39 121.9C50.05 122.33 50.4 122.93 50.43 123.72Z" fill="#D4ECFF" fill-opacity="1.000000" fill-rule="nonzero"/>
	<path id="path" d="M54.11 125.82C54.11 126.48 53.64 126.73 53.07 126.42C52.41 125.99 52.06 125.38 52.02 124.6C52.02 123.93 52.49 123.68 53.07 123.99C53.73 124.42 54.07 125.03 54.11 125.82Z" fill="#173D7A" fill-opacity="1.000000" fill-rule="nonzero"/>
	<path id="path" d="M69.6 136.7L67.46 135.46C67.08 135.2 66.89 134.83 66.88 134.36L66.88 132.09C66.88 131.66 67.14 131.47 67.46 131.65L69.6 132.89C69.98 133.18 70.16 133.55 70.15 134.02L70.15 136.29C70.15 136.7 69.92 136.89 69.6 136.7Z" fill="#173D7A" fill-opacity="1.000000" fill-rule="nonzero"/>
	<path id="path" d="M72.7 158.57L27.46 132.44C26.27 131.57 25.66 130.4 25.64 128.93L25.64 120.35C25.64 118.99 26.46 118.37 27.46 118.95L72.7 145.05C73.9 145.91 74.5 147.07 74.52 148.55L74.52 157.18C74.53 158.53 73.71 159.15 72.7 158.57Z" fill="#5793CE" fill-opacity="1.000000" fill-rule="nonzero"/>
	<g opacity="0.400000">
		<path id="path" d="M71.4 155.54L28.77 130.92C28.15 130.47 27.84 129.87 27.86 129.1L27.86 122.62C27.86 121.92 28.27 121.61 28.77 121.91L71.4 146.52C72.01 146.98 72.32 147.58 72.31 148.35L72.31 154.84C72.33 155.52 71.91 155.83 71.4 155.54Z" fill="#D4ECFF" fill-opacity="1.000000" fill-rule="nonzero"/>
	</g>
	<path id="path" d="M37.65 132.76L31.27 129.11C30.68 128.69 30.38 128.11 30.36 127.39C30.36 126.72 30.77 126.41 31.27 126.7L37.65 130.35C38.25 130.77 38.55 131.35 38.56 132.08C38.55 132.75 38.15 133.05 37.65 132.76Z" fill="#D4ECFF" fill-opacity="1.000000" fill-rule="nonzero"/>
	<path id="path" d="M44.24 135.51C44.24 136.77 43.33 137.28 42.26 136.65C41.03 135.84 40.38 134.71 40.29 133.24C40.29 131.98 41.2 131.47 42.26 132.1C43.5 132.9 44.16 134.04 44.24 135.51Z" fill="#FFFFFF" fill-opacity="1.000000" fill-rule="nonzero"/>
	<path id="path" d="M51.85 139.98C51.85 140.64 51.39 140.89 50.81 140.58C50.15 140.15 49.81 139.54 49.77 138.75C49.77 138.09 50.23 137.84 50.81 138.15C51.47 138.58 51.82 139.19 51.85 139.98Z" fill="#173D7A" fill-opacity="1.000000" fill-rule="nonzero"/>
	<path id="path" d="M55.57 142.1C55.57 142.77 55.1 143.01 54.52 142.7C53.87 142.27 53.52 141.67 53.49 140.88C53.49 140.21 53.95 139.97 54.52 140.28C55.19 140.71 55.53 141.32 55.57 142.1Z" fill="#D4ECFF" fill-opacity="1.000000" fill-rule="nonzero"/>
	<path id="path" d="M59.22 144.23C59.22 144.89 58.74 145.14 58.17 144.83C57.51 144.4 57.17 143.79 57.13 143C57.13 142.34 57.6 142.09 58.17 142.4C58.83 142.83 59.18 143.44 59.22 144.23Z" fill="#173D7A" fill-opacity="1.000000" fill-rule="nonzero"/>
	<path id="path" d="M69.6 151.93L67.46 150.69C67.08 150.42 66.89 150.05 66.88 149.58L66.88 147.31C66.88 146.89 67.14 146.69 67.46 146.87L69.6 148.11C69.98 148.38 70.18 148.75 70.19 149.22L70.19 151.49C70.15 151.91 69.92 152.11 69.6 151.93Z" fill="#D4ECFF" fill-opacity="1.000000" fill-rule="nonzero"/>
	<path id="path" d="M69.69 196.78C69.54 196.78 69.39 196.74 69.25 196.66L17.83 167.42C17.15 167.05 16.82 166.48 16.81 165.71C16.81 164.94 17.14 164.36 17.8 163.97L39.86 150.95C40.69 150.44 41.11 149.71 41.12 148.73L41.12 134.37C41.12 133.76 41.43 133.46 42.03 133.46C42.64 133.46 42.94 133.76 42.94 134.37L42.94 148.73C42.94 150.4 42.22 151.66 40.79 152.51L18.73 165.54C18.67 165.57 18.64 165.62 18.64 165.69C18.64 165.76 18.67 165.8 18.73 165.84L70.15 195.11C70.55 195.35 70.68 195.69 70.56 196.13C70.45 196.58 70.16 196.78 69.69 196.78Z" fill="#5793CE" fill-opacity="1.000000" fill-rule="nonzero"/>
	<rect id="rect" x="62.331055" y="188.991943" width="4.886158" height="10.543343" transform="rotate(119.812 62.331055 188.991943)" fill="#5793CE" fill-opacity="1.000000"/>
	<path id="path" d="M50.25 186.91C50.29 185.6 50.85 184.59 51.93 183.86C52.88 183.31 53.66 183.75 53.66 184.85C53.59 186.12 53.03 187.11 51.97 187.82C51.02 188.41 50.25 187.96 50.25 186.91Z" fill="#5793CE" fill-opacity="1.000000" fill-rule="nonzero"/>
	<rect id="rect" x="75.832520" y="194.998779" width="7.921779" height="16.539476" transform="rotate(119.812 75.832520 194.998779)" fill="#5793CE" fill-opacity="1.000000"/>
	<path id="path" d="M60.83 188.13L57.73 186.3C56.33 187.38 55.52 188.8 55.3 190.55L58.4 192.38C59.8 191.3 60.61 189.88 60.83 188.13Z" fill="#396CAA" fill-opacity="1.000000" fill-rule="nonzero"/>
	<path id="path" d="M56.72 191.82C56.83 189.73 57.76 188.11 59.51 186.96C61.05 186.05 62.31 186.78 62.31 188.57C62.21 190.66 61.28 192.28 59.53 193.43C57.99 194.32 56.73 193.6 56.72 191.82Z" fill="#5793CE" fill-opacity="1.000000" fill-rule="nonzero"/>
	<path id="path" d="M53.13 185.73C52.68 185.47 52.68 185.06 53.13 184.82C53.67 184.55 54.21 184.55 54.75 184.82C55.2 185.07 55.2 185.49 54.75 185.73C54.21 186 53.67 186 53.13 185.73Z" fill="#D4ECFF" fill-opacity="1.000000" fill-rule="nonzero"/>
	<rect id="rect" x="51.215820" y="195.722168" width="4.886158" height="10.543356" transform="rotate(119.812 51.215820 195.722168)" fill="#5793CE" fill-opacity="1.000000"/>
	<path id="path" d="M39.17 193.59C39.22 192.29 39.78 191.28 40.85 190.55C41.76 190 42.57 190.44 42.58 191.55C42.51 192.84 41.94 193.84 40.86 194.55C39.9 195.11 39.17 194.69 39.17 193.59Z" fill="#5793CE" fill-opacity="1.000000" fill-rule="nonzero"/>
	<rect id="rect" x="64.718262" y="201.715454" width="7.921779" height="16.539476" transform="rotate(119.812 64.718262 201.715454)" fill="#5793CE" fill-opacity="1.000000"/>
	<path id="path" d="M49.71 194.85L46.62 193.02C45.21 194.1 44.4 195.52 44.18 197.27L47.28 199.04C48.67 197.98 49.48 196.58 49.71 194.85Z" fill="#396CAA" fill-opacity="1.000000" fill-rule="nonzero"/>
	<path id="path" d="M45.6 198.54C45.71 196.45 46.64 194.83 48.39 193.68C49.93 192.77 51.19 193.51 51.19 195.29C51.1 197.37 50.18 198.99 48.46 200.15C46.86 201.05 45.61 200.33 45.6 198.54Z" fill="#5793CE" fill-opacity="1.000000" fill-rule="nonzero"/>
	<path id="path" d="M42.02 192.46C41.81 192.38 41.71 192.22 41.71 192C41.71 191.78 41.81 191.63 42.02 191.55C42.56 191.28 43.1 191.28 43.64 191.55C44.08 191.8 44.09 192.22 43.64 192.46C43.1 192.73 42.56 192.73 42.02 192.46Z" fill="#D4ECFF" fill-opacity="1.000000" fill-rule="nonzero"/>
	<path id="path" d="M226.48 114.88C226.41 114.89 226.34 114.89 226.27 114.88C225.68 114.74 225.45 114.38 225.58 113.79L234.48 75.18C234.61 74.59 234.98 74.36 235.57 74.49C236.16 74.63 236.39 75 236.25 75.59L227.36 114.19C227.24 114.65 226.95 114.88 226.48 114.88Z" fill="#5793CE" fill-opacity="1.000000" fill-rule="nonzero"/>
	<path id="path" d="M214.67 112.14C214.6 112.15 214.53 112.15 214.46 112.14C213.87 112.01 213.64 111.64 213.78 111.05L222.66 72.44C222.72 72.19 222.85 72 223.07 71.86C223.29 71.72 223.52 71.68 223.78 71.74C224.03 71.79 224.22 71.93 224.36 72.15C224.5 72.37 224.54 72.6 224.48 72.85L215.6 111.46C215.48 111.94 215.17 112.17 214.67 112.14Z" fill="#5793CE" fill-opacity="1.000000" fill-rule="nonzero"/>
	<path id="path" d="M202.85 109.41C202.79 109.42 202.72 109.42 202.65 109.41C202.06 109.27 201.83 108.91 201.97 108.31L210.85 69.71C210.99 69.12 211.35 68.89 211.95 69.02C212.54 69.16 212.77 69.53 212.63 70.12L203.75 108.72C203.63 109.18 203.33 109.41 202.85 109.41Z" fill="#5793CE" fill-opacity="1.000000" fill-rule="nonzero"/>
	<rect id="rect" x="207.257812" y="78.951538" width="4.883700" height="10.548655" transform="rotate(13.1991 207.257812 78.951538)" fill="#5793CE" fill-opacity="1.000000"/>
	<path id="path" d="M208.68 91.17C207.43 91.48 206.31 91.21 205.32 90.38C204.89 90.11 204.73 89.74 204.84 89.24C204.96 88.75 205.27 88.48 205.78 88.44C207.03 88.13 208.15 88.39 209.14 89.23C209.57 89.49 209.73 89.87 209.62 90.37C209.5 90.86 209.19 91.13 208.68 91.17Z" fill="#5793CE" fill-opacity="1.000000" fill-rule="nonzero"/>
	<rect id="rect" x="209.141602" y="64.296021" width="7.917790" height="16.547804" transform="rotate(13.1991 209.141602 64.296021)" fill="#5793CE" fill-opacity="1.000000"/>
	<path id="path" d="M206.86 80.65L206.05 84.12C207.48 85.16 209.07 85.53 210.81 85.24L211.62 81.76C210.19 80.73 208.6 80.36 206.86 80.65Z" fill="#396CAA" fill-opacity="1.000000" fill-rule="nonzero"/>
	<path id="path" d="M211.57 83.52C209.53 84.03 207.71 83.6 206.11 82.24C204.8 81.02 205.13 79.61 206.84 79.1C208.88 78.59 210.7 79.02 212.31 80.38C213.61 81.6 213.28 82.97 211.57 83.52Z" fill="#5793CE" fill-opacity="1.000000" fill-rule="nonzero"/>
	<path id="path" d="M206.82 88.71C206.82 88.96 206.71 89.12 206.47 89.2C206.22 89.27 206.04 89.2 205.91 88.98C205.49 88.54 205.33 88.02 205.43 87.42C205.55 86.92 205.95 86.8 206.34 87.16C206.76 87.6 206.91 88.11 206.82 88.71Z" fill="#D4ECFF" fill-opacity="1.000000" fill-rule="nonzero"/>
	<rect id="rect" x="218.208984" y="85.483276" width="4.883700" height="10.548655" transform="rotate(13.1991 218.208984 85.483276)" fill="#5793CE" fill-opacity="1.000000"/>
	<path id="path" d="M219.64 97.67C218.38 97.98 217.26 97.72 216.27 96.89C215.84 96.62 215.68 96.25 215.8 95.75C215.91 95.26 216.22 94.99 216.73 94.95C217.98 94.64 219.1 94.9 220.09 95.73C220.89 96.49 220.69 97.36 219.64 97.67Z" fill="#5793CE" fill-opacity="1.000000" fill-rule="nonzero"/>
	<rect id="rect" x="220.094238" y="70.818848" width="7.917790" height="16.547804" transform="rotate(13.1991 220.094238 70.818848)" fill="#5793CE" fill-opacity="1.000000"/>
	<path id="path" d="M217.81 87.17L217 90.65C218.43 91.68 220.02 92.05 221.76 91.76L222.57 88.29C221.14 87.26 219.55 86.88 217.81 87.17Z" fill="#396CAA" fill-opacity="1.000000" fill-rule="nonzero"/>
	<path id="path" d="M222.52 90.05C220.49 90.55 218.66 90.13 217.06 88.77C215.75 87.55 216.08 86.14 217.79 85.62C219.83 85.12 221.65 85.54 223.26 86.89C224.56 88.13 224.23 89.53 222.52 90.05Z" fill="#5793CE" fill-opacity="1.000000" fill-rule="nonzero"/>
	<path id="path" d="M217.75 95.24C217.63 95.74 217.23 95.86 216.84 95.5C216.43 95.06 216.27 94.55 216.37 93.95C216.48 93.45 216.88 93.33 217.29 93.68C217.7 94.12 217.85 94.64 217.75 95.24Z" fill="#D4ECFF" fill-opacity="1.000000" fill-rule="nonzero"/>
	<rect id="rect" x="229.295898" y="91.954346" width="4.883700" height="10.548655" transform="rotate(13.1991 229.295898 91.954346)" fill="#5793CE" fill-opacity="1.000000"/>
	<path id="path" d="M230.7 104.15C229.45 104.46 228.33 104.2 227.34 103.36C226.91 103.1 226.75 102.72 226.87 102.22C226.98 101.73 227.29 101.46 227.8 101.42C229.05 101.11 230.17 101.38 231.16 102.21C231.6 102.48 231.75 102.85 231.64 103.35C231.52 103.84 231.21 104.11 230.7 104.15Z" fill="#5793CE" fill-opacity="1.000000" fill-rule="nonzero"/>
	<rect id="rect" x="231.161133" y="77.296753" width="7.917790" height="16.547804" transform="rotate(13.1991 231.161133 77.296753)" fill="#5793CE" fill-opacity="1.000000"/>
	<path id="path" d="M228.88 93.65L228.07 97.12C229.5 98.16 231.09 98.53 232.83 98.24L233.64 94.76C232.21 93.73 230.62 93.36 228.88 93.65Z" fill="#396CAA" fill-opacity="1.000000" fill-rule="nonzero"/>
	<path id="path" d="M233.59 96.52C231.55 97.03 229.73 96.6 228.13 95.25C226.82 94.02 227.16 92.61 228.86 92.09C230.9 91.59 232.73 92.02 234.33 93.38C235.63 94.6 235.31 96 233.59 96.52Z" fill="#5793CE" fill-opacity="1.000000" fill-rule="nonzero"/>
	<path id="path" d="M228.8 101.71C228.68 102.21 228.28 102.33 227.89 101.98C227.48 101.54 227.32 101.02 227.43 100.43C227.54 99.92 227.94 99.81 228.34 100.16C228.75 100.6 228.9 101.12 228.8 101.71Z" fill="#D4ECFF" fill-opacity="1.000000" fill-rule="nonzero"/>
	<path id="path" d="M153.97 285.05L48.16 223.96C45.16 222.23 45.53 219.21 48.99 217.21L121.04 175.59C124.51 173.59 129.73 173.38 132.72 175.11L238.54 236.25C241.54 237.97 241.16 241 237.7 243L165.65 284.61C162.17 286.56 156.98 286.78 153.97 285.05Z" fill="#B2D3EA" fill-opacity="0.100000" fill-rule="nonzero"/>
	<path id="path" d="M263.3 127.9L157.49 66.81C156.36 66.1 155.17 65.96 153.91 66.36L153.72 66.43L149.85 67.9L153.28 69.58C153.26 69.64 153.24 69.71 153.23 69.77L136.02 148.25C135.11 152.18 136.89 156.76 139.88 158.5L243.15 218.16L242.79 222.54L246.97 220.91C248.67 219.99 249.66 218.57 249.96 216.66L267.2 138.14C268.06 134.22 266.33 129.63 263.3 127.9Z" fill="#173D7A" fill-opacity="1.000000" fill-rule="nonzero"/>
	<path id="path" d="M263.3 127.9L157.49 66.81C156.36 66.1 155.17 65.96 153.91 66.36L153.72 66.43L149.84 67.9L153.28 69.58C153.26 69.64 153.24 69.71 153.23 69.77L141.87 121.51L193.65 161.88L266.65 132.15C266.03 130.35 264.91 128.93 263.3 127.9Z" fill="#396CAA" fill-opacity="1.000000" fill-rule="nonzero"/>
	<path id="path" d="M259.35 139.97L267.4 136.53C267.6 133.32 266.51 130.63 264.13 128.46L251.38 133.83L259.35 139.97Z" fill="#274F89" fill-opacity="1.000000" fill-rule="nonzero"/>
	<path id="path" d="M239.11 222.12L133.29 160.98C130.3 159.25 128.57 154.67 129.44 150.74L146.68 72.22C147.54 68.29 150.66 66.51 153.66 68.24L259.48 129.38C262.48 131.11 264.2 135.69 263.34 139.62L246.1 218.14C245.23 222.07 242.1 223.85 239.11 222.12Z" fill="#D4ECFF" fill-opacity="1.000000" fill-rule="nonzero"/>
	<path id="path" d="M236.82 216.28L137.3 158.84C134.57 157.25 132.98 153.06 133.76 149.46L149.53 77.61C150.33 74.02 153.18 72.39 155.91 73.97L255.43 131.41C258.17 132.98 259.75 137.19 258.96 140.78L243.19 212.63C242.41 216.24 239.55 217.91 236.82 216.28Z" fill="#FFFFFF" fill-opacity="1.000000" fill-rule="nonzero"/>
	<path id="path" d="M236.82 216.28L137.3 158.84C134.57 157.25 132.98 153.06 133.76 149.46L149.53 77.61C150.33 74.02 153.18 72.39 155.91 73.97L255.43 131.41C258.17 132.98 259.75 137.19 258.96 140.78L243.19 212.63C242.41 216.24 239.55 217.91 236.82 216.28Z" fill="#FFFFFF" fill-opacity="1.000000" fill-rule="nonzero"/>
	<path id="path" d="M240.57 224.78L226.1 222.87L132.73 168.93C129.74 167.19 124.53 167.41 121.05 169.41L54.89 207.62L46.14 206.46L46.14 211.43C46.16 212.88 46.84 213.91 48.16 214.5L153.97 275.59C156.97 277.32 162.17 277.11 165.65 275.11L237.7 233.5C239.65 232.37 240.62 230.93 240.56 229.57L240.57 224.78Z" fill="#173D7A" fill-opacity="1.000000" fill-rule="nonzero"/>
	<path id="path" d="M170.42 190.7L163.78 186.91L90.85 186.91L54.89 207.62L46.14 206.46L46.14 211.43C46.16 212.88 46.84 213.91 48.16 214.5L153.97 275.59C155.87 276.55 157.88 276.93 160 276.72L170.42 190.7Z" fill="#396CAA" fill-opacity="1.000000" fill-rule="nonzero"/>
	<path id="path" d="M50.02 206.96L46.14 206.44L46.14 211.41C46.16 212.86 46.84 213.89 48.16 214.49L49.98 215.56L50.02 206.96Z" fill="#5793CE" fill-opacity="1.000000" fill-rule="nonzero"/>
	<path id="path" d="M155.05 276.14C158.44 277.24 161.74 277.03 164.97 275.52L164.97 264.41L155.05 264.41L155.05 276.14Z" fill="#274F89" fill-opacity="1.000000" fill-rule="nonzero"/>
	<path id="path" d="M153.97 270.68L48.16 209.59C45.16 207.86 45.53 204.84 48.99 202.84L121.04 161.22C124.51 159.22 129.73 159.01 132.72 160.74L238.54 221.88C241.54 223.6 241.16 226.63 237.7 228.63L165.65 270.24C162.17 272.19 156.98 272.41 153.97 270.68Z" fill="#D4ECFF" fill-opacity="1.000000" fill-rule="nonzero"/>
	<path id="path" d="M237.71 226.77L165.66 268.38C162.2 270.38 156.98 270.6 153.98 268.86L48.16 207.78C47.3 207.32 46.7 206.64 46.34 205.73C45.87 207.16 46.47 208.59 48.16 209.59L153.98 270.68C156.98 272.41 162.18 272.19 165.66 270.19L237.71 228.58C240.04 227.23 240.96 225.44 240.44 223.87C239.89 225.18 238.98 226.14 237.71 226.77Z" fill="#FFFFFF" fill-opacity="1.000000" fill-rule="nonzero"/>
	<path id="path" d="M93.16 189.3L88.38 186.57C88 186.35 88.04 185.97 88.49 185.66L94.14 182.39C94.64 182.12 95.15 182.11 95.66 182.35L100.44 185.08C100.83 185.3 100.78 185.69 100.33 185.95L94.69 189.21C94.19 189.5 93.69 189.53 93.16 189.3Z" fill="#173D7A" fill-opacity="1.000000" fill-rule="nonzero"/>
	<path id="path" d="M100.56 193.57L95.77 190.84C95.39 190.62 95.44 190.22 95.88 189.97L101.54 186.71C102.03 186.43 102.52 186.41 103.03 186.64L107.82 189.38C108.21 189.6 108.16 189.99 107.72 190.24L102.07 193.52C101.57 193.79 101.07 193.81 100.56 193.57Z" fill="#173D7A" fill-opacity="1.000000" fill-rule="nonzero"/>
	<path id="path" d="M107.96 197.85L103.17 195.11C102.79 194.89 102.83 194.51 103.28 194.2L108.93 190.94C109.42 190.66 109.92 190.64 110.43 190.88L115.21 193.62C115.6 193.84 115.55 194.23 115.1 194.48L109.46 197.75C108.97 198.03 108.48 198.06 107.96 197.85Z" fill="#173D7A" fill-opacity="1.000000" fill-rule="nonzero"/>
	<path id="path" d="M118.18 194.32L113.39 191.58C113.01 191.36 113.05 190.97 113.5 190.72L118.25 187.98C118.74 187.71 119.24 187.69 119.75 187.92L124.53 190.65C124.92 190.88 124.87 191.26 124.42 191.57L119.69 194.3C119.19 194.56 118.69 194.56 118.18 194.32Z" fill="#173D7A" fill-opacity="1.000000" fill-rule="nonzero"/>
	<path id="path" d="M125.57 198.59L120.79 195.85C120.41 195.63 120.45 195.24 120.9 194.98L125.64 192.25C126.13 191.98 126.63 191.96 127.14 192.19L131.93 194.93C132.31 195.15 132.26 195.54 131.82 195.84L127.08 198.58C126.58 198.83 126.08 198.84 125.57 198.59Z" fill="#173D7A" fill-opacity="1.000000" fill-rule="nonzero"/>
	<path id="path" d="M133.02 202.86L128.22 200.13C127.84 199.9 127.9 199.52 128.33 199.26L133.08 196.53C133.57 196.25 134.07 196.23 134.58 196.46L139.37 199.2C139.75 199.42 139.7 199.8 139.26 200.11L134.52 202.84C134.02 203.1 133.52 203.11 133.02 202.86Z" fill="#173D7A" fill-opacity="1.000000" fill-rule="nonzero"/>
	<path id="path" d="M140.36 207.14L135.58 204.4C135.19 204.18 135.24 203.79 135.69 203.49L140.42 200.76C140.92 200.48 141.42 200.46 141.93 200.7L146.72 203.44C147.1 203.65 147.05 204.05 146.61 204.35L141.86 207.08C141.37 207.35 140.87 207.37 140.36 207.14Z" fill="#173D7A" fill-opacity="1.000000" fill-rule="nonzero"/>
	<path id="path" d="M147.76 211.4L142.97 208.67C142.58 208.44 142.64 208.06 143.08 207.76L147.82 205.02C148.31 204.75 148.81 204.73 149.33 204.96L154.11 207.69C154.49 207.91 154.45 208.3 154 208.61L149.26 211.34C148.77 211.61 148.27 211.63 147.76 211.4Z" fill="#173D7A" fill-opacity="1.000000" fill-rule="nonzero"/>
	<path id="path" d="M155.16 215.68L150.36 212.95C149.98 212.73 150.03 212.33 150.47 212.03L155.22 209.3C155.71 209.02 156.2 209 156.71 209.23L161.51 211.97C161.89 212.19 161.84 212.58 161.4 212.84L156.65 215.57C156.17 215.86 155.67 215.9 155.16 215.68Z" fill="#173D7A" fill-opacity="1.000000" fill-rule="nonzero"/>
	<path id="path" d="M162.55 219.95L157.76 217.21C157.37 216.98 157.42 216.6 157.86 216.3L162.61 213.57C163.1 213.29 163.6 213.27 164.11 213.5L168.9 216.24C169.28 216.46 169.23 216.85 168.79 217.1L164.05 219.84C163.57 220.13 163.07 220.17 162.55 219.95Z" fill="#173D7A" fill-opacity="1.000000" fill-rule="nonzero"/>
	<path id="path" d="M169.94 224.22L165.15 221.49C164.77 221.27 164.81 220.88 165.26 220.62L170.01 217.89C170.5 217.61 170.99 217.59 171.5 217.82L176.29 220.56C176.68 220.79 176.63 221.17 176.18 221.43L171.44 224.16C170.95 224.43 170.45 224.45 169.94 224.22Z" fill="#173D7A" fill-opacity="1.000000" fill-rule="nonzero"/>
	<path id="path" d="M177.33 228.49L172.55 225.76C172.16 225.53 172.21 225.15 172.65 224.84L177.4 222.11C177.89 221.84 178.39 221.82 178.9 222.05L183.68 224.78C184.07 225 184.02 225.39 183.57 225.65L178.84 228.38C178.35 228.68 177.85 228.72 177.33 228.49Z" fill="#173D7A" fill-opacity="1.000000" fill-rule="nonzero"/>
	<path id="path" d="M184.73 232.77L179.94 230.03C179.56 229.81 179.6 229.42 180.05 229.17L184.79 226.43C185.28 226.16 185.78 226.14 186.29 226.37L191.08 229.1C191.46 229.33 191.42 229.71 190.97 229.97L186.22 232.7C185.74 232.97 185.24 233 184.73 232.77Z" fill="#173D7A" fill-opacity="1.000000" fill-rule="nonzero"/>
	<path id="path" d="M129.08 192.29L124.29 189.56C123.91 189.33 123.95 188.95 124.4 188.69L129.14 185.96C129.63 185.69 130.13 185.67 130.64 185.89L135.43 188.63C135.81 188.85 135.77 189.24 135.32 189.54L130.57 192.28C130.08 192.53 129.58 192.54 129.08 192.29Z" fill="#396CAA" fill-opacity="1.000000" fill-rule="nonzero"/>
	<path id="path" d="M121.57 187.96L116.78 185.23C116.4 185.01 116.45 184.62 116.89 184.32L121.64 181.58C122.13 181.3 122.63 181.28 123.14 181.52L127.92 184.25C128.31 184.47 128.26 184.86 127.81 185.16L123.08 187.9C122.59 188.17 122.08 188.19 121.57 187.96Z" fill="#396CAA" fill-opacity="1.000000" fill-rule="nonzero"/>
	<path id="path" d="M114.06 183.61L103.74 177.66C103.36 177.43 103.41 177.05 103.85 176.75L108.6 174.01C109.09 173.74 109.58 173.72 110.09 173.95L120.41 179.91C120.79 180.13 120.74 180.52 120.3 180.78L115.56 183.51C115.08 183.81 114.58 183.84 114.06 183.61Z" fill="#173D7A" fill-opacity="1.000000" fill-rule="nonzero"/>
	<path id="path" d="M119.35 178.34L110.98 173.5C110.59 173.28 110.64 172.89 111.09 172.59L115.83 169.86C116.32 169.58 116.82 169.56 117.33 169.79L125.7 174.63C126.08 174.85 126.04 175.24 125.59 175.5L120.84 178.24C120.36 178.52 119.87 178.55 119.35 178.34Z" fill="#173D7A" fill-opacity="1.000000" fill-rule="nonzero"/>
	<path id="path" d="M136.47 196.57L131.69 193.84C131.29 193.62 131.35 193.22 131.79 192.97L136.53 190.23C137.02 189.95 137.52 189.93 138.04 190.17L142.82 192.91C143.2 193.13 143.16 193.52 142.71 193.82L137.97 196.55C137.48 196.81 136.97 196.81 136.47 196.57Z" fill="#396CAA" fill-opacity="1.000000" fill-rule="nonzero"/>
	<path id="path" d="M143.87 200.84L139.08 198.1C138.69 197.87 138.74 197.49 139.18 197.24L143.93 194.5C144.42 194.23 144.92 194.21 145.43 194.44L150.22 197.17C150.6 197.39 150.56 197.78 150.11 198.08L145.36 200.82C144.87 201.08 144.37 201.09 143.87 200.84Z" fill="#173D7A" fill-opacity="1.000000" fill-rule="nonzero"/>
	<path id="path" d="M151.24 205.14L146.46 202.41C146.07 202.19 146.12 201.79 146.56 201.49L151.3 198.76C151.79 198.48 152.29 198.46 152.81 198.69L157.59 201.43C157.98 201.66 157.93 202.04 157.48 202.3L152.74 205.03C152.26 205.32 151.76 205.36 151.24 205.14Z" fill="#173D7A" fill-opacity="1.000000" fill-rule="nonzero"/>
	<path id="path" d="M158.66 209.38L153.86 206.65C153.48 206.43 153.53 206.03 153.97 205.73L158.72 203C159.21 202.73 159.7 202.71 160.21 202.93L165.01 205.67C165.39 205.89 165.34 206.28 164.9 206.58L160.15 209.32C159.66 209.6 159.16 209.62 158.66 209.38Z" fill="#173D7A" fill-opacity="1.000000" fill-rule="nonzero"/>
	<path id="path" d="M166.04 213.66L161.26 210.92C160.88 210.7 160.92 210.31 161.37 210.01L166.11 207.27C166.6 207 167.1 206.98 167.61 207.21L172.39 209.95C172.79 210.17 172.73 210.56 172.29 210.81L167.55 213.55C167.06 213.83 166.56 213.87 166.04 213.66Z" fill="#173D7A" fill-opacity="1.000000" fill-rule="nonzero"/>
	<path id="path" d="M173.44 217.91L168.65 215.17C168.27 214.95 168.31 214.56 168.76 214.26L173.51 211.52C173.99 211.25 174.49 211.23 175 211.46L179.79 214.19C180.18 214.41 180.13 214.81 179.68 215.06L174.93 217.91C174.43 218.16 173.94 218.16 173.44 217.91Z" fill="#173D7A" fill-opacity="1.000000" fill-rule="nonzero"/>
	<path id="path" d="M180.83 222.2L176.05 219.46C175.67 219.25 175.71 218.86 176.16 218.6L180.9 215.86C181.39 215.59 181.89 215.57 182.4 215.8L187.18 218.53C187.57 218.76 187.52 219.15 187.08 219.4L182.33 222.14C181.84 222.41 181.34 222.43 180.83 222.2Z" fill="#173D7A" fill-opacity="1.000000" fill-rule="nonzero"/>
	<path id="path" d="M188.23 226.47L183.44 223.73C183.05 223.51 183.1 223.12 183.55 222.82L188.29 220.08C188.78 219.81 189.28 219.79 189.79 220.03L194.58 222.77C194.96 222.98 194.92 223.38 194.47 223.63L189.72 226.37C189.24 226.66 188.74 226.69 188.23 226.47Z" fill="#173D7A" fill-opacity="1.000000" fill-rule="nonzero"/>
	<path id="path" d="M195.62 230.74L190.84 228.01C190.45 227.78 190.5 227.4 190.94 227.1L195.68 224.36C196.17 224.09 196.67 224.07 197.19 224.3L201.97 227.03C202.36 227.26 202.31 227.64 201.87 227.9L197.12 230.63C196.64 230.92 196.14 230.96 195.62 230.74Z" fill="#173D7A" fill-opacity="1.000000" fill-rule="nonzero"/>
	<path id="path" d="M208.77 238.34L198.32 232.3C197.93 232.08 197.99 231.69 198.43 231.44L203.17 228.7C203.66 228.43 204.16 228.41 204.68 228.64L215.12 234.67C215.5 234.9 215.45 235.28 215.01 235.54L210.27 238.27C209.78 238.55 209.28 238.57 208.77 238.34Z" fill="#173D7A" fill-opacity="1.000000" fill-rule="nonzero"/>
	<path id="path" d="M223.16 230.02L214.34 224.93C213.96 224.71 214 224.32 214.45 224.06L219.2 221.32C219.69 221.05 220.18 221.03 220.69 221.26L229.51 226.36C229.89 226.59 229.85 226.97 229.4 227.27L224.66 230C224.17 230.26 223.67 230.27 223.16 230.02Z" fill="#173D7A" fill-opacity="1.000000" fill-rule="nonzero"/>
	<path id="path" d="M149.42 195.73L144.63 193C144.25 192.77 144.3 192.39 144.74 192.08L149.48 189.35C149.97 189.08 150.47 189.06 150.98 189.29L155.77 192.02C156.16 192.24 156.1 192.62 155.67 192.93L150.92 195.67C150.43 195.94 149.93 195.96 149.42 195.73Z" fill="#173D7A" fill-opacity="1.000000" fill-rule="nonzero"/>
	<path id="path" d="M141.85 191.36L137.05 188.62C136.67 188.4 136.72 188.01 137.16 187.71L141.91 184.97C142.4 184.7 142.89 184.68 143.4 184.91L148.2 187.64C148.58 187.87 148.53 188.26 148.09 188.56L143.34 191.29C142.85 191.56 142.35 191.58 141.85 191.36Z" fill="#173D7A" fill-opacity="1.000000" fill-rule="nonzero"/>
	<path id="path" d="M134.26 186.98L129.47 184.24C129.09 184.02 129.14 183.63 129.58 183.38L134.33 180.64C134.82 180.36 135.31 180.34 135.82 180.58L140.62 183.31C141 183.53 140.95 183.92 140.5 184.18L135.75 186.91C135.27 187.18 134.77 187.2 134.26 186.98Z" fill="#396CAA" fill-opacity="1.000000" fill-rule="nonzero"/>
	<path id="path" d="M126.68 182.59L121.9 179.86C121.51 179.64 121.56 179.25 122 178.95L126.75 176.21C127.24 175.94 127.74 175.92 128.25 176.16L133.03 178.89C133.42 179.11 133.37 179.5 132.93 179.76L128.19 182.49C127.7 182.78 127.2 182.82 126.68 182.59Z" fill="#173D7A" fill-opacity="1.000000" fill-rule="nonzero"/>
	<path id="path" d="M156.81 200.01L152.02 197.27C151.64 197.05 151.68 196.66 152.13 196.36L156.88 193.63C157.37 193.35 157.87 193.33 158.37 193.57L163.16 196.31C163.55 196.52 163.5 196.92 163.06 197.17L158.31 199.91C157.83 200.19 157.33 200.22 156.81 200.01Z" fill="#173D7A" fill-opacity="1.000000" fill-rule="nonzero"/>
	<path id="path" d="M164.2 204.27L159.44 201.49C159.06 201.27 159.1 200.88 159.55 200.58L164.29 197.85C164.8 197.59 165.31 197.59 165.82 197.85L170.6 200.58C170.99 200.8 170.94 201.18 170.5 201.45L165.75 204.18C165.25 204.48 164.74 204.51 164.2 204.27Z" fill="#173D7A" fill-opacity="1.000000" fill-rule="nonzero"/>
	<path id="path" d="M171.6 208.55L166.81 205.82C166.43 205.6 166.47 205.2 166.92 204.95L171.67 202.21C172.15 201.93 172.65 201.91 173.16 202.15L177.95 204.89C178.33 205.1 178.29 205.5 177.84 205.75L173.1 208.49C172.61 208.76 172.11 208.78 171.6 208.55Z" fill="#173D7A" fill-opacity="1.000000" fill-rule="nonzero"/>
	<path id="path" d="M178.99 212.82L174.21 210.08C173.83 209.85 173.87 209.47 174.32 209.22L179.05 206.48C179.55 206.21 180.05 206.19 180.56 206.42L185.35 209.15C185.73 209.37 185.68 209.76 185.24 210.02L180.49 212.75C180 213.03 179.5 213.05 178.99 212.82Z" fill="#173D7A" fill-opacity="1.000000" fill-rule="nonzero"/>
	<path id="path" d="M186.39 217.09L181.6 214.36C181.21 214.14 181.27 213.75 181.71 213.49L186.45 210.76C186.94 210.48 187.44 210.45 187.96 210.69L192.74 213.43C193.12 213.66 193.08 214.04 192.63 214.3L187.89 217.03C187.4 217.3 186.9 217.32 186.39 217.09Z" fill="#173D7A" fill-opacity="1.000000" fill-rule="nonzero"/>
	<path id="path" d="M193.78 221.36L189 218.63C188.61 218.4 188.66 218.02 189.1 217.76L193.84 215.02C194.33 214.75 194.83 214.73 195.35 214.96L200.14 217.7C200.52 217.91 200.47 218.31 200.03 218.56L195.28 221.3C194.79 221.57 194.29 221.6 193.78 221.36Z" fill="#173D7A" fill-opacity="1.000000" fill-rule="nonzero"/>
	<path id="path" d="M201.18 225.64L196.38 222.9C196 222.68 196.06 222.29 196.49 222.04L201.24 219.3C201.73 219.02 202.23 219 202.74 219.24L207.53 221.97C207.91 222.2 207.86 222.58 207.42 222.88L202.68 225.62C202.18 225.88 201.68 225.88 201.18 225.64Z" fill="#173D7A" fill-opacity="1.000000" fill-rule="nonzero"/>
	<path id="path" d="M208.57 229.9L203.78 227.17C203.4 226.94 203.44 226.56 203.89 226.3L208.64 223.57C209.13 223.3 209.62 223.28 210.13 223.5L214.92 226.24C215.31 226.46 215.26 226.85 214.82 227.15L210.07 229.89C209.57 230.15 209.07 230.16 208.57 229.9Z" fill="#173D7A" fill-opacity="1.000000" fill-rule="nonzero"/>
	<path id="path" d="M215.93 234.18L211.14 231.45C210.75 231.23 210.81 230.83 211.24 230.58L215.99 227.84C216.48 227.57 216.98 227.55 217.49 227.78L222.28 230.52C222.66 230.74 222.61 231.13 222.17 231.43L217.43 234.16C216.93 234.42 216.43 234.42 215.93 234.18Z" fill="#173D7A" fill-opacity="1.000000" fill-rule="nonzero"/>
	<path id="path" d="M145.53 185.16L140.73 182.43C140.35 182.2 140.41 181.82 140.84 181.56L145.59 178.83C146.08 178.56 146.58 178.54 147.09 178.76L151.88 181.5C152.26 181.72 152.21 182.11 151.77 182.41L147.03 185.15C146.53 185.4 146.03 185.41 145.53 185.16Z" fill="#173D7A" fill-opacity="1.000000" fill-rule="nonzero"/>
	<path id="path" d="M138.16 180.92L133.38 178.18C133 177.96 133.04 177.58 133.49 177.31L138.24 174.58C138.72 174.31 139.22 174.29 139.73 174.52L144.52 177.25C144.91 177.48 144.86 177.86 144.41 178.12L139.67 180.85C139.18 181.12 138.68 181.14 138.16 180.92Z" fill="#173D7A" fill-opacity="1.000000" fill-rule="nonzero"/>
	<path id="path" d="M130.81 176.67L126.03 173.93C125.64 173.71 125.69 173.32 126.13 173.07L130.88 170.33C131.37 170.05 131.87 170.03 132.38 170.27L137.16 173C137.54 173.23 137.5 173.61 137.05 173.87L132.32 176.6C131.82 176.87 131.32 176.9 130.81 176.67Z" fill="#173D7A" fill-opacity="1.000000" fill-rule="nonzero"/>
	<path id="path" d="M123.46 172.41L118.67 169.67C118.28 169.45 118.33 169.06 118.78 168.81L123.52 166.07C124.01 165.8 124.51 165.78 125.02 166.02L129.81 168.75C130.19 168.97 130.15 169.36 129.7 169.62L124.95 172.35C124.46 172.63 123.97 172.65 123.46 172.41Z" fill="#173D7A" fill-opacity="1.000000" fill-rule="nonzero"/>
	<path id="path" d="M131.02 168.04L126.23 165.31C125.85 165.08 125.89 164.7 126.34 164.44L127.91 163.53C128.39 163.26 128.9 163.24 129.41 163.46L134.19 166.2C134.58 166.42 134.53 166.81 134.09 167.07L132.52 167.98C132.03 168.25 131.53 168.27 131.02 168.04Z" fill="#173D7A" fill-opacity="1.000000" fill-rule="nonzero"/>
	<path id="path" d="M140.62 173.59L135.83 170.85C135.45 170.63 135.5 170.24 135.94 169.94L137.51 169.03C138 168.75 138.5 168.73 139.01 168.96L143.8 171.7C144.18 171.93 144.13 172.31 143.69 172.61L142.12 173.52C141.63 173.8 141.13 173.82 140.62 173.59Z" fill="#173D7A" fill-opacity="1.000000" fill-rule="nonzero"/>
	<path id="path" d="M147.95 177.79L143.16 175.05C142.77 174.83 142.82 174.44 143.27 174.19L144.83 173.28C145.32 173 145.83 172.98 146.34 173.21L151.12 175.95C151.51 176.17 151.46 176.55 151.01 176.81L149.42 177.79C148.93 178.03 148.44 178.03 147.95 177.79Z" fill="#173D7A" fill-opacity="1.000000" fill-rule="nonzero"/>
	<path id="path" d="M155.27 182.06L150.48 179.32C150.1 179.09 150.14 178.71 150.59 178.41L152.16 177.5C152.65 177.23 153.15 177.2 153.66 177.43L158.45 180.17C158.84 180.39 158.78 180.78 158.35 181.08L156.77 181.99C156.28 182.26 155.78 182.28 155.27 182.06Z" fill="#173D7A" fill-opacity="1.000000" fill-rule="nonzero"/>
	<path id="path" d="M162.6 186.29L157.82 183.55C157.42 183.33 157.48 182.94 157.92 182.68L159.48 181.77C159.98 181.5 160.48 181.48 160.99 181.72L165.78 184.45C166.16 184.67 166.11 185.06 165.67 185.32L164.1 186.23C163.61 186.51 163.11 186.53 162.6 186.29Z" fill="#173D7A" fill-opacity="1.000000" fill-rule="nonzero"/>
	<path id="path" d="M203.5 209.92L198.72 207.18C198.33 206.96 198.38 206.57 198.83 206.27L200.39 205.36C200.88 205.09 201.38 205.07 201.89 205.31L206.68 208.04C207.06 208.26 207.02 208.65 206.57 208.95L205 209.86C204.51 210.14 204.01 210.16 203.5 209.92Z" fill="#173D7A" fill-opacity="1.000000" fill-rule="nonzero"/>
	<path id="path" d="M210.83 214.15L206.04 211.41C205.66 211.2 205.7 210.8 206.15 210.55L207.72 209.64C208.2 209.35 208.7 209.33 209.21 209.57L214 212.31C214.39 212.54 214.34 212.92 213.9 213.17L212.33 214.09C211.84 214.36 211.34 214.38 210.83 214.15Z" fill="#173D7A" fill-opacity="1.000000" fill-rule="nonzero"/>
	<path id="path" d="M218.16 218.39L213.37 215.65C212.98 215.43 213.03 215.04 213.48 214.74L215.04 213.83C215.53 213.56 216.03 213.54 216.55 213.77L221.33 216.5C221.71 216.73 221.67 217.11 221.22 217.41L219.65 218.33C219.17 218.6 218.67 218.62 218.16 218.39Z" fill="#173D7A" fill-opacity="1.000000" fill-rule="nonzero"/>
	<path id="path" d="M225.48 222.62L220.69 219.88C220.31 219.66 220.35 219.27 220.8 219.02L222.37 218.11C222.86 217.83 223.36 217.81 223.87 218.04L228.66 220.78C229.04 221 228.99 221.39 228.55 221.69L226.98 222.6C226.48 222.86 225.99 222.86 225.48 222.62Z" fill="#173D7A" fill-opacity="1.000000" fill-rule="nonzero"/>
	<path id="path" d="M152.92 189.44L148.13 186.71C147.75 186.49 147.79 186.09 148.24 185.79L152.99 183.06C153.47 182.78 153.97 182.76 154.48 182.99L159.27 185.73C159.66 185.96 159.61 186.34 159.17 186.6L154.42 189.33C153.94 189.62 153.44 189.65 152.92 189.44Z" fill="#173D7A" fill-opacity="1.000000" fill-rule="nonzero"/>
	<path id="path" d="M160.35 193.71L155.57 190.97C155.17 190.74 155.23 190.36 155.67 190.06L160.41 187.33C160.9 187.05 161.41 187.03 161.92 187.26L166.7 190C167.08 190.22 167.04 190.61 166.59 190.86L161.85 193.6C161.37 193.89 160.87 193.93 160.35 193.71Z" fill="#173D7A" fill-opacity="1.000000" fill-rule="nonzero"/>
	<path id="path" d="M167.71 197.98L162.92 195.25C162.54 195.03 162.58 194.64 163.03 194.34L167.78 191.6C168.26 191.32 168.76 191.3 169.27 191.54L174.06 194.27C174.44 194.5 174.4 194.88 173.95 195.14L169.21 197.87C168.73 198.16 168.23 198.2 167.71 197.98Z" fill="#173D7A" fill-opacity="1.000000" fill-rule="nonzero"/>
	<path id="path" d="M175.1 202.25L170.32 199.52C169.93 199.29 169.98 198.9 170.42 198.6L175.16 195.87C175.66 195.6 176.16 195.58 176.67 195.8L181.45 198.54C181.83 198.76 181.79 199.15 181.34 199.41L176.6 202.14C176.12 202.44 175.62 202.48 175.1 202.25Z" fill="#173D7A" fill-opacity="1.000000" fill-rule="nonzero"/>
	<path id="path" d="M182.5 206.53L177.71 203.79C177.32 203.57 177.37 203.18 177.82 202.93L182.56 200.19C183.05 199.92 183.55 199.9 184.06 200.13L188.85 202.86C189.23 203.09 189.19 203.47 188.74 203.73L183.99 206.46C183.51 206.73 183.01 206.76 182.5 206.53Z" fill="#173D7A" fill-opacity="1.000000" fill-rule="nonzero"/>
	<path id="path" d="M189.89 210.79L185.1 208.06C184.71 207.84 184.77 207.45 185.2 207.19L189.95 204.46C190.44 204.19 190.94 204.16 191.45 204.39L196.24 207.13C196.62 207.35 196.58 207.74 196.13 208L191.39 210.73C190.9 211.01 190.4 211.03 189.89 210.79Z" fill="#173D7A" fill-opacity="1.000000" fill-rule="nonzero"/>
	<path id="path" d="M197.29 215.07L192.49 212.33C192.11 212.12 192.16 211.73 192.6 211.47L197.35 208.73C197.84 208.46 198.34 208.44 198.84 208.67L203.64 211.4C204.02 211.63 203.97 212.02 203.53 212.27L198.78 215.01C198.29 215.28 197.79 215.3 197.29 215.07Z" fill="#173D7A" fill-opacity="1.000000" fill-rule="nonzero"/>
	<path id="path" d="M204.68 219.34L199.89 216.6C199.5 216.38 199.56 215.99 200 215.74L204.74 213C205.23 212.73 205.73 212.71 206.24 212.94L211.03 215.67C211.41 215.89 211.36 216.28 210.92 216.54L206.18 219.27C205.69 219.55 205.19 219.57 204.68 219.34Z" fill="#173D7A" fill-opacity="1.000000" fill-rule="nonzero"/>
	<path id="path" d="M212.07 223.61L207.28 220.88C206.9 220.65 206.94 220.27 207.39 219.97L212.14 217.23C212.62 216.96 213.12 216.94 213.63 217.17L218.42 219.9C218.81 220.13 218.76 220.51 218.31 220.81L213.57 223.55C213.08 223.82 212.58 223.84 212.07 223.61Z" fill="#173D7A" fill-opacity="1.000000" fill-rule="nonzero"/>
	<path id="path" d="M110.65 189.96L96.57 181.82C96.19 181.6 96.24 181.21 96.68 180.95L101.43 178.22C101.92 177.95 102.41 177.92 102.92 178.15L117.03 186.3C117.41 186.52 117.36 186.92 116.92 187.17L112.18 189.91C111.68 190.19 111.17 190.21 110.65 189.96Z" fill="#173D7A" fill-opacity="1.000000" fill-rule="nonzero"/>
	<path id="path" d="M201.49 242.45L187.38 234.32C187 234.1 187.05 233.71 187.49 233.41L192.24 230.67C192.73 230.4 193.23 230.38 193.73 230.62L207.84 238.76C208.22 238.98 208.17 239.37 207.73 239.62L202.98 242.36C202.5 242.64 202 242.67 201.49 242.45Z" fill="#173D7A" fill-opacity="1.000000" fill-rule="nonzero"/>
	<path id="path" d="M171.91 234.8L167.13 232.07C166.75 231.85 166.79 231.45 167.24 231.15L172.89 227.89C173.37 227.62 173.87 227.6 174.38 227.83L179.17 230.56C179.56 230.78 179.51 231.17 179.06 231.43L173.41 234.69C172.93 234.98 172.43 235.01 171.91 234.8Z" fill="#173D7A" fill-opacity="1.000000" fill-rule="nonzero"/>
	<path id="path" d="M118.22 203.77L110.57 199.35C110.18 199.13 110.23 198.74 110.67 198.44L116.33 195.18C116.81 194.9 117.31 194.88 117.82 195.11L125.48 199.53C125.86 199.76 125.82 200.14 125.37 200.4L119.72 203.66C119.24 203.96 118.74 204 118.22 203.77Z" fill="#173D7A" fill-opacity="1.000000" fill-rule="nonzero"/>
	<path id="path" d="M164.79 230.67L157.13 226.25C156.75 226.03 156.8 225.64 157.24 225.38L162.89 222.12C163.38 221.85 163.88 221.83 164.39 222.05L172.05 226.48C172.43 226.7 172.39 227.09 171.94 227.39L166.29 230.65C165.79 230.92 165.29 230.92 164.79 230.67Z" fill="#173D7A" fill-opacity="1.000000" fill-rule="nonzero"/>
	<path id="path" d="M128.89 209.94L121.23 205.52C120.84 205.3 120.89 204.9 121.34 204.65L126.99 201.38C127.48 201.11 127.98 201.09 128.49 201.32L136.15 205.74C136.53 205.97 136.48 206.35 136.04 206.65L130.38 209.92C129.89 210.19 129.39 210.19 128.89 209.94Z" fill="#173D7A" fill-opacity="1.000000" fill-rule="nonzero"/>
	<path id="path" d="M128.54 201.35L161.83 220.59C162.04 220.65 162.15 220.8 162.15 221.02C162.15 221.24 162.04 221.38 161.83 221.45L156.07 224.78C155.57 225.03 155.07 225.03 154.57 224.78L121.28 205.54L128.54 201.35Z" fill="#173D7A" fill-opacity="1.000000" fill-rule="nonzero"/>
	<path id="path" d="M192.58 242.52L197.91 245.6C198.22 245.79 198.19 246.11 197.82 246.32L195.51 247.66C195.11 247.88 194.7 247.89 194.28 247.7L188.95 244.62C188.63 244.44 188.68 244.12 189.04 243.91L191.35 242.58C191.75 242.35 192.16 242.33 192.58 242.52Z" fill="#173D7A" fill-opacity="1.000000" fill-rule="nonzero"/>
	<path id="path" d="M185.12 238.24L190.45 241.32C190.77 241.5 190.73 241.82 190.37 242.03L188.06 243.36C187.66 243.59 187.25 243.61 186.83 243.42L181.5 240.33C181.18 240.15 181.21 239.83 181.58 239.62L183.89 238.28C184.29 238.06 184.7 238.05 185.12 238.24Z" fill="#173D7A" fill-opacity="1.000000" fill-rule="nonzero"/>
	<path id="path" d="M177.73 233.96L183.06 237.04C183.38 237.23 183.34 237.54 182.97 237.75L180.66 239.09C180.26 239.32 179.85 239.33 179.44 239.14L174.1 236.06C173.79 235.88 173.83 235.56 174.19 235.35L176.5 234.02C176.9 233.79 177.31 233.77 177.73 233.96Z" fill="#173D7A" fill-opacity="1.000000" fill-rule="nonzero"/>
	<path id="path" d="M189.2 235.88L194.54 238.96C194.85 239.14 194.82 239.46 194.45 239.67L192.14 241C191.74 241.23 191.33 241.24 190.91 241.06L185.58 237.96C185.26 237.78 185.31 237.46 185.67 237.25L187.97 235.92C188.38 235.7 188.79 235.68 189.2 235.88Z" fill="#173D7A" fill-opacity="1.000000" fill-rule="nonzero"/>
	<path id="path" d="M179.41 104.93L172.33 100.85C171.57 100.34 171.29 99.64 171.47 98.75C171.51 98.38 171.69 98.12 172.03 97.96C172.36 97.8 172.68 97.82 172.99 98.02L180.06 102.11C180.84 102.6 181.15 103.3 180.97 104.21C180.94 104.59 180.75 104.86 180.4 105.03C180.05 105.19 179.72 105.16 179.41 104.93Z" fill="#D4ECFF" fill-opacity="1.000000" fill-rule="nonzero"/>
	<path id="path" d="M196.27 114.67L185.86 108.64C185.1 108.14 184.81 107.44 185 106.54C185.03 106.18 185.22 105.92 185.55 105.76C185.88 105.6 186.2 105.62 186.51 105.82L196.94 111.85C197.72 112.34 198.03 113.04 197.85 113.95C197.83 114.34 197.64 114.62 197.28 114.79C196.91 114.95 196.58 114.91 196.27 114.67Z" fill="#D4ECFF" fill-opacity="1.000000" fill-rule="nonzero"/>
	<path id="path" d="M167.07 137.98L160 133.9C159.22 133.41 158.92 132.71 159.09 131.8C159.13 131.43 159.31 131.17 159.64 131.01C159.98 130.85 160.3 130.87 160.6 131.07L167.68 135.16C168.45 135.67 168.73 136.37 168.54 137.26C168.49 137.61 168.31 137.86 168 138.01C167.68 138.17 167.38 138.16 167.07 137.98Z" fill="#D4ECFF" fill-opacity="1.000000" fill-rule="nonzero"/>
	<path id="path" d="M182.1 146.66L171.67 140.63C170.91 140.13 170.62 139.43 170.8 138.54C170.84 138.17 171.03 137.91 171.36 137.75C171.69 137.6 172.01 137.62 172.32 137.82L182.75 143.84C183.52 144.35 183.8 145.05 183.61 145.94C183.57 146.3 183.39 146.57 183.06 146.72C182.72 146.88 182.41 146.86 182.1 146.66Z" fill="#D4ECFF" fill-opacity="1.000000" fill-rule="nonzero"/>
	<path id="path" d="M158.53 99.57L154.11 97.02C153.35 96.51 153.06 95.81 153.24 94.92C153.28 94.55 153.46 94.29 153.79 94.13C154.13 93.97 154.45 93.99 154.75 94.19L159.18 96.75C159.95 97.25 160.23 97.95 160.04 98.85C160 99.21 159.82 99.47 159.48 99.63C159.15 99.79 158.83 99.77 158.53 99.57Z" fill="#D4ECFF" fill-opacity="1.000000" fill-rule="nonzero"/>
	<path id="path" d="M172.19 114.14L158.69 106.33C157.94 105.83 157.65 105.13 157.83 104.24C157.86 103.87 158.05 103.61 158.38 103.45C158.71 103.29 159.03 103.31 159.34 103.51L172.85 111.31C173.61 111.82 173.89 112.52 173.71 113.41C173.67 113.78 173.49 114.04 173.15 114.2C172.82 114.36 172.5 114.34 172.19 114.14Z" fill="#D4ECFF" fill-opacity="1.000000" fill-rule="nonzero"/>
	<path id="path" d="M160.35 120.7L155.93 118.15C155.15 117.66 154.85 116.96 155.02 116.05C155.05 115.69 155.24 115.42 155.57 115.26C155.91 115.1 156.23 115.13 156.53 115.33L160.95 117.89C161.72 118.39 162 119.09 161.82 119.98C161.77 120.33 161.59 120.58 161.28 120.73C160.96 120.89 160.65 120.88 160.35 120.7Z" fill="#D4ECFF" fill-opacity="1.000000" fill-rule="nonzero"/>
	<path id="path" d="M184.38 161.38L172.53 154.56C171.78 154.05 171.49 153.35 171.67 152.46C171.7 152.09 171.89 151.83 172.22 151.67C172.56 151.51 172.88 151.53 173.19 151.74L185.03 158.56C185.8 159.06 186.08 159.76 185.9 160.66C185.86 161.02 185.67 161.29 185.34 161.45C185.01 161.6 184.68 161.58 184.38 161.38Z" fill="#D4ECFF" fill-opacity="1.000000" fill-rule="nonzero"/>
	<path id="path" d="M156.04 131.61L153.21 129.97C152.45 129.46 152.16 128.76 152.34 127.87C152.38 127.51 152.57 127.24 152.9 127.09C153.23 126.93 153.55 126.95 153.85 127.15L156.7 128.78C157.45 129.29 157.74 129.99 157.55 130.88C157.52 131.24 157.33 131.51 157 131.67C156.67 131.83 156.35 131.81 156.04 131.61Z" fill="#D4ECFF" fill-opacity="1.000000" fill-rule="nonzero"/>
	<path id="path" d="M153.97 143.82L150.46 141.78C149.69 141.28 149.41 140.58 149.59 139.69C149.63 139.32 149.81 139.06 150.14 138.9C150.48 138.75 150.79 138.77 151.1 138.97L154.63 141C155.39 141.5 155.67 142.2 155.48 143.1C155.45 143.46 155.26 143.72 154.93 143.88C154.6 144.03 154.28 144.02 153.97 143.82Z" fill="#D4ECFF" fill-opacity="1.000000" fill-rule="nonzero"/>
	<path id="path" d="M167.71 151.74L158.42 146.37C157.66 145.86 157.37 145.17 157.55 144.27C157.6 143.91 157.78 143.65 158.11 143.49C158.45 143.33 158.77 143.35 159.07 143.55L168.36 148.92C169.14 149.41 169.45 150.11 169.27 151.02C169.24 151.4 169.05 151.67 168.7 151.84C168.35 152 168.02 151.96 167.71 151.74Z" fill="#D4ECFF" fill-opacity="1.000000" fill-rule="nonzero"/>
	<path id="path" d="M155.79 151.55L149.12 147.7C148.35 147.2 148.07 146.5 148.25 145.6C148.29 145.24 148.47 144.98 148.81 144.82C149.14 144.66 149.45 144.68 149.76 144.88L156.44 148.74C157.2 149.24 157.49 149.94 157.31 150.84C157.26 151.2 157.08 151.46 156.75 151.61C156.42 151.77 156.1 151.75 155.79 151.55Z" fill="#D4ECFF" fill-opacity="1.000000" fill-rule="nonzero"/>
	<path id="path" d="M194.51 167.25L190.22 164.77C189.45 164.27 189.16 163.57 189.35 162.67C189.39 162.31 189.58 162.05 189.91 161.89C190.24 161.73 190.56 161.75 190.86 161.95L195.15 164.43C195.94 164.92 196.24 165.62 196.06 166.53C196.04 166.91 195.85 167.18 195.5 167.34C195.15 167.51 194.82 167.47 194.51 167.25Z" fill="#D4ECFF" fill-opacity="1.000000" fill-rule="nonzero"/>
	<path id="path" d="M176.8 130.2L164.95 123.38C164.17 122.89 163.87 122.19 164.04 121.29C164.08 120.92 164.26 120.66 164.59 120.5C164.92 120.34 165.24 120.36 165.55 120.56L177.4 127.38C178.17 127.87 178.48 128.57 178.31 129.47C178.27 129.84 178.09 130.1 177.76 130.26C177.42 130.42 177.1 130.4 176.8 130.2Z" fill="#D4ECFF" fill-opacity="1.000000" fill-rule="nonzero"/>
	<path id="path" d="M177.87 124.13L157.3 112.28C156.51 111.79 156.21 111.09 156.39 110.18C156.42 109.82 156.61 109.55 156.94 109.39C157.27 109.23 157.59 109.25 157.9 109.45L178.47 121.3C179.23 121.81 179.52 122.51 179.34 123.4C179.29 123.75 179.11 124 178.8 124.16C178.48 124.32 178.17 124.31 177.87 124.13Z" fill="#D4ECFF" fill-opacity="1.000000" fill-rule="nonzero"/>
	<path id="path" d="M166.37 130.88L154.53 124.06C153.77 123.55 153.49 122.85 153.67 121.96C153.71 121.59 153.89 121.33 154.22 121.17C154.56 121.01 154.88 121.04 155.18 121.24L166.98 128.06C167.77 128.55 168.07 129.25 167.89 130.16C167.86 130.53 167.67 130.79 167.34 130.95C167 131.11 166.68 131.08 166.37 130.88Z" fill="#D4ECFF" fill-opacity="1.000000" fill-rule="nonzero"/>
	<path id="path" d="M185.74 135.37L181.46 132.89C180.7 132.39 180.41 131.69 180.59 130.8C180.63 130.43 180.82 130.17 181.15 130.01C181.48 129.86 181.8 129.88 182.11 130.08L186.4 132.56C187.16 133.06 187.45 133.76 187.26 134.65C187.22 135.02 187.03 135.28 186.7 135.43C186.37 135.59 186.05 135.57 185.74 135.37Z" fill="#D4ECFF" fill-opacity="1.000000" fill-rule="nonzero"/>
	<path id="path" d="M228.08 133.06L202.69 118.38C201.93 117.87 201.64 117.18 201.82 116.28C201.86 115.92 202.05 115.66 202.38 115.5C202.71 115.34 203.03 115.36 203.34 115.56L228.74 130.23C229.49 130.74 229.78 131.44 229.6 132.33C229.56 132.69 229.38 132.96 229.04 133.12C228.71 133.28 228.39 133.25 228.08 133.06Z" fill="#D4ECFF" fill-opacity="1.000000" fill-rule="nonzero"/>
	<path id="path" d="M166.04 144.05L151.84 135.85C151.08 135.34 150.8 134.64 150.97 133.75C151.02 133.39 151.2 133.13 151.54 132.97C151.87 132.81 152.19 132.83 152.5 133.03L166.68 141.24C167.46 141.73 167.77 142.43 167.59 143.33C167.56 143.72 167.37 143.99 167.02 144.15C166.68 144.31 166.35 144.28 166.04 144.05Z" fill="#D4ECFF" fill-opacity="1.000000" fill-rule="nonzero"/>
	<path id="path" d="M165.92 97.13L155.48 91.11C154.72 90.6 154.43 89.9 154.62 89.01C154.66 88.64 154.84 88.38 155.17 88.22C155.5 88.06 155.82 88.08 156.13 88.28L166.56 94.32C167.35 94.81 167.65 95.5 167.47 96.41C167.44 96.8 167.26 97.07 166.91 97.23C166.56 97.39 166.23 97.36 165.92 97.13Z" fill="#D4ECFF" fill-opacity="1.000000" fill-rule="nonzero"/>
	<path id="path" d="M153.97 157.17L141.89 150.19C141.13 149.69 140.84 148.99 141.03 148.09C141.07 147.73 141.25 147.47 141.58 147.31C141.91 147.15 142.23 147.17 142.54 147.37L154.62 154.36C155.4 154.85 155.71 155.54 155.53 156.45C155.5 156.84 155.31 157.11 154.96 157.27C154.61 157.43 154.28 157.4 153.97 157.17Z" fill="#D4ECFF" fill-opacity="1.000000" fill-rule="nonzero"/>
	<path id="path" d="M235.71 182.66L228.68 178.57C227.92 178.07 227.63 177.37 227.82 176.48C227.85 176.11 228.04 175.85 228.37 175.69C228.7 175.53 229.02 175.55 229.33 175.75L236.4 179.84C237.17 180.34 237.46 181.04 237.27 181.94C237.23 182.32 237.05 182.59 236.7 182.75C236.35 182.91 236.02 182.88 235.71 182.66Z" fill="#D4ECFF" fill-opacity="1.000000" fill-rule="nonzero"/>
	<path id="path" d="M240.79 158.81L227.29 151.01C226.53 150.51 226.24 149.81 226.42 148.91C226.46 148.55 226.64 148.28 226.97 148.12C227.31 147.96 227.63 147.99 227.94 148.19L241.44 155.99C242.2 156.49 242.49 157.19 242.3 158.09C242.27 158.45 242.08 158.71 241.75 158.87C241.42 159.03 241.1 159.01 240.79 158.81Z" fill="#D4ECFF" fill-opacity="1.000000" fill-rule="nonzero"/>
	<path id="path" d="M228.98 165.38L224.56 162.83C223.8 162.32 223.52 161.62 223.7 160.73C223.74 160.37 223.92 160.1 224.25 159.95C224.59 159.79 224.9 159.81 225.21 160.01L229.63 162.56C230.42 163.05 230.72 163.75 230.54 164.66C230.51 165.04 230.32 165.31 229.97 165.48C229.62 165.64 229.29 165.6 228.98 165.38Z" fill="#D4ECFF" fill-opacity="1.000000" fill-rule="nonzero"/>
	<path id="path" d="M224.67 176.28L221.83 174.64C221.07 174.14 220.79 173.44 220.97 172.55C221.01 172.18 221.2 171.92 221.53 171.76C221.86 171.61 222.18 171.63 222.49 171.83L225.32 173.46C226.08 173.96 226.37 174.66 226.19 175.55C226.15 175.92 225.97 176.18 225.63 176.34C225.3 176.5 224.98 176.48 224.67 176.28Z" fill="#D4ECFF" fill-opacity="1.000000" fill-rule="nonzero"/>
	<path id="path" d="M245.42 174.88L233.62 168.06C232.84 167.57 232.54 166.87 232.71 165.96C232.75 165.6 232.93 165.33 233.26 165.17C233.59 165.01 233.91 165.03 234.22 165.23L246.07 172.06C246.81 172.57 247.09 173.26 246.9 174.14C246.87 174.5 246.69 174.76 246.36 174.92C246.04 175.08 245.73 175.06 245.42 174.88Z" fill="#D4ECFF" fill-opacity="1.000000" fill-rule="nonzero"/>
	<path id="path" d="M246.5 168.81L225.92 156.95C225.17 156.45 224.88 155.75 225.06 154.86C225.09 154.49 225.28 154.23 225.61 154.07C225.95 153.91 226.27 153.93 226.58 154.14L247.15 165.99C247.93 166.48 248.23 167.18 248.06 168.09C248.03 168.47 247.84 168.74 247.49 168.9C247.14 169.07 246.81 169.03 246.5 168.81Z" fill="#D4ECFF" fill-opacity="1.000000" fill-rule="nonzero"/>
	<path id="path" d="M235.01 175.55L223.16 168.73C222.41 168.23 222.12 167.53 222.3 166.64C222.34 166.27 222.52 166.01 222.85 165.86C223.18 165.7 223.5 165.72 223.81 165.92L235.65 172.74C236.44 173.23 236.74 173.93 236.56 174.83C236.53 175.22 236.34 175.49 236 175.65C235.65 175.81 235.32 175.78 235.01 175.55Z" fill="#D4ECFF" fill-opacity="1.000000" fill-rule="nonzero"/>
	<path id="path" d="M234.66 188.73L220.48 180.52C219.7 180.03 219.4 179.33 219.57 178.43C219.61 178.06 219.8 177.8 220.13 177.64C220.46 177.49 220.78 177.51 221.08 177.71L235.28 185.91C236.05 186.41 236.36 187.1 236.19 188.01C236.15 188.38 235.96 188.64 235.63 188.8C235.29 188.95 234.97 188.93 234.66 188.73Z" fill="#D4ECFF" fill-opacity="1.000000" fill-rule="nonzero"/>
	<path id="polygon" d="M266.43 103.68L277.57 99.24L275.07 82.83L269.65 87.62L266.43 103.68Z" fill="#5793CE" fill-opacity="1.000000" fill-rule="nonzero"/>
	<path id="path" d="M191.8 27.15L218.74 16.41L213.77 27.18L199.38 30.51L191.8 27.15Z" fill="#5793CE" fill-opacity="1.000000" fill-rule="nonzero"/>
	<path id="path" d="M276.28 71.81C274.92 71.03 273.47 70.52 271.91 70.31C273.4 60.39 269.12 49.91 260.9 45.16C258.52 43.76 255.95 42.96 253.19 42.75C256.42 30.72 251.44 17.05 241.35 11.19C238.92 9.73 236.3 8.86 233.49 8.59C230.67 8.32 227.93 8.67 225.28 9.64L225.03 9.74L224.64 9.9L216.2 13.22L219.57 16.11C215.02 17.55 211.06 21.24 208.98 26.7C205.13 36.73 209.08 49.01 217.79 54.05L269.54 97.72C276.08 101.49 280.05 99.91 282.94 92.36C285.83 84.8 282.82 75.59 276.28 71.81Z" fill="#5793CE" fill-opacity="1.000000" fill-rule="nonzero"/>
	<path id="path" d="M211.29 22.26L240.33 10.65C238 9.42 235.52 8.72 232.89 8.54C230.26 8.36 227.7 8.73 225.23 9.64L224.98 9.74L224.59 9.9L216.15 13.22L219.57 16.11C216.12 17.22 213.36 19.27 211.29 22.26Z" fill="#5793CE" fill-opacity="1.000000" fill-rule="nonzero"/>
	<path id="path" d="M251.71 65.82L270.84 58.17C269.14 52.52 265.78 48.17 260.75 45.1C260.12 44.74 259.48 44.41 258.81 44.12L232.44 54.7L251.71 65.82Z" fill="#5793CE" fill-opacity="1.000000" fill-rule="nonzero"/>
	<path id="path" d="M222.05 14.42L230.25 19.18L244.53 13.49C243.51 12.62 242.43 11.86 241.27 11.19C239.52 10.17 237.66 9.43 235.69 8.98L222.05 14.42Z" fill="#D4ECFF" fill-opacity="1.000000" fill-rule="nonzero"/>
	<path id="path" d="M269.61 54.97L255.82 60.44L259.89 66.17L271.73 61.46C271.31 59.2 270.6 57.04 269.61 54.97Z" fill="#D4ECFF" fill-opacity="1.000000" fill-rule="nonzero"/>
	<path id="path" d="M267.05 75.44C265.69 74.65 264.24 74.15 262.68 73.94C264.17 64.02 259.78 53.48 251.56 48.73C249.21 47.35 246.68 46.56 243.96 46.38C247.19 34.35 242.21 20.68 232.12 14.82C221.18 8.51 208.47 13.63 203.65 26.24C203.49 26.66 203.34 27.09 203.21 27.53C194.88 23.82 185.69 28 182.07 37.45C178.23 47.52 182.17 59.76 190.88 64.8L256.64 102.82C263.19 106.6 270.82 103.53 273.71 95.98C276.6 88.42 273.59 79.23 267.05 75.44Z" fill="#D4ECFF" fill-opacity="1.000000" fill-rule="nonzero"/>
	<path id="path" d="M268.41 74.69C267.05 73.89 265.6 73.39 264.04 73.18C265.53 63.26 261.14 52.72 252.92 47.97C250.57 46.58 248.04 45.78 245.32 45.58C248.54 33.56 243.57 19.89 233.43 14.03C231.96 13.14 230.41 12.46 228.75 12C227.1 11.54 225.42 11.32 223.7 11.33C221.99 11.33 220.31 11.58 218.66 12.05C217.01 12.52 215.46 13.21 214 14.12C216.87 12.66 219.91 11.99 223.13 12.11C226.34 12.23 229.32 13.13 232.07 14.79C242.21 20.66 247.19 34.32 243.92 46.35C246.63 46.54 249.17 47.32 251.52 48.7C259.71 53.45 264.12 63.99 262.64 73.91C264.19 74.13 265.65 74.63 267 75.42C273.54 79.2 276.51 88.39 273.62 95.95C272.62 98.71 270.91 100.91 268.48 102.55C271.63 100.97 273.8 98.52 274.98 95.19C277.88 87.66 274.95 78.46 268.41 74.69Z" fill="#FFFFFF" fill-opacity="1.000000" fill-rule="nonzero"/>
	<path id="path" d="M203.17 27.53C203.29 27.15 203.43 26.77 203.56 26.4C201.4 25.57 199.18 25.28 196.88 25.51C194.58 25.75 192.45 26.49 190.51 27.73C192.49 26.74 194.6 26.23 196.82 26.19C199.04 26.16 201.15 26.6 203.17 27.53Z" fill="#FFFFFF" fill-opacity="1.000000" fill-rule="nonzero"/>
	<path id="path" d="M195.73 29.5C194.52 29.49 193.36 29.72 192.26 30.2C189.65 31.34 187.39 33.99 186.06 37.45C182.69 46.3 186.3 57.51 193.95 61.93L259.71 99.95C261.53 101.17 263.48 101.45 265.57 100.79C267.24 100.12 268.72 98.36 269.63 95.98C272.07 89.59 269.46 81.5 263.94 78.31C262.97 77.74 261.92 77.37 260.81 77.21L258.14 76.85L258.49 74.56C259.85 65.44 255.63 55.75 248.46 51.6C246.6 50.48 244.58 49.84 242.41 49.68L239.11 49.46L239.85 46.72C242.81 35.7 238.03 22.96 228.98 17.73C224.77 15.29 220.34 14.8 216.5 16.34C212.67 17.88 209.52 21.41 207.66 26.28C207.52 26.65 207.39 27.04 207.26 27.42L205.5 32.89L200.33 30.59C198.87 29.9 197.34 29.53 195.73 29.5Z" fill="#396CAA" fill-opacity="1.000000" fill-rule="nonzero"/>
	<path id="polygon" d="M227.95 71.79L230.21 70.87L228.45 69.52L227.95 71.79Z" fill="#5793CE" fill-opacity="1.000000" fill-rule="nonzero"/>
	<path id="polygon" d="M226.82 47.22L229.02 46.33L228.87 47.25L226.82 47.22Z" fill="#5793CE" fill-opacity="1.000000" fill-rule="nonzero"/>
	<path id="polygon" d="M235.07 66.04L237.37 65.12L234.01 61.75L235.07 66.04Z" fill="#5793CE" fill-opacity="1.000000" fill-rule="nonzero"/>
	<path id="path" d="M229.59 70.82L220.82 65.74C220.3 65.39 220.1 64.91 220.22 64.3L222.32 54.33L232.71 60.34L230.61 70.3C230.59 70.55 230.47 70.73 230.25 70.85C230.02 70.96 229.81 70.95 229.59 70.82Z" fill="#5793CE" fill-opacity="1.000000" fill-rule="nonzero"/>
	<path id="path" d="M228.99 46.34L217.15 52.32C216.65 52.58 216.81 53.52 217.42 53.88L227.1 59.47L236.78 65.07C237.39 65.41 237.88 64.85 237.58 64.16L230.5 47.23C230.24 46.49 229.51 46.08 228.99 46.34Z" fill="#5793CE" fill-opacity="1.000000" fill-rule="nonzero"/>
	<path id="path" d="M227.32 71.75L218.54 66.67C218.02 66.32 217.83 65.84 217.95 65.23L220.05 55.26L230.44 61.27L228.34 71.23C228.32 71.48 228.2 71.66 227.98 71.78C227.75 71.89 227.54 71.88 227.32 71.75Z" fill="#D4ECFF" fill-opacity="1.000000" fill-rule="nonzero"/>
	<path id="path" d="M226.7 47.27L214.85 53.25C214.35 53.51 214.52 54.45 215.13 54.81L224.81 60.4L234.49 66C235.1 66.34 235.59 65.78 235.29 65.09L228.25 48.19C227.94 47.41 227.21 47.01 226.7 47.27Z" fill="#D4ECFF" fill-opacity="1.000000" fill-rule="nonzero"/>
	<path id="path" d="M4.71 270.45L39.79 250.27C42.53 248.69 47.38 248.9 50.57 250.75L122.55 292.52C125.73 294.35 126.07 297.16 123.3 298.75L88.2 318.93C85.47 320.51 80.61 320.31 77.42 318.45L5.46 276.68C2.27 274.83 1.94 272.04 4.71 270.45Z" fill="#B2D3EA" fill-opacity="0.100000" fill-rule="nonzero"/>
	<path id="path" d="M89.6 312.25L125.53 291.6C126.98 290.94 127.78 289.81 127.93 288.22L127.93 282.03L126.78 284.03C126.13 283.29 125.38 282.68 124.53 282.2L52.2 240.2C48.1 237.82 41.9 237.55 38.33 239.6L2.41 260.26C2.05 260.46 1.71 260.69 1.4 260.96L0 259.2L0 265.02C0 266.61 1.09 268.32 3.38 269.65L75.74 311.65C79.83 314.03 86.04 314.31 89.6 312.25Z" fill="#396CAA" fill-opacity="1.000000" fill-rule="nonzero"/>
	<path id="path" d="M2.43 255.65L38.36 234.99C41.92 232.95 48.13 233.22 52.23 235.6L124.58 277.61C128.68 279.99 129.14 283.57 125.56 285.62L89.63 306.28C86.07 308.32 79.86 308.05 75.76 305.67L3.41 263.67C-0.69 261.29 -1.13 257.7 2.43 255.65Z" fill="#D4ECFF" fill-opacity="1.000000" fill-rule="nonzero"/>
	<path id="path" d="M125.55 285.62L89.63 306.28C86.07 308.32 79.86 308.05 75.76 305.67L3.41 263.67C1.43 262.52 0.3 261.08 0.08 259.67C-0.21 261.4 0.92 263.32 3.41 264.72L75.76 306.73C79.86 309.11 86.07 309.38 89.63 307.34L125.55 286.68C127.38 285.62 128.16 284.16 127.91 282.66C127.61 284.03 126.82 285.02 125.55 285.62Z" fill="#FFFFFF" fill-opacity="1.000000" fill-rule="nonzero"/>
	<path id="path" d="M4.71 256.48L39.79 236.31C42.53 234.72 47.38 234.93 50.57 236.78L122.55 278.56C125.73 280.38 126.07 283.2 123.3 284.79L88.2 304.96C85.47 306.56 80.61 306.35 77.42 304.5L5.46 262.72C2.27 260.87 1.94 258.08 4.71 256.48Z" fill="#FFFFFF" fill-opacity="1.000000" fill-rule="nonzero"/>
	<path id="path" d="M61.23 263.82L48.28 256.32C47.81 256.04 47.86 255.55 48.42 255.23C49.03 254.89 49.66 254.87 50.3 255.16L63.29 262.66C63.77 262.94 63.71 263.43 63.15 263.75C62.52 264.11 61.88 264.13 61.23 263.82Z" fill="#B2D3EA" fill-opacity="1.000000" fill-rule="nonzero"/>
	<path id="path" d="M48.92 261.29L44.28 258.61C43.8 258.32 43.86 257.84 44.42 257.52C45.03 257.18 45.66 257.15 46.3 257.44L50.93 260.12C51.42 260.39 51.35 260.89 50.8 261.21C50.19 261.54 49.56 261.57 48.92 261.29Z" fill="#B2D3EA" fill-opacity="1.000000" fill-rule="nonzero"/>
	<path id="path" d="M56.69 265.77L52.06 263.1C51.58 262.82 51.64 262.34 52.19 262.02C52.81 261.67 53.44 261.64 54.08 261.93L58.71 264.62C59.19 264.89 59.13 265.37 58.57 265.7C57.96 266.04 57.33 266.07 56.69 265.77Z" fill="#396CAA" fill-opacity="1.000000" fill-rule="nonzero"/>
	<path id="path" d="M72.42 274.86L59.84 267.57C59.35 267.29 59.42 266.81 59.97 266.48C60.59 266.14 61.21 266.12 61.85 266.41L74.43 273.71C74.91 273.98 74.85 274.47 74.3 274.79C73.68 275.13 73.06 275.15 72.42 274.86Z" fill="#B2D3EA" fill-opacity="1.000000" fill-rule="nonzero"/>
	<path id="path" d="M56.56 270.27L40.33 260.9C39.85 260.61 39.91 260.13 40.47 259.81C41.08 259.46 41.7 259.43 42.34 259.73L58.57 269.1C59.05 269.38 58.99 269.87 58.43 270.19C57.82 270.53 57.2 270.56 56.56 270.27Z" fill="#B2D3EA" fill-opacity="1.000000" fill-rule="nonzero"/>
	<path id="path" d="M76.07 286.11L36.38 263.17C35.89 262.9 35.96 262.41 36.51 262.09C37.13 261.75 37.75 261.72 38.39 262.02L78.09 284.96C78.57 285.23 78.51 285.72 77.96 286.04C77.34 286.38 76.71 286.41 76.07 286.11Z" fill="#396CAA" fill-opacity="1.000000" fill-rule="nonzero"/>
	<path id="path" d="M87.66 279.09L64.82 265.9C64.34 265.62 64.39 265.13 64.95 264.81C65.56 264.46 66.19 264.44 66.83 264.73L89.67 277.94C90.16 278.21 90.09 278.69 89.54 279.02C88.92 279.36 88.3 279.39 87.66 279.09Z" fill="#B2D3EA" fill-opacity="1.000000" fill-rule="nonzero"/>
	<path id="path" d="M59.67 300.65L56.34 298.71C55.94 298.43 55.74 298.05 55.74 297.57C55.74 297.12 56 296.92 56.34 297.11L59.67 299.05C60.07 299.33 60.27 299.71 60.28 300.2C60.28 300.64 60.01 300.88 59.67 300.65Z" fill="#D4ECFF" fill-opacity="1.000000" fill-rule="nonzero"/>
	<path id="path" d="M64.93 303.69L61.6 301.79C61.2 301.51 61 301.12 60.99 300.64C60.99 300.2 61.26 299.99 61.6 300.18L64.93 302.12C65.33 302.4 65.53 302.78 65.53 303.26C65.53 303.68 65.27 303.88 64.93 303.69Z" fill="#D4ECFF" fill-opacity="1.000000" fill-rule="nonzero"/>
</svg>
