<svg width="1920.000000" height="125.000000" viewBox="0 0 1920 125" fill="none" xmlns="http://www.w3.org/2000/svg" xmlns:xlink="http://www.w3.org/1999/xlink">
	<desc>
			Created with Pixso.
	</desc>
	<defs/>
	<mask id="mask162_414" mask-type="alpha" maskUnits="userSpaceOnUse" x="0.000000" y="0.000000" width="1920.000000" height="125.000000">
		<rect id="Rectangle 3" width="1920.000000" height="125.000000" fill="#002175" fill-opacity="1.000000"/>
	</mask>
	<g mask="url(#mask162_414)">
		<path id="path" d="M908.34 24.02L908.34 24.04L907.86 24.04C905.71 24.1 903.58 24.24 901.47 24.46L901.47 24.48L901.17 24.48C900.03 24.6 898.89 24.74 897.76 24.91L897.76 24.93L897.57 24.93C896.75 25.05 895.93 25.18 895.12 25.32L895.12 25.38L894.77 25.38C894 25.52 893.23 25.67 892.47 25.82L892.42 25.83C891.73 25.97 891.04 26.12 890.35 26.28C889.83 26.4 889.29 26.53 888.77 26.66L888.77 26.73L888.47 26.73C886.42 27.25 884.4 27.83 882.42 28.48L882.42 28.53L882.29 28.53C881.44 28.81 880.6 29.1 879.77 29.4L879.77 29.43L879.7 29.43L878.71 29.79L878.71 29.87L878.5 29.87C876.41 30.67 874.36 31.55 872.36 32.5L872.36 32.57L872.22 32.57L871.31 33.01L871.29 33.02C869.86 33.72 868.45 34.47 867.07 35.25L867.07 35.27L867.04 35.27C865.8 35.97 864.57 36.71 863.37 37.48L863.37 37.51L863.31 37.51C862.72 37.9 862.13 38.28 861.54 38.68C860.97 38.27 860.37 37.88 859.76 37.51L859.67 37.51L859.67 37.45C859.17 37.16 858.67 36.88 858.15 36.61L858.08 36.61L858.08 36.57C857.8 36.43 857.52 36.3 857.24 36.16L857.02 36.16L857.02 36.06C856.4 35.77 855.77 35.51 855.12 35.27L854.9 35.27L854.9 35.18C854.55 35.06 854.2 34.93 853.84 34.82L853.32 34.82L853.32 34.65C852.99 34.55 852.66 34.46 852.33 34.37L851.73 34.37L851.73 34.21C851.29 34.11 850.85 34.01 850.41 33.92L850.14 33.92L850.14 33.86L849.57 33.76C848.87 33.64 848.16 33.54 847.46 33.47L846.44 33.47L846.44 33.38C844.83 33.27 843.24 33.27 841.68 33.4L841.68 33.47L840.92 33.47C839.37 33.63 837.85 33.91 836.38 34.29L836.38 34.37L836.1 34.37C832.92 35.22 829.97 36.57 827.39 38.33L827.39 38.41L827.28 38.41C825.98 39.31 824.77 40.3 823.68 41.4L823.68 41.55L823.53 41.55L823.16 41.95L823.16 42L823.11 42C822.35 42.81 821.66 43.67 821.04 44.58L821.04 44.7L820.96 44.7C820.8 44.92 820.66 45.15 820.51 45.38L820.51 45.6L820.38 45.6C819.82 46.51 819.34 47.46 818.92 48.44L818.92 48.74L818.8 48.74C818.66 49.1 818.52 49.47 818.39 49.84L818.39 50.09L818.32 50.09C818.16 50.57 818.03 51.05 817.91 51.55C817.62 52.75 817.48 53.95 817.42 55.13C816.59 55.08 815.77 55.05 814.95 55.03L810.32 55.03C808.41 55.08 806.52 55.2 804.64 55.38L804.64 55.48L803.73 55.48C802.62 55.6 801.51 55.74 800.4 55.91L800.4 55.93L800.29 55.93C799.44 56.06 798.6 56.2 797.76 56.35L797.76 56.38L797.63 56.38C796.97 56.5 796.3 56.63 795.64 56.77L795.64 56.82L795.39 56.82C794.77 56.96 794.14 57.1 793.53 57.25L793.53 57.27L793.42 57.27C791.85 57.65 790.3 58.08 788.76 58.55L788.76 58.62L788.53 58.62C788.08 58.76 787.63 58.91 787.18 59.05L787.18 59.07L787.13 59.07C785.89 59.48 784.67 59.91 783.47 60.38L783.47 60.42L783.37 60.42L782.42 60.8L782.42 60.87L782.24 60.87L781.36 61.23L781.36 61.32L781.16 61.32L780.3 61.69L780.3 61.77L780.12 61.77L779.24 62.16L779.24 62.21L779.13 62.21L778.18 62.66C777.29 63.08 776.4 63.53 775.54 63.98L775.54 64.01L775.48 64.01C774.96 64.28 774.45 64.56 773.95 64.84L773.95 64.91L773.82 64.91C773.33 65.18 772.84 65.46 772.36 65.75L772.36 65.81L772.26 65.81C770.85 66.65 769.47 67.53 768.13 68.45L768.13 68.5L768.06 68.5C766.81 69.36 765.6 70.26 764.42 71.19L763.89 71.62L763.89 71.65L763.86 71.65L763.37 72.05L763.37 72.1L763.31 72.1L762.84 72.49L762.84 72.55L762.77 72.55L762.31 72.94L762.31 72.99L762.25 72.99L761.78 73.41L761.78 73.44L761.74 73.44L761.25 73.87L761.25 73.89L761.23 73.89C760.55 74.51 759.88 75.13 759.23 75.77C758.08 75.43 756.9 75.12 755.67 74.91L754.94 74.79L754.37 74.79L754.37 74.71C751.49 74.34 748.64 74.37 745.91 74.75L745.91 74.79L745.63 74.79C744.28 74.99 742.96 75.29 741.67 75.66L741.67 75.69L741.56 75.69C740.7 75.94 739.85 76.23 739.03 76.56L739.03 76.59L738.95 76.59C738.62 76.72 738.29 76.86 737.97 77L737.97 77.04L737.89 77.04C736.22 77.78 734.65 78.66 733.21 79.68L733.21 79.73L733.12 79.73C732.02 80.51 730.98 81.37 730.03 82.3L730.03 82.43L729.91 82.43L729.5 82.84L729.5 82.88L729.46 82.88C728.92 83.45 728.4 84.04 727.92 84.66C726.87 86.01 725.97 87.47 725.27 89.02L725.27 89.16L725.21 89.16C725.04 89.54 724.88 89.92 724.74 90.3L724.74 90.51L724.66 90.51C724.41 91.22 724.18 91.95 724.01 92.7C723.87 93.25 723.76 93.81 723.68 94.36L723.68 95.45L723.55 95.45C723.49 96.22 723.47 96.99 723.49 97.75L722.34 97.7L716.65 97.7C714.92 97.77 713.21 97.9 711.51 98.09L711.51 98.15L711.03 98.15C710.3 98.24 709.58 98.34 708.87 98.44L708.87 98.6L707.91 98.6C707.34 98.69 706.78 98.79 706.22 98.9L706.22 99.05L705.46 99.05C704.83 99.17 704.2 99.31 703.58 99.46L703.58 99.5L703.4 99.5C701.85 99.86 700.32 100.28 698.81 100.74L698.81 100.84L698.48 100.84C698.06 100.98 697.64 101.11 697.23 101.25L697.23 101.29L697.1 101.29L696.17 101.62L696.17 101.74L695.81 101.74L695.11 102L695.11 102.19L694.61 102.19L693.52 102.62L693.52 102.64L693.46 102.64L692.46 103.05L692.46 103.09L692.38 103.09L691.41 103.51L691.41 103.54L691.34 103.54C690.47 103.93 689.61 104.33 688.76 104.75L688.76 104.89L688.5 104.89L687.7 105.3L687.7 105.33L687.62 105.33L687.17 105.57L687.17 105.78L686.78 105.78L686.11 106.15L686.11 106.23L685.96 106.23C685.48 106.51 685 106.79 684.53 107.07L684.53 107.13L684.42 107.13C682.81 108.1 681.26 109.12 679.77 110.22L679.77 110.28L679.69 110.28L679.24 110.61L679.24 110.72L679.09 110.72L678.71 111.01L678.71 111.17L678.5 111.17L678.18 111.42L678.18 111.62L677.93 111.62L677.65 111.84L677.65 112.07L677.37 112.07C676.18 113.04 675.04 114.05 673.94 115.09L673.94 115.22L673.82 115.22L673.42 115.61L673.42 115.67L673.36 115.67C672.84 116.18 672.33 116.71 671.83 117.24L671.83 117.46L671.62 117.46L671.3 117.81L671.3 117.91L671.21 117.91C670.88 118.28 670.56 118.64 670.24 119.02L670.24 119.26L670.04 119.26L669.71 119.64L669.71 119.71L669.66 119.71C668.94 120.58 668.25 121.47 667.6 122.39L667.6 122.4C667.42 122.65 667.24 122.9 667.07 123.14L667.07 123.3L666.95 123.3L666.54 123.92L666.54 124.2L666.35 124.2L666.01 124.73L666.01 125.1L665.78 125.1L665.48 125.58L665.48 126L665.23 126L664.95 126.47L664.95 126.89L664.71 126.89C663.82 128.47 663.01 130.1 662.31 131.77L662.31 132.28L662.09 132.28L661.78 133.08L661.78 133.63L661.57 133.63L661.25 134.51L661.25 134.98L661.09 134.98C660.96 135.36 660.84 135.74 660.72 136.12L660.72 136.33L660.65 136.33C660.49 136.87 660.33 137.41 660.19 137.95L660.19 138.12L660.15 138.12L659.92 139C659.83 139.39 659.74 139.78 659.66 140.17L659.66 140.37L659.62 140.37C659.4 141.42 659.23 142.48 659.09 143.53L657.98 143.31C657.47 143.22 656.96 143.14 656.45 143.06L655.43 143.06L655.43 142.92C654.4 142.79 653.37 142.69 652.34 142.62L649.61 142.62L649.61 142.48C648.36 142.45 647.13 142.46 645.9 142.5L645.9 142.62L643.89 142.62C642.97 142.68 642.05 142.77 641.14 142.89L641.14 143.06L639.82 143.06C638.3 143.29 636.8 143.57 635.32 143.91L635.32 143.96L635.09 143.96C634.64 144.07 634.18 144.18 633.73 144.3L633.73 144.41L633.31 144.41C632.92 144.52 632.53 144.63 632.15 144.74L632.15 144.86L631.74 144.86C631.34 144.98 630.95 145.11 630.56 145.23L630.56 145.31L630.32 145.31C629.51 145.58 628.71 145.87 627.91 146.17L627.91 146.21L627.82 146.21L626.85 146.59L626.85 146.66L626.69 146.66L625.8 147.04L625.8 147.11L625.64 147.11L624.74 147.51L624.74 147.56L624.64 147.56C624.14 147.79 623.64 148.03 623.15 148.27L623.15 148.46L622.79 148.46L622.09 148.82L622.09 148.9L621.93 148.9C621.24 149.28 620.55 149.66 619.88 150.07C619.86 148.77 619.75 147.48 619.56 146.21L619.45 146.21L619.45 145.56C619.32 144.87 619.17 144.19 619 143.51L618.92 143.51L618.92 143.21C618.78 142.71 618.63 142.21 618.46 141.72L618.39 141.72L618.39 141.49C617.83 139.87 617.13 138.29 616.28 136.78L616.27 136.76C616.11 136.46 615.94 136.17 615.76 135.88L615.74 135.88L615.74 135.84C615 134.61 614.16 133.42 613.24 132.28L613.1 132.28L613.1 132.11C612.77 131.71 612.43 131.32 612.08 130.94L612.04 130.94L612.04 130.89C610.08 128.73 607.79 126.78 605.23 125.1L605.16 125.1L605.16 125.05C603.36 123.88 601.43 122.84 599.38 121.95L599.34 121.95L599.34 121.94C599 121.79 598.65 121.65 598.3 121.5C597.02 121 595.7 120.54 594.34 120.16L594.05 120.16L594.05 120.07C593.59 119.94 593.12 119.82 592.65 119.71L592.46 119.71L592.46 119.66C591.59 119.45 590.7 119.27 589.79 119.12C589.09 118.99 588.39 118.89 587.68 118.81L585.05 118.81L585.05 118.58C583.56 118.49 582.08 118.48 580.62 118.54C580.34 117.88 580.06 117.22 579.77 116.56L579.36 115.67L579.23 115.67L579.23 115.41C578.92 114.74 578.59 114.08 578.25 113.42L578.17 113.42L578.17 113.28L577.77 112.52L577.65 112.52L577.65 112.3C576.86 110.85 576.01 109.43 575.1 108.03L575 108.03L575 107.88L574.5 107.13L574.47 107.13L574.47 107.08C574.18 106.65 573.88 106.21 573.57 105.78L573.41 105.78L573.41 105.56L572.92 104.89L572.88 104.89L572.88 104.84C572.22 103.94 571.54 103.06 570.83 102.19L570.77 102.19L570.77 102.12C570.29 101.54 569.8 100.96 569.31 100.39L569.18 100.39L569.18 100.25C568.69 99.69 568.18 99.14 567.67 98.6L567.59 98.6L567.59 98.51C566.76 97.62 565.9 96.75 565.01 95.9L564.95 95.9L564.95 95.85L564.53 95.45L564.42 95.45L564.42 95.35L564.05 95L563.89 95L563.89 94.85C562.06 93.18 560.13 91.58 558.09 90.06L558.07 90.06L558.07 90.04C557.26 89.44 556.43 88.85 555.59 88.27L555.42 88.27L555.42 88.16L554.92 87.82L554.89 87.82L554.89 87.8C554.22 87.35 553.53 86.9 552.84 86.47L552.78 86.47L552.78 86.43C551.29 85.5 549.77 84.62 548.2 83.78L548.02 83.78L548.02 83.68C547.51 83.41 546.99 83.14 546.47 82.88L546.43 82.88L546.43 82.85L545.57 82.43L545.37 82.43L545.37 82.33C543.09 81.22 540.74 80.2 538.32 79.28L537.96 79.28L537.96 79.15L537.1 78.83L536.9 78.83L536.9 78.76C536.11 78.48 535.3 78.2 534.49 77.94L534.26 77.94L534.26 77.86C532.84 77.41 531.4 76.98 529.94 76.59L529.5 76.59L529.5 76.47C529.07 76.36 528.64 76.25 528.2 76.14L527.91 76.14L527.91 76.07C527.37 75.94 526.83 75.81 526.29 75.69L525.79 75.69L525.79 75.58C524.5 75.3 523.19 75.04 521.87 74.81C520.86 74.64 519.84 74.48 518.83 74.34L518.39 74.34L518.39 74.28C517.27 74.13 516.16 74 515.05 73.89L514.68 73.89L514.68 73.86C508.96 73.32 503.29 73.33 497.75 73.83L497.75 73.89L497.15 73.89C495.93 74.01 494.72 74.15 493.52 74.32L493.52 74.34L493.36 74.34C492.53 74.46 491.7 74.59 490.87 74.73L490.87 74.79L490.49 74.79C489.74 74.92 488.98 75.06 488.23 75.21L488.23 75.24L488.08 75.24C487.42 75.37 486.76 75.51 486.11 75.66L486.11 75.69L485.98 75.69C484.78 75.96 483.59 76.26 482.41 76.57L482.41 76.59L482.35 76.59C481.84 76.73 481.33 76.87 480.82 77.02L480.82 77.04L480.75 77.04C479.35 77.44 477.96 77.89 476.58 78.36L476.58 78.38L476.51 78.38L475.53 78.73L475.53 78.83L475.25 78.83C474.45 79.12 473.66 79.42 472.88 79.73L471.82 80.16L471.82 80.18L471.77 80.18C471.08 80.47 470.39 80.76 469.71 81.07L469.68 81.08C468.44 81.63 467.21 82.21 466 82.82L466 82.88L465.89 82.88C465.04 83.31 464.19 83.75 463.36 84.21L463.34 84.22C462.81 84.51 462.29 84.81 461.77 85.11L461.77 85.12L461.75 85.12C461.04 85.53 460.34 85.95 459.65 86.38L459.65 86.47L459.5 86.47C458.63 87.01 457.77 87.57 456.92 88.15C456.32 87.72 455.7 87.31 455.05 86.92L454.89 86.92L454.89 86.82C454.42 86.54 453.93 86.28 453.43 86.02L453.3 86.02L453.3 85.96C452.36 85.48 451.38 85.05 450.36 84.67L450.13 84.67L450.13 84.59C449.78 84.46 449.42 84.34 449.06 84.22L448.54 84.22L448.54 84.07C448.2 83.96 447.85 83.87 447.5 83.78L446.96 83.78L446.96 83.64C446.48 83.52 445.99 83.42 445.5 83.33L445.37 83.33L445.37 83.3L444.95 83.23C444.05 83.07 443.14 82.95 442.24 82.88L441.13 82.88L441.13 82.8C440.07 82.75 439.01 82.75 437.96 82.81L437.96 82.88L436.92 82.88C435.84 82.97 434.78 83.12 433.73 83.32L433.67 83.33C431.67 83.71 429.73 84.29 427.91 85.04L427.91 85.12L427.72 85.12C427.42 85.24 427.13 85.37 426.85 85.5L426.85 85.57L426.7 85.57C426.39 85.71 426.09 85.86 425.79 86.01C425.25 86.29 424.72 86.58 424.2 86.89L424.2 86.92L424.15 86.92C423.25 87.46 422.38 88.05 421.56 88.68L421.56 88.72L421.51 88.72C420.98 89.13 420.47 89.56 419.97 90.01L419.97 90.06L419.91 90.06L419.44 90.5L419.44 90.51C418.47 91.44 417.58 92.45 416.8 93.52L416.8 93.66L416.69 93.66C415.66 95.1 414.8 96.65 414.15 98.3L414.15 98.6L414.04 98.6C413.88 99 413.75 99.4 413.62 99.81L413.62 99.94L413.58 99.94C413.48 100.3 413.38 100.65 413.29 101.01C413.22 101.33 413.15 101.65 413.09 101.97L413.09 102.19L413.05 102.19C412.92 103 412.85 103.8 412.81 104.6C408.62 104.36 404.46 104.44 400.39 104.82L400.39 104.89L399.69 104.89C397.61 105.1 395.55 105.39 393.51 105.75L393.51 105.78L393.33 105.78C392.68 105.9 392.04 106.03 391.4 106.16L391.4 106.23L391.05 106.23C388.28 106.82 385.57 107.54 382.93 108.4L382.93 108.48L382.69 108.48C378.33 109.91 374.16 111.7 370.23 113.81L370.23 113.87L370.13 113.87C369.63 114.14 369.14 114.42 368.65 114.7L368.65 114.77L368.52 114.77C367.3 115.47 366.11 116.2 364.94 116.96L364.94 117.01L364.86 117.01C363.99 117.58 363.14 118.17 362.3 118.78L362.3 118.81L362.25 118.81L361.77 119.16L361.77 119.26L361.64 119.26C359.14 121.1 356.8 123.1 354.62 125.23C353.9 125.02 353.17 124.82 352.42 124.65L352.24 124.65L352.24 124.61C351.85 124.52 351.46 124.44 351.06 124.37C350.68 124.31 350.31 124.25 349.93 124.2L349.6 124.2L349.6 124.16C345.97 123.7 342.38 123.89 339.02 124.64L339.02 124.65L338.95 124.65C337.89 124.89 336.85 125.18 335.84 125.52L335.84 125.55L335.75 125.55C334.31 126.04 332.92 126.64 331.61 127.33L331.61 127.34L331.58 127.34C327.36 129.57 323.88 132.77 321.62 136.67L320.52 135.43L320.5 135.43L320.5 135.41L320.11 134.98L319.97 134.98L319.97 134.82C319.47 134.27 318.96 133.73 318.45 133.18L318.38 133.18L318.38 133.11L318.03 132.73L317.85 132.73L317.85 132.55L317.6 132.28L317.32 132.28L317.32 132L316.29 130.94L316.26 130.94L316.26 130.91L315.84 130.49L315.74 130.49L315.74 130.38L315.39 130.04L315.21 130.04L315.21 129.85L314.94 129.59L314.68 129.59L314.68 129.33C313.99 128.66 313.3 128 312.6 127.34L312.56 127.34L312.56 127.3L312.12 126.89L312.03 126.89L312.03 126.81C310.24 125.15 308.4 123.53 306.51 121.95L306.21 121.95L306.21 121.71L305.96 121.5L305.68 121.5L305.68 121.27L305.42 121.06L305.15 121.06L305.15 120.84L304.87 120.61L304.62 120.61L304.62 120.41L304.31 120.16L304.1 120.16L304.1 119.99L303.74 119.71L303.57 119.71L303.57 119.57L303.17 119.26L303.04 119.26L303.04 119.15L302.59 118.81L302.51 118.81L302.51 118.74L302.01 118.36L301.98 118.36L301.98 118.34C300.59 117.27 299.18 116.23 297.75 115.22C297.11 114.76 296.47 114.31 295.82 113.87L295.63 113.87L295.63 113.74L295.16 113.42L295.1 113.42L295.1 113.38L293.82 112.52L293.51 112.52L293.51 112.32L293.14 112.07L292.98 112.07L292.98 111.97L291.75 111.17L291.4 111.17L291.4 110.95L291.04 110.72L290.87 110.72L290.87 110.62L289.6 109.83L289.28 109.83L289.28 109.63L288.86 109.38L288.75 109.38L288.75 109.31L287.36 108.48L287.16 108.48L287.16 108.36C285.12 107.16 283.04 106 280.93 104.89L280.81 104.89L280.81 104.82L280.07 104.44L279.76 104.44L279.76 104.27L278.32 103.54L278.17 103.54L278.17 103.46L277.42 103.09L277.11 103.09L277.11 102.94L276.5 102.64L276.05 102.64L276.05 102.42L275.58 102.19L275.52 102.19L275.52 102.17L274.63 101.74L274.46 101.74L274.46 101.66L273.67 101.29L273.41 101.29L273.41 101.17L272.69 100.84L272.35 100.84L272.35 100.69C270.97 100.07 269.58 99.46 268.17 98.88C267.9 98.02 267.56 97.17 267.18 96.35L267.06 96.35L267.06 96.1C266.95 95.88 266.85 95.67 266.73 95.45L266.53 95.45L266.53 95.07C265.92 93.95 265.21 92.88 264.41 91.86L264.05 91.41L263.88 91.41L263.88 91.2C263.56 90.81 263.22 90.44 262.87 90.06L262.82 90.06L262.82 90.02L262.43 89.61L262.29 89.61L262.29 89.48C261.38 88.57 260.37 87.71 259.3 86.92L259.12 86.92L259.12 86.79L258.67 86.47L258.59 86.47L258.59 86.41C258.17 86.12 257.74 85.84 257.3 85.57L257 85.57L257 85.39L256.54 85.12L256.48 85.12L256.48 85.09C255.64 84.61 254.77 84.18 253.88 83.78L253.83 83.78L253.83 83.75C253.49 83.61 253.16 83.46 252.81 83.33L252.24 83.33L252.24 83.1L251.62 82.88L251.18 82.88L251.18 82.72C250.88 82.62 250.57 82.52 250.26 82.43L250.12 82.43L250.12 82.39C249.63 82.24 249.14 82.1 248.64 81.98L248.54 81.98L248.54 81.95L248.04 81.83C247.89 81.28 247.74 80.73 247.56 80.18L247.48 80.18L247.48 79.91C246.43 76.67 244.84 73.59 242.8 70.75L242.72 70.75L242.72 70.64C241.48 68.93 240.07 67.32 238.51 65.81L238.48 65.81L238.48 65.78L238.04 65.36L237.96 65.36L237.96 65.28C237.15 64.53 236.3 63.81 235.42 63.11L235.31 63.11L235.31 63.03L234.83 62.66L234.78 62.66L234.78 62.63C232.53 60.93 230.06 59.43 227.38 58.17C227.06 58.02 226.73 57.87 226.41 57.72L226.31 57.72L226.31 57.68C226 57.54 225.68 57.41 225.35 57.27L225.26 57.27L225.26 57.23C224.92 57.09 224.57 56.96 224.23 56.82L224.2 56.82C222.89 56.32 221.54 55.87 220.15 55.48L219.97 55.48L219.97 55.43C219.46 55.29 218.95 55.15 218.43 55.03L218.38 55.03C217.71 54.87 217.04 54.71 216.36 54.58L216.26 54.58L216.26 54.56L215.31 54.39C214.76 54.29 214.21 54.2 213.66 54.13L212.56 54.13L212.56 53.99C211.1 53.82 209.65 53.72 208.2 53.68L207.8 53.68L207.27 53.66L207.27 53.68L205.58 53.68C202.92 53.75 200.29 54.04 197.74 54.53L197.74 54.58L197.48 54.58C196.86 54.7 196.24 54.83 195.63 54.98L195.63 55.03L195.43 55.03C193.5 55.5 191.62 56.08 189.81 56.77L189.81 56.82L189.66 56.82L188.75 57.19L188.75 57.27L188.53 57.27L187.69 57.63L187.69 57.72L187.48 57.72C187.04 57.92 186.59 58.13 186.15 58.34C185.65 57.52 185.11 56.72 184.56 55.93L184.52 55.93L184.52 55.87C183.55 54.5 182.51 53.17 181.41 51.88L181.34 51.88L181.34 51.8C180.84 51.22 180.33 50.65 179.8 50.09L179.75 50.09L179.75 50.04C178.75 48.97 177.71 47.94 176.62 46.94L176.58 46.94L176.58 46.91L176.12 46.49L176.05 46.49L176.05 46.43L175.61 46.04L175.52 46.04L175.52 45.97C174.85 45.38 174.15 44.81 173.44 44.25L173.4 44.25L173.4 44.21C172.23 43.29 171.02 42.4 169.76 41.55L169.7 41.55L169.7 41.51C169.04 41.06 168.36 40.63 167.68 40.21L167.58 40.21L167.58 40.15C163.55 37.65 159.12 35.55 154.36 33.92C153.92 33.76 153.47 33.61 153.02 33.47L152.77 33.47L152.77 33.39C151.29 32.92 149.78 32.5 148.25 32.12L148 32.12L148 32.06C146.46 31.69 144.88 31.36 143.27 31.08C142.62 30.97 141.98 30.87 141.33 30.77L141.13 30.77L141.13 30.75C135.4 29.93 129.72 29.8 124.2 30.29L124.2 30.32L123.84 30.32C120.91 30.6 118.02 31.05 115.2 31.67C112.49 32.26 109.84 33.01 107.26 33.9L107.26 33.92L107.21 33.92C98.34 36.98 90.37 41.75 83.98 47.83C83.07 48.7 82.18 49.61 81.34 50.53C80.8 51.12 80.26 51.72 79.75 52.33C79.39 52.76 79.04 53.2 78.69 53.64L78.69 53.68L78.66 53.68C78.31 54.12 77.97 54.57 77.63 55.02C76.89 56.04 76.18 57.07 75.52 58.13L75.52 58.17L75.49 58.17C74.94 59.05 74.42 59.93 73.93 60.84L73.93 60.87C73.16 62.29 72.44 63.75 71.81 65.24L71.81 65.36L71.76 65.36C71.6 65.75 71.44 66.15 71.28 66.55L71.28 66.71L71.22 66.71C71.06 67.13 70.9 67.55 70.76 67.97L70.76 68.05L70.73 68.05C70.59 68.44 70.46 68.83 70.34 69.23L69.74 68.95L69.7 68.95L69.7 68.93L68.72 68.5L68.64 68.5L68.64 68.47L67.66 68.05L67.58 68.05L67.58 68.02L66.56 67.61L66.52 67.61L66.52 67.59C65.75 67.28 64.97 66.99 64.18 66.71L63.88 66.71L63.88 66.6L62.9 66.26L62.82 66.26L62.82 66.23C61.41 65.75 59.98 65.31 58.53 64.91L58.06 64.91L58.06 64.78C57.65 64.67 57.25 64.56 56.84 64.46L56.47 64.46L56.47 64.37C55.98 64.25 55.48 64.13 54.98 64.01L54.35 64.01L54.35 63.87C53.87 63.76 53.38 63.66 52.9 63.56L52.76 63.56L52.76 63.54C52.06 63.4 51.35 63.26 50.64 63.14C49.6 62.96 48.56 62.8 47.52 62.66L46.95 62.66L46.95 62.59C45.77 62.44 44.59 62.31 43.41 62.21L42.71 62.21L42.71 62.16C38.43 61.84 34.18 61.85 30.01 62.18L30.01 62.21L29.54 62.21C28.46 62.31 27.38 62.42 26.31 62.55L26.31 62.66L25.44 62.66C24.49 62.79 23.54 62.94 22.61 63.1L22.61 63.11L22.52 63.11C21.84 63.23 21.16 63.36 20.49 63.49L20.49 63.56L20.12 63.56C19.54 63.68 18.95 63.81 18.37 63.94L18.37 64.01L18.05 64.01C17.45 64.15 16.85 64.3 16.25 64.45L16.21 64.46C15.69 64.59 15.18 64.73 14.67 64.87L14.67 64.91L14.53 64.91C13.15 65.3 11.78 65.72 10.44 66.17L10.44 66.26L10.18 66.26C9.38 66.53 8.58 66.82 7.79 67.12L7.79 67.16L7.69 67.16L6.73 67.53L6.73 67.61L6.54 67.61C5.17 68.15 3.82 68.73 2.5 69.35L2.5 69.4L2.4 69.4C1.54 69.8 0.69 70.22 -0.15 70.65L-0.15 70.75L-0.33 70.75C-1.16 71.18 -1.98 71.63 -2.79 72.09C-3.5 72.49 -4.22 72.91 -4.91 73.34L-4.91 73.44L-5.09 73.44C-5.74 73.85 -6.39 74.27 -7.03 74.69L-7.03 74.79L-7.18 74.79C-8.02 75.36 -8.86 75.94 -9.67 76.53L-9.67 76.59L-9.75 76.59C-12.29 78.46 -14.69 80.48 -16.91 82.66C-17.71 82.57 -18.5 82.49 -19.3 82.43L-19.72 82.43L-19.72 82.39C-24.37 82.03 -28.97 82.04 -33.48 82.41L-33.48 82.43L-33.66 82.43C-36.82 82.69 -39.95 83.13 -43.01 83.73L-43.01 83.78L-43.21 83.78C-45.1 84.15 -46.98 84.6 -48.83 85.1L-48.83 85.12L-48.9 85.12C-49.41 85.26 -49.91 85.41 -50.41 85.55L-50.41 85.57L-50.48 85.57C-55.85 87.16 -60.98 89.27 -65.76 91.84L-65.76 91.86L-65.79 91.86C-66.31 92.14 -66.83 92.43 -67.34 92.72L-67.34 92.76L-67.41 92.76C-68.65 93.47 -69.86 94.21 -71.05 94.98L-71.05 95L-71.08 95C-71.97 95.58 -72.84 96.17 -73.69 96.78L-73.69 96.8L-73.72 96.8C-76.95 99.11 -79.95 101.66 -82.69 104.43C-83.41 105.16 -84.12 105.91 -84.81 106.67C-85.72 107.69 -86.61 108.75 -87.45 109.82C-89.65 112.61 -91.61 115.59 -93.27 118.72L-93.27 118.81L-93.32 118.81C-93.87 119.84 -94.38 120.88 -94.86 121.93L-94.86 121.95L-95.39 123.13L-95.39 123.3L-95.46 123.3C-96.02 124.62 -96.52 125.95 -96.98 127.31L-96.98 127.34C-97.16 127.88 -97.34 128.42 -97.51 128.97L-97.51 129.14L-97.55 129.14C-97.72 129.71 -97.88 130.29 -98.04 130.87L-98.04 130.94L-98.05 130.94C-98.14 131.29 -98.24 131.64 -98.32 131.99C-98.41 132.34 -98.49 132.7 -98.56 133.06L-98.56 133.18L-98.59 133.18C-98.78 134.07 -98.95 134.95 -99.09 135.83L-99.09 136.33L-99.17 136.33C-99.37 137.62 -99.52 138.9 -99.62 140.18L-99.62 142.17L-99.74 142.17C-99.82 144.13 -99.8 146.07 -99.66 148L-99.62 148L-99.62 148.51C-99.52 149.85 -99.36 151.18 -99.15 152.5L-99.09 152.5L-99.09 152.87C-98.94 153.8 -98.76 154.72 -98.56 155.64C-98.43 156.24 -98.29 156.84 -98.14 157.44L-98.03 157.44L-98.03 157.85C-97.87 158.46 -97.7 159.07 -97.52 159.68L-97.51 159.73C-97.33 160.31 -97.15 160.89 -96.96 161.46L-97.51 161.89L-97.51 161.93L-97.55 161.93L-98.03 162.31L-98.03 162.38L-98.12 162.38L-98.56 162.73L-98.56 162.83L-98.68 162.83L-99.09 163.16L-99.09 163.28L-99.24 163.28L-99.62 163.59L-99.62 163.73L-99.79 163.73L-100.15 164.03L-100.15 164.18L-100.33 164.18L-100.68 164.46L-100.68 164.63L-100.87 164.63L-101.21 164.91L-101.21 165.07L-101.41 165.07L-101.74 165.35L-101.74 165.52L-101.94 165.52L-102.27 165.81L-102.27 165.97L-102.46 165.97L-102.8 166.26L-102.8 166.42L-102.98 166.42L-103.32 166.72L-103.32 166.87L-103.49 166.87L-103.85 167.19L-103.85 167.32L-104 167.32L-104.38 167.66L-104.38 167.77L-104.5 167.77L-104.91 168.14L-104.91 168.22L-105 168.22L-105.44 168.61L-105.44 168.67L-105.5 168.67L-105.97 169.1L-105.97 169.12C-107.04 170.11 -108.11 171.11 -109.15 172.13L-109.15 172.26L-109.28 172.26L-109.68 172.66L-109.68 172.71L-109.73 172.71C-110.43 173.4 -111.11 174.11 -111.79 174.81L-111.79 174.96L-111.93 174.96L-112.32 175.36L-112.32 175.4L-112.36 175.4C-113.06 176.14 -113.76 176.89 -114.44 177.65C-114.97 178.24 -115.5 178.84 -116.02 179.44L-117.08 180.66L-117.08 180.8L-117.2 180.8C-117.69 181.38 -118.18 181.97 -118.67 182.57L-118.67 182.59L-118.69 182.59C-119.04 183.02 -119.39 183.45 -119.73 183.88L-119.73 183.94L-119.78 183.94L-120.79 185.23L-120.79 185.29L-120.83 185.29C-121.17 185.73 -121.51 186.17 -121.85 186.62L-121.85 186.63C-122.93 188.08 -124 189.55 -125.02 191.03L-125.02 191.13L-125.08 191.13L-125.55 191.82L-125.55 192.02L-125.69 192.02C-126.18 192.76 -126.66 193.49 -127.14 194.24L-127.14 194.27L-127.16 194.27L-127.66 195.07L-127.66 195.17L-127.73 195.17L-128.19 195.92L-128.19 196.07L-128.28 196.07C-129.17 197.51 -130.02 198.96 -130.84 200.43L-130.84 200.56L-130.91 200.56L-131.37 201.39L-131.37 201.46L-131.41 201.46C-131.75 202.1 -132.09 202.74 -132.43 203.38L-132.43 203.7L-132.59 203.7L-132.96 204.41L-132.96 204.6L-133.05 204.6L-133.49 205.47L-133.49 205.5L-133.5 205.5C-133.86 206.22 -134.2 206.94 -134.54 207.67L-134.54 207.74L-134.58 207.74C-135.12 208.89 -135.63 210.05 -136.13 211.21L-136.13 211.34L-136.19 211.34L-136.66 212.47L-136.66 212.69L-136.75 212.69L-137.19 213.77L-137.19 214.03L-137.29 214.03L-137.72 215.13L-137.72 215.38L-137.82 215.38L-138.25 216.54L-138.25 216.73L-138.32 216.73L-138.78 218L-138.78 218.08L-138.8 218.08C-139.36 219.66 -139.88 221.26 -140.36 222.88L-140.36 223.02L-140.41 223.02L-140.89 224.7L-140.89 225.26L-141.05 225.26L-141.42 226.64L-141.42 227.06L-141.53 227.06C-141.67 227.62 -141.82 228.18 -141.95 228.75L-141.95 229.3L-142.08 229.3C-142.22 229.89 -142.35 230.47 -142.48 231.06L-142.48 231.1C-142.66 231.95 -142.84 232.8 -143.01 233.65L-143.01 233.8L-143.04 233.8C-143.22 234.74 -143.38 235.68 -143.54 236.63L-143.54 237.39L-143.66 237.39C-143.81 238.35 -143.94 239.31 -144.07 240.27L-144.07 241.43L-144.21 241.43C-144.35 242.65 -144.48 243.87 -144.58 245.1C-145.07 244.77 -145.58 244.45 -146.08 244.13L-146.18 244.13L-146.18 244.06C-146.63 243.78 -147.09 243.5 -147.55 243.23L-147.77 243.23L-147.77 243.1C-148.21 242.84 -148.65 242.58 -149.09 242.33L-149.36 242.33L-149.36 242.18C-149.81 241.93 -150.26 241.68 -150.72 241.43L-150.95 241.43L-150.95 241.31L-152 240.76L-152 384.77C-151.41 384.91 -150.81 385.04 -150.21 385.16L-149.89 385.16L-149.89 385.23C-149.22 385.37 -148.55 385.49 -147.88 385.61L-147.24 385.61L-147.24 385.72C-146.52 385.85 -145.8 385.96 -145.07 386.06L-144.6 386.06L-144.6 386.13C-143.5 386.28 -142.38 386.41 -141.27 386.51L-139.83 386.51L-139.83 386.64C-137.7 386.8 -135.53 386.89 -133.35 386.89C-131.25 386.89 -129.18 386.81 -127.14 386.66L-127.14 386.51L-125.42 386.51C-124.22 386.4 -123.03 386.26 -121.85 386.09L-121.85 386.06L-121.63 386.06C-120.82 385.95 -120.01 385.82 -119.2 385.68L-119.2 385.61L-118.82 385.61C-118.24 385.51 -117.66 385.4 -117.08 385.29L-117.08 385.16L-116.49 385.16C-115.98 385.06 -115.47 384.95 -114.97 384.83L-114.97 384.72L-114.46 384.72C-113.84 384.57 -113.23 384.42 -112.62 384.26C-112.56 385.01 -112.48 385.76 -112.39 386.51L-112.32 386.51L-112.32 387.03C-112.07 388.83 -111.72 390.61 -111.26 392.35C-110.83 394.03 -110.3 395.68 -109.68 397.29C-109.21 398.51 -108.69 399.71 -108.12 400.89L-108.09 400.89L-108.09 400.96C-105.82 405.65 -102.8 410.01 -99.13 413.91L-99.09 413.91L-99.09 413.95C-98.09 415.02 -97.04 416.06 -95.94 417.06L-95.92 417.06L-95.92 417.08L-95.44 417.5L-95.39 417.5L-95.39 417.55L-94.93 417.95L-94.86 417.95L-94.86 418.02L-94.41 418.4L-94.33 418.4L-94.33 418.47C-93.82 418.9 -93.3 419.33 -92.77 419.75L-92.74 419.75L-92.74 419.77C-91.77 420.54 -90.77 421.28 -89.74 422L-10.48 422C-9.67 421.43 -8.87 420.84 -8.08 420.24L-8.08 420.2L-8.02 420.2C-6.76 419.23 -5.55 418.21 -4.38 417.15L-4.38 417.06L-4.27 417.06L-3.85 416.67L-3.85 416.61L-3.78 416.61L-3.32 416.17L-3.32 416.16C-2.77 415.63 -2.21 415.09 -1.68 414.54C-1.36 414.79 -1.02 415.03 -0.69 415.26C-0.25 415.56 0.2 415.87 0.66 416.16L0.91 416.16L0.91 416.32L1.37 416.61L1.44 416.61L1.44 416.65C1.92 416.94 2.41 417.23 2.91 417.5L3.03 417.5L3.03 417.57C3.54 417.86 4.07 418.13 4.6 418.4C4.91 418.55 5.22 418.71 5.53 418.85L5.67 418.85L5.67 418.92L6.51 419.3L6.73 419.3L6.73 419.4L7.55 419.75L7.79 419.75L7.79 419.85L8.67 420.2L8.85 420.2L8.85 420.27C9.2 420.4 9.54 420.52 9.9 420.65C10.83 420.97 11.78 421.28 12.74 421.55L13.08 421.55L13.08 421.64C13.53 421.76 13.99 421.88 14.46 422L37.49 422C38.54 421.74 39.58 421.45 40.59 421.13L40.59 421.1L40.7 421.1C41.56 420.83 42.41 420.53 43.24 420.21L43.27 420.2C43.97 419.93 44.67 419.64 45.36 419.34L45.36 419.3L45.44 419.3C45.77 419.16 46.09 419.01 46.41 418.85C48.07 418.07 49.67 417.19 51.18 416.23L51.18 416.16L51.28 416.16C52.93 415.1 54.49 413.94 55.94 412.69L55.94 412.56L56.08 412.56L56.47 412.22L56.47 412.11L56.59 412.11L57 411.74L57 411.67L57.08 411.67L57.53 411.24L57.53 411.22L57.55 411.22C58.28 410.51 58.98 409.78 59.64 409.03L59.64 408.97L59.7 408.97C61.58 406.82 63.19 404.48 64.48 402C65.17 401.96 65.85 401.91 66.52 401.83L66.52 401.78L66.89 401.78C68.39 401.59 69.86 401.31 71.28 400.93L71.28 400.89L71.43 400.89C71.92 400.75 72.4 400.61 72.87 400.46L72.87 400.44L72.94 400.44C74.39 399.96 75.78 399.4 77.1 398.74L77.1 398.64L77.3 398.64C78.34 398.12 79.33 397.54 80.28 396.91L80.28 396.84L80.38 396.84C82.11 395.69 83.67 394.37 85.04 392.92L85.04 392.8L85.15 392.8C87.53 390.25 89.31 387.28 90.33 384.05L90.33 383.82L90.4 383.82C90.58 383.23 90.73 382.63 90.86 382.02C91.15 380.64 91.3 379.22 91.3 377.77C91.3 376.46 91.18 375.18 90.95 373.94L90.86 373.94L90.86 373.5C90.73 372.89 90.58 372.29 90.4 371.69L90.33 371.69L90.33 371.48C90.21 371.09 90.08 370.72 89.94 370.34L89.8 370.34L89.8 369.99C89.57 369.4 89.3 368.81 89.01 368.24C89.64 368.11 90.26 367.95 90.86 367.76L90.86 367.65L91.22 367.65C91.46 367.57 91.69 367.49 91.92 367.4L91.92 367.2L92.43 367.2C93.57 366.73 94.64 366.16 95.62 365.5L95.62 365.4L95.77 365.4L96.15 365.13L96.15 364.95L96.39 364.95L96.68 364.72L96.68 364.5L96.95 364.5C97.85 363.76 98.64 362.93 99.33 362.04L99.33 361.81L99.5 361.81C99.62 361.64 99.74 361.47 99.86 361.3L99.86 360.91L100.1 360.91C100.67 360 101.12 359.04 101.44 358.03L101.44 357.32L101.65 357.32C101.8 356.74 101.91 356.16 101.97 355.57L101.97 354.62L102.04 354.62L102.05 354.21C102.05 353.9 102.03 353.58 102.01 353.27L101.97 353.27L101.97 352.92C101.89 352.17 101.73 351.44 101.52 350.73C101.81 350.84 102.1 350.94 102.39 351.03L102.5 351.03L102.5 351.06C103.01 351.22 103.53 351.36 104.06 351.48L104.09 351.48C105.25 351.73 106.46 351.89 107.71 351.93L107.79 351.93L108.31 351.94L108.85 351.93L108.91 351.93C109.97 351.89 111.02 351.78 112.03 351.59L112.03 351.48L112.57 351.48C113.1 351.36 113.63 351.22 114.14 351.06L114.14 351.03L114.25 351.03C114.57 350.93 114.89 350.81 115.2 350.7L115.2 350.58L115.51 350.58C115.76 350.48 116.01 350.37 116.26 350.26L116.26 350.13L116.54 350.13C116.8 350.01 117.06 349.88 117.32 349.74L117.32 349.68L117.43 349.68C118.13 349.3 118.8 348.87 119.43 348.41L119.43 348.33L119.53 348.33L119.96 348L119.96 347.88L120.1 347.88L120.49 347.56L120.49 347.43L120.63 347.43L121.02 347.07L121.02 346.99L121.11 346.99C121.26 346.84 121.41 346.69 121.55 346.54C121.92 346.14 122.28 345.72 122.61 345.29L122.61 345.19L122.69 345.19C122.84 344.98 122.99 344.76 123.14 344.54L123.14 344.29L123.3 344.29C123.42 344.09 123.55 343.88 123.66 343.67L123.66 343.39L123.82 343.39C123.95 343.14 124.08 342.88 124.19 342.62L124.19 342.49L124.25 342.49L124.42 342.09C125.53 342.7 126.67 343.29 127.83 343.84L127.9 343.84L127.9 343.87C129.23 344.5 130.59 345.09 131.97 345.64L132.13 345.64L132.13 345.7L133.15 346.09L133.19 346.09L133.19 346.1C134.99 346.77 136.83 347.36 138.72 347.88L139.01 347.88L139.01 347.96C139.48 348.09 139.96 348.21 140.43 348.33L140.6 348.33L140.6 348.37C141.91 348.7 143.25 348.98 144.6 349.23L144.83 349.23L144.83 349.27C145.66 349.42 146.51 349.56 147.35 349.68L147.47 349.68L147.47 349.7C148.07 349.78 148.66 349.86 149.26 349.93C149.19 350.2 149.12 350.47 149.06 350.75L149.06 351.03L149 351.03C148.73 352.31 148.58 353.63 148.58 354.98C148.58 356.39 148.74 357.77 149.03 359.11L149.06 359.11L149.06 359.26C149.19 359.82 149.33 360.37 149.51 360.91L149.59 360.91L149.59 361.17C150.19 362.98 151.05 364.7 152.13 366.3L152.24 366.3L152.24 366.46C152.85 367.34 153.52 368.19 154.26 369L154.35 369L154.35 369.09C155.55 370.38 156.9 371.55 158.39 372.59L158.59 372.59L158.59 372.72L159.06 373.04L159.11 373.04L159.11 373.07C160.11 373.72 161.16 374.31 162.25 374.83L162.29 374.83L162.29 374.85C162.6 375 162.91 375.14 163.23 375.28L163.35 375.28L163.35 375.33C163.67 375.47 164 375.6 164.33 375.73L164.41 375.73L164.41 375.76C165.26 376.09 166.14 376.38 167.05 376.63C167.64 376.8 168.26 376.95 168.87 377.08L169.17 377.08L169.17 377.14C169.95 377.3 170.74 377.43 171.55 377.53L172.34 377.53L172.34 377.61C173.36 377.71 174.39 377.77 175.43 377.77C176.69 377.77 177.91 377.67 179.12 377.53C179.32 377.83 179.52 378.13 179.73 378.43L179.75 378.43L179.75 378.46C180.06 378.9 180.37 379.34 180.69 379.77L180.81 379.77L180.81 379.94C182.26 381.91 183.85 383.8 185.56 385.61L185.57 385.63L185.98 386.06L186.1 386.06L186.1 386.18C186.95 387.06 187.83 387.92 188.74 388.76L189.23 389.21L189.27 389.21L189.27 389.25L189.73 389.66L189.8 389.66L189.8 389.72L190.24 390.11L190.33 390.11L190.33 390.18L190.77 390.55L190.86 390.55L190.86 390.63L191.3 391L191.39 391L191.39 391.08L191.85 391.45L191.92 391.45L191.92 391.51L192.41 391.9L192.45 391.9L192.45 391.93L192.97 392.35C193.97 393.12 194.99 393.87 196.03 394.6L196.15 394.6L196.15 394.68L196.68 395.05C197.36 395.51 198.05 395.95 198.75 396.39L198.8 396.39L198.8 396.43C200.29 397.36 201.83 398.25 203.41 399.09L203.56 399.09L203.56 399.17C204.39 399.6 205.23 400.03 206.09 400.44L206.21 400.44L206.21 400.49C207.85 401.28 209.54 402.01 211.27 402.68L211.5 402.68L211.5 402.77L212.45 403.13L212.56 403.13L212.56 403.17C216.66 404.69 220.97 405.89 225.44 406.72L225.78 406.72L225.78 406.79C226.54 406.93 227.31 407.06 228.07 407.17L228.43 407.17L228.43 407.23C229.37 407.37 230.33 407.5 231.29 407.6C231.2 408.04 231.13 408.48 231.07 408.92L231.07 409.42L231.02 409.42C230.95 410.01 230.92 410.6 230.92 411.2C230.92 411.66 230.94 412.11 230.97 412.56L231.07 412.56L231.07 413.64C231.26 415.13 231.61 416.57 232.12 417.95L232.13 417.98C232.65 419.38 233.31 420.73 234.12 422L419 422C420.42 421.63 421.8 421.2 423.14 420.7L423.14 420.65L423.28 420.65C423.59 420.53 423.9 420.41 424.2 420.29L424.2 420.2L424.43 420.2C426 419.55 427.52 418.82 428.96 418L428.96 417.95L429.04 417.95C430.9 416.89 432.65 415.69 434.25 414.37L434.25 414.36L434.27 414.36L434.78 413.93L434.78 413.91L434.81 413.91L435.31 413.47C436.24 412.64 437.13 411.76 437.96 410.85L437.96 410.77L438.03 410.77C439.41 409.23 440.62 407.59 441.66 405.85L441.66 405.83L441.68 405.83C441.85 405.53 442.02 405.23 442.19 404.93C442.57 404.24 442.93 403.53 443.25 402.82L443.25 402.68L443.31 402.68C443.47 402.31 443.63 401.93 443.78 401.56L443.78 401.33L443.86 401.33C444.02 400.93 444.17 400.51 444.31 400.1L444.31 399.99L444.34 399.99C444.54 399.37 444.73 398.75 444.88 398.12C445.78 398.92 446.71 399.7 447.67 400.44L448.01 400.44L448.01 400.69L448.27 400.89L448.54 400.89L448.54 401.08L448.88 401.33L449.07 401.33L449.07 401.47L449.52 401.78L449.6 401.78L449.6 401.84C451.22 402.96 452.92 403.99 454.7 404.93L454.89 404.93L454.89 405.03L455.57 405.38L455.95 405.38L455.95 405.57C456.44 405.81 456.94 406.05 457.44 406.28L457.53 406.28L457.53 406.32L458.46 406.72L458.59 406.72L458.59 406.78L459.54 407.17L459.65 407.17L459.65 407.22L460.69 407.62L460.71 407.62C461.55 407.94 462.4 408.24 463.26 408.52L463.88 408.52L463.88 408.72L464.74 408.97L465.47 408.97L465.47 409.18L466.39 409.42L467.06 409.42L467.06 409.59C467.46 409.69 467.86 409.78 468.27 409.87L468.65 409.87L468.65 409.95C470.24 410.29 471.87 410.56 473.53 410.77L475.53 410.77L475.53 410.98C477.2 411.12 478.9 411.2 480.62 411.2L481.77 411.17C481.61 412.68 481.52 414.21 481.52 415.75C481.52 416.95 481.57 418.13 481.66 419.3L481.87 419.3L481.87 421.33L481.96 422L925.9 422C926.42 420.76 926.92 419.51 927.39 418.25L927.39 417.95L927.5 417.95L927.92 416.82L927.92 416.61L928 416.61L928.45 415.32L928.45 415.26L928.47 415.26C929.03 413.63 929.55 411.99 930.04 410.34L930.04 410.32C930.21 409.71 930.4 409.1 930.56 408.48L930.56 408.07L930.68 408.07L931.09 406.47L931.09 406.28L931.14 406.28C931.31 405.62 931.47 404.95 931.62 404.29L931.62 404.03L931.68 404.03C932.05 402.41 932.39 400.79 932.68 399.15L932.68 398.64L932.77 398.64C932.93 397.74 933.07 396.85 933.21 395.95L933.21 395.5L933.27 395.5C933.77 392.09 934.1 388.65 934.27 385.17L934.27 382.47L934.36 382.47C934.38 381.66 934.39 380.86 934.39 380.05C934.39 379.36 934.38 378.67 934.37 377.98L934.27 377.98L934.27 374.97C934.2 373.57 934.11 372.18 933.99 370.79L933.74 370.79L933.74 368.28C933.5 366.11 933.19 363.95 932.82 361.81L932.68 361.81L932.68 361.03C932.57 360.39 932.44 359.75 932.32 359.11L932.15 359.11L932.15 358.29L931.85 356.87L931.62 356.87L931.62 355.87L931.33 354.62L931.09 354.62L931.09 353.69C930.94 353.1 930.79 352.51 930.63 351.93L930.56 351.93L930.56 351.67C930.39 351.04 930.22 350.42 930.04 349.8C931.05 349.92 932.06 350.03 933.07 350.13L934.27 350.13L934.27 350.25C935.6 350.37 936.92 350.48 938.25 350.58L939.56 350.58L939.56 350.67C943.13 350.9 946.68 351.02 950.22 351.03L952 351.03C955.45 351 958.9 350.88 962.31 350.65L962.31 350.58L963.21 350.58C964.5 350.49 965.79 350.38 967.07 350.25L967.07 350.13L968.37 350.13C970.78 349.88 973.16 349.59 975.54 349.24L975.62 349.23C976.48 349.11 977.33 348.97 978.18 348.83L978.18 348.78L978.5 348.78C979.27 348.66 980.05 348.52 980.83 348.38L980.83 348.33L981.1 348.33C981.89 348.19 982.69 348.05 983.47 347.89L983.51 347.88C984.92 347.61 986.32 347.32 987.71 347.01L987.71 346.99L987.82 346.99C989.02 346.72 990.22 346.44 991.41 346.15L991.41 346.09L991.66 346.09L993 345.76L993 345.64L993.45 345.64L995.12 345.2L995.15 345.19L996.7 344.76L996.7 344.74L996.78 344.74L998.29 344.31L998.29 344.29L998.35 344.29C999.75 343.88 1001.15 343.46 1002.53 343.02L1002.53 342.94L1002.77 342.94L1004.12 342.5L1004.13 342.49L1005.17 342.15L1005.17 342.04L1005.49 342.04L1006.76 341.6L1007.82 341.23L1007.82 341.15L1008.05 341.15C1008.86 340.86 1009.66 340.56 1010.46 340.25C1013.33 339.17 1016.16 338.01 1018.93 336.78L1018.93 336.66L1019.22 336.66L1019.99 336.31L1019.99 336.21L1020.22 336.21L1021.05 335.83L1021.05 335.76L1021.21 335.76L1022.1 335.33L1022.1 335.31L1022.16 335.31C1023.39 334.73 1024.6 334.14 1025.81 333.53L1025.81 333.51L1025.85 333.51C1026.37 333.25 1026.88 332.99 1027.4 332.73L1027.4 332.61L1027.61 332.61L1028.44 332.17C1028.98 331.89 1029.52 331.61 1030.04 331.33L1030.04 331.26L1030.16 331.26C1030.65 331 1031.14 330.72 1031.63 330.45L1031.63 330.37L1031.78 330.37C1032.26 330.1 1032.74 329.83 1033.22 329.56L1033.22 329.47L1033.37 329.47C1034.38 328.88 1035.39 328.29 1036.39 327.68L1036.41 327.67C1037.11 327.25 1037.81 326.82 1038.51 326.38L1038.51 326.32L1038.6 326.32C1039.28 325.9 1039.94 325.46 1040.62 325.03L1040.62 324.98L1040.69 324.98L1041.15 324.68L1041.15 324.53L1041.38 324.53C1042.01 324.11 1042.64 323.69 1043.27 323.26L1043.27 323.18L1043.39 323.18C1045.69 321.6 1047.94 319.95 1050.15 318.25L1050.15 318.24L1050.16 318.24L1050.68 317.84L1050.68 317.79L1050.74 317.79L1051.21 317.43L1051.21 317.34L1051.31 317.34L1051.73 317.01L1051.73 316.89L1051.89 316.89L1052.26 316.59L1052.26 316.44L1052.43 316.44C1054.55 314.74 1056.62 312.98 1058.61 311.16L1058.61 311.05L1058.74 311.05L1059.14 310.68L1059.14 310.6L1059.22 310.6L1059.67 310.18L1059.67 310.15L1059.69 310.15C1060.77 309.17 1061.81 308.16 1062.85 307.14L1062.85 307.01L1062.98 307.01L1063.38 306.62L1063.38 306.56L1063.43 306.56C1064.31 305.68 1065.17 304.79 1066.02 303.89L1066.02 303.87L1066.04 303.87C1066.56 303.31 1067.09 302.75 1067.61 302.18L1067.61 302.07L1067.71 302.07C1068.21 301.51 1068.69 300.95 1069.18 300.39L1069.18 300.27L1069.3 300.27C1069.8 299.7 1070.29 299.12 1070.78 298.54L1070.78 298.48L1070.84 298.48C1071.17 298.08 1071.51 297.68 1071.84 297.28L1071.84 297.13L1071.96 297.13C1073.38 295.39 1074.75 293.62 1076.06 291.81L1076.06 291.74L1076.13 291.74L1076.6 291.08L1076.6 290.84L1076.78 290.84L1077.66 289.59L1077.66 289.49L1077.73 289.49L1078.18 288.82L1078.18 288.59L1078.35 288.59C1078.65 288.15 1078.94 287.71 1079.25 287.26L1079.25 287.25L1079.78 286.45L1079.78 286.35L1079.84 286.35C1081.31 284.1 1082.69 281.81 1084.01 279.47L1084.01 279.16L1084.18 279.16L1084.54 278.49L1084.54 278.26L1084.66 278.26L1085.06 277.51L1085.06 277.37L1085.15 277.37L1085.6 276.52L1085.6 276.47L1085.63 276.47C1086.16 275.44 1086.68 274.39 1087.18 273.35L1087.18 273.32C1087.54 272.59 1087.9 271.85 1088.24 271.11L1088.24 271.08C1088.42 270.69 1088.6 270.3 1088.77 269.91L1088.77 269.73L1088.85 269.73L1089.3 268.71L1089.3 268.38L1089.44 268.38C1089.76 267.64 1090.06 266.9 1090.36 266.15L1090.36 266.14L1090.89 264.8C1091.44 263.36 1091.98 261.89 1092.48 260.42L1092.48 260.3L1092.52 260.3C1092.68 259.8 1092.84 259.3 1093.01 258.81L1093.01 258.5L1093.1 258.5L1093.53 257.13L1093.53 256.7L1093.67 256.7C1093.81 256.24 1093.93 255.78 1094.06 255.32L1094.06 254.91L1094.18 254.91L1094.59 253.43L1094.59 253.11L1094.67 253.11C1094.82 252.53 1094.97 251.94 1095.12 251.35L1095.12 251.31L1095.29 250.69C1095.42 250.17 1095.53 249.65 1095.65 249.14L1095.65 249.07C1095.82 248.26 1096.02 247.46 1096.18 246.65L1096.18 246.37L1096.23 246.37C1096.4 245.52 1096.56 244.67 1096.71 243.82L1096.71 243.23L1096.81 243.23C1097.21 240.83 1097.53 238.44 1097.77 236.05L1097.77 234.69L1097.89 234.69C1098.43 228.34 1098.41 222.04 1097.82 215.83L1097.77 215.83L1097.77 215.15C1097.64 213.88 1097.49 212.61 1097.31 211.34L1097.24 211.34L1097.24 210.75C1096.97 208.84 1096.65 206.94 1096.27 205.05L1096.18 205.05L1096.18 204.59C1096.03 203.84 1095.87 203.1 1095.71 202.35L1095.65 202.35L1095.65 202.12C1095.5 201.45 1095.34 200.78 1095.18 200.11L1095.12 200.11L1095.12 199.89C1094.94 199.21 1094.78 198.54 1094.6 197.86C1094.43 197.27 1094.27 196.66 1094.1 196.07L1094.06 196.07L1094.06 195.96C1093.9 195.39 1093.73 194.83 1093.56 194.27L1093.54 194.27L1093.54 194.18C1093.22 193.16 1092.89 192.14 1092.55 191.13L1092.48 191.13L1092.48 190.92C1092.14 189.93 1091.79 188.96 1091.43 187.98L1091.42 187.96L1090.91 186.63L1090.89 186.63L1090.89 186.57L1090.38 185.29L1090.36 185.29L1090.36 185.23C1089.88 184.04 1089.38 182.86 1088.86 181.69L1088.77 181.69L1088.77 181.49L1088.26 180.35L1088.24 180.32C1087.9 179.58 1087.55 178.84 1087.19 178.1L1087.18 178.08C1086.68 177.03 1086.15 175.99 1085.61 174.96L1085.6 174.93L1085.14 174.06L1085.06 174.06L1085.06 173.93L1084.65 173.16L1084.54 173.16L1084.54 172.95C1083.71 171.43 1082.84 169.93 1081.93 168.44C1082.28 168.23 1082.62 168.01 1082.94 167.79L1082.94 167.77L1082.99 167.77L1083.48 167.44L1083.48 167.32L1083.66 167.32C1084.68 166.61 1085.68 165.87 1086.66 165.1L1086.66 165.07L1086.68 165.07L1087.18 164.67L1087.18 164.63L1087.23 164.63L1087.71 164.22L1087.71 164.18L1087.77 164.18L1088.24 163.76L1088.24 163.73L1088.28 163.73L1088.77 163.29C1089.5 162.63 1090.21 161.94 1090.89 161.24L1090.89 161.03L1091.07 161.03L1091.42 160.68L1091.42 160.58L1091.51 160.58C1092.02 160.03 1092.52 159.46 1093.01 158.88L1093.01 158.79L1093.07 158.79C1093.8 157.92 1094.48 157.02 1095.12 156.1L1095.12 156.09C1095.3 155.84 1095.48 155.58 1095.65 155.33L1095.65 155.19L1095.74 155.19L1096.18 154.51L1096.18 154.29L1096.31 154.29L1096.71 153.64L1096.71 153.39L1096.86 153.39L1097.24 152.73L1097.24 152.5L1097.37 152.5L1097.77 151.75L1097.77 151.6L1097.85 151.6C1098.18 150.93 1098.52 150.25 1098.82 149.55L1098.82 149.35L1098.91 149.35C1099.06 149 1099.21 148.65 1099.36 148.3L1099.36 148L1099.47 148C1099.61 147.64 1099.75 147.27 1099.88 146.9L1099.88 146.66L1099.97 146.66C1100.13 146.21 1100.27 145.76 1100.41 145.3L1100.41 144.86L1100.54 144.86C1100.71 144.29 1100.87 143.71 1101.01 143.13C1101.18 142.37 1101.34 141.62 1101.47 140.86L1101.47 139.47L1101.68 139.47C1101.91 137.82 1102.01 136.17 1102 134.53L1102 134.52C1101.99 133.01 1101.88 131.52 1101.68 130.04L1101.47 130.04L1101.47 128.66C1101.23 127.31 1100.92 125.97 1100.53 124.65L1100.41 124.65L1100.41 124.26C1100.31 123.94 1100.21 123.62 1100.1 123.3L1099.88 123.3L1099.88 122.67C1099.74 122.28 1099.6 121.89 1099.43 121.51L1099.36 121.51L1099.36 121.29C1099.19 120.91 1099.04 120.53 1098.88 120.16L1098.82 120.16L1098.82 120.04C1098.51 119.32 1098.17 118.61 1097.8 117.91L1097.77 117.91L1097.77 117.85L1097.31 117.01L1097.24 117.01L1097.24 116.87L1096.8 116.12L1096.71 116.12L1096.71 115.96L1096.26 115.22L1096.18 115.22L1096.18 115.09C1096.02 114.83 1095.85 114.58 1095.68 114.32L1095.65 114.32L1095.65 114.28C1095.15 113.53 1094.63 112.79 1094.07 112.07L1094.06 112.06C1093.72 111.61 1093.37 111.16 1093.01 110.72L1092.63 110.28L1092.48 110.28L1092.48 110.1C1092.14 109.7 1091.78 109.31 1091.43 108.93L1091.01 108.48L1090.89 108.48L1090.89 108.36L1090.56 108.03L1090.36 108.03L1090.36 107.81C1088.68 106.12 1086.82 104.54 1084.85 103.09L1084.54 103.09L1084.54 102.87L1084.22 102.64L1084.01 102.64L1084.01 102.49L1083.57 102.19L1083.48 102.19L1083.48 102.12C1082.82 101.68 1082.17 101.26 1081.49 100.84L1081.36 100.84L1081.36 100.77C1080.37 100.16 1079.34 99.59 1078.29 99.05L1078.18 99.05L1078.18 99L1077.4 98.6L1077.13 98.6L1077.13 98.47L1076.46 98.15L1076.06 98.15L1076.06 97.97L1075.47 97.7L1075.02 97.7L1075.02 97.51C1073.65 96.92 1072.25 96.38 1070.81 95.9L1070.78 95.9C1070.31 95.75 1069.85 95.59 1069.39 95.45L1069.18 95.45L1069.18 95.4C1068.74 95.26 1068.28 95.13 1067.82 95L1067.07 95L1067.07 94.81L1066.06 94.55L1065.49 94.55L1065.49 94.42C1065 94.31 1064.5 94.21 1064.01 94.11L1063.9 94.11L1063.9 94.08C1063.47 94 1063.03 93.92 1062.59 93.84L1061.46 93.66L1060.73 93.66L1060.73 93.55C1059.71 93.41 1058.69 93.3 1057.68 93.21L1054.91 93.21L1054.91 93.04C1053.13 92.97 1051.36 92.98 1049.62 93.08L1049.62 93.21L1047.8 93.21C1046.81 93.29 1045.82 93.4 1044.86 93.54L1044.86 93.66L1044.04 93.66C1043.25 93.78 1042.46 93.92 1041.68 94.07L1041.68 94.11L1041.51 94.11C1041.03 94.2 1040.56 94.3 1040.09 94.41L1040.09 94.55L1039.47 94.55L1038.51 94.79L1038.51 95L1037.72 95C1037.27 95.13 1036.82 95.25 1036.39 95.39L1036.39 95.45L1036.17 95.45C1035.71 95.59 1035.25 95.74 1034.8 95.89L1034.77 95.9C1032.96 96.51 1031.21 97.2 1029.51 97.97L1029.51 98.15L1029.13 98.15L1028.44 98.47L1028.44 98.6L1028.18 98.6L1027.4 99L1027.4 99.05L1027.3 99.05C1026.79 99.3 1026.3 99.57 1025.81 99.84L1025.81 99.95L1025.63 99.95C1025.24 100.16 1024.87 100.38 1024.49 100.6C1024.48 99.78 1024.43 98.96 1024.35 98.15L1024.22 98.15L1024.22 97.09C1024.1 96.24 1023.94 95.39 1023.74 94.55L1023.69 94.55L1023.69 94.37C1023.56 93.83 1023.41 93.29 1023.24 92.76L1023.16 92.76L1023.16 92.51C1022.74 91.21 1022.23 89.95 1021.63 88.72L1021.57 88.72L1021.57 88.61C1021.44 88.34 1021.31 88.08 1021.17 87.82L1021.05 87.82L1021.05 87.58C1020.15 85.94 1019.1 84.36 1017.9 82.88L1017.87 82.88L1017.87 82.84C1015.84 80.34 1013.39 78.08 1010.59 76.14L1010.46 76.14L1010.46 76.05C1009.83 75.61 1009.17 75.19 1008.49 74.79L1008.35 74.79L1008.35 74.7C1007 73.91 1005.59 73.19 1004.12 72.55C1002.53 71.85 1000.87 71.25 999.15 70.75L998.82 70.75L998.82 70.66C998.38 70.53 997.93 70.41 997.48 70.3L997.23 70.3L997.23 70.24C996.3 70.02 995.36 69.82 994.4 69.65C993.85 69.56 993.31 69.47 992.76 69.4L990.88 69.4L990.88 69.2C988.98 69.04 987.09 69 985.23 69.07C985.03 68.58 984.82 68.09 984.6 67.61L984.53 67.61L984.53 67.45C984.22 66.75 983.9 66.05 983.56 65.36L983.47 65.36L983.47 65.17C982.98 64.18 982.47 63.19 981.92 62.21L981.89 62.21L981.89 62.15C981.56 61.57 981.22 60.99 980.87 60.42L980.83 60.42L980.83 60.34L980.32 59.52L980.3 59.52L980.3 59.48C979.83 58.74 979.35 58 978.85 57.27L978.71 57.27L978.71 57.07L978.23 56.38L978.18 56.38L978.18 56.31C977.22 54.96 976.19 53.63 975.12 52.33L975.01 52.33L975.01 52.2C974.67 51.79 974.32 51.39 973.97 50.99L973.95 50.99L973.95 50.96L973.57 50.54L973.42 50.54L973.42 50.36C972.93 49.81 972.43 49.27 971.92 48.74L971.83 48.74L971.83 48.65C970.98 47.76 970.11 46.9 969.2 46.04L969.19 46.04L969.19 46.03L968.73 45.6L968.66 45.6L968.66 45.53L968.23 45.15L968.13 45.15L968.13 45.05L967.74 44.7L967.6 44.7L967.6 44.58L967.22 44.25L967.07 44.25L967.07 44.11L966.71 43.8L966.54 43.8L966.54 43.66L966.18 43.35L966.01 43.35L966.01 43.21L965.64 42.9L965.49 42.9L965.49 42.77L965.1 42.45L964.96 42.45L964.96 42.34L964.53 42L964.43 42L964.43 41.92L963.96 41.55L963.9 41.55L963.9 41.5L963.38 41.1C962.58 40.49 961.76 39.89 960.93 39.31L960.72 39.31L960.72 39.16L960.29 38.86L960.19 38.86L960.19 38.8C959.56 38.36 958.91 37.93 958.26 37.51L958.08 37.51L958.08 37.4L957.55 37.06C956.05 36.12 954.5 35.22 952.92 34.37L952.79 34.37L952.79 34.3C952.26 34.02 951.73 33.74 951.2 33.47L950.3 33.02L950.14 33.02L950.14 32.94C947.86 31.83 945.51 30.8 943.08 29.87L942.73 29.87L942.73 29.74L941.88 29.43L941.67 29.43L941.67 29.35C940.88 29.07 940.09 28.79 939.28 28.53L939.03 28.53L939.03 28.45C937.08 27.81 935.08 27.24 933.05 26.73L932.68 26.73L932.68 26.64C932.17 26.52 931.66 26.4 931.15 26.28L930.56 26.28L930.56 26.15C930.07 26.04 929.57 25.93 929.07 25.83L928.98 25.83L928.98 25.81C928.15 25.65 927.32 25.49 926.48 25.35C925.6 25.2 924.73 25.06 923.86 24.93L923.16 24.93L923.16 24.84C922.18 24.7 921.2 24.59 920.22 24.49L919.98 24.49L919.98 24.46C917.82 24.24 915.67 24.1 913.53 24.04L909.93 24.04L909.93 24C909.4 24 908.87 24.01 908.34 24.02Z" fill="#FFFFFF" fill-opacity="1.000000" fill-rule="evenodd"/>
	</g>
	<g mask="url(#mask162_414)">
		<path id="path" d="M1220.65 24.02L1220.65 24.04L1221.14 24.04C1223.29 24.1 1225.42 24.24 1227.53 24.46L1227.53 24.48L1227.81 24.48C1228.97 24.6 1230.1 24.74 1231.23 24.91L1231.23 24.93L1231.42 24.93C1232.25 25.05 1233.06 25.18 1233.88 25.32L1233.88 25.38L1234.23 25.38C1235 25.52 1235.76 25.67 1236.53 25.82L1236.57 25.83C1237.27 25.97 1237.96 26.12 1238.64 26.28C1239.17 26.4 1239.71 26.53 1240.23 26.66L1240.23 26.73L1240.53 26.73C1242.57 27.25 1244.59 27.83 1246.57 28.48L1246.57 28.53L1246.71 28.53C1247.55 28.81 1248.39 29.1 1249.22 29.4L1249.22 29.43L1249.29 29.43L1250.28 29.79L1250.28 29.87L1250.49 29.87C1252.57 30.67 1254.63 31.55 1256.63 32.5L1256.63 32.57L1256.78 32.57L1257.68 33.01L1257.71 33.02C1259.14 33.72 1260.54 34.47 1261.92 35.25L1261.92 35.27L1261.94 35.27C1263.19 35.97 1264.43 36.71 1265.63 37.48L1265.63 37.51L1265.68 37.51C1266.28 37.9 1266.87 38.28 1267.46 38.68C1268.03 38.27 1268.62 37.88 1269.24 37.51L1269.32 37.51L1269.32 37.45C1269.81 37.16 1270.31 36.88 1270.84 36.61L1270.92 36.61L1270.92 36.57C1271.18 36.43 1271.47 36.3 1271.75 36.16L1271.98 36.16L1271.98 36.06C1272.59 35.77 1273.23 35.51 1273.87 35.27L1274.09 35.27L1274.09 35.18C1274.43 35.06 1274.8 34.93 1275.15 34.82L1275.68 34.82L1275.68 34.65C1276.01 34.55 1276.34 34.46 1276.67 34.37L1277.27 34.37L1277.27 34.21C1277.69 34.11 1278.14 34.01 1278.59 33.92L1278.85 33.92L1278.85 33.86L1279.43 33.76C1280.13 33.64 1280.82 33.54 1281.53 33.47L1282.56 33.47L1282.56 33.38C1284.16 33.27 1285.76 33.27 1287.31 33.4L1287.31 33.47L1288.07 33.47C1289.63 33.63 1291.14 33.91 1292.61 34.29L1292.61 34.37L1292.9 34.37C1296.06 35.22 1299.03 36.57 1301.61 38.33L1301.61 38.41L1301.72 38.41C1303.02 39.31 1304.22 40.3 1305.31 41.4L1305.31 41.55L1305.46 41.55L1305.84 41.95L1305.84 42L1305.89 42C1306.64 42.81 1307.32 43.67 1307.96 44.58L1307.96 44.7L1308.04 44.7C1308.18 44.92 1308.34 45.15 1308.48 45.38L1308.48 45.6L1308.62 45.6C1309.18 46.51 1309.66 47.46 1310.06 48.44L1310.06 48.74L1310.19 48.74C1310.34 49.1 1310.48 49.47 1310.6 49.84L1310.6 50.09L1310.68 50.09C1310.83 50.57 1310.97 51.05 1311.09 51.55C1311.38 52.75 1311.52 53.95 1311.58 55.13C1312.4 55.08 1313.23 55.05 1314.04 55.03L1318.68 55.03C1320.59 55.08 1322.48 55.2 1324.36 55.38L1324.36 55.48L1325.26 55.48C1326.38 55.6 1327.49 55.74 1328.59 55.91L1328.59 55.93L1328.71 55.93C1329.56 56.06 1330.4 56.2 1331.24 56.35L1331.24 56.38L1331.37 56.38C1332.03 56.5 1332.69 56.63 1333.35 56.77L1333.35 56.82L1333.61 56.82C1334.23 56.96 1334.85 57.1 1335.47 57.25L1335.47 57.27L1335.57 57.27C1337.15 57.65 1338.7 58.08 1340.23 58.55L1340.23 58.62L1340.47 58.62C1340.92 58.76 1341.37 58.91 1341.82 59.05L1341.82 59.07L1341.87 59.07C1343.1 59.48 1344.32 59.91 1345.52 60.38L1345.52 60.42L1345.62 60.42L1346.58 60.8L1346.58 60.87L1346.76 60.87L1347.64 61.23L1347.64 61.32L1347.83 61.32L1348.7 61.69L1348.7 61.77L1348.87 61.77L1349.76 62.16L1349.76 62.21L1349.87 62.21L1350.81 62.66C1351.7 63.08 1352.59 63.53 1353.46 63.98L1353.46 64.01L1353.52 64.01C1354.03 64.28 1354.54 64.56 1355.05 64.84L1355.05 64.91L1355.17 64.91C1355.66 65.18 1356.15 65.46 1356.63 65.75L1356.63 65.81L1356.73 65.81C1358.15 66.65 1359.53 67.53 1360.87 68.45L1360.87 68.5L1360.94 68.5C1362.19 69.36 1363.4 70.26 1364.57 71.19L1365.1 71.62L1365.1 71.65L1365.14 71.65L1365.63 72.05L1365.63 72.1L1365.69 72.1L1366.16 72.49L1366.16 72.55L1366.22 72.55L1366.69 72.94L1366.69 72.99L1366.75 72.99L1367.22 73.41L1367.22 73.44L1367.26 73.44L1367.74 73.87L1367.74 73.89L1367.77 73.89C1368.45 74.51 1369.11 75.13 1369.76 75.77C1370.92 75.43 1372.09 75.12 1373.32 74.91L1374.05 74.79L1374.62 74.79L1374.62 74.71C1377.5 74.34 1380.35 74.37 1383.09 74.75L1383.09 74.79L1383.36 74.79C1384.72 74.99 1386.04 75.29 1387.32 75.66L1387.32 75.69L1387.43 75.69C1388.3 75.94 1389.14 76.23 1389.97 76.56L1389.97 76.59L1390.04 76.59C1390.37 76.72 1390.7 76.86 1391.03 77L1391.03 77.04L1391.11 77.04C1392.77 77.78 1394.34 78.66 1395.79 79.68L1395.79 79.73L1395.87 79.73C1396.98 80.51 1398.01 81.37 1398.96 82.3L1398.96 82.43L1399.09 82.43L1399.49 82.84L1399.49 82.88L1399.53 82.88C1400.08 83.45 1400.6 84.04 1401.08 84.66C1402.13 86.01 1403.02 87.47 1403.73 89.02L1403.73 89.16L1403.79 89.16C1403.96 89.54 1404.11 89.92 1404.25 90.3L1404.25 90.51L1404.33 90.51C1404.59 91.22 1404.81 91.95 1404.99 92.7C1405.13 93.25 1405.23 93.81 1405.31 94.36L1405.31 95.45L1405.44 95.45C1405.51 96.22 1405.53 96.99 1405.51 97.75L1406.66 97.7L1412.35 97.7C1414.07 97.77 1415.79 97.9 1417.48 98.09L1417.48 98.15L1417.97 98.15C1418.69 98.24 1419.41 98.34 1420.13 98.44L1420.13 98.6L1421.09 98.6C1421.65 98.69 1422.21 98.79 1422.77 98.9L1422.77 99.05L1423.53 99.05C1424.17 99.17 1424.79 99.31 1425.42 99.46L1425.42 99.5L1425.59 99.5C1427.14 99.86 1428.67 100.28 1430.18 100.74L1430.18 100.84L1430.51 100.84C1430.93 100.98 1431.35 101.11 1431.77 101.25L1431.77 101.29L1431.89 101.29L1432.83 101.62L1432.83 101.74L1433.18 101.74L1433.89 102L1433.89 102.19L1434.39 102.19L1435.47 102.62L1435.47 102.64L1435.53 102.64L1436.53 103.05L1436.53 103.09L1436.62 103.09L1437.59 103.51L1437.59 103.54L1437.65 103.54C1438.52 103.93 1439.39 104.33 1440.24 104.75L1440.24 104.89L1440.5 104.89L1441.29 105.3L1441.29 105.33L1441.37 105.33L1441.82 105.57L1441.82 105.78L1442.21 105.78L1442.88 106.15L1442.88 106.23L1443.03 106.23C1443.52 106.51 1443.99 106.79 1444.47 107.07L1444.47 107.13L1444.57 107.13C1446.18 108.1 1447.74 109.12 1449.23 110.22L1449.23 110.28L1449.31 110.28L1449.76 110.61L1449.76 110.72L1449.91 110.72L1450.29 111.01L1450.29 111.17L1450.5 111.17L1450.82 111.42L1450.82 111.62L1451.07 111.62L1451.35 111.84L1451.35 112.07L1451.63 112.07C1452.81 113.04 1453.96 114.05 1455.05 115.09L1455.05 115.22L1455.18 115.22L1455.58 115.61L1455.58 115.67L1455.64 115.67C1456.16 116.18 1456.67 116.71 1457.17 117.24L1457.17 117.46L1457.37 117.46L1457.7 117.81L1457.7 117.91L1457.78 117.91C1458.11 118.28 1458.44 118.64 1458.75 119.02L1458.75 119.26L1458.96 119.26L1459.28 119.64L1459.28 119.71L1459.34 119.71C1460.06 120.58 1460.74 121.47 1461.4 122.39L1461.4 122.4C1461.57 122.65 1461.76 122.9 1461.93 123.14L1461.93 123.3L1462.04 123.3L1462.46 123.92L1462.46 124.2L1462.64 124.2L1462.99 124.73L1462.99 125.1L1463.22 125.1L1463.52 125.58L1463.52 126L1463.76 126L1464.04 126.47L1464.04 126.89L1464.28 126.89C1465.18 128.47 1465.98 130.1 1466.69 131.77L1466.69 132.28L1466.9 132.28L1467.22 133.08L1467.22 133.63L1467.43 133.63L1467.75 134.51L1467.75 134.98L1467.91 134.98C1468.04 135.36 1468.16 135.74 1468.28 136.12L1468.28 136.33L1468.34 136.33C1468.51 136.87 1468.66 137.41 1468.81 137.95L1468.81 138.12L1468.85 138.12L1469.07 139C1469.17 139.39 1469.25 139.78 1469.34 140.17L1469.34 140.37L1469.38 140.37C1469.59 141.42 1469.76 142.48 1469.9 143.53L1471.02 143.31C1471.53 143.22 1472.04 143.14 1472.55 143.06L1473.57 143.06L1473.57 142.92C1474.6 142.79 1475.63 142.69 1476.65 142.62L1479.39 142.62L1479.39 142.48C1480.63 142.45 1481.87 142.46 1483.09 142.5L1483.09 142.62L1485.11 142.62C1486.03 142.68 1486.94 142.77 1487.85 142.89L1487.85 143.06L1489.17 143.06C1490.69 143.29 1492.2 143.57 1493.68 143.91L1493.68 143.96L1493.9 143.96C1494.36 144.07 1494.81 144.18 1495.26 144.3L1495.26 144.41L1495.68 144.41C1496.07 144.52 1496.46 144.63 1496.85 144.74L1496.85 144.86L1497.26 144.86C1497.65 144.98 1498.05 145.11 1498.44 145.23L1498.44 145.31L1498.67 145.31C1499.48 145.58 1500.29 145.87 1501.08 146.17L1501.08 146.21L1501.18 146.21L1502.14 146.59L1502.14 146.66L1502.3 146.66L1503.2 147.04L1503.2 147.11L1503.36 147.11L1504.26 147.51L1504.26 147.56L1504.35 147.56C1504.86 147.79 1505.35 148.03 1505.84 148.27L1505.84 148.46L1506.2 148.46L1506.9 148.82L1506.9 148.9L1507.06 148.9C1507.76 149.28 1508.45 149.66 1509.12 150.07C1509.13 148.77 1509.24 147.48 1509.44 146.21L1509.55 146.21L1509.55 145.56C1509.67 144.87 1509.82 144.19 1510 143.51L1510.08 143.51L1510.08 143.21C1510.22 142.71 1510.37 142.21 1510.53 141.72L1510.61 141.72L1510.61 141.49C1511.16 139.87 1511.87 138.29 1512.71 136.78L1512.72 136.76C1512.89 136.46 1513.06 136.17 1513.23 135.88L1513.25 135.88L1513.25 135.84C1513.99 134.61 1514.83 133.42 1515.75 132.28L1515.9 132.28L1515.9 132.11C1516.23 131.71 1516.56 131.32 1516.91 130.94L1516.96 130.94L1516.96 130.89C1518.92 128.73 1521.2 126.78 1523.77 125.1L1523.84 125.1L1523.84 125.05C1525.63 123.88 1527.57 122.84 1529.62 121.95L1529.65 121.95L1529.65 121.94C1530 121.79 1530.35 121.65 1530.7 121.5C1531.97 121 1533.3 120.54 1534.65 120.16L1534.95 120.16L1534.95 120.07C1535.41 119.94 1535.88 119.82 1536.35 119.71L1536.53 119.71L1536.53 119.66C1537.41 119.45 1538.3 119.27 1539.2 119.12C1539.91 118.99 1540.61 118.89 1541.31 118.81L1543.94 118.81L1543.94 118.58C1545.43 118.49 1546.91 118.48 1548.38 118.54C1548.65 117.88 1548.93 117.22 1549.23 116.56L1549.64 115.67L1549.76 115.67L1549.76 115.41C1550.08 114.74 1550.41 114.08 1550.75 113.42L1550.82 113.42L1550.82 113.28L1551.22 112.52L1551.35 112.52L1551.35 112.3C1552.14 110.85 1552.99 109.43 1553.9 108.03L1553.99 108.03L1553.99 107.88L1554.49 107.13L1554.52 107.13L1554.52 107.08C1554.82 106.65 1555.12 106.21 1555.42 105.78L1555.58 105.78L1555.58 105.56L1556.08 104.89L1556.11 104.89L1556.11 104.84C1556.77 103.94 1557.46 103.06 1558.17 102.19L1558.23 102.19L1558.23 102.12C1558.7 101.54 1559.19 100.96 1559.69 100.39L1559.82 100.39L1559.82 100.25C1560.31 99.69 1560.81 99.14 1561.32 98.6L1561.4 98.6L1561.4 98.51C1562.24 97.62 1563.1 96.75 1563.99 95.9L1564.05 95.9L1564.05 95.85L1564.47 95.45L1564.58 95.45L1564.58 95.35L1564.95 95L1565.11 95L1565.11 94.85C1566.94 93.18 1568.87 91.58 1570.9 90.06L1570.93 90.06L1570.93 90.04C1571.74 89.44 1572.57 88.85 1573.41 88.27L1573.57 88.27L1573.57 88.16L1574.07 87.82L1574.1 87.82L1574.1 87.8C1574.78 87.35 1575.46 86.9 1576.15 86.47L1576.22 86.47L1576.22 86.43C1577.7 85.5 1579.23 84.62 1580.8 83.78L1580.98 83.78L1580.98 83.68C1581.49 83.41 1582 83.14 1582.52 82.88L1582.57 82.88L1582.57 82.85L1583.43 82.43L1583.63 82.43L1583.63 82.33C1585.9 81.22 1588.25 80.2 1590.68 79.28L1591.03 79.28L1591.03 79.15L1591.89 78.83L1592.09 78.83L1592.09 78.76C1592.89 78.48 1593.69 78.2 1594.51 77.94L1594.74 77.94L1594.74 77.86C1596.15 77.41 1597.59 76.98 1599.05 76.59L1599.5 76.59L1599.5 76.47C1599.93 76.36 1600.36 76.25 1600.79 76.14L1601.09 76.14L1601.09 76.07C1601.62 75.94 1602.16 75.81 1602.71 75.69L1603.2 75.69L1603.2 75.58C1604.49 75.3 1605.8 75.04 1607.12 74.81C1608.14 74.64 1609.15 74.48 1610.17 74.34L1610.61 74.34L1610.61 74.28C1611.73 74.13 1612.84 74 1613.95 73.89L1614.31 73.89L1614.31 73.86C1620.04 73.32 1625.71 73.33 1631.25 73.83L1631.25 73.89L1631.85 73.89C1633.07 74.01 1634.28 74.15 1635.48 74.32L1635.48 74.34L1635.63 74.34C1636.47 74.46 1637.3 74.59 1638.12 74.73L1638.12 74.79L1638.5 74.79C1639.26 74.92 1640.02 75.06 1640.77 75.21L1640.77 75.24L1640.91 75.24C1641.57 75.37 1642.23 75.51 1642.89 75.66L1642.89 75.69L1643.02 75.69C1644.22 75.96 1645.41 76.26 1646.59 76.57L1646.59 76.59L1646.64 76.59C1647.16 76.73 1647.67 76.87 1648.18 77.02L1648.18 77.04L1648.24 77.04C1649.65 77.44 1651.04 77.89 1652.41 78.36L1652.41 78.38L1652.48 78.38L1653.47 78.73L1653.47 78.83L1653.75 78.83C1654.54 79.12 1655.33 79.42 1656.11 79.73L1657.17 80.16L1657.17 80.18L1657.22 80.18C1657.92 80.47 1658.6 80.76 1659.29 81.07L1659.32 81.08C1660.56 81.63 1661.79 82.21 1662.99 82.82L1662.99 82.88L1663.1 82.88C1663.96 83.31 1664.8 83.75 1665.64 84.21L1665.66 84.22C1666.19 84.51 1666.71 84.81 1667.23 85.11L1667.23 85.12L1667.25 85.12C1667.95 85.53 1668.65 85.95 1669.34 86.38L1669.34 86.47L1669.49 86.47C1670.36 87.01 1671.23 87.57 1672.07 88.15C1672.67 87.72 1673.3 87.31 1673.95 86.92L1674.1 86.92L1674.1 86.82C1674.58 86.54 1675.07 86.28 1675.57 86.02L1675.69 86.02L1675.69 85.96C1676.63 85.48 1677.62 85.05 1678.64 84.67L1678.87 84.67L1678.87 84.59C1679.22 84.46 1679.58 84.34 1679.94 84.22L1680.45 84.22L1680.45 84.07C1680.8 83.96 1681.14 83.87 1681.5 83.78L1682.04 83.78L1682.04 83.64C1682.52 83.52 1683 83.42 1683.49 83.33L1683.63 83.33L1683.63 83.3L1684.04 83.23C1684.95 83.07 1685.86 82.95 1686.76 82.88L1687.86 82.88L1687.86 82.8C1688.93 82.75 1689.99 82.75 1691.04 82.81L1691.04 82.88L1692.07 82.88C1693.15 82.97 1694.22 83.12 1695.27 83.32L1695.33 83.33C1697.33 83.71 1699.26 84.29 1701.09 85.04L1701.09 85.12L1701.28 85.12C1701.57 85.24 1701.86 85.37 1702.15 85.5L1702.15 85.57L1702.29 85.57C1702.6 85.71 1702.91 85.86 1703.21 86.01C1703.74 86.29 1704.28 86.58 1704.79 86.89L1704.79 86.92L1704.84 86.92C1705.75 87.46 1706.62 88.05 1707.44 88.68L1707.44 88.72L1707.48 88.72C1708.02 89.13 1708.53 89.56 1709.03 90.01L1709.03 90.06L1709.09 90.06L1709.55 90.5L1709.55 90.51C1710.52 91.44 1711.42 92.45 1712.2 93.52L1712.2 93.66L1712.3 93.66C1713.34 95.1 1714.2 96.65 1714.85 98.3L1714.85 98.6L1714.96 98.6C1715.11 99 1715.25 99.4 1715.37 99.81L1715.37 99.94L1715.41 99.94C1715.52 100.3 1715.62 100.65 1715.7 101.01C1715.78 101.33 1715.85 101.65 1715.9 101.97L1715.9 102.19L1715.94 102.19C1716.07 103 1716.15 103.8 1716.19 104.6C1720.38 104.36 1724.53 104.44 1728.6 104.82L1728.6 104.89L1729.3 104.89C1731.39 105.1 1733.45 105.39 1735.48 105.75L1735.48 105.78L1735.66 105.78C1736.31 105.9 1736.96 106.03 1737.6 106.16L1737.6 106.23L1737.95 106.23C1740.71 106.82 1743.42 107.54 1746.06 108.4L1746.06 108.48L1746.31 108.48C1750.66 109.91 1754.83 111.7 1758.76 113.81L1758.76 113.87L1758.86 113.87C1759.36 114.14 1759.86 114.42 1760.35 114.7L1760.35 114.77L1760.47 114.77C1761.69 115.47 1762.89 116.2 1764.05 116.96L1764.05 117.01L1764.14 117.01C1765.01 117.58 1765.86 118.17 1766.7 118.78L1766.7 118.81L1766.74 118.81L1767.23 119.16L1767.23 119.26L1767.36 119.26C1769.85 121.1 1772.2 123.1 1774.38 125.23C1775.1 125.02 1775.83 124.82 1776.57 124.65L1776.75 124.65L1776.75 124.61C1777.14 124.52 1777.54 124.44 1777.94 124.37C1778.31 124.31 1778.69 124.25 1779.06 124.2L1779.4 124.2L1779.4 124.16C1783.03 123.7 1786.61 123.89 1789.98 124.64L1789.98 124.65L1790.04 124.65C1791.1 124.89 1792.14 125.18 1793.15 125.52L1793.15 125.55L1793.25 125.55C1794.69 126.04 1796.07 126.64 1797.39 127.33L1797.39 127.34L1797.42 127.34C1801.63 129.57 1805.12 132.77 1807.37 136.67L1808.48 135.43L1808.5 135.43L1808.5 135.41L1808.88 134.98L1809.03 134.98L1809.03 134.82C1809.53 134.27 1810.03 133.73 1810.54 133.18L1810.61 133.18L1810.61 133.11L1810.97 132.73L1811.14 132.73L1811.14 132.55L1811.4 132.28L1811.67 132.28L1811.67 132L1812.71 130.94L1812.73 130.94L1812.73 130.91L1813.16 130.49L1813.26 130.49L1813.26 130.38L1813.6 130.04L1813.79 130.04L1813.79 129.85L1814.06 129.59L1814.32 129.59L1814.32 129.33C1815 128.66 1815.69 128 1816.39 127.34L1816.43 127.34L1816.43 127.3L1816.88 126.89L1816.96 126.89L1816.96 126.81C1818.76 125.15 1820.6 123.53 1822.49 121.95L1822.78 121.95L1822.78 121.71L1823.03 121.5L1823.31 121.5L1823.31 121.27L1823.58 121.06L1823.84 121.06L1823.84 120.84L1824.13 120.61L1824.37 120.61L1824.37 120.41L1824.69 120.16L1824.9 120.16L1824.9 119.99L1825.26 119.71L1825.43 119.71L1825.43 119.57L1825.83 119.26L1825.96 119.26L1825.96 119.15L1826.4 118.81L1826.49 118.81L1826.49 118.74L1826.98 118.36L1827.02 118.36L1827.02 118.34C1828.4 117.27 1829.81 116.23 1831.24 115.22C1831.88 114.76 1832.53 114.31 1833.17 113.87L1833.37 113.87L1833.37 113.74L1833.83 113.42L1833.9 113.42L1833.9 113.38L1835.17 112.52L1835.48 112.52L1835.48 112.32L1835.86 112.07L1836.01 112.07L1836.01 111.97L1837.25 111.17L1837.6 111.17L1837.6 110.95L1837.96 110.72L1838.13 110.72L1838.13 110.62L1839.4 109.83L1839.72 109.83L1839.72 109.63L1840.13 109.38L1840.24 109.38L1840.24 109.31L1841.63 108.48L1841.83 108.48L1841.83 108.36C1843.87 107.16 1845.95 106 1848.07 104.89L1848.18 104.89L1848.18 104.82L1848.92 104.44L1849.24 104.44L1849.24 104.27L1850.68 103.54L1850.83 103.54L1850.83 103.46L1851.58 103.09L1851.88 103.09L1851.88 102.94L1852.49 102.64L1852.94 102.64L1852.94 102.42L1853.42 102.19L1853.47 102.19L1853.47 102.17L1854.37 101.74L1854.53 101.74L1854.53 101.66L1855.33 101.29L1855.59 101.29L1855.59 101.17L1856.31 100.84L1856.65 100.84L1856.65 100.69C1858.03 100.07 1859.42 99.46 1860.82 98.88C1861.1 98.02 1861.43 97.17 1861.82 96.35L1861.94 96.35L1861.94 96.1C1862.04 95.88 1862.15 95.67 1862.26 95.45L1862.47 95.45L1862.47 95.07C1863.08 93.95 1863.78 92.88 1864.58 91.86L1864.94 91.41L1865.11 91.41L1865.11 91.2C1865.44 90.81 1865.78 90.44 1866.13 90.06L1866.17 90.06L1866.17 90.02L1866.56 89.61L1866.7 89.61L1866.7 89.48C1867.62 88.57 1868.62 87.71 1869.7 86.92L1869.88 86.92L1869.88 86.79L1870.32 86.47L1870.4 86.47L1870.4 86.41C1870.83 86.12 1871.26 85.84 1871.7 85.57L1871.99 85.57L1871.99 85.39L1872.46 85.12L1872.52 85.12L1872.52 85.09C1873.35 84.61 1874.22 84.18 1875.12 83.78L1875.17 83.78L1875.17 83.75C1875.5 83.61 1875.84 83.46 1876.18 83.33L1876.75 83.33L1876.75 83.1L1877.37 82.88L1877.81 82.88L1877.81 82.72C1878.12 82.62 1878.43 82.52 1878.74 82.43L1878.87 82.43L1878.87 82.39C1879.36 82.24 1879.86 82.1 1880.36 81.98L1880.46 81.98L1880.46 81.95L1880.96 81.83C1881.1 81.28 1881.26 80.73 1881.43 80.18L1881.52 80.18L1881.52 79.91C1882.57 76.67 1884.15 73.59 1886.2 70.75L1886.28 70.75L1886.28 70.64C1887.52 68.93 1888.92 67.32 1890.48 65.81L1890.51 65.81L1890.51 65.78L1890.95 65.36L1891.04 65.36L1891.04 65.28C1891.85 64.53 1892.7 63.81 1893.58 63.11L1893.69 63.11L1893.69 63.03L1894.16 62.66L1894.21 62.66L1894.21 62.63C1896.46 60.93 1898.94 59.43 1901.61 58.17C1901.93 58.02 1902.26 57.87 1902.59 57.72L1902.68 57.72L1902.68 57.68C1903 57.54 1903.32 57.41 1903.64 57.27L1903.74 57.27L1903.74 57.23C1904.08 57.09 1904.42 56.96 1904.77 56.82L1904.8 56.82C1906.11 56.32 1907.46 55.87 1908.85 55.48L1909.03 55.48L1909.03 55.43C1909.54 55.29 1910.05 55.15 1910.57 55.03L1910.62 55.03C1911.28 54.87 1911.96 54.71 1912.64 54.58L1912.73 54.58L1912.73 54.56L1913.68 54.39C1914.23 54.29 1914.78 54.2 1915.33 54.13L1916.44 54.13L1916.44 53.99C1917.9 53.82 1919.35 53.72 1920.79 53.68L1921.2 53.68L1921.73 53.66L1921.73 53.68L1923.41 53.68C1926.08 53.75 1928.7 54.04 1931.25 54.53L1931.25 54.58L1931.51 54.58C1932.14 54.7 1932.76 54.83 1933.37 54.98L1933.37 55.03L1933.56 55.03C1935.49 55.5 1937.37 56.08 1939.19 56.77L1939.19 56.82L1939.34 56.82L1940.25 57.19L1940.25 57.27L1940.47 57.27L1941.31 57.63L1941.31 57.72L1941.51 57.72C1941.96 57.92 1942.4 58.13 1942.84 58.34C1943.35 57.52 1943.88 56.72 1944.44 55.93L1944.48 55.93L1944.48 55.87C1945.44 54.5 1946.48 53.17 1947.59 51.88L1947.66 51.88L1947.66 51.8C1948.16 51.22 1948.67 50.65 1949.2 50.09L1949.24 50.09L1949.24 50.04C1950.24 48.97 1951.29 47.94 1952.38 46.94L1952.42 46.94L1952.42 46.91L1952.88 46.49L1952.95 46.49L1952.95 46.43L1953.39 46.04L1953.48 46.04L1953.48 45.97C1954.15 45.38 1954.84 44.81 1955.55 44.25L1955.59 44.25L1955.59 44.21C1956.76 43.29 1957.98 42.4 1959.23 41.55L1959.3 41.55L1959.3 41.51C1959.96 41.06 1960.63 40.63 1961.32 40.21L1961.41 40.21L1961.41 40.15C1965.45 37.65 1969.88 35.55 1974.63 33.92C1975.07 33.76 1975.53 33.61 1975.98 33.47L1976.23 33.47L1976.23 33.39C1977.7 32.92 1979.21 32.5 1980.74 32.12L1980.99 32.12L1980.99 32.06C1982.54 31.69 1984.12 31.36 1985.73 31.08C1986.37 30.97 1987.02 30.87 1987.67 30.77L1987.87 30.77L1987.87 30.75C1993.59 29.93 1999.28 29.8 2004.8 30.29L2004.8 30.32L2005.15 30.32C2008.09 30.6 2010.97 31.05 2013.79 31.67C2016.5 32.26 2019.16 33.01 2021.73 33.9L2021.73 33.92L2021.79 33.92C2030.66 36.98 2038.62 41.75 2045.01 47.83C2045.92 48.7 2046.81 49.61 2047.66 50.53C2048.2 51.12 2048.73 51.72 2049.25 52.33C2049.61 52.76 2049.96 53.2 2050.3 53.64L2050.3 53.68L2050.34 53.68C2050.69 54.12 2051.03 54.57 2051.36 55.02C2052.11 56.04 2052.81 57.07 2053.48 58.13L2053.48 58.17L2053.5 58.17C2054.05 59.05 2054.57 59.93 2055.07 60.84L2055.07 60.87C2055.84 62.29 2056.55 63.75 2057.18 65.24L2057.18 65.36L2057.23 65.36C2057.39 65.75 2057.56 66.15 2057.71 66.55L2057.71 66.71L2057.77 66.71C2057.94 67.13 2058.09 67.55 2058.24 67.97L2058.24 68.05L2058.27 68.05C2058.39 68.44 2058.53 68.83 2058.65 69.23L2059.26 68.95L2059.3 68.95L2059.3 68.93L2060.28 68.5L2060.36 68.5L2060.36 68.47L2061.33 68.05L2061.4 68.05L2061.4 68.02L2062.44 67.61L2062.47 67.61L2062.47 67.59C2063.24 67.28 2064.02 66.99 2064.81 66.71L2065.12 66.71L2065.12 66.6L2066.1 66.26L2066.18 66.26L2066.18 66.23C2067.58 65.75 2069.01 65.31 2070.46 64.91L2070.94 64.91L2070.94 64.78C2071.34 64.67 2071.75 64.56 2072.15 64.46L2072.53 64.46L2072.53 64.37C2073.02 64.25 2073.52 64.13 2074.01 64.01L2074.63 64.01L2074.63 63.87C2075.12 63.76 2075.61 63.66 2076.1 63.56L2076.23 63.56L2076.23 63.54C2076.93 63.4 2077.63 63.26 2078.36 63.14C2079.39 62.96 2080.44 62.8 2081.48 62.66L2082.05 62.66L2082.05 62.59C2083.23 62.44 2084.4 62.31 2085.58 62.21L2086.28 62.21L2086.28 62.16C2090.57 61.84 2094.81 61.85 2098.98 62.18L2098.98 62.21L2099.45 62.21C2100.54 62.31 2101.61 62.42 2102.69 62.55L2102.69 62.66L2103.56 62.66C2104.51 62.79 2105.45 62.94 2106.38 63.1L2106.38 63.11L2106.48 63.11C2107.15 63.23 2107.83 63.36 2108.51 63.49L2108.51 63.56L2108.87 63.56C2109.46 63.68 2110.04 63.81 2110.62 63.94L2110.62 64.01L2110.94 64.01C2111.54 64.15 2112.13 64.3 2112.74 64.45L2112.79 64.46C2113.3 64.59 2113.82 64.73 2114.33 64.87L2114.33 64.91L2114.47 64.91C2115.85 65.3 2117.21 65.72 2118.56 66.17L2118.56 66.26L2118.81 66.26C2119.62 66.53 2120.4 66.82 2121.21 67.12L2121.21 67.16L2121.3 67.16L2122.26 67.53L2122.26 67.61L2122.45 67.61C2123.82 68.15 2125.17 68.73 2126.5 69.35L2126.5 69.4L2126.6 69.4C2127.46 69.8 2128.3 70.22 2129.13 70.65L2129.13 70.75L2129.33 70.75C2130.15 71.18 2130.98 71.63 2131.79 72.09C2132.5 72.49 2133.21 72.91 2133.9 73.34L2133.9 73.44L2134.08 73.44C2134.74 73.85 2135.37 74.27 2136.02 74.69L2136.02 74.79L2136.17 74.79C2137.02 75.36 2137.85 75.94 2138.67 76.53L2138.67 76.59L2138.74 76.59C2141.29 78.46 2143.69 80.48 2145.9 82.66C2146.7 82.57 2147.5 82.49 2148.29 82.43L2148.72 82.43L2148.72 82.39C2153.36 82.03 2157.96 82.04 2162.48 82.41L2162.48 82.43L2162.64 82.43C2165.82 82.69 2168.94 83.13 2172 83.73L2172 83.78L2172.2 83.78C2174.1 84.15 2175.97 84.6 2177.82 85.1L2177.82 85.12L2177.88 85.12C2178.39 85.26 2178.9 85.41 2179.4 85.55L2179.4 85.57L2179.47 85.57C2184.85 87.16 2189.98 89.27 2194.75 91.84L2194.75 91.86L2194.78 91.86C2195.31 92.14 2195.82 92.43 2196.34 92.72L2196.34 92.76L2196.39 92.76C2197.63 93.47 2198.86 94.21 2200.04 94.98L2200.04 95L2200.08 95C2200.96 95.58 2201.83 96.17 2202.69 96.78L2202.69 96.8L2202.71 96.8C2205.94 99.11 2208.95 101.66 2211.68 104.43C2212.4 105.16 2213.12 105.91 2213.8 106.67C2214.72 107.69 2215.6 108.75 2216.45 109.82C2218.64 112.61 2220.6 115.59 2222.27 118.72L2222.27 118.81L2222.32 118.81C2222.86 119.84 2223.37 120.88 2223.85 121.93L2223.85 121.95L2224.37 123.13L2224.37 123.3L2224.45 123.3C2225.01 124.62 2225.52 125.95 2225.97 127.31L2225.97 127.34C2226.14 127.88 2226.34 128.42 2226.5 128.97L2226.5 129.14L2226.55 129.14C2226.72 129.71 2226.87 130.29 2227.03 130.87L2227.03 130.94L2227.05 130.94C2227.13 131.29 2227.23 131.64 2227.32 131.99C2227.39 132.34 2227.48 132.7 2227.56 133.06L2227.56 133.18L2227.59 133.18C2227.78 134.07 2227.94 134.95 2228.09 135.83L2228.09 136.33L2228.17 136.33C2228.36 137.62 2228.51 138.9 2228.62 140.18L2228.62 142.17L2228.74 142.17C2228.82 144.13 2228.79 146.07 2228.65 148L2228.62 148L2228.62 148.51C2228.51 149.85 2228.35 151.18 2228.14 152.5L2228.09 152.5L2228.09 152.87C2227.94 153.8 2227.76 154.72 2227.56 155.64C2227.43 156.24 2227.29 156.84 2227.13 157.44L2227.03 157.44L2227.03 157.85C2226.87 158.46 2226.7 159.07 2226.52 159.68L2226.5 159.73C2226.33 160.31 2226.13 160.89 2225.95 161.46L2226.5 161.89L2226.5 161.93L2226.54 161.93L2227.03 162.31L2227.03 162.38L2227.12 162.38L2227.56 162.73L2227.56 162.83L2227.68 162.83L2228.09 163.16L2228.09 163.28L2228.23 163.28L2228.62 163.59L2228.62 163.73L2228.78 163.73L2229.14 164.03L2229.14 164.18L2229.33 164.18L2229.67 164.46L2229.67 164.63L2229.87 164.63L2230.2 164.91L2230.2 165.07L2230.39 165.07L2230.73 165.35L2230.73 165.52L2230.94 165.52L2231.26 165.81L2231.26 165.97L2231.46 165.97L2231.79 166.26L2231.79 166.42L2231.98 166.42L2232.32 166.72L2232.32 166.87L2232.49 166.87L2232.85 167.19L2232.85 167.32L2233 167.32L2233.37 167.66L2233.37 167.77L2233.5 167.77L2233.9 168.14L2233.9 168.22L2234 168.22L2234.44 168.61L2234.44 168.67L2234.49 168.67L2234.97 169.1L2234.97 169.12C2236.04 170.11 2237.11 171.11 2238.13 172.13L2238.13 172.26L2238.27 172.26L2238.67 172.66L2238.67 172.71L2238.73 172.71C2239.42 173.4 2240.11 174.11 2240.79 174.81L2240.79 174.96L2240.93 174.96L2241.32 175.36L2241.32 175.4L2241.36 175.4C2242.06 176.14 2242.75 176.89 2243.43 177.65C2243.97 178.24 2244.5 178.84 2245.02 179.44L2246.08 180.66L2246.08 180.8L2246.19 180.8C2246.69 181.38 2247.18 181.97 2247.67 182.57L2247.67 182.59L2247.68 182.59C2248.03 183.02 2248.37 183.45 2248.72 183.88L2248.72 183.94L2248.77 183.94L2249.78 185.23L2249.78 185.29L2249.83 185.29C2250.17 185.73 2250.5 186.17 2250.84 186.62L2250.84 186.63C2251.93 188.08 2253 189.55 2254.01 191.03L2254.01 191.13L2254.08 191.13L2254.54 191.82L2254.54 192.02L2254.68 192.02C2255.17 192.76 2255.65 193.49 2256.12 194.24L2256.12 194.27L2256.14 194.27L2256.65 195.07L2256.65 195.17L2256.72 195.17L2257.19 195.92L2257.19 196.07L2257.28 196.07C2258.15 197.51 2259.01 198.96 2259.83 200.43L2259.83 200.56L2259.89 200.56L2260.36 201.39L2260.36 201.46L2260.39 201.46C2260.75 202.1 2261.09 202.74 2261.42 203.38L2261.42 203.7L2261.59 203.7L2261.95 204.41L2261.95 204.6L2262.05 204.6L2262.48 205.47L2262.48 205.5L2262.5 205.5C2262.85 206.22 2263.2 206.94 2263.54 207.67L2263.54 207.74L2263.58 207.74C2264.11 208.89 2264.62 210.05 2265.12 211.21L2265.12 211.34L2265.18 211.34L2265.64 212.47L2265.64 212.69L2265.74 212.69L2266.18 213.77L2266.18 214.03L2266.29 214.03L2266.71 215.13L2266.71 215.38L2266.81 215.38L2267.24 216.54L2267.24 216.73L2267.31 216.73L2267.77 218L2267.77 218.08L2267.8 218.08C2268.36 219.66 2268.87 221.26 2269.36 222.88L2269.36 223.02L2269.39 223.02L2269.88 224.7L2269.88 225.26L2270.05 225.26L2270.42 226.64L2270.42 227.06L2270.53 227.06C2270.67 227.62 2270.81 228.18 2270.95 228.75L2270.95 229.3L2271.08 229.3C2271.21 229.89 2271.35 230.47 2271.48 231.06L2271.48 231.1C2271.65 231.95 2271.84 232.8 2272.01 233.65L2272.01 233.8L2272.03 233.8C2272.21 234.74 2272.37 235.68 2272.53 236.63L2272.53 237.39L2272.65 237.39C2272.8 238.35 2272.94 239.31 2273.06 240.27L2273.06 241.43L2273.2 241.43C2273.35 242.65 2273.47 243.87 2273.57 245.1C2274.07 244.77 2274.57 244.45 2275.08 244.13L2275.18 244.13L2275.18 244.06C2275.62 243.78 2276.08 243.5 2276.54 243.23L2276.77 243.23L2276.77 243.1C2277.2 242.84 2277.63 242.58 2278.09 242.33L2278.35 242.33L2278.35 242.18C2278.81 241.93 2279.26 241.68 2279.72 241.43L2279.94 241.43L2279.94 241.31L2281 240.76L2281 384.77C2280.39 384.91 2279.81 385.04 2279.2 385.16L2278.87 385.16L2278.87 385.23C2278.22 385.37 2277.55 385.49 2276.87 385.61L2276.24 385.61L2276.24 385.72C2275.52 385.85 2274.79 385.96 2274.06 386.06L2273.59 386.06L2273.59 386.13C2272.49 386.28 2271.37 386.41 2270.26 386.51L2268.83 386.51L2268.83 386.64C2266.69 386.8 2264.53 386.89 2262.34 386.89C2260.25 386.89 2258.18 386.81 2256.12 386.66L2256.12 386.51L2254.42 386.51C2253.22 386.4 2252.02 386.26 2250.84 386.09L2250.84 386.06L2250.62 386.06C2249.81 385.95 2249 385.82 2248.2 385.68L2248.2 385.61L2247.81 385.61C2247.23 385.51 2246.64 385.4 2246.08 385.29L2246.08 385.16L2245.49 385.16C2244.98 385.06 2244.47 384.95 2243.96 384.83L2243.96 384.72L2243.46 384.72C2242.84 384.57 2242.22 384.42 2241.61 384.26C2241.56 385.01 2241.48 385.76 2241.37 386.51L2241.32 386.51L2241.32 387.03C2241.07 388.83 2240.72 390.61 2240.26 392.35C2239.82 394.03 2239.29 395.68 2238.67 397.29C2238.2 398.51 2237.69 399.71 2237.12 400.89L2237.08 400.89L2237.08 400.96C2234.82 405.65 2231.79 410.01 2228.12 413.91L2228.09 413.91L2228.09 413.95C2227.08 415.02 2226.03 416.06 2224.94 417.06L2224.9 417.06L2224.9 417.08L2224.44 417.5L2224.38 417.5L2224.38 417.55L2223.93 417.95L2223.86 417.95L2223.86 418.02L2223.4 418.4L2223.33 418.4L2223.33 418.47C2222.81 418.9 2222.29 419.33 2221.76 419.75L2221.74 419.75L2221.74 419.77C2220.76 420.54 2219.76 421.28 2218.73 422L2139.48 422C2138.65 421.43 2137.86 420.84 2137.08 420.24L2137.08 420.2L2137.02 420.2C2135.76 419.23 2134.54 418.21 2133.37 417.15L2133.37 417.06L2133.27 417.06L2132.85 416.67L2132.85 416.61L2132.78 416.61L2132.32 416.17L2132.32 416.16C2131.76 415.63 2131.21 415.09 2130.68 414.54C2130.35 414.79 2130.02 415.03 2129.68 415.26C2129.25 415.56 2128.79 415.87 2128.34 416.16L2128.09 416.16L2128.09 416.32L2127.62 416.61L2127.56 416.61L2127.56 416.65C2127.07 416.94 2126.58 417.23 2126.09 417.5L2125.97 417.5L2125.97 417.57C2125.45 417.86 2124.92 418.13 2124.38 418.4C2124.09 418.55 2123.77 418.71 2123.47 418.85L2123.32 418.85L2123.32 418.92L2122.49 419.3L2122.27 419.3L2122.27 419.4L2121.44 419.75L2121.21 419.75L2121.21 419.85L2120.32 420.2L2120.14 420.2L2120.14 420.27C2119.8 420.4 2119.45 420.52 2119.1 420.65C2118.17 420.97 2117.22 421.28 2116.26 421.55L2115.92 421.55L2115.92 421.64C2115.46 421.76 2115 421.88 2114.54 422L2091.51 422C2090.45 421.74 2089.42 421.45 2088.39 421.13L2088.39 421.1L2088.29 421.1C2087.43 420.83 2086.59 420.53 2085.76 420.21L2085.73 420.2C2085.02 419.93 2084.33 419.64 2083.63 419.34L2083.63 419.3L2083.56 419.3C2083.23 419.16 2082.89 419.01 2082.58 418.85C2080.92 418.07 2079.33 417.19 2077.82 416.23L2077.82 416.16L2077.71 416.16C2076.06 415.1 2074.51 413.94 2073.06 412.69L2073.06 412.56L2072.9 412.56L2072.53 412.22L2072.53 412.11L2072.39 412.11L2072 411.74L2072 411.67L2071.92 411.67L2071.47 411.24L2071.47 411.22L2071.44 411.22C2070.71 410.51 2070.02 409.78 2069.35 409.03L2069.35 408.97L2069.3 408.97C2067.4 406.82 2065.8 404.48 2064.51 402C2063.83 401.96 2063.14 401.91 2062.48 401.83L2062.48 401.78L2062.11 401.78C2060.6 401.59 2059.12 401.31 2057.71 400.93L2057.71 400.89L2057.56 400.89C2057.08 400.75 2056.6 400.61 2056.12 400.46L2056.12 400.44L2056.06 400.44C2054.61 399.96 2053.22 399.4 2051.88 398.74L2051.88 398.64L2051.69 398.64C2050.65 398.12 2049.65 397.54 2048.72 396.91L2048.72 396.84L2048.61 396.84C2046.89 395.69 2045.33 394.37 2043.95 392.92L2043.95 392.8L2043.84 392.8C2041.47 390.25 2039.68 387.28 2038.67 384.05L2038.67 383.82L2038.59 383.82C2038.41 383.23 2038.26 382.63 2038.14 382.02C2037.85 380.64 2037.7 379.22 2037.7 377.77C2037.7 376.46 2037.82 375.18 2038.05 373.94L2038.14 373.94L2038.14 373.5C2038.26 372.89 2038.42 372.29 2038.6 371.69L2038.66 371.69L2038.66 371.48C2038.78 371.09 2038.92 370.72 2039.06 370.34L2039.19 370.34L2039.19 369.99C2039.43 369.4 2039.69 368.81 2039.98 368.24C2039.35 368.11 2038.74 367.95 2038.14 367.76L2038.14 367.65L2037.77 367.65C2037.54 367.57 2037.31 367.49 2037.08 367.4L2037.08 367.2L2036.56 367.2C2035.42 366.73 2034.35 366.16 2033.37 365.5L2033.37 365.4L2033.23 365.4L2032.84 365.13L2032.84 364.95L2032.61 364.95L2032.31 364.72L2032.31 364.5L2032.04 364.5C2031.15 363.76 2030.35 362.93 2029.67 362.04L2029.67 361.81L2029.5 361.81C2029.37 361.64 2029.26 361.47 2029.14 361.3L2029.14 360.91L2028.89 360.91C2028.33 360 2027.88 359.04 2027.55 358.03L2027.55 357.32L2027.34 357.32C2027.2 356.74 2027.09 356.16 2027.02 355.57L2027.02 354.62L2026.96 354.62L2026.95 354.21C2026.95 353.9 2026.96 353.58 2026.99 353.27L2027.02 353.27L2027.02 352.92C2027.11 352.17 2027.26 351.44 2027.47 350.73C2027.19 350.84 2026.9 350.94 2026.61 351.03L2026.49 351.03L2026.49 351.06C2025.98 351.22 2025.47 351.36 2024.94 351.48L2024.91 351.48C2023.74 351.73 2022.53 351.89 2021.29 351.93L2021.2 351.93L2020.69 351.94L2020.14 351.93L2020.09 351.93C2019.02 351.89 2017.98 351.78 2016.97 351.59L2016.97 351.48L2016.43 351.48C2015.89 351.36 2015.37 351.22 2014.85 351.06L2014.85 351.03L2014.75 351.03C2014.43 350.93 2014.11 350.81 2013.8 350.7L2013.8 350.58L2013.49 350.58C2013.24 350.48 2012.98 350.37 2012.74 350.26L2012.74 350.13L2012.46 350.13C2012.19 350.01 2011.93 349.88 2011.68 349.74L2011.68 349.68L2011.57 349.68C2010.86 349.3 2010.19 348.87 2009.56 348.41L2009.56 348.33L2009.46 348.33L2009.03 348L2009.03 347.88L2008.89 347.88L2008.5 347.56L2008.5 347.43L2008.37 347.43L2007.98 347.07L2007.98 346.99L2007.89 346.99C2007.74 346.84 2007.59 346.69 2007.45 346.54C2007.07 346.14 2006.72 345.72 2006.39 345.29L2006.39 345.19L2006.31 345.19C2006.15 344.98 2006 344.76 2005.86 344.54L2005.86 344.29L2005.7 344.29C2005.57 344.09 2005.45 343.88 2005.33 343.67L2005.33 343.39L2005.18 343.39C2005.04 343.14 2004.92 342.88 2004.8 342.62L2004.8 342.49L2004.75 342.49L2004.58 342.09C2003.47 342.7 2002.33 343.29 2001.16 343.84L2001.1 343.84L2001.1 343.87C1999.77 344.5 1998.41 345.09 1997.02 345.64L1996.87 345.64L1996.87 345.7L1995.85 346.09L1995.81 346.09L1995.81 346.1C1994.01 346.77 1992.16 347.36 1990.28 347.88L1989.99 347.88L1989.99 347.96C1989.51 348.09 1989.04 348.21 1988.56 348.33L1988.4 348.33L1988.4 348.37C1987.08 348.7 1985.75 348.98 1984.4 349.23L1984.17 349.23L1984.17 349.27C1983.33 349.42 1982.49 349.56 1981.64 349.68L1981.52 349.68L1981.52 349.7C1980.93 349.78 1980.33 349.86 1979.73 349.93C1979.8 350.2 1979.87 350.47 1979.93 350.75L1979.93 351.03L1980 351.03C1980.27 352.31 1980.41 353.63 1980.41 354.98C1980.41 356.39 1980.26 357.77 1979.97 359.11L1979.93 359.11L1979.93 359.26C1979.81 359.82 1979.66 360.37 1979.49 360.91L1979.41 360.91L1979.41 361.17C1978.8 362.98 1977.94 364.7 1976.87 366.3L1976.76 366.3L1976.76 366.46C1976.15 367.34 1975.47 368.19 1974.73 369L1974.64 369L1974.64 369.09C1973.45 370.38 1972.09 371.55 1970.6 372.59L1970.41 372.59L1970.41 372.72L1969.94 373.04L1969.88 373.04L1969.88 373.07C1968.89 373.72 1967.84 374.31 1966.74 374.83L1966.71 374.83L1966.71 374.85C1966.4 375 1966.08 375.14 1965.76 375.28L1965.65 375.28L1965.65 375.33C1965.33 375.47 1965 375.6 1964.67 375.73L1964.59 375.73L1964.59 375.76C1963.73 376.09 1962.85 376.38 1961.95 376.63C1961.35 376.8 1960.74 376.95 1960.12 377.08L1959.83 377.08L1959.83 377.14C1959.05 377.3 1958.25 377.43 1957.45 377.53L1956.65 377.53L1956.65 377.61C1955.64 377.71 1954.61 377.77 1953.56 377.77C1952.31 377.77 1951.08 377.67 1949.88 377.53C1949.68 377.83 1949.47 378.13 1949.27 378.43L1949.25 378.43L1949.25 378.46C1948.94 378.9 1948.63 379.34 1948.31 379.77L1948.19 379.77L1948.19 379.94C1946.73 381.91 1945.15 383.8 1943.44 385.61L1943.43 385.63L1943.01 386.06L1942.9 386.06L1942.9 386.18C1942.05 387.06 1941.17 387.92 1940.26 388.76L1939.77 389.21L1939.72 389.21L1939.72 389.25L1939.26 389.66L1939.19 389.66L1939.19 389.72L1938.75 390.11L1938.66 390.11L1938.66 390.18L1938.23 390.55L1938.13 390.55L1938.13 390.63L1937.69 391L1937.6 391L1937.6 391.08L1937.15 391.45L1937.08 391.45L1937.08 391.51L1936.59 391.9L1936.55 391.9L1936.55 391.93L1936.02 392.35C1935.03 393.12 1934.01 393.87 1932.97 394.6L1932.84 394.6L1932.84 394.68L1932.31 395.05C1931.64 395.51 1930.95 395.95 1930.25 396.39L1930.2 396.39L1930.2 396.43C1928.7 397.36 1927.16 398.25 1925.58 399.09L1925.44 399.09L1925.44 399.17C1924.6 399.6 1923.76 400.03 1922.91 400.44L1922.79 400.44L1922.79 400.49C1921.14 401.28 1919.45 402.01 1917.73 402.68L1917.5 402.68L1917.5 402.77L1916.55 403.13L1916.44 403.13L1916.44 403.17C1912.33 404.69 1908.02 405.89 1903.56 406.72L1903.21 406.72L1903.21 406.79C1902.45 406.93 1901.69 407.06 1900.92 407.17L1900.57 407.17L1900.57 407.23C1899.62 407.37 1898.67 407.5 1897.71 407.6C1897.79 408.04 1897.86 408.48 1897.92 408.92L1897.92 409.42L1897.98 409.42C1898.04 410.01 1898.08 410.6 1898.08 411.2C1898.08 411.66 1898.06 412.11 1898.03 412.56L1897.92 412.56L1897.92 413.64C1897.74 415.13 1897.38 416.57 1896.88 417.95L1896.86 417.98C1896.35 419.38 1895.68 420.73 1894.87 422L1710 422C1708.58 421.63 1707.19 421.2 1705.85 420.7L1705.85 420.65L1705.71 420.65C1705.4 420.53 1705.1 420.41 1704.8 420.29L1704.8 420.2L1704.57 420.2C1702.99 419.55 1701.48 418.82 1700.03 418L1700.03 417.95L1699.95 417.95C1698.09 416.89 1696.35 415.69 1694.74 414.37L1694.74 414.36L1694.73 414.36L1694.21 413.93L1694.21 413.91L1694.19 413.91L1693.68 413.47C1692.75 412.64 1691.86 411.76 1691.04 410.85L1691.04 410.77L1690.97 410.77C1689.59 409.23 1688.37 407.59 1687.33 405.85L1687.33 405.83L1687.32 405.83C1687.14 405.53 1686.97 405.23 1686.8 404.93C1686.43 404.24 1686.07 403.53 1685.75 402.82L1685.75 402.68L1685.69 402.68C1685.52 402.31 1685.37 401.93 1685.22 401.56L1685.22 401.33L1685.13 401.33C1684.97 400.93 1684.83 400.51 1684.69 400.1L1684.69 399.99L1684.65 399.99C1684.45 399.37 1684.27 398.75 1684.11 398.12C1683.22 398.92 1682.29 399.7 1681.32 400.44L1680.99 400.44L1680.99 400.69L1680.73 400.89L1680.46 400.89L1680.46 401.08L1680.11 401.33L1679.93 401.33L1679.93 401.47L1679.48 401.78L1679.4 401.78L1679.4 401.84C1677.78 402.96 1676.08 403.99 1674.3 404.93L1674.11 404.93L1674.11 405.03L1673.43 405.38L1673.05 405.38L1673.05 405.57C1672.55 405.81 1672.06 406.05 1671.55 406.28L1671.46 406.28L1671.46 406.32L1670.54 406.72L1670.4 406.72L1670.4 406.78L1669.46 407.17L1669.34 407.17L1669.34 407.22L1668.31 407.62L1668.29 407.62C1667.45 407.94 1666.6 408.24 1665.73 408.52L1665.11 408.52L1665.11 408.72L1664.26 408.97L1663.52 408.97L1663.52 409.18L1662.61 409.42L1661.94 409.42L1661.94 409.59C1661.54 409.69 1661.13 409.78 1660.73 409.87L1660.35 409.87L1660.35 409.95C1658.75 410.29 1657.12 410.56 1655.47 410.77L1653.47 410.77L1653.47 410.98C1651.8 411.12 1650.09 411.2 1648.38 411.2L1647.23 411.17C1647.38 412.68 1647.48 414.21 1647.48 415.75C1647.48 416.95 1647.43 418.13 1647.33 419.3L1647.12 419.3L1647.12 421.33L1647.03 422L1203.1 422C1202.57 420.76 1202.07 419.51 1201.61 418.25L1201.61 417.95L1201.49 417.95L1201.07 416.82L1201.07 416.61L1201 416.61L1200.55 415.32L1200.55 415.26L1200.53 415.26C1199.97 413.63 1199.43 411.99 1198.96 410.34L1198.96 410.32C1198.78 409.71 1198.6 409.1 1198.43 408.48L1198.43 408.07L1198.31 408.07L1197.9 406.47L1197.9 406.28L1197.85 406.28C1197.68 405.62 1197.53 404.95 1197.37 404.29L1197.37 404.03L1197.31 404.03C1196.93 402.41 1196.61 400.79 1196.31 399.15L1196.31 398.64L1196.22 398.64C1196.06 397.74 1195.92 396.85 1195.79 395.95L1195.79 395.5L1195.72 395.5C1195.23 392.09 1194.89 388.65 1194.73 385.17L1194.73 382.47L1194.63 382.47C1194.62 381.66 1194.61 380.86 1194.61 380.05C1194.61 379.36 1194.61 378.67 1194.63 377.98L1194.73 377.98L1194.73 374.97C1194.79 373.57 1194.89 372.18 1195.01 370.79L1195.26 370.79L1195.26 368.28C1195.5 366.11 1195.8 363.95 1196.18 361.81L1196.31 361.81L1196.31 361.03C1196.43 360.39 1196.55 359.75 1196.68 359.11L1196.84 359.11L1196.84 358.29L1197.15 356.87L1197.37 356.87L1197.37 355.87L1197.67 354.62L1197.9 354.62L1197.9 353.69C1198.05 353.1 1198.19 352.51 1198.36 351.93L1198.43 351.93L1198.43 351.67C1198.6 351.04 1198.78 350.42 1198.96 349.8C1197.94 349.92 1196.93 350.03 1195.92 350.13L1194.73 350.13L1194.73 350.25C1193.4 350.37 1192.06 350.48 1190.75 350.58L1189.43 350.58L1189.43 350.67C1185.87 350.9 1182.31 351.02 1178.78 351.03L1177 351.03C1173.54 351 1170.1 350.88 1166.68 350.65L1166.68 350.58L1165.78 350.58C1164.49 350.49 1163.21 350.38 1161.92 350.25L1161.92 350.13L1160.62 350.13C1158.22 349.88 1155.82 349.59 1153.46 349.24L1153.38 349.23C1152.52 349.11 1151.67 348.97 1150.81 348.83L1150.81 348.78L1150.5 348.78C1149.72 348.66 1148.93 348.52 1148.17 348.38L1148.17 348.33L1147.9 348.33C1147.1 348.19 1146.31 348.05 1145.52 347.89L1145.48 347.88C1144.07 347.61 1142.68 347.32 1141.29 347.01L1141.29 346.99L1141.18 346.99C1139.98 346.72 1138.78 346.44 1137.57 346.15L1137.57 346.09L1137.32 346.09L1136 345.76L1136 345.64L1135.55 345.64L1133.88 345.2L1133.84 345.19L1132.29 344.76L1132.29 344.74L1132.21 344.74L1130.69 344.31L1130.69 344.29L1130.64 344.29C1129.24 343.88 1127.85 343.46 1126.47 343.02L1126.47 342.94L1126.23 342.94L1124.88 342.5L1124.87 342.49L1123.82 342.15L1123.82 342.04L1123.51 342.04L1122.24 341.6L1121.18 341.23L1121.18 341.15L1120.94 341.15C1120.14 340.86 1119.34 340.56 1118.54 340.25C1115.67 339.17 1112.84 338.01 1110.06 336.78L1110.06 336.66L1109.78 336.66L1109.01 336.31L1109.01 336.21L1108.78 336.21L1107.94 335.83L1107.94 335.76L1107.79 335.76L1106.9 335.33L1106.9 335.31L1106.84 335.31C1105.61 334.73 1104.4 334.14 1103.18 333.53L1103.18 333.51L1103.15 333.51C1102.63 333.25 1102.12 332.99 1101.6 332.73L1101.6 332.61L1101.39 332.61L1100.55 332.17C1100.02 331.89 1099.48 331.61 1098.96 331.33L1098.96 331.26L1098.84 331.26C1098.35 331 1097.86 330.72 1097.37 330.45L1097.37 330.37L1097.22 330.37C1096.74 330.1 1096.26 329.83 1095.78 329.56L1095.78 329.47L1095.63 329.47C1094.62 328.88 1093.61 328.29 1092.61 327.68L1092.59 327.67C1091.89 327.25 1091.18 326.82 1090.49 326.38L1090.49 326.32L1090.4 326.32C1089.72 325.9 1089.05 325.46 1088.38 325.03L1088.38 324.98L1088.3 324.98L1087.85 324.68L1087.85 324.53L1087.62 324.53C1086.99 324.11 1086.36 323.69 1085.73 323.26L1085.73 323.18L1085.61 323.18C1083.3 321.6 1081.05 319.95 1078.85 318.25L1078.85 318.24L1078.84 318.24L1078.31 317.84L1078.31 317.79L1078.26 317.79L1077.79 317.43L1077.79 317.34L1077.68 317.34L1077.27 317.01L1077.27 316.89L1077.11 316.89L1076.74 316.59L1076.74 316.44L1076.56 316.44C1074.44 314.74 1072.38 312.98 1070.39 311.16L1070.39 311.05L1070.26 311.05L1069.86 310.68L1069.86 310.6L1069.78 310.6L1069.32 310.18L1069.32 310.15L1069.3 310.15C1068.23 309.17 1067.18 308.16 1066.15 307.14L1066.15 307.01L1066.02 307.01L1065.62 306.62L1065.62 306.56L1065.56 306.56C1064.68 305.68 1063.82 304.79 1062.98 303.89L1062.98 303.87L1062.96 303.87C1062.43 303.31 1061.91 302.75 1061.39 302.18L1061.39 302.07L1061.29 302.07C1060.79 301.51 1060.3 300.95 1059.81 300.39L1059.81 300.27L1059.69 300.27C1059.19 299.7 1058.71 299.12 1058.22 298.54L1058.22 298.48L1058.16 298.48C1057.82 298.08 1057.49 297.68 1057.16 297.28L1057.16 297.13L1057.04 297.13C1055.62 295.39 1054.25 293.62 1052.93 291.81L1052.93 291.74L1052.87 291.74L1052.4 291.08L1052.4 290.84L1052.22 290.84L1051.34 289.59L1051.34 289.49L1051.27 289.49L1050.81 288.82L1050.81 288.59L1050.65 288.59C1050.35 288.15 1050.05 287.71 1049.75 287.26L1049.75 287.25L1049.22 286.45L1049.22 286.35L1049.16 286.35C1047.68 284.1 1046.3 281.81 1044.99 279.47L1044.99 279.16L1044.81 279.16L1044.46 278.49L1044.46 278.26L1044.34 278.26L1043.93 277.51L1043.93 277.37L1043.85 277.37L1043.4 276.52L1043.4 276.47L1043.37 276.47C1042.84 275.44 1042.31 274.39 1041.81 273.35L1041.81 273.32C1041.46 272.59 1041.1 271.85 1040.76 271.11L1040.76 271.08C1040.57 270.69 1040.4 270.3 1040.23 269.91L1040.23 269.73L1040.15 269.73L1039.69 268.71L1039.69 268.38L1039.55 268.38C1039.24 267.64 1038.93 266.9 1038.64 266.15L1038.64 266.14L1038.11 264.8C1037.55 263.36 1037.02 261.89 1036.52 260.42L1036.52 260.3L1036.48 260.3C1036.31 259.8 1036.16 259.3 1035.99 258.81L1035.99 258.5L1035.9 258.5L1035.47 257.13L1035.47 256.7L1035.32 256.7C1035.18 256.24 1035.06 255.78 1034.93 255.32L1034.93 254.91L1034.81 254.91L1034.41 253.43L1034.41 253.11L1034.32 253.11C1034.17 252.53 1034.03 251.94 1033.88 251.35L1033.88 251.31L1033.71 250.69C1033.57 250.17 1033.47 249.65 1033.35 249.14L1033.35 249.07C1033.17 248.26 1032.98 247.46 1032.81 246.65L1032.81 246.37L1032.77 246.37C1032.6 245.52 1032.43 244.67 1032.29 243.82L1032.29 243.23L1032.18 243.23C1031.79 240.83 1031.47 238.44 1031.23 236.05L1031.23 234.69L1031.11 234.69C1030.56 228.34 1030.59 222.04 1031.17 215.83L1031.23 215.83L1031.23 215.15C1031.36 213.88 1031.51 212.61 1031.68 211.34L1031.76 211.34L1031.76 210.75C1032.03 208.84 1032.35 206.94 1032.73 205.05L1032.81 205.05L1032.81 204.59C1032.97 203.84 1033.13 203.1 1033.29 202.35L1033.35 202.35L1033.35 202.12C1033.5 201.45 1033.66 200.78 1033.81 200.11L1033.88 200.11L1033.88 199.89C1034.05 199.21 1034.22 198.54 1034.4 197.86C1034.56 197.27 1034.73 196.66 1034.9 196.07L1034.93 196.07L1034.93 195.96C1035.1 195.39 1035.27 194.83 1035.43 194.27L1035.46 194.27L1035.46 194.18C1035.78 193.16 1036.11 192.14 1036.44 191.13L1036.52 191.13L1036.52 190.92C1036.86 189.93 1037.21 188.96 1037.56 187.98L1037.57 187.96L1038.09 186.63L1038.11 186.63L1038.11 186.57L1038.62 185.29L1038.64 185.29L1038.64 185.23C1039.12 184.04 1039.62 182.86 1040.14 181.69L1040.23 181.69L1040.23 181.49L1040.74 180.35L1040.76 180.32C1041.1 179.58 1041.44 178.84 1041.8 178.1L1041.81 178.08C1042.31 177.03 1042.85 175.99 1043.39 174.96L1043.4 174.93L1043.86 174.06L1043.93 174.06L1043.93 173.93L1044.35 173.16L1044.46 173.16L1044.46 172.95C1045.29 171.43 1046.16 169.93 1047.06 168.44C1046.72 168.23 1046.38 168.01 1046.05 167.79L1046.05 167.77L1046.01 167.77L1045.52 167.44L1045.52 167.32L1045.34 167.32C1044.31 166.61 1043.31 165.87 1042.34 165.1L1042.34 165.07L1042.31 165.07L1041.81 164.67L1041.81 164.63L1041.77 164.63L1041.29 164.22L1041.29 164.18L1041.23 164.18L1040.76 163.76L1040.76 163.73L1040.72 163.73L1040.23 163.29C1039.5 162.63 1038.79 161.94 1038.11 161.24L1038.11 161.03L1037.92 161.03L1037.57 160.68L1037.57 160.58L1037.49 160.58C1036.98 160.03 1036.48 159.46 1035.99 158.88L1035.99 158.79L1035.92 158.79C1035.19 157.92 1034.52 157.02 1033.88 156.1L1033.88 156.09C1033.69 155.84 1033.52 155.58 1033.35 155.33L1033.35 155.19L1033.26 155.19L1032.81 154.51L1032.81 154.29L1032.68 154.29L1032.29 153.64L1032.29 153.39L1032.14 153.39L1031.76 152.73L1031.76 152.5L1031.63 152.5L1031.23 151.75L1031.23 151.6L1031.15 151.6C1030.81 150.93 1030.48 150.25 1030.17 149.55L1030.17 149.35L1030.09 149.35C1029.93 149 1029.79 148.65 1029.64 148.3L1029.64 148L1029.53 148C1029.39 147.64 1029.25 147.27 1029.12 146.9L1029.12 146.66L1029.03 146.66C1028.87 146.21 1028.73 145.76 1028.59 145.3L1028.59 144.86L1028.46 144.86C1028.29 144.29 1028.13 143.71 1027.99 143.13C1027.81 142.37 1027.66 141.62 1027.53 140.86L1027.53 139.47L1027.31 139.47C1027.09 137.82 1026.99 136.17 1027 134.53L1027 134.52C1027.01 133.01 1027.12 131.52 1027.31 130.04L1027.53 130.04L1027.53 128.66C1027.77 127.31 1028.07 125.97 1028.47 124.65L1028.59 124.65L1028.59 124.26C1028.68 123.94 1028.79 123.62 1028.9 123.3L1029.12 123.3L1029.12 122.67C1029.26 122.28 1029.4 121.89 1029.56 121.51L1029.64 121.51L1029.64 121.29C1029.8 120.91 1029.96 120.53 1030.12 120.16L1030.17 120.16L1030.17 120.04C1030.49 119.32 1030.82 118.61 1031.19 117.91L1031.23 117.91L1031.23 117.85L1031.68 117.01L1031.76 117.01L1031.76 116.87L1032.19 116.12L1032.29 116.12L1032.29 115.96L1032.74 115.22L1032.81 115.22L1032.81 115.09C1032.98 114.83 1033.15 114.58 1033.31 114.32L1033.35 114.32L1033.35 114.28C1033.85 113.53 1034.37 112.79 1034.92 112.07L1034.93 112.06C1035.28 111.61 1035.63 111.16 1035.99 110.72L1036.37 110.28L1036.52 110.28L1036.52 110.1C1036.86 109.7 1037.22 109.31 1037.56 108.93L1037.99 108.48L1038.11 108.48L1038.11 108.36L1038.43 108.03L1038.64 108.03L1038.64 107.81C1040.31 106.12 1042.17 104.54 1044.15 103.09L1044.46 103.09L1044.46 102.87L1044.78 102.64L1044.99 102.64L1044.99 102.49L1045.42 102.19L1045.52 102.19L1045.52 102.12C1046.17 101.68 1046.82 101.26 1047.51 100.84L1047.64 100.84L1047.64 100.77C1048.63 100.16 1049.66 99.59 1050.71 99.05L1050.81 99.05L1050.81 99L1051.6 98.6L1051.87 98.6L1051.87 98.47L1052.54 98.15L1052.93 98.15L1052.93 97.97L1053.53 97.7L1053.98 97.7L1053.98 97.51C1055.35 96.92 1056.75 96.38 1058.18 95.9L1058.22 95.9C1058.68 95.75 1059.15 95.59 1059.61 95.45L1059.81 95.45L1059.81 95.4C1060.26 95.26 1060.72 95.13 1061.17 95L1061.92 95L1061.92 94.81L1062.93 94.55L1063.51 94.55L1063.51 94.42C1064 94.31 1064.5 94.21 1064.99 94.11L1065.1 94.11L1065.1 94.08C1065.53 94 1065.97 93.92 1066.41 93.84L1067.54 93.66L1068.27 93.66L1068.27 93.55C1069.29 93.41 1070.3 93.3 1071.31 93.21L1074.09 93.21L1074.09 93.04C1075.87 92.97 1077.64 92.98 1079.38 93.08L1079.38 93.21L1081.19 93.21C1082.18 93.29 1083.17 93.4 1084.14 93.54L1084.14 93.66L1084.96 93.66C1085.75 93.78 1086.54 93.92 1087.31 94.07L1087.31 94.11L1087.49 94.11C1087.97 94.2 1088.43 94.3 1088.91 94.41L1088.91 94.55L1089.53 94.55L1090.49 94.79L1090.49 95L1091.28 95C1091.73 95.13 1092.17 95.25 1092.61 95.39L1092.61 95.45L1092.82 95.45C1093.29 95.59 1093.75 95.74 1094.19 95.89L1094.23 95.9C1096.04 96.51 1097.79 97.2 1099.49 97.97L1099.49 98.15L1099.87 98.15L1100.55 98.47L1100.55 98.6L1100.81 98.6L1101.6 99L1101.6 99.05L1101.69 99.05C1102.21 99.3 1102.69 99.57 1103.18 99.84L1103.18 99.95L1103.37 99.95C1103.76 100.16 1104.13 100.38 1104.51 100.6C1104.52 99.78 1104.56 98.96 1104.65 98.15L1104.78 98.15L1104.78 97.09C1104.9 96.24 1105.06 95.39 1105.26 94.55L1105.31 94.55L1105.31 94.37C1105.43 93.83 1105.59 93.29 1105.76 92.76L1105.84 92.76L1105.84 92.51C1106.26 91.21 1106.77 89.95 1107.37 88.72L1107.43 88.72L1107.43 88.61C1107.56 88.34 1107.68 88.08 1107.82 87.82L1107.94 87.82L1107.94 87.58C1108.85 85.94 1109.9 84.36 1111.1 82.88L1111.13 82.88L1111.13 82.84C1113.16 80.34 1115.61 78.08 1118.41 76.14L1118.54 76.14L1118.54 76.05C1119.17 75.61 1119.82 75.19 1120.51 74.79L1120.65 74.79L1120.65 74.7C1122 73.91 1123.41 73.19 1124.88 72.55C1126.47 71.85 1128.13 71.25 1129.85 70.75L1130.18 70.75L1130.18 70.66C1130.62 70.53 1131.06 70.41 1131.52 70.3L1131.76 70.3L1131.76 70.24C1132.68 70.02 1133.63 69.82 1134.59 69.65C1135.14 69.56 1135.68 69.47 1136.23 69.4L1138.11 69.4L1138.11 69.2C1140.02 69.04 1141.9 69 1143.77 69.07C1143.97 68.58 1144.18 68.09 1144.39 67.61L1144.46 67.61L1144.46 67.45C1144.77 66.75 1145.1 66.05 1145.43 65.36L1145.52 65.36L1145.52 65.17C1146.01 64.18 1146.53 63.19 1147.07 62.21L1147.11 62.21L1147.11 62.15C1147.43 61.57 1147.77 60.99 1148.12 60.42L1148.17 60.42L1148.17 60.34L1148.67 59.52L1148.69 59.52L1148.69 59.48C1149.16 58.74 1149.64 58 1150.14 57.27L1150.28 57.27L1150.28 57.07L1150.77 56.38L1150.81 56.38L1150.81 56.31C1151.78 54.96 1152.8 53.63 1153.88 52.33L1153.99 52.33L1153.99 52.2C1154.32 51.79 1154.67 51.39 1155.02 50.99L1155.05 50.99L1155.05 50.96L1155.42 50.54L1155.57 50.54L1155.57 50.36C1156.06 49.81 1156.56 49.27 1157.06 48.74L1157.16 48.74L1157.16 48.65C1158.01 47.76 1158.89 46.9 1159.79 46.04L1159.81 46.04L1159.81 46.03L1160.27 45.6L1160.34 45.6L1160.34 45.53L1160.76 45.15L1160.86 45.15L1160.86 45.05L1161.26 44.7L1161.39 44.7L1161.39 44.58L1161.77 44.25L1161.92 44.25L1161.92 44.11L1162.29 43.8L1162.44 43.8L1162.44 43.66L1162.81 43.35L1162.98 43.35L1162.98 43.21L1163.35 42.9L1163.51 42.9L1163.51 42.77L1163.9 42.45L1164.04 42.45L1164.04 42.34L1164.46 42L1164.56 42L1164.56 41.92L1165.03 41.55L1165.1 41.55L1165.1 41.5L1165.61 41.1C1166.41 40.49 1167.24 39.89 1168.06 39.31L1168.27 39.31L1168.27 39.16L1168.71 38.86L1168.8 38.86L1168.8 38.8C1169.43 38.36 1170.07 37.93 1170.74 37.51L1170.92 37.51L1170.92 37.4L1171.43 37.06C1172.93 36.12 1174.49 35.22 1176.07 34.37L1176.21 34.37L1176.21 34.3C1176.73 34.02 1177.26 33.74 1177.8 33.47L1178.69 33.02L1178.86 33.02L1178.86 32.94C1181.13 31.83 1183.49 30.8 1185.92 29.87L1186.26 29.87L1186.26 29.74L1187.12 29.43L1187.31 29.43L1187.31 29.35C1188.11 29.07 1188.91 28.79 1189.71 28.53L1189.97 28.53L1189.97 28.45C1191.92 27.81 1193.91 27.24 1195.94 26.73L1196.31 26.73L1196.31 26.64C1196.81 26.52 1197.32 26.4 1197.84 26.28L1198.43 26.28L1198.43 26.15C1198.93 26.04 1199.43 25.93 1199.93 25.83L1200.02 25.83L1200.02 25.81C1200.85 25.65 1201.68 25.49 1202.52 25.35C1203.39 25.2 1204.26 25.06 1205.14 24.93L1205.84 24.93L1205.84 24.84C1206.81 24.7 1207.8 24.59 1208.77 24.49L1209.01 24.49L1209.01 24.46C1211.17 24.24 1213.32 24.1 1215.47 24.04L1219.06 24.04L1219.06 24C1219.6 24 1220.12 24.01 1220.65 24.02Z" fill="#FFFFFF" fill-opacity="1.000000" fill-rule="evenodd"/>
	</g>
</svg>
