<svg width="297" height="45" viewBox="0 0 297 45" fill="none" xmlns="http://www.w3.org/2000/svg">
<g filter="url(#filter0_d_4090_2234)">
<path d="M281.651 35.5277C280.322 35.5277 279.099 35.2947 277.981 34.8287C276.886 34.3627 275.931 33.722 275.115 32.9066V34.9685H269.873V1.41846H275.954V15.3277C276.723 14.722 277.585 14.256 278.54 13.9298C279.495 13.6036 280.532 13.4406 281.651 13.4406C283.608 13.4406 285.378 13.9415 286.963 14.9433C288.547 15.9219 289.805 17.2499 290.737 18.9274C291.692 20.6049 292.17 22.4571 292.17 24.4841C292.17 26.5111 291.692 28.3633 290.737 30.0408C289.805 31.695 288.547 33.0231 286.963 34.0249C285.378 35.0267 283.608 35.5277 281.651 35.5277ZM280.952 30.1806C281.977 30.1806 282.909 29.9243 283.747 29.4118C284.586 28.8992 285.25 28.2119 285.739 27.3498C286.252 26.4878 286.508 25.5325 286.508 24.4841C286.508 23.4357 286.252 22.4804 285.739 21.6184C285.25 20.7563 284.586 20.069 283.747 19.5564C282.909 19.0439 281.977 18.7876 280.952 18.7876C279.926 18.7876 278.994 19.0439 278.156 19.5564C277.317 20.069 276.641 20.7563 276.129 21.6184C275.639 22.4804 275.395 23.4357 275.395 24.4841C275.395 25.5325 275.639 26.4878 276.129 27.3498C276.641 28.2119 277.317 28.8992 278.156 29.4118C278.994 29.9243 279.926 30.1806 280.952 30.1806Z" fill="#BBEC33"/>
<path d="M256.611 35.668C254.258 35.668 252.185 35.1787 250.391 34.2001C248.597 33.2216 247.199 31.8819 246.197 30.1811C245.195 28.457 244.694 26.4883 244.694 24.2749C244.694 22.1548 245.183 20.2792 246.162 18.6483C247.14 16.9941 248.457 15.6894 250.111 14.7341C251.789 13.7789 253.641 13.3013 255.668 13.3013C257.741 13.3013 259.594 13.7789 261.224 14.7341C262.855 15.6661 264.137 16.9475 265.069 18.5784C266.024 20.2093 266.502 22.0616 266.502 24.1351V26.267H253.711C253.128 26.267 252.569 26.232 252.033 26.1621C251.497 26.0922 250.961 26.0107 250.426 25.9175C250.705 27.3154 251.392 28.457 252.487 29.3424C253.606 30.2044 255.027 30.6355 256.751 30.6355C258.079 30.6355 259.267 30.3675 260.316 29.8316C261.388 29.2958 262.261 28.6318 262.937 27.8396L264.265 33.2915C263.217 34.0837 262.028 34.6778 260.7 35.0738C259.396 35.4699 258.033 35.668 256.611 35.668ZM250.286 22.2479C251.451 21.9917 252.592 21.8635 253.711 21.8635H257.415C258.068 21.8635 258.685 21.8868 259.267 21.9334C259.85 21.98 260.397 22.0616 260.91 22.1781C260.56 20.9199 259.92 19.9297 258.988 19.2075C258.079 18.4852 256.949 18.1241 255.598 18.1241C254.316 18.1241 253.198 18.4969 252.243 19.2424C251.311 19.9647 250.659 20.9665 250.286 22.2479Z" fill="#BBEC33"/>
<path d="M220.185 36.0174L209.735 14.0002H216.27L219.486 20.7452C219.789 21.3277 220.091 21.9684 220.394 22.6673C220.697 23.343 221 24.1118 221.303 24.9739C221.629 24.1584 221.944 23.4478 222.247 22.8421C222.573 22.213 222.887 21.6072 223.19 21.0248L227.139 13.3013L231.228 21.0248C231.508 21.5373 231.799 22.1082 232.102 22.7372C232.428 23.3663 232.743 24.1118 233.046 24.9739C233.348 24.0419 233.64 23.2498 233.919 22.5974C234.222 21.9451 234.513 21.3277 234.793 20.7452L238.008 14.0002H244.264L233.814 36.0174L229.027 27.9445C228.654 27.3387 228.304 26.7213 227.978 26.0922C227.652 25.4632 227.326 24.7991 227 24.1002C226.697 24.7991 226.37 25.4632 226.021 26.0922C225.695 26.7213 225.345 27.3387 224.973 27.9445L220.185 36.0174Z" fill="#BBEC33"/>
<path d="M21.0256 2.0293L38.0478 33.9432H28.7214L27.1724 30.8061H14.833L13.2873 33.9432H4L21.0256 2.0293ZM21.0256 18.3425L17.9276 24.5743H24.0777L21.0256 18.3425Z" fill="white"/>
<path d="M48.9232 1.44434V33.9432H41.3124V1.44434H48.9232Z" fill="white"/>
<path d="M63.73 11.6924C66.1264 11.6924 68.037 12.3198 69.4618 13.5747V12.1532H76.6511V33.9432H69.4618V32.5217C68.0414 33.7766 66.1308 34.404 63.73 34.404C60.6342 34.404 58.0973 33.3583 56.1191 31.2669C54.1933 29.1493 53.2303 26.4163 53.2303 23.0678C53.2303 19.7193 54.1933 16.9874 56.1191 14.872C58.0711 12.7523 60.6081 11.6924 63.73 11.6924ZM65.0371 18.2281C64.4723 18.2055 63.9097 18.3114 63.3918 18.5379C62.8738 18.7643 62.414 19.1053 62.047 19.5352C61.3085 20.4067 60.9392 21.5918 60.9392 23.0907C60.9392 24.5895 61.3052 25.7605 62.0372 26.6036C62.4166 27.0026 62.8725 27.3211 63.3776 27.54C63.8828 27.7589 64.4269 27.8737 64.9775 27.8777C65.528 27.8817 66.0737 27.7746 66.582 27.563C67.0902 27.3514 67.5506 27.0396 67.9357 26.6461C68.6929 25.757 69.0842 24.6135 69.0305 23.4469V22.6495C69.0805 21.4812 68.6845 20.3375 67.9226 19.4503C67.5587 19.0467 67.1111 18.7273 66.611 18.5145C66.111 18.3018 65.5705 18.2007 65.0273 18.2183L65.0371 18.2281Z" fill="white"/>
<path d="M91.9545 11.9829C97.2528 11.9829 101.003 14.1724 103.206 18.5513L96.8465 21.6885C95.8182 19.4315 94.1592 18.303 91.8695 18.303C91.2465 18.2822 90.6258 18.3906 90.0466 18.6211C89.4674 18.8517 88.942 19.1995 88.5036 19.6428C87.6322 20.5338 87.1965 21.719 87.1965 23.1982C87.171 23.8382 87.2735 24.4768 87.498 25.0766C87.7224 25.6765 88.0643 26.2255 88.5036 26.6915C88.9323 27.1372 89.4494 27.4883 90.0217 27.7224C90.594 27.9565 91.209 28.0684 91.8271 28.051C94.0884 28.051 95.7616 26.9214 96.8465 24.6622L103.206 27.8418C100.781 32.199 97.0306 34.3776 91.9545 34.3776C88.3838 34.3776 85.4133 33.3188 83.0431 31.2012C81.8937 30.2047 80.9789 28.9664 80.3642 27.5749C79.7495 26.1834 79.4502 24.6732 79.4876 23.1525C79.4557 21.6411 79.7579 20.1413 80.3725 18.7602C80.9871 17.379 81.8989 16.1506 83.0431 15.1625C85.4155 13.045 88.386 11.9851 91.9545 11.9829Z" fill="white"/>
<path d="M121.454 18.6758H116.767L116.741 24.7835C116.723 25.1656 116.788 25.5472 116.934 25.9013C117.079 26.2553 117.3 26.5732 117.581 26.8324C118.156 27.3429 118.904 27.6132 119.673 27.5873C120.276 27.5908 120.878 27.5349 121.47 27.4206V34.1524C120.249 34.3134 119.019 34.3974 117.787 34.4041C115.029 34.4041 112.89 33.7505 111.369 32.4433C109.848 31.1362 109.097 29.255 109.114 26.7997L109.157 18.6824H105.235V12.1467H109.209L109.225 5.12402H116.839L116.797 12.1532H121.44L121.454 18.6758Z" fill="white"/>
<path d="M133.165 12.1528V33.9429H125.564V12.1528H133.165Z" fill="white"/>
<path d="M149.269 11.6924C152.755 11.6924 155.599 12.7523 157.802 14.872C160.004 16.9918 161.106 19.7237 161.106 23.0678C161.106 26.4424 160.004 29.1754 157.802 31.2669C155.599 33.3583 152.755 34.404 149.269 34.404C145.838 34.404 143.006 33.3583 140.773 31.2669C138.54 29.1754 137.44 26.4424 137.473 23.0678C137.473 19.6954 138.574 16.9634 140.776 14.872C142.979 12.7806 145.81 11.7207 149.269 11.6924ZM149.269 18.2281C148.704 18.2057 148.141 18.3117 147.623 18.5381C147.104 18.7645 146.644 19.1054 146.276 19.5352C145.538 20.4067 145.168 21.5918 145.168 23.0907C145.168 24.5895 145.538 25.7681 146.276 26.6265C146.648 27.0489 147.11 27.3826 147.628 27.6031C148.146 27.8237 148.707 27.9254 149.269 27.901C149.838 27.9283 150.406 27.8281 150.93 27.6075C151.455 27.387 151.924 27.0518 152.302 26.6265C153.041 25.7769 153.41 24.5983 153.41 23.0907C153.41 21.5831 153.041 20.3903 152.302 19.5124C151.927 19.0819 151.459 18.7418 150.934 18.5177C150.409 18.2936 149.84 18.1912 149.269 18.2183V18.2281Z" fill="white"/>
<path d="M177.922 11.6924C180.536 11.6924 182.606 12.4549 184.131 13.9799C185.656 15.5049 186.419 17.6312 186.419 20.3587V33.953H178.798V22.1888C178.798 19.9274 177.85 18.7978 175.955 18.8C175.548 18.7799 175.142 18.85 174.766 19.0054C174.39 19.1608 174.052 19.3975 173.778 19.6986C173.249 20.2934 172.984 21.1354 172.984 22.2247V33.9367H165.374V12.1532H172.563V13.6564C173.624 12.347 175.41 11.6924 177.922 11.6924Z" fill="white"/>
<path d="M199.379 11.6924C202.196 11.6924 204.412 12.3263 206.029 13.5943C207.645 14.8622 208.538 16.6127 208.705 18.8457L201.094 19.264C201.149 17.7826 200.577 17.043 199.379 17.0451C198.317 17.0451 197.787 17.4798 197.787 18.3523C197.787 18.8555 198.095 19.2455 198.709 19.5222C199.487 19.8259 200.284 20.0781 201.094 20.2771L201.552 20.4012C204.147 21.1267 206.016 21.9491 207.16 22.8685C208.303 23.7878 208.874 25.1124 208.872 26.8422C208.872 29.1841 208.05 31.0359 206.405 32.3975C204.76 33.7592 202.459 34.4356 199.503 34.4269C193.481 34.4269 190.26 32.0424 189.84 27.2735L197.497 26.8553C197.442 28.3367 198.111 29.0763 199.503 29.0741C200.647 29.0741 201.219 28.6003 201.219 27.6526C201.215 27.4411 201.155 27.2343 201.045 27.0539C200.935 26.8734 200.778 26.7258 200.591 26.6265C199.797 26.2202 198.953 25.9182 198.082 25.7278C195.249 25.0024 193.228 24.2072 192.016 23.3423C190.805 22.4774 190.192 20.9862 190.177 18.8686C190.177 16.6661 190.999 14.9232 192.644 13.64C194.289 12.3568 196.534 11.7076 199.379 11.6924Z" fill="white"/>
<path d="M129.358 0.983504C129.943 0.973724 130.524 1.08477 131.063 1.3097C131.603 1.53462 132.091 1.86858 132.496 2.29065C132.916 2.70184 133.248 3.19382 133.472 3.73692C133.697 4.28001 133.809 4.86298 133.803 5.45067C133.81 6.03509 133.698 6.61489 133.474 7.1544C133.249 7.69391 132.916 8.18172 132.496 8.58782C131.662 9.41637 130.534 9.8814 129.358 9.8814C128.183 9.8814 127.055 9.41637 126.221 8.58782C125.8 8.18208 125.467 7.69433 125.243 7.15474C125.018 6.61515 124.906 6.03517 124.914 5.45067C124.904 4.86595 125.015 4.28551 125.24 3.74569C125.465 3.20587 125.799 2.71831 126.221 2.31352C126.626 1.88965 127.113 1.55301 127.652 1.32428C128.192 1.09556 128.772 0.979591 129.358 0.983504Z" fill="#BBEC33"/>
</g>
<defs>
<filter id="filter0_d_4090_2234" x="0" y="0.98291" width="296.17" height="43.0347" filterUnits="userSpaceOnUse" color-interpolation-filters="sRGB">
<feFlood flood-opacity="0" result="BackgroundImageFix"/>
<feColorMatrix in="SourceAlpha" type="matrix" values="0 0 0 0 0 0 0 0 0 0 0 0 0 0 0 0 0 0 127 0" result="hardAlpha"/>
<feOffset dy="4"/>
<feGaussianBlur stdDeviation="2"/>
<feComposite in2="hardAlpha" operator="out"/>
<feColorMatrix type="matrix" values="0 0 0 0 0 0 0 0 0 0 0 0 0 0 0 0 0 0 0.25 0"/>
<feBlend mode="normal" in2="BackgroundImageFix" result="effect1_dropShadow_4090_2234"/>
<feBlend mode="normal" in="SourceGraphic" in2="effect1_dropShadow_4090_2234" result="shape"/>
</filter>
</defs>
</svg>
