<svg width="48.384766" height="47.991028" viewBox="0 0 48.3848 47.991" fill="none" xmlns="http://www.w3.org/2000/svg" xmlns:xlink="http://www.w3.org/1999/xlink">
	<desc>
			Created with Pixso.
	</desc>
	<defs/>
	<path id="path4" d="M26.81 0.04C26.71 0.06 26.49 0.09 26.32 0.09C25.62 0.11 23.38 0.67 22.56 1.02C22.49 1.05 22.28 1.14 22.1 1.21C21.61 1.4 20.32 2 20.12 2.15C20.02 2.21 19.87 2.28 19.77 2.3C19.67 2.33 19.59 2.38 19.59 2.4C19.59 2.43 19.54 2.47 19.48 2.5C19.41 2.52 19.27 2.59 19.16 2.67C19.05 2.74 18.89 2.82 18.8 2.86C18.72 2.9 18.55 3 18.43 3.09C18.31 3.19 18.19 3.26 18.17 3.26C18.01 3.26 15.86 4.8 15.26 5.34C14.76 5.78 13.85 6.74 13.85 6.82C13.85 6.84 13.79 6.93 13.71 7.01C13.5 7.24 12.9 8.17 12.73 8.52C12.66 8.68 12.51 8.97 12.42 9.17C12.09 9.83 11.96 10.55 11.99 11.38C12.03 12.2 12.22 12.63 12.78 13.2C13.38 13.78 14.01 14.04 15.01 14.09C15.7 14.12 16.2 14.07 16.89 13.88C17.11 13.82 17.4 13.75 17.54 13.71C17.68 13.68 17.84 13.62 17.91 13.59C18.06 13.51 18.92 13.12 18.96 13.12C19.08 13.12 20.49 12.28 21.8 11.42C22.66 10.86 23.41 10.36 23.48 10.33C23.54 10.29 23.95 10.05 24.38 9.8C24.81 9.55 25.35 9.24 25.57 9.13C25.79 9.02 26.1 8.86 26.27 8.77C26.44 8.69 26.75 8.55 26.97 8.47C27.19 8.38 27.47 8.27 27.57 8.22C27.69 8.18 27.85 8.11 27.94 8.07C28.2 7.96 28.79 7.86 29.36 7.82C30.61 7.74 31.48 8.28 31.92 9.41C32.03 9.68 32.05 9.9 32.05 10.69C32.05 11.65 31.96 12.18 31.7 12.8C31.65 12.92 31.58 13.1 31.54 13.19C31.2 13.98 30.51 15.11 29.73 16.14C28.98 17.12 27.37 18.76 26.3 19.62C25.94 19.93 25.53 20.25 25.4 20.36C25.12 20.59 24.79 20.82 24.43 21.06C24.29 21.15 24.05 21.31 23.9 21.41C23.49 21.69 22.38 22.27 21.76 22.53C21.58 22.61 21.33 22.71 21.21 22.77C21.1 22.82 20.95 22.86 20.87 22.86C20.81 22.86 20.65 22.89 20.53 22.93C20.1 23.08 19.66 22.79 19.66 22.35C19.66 21.81 19.92 21.47 21.56 19.87C23.34 18.13 23.53 17.87 23.53 17.22C23.53 16.54 23.21 16.08 22.47 15.71C22.15 15.55 22.03 15.53 21.47 15.53C20.81 15.53 20.43 15.62 19.96 15.9C19.85 15.97 19.68 16.05 19.59 16.1C19.5 16.14 19.41 16.2 19.39 16.22C19.37 16.24 19.24 16.33 19.09 16.45C18.74 16.71 18.11 17.33 17.76 17.79C17.51 18.1 17.33 18.4 16.91 19.18C16.56 19.82 16.25 21.02 16.25 21.72C16.25 23.13 17 24.26 18.15 24.58C18.5 24.68 19.92 24.68 20.41 24.59C20.89 24.49 22.14 24.11 22.22 24.04C22.26 24 22.33 23.98 22.38 23.98C22.56 23.98 24.54 22.98 25.22 22.55C25.38 22.45 25.55 22.34 25.62 22.3C25.68 22.27 25.99 22.08 26.32 21.88C26.64 21.68 26.92 21.5 26.94 21.48C26.96 21.45 27.19 21.29 27.44 21.12C27.7 20.94 28 20.74 28.11 20.66C28.22 20.58 28.54 20.35 28.81 20.13C30.55 18.77 32.08 17.31 32.98 16.18C33.13 16.01 33.26 15.84 33.28 15.82C33.33 15.78 33.79 15.14 34.1 14.65C34.24 14.45 34.46 14.09 34.58 13.85C34.7 13.61 34.88 13.29 34.96 13.12C35.05 12.96 35.24 12.53 35.38 12.17C35.52 11.81 35.66 11.45 35.69 11.38C35.88 10.91 36.16 9.71 36.29 8.85C36.43 7.88 36.33 6.28 36.05 5.4C35.94 5.03 35.91 4.97 35.66 4.44C35.13 3.31 34.27 2.28 33.29 1.61C33.16 1.52 32.99 1.4 32.92 1.32C32.68 1.11 31.46 0.57 30.74 0.37C30.36 0.26 29.79 0.14 29.48 0.09C28.76 0 27.03 -0.04 26.81 0.04Z" fill="#FF0000" fill-opacity="1.000000" fill-rule="nonzero"/>
	<path id="path4" d="M26.32 0.09C25.62 0.11 23.38 0.67 22.56 1.02C22.49 1.05 22.28 1.14 22.1 1.21C21.61 1.4 20.32 2 20.12 2.15C20.02 2.21 19.87 2.28 19.77 2.3C19.67 2.33 19.59 2.38 19.59 2.4C19.59 2.43 19.54 2.47 19.48 2.5C19.41 2.52 19.27 2.59 19.16 2.67C19.05 2.74 18.89 2.82 18.8 2.86C18.72 2.9 18.55 3 18.43 3.09C18.31 3.19 18.19 3.26 18.17 3.26C18.01 3.26 15.86 4.8 15.26 5.34C14.76 5.78 13.85 6.74 13.85 6.82C13.85 6.84 13.79 6.93 13.71 7.01C13.5 7.24 12.9 8.17 12.73 8.52C12.66 8.68 12.51 8.97 12.42 9.17C12.09 9.83 11.96 10.55 11.99 11.38C12.03 12.2 12.22 12.63 12.78 13.2C13.38 13.78 14.01 14.04 15.01 14.09C15.7 14.12 16.2 14.07 16.89 13.88C17.11 13.82 17.4 13.75 17.54 13.71C17.68 13.68 17.84 13.62 17.91 13.59C18.06 13.51 18.92 13.12 18.96 13.12C19.08 13.12 20.49 12.28 21.8 11.42C22.66 10.86 23.41 10.36 23.48 10.33C23.54 10.29 23.95 10.05 24.38 9.8C24.81 9.55 25.35 9.24 25.57 9.13C25.79 9.02 26.1 8.86 26.27 8.77C26.44 8.69 26.75 8.55 26.97 8.47C27.19 8.38 27.47 8.27 27.57 8.22C27.69 8.18 27.85 8.11 27.94 8.07C28.2 7.96 28.79 7.86 29.36 7.82C30.61 7.74 31.48 8.28 31.92 9.41C32.03 9.68 32.05 9.9 32.05 10.69C32.05 11.65 31.96 12.18 31.7 12.8C31.65 12.92 31.58 13.1 31.54 13.19C31.2 13.98 30.51 15.11 29.73 16.14C28.98 17.12 27.37 18.76 26.3 19.62C25.94 19.93 25.53 20.25 25.4 20.36C25.12 20.59 24.79 20.82 24.43 21.06C24.29 21.15 24.05 21.31 23.9 21.41C23.49 21.69 22.38 22.27 21.76 22.53C21.58 22.61 21.33 22.71 21.21 22.77C21.1 22.82 20.95 22.86 20.87 22.86C20.81 22.86 20.65 22.89 20.53 22.93C20.1 23.08 19.66 22.79 19.66 22.35C19.66 21.81 19.92 21.47 21.56 19.87C23.34 18.13 23.53 17.87 23.53 17.22C23.53 16.54 23.21 16.08 22.47 15.71C22.15 15.55 22.03 15.53 21.47 15.53C20.81 15.53 20.43 15.62 19.96 15.9C19.85 15.97 19.68 16.05 19.59 16.1C19.5 16.14 19.41 16.2 19.39 16.22C19.37 16.24 19.24 16.33 19.09 16.45C18.74 16.71 18.11 17.33 17.76 17.79C17.51 18.1 17.33 18.4 16.91 19.18C16.56 19.82 16.25 21.02 16.25 21.72C16.25 23.13 17 24.26 18.15 24.58C18.5 24.68 19.92 24.68 20.41 24.59C20.89 24.49 22.14 24.11 22.22 24.04C22.26 24 22.33 23.98 22.38 23.98C22.56 23.98 24.54 22.98 25.22 22.55C25.38 22.45 25.55 22.34 25.62 22.3C25.68 22.27 25.99 22.08 26.32 21.88C26.64 21.68 26.92 21.5 26.94 21.48C26.96 21.45 27.19 21.29 27.44 21.12C27.7 20.94 28 20.74 28.11 20.66C28.22 20.58 28.54 20.35 28.81 20.13C30.55 18.77 32.08 17.31 32.98 16.18C33.13 16.01 33.26 15.84 33.28 15.82C33.33 15.78 33.79 15.14 34.1 14.65C34.24 14.45 34.46 14.09 34.58 13.85C34.7 13.61 34.88 13.29 34.96 13.12C35.05 12.96 35.24 12.53 35.38 12.17C35.52 11.81 35.66 11.45 35.69 11.38C35.88 10.91 36.16 9.71 36.29 8.85C36.43 7.88 36.33 6.28 36.05 5.4C35.94 5.03 35.91 4.97 35.66 4.44C35.13 3.31 34.27 2.28 33.29 1.61C33.16 1.52 32.99 1.4 32.92 1.32C32.68 1.11 31.46 0.57 30.74 0.37C30.36 0.26 29.79 0.14 29.48 0.09C28.76 0 27.03 -0.04 26.81 0.04C26.71 0.06 26.49 0.09 26.32 0.09Z" stroke="#000000" stroke-opacity="0" stroke-width="0.133333"/>
	<path id="path8" d="M46.17 32.56C46.15 32.57 45.85 32.63 45.48 32.69C45.11 32.75 44.51 32.84 44.14 32.91L43.47 33.02L43.47 39.07C43.47 45.64 43.46 45.37 43.85 46.19C43.99 46.47 44.18 46.72 44.46 46.97C45.17 47.61 45.83 47.81 47.24 47.82C48.44 47.82 48.4 47.86 48.37 46.77L48.35 45.98L47.84 45.93C46.92 45.86 46.48 45.49 46.38 44.74C46.35 44.52 46.33 41.7 46.34 38.49C46.35 32.94 46.33 32.4 46.17 32.56Z" fill="#FF0000" fill-opacity="1.000000" fill-rule="nonzero"/>
	<path id="path8" d="M45.48 32.69C45.11 32.75 44.51 32.84 44.14 32.91L43.47 33.02L43.47 39.07C43.47 45.64 43.46 45.37 43.85 46.19C43.99 46.47 44.18 46.72 44.46 46.97C45.17 47.61 45.83 47.81 47.24 47.82C48.44 47.82 48.4 47.86 48.37 46.77L48.35 45.98L47.84 45.93C46.92 45.86 46.48 45.49 46.38 44.74C46.35 44.52 46.33 41.7 46.34 38.49C46.35 32.94 46.33 32.4 46.17 32.56C46.15 32.57 45.85 32.63 45.48 32.69Z" stroke="#000000" stroke-opacity="0" stroke-width="0.133333"/>
	<path id="path10" d="M27.67 32.69C26.19 32.91 25.7 33 25.64 33.07C25.59 33.13 25.58 35.23 25.6 39.24C25.64 44.84 25.65 45.35 25.76 45.62C26.01 46.26 26.14 46.48 26.49 46.82C27.19 47.51 28.08 47.79 29.55 47.79C30.37 47.79 30.48 47.78 30.53 47.67C30.6 47.55 30.63 46.4 30.58 46.14C30.54 45.97 30.51 45.97 30.01 45.93C29.38 45.89 29 45.68 28.74 45.22L28.58 44.93L28.56 41.52C28.54 38.98 28.56 38.09 28.62 38.01C28.68 37.94 28.9 37.92 29.62 37.92C30.72 37.92 30.63 38.03 30.6 36.77L30.58 35.92L29.64 35.88C29.13 35.86 28.67 35.82 28.63 35.8C28.56 35.76 28.54 35.36 28.54 34.17L28.54 32.59L28.4 32.6C28.31 32.61 27.99 32.65 27.67 32.69Z" fill="#FF0000" fill-opacity="1.000000" fill-rule="nonzero"/>
	<path id="path10" d="M25.64 33.07C25.59 33.13 25.58 35.23 25.6 39.24C25.64 44.84 25.65 45.35 25.76 45.62C26.01 46.26 26.14 46.48 26.49 46.82C27.19 47.51 28.08 47.79 29.55 47.79C30.37 47.79 30.48 47.78 30.53 47.67C30.6 47.55 30.63 46.4 30.58 46.14C30.54 45.97 30.51 45.97 30.01 45.93C29.38 45.89 29 45.68 28.74 45.22L28.58 44.93L28.56 41.52C28.54 38.98 28.56 38.09 28.62 38.01C28.68 37.94 28.9 37.92 29.62 37.92C30.72 37.92 30.63 38.03 30.6 36.77L30.58 35.92L29.64 35.88C29.13 35.86 28.67 35.82 28.63 35.8C28.56 35.76 28.54 35.36 28.54 34.17L28.54 32.59L28.4 32.6C28.31 32.61 27.99 32.65 27.67 32.69C26.19 32.91 25.7 33 25.64 33.07Z" stroke="#000000" stroke-opacity="0" stroke-width="0.133333"/>
	<path id="path12" d="M4.53 35.66C4.03 35.71 2.82 35.99 2.46 36.15C2.38 36.18 2.25 36.23 2.15 36.25C1.86 36.33 0.89 36.81 0.89 36.88C0.89 36.91 0.95 37.06 1.01 37.22C1.45 38.17 1.62 38.51 1.65 38.51C1.67 38.51 1.74 38.49 1.81 38.46C2.15 38.28 2.56 38.12 2.89 38.02C3.09 37.96 3.33 37.88 3.42 37.85C3.8 37.72 4.79 37.65 5.25 37.73C6.16 37.87 6.5 38.28 6.55 39.34C6.58 39.93 6.58 39.94 6.42 39.98C6.34 40.01 5.72 40.03 5.06 40.03C3.47 40.03 2.98 40.12 1.95 40.61C1.07 41.03 0.42 41.83 0.1 42.86C-0.06 43.4 -0.04 44.42 0.14 44.96C0.75 46.75 2.17 47.8 4.17 47.9C5.98 48 7.84 47.47 9.04 46.52L9.47 46.17L9.49 42.69C9.51 38.66 9.5 38.52 9.01 37.53C8.79 37.09 8.05 36.38 7.59 36.18C7.37 36.08 7.14 35.98 7.06 35.95C6.56 35.73 5.29 35.59 4.53 35.66ZM6.5 42C6.54 42.05 6.56 42.84 6.56 43.78C6.56 45.65 6.59 45.53 6.1 45.79C5.91 45.89 5.7 45.91 5.05 45.91L4.25 45.91L3.91 45.69C3.73 45.57 3.52 45.37 3.44 45.26C2.95 44.55 2.98 43.28 3.5 42.66C3.66 42.47 4.25 42.07 4.35 42.07C4.42 42.07 4.49 42.04 4.53 42.01C4.63 41.91 4.93 41.88 5.72 41.9C6.28 41.9 6.45 41.92 6.5 42Z" fill="#FF0000" fill-opacity="1.000000" fill-rule="nonzero"/>
	<path id="path12" d="M2.46 36.15C2.38 36.18 2.25 36.23 2.15 36.25C1.86 36.33 0.89 36.81 0.89 36.88C0.89 36.91 0.95 37.06 1.01 37.22C1.45 38.17 1.62 38.51 1.65 38.51C1.67 38.51 1.74 38.49 1.81 38.46C2.15 38.28 2.56 38.12 2.89 38.02C3.09 37.96 3.33 37.88 3.42 37.85C3.8 37.72 4.79 37.65 5.25 37.73C6.16 37.87 6.5 38.28 6.55 39.34C6.58 39.93 6.58 39.94 6.42 39.98C6.34 40.01 5.72 40.03 5.06 40.03C3.47 40.03 2.98 40.12 1.95 40.61C1.07 41.03 0.42 41.83 0.1 42.86C-0.06 43.4 -0.04 44.42 0.14 44.96C0.75 46.75 2.17 47.8 4.17 47.9C5.98 48 7.84 47.47 9.04 46.52L9.47 46.17L9.49 42.69C9.51 38.66 9.5 38.52 9.01 37.53C8.79 37.09 8.05 36.38 7.59 36.18C7.37 36.08 7.14 35.98 7.06 35.95C6.56 35.73 5.29 35.59 4.53 35.66C4.03 35.71 2.82 35.99 2.46 36.15ZM6.56 43.78C6.56 45.65 6.59 45.53 6.1 45.79C5.91 45.89 5.7 45.91 5.05 45.91L4.25 45.91L3.91 45.69C3.73 45.57 3.52 45.37 3.44 45.26C2.95 44.55 2.98 43.28 3.5 42.66C3.66 42.47 4.25 42.07 4.35 42.07C4.42 42.07 4.49 42.04 4.53 42.01C4.63 41.91 4.93 41.88 5.72 41.9C6.28 41.9 6.45 41.92 6.5 42C6.54 42.05 6.56 42.84 6.56 43.78Z" stroke="#000000" stroke-opacity="0" stroke-width="0.133333"/>
	<path id="path14" d="M21.19 35.82C19.86 36.13 18.8 36.69 17.73 37.65L17.45 37.9L17.45 42.7C17.45 45.34 17.45 47.55 17.45 47.61C17.45 47.72 17.55 47.72 18.91 47.71L20.36 47.69L20.38 43.11L20.39 38.53L20.65 38.33C20.95 38.09 21.09 38.02 21.48 37.89C21.94 37.74 22.66 37.67 23.21 37.73C23.47 37.75 23.73 37.76 23.77 37.74C23.81 37.73 23.93 37.51 24.04 37.24C24.14 36.98 24.3 36.64 24.38 36.48C24.6 36.07 24.58 35.96 24.29 35.9C24.15 35.86 23.89 35.8 23.71 35.76C23.24 35.65 21.79 35.68 21.19 35.82Z" fill="#FF0000" fill-opacity="1.000000" fill-rule="nonzero"/>
	<path id="path14" d="M17.73 37.65L17.45 37.9L17.45 42.7C17.45 45.34 17.45 47.55 17.45 47.61C17.45 47.72 17.55 47.72 18.91 47.71L20.36 47.69L20.38 43.11L20.39 38.53L20.65 38.33C20.95 38.09 21.09 38.02 21.48 37.89C21.94 37.74 22.66 37.67 23.21 37.73C23.47 37.75 23.73 37.76 23.77 37.74C23.81 37.73 23.93 37.51 24.04 37.24C24.14 36.98 24.3 36.64 24.38 36.48C24.6 36.07 24.58 35.96 24.29 35.9C24.15 35.86 23.89 35.8 23.71 35.76C23.24 35.65 21.79 35.68 21.19 35.82C19.86 36.13 18.8 36.69 17.73 37.65Z" stroke="#000000" stroke-opacity="0" stroke-width="0.133333"/>
	<path id="path16" d="M35.72 35.83C35.5 35.86 35.3 35.92 35.26 35.96C35.22 35.99 35.16 36.01 35.1 36.01C35.05 36.01 34.81 36.11 34.58 36.23C34.06 36.48 33.27 37.19 32.94 37.73C32.64 38.19 32.3 38.89 32.25 39.14C32.22 39.24 32.18 39.4 32.15 39.47C32.12 39.54 32.04 39.82 31.98 40.09C31.8 40.8 31.8 43.08 31.97 43.74C32.13 44.36 32.49 45.29 32.56 45.29C32.59 45.29 32.62 45.32 32.62 45.36C32.62 45.61 33.41 46.6 33.97 47.05C34.22 47.25 34.78 47.53 35.19 47.67C35.64 47.82 36.63 47.99 37.07 47.99C38.02 47.99 39.73 47.58 40.29 47.23C40.43 47.15 40.61 47.06 40.7 47.03C40.9 46.97 41.34 46.7 41.4 46.61C41.46 46.52 40.71 45.03 40.61 45.03C40.56 45.03 40.44 45.09 40.35 45.16C40.25 45.23 40.14 45.29 40.09 45.29C40.04 45.29 39.94 45.33 39.87 45.38C39.79 45.43 39.45 45.57 39.1 45.68C38.5 45.89 38.4 45.9 37.53 45.91C36.7 45.91 36.56 45.89 36.29 45.77C35.36 45.33 34.82 44.22 34.82 42.72C34.82 42.4 34.83 42.13 34.84 42.12C34.85 42.11 36.33 42.09 38.13 42.07L41.4 42.03L41.38 41.38C41.34 40.09 41 38.35 40.69 37.96C40.67 37.92 40.57 37.75 40.49 37.59C40.13 36.88 39.37 36.28 38.46 35.98C37.8 35.76 36.59 35.69 35.72 35.83ZM37.16 37.92C37.44 37.99 38.03 38.46 38.03 38.61C38.03 38.65 38.08 38.76 38.13 38.86C38.28 39.16 38.4 40.13 38.3 40.26C38.23 40.34 37.97 40.36 36.62 40.36L35.02 40.36L34.98 40.19C34.9 39.86 35.13 38.96 35.4 38.61C35.69 38.22 35.95 38.02 36.34 37.91C36.55 37.85 36.76 37.81 36.81 37.82C36.85 37.84 37.01 37.88 37.16 37.92Z" fill="#FF0000" fill-opacity="1.000000" fill-rule="nonzero"/>
	<path id="path16" d="M35.26 35.96C35.22 35.99 35.16 36.01 35.1 36.01C35.05 36.01 34.81 36.11 34.58 36.23C34.06 36.48 33.27 37.19 32.94 37.73C32.64 38.19 32.3 38.89 32.25 39.14C32.22 39.24 32.18 39.4 32.15 39.47C32.12 39.54 32.04 39.82 31.98 40.09C31.8 40.8 31.8 43.08 31.97 43.74C32.13 44.36 32.49 45.29 32.56 45.29C32.59 45.29 32.62 45.32 32.62 45.36C32.62 45.61 33.41 46.6 33.97 47.05C34.22 47.25 34.78 47.53 35.19 47.67C35.64 47.82 36.63 47.99 37.07 47.99C38.02 47.99 39.73 47.58 40.29 47.23C40.43 47.15 40.61 47.06 40.7 47.03C40.9 46.97 41.34 46.7 41.4 46.61C41.46 46.52 40.71 45.03 40.61 45.03C40.56 45.03 40.44 45.09 40.35 45.16C40.25 45.23 40.14 45.29 40.09 45.29C40.04 45.29 39.94 45.33 39.87 45.38C39.79 45.43 39.45 45.57 39.1 45.68C38.5 45.89 38.4 45.9 37.53 45.91C36.7 45.91 36.56 45.89 36.29 45.77C35.36 45.33 34.82 44.22 34.82 42.72C34.82 42.4 34.83 42.13 34.84 42.12C34.85 42.11 36.33 42.09 38.13 42.07L41.4 42.03L41.38 41.38C41.34 40.09 41 38.35 40.69 37.96C40.67 37.92 40.57 37.75 40.49 37.59C40.13 36.88 39.37 36.28 38.46 35.98C37.8 35.76 36.59 35.69 35.72 35.83C35.5 35.86 35.3 35.92 35.26 35.96ZM38.03 38.61C38.03 38.65 38.08 38.76 38.13 38.86C38.28 39.16 38.4 40.13 38.3 40.26C38.23 40.34 37.97 40.36 36.62 40.36L35.02 40.36L34.98 40.19C34.9 39.86 35.13 38.96 35.4 38.61C35.69 38.22 35.95 38.02 36.34 37.91C36.55 37.85 36.76 37.81 36.81 37.82C36.85 37.84 37.01 37.88 37.16 37.92C37.44 37.99 38.03 38.46 38.03 38.61Z" stroke="#000000" stroke-opacity="0" stroke-width="0.133333"/>
	<path id="path6" d="M12.71 31.2C12.2 31.46 12.05 31.58 11.83 31.9C11.61 32.23 11.61 32.25 11.61 32.92L11.61 33.62L11.86 33.96C12.16 34.36 12.36 34.51 12.8 34.66C13.4 34.85 13.91 34.78 14.51 34.41C15.22 33.96 15.47 32.82 15.03 31.98C14.88 31.68 14.75 31.54 14.35 31.29C13.99 31.06 13.07 31.01 12.71 31.2Z" fill="#FF0000" fill-opacity="1.000000" fill-rule="nonzero"/>
	<path id="path6" d="M11.83 31.9C11.61 32.23 11.61 32.25 11.61 32.92L11.61 33.62L11.86 33.96C12.16 34.36 12.36 34.51 12.8 34.66C13.4 34.85 13.91 34.78 14.51 34.41C15.22 33.96 15.47 32.82 15.03 31.98C14.88 31.68 14.75 31.54 14.35 31.29C13.99 31.06 13.07 31.01 12.71 31.2C12.2 31.46 12.05 31.58 11.83 31.9Z" stroke="#000000" stroke-opacity="0" stroke-width="0.133333"/>
	<path id="path18" d="M14.35 35.95C14.24 35.98 13.94 36.04 13.68 36.07C13.43 36.11 12.96 36.17 12.64 36.22C12.33 36.26 12.06 36.32 12.02 36.34C11.96 36.39 11.96 47.57 12.01 47.66C12.04 47.7 12.63 47.72 13.41 47.72C14.77 47.72 14.78 47.72 14.81 47.57C14.83 47.49 14.84 44.84 14.83 41.67C14.81 35.97 14.81 35.92 14.68 35.9C14.61 35.9 14.46 35.92 14.35 35.95Z" fill="#FF0000" fill-opacity="1.000000" fill-rule="nonzero"/>
	<path id="path18" d="M13.68 36.07C13.43 36.11 12.96 36.17 12.64 36.22C12.33 36.26 12.06 36.32 12.02 36.34C11.96 36.39 11.96 47.57 12.01 47.66C12.04 47.7 12.63 47.72 13.41 47.72C14.77 47.72 14.78 47.72 14.81 47.57C14.83 47.49 14.84 44.84 14.83 41.67C14.81 35.97 14.81 35.92 14.68 35.9C14.61 35.9 14.46 35.92 14.35 35.95C14.24 35.98 13.94 36.04 13.68 36.07Z" stroke="#000000" stroke-opacity="0" stroke-width="0.133333"/>
</svg>
