<svg width="135.116699" height="35.000000" viewBox="0 0 135.117 35" fill="none" xmlns="http://www.w3.org/2000/svg" xmlns:xlink="http://www.w3.org/1999/xlink">
	<desc>
			Created with Pixso.
	</desc>
	<defs>
		<clipPath id="clip58_14952">
			<rect id="Axis_Bank_logo" width="135.116669" height="35.000000" fill="white" fill-opacity="0"/>
		</clipPath>
	</defs>
	<g clip-path="url(#clip58_14952)">
		<path id="path5" d="M19.22 1.46C21.09 4.67 22.98 7.87 24.83 11.08C21.84 16.35 18.89 21.63 15.79 26.84C14.6 28.84 13.45 30.85 12.27 32.86C8.47 32.88 4.66 32.88 0.85 32.87C0.97 32.61 1.08 32.35 1.22 32.1C7.22 21.89 13.24 11.69 19.22 1.46Z" fill="#AE285D" fill-opacity="1.000000" fill-rule="nonzero"/>
		<path id="path7" d="M102.07 9.34C104.18 13.25 106.28 17.16 108.38 21.07C107.64 21.09 106.9 21.05 106.16 21.07C105.66 20.21 105.23 19.31 104.74 18.45C102.87 18.39 101 18.43 99.13 18.43C98.68 19.32 98.19 20.19 97.71 21.06C96.98 21.06 96.25 21.08 95.52 21.07C97.67 17.15 99.83 13.22 102.07 9.34ZM100.07 16.75C101.34 16.77 102.62 16.77 103.9 16.78C103.26 15.6 102.68 14.38 102 13.22C101.34 14.39 100.7 15.57 100.07 16.75Z" fill="#AE285D" fill-opacity="1.000000" fill-rule="nonzero"/>
		<path id="path9" d="M109.61 9.3C112.79 12.05 115.96 14.8 119.1 17.6C119.19 15.08 119.09 12.55 119.17 10.03C119.85 10.04 120.53 10.05 121.21 10.06C121.19 13.95 121.2 17.84 121.19 21.73C119.11 20 117.1 18.17 115.04 16.41C113.89 15.43 112.76 14.44 111.66 13.41C111.63 15.97 111.67 18.53 111.62 21.08C110.94 21.09 110.27 21.07 109.59 21.07C109.6 17.15 109.56 13.22 109.61 9.3Z" fill="#AE285D" fill-opacity="1.000000" fill-rule="nonzero"/>
		<path id="path11" d="M42.44 21.06C44.64 17.15 46.77 13.22 49.02 9.34C51.11 13.25 53.22 17.16 55.33 21.06C54.58 21.08 53.83 21.08 53.08 21.06C52.62 20.19 52.15 19.32 51.71 18.44C49.84 18.41 47.96 18.43 46.09 18.43C45.6 19.31 45.15 20.22 44.63 21.08C43.9 21.06 43.17 21.08 42.44 21.06ZM47 16.77C48.28 16.76 49.56 16.78 50.85 16.77C50.2 15.6 49.63 14.38 48.94 13.22C48.29 14.4 47.64 15.58 47 16.77Z" fill="#AE285D" fill-opacity="1.000000" fill-rule="nonzero"/>
		<path id="path13" d="M73.69 10.35C74.76 9.83 76.02 9.76 77.18 9.99C78.18 10.2 78.99 10.91 79.6 11.7C79.06 11.98 78.52 12.26 77.98 12.55C77.26 11.42 75.54 11.07 74.5 11.94C73.94 12.34 73.99 13.31 74.61 13.61C76.02 14.39 77.73 14.55 78.97 15.62C80.24 16.69 80.19 18.84 79.02 19.96C77.75 21.24 75.75 21.51 74.07 21.04C72.67 20.68 71.61 19.39 71.42 17.98C72.1 17.83 72.79 17.71 73.48 17.6C73.56 18.27 73.81 19 74.44 19.33C75.43 19.86 76.87 19.73 77.56 18.77C78.05 18.12 77.9 17.11 77.24 16.63C75.86 15.71 74.03 15.66 72.79 14.49C72.13 13.94 71.86 13.01 72.09 12.19C72.26 11.35 72.95 10.73 73.69 10.35Z" fill="#AE285D" fill-opacity="1.000000" fill-rule="nonzero"/>
		<path id="path15" d="M55.99 10.1C56.76 10 57.54 10.04 58.32 10.05C59.14 11.28 59.97 12.51 60.8 13.74C61.68 12.52 62.53 11.29 63.39 10.07C64.19 10.04 64.98 10.03 65.78 10.05C64.52 11.8 63.25 13.55 61.98 15.29C63.27 17.24 64.67 19.11 65.93 21.07C65.17 21.08 64.42 21.07 63.66 21.06C62.69 19.68 61.74 18.29 60.77 16.91C59.77 18.3 58.77 19.68 57.78 21.08C57.02 21.09 56.25 21.08 55.48 21.08C56.81 19.13 58.22 17.23 59.61 15.32C58.41 13.57 57.2 11.84 55.99 10.1Z" fill="#AE285D" fill-opacity="1.000000" fill-rule="nonzero"/>
		<path id="path17" d="M67.65 10.06C68.33 10.04 69.01 10.04 69.7 10.05C69.7 13.73 69.7 17.4 69.7 21.07C69 21.07 68.31 21.07 67.62 21.07C67.64 17.4 67.63 13.73 67.65 10.06Z" fill="#AE285D" fill-opacity="1.000000" fill-rule="nonzero"/>
		<path id="path19" d="M87.6 10.05C89.35 10.12 91.24 9.81 92.86 10.66C94.43 11.5 94.8 13.99 93.34 15.12C94.26 15.48 95.14 16.16 95.38 17.16C95.77 18.38 95.09 19.73 94.02 20.37C92.06 21.44 89.75 20.94 87.63 21.09C87.56 17.41 87.6 13.73 87.6 10.05ZM89.63 11.63C89.64 12.68 89.63 13.73 89.63 14.78C90.39 14.75 91.23 14.79 91.88 14.33C92.55 13.74 92.52 12.52 91.79 12C91.15 11.59 90.36 11.64 89.63 11.63ZM89.64 16.22C89.64 17.29 89.64 18.36 89.66 19.43C90.68 19.38 91.78 19.57 92.73 19.06C93.56 18.65 93.72 17.32 92.94 16.77C92 16.05 90.75 16.24 89.64 16.22Z" fill="#AE285D" fill-opacity="1.000000" fill-rule="nonzero"/>
		<path id="path21" d="M123.57 10.05C124.25 10.04 124.93 10.04 125.61 10.05C125.62 11.5 125.6 12.95 125.63 14.4C127.31 12.93 129.02 11.5 130.71 10.04C131.64 10.04 132.57 10.05 133.5 10.04C131.49 11.69 129.5 13.35 127.52 15.04C129.46 17.08 131.48 19.06 133.47 21.06C132.54 21.05 131.62 21.13 130.7 21.02C129.12 19.41 127.54 17.79 125.97 16.17C125.86 16.32 125.75 16.47 125.63 16.62C125.59 18.1 125.63 19.59 125.6 21.07C124.92 21.07 124.23 21.09 123.55 21.08C123.56 17.4 123.56 13.73 123.57 10.05Z" fill="#AE285D" fill-opacity="1.000000" fill-rule="nonzero"/>
		<path id="path23" d="M19.22 21.01C23.04 21 26.86 20.98 30.68 21.04C32.96 24.99 35.31 28.9 37.56 32.87C33.74 32.88 29.92 32.87 26.1 32.87C23.83 28.9 21.45 25 19.22 21.01Z" fill="#AE285D" fill-opacity="1.000000" fill-rule="nonzero"/>
	</g>
</svg>
