<svg width="126.880859" height="41.886475" viewBox="0 0 126.881 41.8865" fill="none" xmlns="http://www.w3.org/2000/svg" xmlns:xlink="http://www.w3.org/1999/xlink">
	<desc>
			Created with Pixso.
	</desc>
	<defs/>
	<path id="path" d="M54.29 22.04C54.29 28.06 49.59 32.5 43.82 32.5C38.05 32.5 33.35 28.06 33.35 22.04C33.35 15.97 38.05 11.57 43.82 11.57C49.59 11.57 54.29 15.97 54.29 22.04ZM49.71 22.04C49.71 18.27 46.98 15.7 43.82 15.7C40.66 15.7 37.94 18.27 37.94 22.04C37.94 25.77 40.66 28.38 43.82 28.38C46.98 28.38 49.71 25.76 49.71 22.04Z" fill="#EA4335" fill-opacity="1.000000" fill-rule="nonzero"/>
	<path id="path" d="M76.88 22.04C76.88 28.06 72.18 32.5 66.41 32.5C60.64 32.5 55.94 28.06 55.94 22.04C55.94 15.97 60.64 11.57 66.41 11.57C72.18 11.57 76.88 15.97 76.88 22.04ZM72.3 22.04C72.3 18.27 69.57 15.7 66.41 15.7C63.25 15.7 60.52 18.27 60.52 22.04C60.52 25.77 63.25 28.38 66.41 28.38C69.57 28.38 72.3 25.76 72.3 22.04Z" fill="#FBBC05" fill-opacity="1.000000" fill-rule="nonzero"/>
	<path id="path" d="M98.52 12.2L98.52 30.99C98.52 38.72 93.98 41.88 88.61 41.88C83.55 41.88 80.5 38.49 79.35 35.71L83.34 34.05C84.06 35.75 85.8 37.76 88.6 37.76C92.04 37.76 94.17 35.63 94.17 31.63L94.17 30.12L94.01 30.12C92.99 31.39 91.01 32.5 88.52 32.5C83.3 32.5 78.52 27.94 78.52 22.08C78.52 16.17 83.3 11.57 88.52 11.57C91 11.57 92.98 12.68 94.01 13.91L94.17 13.91L94.17 12.21L98.52 12.2ZM94.5 22.08C94.5 18.39 92.04 15.7 88.93 15.7C85.76 15.7 83.11 18.39 83.11 22.08C83.11 25.72 85.76 28.38 88.93 28.38C92.04 28.38 94.5 25.72 94.5 22.08Z" fill="#4285F4" fill-opacity="1.000000" fill-rule="nonzero"/>
	<path id="path" d="M105.7 1.19L105.7 31.86L101.23 31.86L101.23 1.19L105.7 1.19Z" fill="#34A853" fill-opacity="1.000000" fill-rule="nonzero"/>
	<path id="path" d="M123.12 25.48L126.68 27.86C125.53 29.56 122.76 32.5 117.98 32.5C112.05 32.5 107.63 27.9 107.63 22.03C107.63 15.81 112.09 11.57 117.47 11.57C122.89 11.57 125.53 15.89 126.4 18.22L126.88 19.41L112.92 25.21C113.99 27.31 115.65 28.38 117.98 28.38C120.32 28.38 121.93 27.23 123.12 25.48ZM112.17 21.72L121.5 17.83C120.98 16.53 119.44 15.62 117.62 15.62C115.3 15.62 112.05 17.68 112.17 21.72Z" fill="#EA4335" fill-opacity="1.000000" fill-rule="nonzero"/>
	<path id="path" d="M16.43 19.31L16.43 14.87L31.35 14.87C31.5 15.65 31.57 16.56 31.57 17.55C31.57 20.89 30.67 25.01 27.74 27.94C24.89 30.91 21.25 32.5 16.44 32.5C7.51 32.5 0 25.2 0 16.25C0 7.29 7.51 0 16.44 0C21.38 0 24.9 1.94 27.54 4.47L24.42 7.61C22.52 5.82 19.95 4.44 16.43 4.44C9.91 4.44 4.81 9.71 4.81 16.25C4.81 22.79 9.91 28.06 16.43 28.06C20.66 28.06 23.07 26.36 24.61 24.81C25.87 23.55 26.69 21.76 27.01 19.31L16.43 19.31Z" fill="#4285F4" fill-opacity="1.000000" fill-rule="nonzero"/>
</svg>
