<svg width="148.225098" height="27.000000" viewBox="0 0 148.225 27" fill="none" xmlns="http://www.w3.org/2000/svg" xmlns:xlink="http://www.w3.org/1999/xlink">
	<desc>
			Created with Pixso.
	</desc>
	<defs/>
	<mask id="mask58_14942" mask-type="alpha" maskUnits="userSpaceOnUse" x="0.000000" y="0.000000" width="148.225098" height="27.000000">
		<rect id="rect" width="148.225006" height="27.000000" fill="#000000" fill-opacity="1.000000"/>
	</mask>
	<g mask="url(#mask58_14942)">
		<path id="path" d="M20.62 0.3L20.62 26.62L14.91 26.62L14.91 15.6L5.67 15.6L5.67 26.62L-0.01 26.62L-0.01 0.3L5.67 0.3L5.67 10.75L14.91 10.75L14.91 0.3L20.62 0.3Z" fill="#0F5FDC" fill-opacity="1.000000" fill-rule="nonzero"/>
		<path id="path" d="M23.71 13.46C23.71 4.58 29.47 0 36.05 0C42.24 0 46.77 3.76 47.44 9.44L41.92 9.44C41.57 6.69 39.14 4.85 36.05 4.85C32.07 4.85 29.01 7.82 29.01 13.46C29.01 19.1 32.07 22.03 36.05 22.03C39.21 22.03 41.64 20.19 42.06 17.48L47.34 17.48C46.88 23.13 42.34 26.92 36.05 26.92C29.37 26.92 23.71 22.34 23.71 13.46Z" fill="#0F5FDC" fill-opacity="1.000000" fill-rule="nonzero"/>
		<path id="path" d="M75.82 5.22L68 5.22L68 0.37L89.32 0.37L89.32 5.22L81.49 5.22L81.49 26.69L75.82 26.69L75.82 5.22Z" fill="#0F5FDC" fill-opacity="1.000000" fill-rule="nonzero"/>
		<path id="path" d="M105.53 20.26C104.77 24.36 101.14 27 96.45 27C89.99 27 86.66 21.96 86.66 17.18C86.66 12.41 89.61 7.44 96.07 7.44C102.54 7.44 105.49 12.37 105.49 16.69C105.49 17.41 105.45 17.97 105.42 18.39L91.73 18.39C92.1 21.06 93.81 22.71 96.45 22.71C98.57 22.71 99.97 21.88 100.39 20.27L105.53 20.26ZM91.8 15.07L100.23 15.07C100.08 12.97 98.6 11.27 96.07 11.27C93.69 11.27 92.25 12.44 91.8 15.07Z" fill="#0F5FDC" fill-opacity="1.000000" fill-rule="nonzero"/>
		<path id="path" d="M107.97 17.21C107.97 11.69 111.91 7.43 117.81 7.43C122.8 7.43 126.77 10.44 127.11 14.84L121.81 14.84C121.51 13.15 119.89 11.91 117.96 11.91C115.12 11.91 113.46 14.13 113.46 17.21C113.46 20.3 115.16 22.48 118.04 22.48C119.97 22.48 121.51 21.31 121.89 19.62L127.26 19.62C126.69 23.83 122.76 26.99 117.81 26.99C111.91 26.99 107.97 22.75 107.97 17.21Z" fill="#0F5FDC" fill-opacity="1.000000" fill-rule="nonzero"/>
		<path id="path" d="M130.07 0.33L135.33 0.33L135.33 10.37C136.42 8.53 138.5 7.44 141.15 7.44C145.42 7.44 148.22 10.52 148.22 14.88L148.22 26.69L142.97 26.69L142.97 16.05C142.97 13.75 141.45 12.1 139.26 12.1C136.95 12.1 135.33 13.87 135.33 16.31L135.33 26.69L130.07 26.69L130.07 0.33Z" fill="#0F5FDC" fill-opacity="1.000000" fill-rule="nonzero"/>
		<path id="path" d="M56.45 21.74L56.45 0.3L50.78 0.3L50.78 21.58C50.78 24.86 52.55 26.62 55.84 26.62L67.96 26.62L67.96 21.74L56.45 21.74Z" fill="#0F5FDC" fill-opacity="1.000000" fill-rule="nonzero"/>
	</g>
</svg>
