<svg width="101.967285" height="39.361572" viewBox="0 0 101.967 39.3616" fill="none" xmlns="http://www.w3.org/2000/svg" xmlns:xlink="http://www.w3.org/1999/xlink">
	<desc>
			Created with Pixso.
	</desc>
	<defs/>
	<path id="path161" d="M0 4.02L0 0.1L3.91 0.1L3.91 28.48L3.91 28.57L3.91 32.4L0 32.4L0 28.53L0 4.02Z" fill="#3781C2" fill-opacity="1.000000" fill-rule="evenodd"/>
	<path id="path161" d="M0 0.1L3.91 0.1L3.91 28.48L3.91 28.57L3.91 32.4L0 32.4L0 28.53L0 4.02L0 0.1Z" stroke="#000000" stroke-opacity="0" stroke-width="3.206259"/>
	<path id="path163" d="M39.81 20.64C39.91 26.51 43.6 31.2 48.04 31.12C52.48 31.04 56 26.22 55.9 20.35C55.8 14.48 52.12 9.79 47.67 9.87C43.23 9.95 39.71 14.77 39.81 20.64ZM72.24 13.54C72.34 13.76 72.1 13.21 72.1 13.21L72.24 13.54ZM74.9 37.84C75.08 37.54 75.33 37.07 75.63 36.49L74.9 37.84ZM75.14 11.52C75.18 11.65 75.24 11.78 75.3 11.93L76.62 15.13L75.14 11.52ZM58.73 27.63C61.15 29.81 63.33 30.94 66.11 30.94C68.97 30.96 71.5 29.58 71.5 26.91C71.5 24.69 69.51 23.39 65.97 21.9C62.96 20.61 60.72 19.71 59.55 17.84C59.69 18.65 59.77 19.49 59.77 20.35C59.77 27.56 54.5 33.4 47.99 33.4C41.49 33.4 36.22 27.56 36.22 20.35C36.22 16 38.14 12.15 41.08 9.78L33.11 9.78L33.11 28.48L33.12 32.4L29.58 32.4L29.58 28.68C29.58 28.61 29.58 28.55 29.58 28.48L29.58 9.78L26.46 9.78L26.46 7.43L29.63 7.43C30.03 2.68 33 0 37.11 0C39.77 0 41.23 0.27 42.07 0.66L42.07 3.88C42.06 4.12 42.06 4.26 42.06 4.26C42.02 4.26 41.94 4.26 41.94 4.26C40.65 3.08 39.39 2.21 36.44 2.22C34.09 2.22 32.53 4.11 33.08 7.43L46.32 7.43C46.87 7.34 47.43 7.3 47.99 7.3C52.71 7.3 56.78 10.37 58.66 14.81C58.64 14.57 58.63 14.31 58.63 14.04C58.63 9.41 63.16 7.44 67.85 7.45C68.03 7.45 68.21 7.45 68.38 7.45C70.04 7.42 72.39 7.96 73.83 8.33L76.62 15.13L80.6 24.77L81.07 26.31L81.59 24.77L86.63 12.39C87.56 8.99 91.24 7.51 95.3 7.52C97.33 7.51 98.82 7.75 100.61 8.38L100.61 12.12C98.4 10.53 96.83 9.61 94.33 9.61C92.13 9.61 89.49 10.57 89.49 13.78C89.44 16.19 90.9 16.63 95.18 18.74C98.7 20.25 101.94 21.92 101.96 25.8C101.96 32.25 95.55 33.37 92.43 33.38C89.64 33.38 87.09 32.7 85.67 31.53L85.67 27.26L85.89 27.45C88.43 29.8 90.67 31.02 93.56 31.02C96.42 31.04 98.95 29.65 98.95 26.99C98.95 24.77 96.97 23.47 93.42 21.98C90.02 20.52 87.8 19.56 86.89 17.14C85.5 20.49 79.07 36.03 77.56 39.36L74.09 39.36L75.63 36.49C76.5 34.79 77.79 32.08 78.92 29.53L72.24 13.54C72.19 13.44 72.08 13.2 71.86 12.69C71.35 11.54 70.87 10.47 69.43 9.93C68.65 9.67 67.83 9.53 66.87 9.53C64.68 9.53 61.87 10.5 61.87 13.71C61.82 16.12 63.45 16.56 67.73 18.66C71.25 20.18 74.49 21.85 74.51 25.72C74.51 32.18 68.1 33.29 64.98 33.31C62.5 33.31 60.2 32.77 58.73 31.82L58.73 27.63Z" fill="#3781C2" fill-opacity="1.000000" fill-rule="evenodd"/>
	<path id="path163" d="M48.04 31.12C52.48 31.04 56 26.22 55.9 20.35C55.8 14.48 52.12 9.79 47.67 9.87C43.23 9.95 39.71 14.77 39.81 20.64C39.91 26.51 43.6 31.2 48.04 31.12ZM72.24 13.54C72.34 13.76 72.1 13.21 72.1 13.21L72.24 13.54L78.92 29.53C77.79 32.08 76.5 34.79 75.63 36.49C75.33 37.07 75.08 37.54 74.9 37.84L75.63 36.49M76.62 15.13L75.14 11.52C75.18 11.65 75.24 11.78 75.3 11.93L76.62 15.13L80.6 24.77L81.07 26.31L81.59 24.77L86.63 12.39C87.56 8.99 91.24 7.51 95.3 7.52C97.33 7.51 98.82 7.75 100.61 8.38L100.61 12.12C98.4 10.53 96.83 9.61 94.33 9.61C92.13 9.61 89.49 10.57 89.49 13.78C89.44 16.19 90.9 16.63 95.18 18.74C98.7 20.25 101.94 21.92 101.96 25.8C101.96 32.25 95.55 33.37 92.43 33.38C89.64 33.38 87.09 32.7 85.67 31.53L85.67 27.26L85.89 27.45C88.43 29.8 90.67 31.02 93.56 31.02C96.42 31.04 98.95 29.65 98.95 26.99C98.95 24.77 96.97 23.47 93.42 21.98C90.02 20.52 87.8 19.56 86.89 17.14C85.5 20.49 79.07 36.03 77.56 39.36L74.09 39.36L75.63 36.49M72.24 13.54C72.19 13.44 72.08 13.2 71.86 12.69C71.35 11.54 70.87 10.47 69.43 9.93C68.65 9.67 67.83 9.53 66.87 9.53C64.68 9.53 61.87 10.5 61.87 13.71C61.82 16.12 63.45 16.56 67.73 18.66C71.25 20.18 74.49 21.85 74.51 25.72C74.51 32.18 68.1 33.29 64.98 33.31C62.5 33.31 60.2 32.77 58.73 31.82L58.73 27.63C61.15 29.81 63.33 30.94 66.11 30.94C68.97 30.96 71.5 29.58 71.5 26.91C71.5 24.69 69.51 23.39 65.97 21.9C62.96 20.61 60.72 19.71 59.55 17.84C59.69 18.65 59.77 19.49 59.77 20.35C59.77 27.56 54.5 33.4 47.99 33.4C41.49 33.4 36.22 27.56 36.22 20.35C36.22 16 38.14 12.15 41.08 9.78L33.11 9.78L33.11 28.48L33.12 32.4L29.58 32.4L29.58 28.68C29.58 28.61 29.58 28.55 29.58 28.48L29.58 9.78L26.46 9.78L26.46 7.43L29.63 7.43C30.03 2.68 33 0 37.11 0C39.77 0 41.23 0.27 42.07 0.66L42.07 3.88C42.06 4.12 42.06 4.26 42.06 4.26C42.02 4.26 41.94 4.26 41.94 4.26C40.65 3.08 39.39 2.21 36.44 2.22C34.09 2.22 32.53 4.11 33.08 7.43L46.32 7.43C46.87 7.34 47.43 7.3 47.99 7.3C52.71 7.3 56.78 10.37 58.66 14.81C58.64 14.57 58.63 14.31 58.63 14.04C58.63 9.41 63.16 7.44 67.85 7.45C68.03 7.45 68.21 7.45 68.38 7.45C70.04 7.42 72.39 7.96 73.83 8.33L76.62 15.13" stroke="#000000" stroke-opacity="0" stroke-width="3.206259"/>
	<path id="path165" d="M11.22 7.67L11.26 10.49L11.26 10.68C11.3 10.57 11.4 10.46 11.46 10.39C12.9 8.86 14.71 7.34 19.02 7.34C23.15 7.34 25.82 10.82 25.92 13L25.93 28.48L25.93 32.4L22.39 32.4L22.39 27.78L22.39 14.61C22.39 11.88 19.98 9.91 17.02 9.91C14.57 9.91 11.42 12.1 11.31 14.32L11.31 28.48L11.31 28.59L11.31 32.4L7.78 32.4L7.78 10.92L7.78 7.67L11.22 7.67Z" fill="#3781C2" fill-opacity="1.000000" fill-rule="evenodd"/>
	<path id="path165" d="M11.26 10.49L11.26 10.68C11.3 10.57 11.4 10.46 11.46 10.39C12.9 8.86 14.71 7.34 19.02 7.34C23.15 7.34 25.82 10.82 25.92 13L25.93 28.48L25.93 32.4L22.39 32.4L22.39 27.78L22.39 14.61C22.39 11.88 19.98 9.91 17.02 9.91C14.57 9.91 11.42 12.1 11.31 14.32L11.31 28.48L11.31 28.59L11.31 32.4L7.78 32.4L7.78 10.92L7.78 7.67L11.22 7.67L11.26 10.49Z" stroke="#000000" stroke-opacity="0" stroke-width="3.206259"/>
</svg>
