<svg width="44.392578" height="45.313660" viewBox="0 0 44.3926 45.3137" fill="none" xmlns="http://www.w3.org/2000/svg" xmlns:xlink="http://www.w3.org/1999/xlink">
	<desc>
			Created with Pixso.
	</desc>
	<defs/>
	<path id="path6" d="M7.02 25.55C11.99 17.03 16.96 8.52 21.93 0C21.01 5.83 20.07 11.66 19.14 17.49C19.14 17.55 19.08 17.59 19.04 17.63C12.69 24.28 6.34 30.93 0 37.58C2.33 33.57 4.68 29.56 7.02 25.55Z" fill="#062F62" fill-opacity="1.000000" fill-rule="nonzero"/>
	<path id="path8" d="M22.43 0C29.75 12.53 37.07 25.06 44.39 37.59C41.47 34.55 38.56 31.49 35.64 28.45C32.18 24.82 28.72 21.2 25.25 17.57C25.22 17.53 25.22 17.46 25.21 17.41C24.28 11.6 23.36 5.8 22.43 0Z" fill="#062F62" fill-opacity="1.000000" fill-rule="nonzero"/>
	<path id="path10" d="M11.78 26.68C11.97 26.48 12.15 26.27 12.35 26.07C13.58 26.07 14.82 26.07 16.06 26.07C13.92 29.91 11.77 33.75 9.62 37.59C7.04 37.59 4.45 37.59 1.86 37.59C5.17 33.95 8.47 30.32 11.78 26.68Z" fill="#062F62" fill-opacity="1.000000" fill-rule="nonzero"/>
	<path id="path12" d="M17.29 26.07C19.45 26.07 21.61 26.07 23.77 26.07C23.96 27.35 24.15 28.63 24.34 29.9C23.63 29.9 22.91 29.9 22.2 29.9C22.2 32.46 22.2 35.03 22.2 37.59C19.93 37.59 17.67 37.59 15.41 37.59C15.74 36.48 16.08 35.39 16.41 34.28C16.86 32.83 17.3 31.38 17.75 29.93C17.02 29.93 16.29 29.93 15.55 29.93C16.13 28.64 16.71 27.36 17.29 26.07Z" fill="#062F62" fill-opacity="1.000000" fill-rule="nonzero"/>
	<path id="path14" d="M25.92 26.13C26.16 26.03 26.42 26.08 26.67 26.07C28.46 26.07 30.25 26.07 32.05 26.07C33.11 27.23 34.16 28.39 35.22 29.55C33.75 29.55 32.29 29.55 30.82 29.55C30.54 29.55 30.32 29.89 30.46 30.15C30.9 30.96 31.35 31.77 31.8 32.59C31.97 32.96 32.38 33.22 32.8 33.23C34.53 33.23 36.26 33.23 37.99 33.23C38.18 33.23 38.37 33.22 38.56 33.23C39.87 34.68 41.18 36.13 42.5 37.58C38.13 37.58 33.76 37.58 29.39 37.58C29.19 37.58 29 37.6 28.81 37.57C28.34 37.5 27.92 37.19 27.72 36.77C27.62 36.58 27.59 36.37 27.53 36.17C26.78 33.21 26.02 30.25 25.27 27.29C25.16 26.82 25.45 26.29 25.92 26.13Z" fill="#062F62" fill-opacity="1.000000" fill-rule="nonzero"/>
	<path id="path16" d="M11.46 40.87C11.86 40.53 12.4 40.32 12.93 40.38C13.26 40.4 13.58 40.53 13.84 40.73C13.93 40.79 14.04 40.86 14.14 40.8C14.27 40.69 14.23 40.5 14.35 40.4C14.39 40.42 14.44 40.43 14.43 40.49C14.44 41.02 14.44 41.55 14.46 42.09C14.46 42.16 14.46 42.24 14.43 42.31C14.39 42.3 14.34 42.29 14.33 42.25C14.24 41.99 14.17 41.73 14.04 41.49C13.94 41.28 13.82 41.07 13.66 40.89C13.47 40.69 13.21 40.54 12.93 40.51C12.56 40.48 12.15 40.58 11.92 40.89C11.76 41.1 11.7 41.37 11.64 41.63C11.57 42.03 11.55 42.44 11.53 42.85C11.53 43.36 11.53 43.88 11.72 44.36C11.83 44.63 12.01 44.88 12.27 45.01C12.56 45.16 12.9 45.14 13.21 45.08C13.57 45 13.9 44.78 14.09 44.47C14.27 44.17 14.33 43.81 14.35 43.47C14.41 43.45 14.48 43.46 14.54 43.47C14.55 43.51 14.57 43.54 14.57 43.58C14.54 43.83 14.5 44.08 14.41 44.32C14.25 44.76 13.83 45.09 13.37 45.19C13.05 45.27 12.7 45.31 12.37 45.23C11.98 45.14 11.63 44.94 11.32 44.69C11.22 44.6 11.12 44.51 11.05 44.39C10.93 44.19 10.8 43.99 10.71 43.77C10.48 43.2 10.48 42.54 10.72 41.96C10.88 41.55 11.13 41.17 11.46 40.87Z" fill="#062F62" fill-opacity="1.000000" fill-rule="nonzero"/>
	<path id="path18" d="M41.4 40.42C41.5 40.41 41.61 40.39 41.71 40.4C41.77 40.41 41.82 40.47 41.82 40.54C41.82 41.88 41.82 43.22 41.82 44.56C41.81 44.7 41.81 44.87 41.94 44.95C42.11 45.03 42.3 45.01 42.48 45.02C42.51 45.06 42.52 45.13 42.45 45.14C42.04 45.16 41.62 45.18 41.21 45.2C41.13 45.21 41.03 45.18 41.02 45.1C41 44.96 41.02 44.83 41.01 44.69C41 44.67 40.98 44.66 40.97 44.64C40.88 44.74 40.79 44.86 40.68 44.94C40.39 45.18 39.99 45.27 39.63 45.19C39.23 45.11 38.89 44.83 38.7 44.49C38.43 44.03 38.36 43.47 38.52 42.97C38.66 42.54 38.96 42.16 39.36 41.94C39.65 41.78 40.01 41.71 40.34 41.81C40.61 41.88 40.83 42.08 40.99 42.31C41.03 42.24 41.01 42.16 41.01 42.09C41 41.71 41.01 41.33 41.01 40.95C41.01 40.82 40.93 40.7 40.81 40.66C40.64 40.6 40.46 40.62 40.28 40.6C40.28 40.56 40.27 40.5 40.32 40.49C40.68 40.47 41.04 40.44 41.4 40.42ZM39.97 41.94C39.76 42 39.61 42.18 39.52 42.37C39.37 42.72 39.35 43.1 39.33 43.47C39.34 43.74 39.35 44 39.41 44.26C39.46 44.47 39.53 44.68 39.68 44.83C39.84 45 40.11 45.07 40.33 45.01C40.48 44.96 40.61 44.86 40.69 44.74C40.88 44.48 40.96 44.17 40.99 43.87C41.03 43.45 41.02 43.02 40.88 42.62C40.81 42.39 40.69 42.17 40.49 42.03C40.34 41.92 40.14 41.88 39.97 41.94Z" fill="#062F62" fill-opacity="1.000000" fill-rule="nonzero"/>
	<path id="path20" d="M22.43 40.46C22.69 40.39 22.99 40.58 23.01 40.84C23.06 41.11 22.83 41.37 22.56 41.36C22.32 41.37 22.1 41.18 22.08 40.95C22.06 40.73 22.21 40.52 22.43 40.46Z" fill="#062F62" fill-opacity="1.000000" fill-rule="nonzero"/>
	<path id="path22" d="M31.53 40.46C31.82 40.38 32.14 40.63 32.11 40.92C32.11 41.2 31.82 41.42 31.55 41.36C31.31 41.31 31.14 41.07 31.18 40.84C31.2 40.66 31.35 40.51 31.53 40.46Z" fill="#062F62" fill-opacity="1.000000" fill-rule="nonzero"/>
	<path id="path24" d="M33.6 40.54C33.61 40.45 33.77 40.45 33.77 40.54C33.78 40.94 33.77 41.34 33.77 41.74C33.76 41.79 33.82 41.85 33.88 41.84C34.16 41.85 34.45 41.84 34.74 41.85C34.83 41.85 34.84 41.98 34.77 42.01C34.48 42.01 34.19 42.01 33.91 42.01C33.82 42.01 33.77 42.09 33.77 42.17C33.77 42.98 33.78 43.8 33.77 44.61C33.77 44.76 33.83 44.94 33.97 45.01C34.18 45.11 34.47 45.06 34.61 44.87C34.77 44.68 34.81 44.42 34.81 44.18C34.8 44.13 34.83 44.09 34.85 44.06C34.89 44.06 34.94 44.05 34.97 44.09C35.01 44.14 34.98 44.2 34.98 44.26C34.96 44.56 34.87 44.87 34.64 45.09C34.48 45.24 34.26 45.3 34.05 45.31C33.79 45.31 33.53 45.28 33.3 45.15C33.09 45.03 32.94 44.8 32.95 44.56C32.95 43.78 32.95 43 32.95 42.22C32.94 42.16 32.95 42.07 32.89 42.03C32.81 42 32.72 42.02 32.63 42.01C32.54 42 32.43 42.04 32.35 41.98C32.34 41.92 32.36 41.84 32.43 41.85C32.84 41.88 33.21 41.62 33.39 41.28C33.5 41.05 33.56 40.79 33.6 40.54Z" fill="#062F62" fill-opacity="1.000000" fill-rule="nonzero"/>
	<path id="path26" d="M5.46 40.54C6.85 40.54 8.23 40.54 9.62 40.54C9.62 41.16 9.62 41.78 9.62 42.4C9.62 42.48 9.51 42.5 9.46 42.44C9.39 41.99 9.25 41.54 9 41.15C8.89 40.97 8.74 40.8 8.53 40.75C8.37 40.71 8.21 40.7 8.05 40.71C7.99 40.75 7.98 40.83 7.98 40.89C7.98 42.16 7.98 43.43 7.98 44.69C7.98 44.8 8.04 44.91 8.14 44.95C8.38 45.05 8.64 45.02 8.89 45.07C8.9 45.13 8.88 45.21 8.8 45.19C7.95 45.19 7.1 45.19 6.24 45.19C6.2 45.19 6.15 45.2 6.12 45.16C6.12 45.13 6.12 45.09 6.12 45.07C6.4 45.02 6.69 45.02 6.94 44.89C7.02 44.85 7.11 44.79 7.1 44.7C7.1 43.41 7.1 42.13 7.1 40.84C7.11 40.79 7.09 40.71 7.02 40.71C6.81 40.69 6.59 40.71 6.41 40.82C6.19 40.97 6.04 41.21 5.93 41.45C5.77 41.76 5.69 42.1 5.62 42.43C5.59 42.5 5.51 42.48 5.46 42.44C5.46 41.81 5.46 41.18 5.46 40.54Z" fill="#062F62" fill-opacity="1.000000" fill-rule="nonzero"/>
	<path id="path28" d="M1.88 40.68C1.87 40.63 1.87 40.56 1.94 40.56C2.72 40.56 3.5 40.56 4.28 40.56C4.35 40.56 4.34 40.63 4.34 40.68C4.12 40.73 3.89 40.71 3.68 40.81C3.6 40.85 3.54 40.94 3.55 41.03C3.55 42.26 3.55 43.49 3.55 44.72C3.54 44.83 3.63 44.92 3.73 44.96C3.91 45.02 4.11 45.03 4.3 45.05C4.34 45.06 4.35 45.11 4.33 45.15C4.3 45.2 4.24 45.19 4.19 45.19C3.45 45.19 2.71 45.19 1.97 45.19C1.9 45.2 1.86 45.14 1.88 45.08C1.93 45.03 2 45.05 2.06 45.04C2.21 45.02 2.36 45.01 2.51 44.95C2.6 44.91 2.67 44.82 2.66 44.72C2.66 43.49 2.66 42.26 2.66 41.03C2.67 40.92 2.6 40.83 2.5 40.79C2.3 40.72 2.08 40.73 1.88 40.68Z" fill="#062F62" fill-opacity="1.000000" fill-rule="nonzero"/>
	<path id="path30" d="M17.21 40.57C18.03 40.56 18.85 40.57 19.67 40.57C19.75 40.55 19.79 40.66 19.72 40.7C19.49 40.73 19.24 40.72 19.02 40.8C18.9 40.84 18.84 40.96 18.85 41.08C18.85 42.29 18.84 43.49 18.85 44.7C18.84 44.83 18.93 44.94 19.05 44.97C19.27 45.04 19.51 45.06 19.73 45.03C20.05 44.99 20.39 44.93 20.63 44.71C20.97 44.38 21.1 43.92 21.17 43.47C21.19 43.41 21.18 43.32 21.26 43.3C21.33 43.32 21.34 43.41 21.34 43.47C21.34 44.01 21.34 44.54 21.34 45.08C21.35 45.13 21.31 45.19 21.26 45.19C19.99 45.19 18.72 45.2 17.45 45.19C17.37 45.19 17.29 45.21 17.21 45.18C17.15 45.16 17.17 45.06 17.23 45.06C17.42 45.03 17.62 45.03 17.81 44.96C17.91 44.92 17.98 44.81 17.97 44.7C17.97 43.48 17.97 42.27 17.97 41.06C17.98 40.94 17.9 40.83 17.78 40.79C17.61 40.73 17.42 40.73 17.23 40.7C17.16 40.7 17.15 40.6 17.21 40.57Z" fill="#062F62" fill-opacity="1.000000" fill-rule="nonzero"/>
	<path id="path32" d="M25.85 41.99C26.02 41.87 26.23 41.79 26.45 41.78C26.7 41.77 26.97 41.81 27.18 41.96C27.35 42.09 27.47 42.27 27.54 42.47C27.55 42.51 27.58 42.56 27.61 42.6C27.69 42.52 27.72 42.41 27.79 42.32C27.95 42.15 28.13 41.98 28.35 41.88C28.61 41.75 28.92 41.76 29.19 41.82C29.58 41.9 29.91 42.24 29.91 42.63C29.93 42.85 29.91 43.07 29.91 43.28C29.89 43.75 29.9 44.22 29.87 44.7C29.86 44.8 29.9 44.92 30 44.96C30.16 45.03 30.33 45.04 30.5 45.07C30.51 45.11 30.51 45.15 30.5 45.19C30.12 45.2 29.74 45.19 29.36 45.19C29.03 45.19 28.71 45.2 28.38 45.19C28.37 45.15 28.37 45.11 28.38 45.07C28.55 45.05 28.72 45.03 28.87 44.98C28.97 44.94 29.03 44.85 29.02 44.75C29.03 44.1 29.02 43.45 29.03 42.8C29.04 42.62 29.04 42.43 28.96 42.26C28.9 42.13 28.76 42.04 28.61 42.04C28.39 42.03 28.19 42.14 28.05 42.3C27.81 42.56 27.67 42.89 27.62 43.22C27.57 43.45 27.58 43.68 27.58 43.91C27.58 44.19 27.58 44.47 27.58 44.75C27.58 44.85 27.64 44.94 27.73 44.98C27.88 45.03 28.04 45.04 28.19 45.07C28.23 45.1 28.23 45.16 28.19 45.18C28.14 45.2 28.08 45.19 28.03 45.19C27.41 45.19 26.79 45.19 26.16 45.19C26.1 45.21 26.04 45.13 26.09 45.08C26.27 45.03 26.48 45.05 26.64 44.94C26.76 44.86 26.73 44.71 26.73 44.59C26.73 43.93 26.73 43.28 26.74 42.63C26.72 42.45 26.69 42.25 26.55 42.12C26.44 42.02 26.27 42.02 26.14 42.06C25.94 42.12 25.78 42.27 25.66 42.43C25.51 42.64 25.41 42.87 25.36 43.12C25.26 43.6 25.31 44.1 25.3 44.59C25.29 44.71 25.28 44.88 25.4 44.95C25.56 45.04 25.74 45.04 25.91 45.07C25.92 45.08 25.94 45.11 25.94 45.12C25.94 45.14 25.92 45.17 25.92 45.19C25.63 45.2 25.34 45.19 25.06 45.19C24.63 45.19 24.2 45.2 23.78 45.19C23.71 45.19 23.71 45.11 23.75 45.07C23.92 45.05 24.1 45.04 24.27 44.98C24.38 44.95 24.45 44.86 24.45 44.75C24.45 43.94 24.45 43.14 24.45 42.33C24.45 42.22 24.36 42.13 24.26 42.1C24.12 42.06 23.96 42.05 23.81 42.03C23.72 42.02 23.75 41.87 23.83 41.87C24.25 41.86 24.67 41.83 25.08 41.81C25.18 41.8 25.29 41.85 25.3 41.96C25.32 42.14 25.28 42.33 25.3 42.52C25.33 42.59 25.38 42.52 25.4 42.48C25.5 42.28 25.67 42.12 25.85 41.99Z" fill="#062F62" fill-opacity="1.000000" fill-rule="nonzero"/>
	<path id="path34" d="M36.5 41.8C36.95 41.73 37.45 41.86 37.79 42.17C38.1 42.47 38.22 42.92 38.2 43.34C38.2 43.39 38.15 43.43 38.1 43.42C37.41 43.42 36.71 43.42 36.02 43.42C35.95 43.43 35.93 43.5 35.93 43.56C35.9 43.91 35.92 44.27 36.06 44.6C36.16 44.82 36.36 45 36.6 45.06C36.98 45.14 37.4 45.04 37.67 44.76C37.84 44.59 37.95 44.36 37.99 44.13C38 44.08 38.04 44.02 38.1 44.04C38.19 44.05 38.16 44.16 38.16 44.23C38.09 44.62 37.79 44.97 37.42 45.12C36.95 45.31 36.39 45.31 35.95 45.06C35.45 44.8 35.1 44.29 35.04 43.74C34.91 42.86 35.59 41.94 36.5 41.8ZM36.58 41.94C36.44 41.97 36.3 42.06 36.22 42.18C36.03 42.45 35.99 42.78 35.95 43.09C35.94 43.17 35.97 43.28 36.07 43.28C36.43 43.28 36.78 43.28 37.13 43.28C37.23 43.28 37.35 43.26 37.38 43.15C37.43 43 37.42 42.84 37.42 42.69C37.4 42.47 37.36 42.24 37.19 42.08C37.03 41.93 36.79 41.91 36.58 41.94Z" fill="#062F62" fill-opacity="1.000000" fill-rule="nonzero"/>
	<path id="path36" d="M22.45 41.86C22.59 41.86 22.73 41.83 22.87 41.84C22.95 41.85 22.98 41.93 22.98 42.01C22.98 42.93 22.97 43.85 22.98 44.78C22.97 44.87 23.05 44.95 23.13 44.98C23.31 45.03 23.49 45.04 23.67 45.07C23.73 45.1 23.71 45.2 23.64 45.19C22.94 45.2 22.24 45.19 21.53 45.19C21.46 45.2 21.46 45.12 21.48 45.08C21.64 45.03 21.81 44.99 21.97 44.95C22.09 44.92 22.17 44.81 22.17 44.7C22.17 43.92 22.17 43.14 22.16 42.36C22.17 42.25 22.1 42.15 22 42.12C21.85 42.06 21.68 42.05 21.51 42.03C21.46 42.01 21.48 41.96 21.47 41.92C21.54 41.9 21.62 41.9 21.7 41.89C21.95 41.89 22.2 41.86 22.45 41.86Z" fill="#062F62" fill-opacity="1.000000" fill-rule="nonzero"/>
	<path id="path38" d="M31 41.89C31.29 41.87 31.59 41.86 31.88 41.84C31.96 41.83 32.07 41.86 32.06 41.95C32.07 42.89 32.06 43.82 32.07 44.75C32.06 44.85 32.12 44.93 32.21 44.97C32.39 45.03 32.58 45.04 32.77 45.07C32.83 45.11 32.79 45.21 32.72 45.19C32.02 45.19 31.33 45.19 30.63 45.19C30.57 45.2 30.53 45.11 30.58 45.08C30.75 45.02 30.93 45 31.1 44.94C31.2 44.91 31.26 44.8 31.26 44.7C31.26 43.92 31.26 43.14 31.26 42.36C31.27 42.25 31.19 42.14 31.09 42.11C30.93 42.06 30.77 42.05 30.61 42.03C30.56 42.01 30.57 41.96 30.57 41.92C30.71 41.88 30.85 41.9 31 41.89Z" fill="#062F62" fill-opacity="1.000000" fill-rule="nonzero"/>
</svg>
