<svg width="94.783203" height="56.000000" viewBox="0 0 94.7832 56" fill="none" xmlns="http://www.w3.org/2000/svg" xmlns:xlink="http://www.w3.org/1999/xlink">
	<desc>
			Created with Pixso.
	</desc>
	<defs>
		<clipPath id="clip58_14964">
			<rect id="NTPC_Logo" width="94.783340" height="56.000000" fill="white" fill-opacity="0"/>
		</clipPath>
	</defs>
	<g clip-path="url(#clip58_14964)">
		<path id="path" d="M14.31 9.53L81.72 9.53C85.47 9.53 87.04 11.14 87.04 14.73L87.04 41.55C87.04 45.11 85.27 46.75 81.72 46.75L14.31 46.75C9.68 46.75 8.99 44.84 8.99 41.55L8.99 14.73C8.99 11.41 10.21 9.53 14.31 9.53ZM43.68 17.15L43.88 16.59C43.95 16.45 44.09 16.45 44.29 16.45L45.31 16.45C45.45 16.45 45.65 16.73 45.65 16.73L45.65 17.15L43.68 17.15ZM49.2 17.15L49.39 14.76C49.39 14.13 48.51 13 47.69 13C45.86 12.86 44.09 12.79 42.53 13C41.71 13.07 40.89 13.15 40.62 13.99L39.67 17.15L37.53 17.15L36.95 19.79L40.77 19.79L40.46 21.3C36.25 21.3 34.34 23.55 34.61 25.8C34.95 28.5 38.22 29.53 42.43 29.08L43.04 25.74L39.71 25.74C38.62 25.74 39.03 24.64 39.64 24.45L43.31 24.38L44.29 19.79L45.08 19.79L43.27 28.93L46.81 28.87L48.42 19.79L49.59 19.79L50.17 17.15L49.2 17.15ZM59.65 17.15L59.85 16.59C59.92 16.45 60.06 16.45 60.26 16.45L61.28 16.45C61.42 16.45 61.62 16.73 61.62 16.73L61.57 17.15L59.65 17.15ZM76.51 17.15L76.72 16.59C76.79 16.45 76.92 16.45 77.13 16.45L78.15 16.45C78.28 16.45 78.49 16.73 78.49 16.73L78.43 17.15L76.51 17.15ZM55.87 22.94C54.85 23.38 54.16 23.05 54.43 22.25L54.88 19.79L56.5 19.79L55.87 22.94ZM51.02 19.79C50.62 21.95 49.71 24.83 50.35 25.92C50.89 26.88 52.05 26.95 53.27 26.69C53.91 26.63 54.49 26.28 55.29 25.87L54.68 28.93L58.22 28.87L60.17 19.79L61.06 19.79L59.25 28.93L62.65 28.87L64.59 19.79L65.23 19.79L65.81 17.15L65.17 17.15L65.36 14.76C65.36 14.13 64.48 13 63.66 13C61.56 12.93 59.86 12.93 58.5 13C57.68 13 56.87 13.15 56.59 13.99L55.64 17.15L50.93 17.15L50.34 19.79L51.02 19.79ZM72.38 24.74L69.11 24.74L69.02 24.97L70.79 26.51L68.95 28.9L63.72 25.55L64.74 23.55C66.78 22.78 67.53 21.17 66.37 19.89L69.99 19.79L66.11 19.79L66.69 17.15L72.5 17.15L73.45 13.99C73.73 13.14 74.54 13 75.36 13C76.85 12.93 78.62 12.93 80.52 13C81.34 13 82.22 14.13 82.22 14.76L82.03 17.15L82.67 17.15L82.09 19.79L81.45 19.79L79.51 28.87L76.11 28.93L77.92 19.79L77.03 19.79L75.08 28.87L71.54 28.93L72.38 24.74ZM70.26 21.91L72.94 21.91L73.36 19.79L71.12 19.79L70.26 21.91ZM35.94 31.44L48.19 31.44L47.31 35.57L43.13 35.57L41.3 43.76L37.24 43.76L38.69 35.57L35.06 35.57L35.94 31.44ZM53.25 35.39L52.83 37.09L55.28 37.09C55.86 37.09 56.01 36.83 56.08 36.83C56.35 36.83 56.7 36.4 56.7 36.08C56.7 35.64 56.28 35.39 55.24 35.39L53.25 35.39ZM49.5 31.44L56.54 31.44C58.5 31.44 61.21 33.36 61.21 35.46C61.21 39.05 59.34 40.97 56.12 40.97L51.83 40.97L51.18 43.76L46.97 43.76L49.5 31.44ZM20.47 31.44L25.42 31.44L28.72 38.14L30.01 31.44L34.53 31.44L31.7 43.76L26.68 43.76L23.45 37.89L22.47 43.76L17.92 43.76L20.47 31.44ZM77.47 38.74C76.86 41.38 73.72 43.52 70 43.52C65.75 43.52 62.31 40.77 62.31 37.44C62.31 34.1 65.75 31.31 70 31.31C73.76 31.31 76.97 33.52 77.58 36.39L72.42 36.46C72.07 35.73 71.12 35.12 70.01 35.12C68.51 35.12 67.33 36.17 67.33 37.4C67.33 38.63 68.51 39.68 70.01 39.68C70.81 39.68 71.57 39.36 72.07 38.85L77.47 38.74ZM14.08 19.79L12.93 26.5L19.25 30.17L20.88 27.47L17.21 24.64L18.15 19.79L19.89 19.79C20.13 21.91 19.65 23.41 18.52 24.55L20.42 25.96C22.16 24.95 23.38 22.99 23.93 19.79L31.16 19.79L30.62 21.95L24.14 22.02L23.6 24.85C24.14 25.88 24.76 26.78 25.91 27.03C26.39 27.16 27.27 26.78 27.75 25.88C27.89 25.62 28.02 25.17 28.09 24.85L29.9 24.85L28.88 28.93L32.68 28.93L34.97 19.79L36.01 19.79L36.59 17.15L14.02 17.15L13.44 19.79L14.08 19.79ZM11.94 6.21L83.59 6.21C87.19 6.21 90.1 9.34 90.1 12.89L90.1 43.39C90.1 46.91 87.04 50.04 83.59 50.04L11.94 50.04C8.45 50.04 5.39 47.07 5.39 43.39L5.39 12.89C5.39 9.22 8.34 6.21 11.94 6.21Z" fill="#0066AB" fill-opacity="1.000000" fill-rule="evenodd"/>
	</g>
</svg>
