<svg width="44.375488" height="38.237305" viewBox="0 0 44.3755 38.2373" fill="none" xmlns="http://www.w3.org/2000/svg" xmlns:xlink="http://www.w3.org/1999/xlink">
	<desc>
			Created with Pixso.
	</desc>
	<defs/>
	<path id="polygon" d="M0 27.34L10.68 27.34L10.68 30.54L7.61 30.54L7.61 38.23L3.16 38.23L3.16 30.54L0 30.54L0 27.34Z" fill="#486AAE" fill-opacity="1.000000" fill-rule="nonzero"/>
	<path id="polygon" d="M16.09 31.74L13.84 38.23L9.56 38.23L13.76 27.34L18.4 27.34L22.69 38.23L18.37 38.23L16.09 31.74Z" fill="#486AAE" fill-opacity="1.000000" fill-rule="nonzero"/>
	<path id="polygon" d="M21.67 27.34L32.36 27.34L32.36 30.54L29.29 30.54L29.29 38.23L24.84 38.23L24.84 30.54L21.67 30.54L21.67 27.34Z" fill="#486AAE" fill-opacity="1.000000" fill-rule="nonzero"/>
	<path id="polygon" d="M37.77 31.74L35.52 38.23L31.24 38.23L35.44 27.34L40.08 27.34L44.37 38.23L40.04 38.23L37.77 31.74Z" fill="#486AAE" fill-opacity="1.000000" fill-rule="nonzero"/>
	<path id="path" d="M37.92 7.34C37.53 6.56 37 5.82 36.35 5.13C34.88 3.57 32.81 2.27 30.35 1.38C27.88 0.47 25.06 0 22.2 0C19.33 0 16.51 0.47 14.04 1.38C11.59 2.27 9.51 3.57 8.05 5.13C7.39 5.82 6.87 6.56 6.47 7.34C9.66 6.58 15.12 5.57 20.19 5.47C20.68 5.46 21.02 5.61 21.24 5.89C21.51 6.22 21.49 7.43 21.48 7.96L21.34 21.85C21.62 21.86 21.91 21.86 22.2 21.86C22.49 21.86 22.77 21.86 23.06 21.85L22.92 7.96C22.91 7.43 22.89 6.22 23.16 5.89C23.38 5.61 23.72 5.46 24.21 5.47C29.27 5.57 34.73 6.58 37.92 7.34Z" fill="#486AAE" fill-opacity="1.000000" fill-rule="evenodd"/>
	<path id="path" d="M38.61 9.14C33.93 8.1 30.81 7.91 27.74 7.74C25.05 7.59 25.02 8.54 25.29 10.34C25.3 10.45 25.32 10.59 25.35 10.75C26.25 16 27.37 20.51 27.56 21.28C34.11 19.81 38.82 15.72 38.82 10.93C38.82 10.33 38.75 9.73 38.61 9.14Z" fill="#486AAE" fill-opacity="1.000000" fill-rule="evenodd"/>
	<path id="path" d="M19.11 10.34C19.38 8.54 19.35 7.59 16.66 7.74C13.58 7.91 10.46 8.1 5.79 9.14C5.64 9.73 5.57 10.33 5.57 10.93C5.57 13 6.43 15.01 8.05 16.73C9.51 18.29 11.59 19.59 14.04 20.49C14.93 20.81 15.87 21.07 16.83 21.29C17.01 20.57 18.16 15.96 19.07 10.62C19.08 10.51 19.1 10.42 19.11 10.34Z" fill="#486AAE" fill-opacity="1.000000" fill-rule="evenodd"/>
</svg>
