<svg width="193.541260" height="63.989014" viewBox="0 0 193.541 63.989" fill="none" xmlns="http://www.w3.org/2000/svg" xmlns:xlink="http://www.w3.org/1999/xlink">
	<desc>
			Created with Pixso.
	</desc>
	<defs/>
	<path id="path" d="M71.48 13.23C68.64 11.74 65.32 10.99 61.52 10.99L50.49 10.99C49.79 10.99 49.22 11.57 49.22 12.28L49.22 46.25C49.22 46.96 49.79 47.54 50.49 47.54L61.53 47.54C65.32 47.54 68.64 46.79 71.48 45.29C74.33 43.79 76.54 41.68 78.12 38.95C79.71 36.22 80.5 32.99 80.5 29.26C80.5 25.54 79.71 22.31 78.12 19.58C76.54 16.84 74.32 14.73 71.48 13.23ZM72 34.46C71.39 35.9 70.56 37.09 69.49 38.03C68.42 38.97 67.18 39.66 65.76 40.1C64.35 40.53 62.85 40.75 61.27 40.75L58.04 40.75C57.34 40.75 56.77 40.17 56.77 39.46L56.77 19.06C56.77 18.35 57.34 17.78 58.04 17.78L61.27 17.78C62.85 17.78 64.35 17.99 65.77 18.43C67.18 18.86 68.42 19.55 69.49 20.49C70.56 21.43 71.39 22.62 72 24.07C72.6 25.51 72.9 27.24 72.9 29.26C72.9 31.28 72.6 33.01 72 34.46Z" fill="#002175" fill-opacity="1.000000" fill-rule="nonzero"/>
	<path id="polygon" d="M95.4 31.94L87.08 11.78C86.89 11.3 86.42 10.99 85.91 10.99L80.25 10.99C79.31 10.99 78.7 11.98 79.1 12.83L95.43 47.26C95.9 48.23 97.27 48.23 97.73 47.26L114.06 12.83C114.47 11.98 113.85 10.99 112.91 10.99L107.21 10.99C106.69 10.99 106.23 11.3 106.03 11.78L97.76 31.94C97.32 33 95.84 33 95.4 31.94Z" fill="#002175" fill-opacity="1.000000" fill-rule="nonzero"/>
	<path id="rect" d="M118.88 10.99L123.83 10.99C124.53 10.99 125.1 11.57 125.1 12.28L125.1 46.25C125.1 46.96 124.53 47.54 123.83 47.54L118.88 47.54C118.18 47.54 117.61 46.96 117.61 46.25L117.61 12.28C117.61 11.57 118.18 10.99 118.88 10.99Z" fill="#002175" fill-opacity="1.000000" fill-rule="evenodd"/>
	<path id="path" d="M185.71 47.5L191.25 47.5C192.18 47.5 192.8 46.51 192.4 45.65L176.06 11.23C175.6 10.26 174.23 10.26 173.77 11.23L158.33 43.77C157.92 44.62 156.78 44.76 156.19 44.03L143.96 28.96C143.56 28.47 143.58 27.77 143.99 27.29L156.39 13.13C157.12 12.3 156.54 10.99 155.44 10.99L150.05 10.99C149.69 10.99 149.34 11.15 149.1 11.43L138.83 23.25C138.06 24.14 136.6 23.59 136.6 22.4L136.6 12.28C136.6 11.57 136.03 10.99 135.33 10.99L130.28 10.99C129.57 10.99 129 11.57 129 12.28L129 46.25C129 46.96 129.57 47.54 130.28 47.54L135.33 47.54C136.03 47.54 136.6 46.96 136.6 46.25L136.6 34.59C136.6 33.38 138.1 32.84 138.86 33.77L149.66 47.07C149.91 47.36 150.27 47.54 150.65 47.54L159.02 47.54C159.03 47.54 159.03 47.52 159.03 47.52C159.02 47.51 159.02 47.5 159.03 47.5L164.07 47.5C164.57 47.5 165.02 47.2 165.23 46.75L168.33 39.94C168.53 39.49 168.99 39.19 169.48 39.19L180.27 39.19C180.76 39.19 181.21 39.49 181.42 39.94L184.55 46.75C184.76 47.21 185.21 47.5 185.71 47.5ZM177.47 33.29L172.33 33.29C171.42 33.29 170.8 32.34 171.17 31.49L173.74 25.52C174.19 24.49 175.64 24.49 176.08 25.52L178.64 31.5C179 32.35 178.38 33.29 177.47 33.29Z" fill="#002175" fill-opacity="1.000000" fill-rule="nonzero"/>
	<path id="path" d="M21.51 28.48L16.53 37.11C16.36 37.39 16.87 37.82 17.14 37.65C17.72 37.28 18.34 36.99 18.98 36.76C19.13 36.71 19.26 36.6 19.34 36.47L21.51 32.7C21.76 32.28 22.37 32.28 22.61 32.7L24.81 36.5C24.89 36.64 25.01 36.74 25.16 36.79C25.84 37.04 26.48 37.37 27.08 37.77C27.33 37.93 27.83 37.51 27.69 37.25L22.61 28.48C22.37 28.05 21.76 28.05 21.51 28.48Z" fill="#F1C804" fill-opacity="1.000000" fill-rule="nonzero"/>
	<path id="path" d="M24.87 39.82C24.86 39.82 24.86 39.81 24.87 39.81C24.87 39.81 24.88 39.81 24.87 39.8L22.57 36.16C22.32 35.77 21.75 35.77 21.5 36.16L19.24 39.73C19.21 39.79 19.16 39.83 19.12 39.88C19.03 39.95 18.95 40.03 18.87 40.12C18.77 40.23 18.67 40.34 18.58 40.46C18.49 40.57 18.41 40.7 18.33 40.82C18.25 40.95 18.18 41.08 18.11 41.21C18.05 41.35 17.99 41.48 17.94 41.62C17.89 41.76 17.84 41.9 17.81 42.05C17.77 42.19 17.74 42.34 17.72 42.48C17.69 42.63 17.68 42.78 17.67 42.93C17.66 43.08 17.66 43.23 17.67 43.37C17.68 43.52 17.69 43.67 17.71 43.82C17.74 43.97 17.77 44.11 17.8 44.26C17.84 44.4 17.88 44.54 17.93 44.68C17.99 44.82 18.04 44.96 18.11 45.09C18.17 45.22 18.24 45.35 18.32 45.48C18.4 45.61 18.48 45.73 18.57 45.85C18.66 45.97 18.76 46.08 18.86 46.19C18.96 46.29 19.07 46.4 19.18 46.49C19.29 46.59 19.41 46.68 19.53 46.77C19.65 46.85 19.78 46.93 19.91 47C20.04 47.08 20.17 47.14 20.3 47.2C20.44 47.26 20.58 47.31 20.72 47.35C20.86 47.4 21 47.44 21.14 47.47C21.29 47.5 21.43 47.52 21.58 47.53C21.73 47.55 21.87 47.56 22.02 47.56C22.17 47.56 22.32 47.55 22.46 47.53C22.61 47.52 22.76 47.5 22.9 47.47C23.04 47.44 23.19 47.4 23.33 47.35C23.47 47.31 23.61 47.26 23.74 47.2C23.88 47.14 24.01 47.08 24.14 47C24.27 46.93 24.39 46.85 24.51 46.77C24.63 46.68 24.75 46.59 24.86 46.49C24.97 46.4 25.08 46.29 25.18 46.19C25.28 46.08 25.38 45.97 25.47 45.85C25.56 45.73 25.64 45.61 25.72 45.48C25.8 45.35 25.87 45.22 25.94 45.09C26 44.96 26.06 44.82 26.11 44.68C26.16 44.54 26.21 44.4 26.24 44.26C26.28 44.11 26.31 43.97 26.33 43.82C26.35 43.67 26.37 43.52 26.37 43.37C26.38 43.23 26.38 43.08 26.37 42.93C26.37 42.78 26.35 42.63 26.33 42.48C26.31 42.34 26.28 42.19 26.24 42.05C26.2 41.9 26.16 41.76 26.11 41.62C26.05 41.48 26 41.35 25.93 41.21C25.87 41.08 25.79 40.95 25.72 40.82C25.64 40.7 25.55 40.57 25.46 40.46C25.37 40.34 25.28 40.23 25.17 40.12C25.08 40.02 24.97 39.92 24.87 39.82ZM22.02 45.39C21.88 45.39 21.74 45.38 21.6 45.35C21.46 45.32 21.32 45.28 21.19 45.22C21.05 45.17 20.93 45.1 20.81 45.02C20.69 44.94 20.58 44.84 20.47 44.74C20.37 44.64 20.28 44.53 20.2 44.41C20.12 44.29 20.05 44.16 20 44.02C19.94 43.89 19.9 43.75 19.87 43.61C19.85 43.46 19.83 43.32 19.83 43.18C19.83 43.03 19.85 42.89 19.87 42.74C19.9 42.6 19.94 42.46 20 42.33C20.05 42.19 20.12 42.07 20.2 41.94C20.28 41.82 20.37 41.71 20.47 41.61C20.58 41.51 20.69 41.41 20.81 41.33C20.93 41.25 21.05 41.18 21.19 41.13C21.32 41.07 21.46 41.03 21.6 41C21.74 40.97 21.88 40.96 22.03 40.96C22.17 40.96 22.31 40.97 22.45 41C22.59 41.03 22.73 41.07 22.86 41.13C23 41.18 23.12 41.25 23.24 41.33C23.36 41.41 23.47 41.51 23.58 41.61C23.68 41.71 23.77 41.82 23.85 41.94C23.93 42.06 24 42.19 24.05 42.33C24.11 42.46 24.15 42.6 24.18 42.74C24.21 42.88 24.22 43.03 24.22 43.17C24.22 43.32 24.21 43.46 24.18 43.61C24.15 43.75 24.11 43.89 24.05 44.02C24 44.16 23.93 44.28 23.85 44.41C23.77 44.53 23.68 44.64 23.58 44.74C23.48 44.84 23.36 44.94 23.24 45.02C23.12 45.1 23 45.17 22.86 45.22C22.73 45.28 22.59 45.32 22.45 45.35C22.31 45.38 22.17 45.39 22.02 45.39Z" fill="#002175" fill-opacity="1.000000" fill-rule="nonzero"/>
	<path id="polygon" d="M6.87 35.15L0.81 45.63C0.32 46.49 0.93 47.57 1.91 47.57L7.55 47.57C8 47.57 8.42 47.33 8.65 46.93L13.64 38.31C14.03 37.64 13.74 36.76 13.01 36.47L8.45 34.61C7.87 34.37 7.19 34.6 6.87 35.15Z" fill="#002175" fill-opacity="1.000000" fill-rule="nonzero"/>
	<path id="polygon" d="M35.68 34.63L31.15 36.48C30.43 36.77 30.13 37.65 30.53 38.32L35.53 46.94C35.76 47.33 36.18 47.57 36.63 47.57L42.21 47.57C43.2 47.57 43.81 46.49 43.31 45.63L37.26 35.17C36.94 34.62 36.27 34.39 35.68 34.63Z" fill="#002175" fill-opacity="1.000000" fill-rule="nonzero"/>
	<path id="polygon" d="M34.48 30.35L23.16 10.79C22.67 9.94 21.46 9.94 20.96 10.79L9.66 30.33C9.27 31.01 9.56 31.88 10.28 32.18L14.85 34.04C15.44 34.28 16.11 34.05 16.43 33.5L20.97 25.66C21.46 24.81 22.67 24.81 23.16 25.66L27.73 33.51C28.05 34.06 28.72 34.29 29.3 34.05L33.85 32.19C34.57 31.9 34.87 31.03 34.48 30.35Z" fill="#002175" fill-opacity="1.000000" fill-rule="nonzero"/>
	<g opacity="0.500000">
		<path id="polygon" d="M1.14 54.75L0 54.75L0 63.54L1.14 63.54L1.71 63.54L5.53 63.54L5.53 62.02L1.71 62.02L1.71 59.62L5.29 59.62L5.29 58.13L1.71 58.13L1.71 56.27L5.53 56.27L5.53 54.75L1.71 54.75L1.14 54.75Z" fill="#000000" fill-opacity="1.000000" fill-rule="nonzero"/>
		<path id="polygon" d="M25 60.2L18.81 54.31L18.81 63.54L20.52 63.54L20.52 58.09L26.72 63.98L26.72 54.75L25 54.75L25 60.2Z" fill="#000000" fill-opacity="1.000000" fill-rule="nonzero"/>
		<path id="polygon" d="M39.26 56.37L41.6 56.37L41.6 63.54L43.38 63.54L43.38 56.37L45.73 56.37L45.73 54.75L39.26 54.75L39.26 56.37Z" fill="#000000" fill-opacity="1.000000" fill-rule="nonzero"/>
		<path id="polygon" d="M59.4 54.75L58.25 54.75L58.25 63.54L59.4 63.54L59.97 63.54L63.79 63.54L63.79 62.02L59.97 62.02L59.97 59.62L63.55 59.62L63.55 58.13L59.97 58.13L59.97 56.27L63.79 56.27L63.79 54.75L59.97 54.75L59.4 54.75Z" fill="#000000" fill-opacity="1.000000" fill-rule="nonzero"/>
		<path id="path" d="M81.75 60C82.23 59.77 82.6 59.44 82.85 59.01C83.11 58.59 83.24 58.1 83.24 57.55C83.24 56.99 83.11 56.5 82.85 56.08C82.6 55.66 82.23 55.33 81.75 55.1C81.26 54.86 80.68 54.75 79.99 54.75L77.06 54.75L77.06 63.54L78.84 63.54L78.84 60.35L79.62 60.35L81.66 63.54L83.76 63.54L81.4 60.14C81.52 60.1 81.63 60.05 81.75 60ZM78.84 56.28L79.88 56.28C80.19 56.28 80.47 56.33 80.69 56.44C80.91 56.53 81.09 56.68 81.22 56.89C81.35 57.09 81.41 57.32 81.41 57.6C81.41 57.88 81.35 58.11 81.22 58.31C81.09 58.51 80.91 58.66 80.69 58.76C80.47 58.87 80.19 58.92 79.88 58.92L78.84 58.92L78.84 56.28Z" fill="#000000" fill-opacity="1.000000" fill-rule="nonzero"/>
		<path id="path" d="M100.87 55.08C100.39 54.86 99.8 54.75 99.11 54.75L96.3 54.75L96.3 63.54L98.08 63.54L98.08 60.35L99.11 60.35C99.8 60.35 100.39 60.24 100.87 60.01C101.36 59.79 101.73 59.46 101.99 59.04C102.24 58.61 102.37 58.12 102.37 57.55C102.37 56.97 102.24 56.47 101.99 56.05C101.73 55.64 101.36 55.31 100.87 55.08ZM100.23 58.5C99.96 58.72 99.58 58.83 99.11 58.83L98.08 58.83L98.08 56.27L99.11 56.27C99.58 56.27 99.96 56.37 100.23 56.59C100.51 56.8 100.64 57.12 100.64 57.55C100.64 57.97 100.5 58.29 100.23 58.5Z" fill="#000000" fill-opacity="1.000000" fill-rule="nonzero"/>
		<path id="path" d="M119.95 60C120.43 59.77 120.8 59.44 121.06 59.01C121.32 58.59 121.44 58.1 121.44 57.55C121.44 56.99 121.32 56.5 121.06 56.08C120.8 55.66 120.43 55.33 119.95 55.1C119.47 54.86 118.88 54.75 118.2 54.75L115.27 54.75L115.27 63.54L117.05 63.54L117.05 60.35L117.83 60.35L119.86 63.54L121.97 63.54L119.61 60.14C119.73 60.1 119.84 60.05 119.95 60ZM117.05 56.28L118.08 56.28C118.4 56.28 118.67 56.33 118.9 56.44C119.12 56.53 119.3 56.68 119.43 56.89C119.55 57.09 119.61 57.32 119.61 57.6C119.61 57.88 119.55 58.11 119.43 58.31C119.3 58.51 119.12 58.66 118.9 58.76C118.67 58.87 118.4 58.92 118.08 58.92L117.05 58.92L117.05 56.28Z" fill="#000000" fill-opacity="1.000000" fill-rule="nonzero"/>
		<rect id="rect" x="134.507568" y="54.750244" width="1.805100" height="8.799088" fill="#000000" fill-opacity="1.000000"/>
		<path id="path" d="M155.05 59.33C154.84 59.11 154.6 58.93 154.34 58.78C154.08 58.63 153.81 58.5 153.52 58.4C153.15 58.28 152.78 58.13 152.43 57.96C152.14 57.81 151.92 57.66 151.78 57.49C151.64 57.33 151.57 57.14 151.57 56.92C151.57 56.7 151.66 56.51 151.83 56.35C152 56.18 152.27 56.1 152.62 56.1C152.86 56.1 153.1 56.15 153.33 56.26C153.53 56.37 153.72 56.51 153.88 56.68C154.04 56.85 154.18 57.04 154.3 57.25L155.69 56.47C155.53 56.14 155.32 55.84 155.06 55.57C154.77 55.27 154.44 55.03 154.05 54.85C153.65 54.66 153.17 54.57 152.62 54.57C152.08 54.57 151.59 54.67 151.15 54.87C150.73 55.05 150.39 55.33 150.12 55.71C149.87 56.07 149.74 56.51 149.74 57.01C149.74 57.43 149.82 57.79 149.98 58.08C150.13 58.37 150.33 58.63 150.57 58.84C150.81 59.04 151.06 59.21 151.34 59.34C151.61 59.47 151.85 59.57 152.06 59.65C152.45 59.8 152.78 59.94 153.05 60.07C153.32 60.2 153.52 60.35 153.66 60.52C153.79 60.68 153.86 60.91 153.86 61.18C153.86 61.5 153.75 61.75 153.52 61.94C153.3 62.12 153.01 62.21 152.65 62.21C152.35 62.21 152.06 62.15 151.79 62.01C151.52 61.87 151.27 61.68 151.07 61.44C150.83 61.18 150.63 60.9 150.46 60.59L149.19 61.49C149.39 61.92 149.66 62.3 149.99 62.64C150.34 62.99 150.74 63.27 151.19 63.47C151.67 63.68 152.16 63.78 152.68 63.78C153.07 63.78 153.45 63.72 153.82 63.6C154.17 63.48 154.5 63.3 154.8 63.07C155.09 62.84 155.32 62.56 155.48 62.22C155.65 61.89 155.73 61.51 155.73 61.08C155.74 60.73 155.67 60.4 155.55 60.08C155.43 59.8 155.27 59.54 155.05 59.33Z" fill="#000000" fill-opacity="1.000000" fill-rule="nonzero"/>
		<path id="polygon" d="M169.84 54.75L168.7 54.75L168.7 63.54L169.84 63.54L170.42 63.54L174.24 63.54L174.24 62.02L170.42 62.02L170.42 59.62L173.99 59.62L173.99 58.13L170.42 58.13L170.42 56.27L174.24 56.27L174.24 54.75L170.42 54.75L169.84 54.75Z" fill="#000000" fill-opacity="1.000000" fill-rule="nonzero"/>
		<path id="path" d="M193.35 60.08C193.24 59.8 193.07 59.55 192.86 59.33C192.64 59.11 192.41 58.93 192.15 58.78C191.89 58.63 191.61 58.5 191.33 58.4C190.96 58.28 190.59 58.13 190.24 57.96C189.95 57.81 189.73 57.66 189.59 57.49C189.44 57.33 189.37 57.14 189.38 56.92C189.38 56.7 189.46 56.51 189.64 56.35C189.81 56.18 190.07 56.1 190.42 56.1C190.67 56.1 190.91 56.15 191.13 56.26C191.34 56.37 191.53 56.51 191.69 56.68C191.85 56.85 191.99 57.04 192.1 57.25L193.5 56.47C193.33 56.14 193.12 55.84 192.87 55.57C192.58 55.27 192.24 55.03 191.86 54.85C191.46 54.66 190.98 54.57 190.42 54.57C189.88 54.57 189.4 54.67 188.96 54.87C188.54 55.05 188.19 55.33 187.93 55.71C187.67 56.07 187.55 56.51 187.55 57.01C187.55 57.43 187.63 57.79 187.78 58.08C187.93 58.37 188.13 58.63 188.38 58.84C188.61 59.04 188.87 59.21 189.15 59.34C189.42 59.47 189.65 59.57 189.86 59.65C190.25 59.8 190.58 59.94 190.85 60.07C191.12 60.2 191.33 60.35 191.46 60.52C191.6 60.68 191.67 60.91 191.67 61.18C191.67 61.5 191.56 61.75 191.33 61.94C191.11 62.12 190.82 62.21 190.46 62.21C190.16 62.21 189.87 62.15 189.6 62.01C189.32 61.87 189.08 61.68 188.87 61.44C188.64 61.18 188.44 60.9 188.27 60.59L187 61.49C187.2 61.92 187.47 62.3 187.8 62.64C188.14 62.99 188.54 63.27 189 63.47C189.47 63.68 189.97 63.78 190.49 63.78C190.88 63.78 191.26 63.72 191.63 63.6C191.98 63.48 192.31 63.3 192.6 63.07C192.89 62.84 193.12 62.56 193.29 62.22C193.45 61.89 193.54 61.51 193.54 61.08C193.54 60.73 193.48 60.4 193.35 60.08Z" fill="#000000" fill-opacity="1.000000" fill-rule="nonzero"/>
	</g>
	<path id="path" d="M125.1 1.28L125.1 6.28C125.1 6.99 124.53 7.57 123.83 7.57L118.88 7.57C118.18 7.57 117.61 6.99 117.61 6.28L117.61 1.28C117.61 0.57 118.18 0 118.88 0L123.83 0C124.53 0 125.1 0.57 125.1 1.28Z" fill="#F1C804" fill-opacity="1.000000" fill-rule="nonzero"/>
</svg>
