<svg width="100.000000" height="100.000000" viewBox="0 0 100 100" fill="none" xmlns="http://www.w3.org/2000/svg" xmlns:xlink="http://www.w3.org/1999/xlink">
	<circle id="Oval 63" cx="50.000000" cy="50.000000" r="50.000000" fill="#FFFFFF" fill-opacity="1.000000"/>
	<path id="path" d="M48.6 46.46L41.04 58.98C40.8 59.39 41.57 60.02 41.98 59.77C42.86 59.24 43.79 58.81 44.77 58.48C44.99 58.4 45.18 58.26 45.3 58.06L48.6 52.59C48.98 51.97 49.9 51.97 50.27 52.59L53.6 58.11C53.72 58.31 53.91 58.45 54.13 58.53C55.15 58.89 56.13 59.36 57.04 59.94C57.41 60.18 58.18 59.56 57.96 59.19L50.27 46.46C49.9 45.84 48.97 45.84 48.6 46.46Z" fill="#F1C804" fill-opacity="1.000000" fill-rule="nonzero"/>
	<path id="path" d="M53.74 62.75C53.73 62.74 53.73 62.73 53.74 62.73C53.75 62.73 53.75 62.73 53.75 62.72L50.31 57.43C49.94 56.85 49.09 56.85 48.71 57.43L45.34 62.62C45.29 62.7 45.23 62.76 45.16 62.83C45.03 62.94 44.91 63.06 44.79 63.18C44.64 63.34 44.5 63.5 44.36 63.67C44.23 63.84 44.1 64.02 43.99 64.2C43.87 64.39 43.76 64.58 43.66 64.77C43.57 64.96 43.48 65.16 43.4 65.37C43.33 65.57 43.26 65.77 43.21 65.98C43.15 66.19 43.1 66.41 43.07 66.62C43.04 66.83 43.02 67.05 43 67.26C42.99 67.48 42.99 67.7 43 67.91C43.01 68.13 43.04 68.34 43.07 68.56C43.1 68.77 43.15 68.98 43.2 69.19C43.26 69.4 43.32 69.61 43.4 69.81C43.47 70.02 43.56 70.21 43.66 70.41C43.75 70.6 43.86 70.79 43.98 70.98C44.09 71.16 44.22 71.34 44.35 71.51C44.49 71.68 44.63 71.84 44.78 72C44.93 72.16 45.09 72.31 45.26 72.45C45.42 72.59 45.6 72.72 45.78 72.85C45.96 72.97 46.15 73.08 46.34 73.19C46.53 73.29 46.73 73.39 46.93 73.48C47.13 73.56 47.34 73.64 47.55 73.7C47.76 73.77 47.97 73.82 48.19 73.86C48.4 73.91 48.62 73.94 48.84 73.96C49.06 73.98 49.28 74 49.5 74C49.71 74 49.93 73.98 50.15 73.96C50.37 73.94 50.59 73.91 50.8 73.86C51.02 73.82 51.23 73.77 51.44 73.7C51.65 73.64 51.86 73.56 52.06 73.48C52.26 73.39 52.46 73.29 52.65 73.19C52.84 73.08 53.03 72.97 53.21 72.85C53.39 72.72 53.57 72.59 53.73 72.45C53.9 72.31 54.06 72.16 54.21 72C54.36 71.84 54.5 71.68 54.64 71.51C54.77 71.34 54.9 71.16 55.01 70.98C55.13 70.79 55.24 70.6 55.33 70.41C55.43 70.21 55.52 70.02 55.59 69.81C55.67 69.61 55.73 69.4 55.79 69.19C55.84 68.98 55.89 68.77 55.92 68.56C55.95 68.34 55.98 68.13 55.99 67.91C56 67.7 56 67.48 55.99 67.26C55.98 67.05 55.95 66.83 55.92 66.62C55.89 66.41 55.84 66.19 55.79 65.98C55.73 65.77 55.66 65.57 55.59 65.37C55.51 65.16 55.42 64.96 55.33 64.77C55.23 64.58 55.12 64.39 55 64.2C54.89 64.02 54.76 63.84 54.63 63.67C54.49 63.5 54.35 63.34 54.2 63.18C54.05 63.03 53.9 62.89 53.74 62.75ZM49.5 70.85C49.28 70.85 49.07 70.82 48.86 70.78C48.65 70.74 48.44 70.68 48.25 70.6C48.05 70.52 47.86 70.42 47.68 70.3C47.5 70.18 47.34 70.05 47.18 69.9C47.03 69.75 46.9 69.59 46.78 69.41C46.66 69.24 46.56 69.05 46.48 68.86C46.39 68.66 46.33 68.46 46.29 68.25C46.25 68.04 46.23 67.84 46.23 67.62C46.23 67.41 46.25 67.2 46.29 67C46.33 66.79 46.39 66.59 46.48 66.39C46.56 66.2 46.66 66.01 46.78 65.83C46.9 65.66 47.03 65.5 47.19 65.35C47.34 65.2 47.5 65.06 47.68 64.95C47.86 64.83 48.05 64.73 48.25 64.65C48.45 64.57 48.65 64.51 48.86 64.46C49.07 64.42 49.28 64.4 49.5 64.4C49.71 64.4 49.93 64.42 50.14 64.46C50.35 64.51 50.55 64.57 50.75 64.65C50.95 64.73 51.14 64.83 51.32 64.94C51.5 65.06 51.66 65.2 51.81 65.35C51.97 65.49 52.1 65.66 52.22 65.83C52.34 66.01 52.44 66.19 52.52 66.39C52.61 66.58 52.67 66.79 52.71 66.99C52.75 67.2 52.77 67.41 52.77 67.62C52.77 67.83 52.75 68.04 52.71 68.25C52.67 68.46 52.61 68.66 52.52 68.86C52.44 69.05 52.34 69.24 52.22 69.41C52.1 69.59 51.97 69.75 51.81 69.9C51.66 70.05 51.5 70.18 51.32 70.3C51.14 70.42 50.95 70.52 50.75 70.6C50.55 70.68 50.35 70.74 50.14 70.78C49.93 70.82 49.71 70.85 49.5 70.85Z" fill="#002175" fill-opacity="1.000000" fill-rule="nonzero"/>
	<path id="polygon" d="M27.46 54.97L18.26 71.03C17.51 72.34 18.44 74 19.93 74L28.48 74C29.17 74 29.81 73.62 30.15 73.02L37.73 59.82C38.33 58.78 37.88 57.44 36.78 56.99L29.86 54.14C28.97 53.77 27.95 54.13 27.46 54.97Z" fill="#002175" fill-opacity="1.000000" fill-rule="nonzero"/>
	<path id="polygon" d="M70.11 54.14L63.21 56.98C62.11 57.43 61.66 58.77 62.26 59.81L69.88 73.02C70.23 73.62 70.87 74 71.56 74L80.05 74C81.55 74 82.48 72.34 81.73 71.02L72.52 54.97C72.03 54.13 71.01 53.77 70.11 54.14Z" fill="#002175" fill-opacity="1.000000" fill-rule="nonzero"/>
	<path id="polygon" d="M68.73 48.3L51.65 18.95C50.91 17.68 49.07 17.68 48.33 18.95L31.26 48.27C30.67 49.29 31.11 50.6 32.2 51.04L39.09 53.84C39.98 54.2 40.99 53.85 41.48 53.02L48.33 41.26C49.07 39.99 50.9 39.99 51.65 41.26L58.54 53.04C59.02 53.87 60.04 54.21 60.92 53.85L67.79 51.07C68.88 50.63 69.32 49.32 68.73 48.3Z" fill="#002175" fill-opacity="1.000000" fill-rule="nonzero"/>
</svg>
