<svg width="227.979736" height="39.991699" viewBox="0 0 227.98 39.9917" fill="none" xmlns="http://www.w3.org/2000/svg" xmlns:xlink="http://www.w3.org/1999/xlink">
	<desc>
			Created with Pixso.
	</desc>
	<defs/>
	<path id="path" d="M20.97 7.3C19.91 4.55 17.21 2.59 14.06 2.59C10.89 2.59 8.2 4.56 7.14 7.32C7.01 7.35 6.89 7.4 6.76 7.44C6.64 7.49 6.52 7.54 6.4 7.6C6.28 7.66 6.16 7.72 6.04 7.79C5.93 7.86 5.82 7.93 5.71 8C5.6 8.08 5.49 8.16 5.39 8.24C5.29 8.33 5.19 8.41 5.09 8.51C5 8.6 4.91 8.69 4.82 8.79C4.73 8.89 4.65 8.99 4.57 9.1C4.49 9.21 4.41 9.31 4.34 9.43C4.27 9.54 4.21 9.65 4.14 9.77C4.08 9.89 4.03 10 3.97 10.13C3.92 10.25 3.88 10.37 3.83 10.5C3.79 10.62 3.76 10.75 3.72 10.87C3.69 11 3.67 11.13 3.64 11.26C3.62 11.39 3.61 11.52 3.6 11.65C3.59 11.79 3.58 11.92 3.58 12.05C3.58 14.78 5.82 16.99 8.58 16.99C8.97 16.99 9.35 16.95 9.73 16.86C10.11 16.77 10.47 16.64 10.81 16.47C10.85 16.49 10.89 16.51 10.93 16.52C10.92 16.45 10.92 16.37 10.92 16.29C10.92 15.79 11.03 15.33 11.26 14.88C11.09 14.79 10.93 14.69 10.77 14.59C10.72 14.63 10.67 14.67 10.62 14.71C10.57 14.75 10.51 14.79 10.46 14.83C10.4 14.86 10.34 14.9 10.28 14.93C10.23 14.96 10.17 15 10.11 15.03C10.05 15.06 9.99 15.08 9.93 15.11C9.87 15.14 9.8 15.16 9.74 15.18C9.68 15.21 9.61 15.23 9.55 15.25C9.49 15.27 9.42 15.28 9.36 15.3C9.29 15.31 9.23 15.33 9.16 15.34C9.09 15.35 9.03 15.36 8.96 15.37C8.9 15.37 8.83 15.38 8.76 15.38C8.69 15.39 8.63 15.39 8.56 15.39C8.49 15.39 8.43 15.39 8.36 15.38C8.29 15.38 8.23 15.37 8.16 15.36C8.09 15.35 8.03 15.34 7.96 15.33C7.9 15.32 7.83 15.31 7.77 15.29C7.7 15.27 7.64 15.26 7.57 15.24C7.51 15.22 7.45 15.2 7.38 15.17C7.32 15.15 7.26 15.12 7.2 15.1C7.14 15.07 7.08 15.04 7.02 15.01C6.96 14.98 6.9 14.95 6.84 14.91C6.79 14.88 6.73 14.84 6.67 14.81C6.62 14.77 6.56 14.73 6.51 14.69C6.46 14.65 6.41 14.61 6.36 14.56C6.31 14.52 6.26 14.48 6.21 14.43C6.16 14.38 6.12 14.33 6.07 14.29C6.03 14.24 5.98 14.19 5.94 14.13C5.9 14.08 5.86 14.03 5.82 13.98C5.78 13.92 5.74 13.87 5.71 13.81C5.67 13.75 5.64 13.7 5.61 13.64C5.58 13.58 5.55 13.52 5.52 13.46C5.49 13.4 5.46 13.34 5.44 13.28C5.41 13.22 5.39 13.16 5.37 13.09C5.35 13.03 5.33 12.97 5.31 12.9C5.3 12.84 5.28 12.78 5.27 12.71C5.25 12.65 5.24 12.58 5.23 12.52C5.22 12.45 5.22 12.38 5.21 12.32C5.21 12.25 5.2 12.19 5.2 12.12C5.2 12.05 5.2 11.99 5.2 11.92C5.21 11.86 5.21 11.79 5.22 11.72C5.22 11.66 5.23 11.59 5.24 11.53C5.25 11.46 5.26 11.4 5.28 11.33C5.29 11.27 5.31 11.2 5.33 11.14C5.35 11.08 5.37 11.01 5.39 10.95C5.41 10.89 5.43 10.83 5.46 10.77C5.49 10.7 5.51 10.64 5.54 10.58C5.57 10.53 5.6 10.47 5.64 10.41C5.67 10.35 5.7 10.29 5.74 10.24C5.78 10.18 5.81 10.13 5.85 10.08C5.89 10.02 5.93 9.97 5.98 9.92C6.02 9.87 6.06 9.82 6.11 9.77C6.15 9.72 6.2 9.68 6.25 9.63C6.3 9.58 6.35 9.54 6.4 9.5C6.45 9.45 6.5 9.41 6.56 9.37C6.61 9.33 6.66 9.3 6.72 9.26C6.78 9.22 6.83 9.19 6.89 9.16C6.95 9.12 7.01 9.09 7.07 9.06C7.13 9.03 7.19 9 7.25 8.98C7.31 8.95 7.37 8.93 7.44 8.91C7.5 8.88 7.56 8.86 7.63 8.84C7.69 8.83 7.76 8.81 7.82 8.79C7.89 8.78 7.95 8.77 8.02 8.76C8.08 8.74 8.15 8.74 8.22 8.73C8.28 8.72 8.35 8.72 8.42 8.71C8.97 6.14 11.28 4.2 14.06 4.2C16.82 4.2 19.13 6.13 19.69 8.7C19.76 8.7 19.83 8.71 19.89 8.71C19.96 8.72 20.02 8.73 20.09 8.74C20.16 8.75 20.22 8.76 20.29 8.78C20.35 8.79 20.42 8.81 20.48 8.83C20.55 8.85 20.61 8.87 20.67 8.89C20.74 8.91 20.8 8.94 20.86 8.96C20.92 8.99 20.98 9.02 21.04 9.05C21.1 9.08 21.16 9.11 21.22 9.14C21.28 9.17 21.33 9.21 21.39 9.24C21.45 9.28 21.5 9.32 21.55 9.36C21.61 9.4 21.66 9.44 21.71 9.48C21.76 9.52 21.81 9.57 21.86 9.61C21.91 9.66 21.96 9.7 22 9.75C22.05 9.8 22.09 9.85 22.13 9.9C22.18 9.95 22.22 10 22.26 10.06C22.3 10.11 22.34 10.17 22.37 10.22C22.41 10.28 22.44 10.33 22.48 10.39C22.51 10.45 22.54 10.51 22.57 10.57C22.6 10.63 22.63 10.69 22.65 10.75C22.68 10.81 22.7 10.87 22.72 10.93C22.75 10.99 22.77 11.06 22.79 11.12C22.8 11.18 22.82 11.25 22.83 11.31C22.85 11.38 22.86 11.44 22.87 11.51C22.88 11.57 22.89 11.64 22.9 11.7C22.9 11.77 22.91 11.84 22.91 11.9C22.91 11.97 22.92 12.03 22.91 12.1C22.91 12.17 22.91 12.23 22.9 12.3C22.9 12.36 22.89 12.43 22.88 12.5C22.87 12.56 22.86 12.63 22.85 12.69C22.84 12.76 22.82 12.82 22.8 12.88C22.79 12.95 22.77 13.01 22.75 13.07C22.73 13.14 22.7 13.2 22.68 13.26C22.65 13.32 22.63 13.38 22.6 13.44C22.57 13.5 22.54 13.56 22.51 13.62C22.48 13.68 22.45 13.74 22.41 13.79C22.37 13.85 22.34 13.9 22.3 13.96C22.26 14.01 22.22 14.06 22.18 14.12C22.14 14.17 22.09 14.22 22.05 14.27C22 14.32 21.96 14.37 21.91 14.41C21.86 14.46 21.81 14.5 21.76 14.55C21.71 14.59 21.66 14.63 21.61 14.67C21.56 14.71 21.5 14.75 21.45 14.79C21.39 14.83 21.34 14.86 21.28 14.9C21.22 14.93 21.16 14.96 21.1 15C21.04 15.03 20.98 15.05 20.92 15.08C20.86 15.11 20.8 15.13 20.74 15.16C20.68 15.18 20.61 15.2 20.55 15.22C20.49 15.24 20.42 15.26 20.36 15.28C20.29 15.29 20.23 15.31 20.16 15.32C20.09 15.33 20.03 15.34 19.96 15.35C19.9 15.36 19.83 15.36 19.76 15.37C19.7 15.37 19.63 15.38 19.56 15.38C19.49 15.38 19.43 15.38 19.36 15.37C19.29 15.37 19.23 15.36 19.16 15.36C19.09 15.35 19.03 15.34 18.96 15.33C18.9 15.32 18.83 15.3 18.77 15.29C18.7 15.27 18.64 15.26 18.57 15.24C18.51 15.22 18.44 15.2 18.38 15.18C18.32 15.15 18.26 15.13 18.19 15.1C18.13 15.08 18.07 15.05 18.01 15.02C17.95 14.99 17.89 14.96 17.84 14.92C17.78 14.89 17.72 14.86 17.67 14.82C17.61 14.78 17.56 14.75 17.5 14.71C17.45 14.67 17.4 14.62 17.35 14.58C17.18 14.69 17.02 14.8 16.84 14.89C17.07 15.33 17.18 15.79 17.18 16.29C17.18 16.37 17.18 16.45 17.17 16.53C17.22 16.51 17.27 16.49 17.31 16.46C17.66 16.63 18.02 16.76 18.4 16.85C18.77 16.93 19.15 16.98 19.54 16.98C22.3 16.98 24.54 14.76 24.54 12.04C24.54 11.9 24.53 11.77 24.52 11.64C24.51 11.51 24.49 11.38 24.47 11.25C24.45 11.12 24.42 10.99 24.39 10.86C24.36 10.73 24.32 10.61 24.28 10.48C24.24 10.35 24.19 10.23 24.14 10.11C24.09 9.99 24.03 9.87 23.97 9.75C23.91 9.64 23.84 9.52 23.77 9.41C23.7 9.3 23.63 9.19 23.55 9.08C23.47 8.98 23.38 8.87 23.29 8.78C23.21 8.68 23.11 8.58 23.02 8.49C22.92 8.4 22.82 8.31 22.72 8.23C22.62 8.14 22.51 8.06 22.4 7.99C22.29 7.91 22.18 7.84 22.07 7.77C21.95 7.71 21.83 7.64 21.71 7.59C21.59 7.53 21.47 7.48 21.35 7.43C21.22 7.38 21.1 7.34 20.97 7.3Z" fill="#F7F8FB" fill-opacity="1.000000" fill-rule="nonzero"/>
	<path id="path" d="M45.64 8.27C43.82 7.33 41.71 6.86 39.28 6.86L32.24 6.86C31.79 6.86 31.43 7.22 31.43 7.67L31.43 28.9C31.43 29.34 31.79 29.7 32.24 29.7L39.28 29.7C41.71 29.7 43.82 29.24 45.64 28.3C47.46 27.37 48.87 26.04 49.88 24.34C50.89 22.63 51.4 20.61 51.4 18.28C51.4 15.95 50.9 13.94 49.88 12.23C48.87 10.52 47.46 9.2 45.64 8.27ZM45.97 21.53C45.58 22.43 45.05 23.18 44.37 23.77C43.69 24.35 42.89 24.78 41.99 25.05C41.09 25.33 40.13 25.46 39.12 25.46L37.06 25.46C36.61 25.46 36.25 25.1 36.25 24.66L36.25 11.91C36.25 11.46 36.61 11.1 37.06 11.1L39.12 11.1C40.13 11.1 41.09 11.24 41.99 11.51C42.89 11.78 43.69 12.21 44.37 12.8C45.05 13.39 45.59 14.13 45.97 15.04C46.36 15.94 46.55 17.02 46.55 18.28C46.55 19.55 46.35 20.63 45.97 21.53Z" fill="#F7F8FB" fill-opacity="1.000000" fill-rule="nonzero"/>
	<path id="polygon" d="M60.92 19.96L55.6 7.36C55.48 7.06 55.18 6.87 54.85 6.87L51.24 6.87C50.64 6.87 50.25 7.48 50.51 8.02L60.93 29.53C61.23 30.14 62.11 30.14 62.4 29.53L72.83 8.02C73.09 7.48 72.69 6.87 72.1 6.87L68.45 6.87C68.12 6.87 67.83 7.06 67.7 7.36L62.42 19.96C62.14 20.62 61.19 20.62 60.92 19.96Z" fill="#F7F8FB" fill-opacity="1.000000" fill-rule="nonzero"/>
	<path id="rect" d="M75.91 6.86L79.07 6.86C79.52 6.86 79.88 7.22 79.88 7.67L79.88 28.9C79.88 29.34 79.52 29.7 79.07 29.7L75.91 29.7C75.46 29.7 75.09 29.34 75.09 28.9L75.09 7.67C75.09 7.22 75.46 6.86 75.91 6.86Z" fill="#F7F8FB" fill-opacity="1.000000" fill-rule="evenodd"/>
	<path id="path" d="M118.58 29.68L122.11 29.68C122.71 29.68 123.11 29.06 122.85 28.53L112.42 7.02C112.12 6.41 111.25 6.41 110.95 7.02L101.1 27.35C100.84 27.89 100.11 27.97 99.73 27.52L91.92 18.1C91.67 17.79 91.68 17.35 91.94 17.06L99.86 8.2C100.32 7.69 99.95 6.87 99.25 6.87L95.81 6.87C95.58 6.87 95.35 6.97 95.2 7.14L88.65 14.53C88.15 15.09 87.22 14.74 87.22 14L87.22 7.67C87.22 7.23 86.86 6.87 86.41 6.87L83.18 6.87C82.73 6.87 82.37 7.23 82.37 7.67L82.37 28.9C82.37 29.35 82.73 29.71 83.18 29.71L86.41 29.71C86.86 29.71 87.22 29.35 87.22 28.9L87.22 21.62C87.22 20.86 88.18 20.52 88.66 21.11L95.56 29.41C95.72 29.6 95.95 29.71 96.19 29.71L101.53 29.71C101.54 29.71 101.54 29.7 101.54 29.7C101.54 29.69 101.54 29.68 101.55 29.68L104.76 29.68C105.08 29.68 105.37 29.5 105.5 29.22L107.48 24.96C107.61 24.68 107.9 24.5 108.22 24.5L115.1 24.5C115.42 24.5 115.71 24.68 115.84 24.96L117.84 29.22C117.97 29.5 118.26 29.68 118.58 29.68ZM113.32 20.81L110.04 20.81C109.45 20.81 109.06 20.21 109.29 19.68L110.94 15.95C111.22 15.3 112.15 15.3 112.43 15.95L114.06 19.68C114.29 20.21 113.9 20.81 113.32 20.81Z" fill="#F7F8FB" fill-opacity="1.000000" fill-rule="nonzero"/>
	<path id="path" d="M7.54 13.61L9.45 10.38C9.34 10.32 9.23 10.28 9.12 10.25C9 10.21 8.88 10.19 8.76 10.18C8.64 10.17 8.52 10.16 8.4 10.18C8.28 10.19 8.17 10.21 8.05 10.24C7.93 10.27 7.82 10.32 7.72 10.37C7.61 10.43 7.51 10.49 7.41 10.56C7.32 10.64 7.23 10.72 7.15 10.81C7.07 10.9 7 10.99 6.94 11.1C6.88 11.2 6.83 11.31 6.79 11.42C6.75 11.53 6.72 11.65 6.7 11.77C6.68 11.88 6.68 12 6.68 12.12C6.69 12.24 6.7 12.36 6.73 12.47C6.76 12.59 6.8 12.7 6.85 12.81C6.9 12.92 6.95 13.02 7.02 13.12C7.09 13.22 7.17 13.31 7.26 13.39C7.34 13.47 7.44 13.55 7.54 13.61Z" fill="#F1C804" fill-opacity="1.000000" fill-rule="nonzero"/>
	<path id="path" d="M20.58 13.61C20.68 13.55 20.77 13.47 20.86 13.39C20.95 13.31 21.02 13.22 21.09 13.12C21.16 13.02 21.22 12.92 21.27 12.81C21.32 12.7 21.36 12.59 21.39 12.47C21.41 12.36 21.43 12.24 21.44 12.12C21.44 12 21.43 11.88 21.42 11.77C21.4 11.65 21.37 11.53 21.33 11.42C21.29 11.31 21.24 11.2 21.18 11.1C21.12 10.99 21.05 10.9 20.97 10.81C20.89 10.72 20.8 10.64 20.71 10.56C20.61 10.49 20.51 10.43 20.4 10.37C20.29 10.32 20.18 10.27 20.07 10.24C19.95 10.21 19.83 10.19 19.71 10.18C19.59 10.16 19.47 10.17 19.35 10.18C19.23 10.19 19.11 10.21 19 10.25C18.88 10.28 18.77 10.32 18.67 10.38L20.58 13.61Z" fill="#F1C804" fill-opacity="1.000000" fill-rule="nonzero"/>
	<path id="path" d="M13.73 17.79L10.55 23.19C10.45 23.36 10.77 23.63 10.94 23.52C11.32 23.3 11.71 23.11 12.12 22.97C12.21 22.94 12.3 22.87 12.35 22.79L13.74 20.43C13.89 20.17 14.28 20.17 14.44 20.43L15.84 22.81C15.89 22.89 15.97 22.96 16.06 22.99C16.5 23.14 16.91 23.35 17.29 23.6C17.45 23.7 17.77 23.43 17.68 23.28L14.44 17.79C14.28 17.53 13.89 17.53 13.73 17.79Z" fill="#F1C804" fill-opacity="1.000000" fill-rule="nonzero"/>
	<path id="path" d="M15.88 24.89L15.88 24.88L15.88 24.88L14.9 23.36C14.51 22.75 13.63 22.75 13.24 23.36L12.4 24.65C12.3 24.8 12.18 24.94 12.05 25.07C11.98 25.14 11.92 25.21 11.86 25.28C11.81 25.36 11.75 25.43 11.7 25.51C11.65 25.59 11.61 25.67 11.56 25.76C11.52 25.84 11.49 25.92 11.45 26.01C11.42 26.1 11.39 26.19 11.37 26.28C11.34 26.37 11.32 26.46 11.31 26.55C11.3 26.64 11.29 26.74 11.28 26.83C11.28 26.92 11.28 27.01 11.28 27.11C11.29 27.2 11.3 27.29 11.31 27.38C11.32 27.48 11.34 27.57 11.37 27.66C11.39 27.75 11.42 27.84 11.45 27.92C11.48 28.01 11.52 28.1 11.56 28.18C11.6 28.26 11.65 28.34 11.7 28.42C11.75 28.5 11.8 28.58 11.86 28.65C11.92 28.73 11.98 28.8 12.04 28.86C12.11 28.93 12.17 29 12.25 29.06C12.32 29.12 12.39 29.17 12.47 29.23C12.55 29.28 12.63 29.33 12.71 29.37C12.79 29.42 12.88 29.46 12.96 29.5C13.05 29.53 13.14 29.57 13.23 29.59C13.32 29.62 13.41 29.65 13.5 29.66C13.59 29.68 13.68 29.7 13.78 29.71C13.87 29.72 13.97 29.72 14.06 29.72C14.15 29.72 14.25 29.72 14.34 29.71C14.44 29.7 14.53 29.68 14.62 29.66C14.71 29.65 14.8 29.62 14.89 29.59C14.98 29.57 15.07 29.53 15.16 29.5C15.24 29.46 15.33 29.42 15.41 29.37C15.49 29.33 15.57 29.28 15.65 29.23C15.73 29.17 15.8 29.12 15.87 29.06C15.94 29 16.01 28.93 16.08 28.86C16.14 28.8 16.2 28.73 16.26 28.65C16.32 28.58 16.37 28.5 16.42 28.42C16.47 28.34 16.52 28.26 16.56 28.18C16.6 28.1 16.64 28.01 16.67 27.92C16.7 27.84 16.73 27.75 16.75 27.66C16.78 27.57 16.8 27.48 16.81 27.38C16.82 27.29 16.83 27.2 16.84 27.11C16.84 27.01 16.84 26.92 16.84 26.83C16.83 26.74 16.82 26.64 16.81 26.55C16.79 26.46 16.78 26.37 16.75 26.28C16.73 26.19 16.7 26.1 16.67 26.01C16.63 25.92 16.6 25.84 16.56 25.76C16.51 25.67 16.47 25.59 16.42 25.51C16.37 25.43 16.31 25.36 16.26 25.28C16.2 25.21 16.14 25.14 16.07 25.07C16.01 25.01 15.94 24.95 15.88 24.89ZM14.06 28.37C13.97 28.37 13.88 28.36 13.79 28.34C13.7 28.32 13.61 28.3 13.53 28.26C13.44 28.23 13.36 28.18 13.28 28.13C13.21 28.08 13.14 28.03 13.07 27.96C13.01 27.9 12.95 27.83 12.9 27.75C12.85 27.68 12.8 27.6 12.77 27.51C12.73 27.43 12.71 27.34 12.69 27.25C12.67 27.16 12.66 27.07 12.66 26.98C12.66 26.89 12.67 26.8 12.69 26.71C12.71 26.62 12.73 26.54 12.77 26.45C12.8 26.37 12.85 26.29 12.9 26.21C12.95 26.14 13.01 26.07 13.07 26C13.14 25.94 13.21 25.88 13.28 25.83C13.36 25.78 13.44 25.74 13.53 25.7C13.61 25.67 13.7 25.64 13.79 25.62C13.88 25.61 13.97 25.6 14.06 25.6C14.15 25.6 14.24 25.61 14.34 25.62C14.43 25.64 14.51 25.67 14.6 25.7C14.68 25.74 14.76 25.78 14.84 25.83C14.92 25.88 14.99 25.94 15.05 26C15.12 26.07 15.18 26.14 15.23 26.21C15.28 26.29 15.32 26.37 15.36 26.45C15.39 26.54 15.42 26.62 15.44 26.71C15.45 26.8 15.46 26.89 15.46 26.98C15.46 27.07 15.45 27.16 15.44 27.25C15.42 27.34 15.39 27.43 15.36 27.51C15.32 27.6 15.28 27.68 15.23 27.75C15.18 27.83 15.12 27.9 15.05 27.96C14.99 28.03 14.92 28.08 14.84 28.13C14.76 28.18 14.68 28.23 14.6 28.26C14.51 28.3 14.43 28.32 14.33 28.34C14.24 28.36 14.15 28.37 14.06 28.37Z" fill="#F7F8FB" fill-opacity="1.000000" fill-rule="nonzero"/>
	<path id="polygon" d="M4.39 21.97L0.52 28.52C0.2 29.06 0.59 29.73 1.22 29.73L4.82 29.73C5.11 29.73 5.37 29.58 5.52 29.33L8.71 23.95C8.96 23.52 8.77 22.98 8.31 22.79L5.4 21.63C5.02 21.48 4.59 21.62 4.39 21.97Z" fill="#F7F8FB" fill-opacity="1.000000" fill-rule="nonzero"/>
	<path id="polygon" d="M22.78 21.64L19.89 22.8C19.43 22.98 19.24 23.53 19.49 23.95L22.69 29.33C22.83 29.58 23.1 29.73 23.39 29.73L26.95 29.73C27.58 29.73 27.97 29.06 27.65 28.52L23.79 21.98C23.59 21.63 23.16 21.49 22.78 21.64Z" fill="#F7F8FB" fill-opacity="1.000000" fill-rule="nonzero"/>
	<path id="polygon" d="M22.01 18.97L14.79 6.74C14.47 6.21 13.7 6.21 13.38 6.74L6.17 18.96C5.92 19.38 6.11 19.92 6.57 20.11L9.48 21.27C9.85 21.42 10.28 21.28 10.49 20.93L13.38 16.04C13.7 15.5 14.47 15.5 14.79 16.03L17.7 20.94C17.91 21.29 18.34 21.43 18.71 21.28L21.61 20.12C22.07 19.93 22.26 19.39 22.01 18.97Z" fill="#F7F8FB" fill-opacity="1.000000" fill-rule="nonzero"/>
	<g opacity="0.500000">
		<path id="polygon" d="M0.73 34.22L0 34.22L0 39.72L0.73 39.72L1.09 39.72L3.53 39.72L3.53 38.76L1.09 38.76L1.09 37.26L3.37 37.26L3.37 36.33L1.09 36.33L1.09 35.17L3.53 35.17L3.53 34.22L1.09 34.22L0.73 34.22Z" fill="#FFFFFF" fill-opacity="1.000000" fill-rule="nonzero"/>
		<path id="polygon" d="M15.96 37.62L12.01 33.94L12.01 39.71L13.1 39.71L13.1 36.3L17.06 39.99L17.06 34.21L15.96 34.21L15.96 37.62Z" fill="#FFFFFF" fill-opacity="1.000000" fill-rule="nonzero"/>
		<path id="polygon" d="M25.07 35.23L26.56 35.23L26.56 39.72L27.7 39.72L27.7 35.23L29.2 35.23L29.2 34.22L25.07 34.22L25.07 35.23Z" fill="#FFFFFF" fill-opacity="1.000000" fill-rule="nonzero"/>
		<path id="polygon" d="M37.93 34.22L37.2 34.22L37.2 39.72L37.93 39.72L38.29 39.72L40.73 39.72L40.73 38.76L38.29 38.76L38.29 37.26L40.57 37.26L40.57 36.33L38.29 36.33L38.29 35.17L40.73 35.17L40.73 34.22L38.29 34.22L37.93 34.22Z" fill="#FFFFFF" fill-opacity="1.000000" fill-rule="nonzero"/>
		<path id="path" d="M52.19 37.5C52.5 37.35 52.74 37.15 52.9 36.88C53.07 36.62 53.15 36.31 53.15 35.97C53.15 35.62 53.07 35.31 52.9 35.05C52.74 34.79 52.5 34.58 52.19 34.44C51.89 34.29 51.51 34.22 51.07 34.22L49.21 34.22L49.21 39.72L50.34 39.72L50.34 37.72L50.84 37.72L52.14 39.72L53.48 39.72L51.98 37.59C52.05 37.56 52.12 37.53 52.19 37.5ZM50.34 35.17L51 35.17C51.2 35.17 51.38 35.21 51.52 35.27C51.66 35.33 51.78 35.43 51.86 35.56C51.94 35.68 51.98 35.83 51.98 36C51.98 36.17 51.94 36.32 51.86 36.44C51.78 36.57 51.66 36.66 51.52 36.73C51.38 36.79 51.2 36.82 51 36.82L50.34 36.82L50.34 35.17Z" fill="#FFFFFF" fill-opacity="1.000000" fill-rule="nonzero"/>
		<path id="path" d="M64.41 34.43C64.1 34.29 63.72 34.22 63.28 34.22L61.49 34.22L61.49 39.72L62.62 39.72L62.62 37.72L63.28 37.72C63.72 37.72 64.1 37.65 64.41 37.51C64.72 37.37 64.96 37.16 65.12 36.9C65.28 36.63 65.37 36.32 65.37 35.97C65.37 35.61 65.28 35.3 65.12 35.03C64.96 34.77 64.72 34.57 64.41 34.43ZM64 36.56C63.82 36.7 63.58 36.77 63.28 36.77L62.62 36.77L62.62 35.17L63.28 35.17C63.59 35.17 63.82 35.23 64 35.37C64.17 35.5 64.26 35.7 64.26 35.97C64.26 36.23 64.17 36.43 64 36.56Z" fill="#FFFFFF" fill-opacity="1.000000" fill-rule="nonzero"/>
		<path id="path" d="M76.59 37.5C76.9 37.35 77.13 37.15 77.3 36.88C77.46 36.62 77.54 36.31 77.54 35.97C77.54 35.62 77.46 35.31 77.3 35.05C77.13 34.79 76.9 34.58 76.59 34.44C76.28 34.29 75.91 34.22 75.47 34.22L73.6 34.22L73.6 39.72L74.74 39.72L74.74 37.72L75.23 37.72L76.53 39.72L77.88 39.72L76.37 37.59C76.45 37.56 76.52 37.53 76.59 37.5ZM74.74 35.17L75.4 35.17C75.6 35.17 75.77 35.21 75.92 35.27C76.06 35.33 76.17 35.43 76.26 35.56C76.34 35.68 76.37 35.83 76.37 36C76.37 36.17 76.34 36.32 76.26 36.44C76.17 36.57 76.06 36.66 75.92 36.73C75.77 36.79 75.6 36.82 75.4 36.82L74.74 36.82L74.74 35.17Z" fill="#FFFFFF" fill-opacity="1.000000" fill-rule="nonzero"/>
		<rect id="rect" x="85.886475" y="34.220703" width="1.152603" height="5.499428" fill="#FFFFFF" fill-opacity="1.000000"/>
		<path id="path" d="M99 37.08C98.87 36.94 98.71 36.83 98.55 36.73C98.38 36.64 98.21 36.56 98.03 36.5C97.79 36.42 97.55 36.33 97.33 36.22C97.14 36.13 97 36.03 96.91 35.93C96.82 35.83 96.78 35.71 96.78 35.57C96.78 35.44 96.83 35.32 96.95 35.21C97.06 35.11 97.22 35.06 97.45 35.06C97.61 35.06 97.76 35.09 97.9 35.16C98.03 35.23 98.15 35.31 98.25 35.42C98.36 35.53 98.45 35.65 98.52 35.78L99.41 35.29C99.31 35.08 99.17 34.9 99.01 34.73C98.82 34.54 98.61 34.39 98.36 34.28C98.11 34.16 97.8 34.1 97.45 34.1C97.1 34.1 96.79 34.16 96.51 34.29C96.24 34.4 96.02 34.58 95.85 34.81C95.69 35.04 95.61 35.31 95.61 35.63C95.61 35.89 95.66 36.11 95.76 36.3C95.86 36.48 95.99 36.64 96.14 36.77C96.29 36.9 96.46 37 96.63 37.08C96.8 37.17 96.96 37.23 97.09 37.28C97.34 37.37 97.55 37.46 97.72 37.54C97.89 37.62 98.02 37.71 98.11 37.82C98.2 37.92 98.24 38.06 98.24 38.24C98.24 38.43 98.17 38.59 98.03 38.71C97.88 38.82 97.7 38.88 97.47 38.88C97.28 38.88 97.09 38.84 96.92 38.75C96.74 38.66 96.59 38.55 96.46 38.4C96.31 38.23 96.18 38.06 96.07 37.86L95.26 38.43C95.39 38.7 95.56 38.93 95.77 39.14C95.99 39.37 96.25 39.54 96.54 39.67C96.84 39.8 97.16 39.86 97.49 39.86C97.74 39.86 97.98 39.82 98.22 39.75C98.44 39.67 98.65 39.56 98.84 39.42C99.03 39.27 99.17 39.1 99.28 38.89C99.38 38.68 99.44 38.44 99.44 38.17C99.44 37.96 99.4 37.75 99.32 37.55C99.25 37.37 99.14 37.21 99 37.08Z" fill="#FFFFFF" fill-opacity="1.000000" fill-rule="nonzero"/>
		<path id="polygon" d="M108.45 34.22L107.72 34.22L107.72 39.72L108.45 39.72L108.81 39.72L111.25 39.72L111.25 38.76L108.81 38.76L108.81 37.26L111.1 37.26L111.1 36.33L108.81 36.33L108.81 35.17L111.25 35.17L111.25 34.22L108.81 34.22L108.45 34.22Z" fill="#FFFFFF" fill-opacity="1.000000" fill-rule="nonzero"/>
		<path id="path" d="M123.46 37.55C123.39 37.37 123.28 37.21 123.14 37.08C123.01 36.94 122.86 36.83 122.69 36.73C122.52 36.64 122.35 36.56 122.17 36.5C121.93 36.42 121.7 36.33 121.47 36.22C121.28 36.13 121.15 36.03 121.06 35.93C120.96 35.83 120.92 35.71 120.92 35.57C120.92 35.44 120.98 35.32 121.09 35.21C121.2 35.11 121.37 35.06 121.59 35.06C121.75 35.06 121.9 35.09 122.04 35.16C122.17 35.23 122.29 35.31 122.39 35.42C122.5 35.53 122.59 35.65 122.66 35.78L123.55 35.29C123.45 35.08 123.31 34.9 123.15 34.73C122.96 34.54 122.75 34.39 122.51 34.28C122.25 34.16 121.94 34.1 121.59 34.1C121.24 34.1 120.93 34.16 120.65 34.29C120.38 34.4 120.16 34.58 119.99 34.81C119.83 35.04 119.75 35.31 119.75 35.63C119.75 35.89 119.8 36.11 119.9 36.3C120 36.48 120.13 36.64 120.28 36.77C120.43 36.9 120.6 37 120.77 37.08C120.95 37.17 121.1 37.23 121.23 37.28C121.48 37.37 121.69 37.46 121.86 37.54C122.03 37.62 122.16 37.71 122.25 37.82C122.34 37.92 122.38 38.06 122.38 38.24C122.38 38.43 122.31 38.59 122.17 38.71C122.03 38.82 121.84 38.88 121.61 38.88C121.42 38.88 121.24 38.84 121.06 38.75C120.89 38.66 120.73 38.55 120.6 38.4C120.45 38.23 120.32 38.06 120.21 37.86L119.4 38.43C119.53 38.7 119.7 38.93 119.91 39.14C120.13 39.37 120.39 39.54 120.68 39.67C120.98 39.8 121.3 39.86 121.63 39.86C121.88 39.86 122.12 39.82 122.36 39.75C122.58 39.67 122.79 39.56 122.98 39.42C123.17 39.27 123.31 39.1 123.42 38.89C123.52 38.68 123.58 38.44 123.58 38.17C123.58 37.96 123.54 37.75 123.46 37.55Z" fill="#FFFFFF" fill-opacity="1.000000" fill-rule="nonzero"/>
	</g>
	<path id="path" d="M137.84 7.3C139.41 7.3 140.7 7.48 141.69 7.85C142.43 8.13 143.12 8.48 143.77 8.9C143.99 9.05 144.11 9.29 144.11 9.55L144.11 11.39C144.11 11.49 144 11.54 143.93 11.49C143.13 10.94 142.26 10.52 141.34 10.22C140.38 9.9 139.28 9.74 138.07 9.74C136.59 9.74 135.19 10.08 133.92 10.76C132.65 11.44 131.6 12.42 130.81 13.68C130.02 14.95 129.62 16.45 129.62 18.16C129.62 19.85 130.02 21.35 130.81 22.62C131.6 23.89 132.64 24.88 133.92 25.56C135.19 26.24 136.59 26.58 138.08 26.58C139.28 26.58 140.38 26.42 141.34 26.11C142.26 25.81 143.13 25.38 143.93 24.83C144.01 24.78 144.12 24.83 144.12 24.93L144.12 26.77C144.12 27.03 143.99 27.28 143.77 27.42C143.12 27.85 142.43 28.2 141.69 28.47C140.7 28.84 139.41 29.03 137.84 29.03C136.22 29.03 134.69 28.76 133.31 28.24C131.94 27.73 130.73 26.98 129.73 26.02C128.72 25.05 127.93 23.9 127.38 22.59C126.83 21.27 126.55 19.78 126.55 18.16C126.55 16.54 126.83 15.05 127.38 13.73C127.93 12.42 128.72 11.27 129.73 10.31C130.73 9.34 131.94 8.59 133.31 8.08C134.69 7.56 136.22 7.3 137.84 7.3ZM137.84 6.28C136.08 6.28 134.45 6.57 132.94 7.13C131.43 7.7 130.12 8.51 129.01 9.58C127.9 10.65 127.04 11.9 126.44 13.35C125.83 14.79 125.53 16.4 125.53 18.16C125.53 19.92 125.83 21.53 126.44 22.97C127.04 24.42 127.9 25.68 129.01 26.74C130.12 27.81 131.43 28.63 132.94 29.19C134.45 29.76 136.08 30.04 137.84 30.04C139.54 30.04 140.94 29.83 142.05 29.42C143.05 29.05 143.97 28.55 144.83 27.93C145.03 27.78 145.14 27.55 145.14 27.3L145.14 24.56C145.14 23.82 144.15 23.42 143.55 23.86C143.48 23.9 143.41 23.95 143.34 24C142.65 24.48 141.87 24.86 141.01 25.14C140.15 25.43 139.17 25.57 138.07 25.57C136.75 25.57 135.53 25.27 134.41 24.67C133.29 24.07 132.38 23.21 131.69 22.09C130.99 20.97 130.64 19.66 130.64 18.16C130.64 16.64 130.99 15.32 131.69 14.21C132.38 13.1 133.29 12.25 134.41 11.65C135.53 11.05 136.75 10.75 138.07 10.75C139.17 10.75 140.15 10.9 141.01 11.18C141.87 11.46 142.65 11.84 143.34 12.32C143.41 12.37 143.48 12.42 143.55 12.47C144.15 12.91 145.14 12.51 145.14 11.77L145.14 9.02C145.14 8.78 145.03 8.54 144.83 8.4C143.98 7.77 143.05 7.27 142.05 6.9C140.94 6.49 139.54 6.28 137.84 6.28Z" fill="#FFFFFF" fill-opacity="1.000000" fill-rule="nonzero"/>
	<path id="path" d="M151.87 8.56L151.87 25.72C151.87 26.16 152.24 26.52 152.69 26.52L160.27 26.52C160.72 26.52 161.08 26.88 161.08 27.33L161.08 27.77C161.08 28.21 160.72 28.57 160.27 28.57L150.02 28.57C149.57 28.57 149.2 28.21 149.2 27.77L149.2 8.56C149.2 8.12 149.57 7.76 150.02 7.76L151.06 7.76C151.51 7.76 151.87 8.12 151.87 8.56ZM152.09 6.74L148.99 6.74C148.54 6.74 148.18 7.1 148.18 7.55L148.18 28.78C148.18 29.23 148.54 29.59 148.99 29.59L161.3 29.59C161.75 29.59 162.11 29.23 162.11 28.78L162.11 26.31C162.11 25.87 161.75 25.51 161.3 25.51L153.71 25.51C153.26 25.51 152.9 25.15 152.9 24.7L152.9 7.55C152.9 7.1 152.53 6.74 152.09 6.74Z" fill="#FFFFFF" fill-opacity="1.000000" fill-rule="nonzero"/>
	<path id="path" d="M173.07 7.3C174.69 7.3 176.2 7.56 177.55 8.09C178.89 8.62 180.08 9.37 181.09 10.34C182.09 11.3 182.88 12.46 183.43 13.77C183.98 15.09 184.26 16.56 184.26 18.16C184.26 19.74 183.98 21.22 183.43 22.56C182.88 23.9 182.1 25.08 181.11 26.06C180.12 27.05 178.94 27.82 177.59 28.37C176.23 28.91 174.71 29.19 173.07 29.19C171.43 29.19 169.91 28.91 168.55 28.37C167.2 27.82 166.01 27.05 165.01 26.06C164.02 25.07 163.24 23.9 162.7 22.57C162.16 21.22 161.88 19.74 161.88 18.16C161.88 16.57 162.16 15.09 162.72 13.77C163.28 12.46 164.07 11.3 165.07 10.34C166.07 9.37 167.26 8.62 168.61 8.09C169.97 7.56 171.47 7.3 173.07 7.3ZM173.07 26.71C174.69 26.71 176.13 26.33 177.37 25.59C178.6 24.84 179.58 23.81 180.27 22.52C180.95 21.24 181.29 19.78 181.29 18.16C181.29 16.54 180.95 15.08 180.29 13.81C179.61 12.52 178.64 11.49 177.4 10.74C176.17 9.99 174.71 9.61 173.07 9.61C171.46 9.61 170.01 9.99 168.77 10.74C167.54 11.48 166.56 12.51 165.86 13.8C165.17 15.07 164.82 16.54 164.82 18.16C164.82 19.78 165.17 21.25 165.86 22.53C166.56 23.81 167.54 24.84 168.77 25.59C170.01 26.33 171.46 26.71 173.07 26.71ZM173.07 6.28C171.33 6.28 169.72 6.57 168.24 7.15C166.75 7.73 165.46 8.55 164.35 9.61C163.25 10.68 162.39 11.93 161.78 13.38C161.16 14.83 160.85 16.42 160.85 18.16C160.85 19.88 161.15 21.47 161.75 22.94C162.34 24.41 163.19 25.69 164.29 26.78C165.39 27.86 166.68 28.71 168.17 29.31C169.65 29.9 171.29 30.2 173.07 30.2C174.85 30.2 176.49 29.9 177.97 29.31C179.46 28.71 180.75 27.86 181.84 26.78C182.93 25.69 183.77 24.41 184.38 22.94C184.98 21.47 185.29 19.88 185.29 18.16C185.29 16.42 184.98 14.83 184.38 13.38C183.77 11.93 182.91 10.68 181.8 9.61C180.69 8.55 179.4 7.73 177.92 7.15C176.45 6.57 174.83 6.28 173.07 6.28ZM173.07 25.7C171.64 25.7 170.39 25.37 169.31 24.72C168.23 24.07 167.38 23.18 166.77 22.04C166.15 20.91 165.84 19.62 165.84 18.16C165.84 16.7 166.15 15.41 166.76 14.28C167.38 13.15 168.23 12.26 169.31 11.6C170.39 10.95 171.64 10.62 173.07 10.62C174.52 10.62 175.79 10.95 176.87 11.6C177.95 12.26 178.78 13.15 179.38 14.28C179.97 15.41 180.27 16.7 180.27 18.16C180.27 19.62 179.96 20.91 179.36 22.04C178.75 23.18 177.91 24.07 176.83 24.72C175.76 25.37 174.5 25.7 173.07 25.7Z" fill="#FFFFFF" fill-opacity="1.000000" fill-rule="nonzero"/>
	<path id="path" d="M203.81 8.56L203.81 22.08C203.81 23.29 203.61 24.35 203.23 25.24C202.85 26.12 202.31 26.86 201.63 27.46C200.93 28.06 200.1 28.52 199.16 28.84C198.19 29.16 197.12 29.32 195.98 29.32C194.82 29.32 193.75 29.16 192.78 28.84C191.84 28.53 191.01 28.06 190.33 27.46C189.65 26.87 189.12 26.12 188.74 25.24C188.35 24.35 188.16 23.29 188.16 22.08L188.16 8.56C188.16 8.12 188.52 7.76 188.97 7.76L190.02 7.76C190.47 7.76 190.83 8.12 190.83 8.56L190.83 21.79C190.83 23.34 191.26 24.62 192.12 25.6C193.01 26.62 194.31 27.14 195.98 27.14C197.65 27.14 198.95 26.62 199.85 25.6C200.7 24.62 201.14 23.34 201.14 21.79L201.14 8.56C201.14 8.12 201.5 7.76 201.95 7.76L202.99 7.76C203.44 7.76 203.81 8.12 203.81 8.56ZM204.02 6.75L200.92 6.75C200.47 6.75 200.11 7.11 200.11 7.55L200.11 21.79C200.11 23.09 199.76 24.14 199.07 24.94C198.38 25.73 197.35 26.13 195.98 26.13C194.62 26.13 193.59 25.73 192.9 24.94C192.2 24.14 191.86 23.09 191.86 21.79L191.86 7.55C191.86 7.11 191.49 6.75 191.04 6.75L187.95 6.75C187.5 6.75 187.14 7.11 187.14 7.55L187.14 22.08C187.14 23.43 187.36 24.62 187.8 25.64C188.24 26.66 188.85 27.52 189.64 28.22C190.44 28.91 191.37 29.44 192.45 29.8C193.53 30.16 194.71 30.34 195.98 30.34C197.24 30.34 198.4 30.16 199.48 29.8C200.56 29.44 201.5 28.91 202.31 28.22C203.11 27.52 203.73 26.66 204.17 25.64C204.61 24.62 204.83 23.43 204.83 22.08L204.83 7.55C204.83 7.11 204.47 6.75 204.02 6.75Z" fill="#FFFFFF" fill-opacity="1.000000" fill-rule="nonzero"/>
	<path id="path" d="M215.86 7.76C216.99 7.76 218.06 7.87 219.04 8.08C219.98 8.29 220.88 8.61 221.74 9.05C222.54 9.46 223.27 9.97 223.93 10.58C224.58 11.18 225.12 11.87 225.57 12.62C226.04 13.42 226.38 14.26 226.6 15.15C226.83 16.08 226.95 17.09 226.95 18.17C226.95 19.24 226.83 20.26 226.6 21.18C226.38 22.07 226.04 22.91 225.57 23.71C225.12 24.47 224.58 25.15 223.93 25.75C223.27 26.36 222.54 26.87 221.74 27.28C220.88 27.72 219.98 28.04 219.04 28.25C218.06 28.46 216.99 28.57 215.86 28.57L209.84 28.57C209.39 28.57 209.02 28.21 209.02 27.77L209.02 8.56C209.02 8.12 209.39 7.76 209.84 7.76L215.86 7.76ZM212.61 26.36L215.69 26.36C216.8 26.36 217.87 26.21 218.86 25.91C219.9 25.59 220.83 25.09 221.62 24.41C222.41 23.72 223.04 22.85 223.49 21.81C223.92 20.78 224.15 19.56 224.15 18.16C224.15 16.77 223.92 15.55 223.49 14.52C223.04 13.48 222.41 12.6 221.62 11.92C220.83 11.24 219.9 10.74 218.86 10.42C217.87 10.12 216.8 9.97 215.69 9.97L212.61 9.97C212.16 9.97 211.8 10.33 211.8 10.78L211.8 25.55C211.8 26 212.16 26.36 212.61 26.36ZM215.86 6.74L208.81 6.74C208.36 6.74 208 7.1 208 7.55L208 28.78C208 29.22 208.36 29.58 208.81 29.58L215.86 29.58C218.28 29.58 220.4 29.12 222.21 28.18C224.03 27.25 225.44 25.92 226.46 24.22C227.47 22.51 227.97 20.49 227.97 18.16C227.98 15.83 227.47 13.82 226.46 12.11C225.44 10.4 224.03 9.08 222.21 8.14C220.4 7.21 218.28 6.74 215.86 6.74ZM212.82 24.54L212.82 11.79C212.82 11.35 213.18 10.99 213.63 10.99L215.69 10.99C216.71 10.99 217.66 11.12 218.57 11.39C219.47 11.67 220.26 12.1 220.94 12.68C221.63 13.27 222.16 14.02 222.54 14.92C222.93 15.82 223.12 16.9 223.12 18.16C223.12 19.43 222.93 20.51 222.54 21.41C222.16 22.31 221.63 23.06 220.94 23.65C220.26 24.23 219.47 24.66 218.57 24.94C217.66 25.21 216.71 25.34 215.69 25.34L213.63 25.34C213.18 25.34 212.82 24.98 212.82 24.54Z" fill="#FFFFFF" fill-opacity="1.000000" fill-rule="nonzero"/>
	<path id="path" d="M79.88 0.8L79.88 3.92C79.88 4.37 79.52 4.73 79.07 4.73L75.91 4.73C75.46 4.73 75.09 4.37 75.09 3.92L75.09 0.8C75.09 0.36 75.46 0 75.91 0L79.07 0C79.52 0 79.88 0.36 79.88 0.8Z" fill="#F1C804" fill-opacity="1.000000" fill-rule="nonzero"/>
</svg>
