<svg width="253.977448" height="44.992279" viewBox="0 0 253.977 44.9923" fill="none" xmlns="http://www.w3.org/2000/svg" xmlns:xlink="http://www.w3.org/1999/xlink">
	<desc>
			Created with Pixso.
	</desc>
	<defs/>
	<path id="path" d="M23.36 8.21C22.18 5.12 19.18 2.92 15.66 2.92C12.14 2.92 9.13 5.13 7.96 8.23C7.81 8.27 7.67 8.32 7.53 8.38C7.4 8.43 7.26 8.49 7.13 8.55C6.99 8.62 6.86 8.69 6.73 8.76C6.61 8.84 6.48 8.92 6.36 9C6.24 9.09 6.12 9.18 6.01 9.27C5.89 9.37 5.78 9.47 5.68 9.57C5.57 9.67 5.47 9.78 5.37 9.89C5.27 10 5.18 10.12 5.09 10.24C5 10.36 4.92 10.48 4.84 10.61C4.76 10.73 4.69 10.86 4.62 10.99C4.55 11.12 4.49 11.26 4.43 11.39C4.37 11.53 4.32 11.67 4.27 11.81C4.22 11.95 4.18 12.09 4.15 12.24C4.11 12.38 4.08 12.52 4.06 12.67C4.04 12.82 4.02 12.96 4.01 13.11C4 13.26 3.99 13.41 3.99 13.56C3.99 16.63 6.48 19.11 9.56 19.11C9.99 19.12 10.42 19.07 10.84 18.97C11.26 18.87 11.66 18.72 12.05 18.53C12.09 18.55 12.13 18.57 12.18 18.59C12.17 18.5 12.17 18.41 12.17 18.33C12.17 17.77 12.29 17.24 12.54 16.75C12.36 16.64 12.18 16.53 12 16.41C11.95 16.46 11.89 16.51 11.83 16.55C11.77 16.6 11.71 16.64 11.65 16.68C11.59 16.72 11.52 16.76 11.46 16.8C11.39 16.84 11.33 16.87 11.26 16.91C11.2 16.94 11.13 16.97 11.06 17C10.99 17.03 10.92 17.06 10.85 17.08C10.78 17.11 10.71 17.13 10.64 17.15C10.57 17.18 10.5 17.19 10.42 17.21C10.35 17.23 10.28 17.24 10.21 17.26C10.13 17.27 10.06 17.28 9.98 17.29C9.91 17.3 9.84 17.3 9.76 17.31C9.69 17.31 9.61 17.31 9.54 17.31C9.46 17.31 9.39 17.31 9.31 17.3C9.24 17.3 9.17 17.29 9.09 17.28C9.02 17.27 8.94 17.26 8.87 17.25C8.8 17.24 8.73 17.22 8.65 17.2C8.58 17.18 8.51 17.16 8.44 17.14C8.37 17.12 8.3 17.1 8.23 17.07C8.16 17.04 8.09 17.01 8.02 16.98C7.95 16.95 7.88 16.92 7.82 16.89C7.75 16.85 7.69 16.82 7.62 16.78C7.56 16.74 7.5 16.7 7.44 16.66C7.37 16.62 7.31 16.57 7.25 16.53C7.2 16.48 7.14 16.43 7.08 16.39C7.03 16.34 6.97 16.29 6.92 16.23C6.86 16.18 6.81 16.13 6.76 16.07C6.71 16.02 6.67 15.96 6.62 15.9C6.57 15.84 6.53 15.78 6.48 15.72C6.44 15.66 6.4 15.6 6.36 15.54C6.32 15.47 6.28 15.41 6.25 15.35C6.21 15.28 6.18 15.21 6.15 15.15C6.12 15.08 6.09 15.01 6.06 14.94C6.03 14.87 6.01 14.8 5.98 14.73C5.96 14.66 5.94 14.59 5.92 14.52C5.9 14.45 5.88 14.37 5.87 14.3C5.85 14.23 5.84 14.15 5.83 14.08C5.82 14.01 5.81 13.93 5.81 13.86C5.8 13.78 5.8 13.71 5.79 13.64C5.79 13.56 5.79 13.49 5.8 13.41C5.8 13.34 5.8 13.26 5.81 13.19C5.82 13.12 5.83 13.04 5.84 12.97C5.85 12.9 5.87 12.82 5.88 12.75C5.9 12.68 5.92 12.61 5.94 12.53C5.96 12.46 5.98 12.39 6 12.32C6.03 12.25 6.05 12.18 6.08 12.11C6.11 12.04 6.14 11.98 6.17 11.91C6.21 11.84 6.24 11.78 6.28 11.71C6.32 11.65 6.35 11.58 6.39 11.52C6.43 11.46 6.48 11.4 6.52 11.34C6.56 11.28 6.61 11.22 6.66 11.16C6.71 11.1 6.75 11.05 6.81 10.99C6.86 10.94 6.91 10.89 6.96 10.83C7.02 10.78 7.07 10.73 7.13 10.69C7.19 10.64 7.24 10.59 7.3 10.55C7.36 10.5 7.42 10.46 7.49 10.42C7.55 10.38 7.61 10.34 7.68 10.3C7.74 10.26 7.81 10.23 7.87 10.2C7.94 10.16 8.01 10.13 8.08 10.1C8.15 10.07 8.21 10.05 8.28 10.02C8.36 10 8.43 9.97 8.5 9.95C8.57 9.93 8.64 9.91 8.71 9.89C8.79 9.88 8.86 9.86 8.93 9.85C9.01 9.84 9.08 9.83 9.15 9.82C9.23 9.81 9.3 9.81 9.38 9.8C9.99 6.9 12.57 4.73 15.66 4.73C18.74 4.73 21.32 6.9 21.94 9.79C22.01 9.79 22.09 9.8 22.16 9.8C22.23 9.81 22.31 9.82 22.38 9.83C22.46 9.85 22.53 9.86 22.6 9.88C22.67 9.89 22.75 9.91 22.82 9.93C22.89 9.95 22.96 9.98 23.03 10C23.1 10.03 23.17 10.05 23.24 10.08C23.31 10.11 23.37 10.14 23.44 10.18C23.51 10.21 23.57 10.25 23.64 10.28C23.7 10.32 23.77 10.36 23.83 10.4C23.89 10.44 23.95 10.48 24.01 10.53C24.07 10.57 24.13 10.62 24.19 10.67C24.24 10.71 24.3 10.76 24.35 10.81C24.41 10.87 24.46 10.92 24.51 10.97C24.56 11.03 24.61 11.08 24.66 11.14C24.71 11.2 24.75 11.26 24.8 11.32C24.84 11.38 24.88 11.44 24.92 11.5C24.96 11.56 25 11.63 25.04 11.69C25.08 11.76 25.11 11.82 25.14 11.89C25.18 11.95 25.21 12.02 25.24 12.09C25.27 12.16 25.29 12.23 25.32 12.3C25.34 12.37 25.36 12.44 25.38 12.51C25.4 12.58 25.42 12.66 25.44 12.73C25.46 12.8 25.47 12.87 25.48 12.95C25.49 13.02 25.5 13.09 25.51 13.17C25.52 13.24 25.52 13.32 25.53 13.39C25.53 13.47 25.53 13.54 25.53 13.61C25.53 13.69 25.52 13.76 25.52 13.84C25.51 13.91 25.5 13.99 25.49 14.06C25.48 14.13 25.47 14.21 25.46 14.28C25.44 14.35 25.42 14.42 25.4 14.5C25.39 14.57 25.36 14.64 25.34 14.71C25.32 14.78 25.29 14.85 25.27 14.92C25.24 14.99 25.21 15.06 25.18 15.13C25.15 15.19 25.11 15.26 25.08 15.32C25.04 15.39 25.01 15.45 24.97 15.52C24.93 15.58 24.89 15.64 24.84 15.7C24.8 15.76 24.76 15.82 24.71 15.88C24.66 15.94 24.61 16 24.56 16.05C24.51 16.11 24.46 16.16 24.41 16.21C24.36 16.27 24.3 16.32 24.25 16.37C24.19 16.42 24.13 16.46 24.07 16.51C24.02 16.55 23.96 16.6 23.89 16.64C23.83 16.68 23.77 16.72 23.71 16.76C23.64 16.8 23.58 16.84 23.51 16.87C23.45 16.9 23.38 16.94 23.31 16.97C23.24 17 23.17 17.03 23.1 17.05C23.03 17.08 22.96 17.1 22.89 17.13C22.82 17.15 22.75 17.17 22.68 17.19C22.61 17.21 22.53 17.22 22.46 17.24C22.39 17.25 22.31 17.26 22.24 17.27C22.16 17.28 22.09 17.29 22.02 17.29C21.94 17.3 21.87 17.3 21.79 17.3C21.72 17.3 21.64 17.3 21.57 17.3C21.49 17.29 21.42 17.29 21.35 17.28C21.27 17.27 21.2 17.26 21.12 17.25C21.05 17.23 20.98 17.22 20.91 17.2C20.83 17.18 20.76 17.17 20.69 17.14C20.62 17.12 20.55 17.1 20.48 17.07C20.41 17.05 20.34 17.02 20.27 16.99C20.2 16.96 20.13 16.93 20.07 16.9C20 16.86 19.94 16.83 19.87 16.79C19.81 16.75 19.74 16.71 19.68 16.67C19.62 16.63 19.56 16.59 19.5 16.54C19.44 16.5 19.38 16.45 19.32 16.41C19.14 16.53 18.96 16.65 18.76 16.75C19.01 17.25 19.14 17.77 19.14 18.32C19.14 18.42 19.13 18.51 19.13 18.6C19.18 18.57 19.24 18.55 19.29 18.52C19.67 18.71 20.08 18.86 20.49 18.95C20.91 19.05 21.34 19.1 21.76 19.1C24.84 19.1 27.33 16.61 27.33 13.54C27.33 13.39 27.33 13.24 27.32 13.1C27.31 12.95 27.29 12.8 27.26 12.65C27.24 12.51 27.21 12.36 27.17 12.22C27.14 12.07 27.1 11.93 27.05 11.79C27 11.65 26.95 11.51 26.89 11.38C26.84 11.24 26.77 11.1 26.7 10.97C26.64 10.84 26.56 10.71 26.48 10.59C26.4 10.46 26.32 10.34 26.23 10.22C26.14 10.1 26.05 9.99 25.95 9.87C25.85 9.76 25.75 9.65 25.64 9.55C25.54 9.45 25.43 9.35 25.31 9.25C25.2 9.16 25.08 9.07 24.96 8.99C24.84 8.9 24.71 8.82 24.58 8.74C24.45 8.67 24.32 8.6 24.19 8.54C24.06 8.47 23.92 8.41 23.78 8.36C23.64 8.3 23.5 8.26 23.36 8.21Z" fill="#002175" fill-opacity="1.000000" fill-rule="nonzero"/>
	<path id="path" d="M50.84 9.3C48.82 8.25 46.46 7.73 43.76 7.73L35.92 7.73C35.42 7.73 35.01 8.13 35.01 8.63L35.01 32.52C35.01 33.02 35.42 33.42 35.92 33.42L43.76 33.42C46.46 33.42 48.82 32.9 50.85 31.84C52.87 30.79 54.44 29.31 55.57 27.38C56.7 25.46 57.26 23.19 57.26 20.57C57.26 17.95 56.7 15.68 55.57 13.76C54.44 11.84 52.87 10.36 50.84 9.3ZM51.21 24.23C50.78 25.24 50.19 26.08 49.43 26.74C48.67 27.4 47.79 27.89 46.78 28.19C45.77 28.5 44.71 28.65 43.58 28.65L41.29 28.65C40.79 28.65 40.38 28.24 40.38 27.74L40.38 13.4C40.38 12.9 40.79 12.5 41.29 12.5L43.58 12.5C44.71 12.5 45.78 12.65 46.78 12.96C47.79 13.26 48.67 13.75 49.43 14.41C50.19 15.07 50.78 15.91 51.21 16.92C51.64 17.94 51.86 19.15 51.86 20.57C51.86 21.99 51.64 23.21 51.21 24.23Z" fill="#002175" fill-opacity="1.000000" fill-rule="nonzero"/>
	<path id="polygon" d="M67.86 22.46L61.95 8.28C61.8 7.95 61.47 7.73 61.11 7.73L57.08 7.73C56.42 7.73 55.98 8.42 56.27 9.02L67.88 33.22C68.21 33.91 69.19 33.91 69.52 33.22L81.14 9.02C81.42 8.42 80.99 7.73 80.32 7.73L76.26 7.73C75.89 7.73 75.56 7.95 75.42 8.28L69.54 22.45C69.23 23.2 68.17 23.2 67.86 22.46Z" fill="#002175" fill-opacity="1.000000" fill-rule="nonzero"/>
	<path id="rect" d="M84.56 7.73L88.08 7.73C88.58 7.73 88.99 8.13 88.99 8.63L88.99 32.52C88.99 33.02 88.58 33.42 88.08 33.42L84.56 33.42C84.06 33.42 83.66 33.02 83.66 32.52L83.66 8.63C83.66 8.13 84.06 7.73 84.56 7.73Z" fill="#002175" fill-opacity="1.000000" fill-rule="evenodd"/>
	<path id="path" d="M132.1 33.39L136.04 33.39C136.71 33.39 137.15 32.7 136.86 32.1L125.24 7.89C124.91 7.21 123.93 7.21 123.61 7.89L112.62 30.77C112.34 31.37 111.53 31.47 111.11 30.96L102.4 20.36C102.12 20.02 102.13 19.52 102.43 19.19L111.25 9.23C111.76 8.65 111.35 7.73 110.57 7.73L106.74 7.73C106.48 7.73 106.23 7.84 106.06 8.03L98.76 16.35C98.21 16.97 97.17 16.58 97.17 15.75L97.17 8.63C97.17 8.13 96.76 7.73 96.26 7.73L92.67 7.73C92.17 7.73 91.76 8.13 91.76 8.63L91.76 32.52C91.76 33.02 92.17 33.42 92.67 33.42L96.26 33.42C96.76 33.42 97.17 33.02 97.17 32.52L97.17 24.32C97.17 23.47 98.24 23.09 98.78 23.75L106.46 33.09C106.63 33.3 106.89 33.42 107.16 33.42L113.11 33.42C113.12 33.42 113.12 33.41 113.12 33.41C113.12 33.4 113.12 33.39 113.13 33.39L116.71 33.39C117.06 33.39 117.38 33.19 117.53 32.87L119.74 28.08C119.88 27.76 120.2 27.56 120.56 27.56L128.23 27.56C128.58 27.56 128.9 27.76 129.05 28.08L131.28 32.87C131.43 33.19 131.75 33.39 132.1 33.39ZM126.24 23.41L122.59 23.41C121.93 23.41 121.49 22.74 121.76 22.14L123.59 17.94C123.91 17.22 124.94 17.22 125.25 17.94L127.07 22.14C127.33 22.74 126.89 23.41 126.24 23.41Z" fill="#002175" fill-opacity="1.000000" fill-rule="nonzero"/>
	<path id="path" d="M8.4 15.32L10.53 11.68C10.41 11.62 10.29 11.57 10.16 11.53C10.03 11.49 9.9 11.47 9.76 11.45C9.63 11.44 9.5 11.44 9.36 11.45C9.23 11.47 9.1 11.49 8.97 11.53C8.84 11.56 8.72 11.61 8.6 11.68C8.48 11.74 8.36 11.81 8.26 11.89C8.15 11.97 8.05 12.06 7.97 12.17C7.88 12.27 7.8 12.37 7.73 12.49C7.66 12.61 7.61 12.73 7.56 12.85C7.52 12.98 7.49 13.11 7.47 13.24C7.45 13.37 7.44 13.51 7.44 13.64C7.45 13.78 7.47 13.91 7.5 14.04C7.53 14.17 7.57 14.3 7.63 14.42C7.68 14.54 7.75 14.66 7.83 14.77C7.9 14.88 7.99 14.98 8.09 15.07C8.18 15.16 8.29 15.25 8.4 15.32Z" fill="#F1C804" fill-opacity="1.000000" fill-rule="nonzero"/>
	<path id="path" d="M22.93 15.32C23.04 15.25 23.14 15.16 23.24 15.07C23.34 14.98 23.42 14.88 23.5 14.77C23.58 14.66 23.64 14.54 23.7 14.42C23.75 14.3 23.79 14.17 23.83 14.04C23.86 13.91 23.87 13.78 23.88 13.64C23.89 13.51 23.88 13.37 23.86 13.24C23.84 13.11 23.81 12.98 23.76 12.85C23.72 12.73 23.66 12.61 23.59 12.49C23.53 12.37 23.45 12.27 23.36 12.17C23.27 12.06 23.17 11.97 23.07 11.89C22.96 11.81 22.85 11.74 22.73 11.68C22.61 11.61 22.48 11.56 22.36 11.53C22.23 11.49 22.1 11.47 21.96 11.45C21.83 11.44 21.69 11.44 21.56 11.45C21.43 11.47 21.3 11.49 21.17 11.53C21.04 11.57 20.91 11.62 20.79 11.68L22.93 15.32Z" fill="#F1C804" fill-opacity="1.000000" fill-rule="nonzero"/>
	<path id="path" d="M15.3 20.02L11.75 26.09C11.64 26.29 12 26.59 12.19 26.47C12.61 26.21 13.04 26 13.5 25.84C13.61 25.81 13.7 25.74 13.75 25.64L15.3 22.99C15.48 22.69 15.91 22.69 16.09 22.99L17.65 25.67C17.7 25.76 17.79 25.83 17.9 25.87C18.38 26.04 18.83 26.27 19.26 26.55C19.44 26.67 19.8 26.37 19.69 26.19L16.08 20.02C15.91 19.72 15.48 19.72 15.3 20.02Z" fill="#F1C804" fill-opacity="1.000000" fill-rule="nonzero"/>
	<path id="path" d="M17.69 28C17.68 28 17.69 27.99 17.69 27.99C17.69 27.99 17.69 27.99 17.69 27.99L16.05 25.43C15.88 25.15 15.47 25.15 15.29 25.43L13.68 27.94C13.66 27.97 13.63 28.01 13.6 28.04C13.54 28.09 13.48 28.15 13.42 28.21C13.35 28.28 13.28 28.36 13.22 28.45C13.15 28.53 13.09 28.61 13.04 28.7C12.98 28.79 12.93 28.88 12.88 28.98C12.84 29.07 12.8 29.17 12.76 29.26C12.72 29.36 12.69 29.46 12.66 29.56C12.64 29.66 12.62 29.77 12.6 29.87C12.59 29.97 12.57 30.08 12.57 30.18C12.56 30.29 12.56 30.39 12.57 30.5C12.57 30.6 12.58 30.7 12.6 30.81C12.62 30.91 12.64 31.01 12.66 31.12C12.69 31.22 12.72 31.32 12.76 31.41C12.79 31.51 12.83 31.61 12.88 31.7C12.93 31.8 12.98 31.89 13.03 31.98C13.09 32.07 13.15 32.15 13.21 32.24C13.28 32.32 13.34 32.4 13.42 32.47C13.49 32.55 13.56 32.62 13.64 32.69C13.72 32.76 13.81 32.82 13.89 32.88C13.98 32.94 14.07 33 14.16 33.05C14.25 33.1 14.34 33.14 14.44 33.19C14.54 33.23 14.64 33.26 14.74 33.29C14.84 33.33 14.94 33.35 15.04 33.37C15.14 33.39 15.25 33.41 15.35 33.42C15.45 33.43 15.56 33.44 15.66 33.44C15.77 33.44 15.87 33.43 15.98 33.42C16.08 33.41 16.19 33.39 16.29 33.37C16.39 33.35 16.49 33.33 16.59 33.29C16.69 33.26 16.79 33.23 16.89 33.19C16.98 33.14 17.08 33.1 17.17 33.05C17.26 33 17.35 32.94 17.44 32.88C17.52 32.82 17.6 32.76 17.68 32.69C17.76 32.62 17.84 32.55 17.91 32.47C17.98 32.4 18.05 32.32 18.12 32.24C18.18 32.15 18.24 32.07 18.3 31.98C18.35 31.89 18.4 31.8 18.45 31.7C18.49 31.61 18.54 31.51 18.57 31.41C18.61 31.32 18.64 31.22 18.67 31.12C18.69 31.01 18.71 30.91 18.73 30.81C18.74 30.7 18.75 30.6 18.76 30.5C18.76 30.39 18.76 30.29 18.76 30.18C18.75 30.08 18.74 29.97 18.73 29.87C18.71 29.77 18.69 29.66 18.66 29.56C18.64 29.46 18.61 29.36 18.57 29.26C18.53 29.17 18.49 29.07 18.44 28.98C18.4 28.88 18.35 28.79 18.29 28.7C18.24 28.61 18.18 28.53 18.11 28.45C18.05 28.36 17.98 28.28 17.91 28.21C17.84 28.13 17.76 28.06 17.69 28ZM15.67 31.91C15.56 31.91 15.46 31.9 15.36 31.88C15.26 31.86 15.16 31.83 15.07 31.8C14.97 31.76 14.88 31.71 14.8 31.65C14.71 31.59 14.63 31.53 14.56 31.46C14.49 31.39 14.43 31.31 14.37 31.22C14.31 31.14 14.26 31.05 14.22 30.95C14.19 30.86 14.16 30.76 14.14 30.66C14.12 30.56 14.11 30.46 14.11 30.36C14.11 30.25 14.12 30.15 14.14 30.05C14.16 29.95 14.19 29.85 14.22 29.76C14.26 29.67 14.31 29.58 14.37 29.49C14.43 29.41 14.49 29.33 14.56 29.25C14.64 29.18 14.71 29.12 14.8 29.06C14.88 29 14.97 28.96 15.07 28.92C15.16 28.88 15.26 28.85 15.36 28.83C15.46 28.81 15.56 28.8 15.67 28.8C15.77 28.8 15.87 28.81 15.97 28.83C16.07 28.85 16.17 28.88 16.26 28.92C16.36 28.96 16.45 29 16.53 29.06C16.62 29.12 16.7 29.18 16.77 29.25C16.84 29.33 16.91 29.41 16.96 29.49C17.02 29.58 17.07 29.66 17.11 29.76C17.15 29.85 17.18 29.95 17.2 30.05C17.22 30.15 17.23 30.25 17.23 30.36C17.23 30.46 17.22 30.56 17.2 30.66C17.18 30.76 17.15 30.86 17.11 30.95C17.07 31.05 17.02 31.14 16.96 31.22C16.91 31.31 16.84 31.39 16.77 31.46C16.7 31.53 16.62 31.59 16.53 31.65C16.45 31.71 16.36 31.76 16.26 31.8C16.17 31.83 16.07 31.86 15.97 31.88C15.87 31.9 15.77 31.91 15.67 31.91Z" fill="#002175" fill-opacity="1.000000" fill-rule="nonzero"/>
	<path id="polygon" d="M4.89 24.71L0.58 32.09C0.22 32.69 0.66 33.45 1.36 33.45L5.37 33.45C5.69 33.45 5.99 33.28 6.15 33L9.7 26.94C9.98 26.46 9.77 25.85 9.26 25.64L6.01 24.33C5.59 24.16 5.12 24.33 4.89 24.71Z" fill="#002175" fill-opacity="1.000000" fill-rule="nonzero"/>
	<path id="polygon" d="M25.38 24.34L22.16 25.65C21.64 25.85 21.43 26.47 21.71 26.95L25.27 33C25.44 33.28 25.73 33.45 26.06 33.45L30.03 33.45C30.73 33.45 31.16 32.69 30.81 32.09L26.5 24.73C26.28 24.34 25.8 24.18 25.38 24.34Z" fill="#002175" fill-opacity="1.000000" fill-rule="nonzero"/>
	<path id="polygon" d="M24.52 21.34L16.48 7.58C16.13 6.98 15.26 6.98 14.91 7.58L6.87 21.33C6.59 21.8 6.8 22.42 7.31 22.62L10.56 23.93C10.98 24.1 11.46 23.94 11.68 23.55L14.91 18.04C15.26 17.44 16.13 17.44 16.48 18.04L19.72 23.56C19.95 23.95 20.43 24.11 20.84 23.94L24.08 22.63C24.59 22.43 24.8 21.82 24.52 21.34Z" fill="#002175" fill-opacity="1.000000" fill-rule="nonzero"/>
	<g opacity="0.500000">
		<path id="polygon" d="M0.81 38.49L0 38.49L0 44.68L0.81 44.68L1.22 44.68L3.94 44.68L3.94 43.61L1.22 43.61L1.22 41.92L3.76 41.92L3.76 40.87L1.22 40.87L1.22 39.56L3.94 39.56L3.94 38.49L1.22 38.49L0.81 38.49Z" fill="#000000" fill-opacity="1.000000" fill-rule="nonzero"/>
		<path id="polygon" d="M17.79 42.33L13.38 38.18L13.38 44.68L14.6 44.68L14.6 40.84L19.01 44.99L19.01 38.49L17.79 38.49L17.79 42.33Z" fill="#000000" fill-opacity="1.000000" fill-rule="nonzero"/>
		<path id="polygon" d="M27.92 39.63L29.59 39.63L29.59 44.68L30.86 44.68L30.86 39.63L32.53 39.63L32.53 38.49L27.92 38.49L27.92 39.63Z" fill="#000000" fill-opacity="1.000000" fill-rule="nonzero"/>
		<path id="polygon" d="M42.25 38.49L41.44 38.49L41.44 44.68L42.25 44.68L42.66 44.68L45.38 44.68L45.38 43.61L42.66 43.61L42.66 41.92L45.2 41.92L45.2 40.87L42.66 40.87L42.66 39.56L45.38 39.56L45.38 38.49L42.66 38.49L42.25 38.49Z" fill="#000000" fill-opacity="1.000000" fill-rule="nonzero"/>
		<path id="path" d="M58.15 42.19C58.49 42.02 58.75 41.79 58.94 41.49C59.12 41.19 59.21 40.85 59.21 40.46C59.21 40.07 59.12 39.72 58.94 39.43C58.75 39.13 58.49 38.9 58.15 38.74C57.8 38.57 57.39 38.49 56.9 38.49L54.82 38.49L54.82 44.68L56.08 44.68L56.08 42.43L56.64 42.43L58.09 44.68L59.58 44.68L57.9 42.28C57.99 42.26 58.07 42.22 58.15 42.19ZM56.08 39.57L56.82 39.57C57.04 39.57 57.24 39.61 57.4 39.68C57.56 39.75 57.68 39.85 57.78 40C57.86 40.14 57.91 40.3 57.91 40.5C57.91 40.69 57.86 40.86 57.78 41C57.68 41.14 57.56 41.25 57.4 41.31C57.24 41.39 57.04 41.43 56.82 41.43L56.08 41.43L56.08 39.57Z" fill="#000000" fill-opacity="1.000000" fill-rule="nonzero"/>
		<path id="path" d="M71.75 38.73C71.41 38.57 70.99 38.49 70.5 38.49L68.5 38.49L68.5 44.68L69.76 44.68L69.76 42.43L70.5 42.43C70.99 42.43 71.41 42.35 71.75 42.19C72.1 42.04 72.36 41.81 72.55 41.51C72.73 41.21 72.82 40.86 72.82 40.46C72.82 40.06 72.73 39.71 72.55 39.41C72.36 39.12 72.1 38.89 71.75 38.73ZM71.3 41.13C71.1 41.29 70.84 41.36 70.5 41.36L69.76 41.36L69.76 39.56L70.5 39.56C70.84 39.56 71.1 39.64 71.3 39.79C71.49 39.94 71.59 40.16 71.59 40.46C71.59 40.76 71.49 40.98 71.3 41.13Z" fill="#000000" fill-opacity="1.000000" fill-rule="nonzero"/>
		<path id="path" d="M85.32 42.19C85.67 42.02 85.93 41.79 86.11 41.49C86.29 41.19 86.39 40.85 86.39 40.46C86.39 40.07 86.3 39.72 86.11 39.43C85.93 39.13 85.67 38.9 85.32 38.74C84.98 38.57 84.57 38.49 84.08 38.49L81.99 38.49L81.99 44.68L83.26 44.68L83.26 42.43L83.81 42.43L85.26 44.68L86.76 44.68L85.08 42.28C85.16 42.26 85.25 42.22 85.32 42.19ZM83.26 39.57L84 39.57C84.22 39.57 84.41 39.61 84.58 39.68C84.73 39.75 84.86 39.85 84.95 40C85.04 40.14 85.08 40.3 85.08 40.5C85.08 40.69 85.04 40.86 84.95 41C84.86 41.14 84.73 41.25 84.58 41.31C84.41 41.39 84.22 41.43 84 41.43L83.26 41.43L83.26 39.57Z" fill="#000000" fill-opacity="1.000000" fill-rule="nonzero"/>
		<rect id="rect" x="95.680603" y="38.496201" width="1.284040" height="6.186859" fill="#000000" fill-opacity="1.000000"/>
		<path id="path" d="M110.29 41.71C110.14 41.56 109.97 41.43 109.79 41.33C109.6 41.22 109.41 41.13 109.21 41.06C108.94 40.98 108.68 40.87 108.43 40.75C108.22 40.65 108.07 40.54 107.97 40.42C107.86 40.31 107.81 40.17 107.82 40.02C107.82 39.87 107.88 39.73 108 39.62C108.13 39.5 108.31 39.45 108.56 39.45C108.74 39.44 108.91 39.48 109.07 39.56C109.21 39.63 109.35 39.73 109.46 39.85C109.58 39.97 109.67 40.11 109.76 40.25L110.75 39.7C110.63 39.47 110.48 39.26 110.3 39.07C110.09 38.86 109.86 38.69 109.58 38.57C109.3 38.43 108.96 38.37 108.56 38.37C108.18 38.37 107.83 38.44 107.52 38.58C107.22 38.7 106.97 38.9 106.79 39.17C106.6 39.42 106.51 39.73 106.51 40.08C106.51 40.38 106.57 40.63 106.68 40.84C106.79 41.04 106.93 41.22 107.11 41.37C107.27 41.51 107.46 41.63 107.65 41.72C107.84 41.81 108.01 41.89 108.16 41.94C108.44 42.05 108.67 42.14 108.87 42.24C109.06 42.33 109.2 42.43 109.3 42.55C109.4 42.67 109.45 42.82 109.45 43.02C109.45 43.24 109.37 43.42 109.21 43.55C109.05 43.68 108.84 43.74 108.59 43.74C108.37 43.74 108.17 43.7 107.98 43.6C107.78 43.5 107.61 43.37 107.46 43.2C107.29 43.02 107.15 42.82 107.03 42.6L106.13 43.24C106.27 43.54 106.46 43.8 106.69 44.04C106.94 44.29 107.22 44.49 107.55 44.63C107.89 44.77 108.24 44.85 108.61 44.84C108.88 44.85 109.15 44.8 109.42 44.72C109.67 44.63 109.9 44.51 110.11 44.35C110.32 44.18 110.48 43.98 110.6 43.75C110.72 43.51 110.78 43.24 110.78 42.94C110.78 42.7 110.74 42.47 110.65 42.24C110.56 42.04 110.45 41.87 110.29 41.71Z" fill="#000000" fill-opacity="1.000000" fill-rule="nonzero"/>
		<path id="polygon" d="M120.82 38.49L120 38.49L120 44.68L120.82 44.68L121.22 44.68L123.94 44.68L123.94 43.61L121.22 43.61L121.22 41.92L123.77 41.92L123.77 40.87L121.22 40.87L121.22 39.56L123.94 39.56L123.94 38.49L121.22 38.49L120.82 38.49Z" fill="#000000" fill-opacity="1.000000" fill-rule="nonzero"/>
		<path id="path" d="M137.54 42.24C137.46 42.04 137.34 41.87 137.19 41.71C137.03 41.56 136.87 41.43 136.68 41.33C136.49 41.22 136.3 41.13 136.1 41.06C135.83 40.98 135.57 40.87 135.32 40.75C135.11 40.65 134.96 40.54 134.86 40.42C134.76 40.31 134.71 40.17 134.71 40.02C134.71 39.87 134.77 39.73 134.9 39.62C135.02 39.5 135.21 39.45 135.45 39.45C135.63 39.44 135.8 39.48 135.96 39.56C136.11 39.63 136.24 39.73 136.35 39.85C136.47 39.97 136.57 40.11 136.65 40.25L137.64 39.7C137.52 39.47 137.38 39.26 137.19 39.07C136.99 38.86 136.75 38.69 136.48 38.57C136.19 38.43 135.85 38.37 135.45 38.37C135.07 38.37 134.72 38.44 134.41 38.58C134.11 38.7 133.87 38.9 133.68 39.17C133.5 39.42 133.41 39.73 133.41 40.08C133.41 40.38 133.46 40.63 133.58 40.84C133.68 41.04 133.83 41.22 134 41.37C134.17 41.51 134.35 41.63 134.55 41.72C134.74 41.81 134.91 41.89 135.06 41.94C135.33 42.05 135.57 42.14 135.76 42.24C135.95 42.33 136.1 42.43 136.19 42.55C136.29 42.67 136.34 42.82 136.34 43.02C136.34 43.24 136.26 43.42 136.1 43.55C135.94 43.68 135.73 43.74 135.48 43.74C135.27 43.74 135.06 43.7 134.87 43.6C134.67 43.5 134.5 43.37 134.35 43.2C134.19 43.02 134.04 42.82 133.92 42.6L133.02 43.24C133.16 43.54 133.35 43.8 133.59 44.04C133.83 44.29 134.12 44.49 134.44 44.63C134.78 44.77 135.13 44.85 135.5 44.84C135.78 44.85 136.05 44.8 136.31 44.72C136.56 44.63 136.79 44.51 137 44.35C137.21 44.18 137.37 43.98 137.49 43.75C137.61 43.51 137.67 43.24 137.67 42.94C137.67 42.7 137.63 42.47 137.54 42.24Z" fill="#000000" fill-opacity="1.000000" fill-rule="nonzero"/>
	</g>
	<path id="path" d="M153.56 8.21C155.3 8.21 156.75 8.42 157.85 8.84C158.67 9.15 159.44 9.54 160.17 10.02C160.41 10.18 160.55 10.46 160.55 10.75L160.55 12.82C160.55 12.93 160.43 12.99 160.34 12.93C159.45 12.31 158.49 11.84 157.45 11.5C156.38 11.14 155.16 10.96 153.82 10.96C152.16 10.96 150.61 11.35 149.19 12.11C147.77 12.88 146.61 13.98 145.73 15.4C144.85 16.82 144.4 18.52 144.4 20.44C144.4 22.33 144.85 24.02 145.73 25.46C146.6 26.88 147.77 28 149.2 28.76C150.61 29.52 152.17 29.91 153.82 29.91C155.16 29.91 156.39 29.73 157.46 29.37C158.49 29.04 159.45 28.56 160.34 27.94C160.43 27.88 160.55 27.94 160.55 28.05L160.55 30.12C160.55 30.42 160.41 30.69 160.17 30.85C159.44 31.33 158.67 31.73 157.85 32.03C156.75 32.45 155.3 32.66 153.56 32.66C151.75 32.66 150.05 32.36 148.51 31.78C146.98 31.2 145.64 30.36 144.52 29.27C143.4 28.19 142.52 26.89 141.91 25.42C141.3 23.94 140.99 22.26 140.99 20.44C140.99 18.61 141.3 16.94 141.91 15.46C142.52 13.98 143.4 12.68 144.52 11.6C145.64 10.51 146.98 9.67 148.51 9.09C150.05 8.51 151.75 8.21 153.56 8.21ZM153.56 7.07C151.6 7.07 149.78 7.39 148.1 8.03C146.42 8.66 144.96 9.58 143.72 10.78C142.49 11.98 141.53 13.39 140.86 15.02C140.18 16.65 139.84 18.45 139.84 20.44C139.84 22.42 140.18 24.22 140.86 25.85C141.53 27.48 142.49 28.89 143.72 30.09C144.96 31.29 146.42 32.21 148.1 32.84C149.78 33.48 151.6 33.8 153.56 33.8C155.45 33.8 157.01 33.57 158.25 33.1C159.36 32.68 160.39 32.12 161.34 31.42C161.57 31.26 161.69 31 161.69 30.72L161.69 27.63C161.69 26.8 160.59 26.35 159.92 26.84C159.84 26.9 159.76 26.95 159.69 27.01C158.91 27.55 158.05 27.97 157.09 28.29C156.14 28.61 155.05 28.77 153.82 28.77C152.35 28.77 150.99 28.43 149.74 27.76C148.49 27.09 147.48 26.12 146.7 24.86C145.93 23.6 145.54 22.13 145.54 20.44C145.54 18.72 145.93 17.24 146.7 15.99C147.48 14.75 148.49 13.79 149.74 13.11C150.99 12.44 152.35 12.1 153.82 12.1C155.05 12.1 156.14 12.26 157.09 12.58C158.05 12.9 158.91 13.33 159.69 13.87C159.77 13.92 159.84 13.98 159.92 14.03C160.59 14.52 161.69 14.07 161.69 13.24L161.69 10.15C161.69 9.88 161.57 9.62 161.34 9.45C160.39 8.75 159.36 8.19 158.25 7.77C157.01 7.31 155.45 7.07 153.56 7.07Z" fill="#002175" fill-opacity="1.000000" fill-rule="nonzero"/>
	<path id="path" d="M169.19 9.63L169.19 28.93C169.19 29.43 169.6 29.84 170.1 29.84L178.55 29.84C179.05 29.84 179.45 30.24 179.45 30.74L179.45 31.24C179.45 31.74 179.05 32.15 178.55 32.15L167.12 32.15C166.62 32.15 166.22 31.74 166.22 31.24L166.22 9.63C166.22 9.13 166.62 8.73 167.12 8.73L168.29 8.73C168.79 8.73 169.19 9.13 169.19 9.63ZM169.43 7.59L165.98 7.59C165.48 7.59 165.08 7.99 165.08 8.49L165.08 32.38C165.08 32.88 165.48 33.29 165.98 33.29L179.69 33.29C180.19 33.29 180.6 32.88 180.6 32.38L180.6 29.6C180.6 29.1 180.19 28.7 179.69 28.7L171.24 28.7C170.74 28.7 170.33 28.29 170.33 27.79L170.34 8.49C170.34 7.99 169.93 7.59 169.43 7.59Z" fill="#002175" fill-opacity="1.000000" fill-rule="nonzero"/>
	<path id="path" d="M192.81 8.21C194.61 8.21 196.29 8.51 197.79 9.11C199.29 9.7 200.62 10.55 201.74 11.64C202.86 12.72 203.74 14.02 204.35 15.49C204.96 16.98 205.27 18.64 205.27 20.44C205.27 22.21 204.96 23.88 204.35 25.38C203.73 26.89 202.86 28.22 201.76 29.33C200.66 30.44 199.34 31.31 197.84 31.92C196.33 32.53 194.64 32.84 192.81 32.84C190.98 32.84 189.29 32.53 187.78 31.92C186.27 31.31 184.94 30.43 183.83 29.32C182.72 28.21 181.85 26.89 181.25 25.39C180.65 23.88 180.34 22.22 180.34 20.44C180.34 18.64 180.66 16.98 181.28 15.5C181.91 14.02 182.79 12.72 183.9 11.63C185.01 10.55 186.33 9.7 187.84 9.11C189.35 8.52 191.02 8.21 192.81 8.21ZM192.81 30.06C194.61 30.06 196.22 29.63 197.6 28.79C198.97 27.95 200.06 26.79 200.82 25.34C201.58 23.91 201.97 22.26 201.97 20.44C201.97 18.62 201.59 16.97 200.85 15.54C200.09 14.09 199.01 12.93 197.63 12.09C196.26 11.24 194.63 10.82 192.81 10.82C191.01 10.82 189.4 11.24 188.02 12.09C186.65 12.92 185.56 14.08 184.78 15.53C184 16.96 183.61 18.61 183.61 20.44C183.61 22.26 184 23.91 184.78 25.35C185.56 26.79 186.65 27.95 188.02 28.79C189.4 29.63 191.01 30.06 192.81 30.06ZM192.81 7.07C190.87 7.07 189.08 7.4 187.42 8.05C185.77 8.7 184.32 9.62 183.1 10.82C181.87 12.02 180.92 13.43 180.23 15.06C179.54 16.69 179.2 18.48 179.2 20.44C179.2 22.37 179.53 24.16 180.19 25.82C180.85 27.47 181.8 28.91 183.02 30.13C184.25 31.35 185.69 32.3 187.35 32.97C189 33.65 190.82 33.98 192.81 33.98C194.79 33.98 196.61 33.65 198.27 32.97C199.92 32.3 201.36 31.35 202.57 30.13C203.79 28.9 204.73 27.47 205.4 25.82C206.08 24.16 206.42 22.37 206.42 20.44C206.42 18.48 206.08 16.69 205.4 15.06C204.73 13.43 203.77 12.02 202.54 10.82C201.3 9.62 199.86 8.7 198.21 8.05C196.57 7.4 194.77 7.07 192.81 7.07ZM192.81 28.92C191.21 28.92 189.82 28.55 188.62 27.82C187.41 27.08 186.47 26.08 185.78 24.81C185.1 23.53 184.75 22.08 184.75 20.44C184.75 18.8 185.1 17.34 185.78 16.07C186.47 14.8 187.41 13.79 188.61 13.06C189.82 12.32 191.21 11.96 192.81 11.96C194.43 11.96 195.84 12.32 197.04 13.06C198.24 13.79 199.17 14.8 199.83 16.07C200.49 17.34 200.82 18.8 200.82 20.44C200.82 22.08 200.49 23.53 199.81 24.81C199.14 26.08 198.2 27.08 197 27.82C195.8 28.55 194.4 28.92 192.81 28.92Z" fill="#002175" fill-opacity="1.000000" fill-rule="nonzero"/>
	<path id="path" d="M227.05 9.63L227.05 24.84C227.05 26.2 226.83 27.39 226.4 28.4C225.98 29.38 225.38 30.22 224.62 30.89C223.85 31.57 222.92 32.09 221.87 32.44C220.79 32.81 219.6 32.99 218.33 32.99C217.04 32.99 215.84 32.81 214.76 32.44C213.71 32.09 212.79 31.57 212.03 30.89C211.28 30.23 210.68 29.39 210.26 28.4C209.83 27.39 209.62 26.2 209.62 24.84L209.62 9.63C209.62 9.13 210.02 8.73 210.52 8.73L211.69 8.73C212.19 8.73 212.59 9.13 212.59 9.63L212.59 24.51C212.59 26.25 213.08 27.7 214.03 28.8C215.02 29.95 216.47 30.53 218.33 30.53C220.19 30.53 221.64 29.95 222.64 28.8C223.59 27.7 224.07 26.25 224.07 24.51L224.07 9.63C224.07 9.13 224.48 8.73 224.98 8.73L226.14 8.73C226.64 8.73 227.05 9.13 227.05 9.63ZM227.28 7.59L223.84 7.59C223.34 7.59 222.93 7.99 222.93 8.49L222.93 24.51C222.93 25.98 222.54 27.16 221.77 28.05C221 28.95 219.85 29.39 218.33 29.39C216.81 29.39 215.67 28.95 214.89 28.05C214.12 27.16 213.74 25.98 213.74 24.51L213.74 8.49C213.74 7.99 213.33 7.59 212.83 7.59L209.38 7.59C208.88 7.59 208.48 7.99 208.48 8.49L208.48 24.84C208.48 26.36 208.72 27.69 209.21 28.84C209.7 29.99 210.39 30.96 211.27 31.74C212.15 32.53 213.2 33.12 214.4 33.52C215.6 33.93 216.91 34.13 218.33 34.13C219.73 34.13 221.03 33.93 222.23 33.52C223.43 33.12 224.48 32.53 225.38 31.74C226.27 30.96 226.96 29.99 227.45 28.84C227.94 27.69 228.19 26.36 228.19 24.84L228.19 8.49C228.19 7.99 227.78 7.59 227.28 7.59Z" fill="#002175" fill-opacity="1.000000" fill-rule="nonzero"/>
	<path id="path" d="M240.47 8.73C241.73 8.73 242.93 8.85 244.02 9.1C245.07 9.33 246.07 9.69 247.03 10.18C247.92 10.64 248.73 11.21 249.47 11.9C250.19 12.58 250.8 13.35 251.3 14.2C251.81 15.1 252.2 16.04 252.44 17.05C252.7 18.09 252.83 19.23 252.83 20.44C252.83 21.65 252.7 22.79 252.44 23.83C252.2 24.83 251.81 25.78 251.3 26.67C250.8 27.52 250.19 28.29 249.47 28.97C248.73 29.66 247.92 30.23 247.03 30.7C246.07 31.19 245.07 31.55 244.02 31.78C242.93 32.02 241.73 32.15 240.47 32.15L233.77 32.15C233.27 32.15 232.86 31.74 232.86 31.24L232.86 9.63C232.86 9.13 233.27 8.73 233.77 8.73L240.47 8.73ZM236.85 29.65L240.29 29.65C241.53 29.65 242.71 29.48 243.82 29.15C244.98 28.79 246.01 28.23 246.89 27.46C247.78 26.69 248.48 25.7 248.97 24.53C249.46 23.38 249.71 22 249.71 20.44C249.71 18.87 249.46 17.49 248.97 16.34C248.48 15.17 247.78 14.18 246.89 13.41C246.01 12.65 244.98 12.08 243.82 11.73C242.71 11.39 241.52 11.22 240.29 11.22L236.85 11.22C236.35 11.22 235.95 11.62 235.95 12.12L235.95 28.75C235.95 29.25 236.35 29.65 236.85 29.65ZM240.47 7.59L232.63 7.59C232.13 7.59 231.72 7.99 231.72 8.49L231.72 32.38C231.72 32.88 232.13 33.28 232.63 33.28L240.47 33.28C243.17 33.28 245.53 32.76 247.55 31.71C249.58 30.65 251.15 29.17 252.28 27.25C253.41 25.32 253.97 23.05 253.97 20.43C253.97 17.81 253.41 15.54 252.28 13.62C251.15 11.7 249.58 10.22 247.55 9.16C245.53 8.11 243.17 7.59 240.47 7.59ZM237.09 27.61L237.09 13.27C237.09 12.77 237.5 12.36 238 12.36L240.29 12.36C241.42 12.36 242.48 12.51 243.49 12.82C244.5 13.13 245.38 13.61 246.14 14.27C246.9 14.93 247.49 15.77 247.92 16.78C248.35 17.8 248.57 19.02 248.57 20.44C248.57 21.86 248.35 23.07 247.92 24.09C247.49 25.11 246.9 25.94 246.14 26.6C245.38 27.26 244.5 27.75 243.49 28.05C242.49 28.36 241.42 28.51 240.29 28.51L238 28.51C237.5 28.51 237.09 28.11 237.09 27.61Z" fill="#002175" fill-opacity="1.000000" fill-rule="nonzero"/>
	<path id="path" d="M88.99 0.9L88.99 4.41C88.99 4.91 88.58 5.32 88.08 5.32L84.56 5.32C84.06 5.32 83.66 4.91 83.66 4.41L83.66 0.9C83.66 0.4 84.06 0 84.56 0L88.08 0C88.58 0 88.99 0.4 88.99 0.9Z" fill="#F1C804" fill-opacity="1.000000" fill-rule="nonzero"/>
</svg>
