<svg xmlns="http://www.w3.org/2000/svg" viewBox="0 0 424.45 342.12"><defs><style>.cls-1,.cls-7{fill:#173d7a;}.cls-1{opacity:0.5;}.cls-2{fill:#396caa;}.cls-3{fill:#5793ce;}.cls-4,.cls-8{fill:#d4ecff;}.cls-5{fill:#fff;}.cls-6{fill:#fafdff;}.cls-8{opacity:0.4;}</style></defs><title>server-1</title><g id="Layer_2" data-name="Layer 2"><g id="Ñëîé_1" data-name="Ñëîé 1"><path class="cls-1" d="M28.44,235,1.13,219.25c-1.67-1-1.46-2.65.47-3.77L28,200.26a7.29,7.29,0,0,1,6.54-.28l27.3,15.77c1.68,1,1.47,2.66-.47,3.77L35,234.75A7.29,7.29,0,0,1,28.44,235Z"/><path class="cls-2" d="M62.94,204.85h0v-9.42H41.81l-7.3-4.22a7.32,7.32,0,0,0-6.54.27l-6.82,3.94H0v9.69a1.9,1.9,0,0,0,1.12,1.75L28.44,222.6a7.25,7.25,0,0,0,6.54-.27l26.36-15.22A2.59,2.59,0,0,0,62.94,204.85Z"/><path class="cls-2" d="M31.47,190.56a7.53,7.53,0,0,0-3.5.91l-6.82,3.94H0v9.69a1.9,1.9,0,0,0,1.12,1.75L28.44,222.6a5.83,5.83,0,0,0,3,.65Z"/><path class="cls-3" d="M2.4,195.4H0v9.69a1.9,1.9,0,0,0,1.12,1.75l1.27.73Z"/><path class="cls-3" d="M28.86,222.81a7.48,7.48,0,0,0,5.23-.06v-11H28.86Z"/><path class="cls-4" d="M28.44,213,1.13,197.18c-1.67-1-1.46-2.65.47-3.77L28,178.19a7.29,7.29,0,0,1,6.54-.28l27.3,15.77c1.68,1,1.47,2.66-.47,3.78L35,212.68A7.25,7.25,0,0,1,28.44,213Z"/><path class="cls-5" d="M61.34,195.6,35,210.82a7.25,7.25,0,0,1-6.54.27L1.13,195.33a2.53,2.53,0,0,1-.83-.74,1.75,1.75,0,0,0,.83,2.59L28.44,213a7.25,7.25,0,0,0,6.54-.27l26.36-15.23c1.51-.86,2-2.08,1.31-3A3.64,3.64,0,0,1,61.34,195.6Z"/><path class="cls-4" d="M52.89,207.34a2.43,2.43,0,0,1-1.1,1.91c-.61.35-1.1.07-1.1-.64a2.43,2.43,0,0,1,1.1-1.91C52.4,206.35,52.89,206.64,52.89,207.34Z"/><path class="cls-4" d="M56.44,205.29a2.43,2.43,0,0,1-1.1,1.91c-.61.35-1.11.07-1.11-.64a2.46,2.46,0,0,1,1.11-1.91C56,204.3,56.44,204.59,56.44,205.29Z"/><path class="cls-4" d="M60,203.24a2.45,2.45,0,0,1-1.1,1.91c-.61.35-1.11.07-1.11-.63a2.43,2.43,0,0,1,1.11-1.91C59.49,202.25,60,202.54,60,203.24Z"/><path class="cls-3" d="M30.05,203.17,17.27,195.8c-.78-.46-.68-1.25.22-1.77l12.34-7.12a3.39,3.39,0,0,1,3.06-.13l12.78,7.38c.78.45.69,1.24-.22,1.76l-12.34,7.13A3.39,3.39,0,0,1,30.05,203.17Z"/><path class="cls-4" d="M31.28,197l-1.77-1c-.11-.07-.1-.18,0-.25l1.71-1a.45.45,0,0,1,.42,0l1.77,1c.11.06.09.17,0,.24l-1.71,1A.48.48,0,0,1,31.28,197Z"/><path class="cls-2" d="M17.27,195.8l0,0,.18-.13,12.34-7.12a3.42,3.42,0,0,1,3.06-.13l12.74,7.36c.73-.52.76-1.22,0-1.64l-12.78-7.38a3.39,3.39,0,0,0-3.06.13L17.49,194C16.59,194.55,16.49,195.34,17.27,195.8Z"/><path class="cls-1" d="M390,235l-27.31-15.77c-1.68-1-1.47-2.65.47-3.77l26.37-15.22A7.27,7.27,0,0,1,396,200l27.31,15.77c1.68,1,1.47,2.66-.47,3.77l-26.37,15.23A7.26,7.26,0,0,1,390,235Z"/><path class="cls-2" d="M424.44,204.85h0v-9.42H403.32L396,191.2a7.3,7.3,0,0,0-6.53.27l-6.82,3.94H361.52v9.69a1.89,1.89,0,0,0,1.12,1.75L390,222.6a7.23,7.23,0,0,0,6.53-.27l26.37-15.22A2.56,2.56,0,0,0,424.44,204.85Z"/><path class="cls-2" d="M393,190.56a7.49,7.49,0,0,0-3.5.91l-6.82,3.94H361.52v9.69a1.89,1.89,0,0,0,1.12,1.75L390,222.6a5.83,5.83,0,0,0,3,.65Z"/><path class="cls-3" d="M363.91,195.4h-2.39v9.69a1.89,1.89,0,0,0,1.12,1.75l1.27.73Z"/><path class="cls-3" d="M390.37,222.81a7.45,7.45,0,0,0,5.22-.06v-11h-5.22Z"/><path class="cls-4" d="M390,213l-27.31-15.77c-1.68-1-1.47-2.65.47-3.77l26.37-15.22a7.27,7.27,0,0,1,6.53-.28l27.31,15.77c1.68,1,1.47,2.66-.47,3.78l-26.37,15.22A7.23,7.23,0,0,1,390,213Z"/><path class="cls-5" d="M422.85,195.6l-26.37,15.22a7.23,7.23,0,0,1-6.53.27l-27.31-15.76a2.69,2.69,0,0,1-.84-.74,1.76,1.76,0,0,0,.84,2.59L390,213a7.23,7.23,0,0,0,6.53-.27l26.37-15.23c1.51-.86,2-2.08,1.31-3A3.73,3.73,0,0,1,422.85,195.6Z"/><path class="cls-4" d="M414.4,207.34a2.43,2.43,0,0,1-1.1,1.91c-.61.35-1.11.07-1.11-.64a2.44,2.44,0,0,1,1.11-1.91C413.91,206.35,414.4,206.64,414.4,207.34Z"/><path class="cls-4" d="M418,205.29a2.46,2.46,0,0,1-1.1,1.91c-.61.35-1.11.07-1.11-.64a2.46,2.46,0,0,1,1.11-1.91C417.45,204.3,418,204.59,418,205.29Z"/><path class="cls-4" d="M421.5,203.24a2.43,2.43,0,0,1-1.11,1.91c-.6.35-1.1.07-1.1-.63a2.45,2.45,0,0,1,1.1-1.91C421,202.25,421.5,202.54,421.5,203.24Z"/><path class="cls-3" d="M391.56,203.17l-12.78-7.37c-.78-.46-.68-1.25.22-1.77l12.34-7.12a3.39,3.39,0,0,1,3.06-.13l12.78,7.38c.78.45.68,1.24-.22,1.76l-12.34,7.13A3.39,3.39,0,0,1,391.56,203.17Z"/><path class="cls-4" d="M392.78,197,391,196c-.11-.07-.1-.18,0-.25l1.7-1a.47.47,0,0,1,.43,0l1.77,1c.1.06.09.17,0,.24l-1.7,1A.5.5,0,0,1,392.78,197Z"/><path class="cls-2" d="M378.78,195.8l0,0c.06,0,.11-.09.18-.13l12.34-7.12a3.42,3.42,0,0,1,3.06-.13l12.74,7.36c.73-.52.76-1.22,0-1.64l-12.78-7.38a3.39,3.39,0,0,0-3.06.13L379,194C378.1,194.55,378,195.34,378.78,195.8Z"/><path class="cls-2" d="M172.51,206.59h0V80.87l50-13.08,9.21-5.31c2.11-1.22,5.8-1.07,8.24.34l8.59,5h26.66l-7.9,121.35a2.38,2.38,0,0,1-1.41,2.21L216,229c-2.11,1.22-5.8,1.07-8.24-.34l-33.24-19.19C173.11,208.62,172.43,207.57,172.51,206.59Z"/><path class="cls-4" d="M235.51,61.66a9.56,9.56,0,0,1,4.42,1.16l8.59,5h26.66V193.82a2.38,2.38,0,0,1-1.42,2.2L216,229a7.34,7.34,0,0,1-3.82.82l-.6-126.84Z"/><path class="cls-3" d="M215.46,229.22a9.38,9.38,0,0,1-6.58-.07V101.44h6.58Z"/><path class="cls-4" d="M216,103,273.76,70c2.11-1.22,1.85-3.35-.59-4.76L239.93,46.07c-2.44-1.41-6.13-1.56-8.24-.34L173.92,78.67c-2.11,1.22-1.85,3.35.59,4.76l33.24,19.19C210.19,104,213.88,104.18,216,103Z"/><path class="cls-6" d="M174.51,81.09l33.24,19.19c2.44,1.41,6.13,1.56,8.24.34l57.77-32.94a3.27,3.27,0,0,0,1.06-.93c.72,1.16.39,2.43-1.06,3.27L216,103c-2.11,1.22-5.8,1.06-8.24-.34L174.51,83.43c-1.89-1.1-2.47-2.63-1.64-3.83A4.63,4.63,0,0,0,174.51,81.09Z"/><path class="cls-7" d="M214.36,89.61l38.46-22.3c1-.57.86-1.56-.28-2.22l-15.55-9a4.29,4.29,0,0,0-3.86-.16L194.67,78.24c-1,.57-.86,1.57.28,2.23l15.55,9A4.29,4.29,0,0,0,214.36,89.61Z"/><path class="cls-4" d="M235.12,68.31,237.35,67c.14-.08.12-.22,0-.31l-2.15-1.24a.59.59,0,0,0-.53,0l-2.23,1.28c-.14.08-.12.22,0,.31l2.15,1.24A.59.59,0,0,0,235.12,68.31Z"/><path class="cls-4" d="M227.68,72.6l2.23-1.29c.13-.08.12-.22,0-.31l-2.15-1.24a.61.61,0,0,0-.54,0L225,71c-.13.08-.12.22,0,.31l2.15,1.24A.64.64,0,0,0,227.68,72.6Z"/><path class="cls-4" d="M220.23,76.88l2.23-1.29c.14-.08.12-.22,0-.31L220.27,74a.59.59,0,0,0-.53,0l-2.23,1.28c-.14.08-.12.22,0,.31l2.15,1.24A.56.56,0,0,0,220.23,76.88Z"/><path class="cls-4" d="M212.79,81.16,215,79.87c.13-.08.12-.22,0-.31l-2.15-1.24a.61.61,0,0,0-.54,0l-2.23,1.29c-.13.07-.12.21,0,.3l2.15,1.25A.61.61,0,0,0,212.79,81.16Z"/><path class="cls-3" d="M252.82,67.31l0,0a2.29,2.29,0,0,0-.23-.16L237,58.2a4.29,4.29,0,0,0-3.86-.16L194.72,80.31c-.91-.65-1-1.54-.05-2.07L233.13,56a4.29,4.29,0,0,1,3.86.16l15.55,9C253.68,65.75,253.81,66.74,252.82,67.31Z"/><path class="cls-7" d="M201.26,127.86,179.4,115.34a5.3,5.3,0,0,1-2.23-4.25v-7.82c0-1.64,1-2.4,2.23-1.69l21.86,12.52a5.34,5.34,0,0,1,2.23,4.26v7.82C203.49,127.82,202.49,128.57,201.26,127.86Z"/><path class="cls-5" d="M178.31,101.35a2.17,2.17,0,0,0-.56,1.62v7.82a5.34,5.34,0,0,0,2.23,4.26l21.87,12.52a1.62,1.62,0,0,0,1.08.24,1.33,1.33,0,0,1-1.67,0L179.4,115.34a5.3,5.3,0,0,1-2.23-4.25v-7.82C177.17,102.15,177.63,101.46,178.31,101.35Z"/><path class="cls-2" d="M194.69,119.37l-2-1.16a1.16,1.16,0,0,1-.49-.93v-2.14c0-.36.22-.52.49-.37l2,1.16a1.19,1.19,0,0,1,.48.93V119C195.17,119.36,195,119.52,194.69,119.37Z"/><path class="cls-5" d="M188,115.5l-2-1.16a1.16,1.16,0,0,1-.48-.93v-2.14c0-.36.21-.52.48-.37l2,1.16a1.15,1.15,0,0,1,.48.93v2.14C188.46,115.49,188.25,115.65,188,115.5Z"/><path class="cls-7" d="M201.26,184.37,179.4,171.85a5.3,5.3,0,0,1-2.23-4.26v-7.82c0-1.64,1-2.39,2.23-1.68l21.86,12.52a5.34,5.34,0,0,1,2.23,4.26v7.82C203.49,184.33,202.49,185.08,201.26,184.37Z"/><path class="cls-5" d="M178.31,157.85a2.22,2.22,0,0,0-.56,1.63v7.82a5.34,5.34,0,0,0,2.23,4.26l21.87,12.52a1.55,1.55,0,0,0,1.08.23,1.32,1.32,0,0,1-1.67.06L179.4,171.85a5.32,5.32,0,0,1-2.23-4.26v-7.82C177.17,158.66,177.63,158,178.31,157.85Z"/><path class="cls-2" d="M194.69,175.88l-2-1.16a1.17,1.17,0,0,1-.49-.93v-2.14c0-.36.22-.52.49-.37l2,1.16a1.17,1.17,0,0,1,.48.93v2.14C195.17,175.87,195,176,194.69,175.88Z"/><path class="cls-5" d="M188,172l-2-1.15a1.16,1.16,0,0,1-.48-.93v-2.14c0-.36.21-.53.48-.37l2,1.16a1.14,1.14,0,0,1,.48.92v2.15C188.46,172,188.25,172.16,188,172Z"/><path class="cls-7" d="M201.26,212.63,179.4,200.11a5.33,5.33,0,0,1-2.23-4.26V188c0-1.64,1-2.4,2.23-1.69l21.86,12.52a5.34,5.34,0,0,1,2.23,4.26v7.82C203.49,212.58,202.49,213.34,201.26,212.63Z"/><path class="cls-5" d="M178.31,186.11a2.2,2.2,0,0,0-.56,1.63v7.82a5.33,5.33,0,0,0,2.23,4.25l21.87,12.52a1.62,1.62,0,0,0,1.08.24,1.34,1.34,0,0,1-1.67.06L179.4,200.11a5.32,5.32,0,0,1-2.23-4.26V188C177.17,186.91,177.63,186.22,178.31,186.11Z"/><path class="cls-2" d="M194.69,204.13l-2-1.16a1.16,1.16,0,0,1-.49-.93V199.9c0-.36.22-.52.49-.37l2,1.16a1.19,1.19,0,0,1,.48.93v2.14C195.17,204.12,195,204.29,194.69,204.13Z"/><path class="cls-5" d="M188,200.26l-2-1.16a1.15,1.15,0,0,1-.48-.93V196c0-.36.21-.52.48-.37l2,1.16a1.16,1.16,0,0,1,.48.93v2.14C188.46,200.25,188.25,200.41,188,200.26Z"/><path class="cls-7" d="M201.26,156.12,179.4,143.6a5.32,5.32,0,0,1-2.23-4.26v-7.82c0-1.64,1-2.39,2.23-1.68l21.86,12.52a5.33,5.33,0,0,1,2.23,4.25v7.82C203.49,156.07,202.49,156.83,201.26,156.12Z"/><path class="cls-5" d="M178.31,129.6a2.2,2.2,0,0,0-.56,1.63v7.82A5.33,5.33,0,0,0,180,143.3l21.87,12.52a1.62,1.62,0,0,0,1.08.24,1.33,1.33,0,0,1-1.67.06L179.4,143.6a5.32,5.32,0,0,1-2.23-4.26v-7.82C177.17,130.41,177.63,129.72,178.31,129.6Z"/><path class="cls-2" d="M194.69,147.62l-2-1.16a1.15,1.15,0,0,1-.49-.92v-2.15c0-.35.22-.52.49-.36l2,1.16a1.17,1.17,0,0,1,.48.92v2.15C195.17,147.61,195,147.78,194.69,147.62Z"/><path class="cls-5" d="M188,143.75l-2-1.16a1.15,1.15,0,0,1-.48-.93v-2.14c0-.36.21-.52.48-.37l2,1.16a1.16,1.16,0,0,1,.48.93v2.14C188.46,143.74,188.25,143.91,188,143.75Z"/><path class="cls-3" d="M220.2,119.86l50.45-29.13a4.89,4.89,0,0,0,2.05-3.9V77.21c0-1.51-.92-2.2-2.05-1.55L220.2,104.79a4.88,4.88,0,0,0-2,3.9v9.62C218.16,119.82,219.07,120.51,220.2,119.86Z"/><path class="cls-8" d="M221.65,116.49,269.2,89a2.47,2.47,0,0,0,1-2V79.82c0-.77-.46-1.12-1-.79l-47.55,27.46a2.5,2.5,0,0,0-1,2v7.23C220.61,116.47,221.08,116.82,221.65,116.49Z"/><path class="cls-4" d="M259.29,91.1l7.1-4.1a2.4,2.4,0,0,0,1-1.93h0c0-.74-.45-1.08-1-.76l-7.1,4.1a2.42,2.42,0,0,0-1,1.92h0C258.29,91.08,258.74,91.42,259.29,91.1Z"/><path class="cls-7" d="M253.25,93.24c0,.75.52,1.05,1.16.68a2.59,2.59,0,0,0,1.16-2c0-.74-.52-1-1.16-.67A2.57,2.57,0,0,0,253.25,93.24Z"/><path class="cls-7" d="M249.14,95.61c0,.75.52,1,1.17.68a2.6,2.6,0,0,0,1.16-2c0-.74-.52-1-1.16-.67A2.55,2.55,0,0,0,249.14,95.61Z"/><path class="cls-4" d="M245,98c0,.74.52,1,1.16.67a2.58,2.58,0,0,0,1.17-2c0-.74-.53-1-1.17-.67A2.57,2.57,0,0,0,245,98Z"/><path class="cls-7" d="M240.94,100.35c0,.74.52,1,1.16.67a2.57,2.57,0,0,0,1.16-2c0-.74-.52-1-1.16-.67A2.57,2.57,0,0,0,240.94,100.35Z"/><path class="cls-7" d="M223.65,112.46l2.39-1.38a1.55,1.55,0,0,0,.65-1.24v-2.53c0-.47-.29-.69-.65-.48l-2.39,1.38a1.52,1.52,0,0,0-.65,1.23V112C223,112.45,223.29,112.66,223.65,112.46Z"/><path class="cls-3" d="M220.2,136.82l50.45-29.12a4.93,4.93,0,0,0,2.05-3.91V94.17c0-1.51-.92-2.2-2.05-1.55L220.2,121.75a4.89,4.89,0,0,0-2,3.91v9.62C218.16,136.78,219.07,137.47,220.2,136.82Z"/><path class="cls-8" d="M221.65,133.45,269.2,106a2.45,2.45,0,0,0,1-2V96.78c0-.76-.46-1.11-1-.78l-47.55,27.45a2.5,2.5,0,0,0-1,2v7.24C220.61,133.43,221.08,133.78,221.65,133.45Z"/><path class="cls-4" d="M259.29,108.06l7.1-4.1a2.4,2.4,0,0,0,1-1.92h0c0-.74-.45-1.08-1-.76l-7.1,4.09a2.45,2.45,0,0,0-1,1.93h0C258.29,108,258.74,108.38,259.29,108.06Z"/><path class="cls-5" d="M253.25,110.21c0,.74.52,1,1.16.67a2.57,2.57,0,0,0,1.16-2c0-.75-.52-1.05-1.16-.68A2.59,2.59,0,0,0,253.25,110.21Z"/><path class="cls-7" d="M249.14,112.58c0,.74.52,1,1.17.67a2.57,2.57,0,0,0,1.16-2c0-.74-.52-1-1.16-.67A2.57,2.57,0,0,0,249.14,112.58Z"/><path class="cls-4" d="M245,115c0,.74.52,1,1.16.67a2.58,2.58,0,0,0,1.17-2c0-.74-.53-1-1.17-.67A2.57,2.57,0,0,0,245,115Z"/><path class="cls-7" d="M240.94,117.32c0,.74.52,1,1.16.67a2.59,2.59,0,0,0,1.16-2c0-.74-.52-1-1.16-.67A2.57,2.57,0,0,0,240.94,117.32Z"/><path class="cls-7" d="M223.65,129.42,226,128a1.53,1.53,0,0,0,.65-1.23v-2.53c0-.48-.29-.7-.65-.49l-2.39,1.38a1.55,1.55,0,0,0-.65,1.23v2.53C223,129.41,223.29,129.63,223.65,129.42Z"/><path class="cls-3" d="M220.2,153.79l50.45-29.13a4.9,4.9,0,0,0,2.05-3.91v-9.62c0-1.5-.92-2.19-2.05-1.54L220.2,138.71a4.92,4.92,0,0,0-2,3.91v9.62C218.16,153.75,219.07,154.44,220.2,153.79Z"/><path class="cls-8" d="M221.65,150.41,269.2,123a2.47,2.47,0,0,0,1-2v-7.24c0-.76-.46-1.11-1-.78l-47.55,27.45a2.51,2.51,0,0,0-1,2v7.23C220.61,150.39,221.08,150.74,221.65,150.41Z"/><path class="cls-4" d="M259.29,125l7.1-4.09a2.42,2.42,0,0,0,1-1.93h0c0-.74-.45-1.08-1-.76l-7.1,4.1a2.42,2.42,0,0,0-1,1.92h0C258.29,125,258.74,125.34,259.29,125Z"/><path class="cls-5" d="M253.25,127.17c0,.74.52,1,1.16.67a2.57,2.57,0,0,0,1.16-2c0-.74-.52-1-1.16-.67A2.57,2.57,0,0,0,253.25,127.17Z"/><path class="cls-7" d="M249.14,129.54c0,.74.52,1,1.17.67a2.57,2.57,0,0,0,1.16-2c0-.74-.52-1-1.16-.67A2.55,2.55,0,0,0,249.14,129.54Z"/><path class="cls-4" d="M245,131.91c0,.74.52,1,1.16.67a2.58,2.58,0,0,0,1.17-2c0-.74-.53-1-1.17-.67A2.57,2.57,0,0,0,245,131.91Z"/><path class="cls-7" d="M240.94,134.28c0,.74.52,1,1.16.67a2.57,2.57,0,0,0,1.16-2c0-.75-.52-1.05-1.16-.68A2.6,2.6,0,0,0,240.94,134.28Z"/><path class="cls-7" d="M223.65,146.39,226,145a1.55,1.55,0,0,0,.65-1.24v-2.53c0-.47-.29-.69-.65-.49l-2.39,1.38a1.55,1.55,0,0,0-.65,1.24v2.53C223,146.37,223.29,146.59,223.65,146.39Z"/><path class="cls-3" d="M220.2,170.75l50.45-29.13a4.89,4.89,0,0,0,2.05-3.9V128.1c0-1.51-.92-2.2-2.05-1.55L220.2,155.68a4.88,4.88,0,0,0-2,3.9v9.62C218.16,170.71,219.07,171.4,220.2,170.75Z"/><path class="cls-8" d="M221.65,167.38l47.55-27.46a2.47,2.47,0,0,0,1-2v-7.23c0-.77-.46-1.12-1-.79l-47.55,27.46a2.5,2.5,0,0,0-1,2v7.23C220.61,167.36,221.08,167.71,221.65,167.38Z"/><path class="cls-4" d="M259.29,142l7.1-4.1a2.4,2.4,0,0,0,1-1.92h0c0-.75-.45-1.09-1-.77l-7.1,4.1a2.42,2.42,0,0,0-1,1.93h0C258.29,142,258.74,142.31,259.29,142Z"/><path class="cls-7" d="M253.25,144.14c0,.74.52,1,1.16.67a2.59,2.59,0,0,0,1.16-2c0-.74-.52-1-1.16-.67A2.57,2.57,0,0,0,253.25,144.14Z"/><path class="cls-7" d="M249.14,146.51c0,.74.52,1,1.17.67a2.59,2.59,0,0,0,1.16-2c0-.74-.52-1-1.16-.67A2.55,2.55,0,0,0,249.14,146.51Z"/><path class="cls-4" d="M245,148.87c0,.75.52,1,1.16.68a2.61,2.61,0,0,0,1.17-2c0-.74-.53-1-1.17-.67A2.57,2.57,0,0,0,245,148.87Z"/><path class="cls-7" d="M240.94,151.24c0,.74.52,1,1.16.67a2.57,2.57,0,0,0,1.16-2c0-.74-.52-1-1.16-.67A2.57,2.57,0,0,0,240.94,151.24Z"/><path class="cls-4" d="M223.65,163.35,226,162a1.55,1.55,0,0,0,.65-1.24v-2.52c0-.48-.29-.7-.65-.49l-2.39,1.38a1.53,1.53,0,0,0-.65,1.23v2.53C223,163.34,223.29,163.56,223.65,163.35Z"/><path class="cls-3" d="M220.2,187.71l50.45-29.12a4.91,4.91,0,0,0,2.05-3.91v-9.62c0-1.51-.92-2.2-2.05-1.55L220.2,172.64a4.89,4.89,0,0,0-2,3.91v9.62C218.16,187.67,219.07,188.37,220.2,187.71Z"/><path class="cls-8" d="M221.65,184.34l47.55-27.45a2.49,2.49,0,0,0,1-2v-7.23c0-.76-.46-1.11-1-.78l-47.55,27.45a2.5,2.5,0,0,0-1,2v7.24C220.61,184.32,221.08,184.67,221.65,184.34Z"/><path class="cls-4" d="M259.29,159l7.1-4.1a2.4,2.4,0,0,0,1-1.92h0c0-.74-.45-1.08-1-.76l-7.1,4.1a2.42,2.42,0,0,0-1,1.92h0C258.29,158.93,258.74,159.27,259.29,159Z"/><path class="cls-7" d="M253.25,161.1c0,.74.52,1,1.16.67a2.57,2.57,0,0,0,1.16-2c0-.75-.52-1-1.16-.67A2.57,2.57,0,0,0,253.25,161.1Z"/><path class="cls-5" d="M249.14,163.47c0,.74.52,1,1.17.67a2.57,2.57,0,0,0,1.16-2c0-.75-.52-1-1.16-.68A2.58,2.58,0,0,0,249.14,163.47Z"/><path class="cls-4" d="M245,165.84c0,.74.52,1,1.16.67a2.58,2.58,0,0,0,1.17-2c0-.74-.53-1-1.17-.67A2.59,2.59,0,0,0,245,165.84Z"/><path class="cls-5" d="M240.94,168.21c0,.74.52,1,1.16.67a2.57,2.57,0,0,0,1.16-2c0-.74-.52-1-1.16-.67A2.59,2.59,0,0,0,240.94,168.21Z"/><path class="cls-4" d="M223.65,180.31l2.39-1.38a1.53,1.53,0,0,0,.65-1.23v-2.53c0-.48-.29-.7-.65-.49l-2.39,1.38a1.55,1.55,0,0,0-.65,1.24v2.52C223,180.3,223.29,180.52,223.65,180.31Z"/><path class="cls-3" d="M220.2,204.68l50.45-29.13a4.9,4.9,0,0,0,2.05-3.91V162c0-1.5-.92-2.19-2.05-1.54L220.2,189.61a4.88,4.88,0,0,0-2,3.9v9.62C218.16,204.64,219.07,205.33,220.2,204.68Z"/><path class="cls-8" d="M221.65,201.3l47.55-27.45a2.47,2.47,0,0,0,1-2v-7.23c0-.77-.46-1.12-1-.79l-47.55,27.46a2.48,2.48,0,0,0-1,2v7.23C220.61,201.28,221.08,201.63,221.65,201.3Z"/><path class="cls-4" d="M259.29,175.91l7.1-4.09a2.42,2.42,0,0,0,1-1.93h0c0-.74-.45-1.08-1-.76l-7.1,4.1a2.42,2.42,0,0,0-1,1.92h0C258.29,175.9,258.74,176.24,259.29,175.91Z"/><path class="cls-7" d="M253.25,178.06c0,.75.52,1.05,1.16.67a2.57,2.57,0,0,0,1.16-2c0-.74-.52-1-1.16-.67A2.57,2.57,0,0,0,253.25,178.06Z"/><path class="cls-7" d="M249.14,180.43c0,.74.52,1,1.17.67a2.57,2.57,0,0,0,1.16-2c0-.74-.52-1-1.16-.67A2.55,2.55,0,0,0,249.14,180.43Z"/><path class="cls-4" d="M245,182.8c0,.74.52,1,1.16.67a2.58,2.58,0,0,0,1.17-2c0-.74-.53-1-1.17-.67A2.57,2.57,0,0,0,245,182.8Z"/><path class="cls-7" d="M240.94,185.17c0,.74.52,1,1.16.67a2.57,2.57,0,0,0,1.16-2c0-.74-.52-1-1.16-.67A2.57,2.57,0,0,0,240.94,185.17Z"/><path class="cls-7" d="M223.65,197.28,226,195.9a1.55,1.55,0,0,0,.65-1.24v-2.53c0-.47-.29-.69-.65-.49L223.65,193a1.55,1.55,0,0,0-.65,1.24v2.53C223,197.26,223.29,197.48,223.65,197.28Z"/><path class="cls-3" d="M220.2,221.64l50.45-29.13a4.89,4.89,0,0,0,2.05-3.9V179c0-1.51-.92-2.2-2.05-1.55L220.2,206.57a4.89,4.89,0,0,0-2,3.91v9.62C218.16,221.6,219.07,222.29,220.2,221.64Z"/><path class="cls-8" d="M221.65,218.27l47.55-27.46a2.45,2.45,0,0,0,1-2V181.6c0-.76-.46-1.12-1-.79l-47.55,27.46a2.5,2.5,0,0,0-1,2v7.23C220.61,218.25,221.08,218.6,221.65,218.27Z"/><path class="cls-4" d="M259.29,192.88l7.1-4.1a2.4,2.4,0,0,0,1-1.92h0c0-.75-.45-1.09-1-.76l-7.1,4.09a2.44,2.44,0,0,0-1,1.93h0C258.29,192.86,258.74,193.2,259.29,192.88Z"/><path class="cls-5" d="M252,196c0,1.4,1,2,2.2,1.26a4.85,4.85,0,0,0,2.19-3.8c0-1.4-1-2-2.19-1.27A4.84,4.84,0,0,0,252,196Z"/><path class="cls-7" d="M243.45,200.92c0,.74.52,1,1.16.67a2.55,2.55,0,0,0,1.17-2c0-.75-.52-1.05-1.17-.68A2.59,2.59,0,0,0,243.45,200.92Z"/><path class="cls-4" d="M239.35,203.29c0,.74.52,1,1.16.67a2.57,2.57,0,0,0,1.16-2c0-.74-.52-1-1.16-.67A2.59,2.59,0,0,0,239.35,203.29Z"/><path class="cls-7" d="M235.24,205.66c0,.74.52,1,1.17.67a2.57,2.57,0,0,0,1.16-2c0-.74-.52-1-1.16-.67A2.55,2.55,0,0,0,235.24,205.66Z"/><path class="cls-4" d="M223.65,214.24l2.39-1.38a1.55,1.55,0,0,0,.65-1.23V209.1c0-.48-.29-.7-.65-.49L223.65,210a1.53,1.53,0,0,0-.65,1.23v2.53C223,214.23,223.29,214.45,223.65,214.24Z"/><path class="cls-2" d="M79.8,260h0V134.25l50-13.08,9.21-5.32c2.11-1.22,5.8-1.07,8.24.34l8.59,5h26.66l-7.9,121.35a2.38,2.38,0,0,1-1.41,2.21l-49.88,37.64c-2.11,1.21-5.8,1.06-8.24-.35L81.8,262.8C80.4,262,79.72,260.94,79.8,260Z"/><path class="cls-4" d="M142.8,115a9.56,9.56,0,0,1,4.42,1.16l8.59,5h26.66V247.19a2.4,2.4,0,0,1-1.42,2.21l-57.77,32.94a7.44,7.44,0,0,1-3.82.81l-.6-126.84Z"/><path class="cls-3" d="M122.75,282.59a9.36,9.36,0,0,1-6.59-.07V154.81h6.59Z"/><path class="cls-4" d="M123.28,156.33l57.77-32.94c2.11-1.22,1.85-3.35-.59-4.76L147.22,99.44c-2.44-1.41-6.13-1.56-8.24-.34L81.21,132c-2.11,1.22-1.85,3.35.59,4.76L115,156C117.48,157.4,121.17,157.55,123.28,156.33Z"/><path class="cls-6" d="M81.8,134.46,115,153.65c2.44,1.41,6.13,1.56,8.24.34l57.77-32.94a3.27,3.27,0,0,0,1.06-.93c.72,1.16.39,2.43-1.06,3.27l-57.77,32.94c-2.11,1.22-5.8,1.07-8.24-.34L81.8,136.8c-1.89-1.1-2.47-2.63-1.64-3.83A4.54,4.54,0,0,0,81.8,134.46Z"/><path class="cls-7" d="M121.65,143l38.46-22.3c1-.57.86-1.56-.28-2.22l-15.55-9a4.29,4.29,0,0,0-3.86-.16L102,131.61c-1,.57-.86,1.57.28,2.23l15.55,9A4.29,4.29,0,0,0,121.65,143Z"/><path class="cls-4" d="M142.41,121.69l2.23-1.29c.14-.08.12-.22,0-.31l-2.15-1.24a.59.59,0,0,0-.53,0l-2.23,1.28c-.14.08-.12.22,0,.31l2.15,1.24A.62.62,0,0,0,142.41,121.69Z"/><path class="cls-4" d="M135,126l2.23-1.29c.13-.08.12-.22,0-.31L135,123.13a.61.61,0,0,0-.54,0l-2.23,1.28c-.13.08-.12.22,0,.31l2.15,1.24A.58.58,0,0,0,135,126Z"/><path class="cls-4" d="M127.52,130.25l2.23-1.29c.14-.08.12-.22,0-.31l-2.15-1.24a.59.59,0,0,0-.53,0l-2.23,1.29c-.14.07-.12.21,0,.3l2.15,1.25A.59.59,0,0,0,127.52,130.25Z"/><path class="cls-4" d="M120.08,134.53l2.23-1.29c.13-.08.11-.21,0-.31l-2.15-1.24a.61.61,0,0,0-.54,0L117.35,133c-.13.08-.12.21,0,.3l2.15,1.25A.61.61,0,0,0,120.08,134.53Z"/><path class="cls-3" d="M160.11,120.68l-.05,0a2.29,2.29,0,0,0-.23-.16l-15.55-9a4.29,4.29,0,0,0-3.86-.16L102,133.68c-.91-.65-1-1.54-.05-2.07l38.46-22.29a4.29,4.29,0,0,1,3.86.16l15.55,9C161,119.12,161.1,120.11,160.11,120.68Z"/><path class="cls-7" d="M108.55,181.24,86.68,168.72a5.35,5.35,0,0,1-2.22-4.26v-7.82c0-1.64,1-2.4,2.22-1.69l21.87,12.52a5.34,5.34,0,0,1,2.23,4.26v7.82C110.78,181.19,109.78,182,108.55,181.24Z"/><path class="cls-5" d="M85.6,154.72a2.17,2.17,0,0,0-.56,1.62v7.82a5.33,5.33,0,0,0,2.23,4.26l21.87,12.52a1.62,1.62,0,0,0,1.08.24,1.34,1.34,0,0,1-1.67.06L86.68,168.71a5.32,5.32,0,0,1-2.22-4.25v-7.82C84.46,155.52,84.92,154.83,85.6,154.72Z"/><path class="cls-2" d="M102,172.74l-2-1.16a1.16,1.16,0,0,1-.49-.93v-2.14c0-.36.22-.52.49-.37l2,1.16a1.17,1.17,0,0,1,.49.93v2.14C102.46,172.73,102.24,172.9,102,172.74Z"/><path class="cls-5" d="M95.27,168.87l-2-1.16a1.16,1.16,0,0,1-.48-.93v-2.14c0-.36.21-.52.48-.37l2,1.16a1.15,1.15,0,0,1,.48.93v2.14C95.75,168.86,95.54,169,95.27,168.87Z"/><path class="cls-7" d="M108.55,237.74,86.68,225.22A5.32,5.32,0,0,1,84.46,221v-7.82c0-1.64,1-2.4,2.22-1.69L108.55,224a5.34,5.34,0,0,1,2.23,4.26v7.82C110.78,237.7,109.78,238.45,108.55,237.74Z"/><path class="cls-5" d="M85.6,211.23a2.17,2.17,0,0,0-.56,1.62v7.82a5.34,5.34,0,0,0,2.23,4.26l21.87,12.52a1.62,1.62,0,0,0,1.08.24,1.33,1.33,0,0,1-1.67.05L86.68,225.22A5.32,5.32,0,0,1,84.46,221v-7.82C84.46,212,84.92,211.34,85.6,211.23Z"/><path class="cls-2" d="M102,229.25l-2-1.16a1.16,1.16,0,0,1-.49-.93V225c0-.36.22-.52.49-.37l2,1.16a1.17,1.17,0,0,1,.49.93v2.14C102.46,229.24,102.24,229.4,102,229.25Z"/><path class="cls-5" d="M95.27,225.38l-2-1.16a1.16,1.16,0,0,1-.48-.93v-2.14c0-.36.21-.52.48-.37l2,1.16a1.15,1.15,0,0,1,.48.93V225C95.75,225.37,95.54,225.53,95.27,225.38Z"/><path class="cls-7" d="M108.55,266,86.68,253.48a5.34,5.34,0,0,1-2.22-4.26V241.4c0-1.64,1-2.4,2.22-1.68l21.87,12.52a5.33,5.33,0,0,1,2.23,4.25v7.82C110.78,266,109.78,266.71,108.55,266Z"/><path class="cls-5" d="M85.6,239.48a2.2,2.2,0,0,0-.56,1.63v7.82a5.33,5.33,0,0,0,2.23,4.25l21.87,12.52a1.62,1.62,0,0,0,1.08.24,1.34,1.34,0,0,1-1.67.06L86.68,253.48a5.34,5.34,0,0,1-2.22-4.26V241.4C84.46,240.29,84.92,239.6,85.6,239.48Z"/><path class="cls-2" d="M102,257.5l-2-1.16a1.15,1.15,0,0,1-.49-.92v-2.15c0-.35.22-.52.49-.36l2,1.15a1.17,1.17,0,0,1,.49.93v2.14C102.46,257.49,102.24,257.66,102,257.5Z"/><path class="cls-5" d="M95.27,253.63l-2-1.16a1.15,1.15,0,0,1-.48-.93V249.4c0-.36.21-.52.48-.37l2,1.16a1.16,1.16,0,0,1,.48.93v2.14C95.75,253.62,95.54,253.78,95.27,253.63Z"/><path class="cls-7" d="M108.55,209.49,86.68,197a5.34,5.34,0,0,1-2.22-4.26v-7.82c0-1.64,1-2.39,2.22-1.68l21.87,12.52a5.33,5.33,0,0,1,2.23,4.25v7.82C110.78,209.45,109.78,210.2,108.55,209.49Z"/><path class="cls-5" d="M85.6,183A2.22,2.22,0,0,0,85,184.6v7.82a5.34,5.34,0,0,0,2.23,4.26l21.87,12.52a1.61,1.61,0,0,0,1.08.23,1.33,1.33,0,0,1-1.67.06L86.68,197a5.34,5.34,0,0,1-2.22-4.26v-7.82C84.46,183.78,84.92,183.09,85.6,183Z"/><path class="cls-2" d="M102,201l-2-1.15a1.17,1.17,0,0,1-.49-.93v-2.14c0-.36.22-.53.49-.37l2,1.16a1.15,1.15,0,0,1,.49.92v2.15C102.46,201,102.24,201.15,102,201Z"/><path class="cls-5" d="M95.27,197.12l-2-1.16a1.14,1.14,0,0,1-.48-.92v-2.15c0-.35.21-.52.48-.36l2,1.15a1.16,1.16,0,0,1,.48.93v2.14C95.75,197.11,95.54,197.28,95.27,197.12Z"/><path class="cls-3" d="M127.49,173.23l50.45-29.13a4.89,4.89,0,0,0,2.05-3.9v-9.62c0-1.51-.92-2.2-2.05-1.55l-50.45,29.13a4.88,4.88,0,0,0-2,3.9v9.62C125.45,173.19,126.36,173.88,127.49,173.23Z"/><path class="cls-8" d="M128.94,169.86l47.55-27.46a2.47,2.47,0,0,0,1-2v-7.23c0-.77-.46-1.12-1-.79l-47.55,27.46a2.5,2.5,0,0,0-1,2v7.23C127.9,169.84,128.37,170.19,128.94,169.86Z"/><path class="cls-4" d="M166.58,144.47l7.1-4.1a2.4,2.4,0,0,0,1-1.92h0c0-.75-.45-1.09-1-.77l-7.1,4.1a2.42,2.42,0,0,0-1,1.93h0C165.58,144.45,166,144.79,166.58,144.47Z"/><path class="cls-7" d="M160.54,146.62c0,.74.52,1,1.16.67a2.59,2.59,0,0,0,1.16-2c0-.74-.52-1-1.16-.67A2.57,2.57,0,0,0,160.54,146.62Z"/><path class="cls-7" d="M156.43,149c0,.74.52,1,1.17.67a2.59,2.59,0,0,0,1.16-2c0-.74-.52-1-1.16-.67A2.55,2.55,0,0,0,156.43,149Z"/><path class="cls-4" d="M152.33,151.35c0,.75.52,1.05,1.16.68a2.59,2.59,0,0,0,1.16-2c0-.74-.52-1-1.16-.67A2.57,2.57,0,0,0,152.33,151.35Z"/><path class="cls-7" d="M148.23,153.72c0,.75.52,1.05,1.16.67a2.57,2.57,0,0,0,1.16-2c0-.74-.52-1-1.16-.67A2.57,2.57,0,0,0,148.23,153.72Z"/><path class="cls-7" d="M130.94,165.83l2.39-1.38a1.55,1.55,0,0,0,.65-1.24v-2.52c0-.48-.29-.7-.65-.49l-2.39,1.38a1.53,1.53,0,0,0-.65,1.23v2.53C130.29,165.82,130.58,166,130.94,165.83Z"/><path class="cls-3" d="M127.49,190.19l50.45-29.12a4.91,4.91,0,0,0,2.05-3.91v-9.62c0-1.51-.92-2.2-2.05-1.55l-50.45,29.13a4.89,4.89,0,0,0-2,3.91v9.62C125.45,190.15,126.36,190.85,127.49,190.19Z"/><path class="cls-8" d="M128.94,186.82l47.55-27.45a2.47,2.47,0,0,0,1-2v-7.23c0-.76-.46-1.11-1-.78l-47.55,27.45a2.5,2.5,0,0,0-1,2V186C127.9,186.8,128.37,187.15,128.94,186.82Z"/><path class="cls-4" d="M166.58,161.43l7.1-4.1a2.4,2.4,0,0,0,1-1.92h0c0-.74-.45-1.08-1-.76l-7.1,4.1a2.42,2.42,0,0,0-1,1.92h0C165.58,161.41,166,161.75,166.58,161.43Z"/><path class="cls-5" d="M160.54,163.58c0,.74.52,1,1.16.67a2.57,2.57,0,0,0,1.16-2c0-.74-.52-1.05-1.16-.67A2.57,2.57,0,0,0,160.54,163.58Z"/><path class="cls-7" d="M156.43,166c0,.74.52,1,1.17.67a2.57,2.57,0,0,0,1.16-2c0-.75-.52-1.05-1.16-.68A2.58,2.58,0,0,0,156.43,166Z"/><path class="cls-4" d="M152.33,168.32c0,.74.52,1,1.16.67a2.57,2.57,0,0,0,1.16-2c0-.75-.52-1-1.16-.68A2.59,2.59,0,0,0,152.33,168.32Z"/><path class="cls-7" d="M148.23,170.69c0,.74.52,1,1.16.67a2.57,2.57,0,0,0,1.16-2c0-.74-.52-1-1.16-.67A2.59,2.59,0,0,0,148.23,170.69Z"/><path class="cls-7" d="M130.94,182.79l2.39-1.38a1.53,1.53,0,0,0,.65-1.23v-2.53c0-.48-.29-.7-.65-.49l-2.39,1.38a1.55,1.55,0,0,0-.65,1.24v2.52C130.29,182.78,130.58,183,130.94,182.79Z"/><path class="cls-3" d="M127.49,207.16,177.94,178a4.9,4.9,0,0,0,2.05-3.91V164.5c0-1.5-.92-2.19-2.05-1.54l-50.45,29.13a4.88,4.88,0,0,0-2,3.9v9.62C125.45,207.12,126.36,207.81,127.49,207.16Z"/><path class="cls-8" d="M128.94,203.78l47.55-27.45a2.47,2.47,0,0,0,1-2v-7.23c0-.77-.46-1.12-1-.79l-47.55,27.46a2.48,2.48,0,0,0-1,2V203C127.9,203.76,128.37,204.12,128.94,203.78Z"/><path class="cls-4" d="M166.58,178.4l7.1-4.1a2.4,2.4,0,0,0,1-1.93h0c0-.74-.45-1.08-1-.76l-7.1,4.1a2.42,2.42,0,0,0-1,1.92h0C165.58,178.38,166,178.72,166.58,178.4Z"/><path class="cls-5" d="M160.54,180.54c0,.75.52,1.05,1.16.68a2.6,2.6,0,0,0,1.16-2c0-.74-.52-1-1.16-.67A2.57,2.57,0,0,0,160.54,180.54Z"/><path class="cls-7" d="M156.43,182.91c0,.74.52,1.05,1.17.67a2.57,2.57,0,0,0,1.16-2c0-.74-.52-1-1.16-.67A2.55,2.55,0,0,0,156.43,182.91Z"/><path class="cls-4" d="M152.33,185.28c0,.74.52,1,1.16.67a2.57,2.57,0,0,0,1.16-2c0-.74-.52-1-1.16-.67A2.57,2.57,0,0,0,152.33,185.28Z"/><path class="cls-7" d="M148.23,187.65c0,.74.52,1,1.16.67a2.57,2.57,0,0,0,1.16-2c0-.74-.52-1-1.16-.67A2.57,2.57,0,0,0,148.23,187.65Z"/><path class="cls-7" d="M130.94,199.76l2.39-1.38a1.55,1.55,0,0,0,.65-1.24v-2.53c0-.47-.29-.69-.65-.49l-2.39,1.38a1.55,1.55,0,0,0-.65,1.24v2.53C130.29,199.74,130.58,200,130.94,199.76Z"/><path class="cls-3" d="M127.49,224.12,177.94,195a4.89,4.89,0,0,0,2.05-3.9v-9.62c0-1.51-.92-2.2-2.05-1.55l-50.45,29.13a4.89,4.89,0,0,0-2,3.91v9.62C125.45,224.08,126.36,224.77,127.49,224.12Z"/><path class="cls-8" d="M128.94,220.75l47.55-27.46a2.45,2.45,0,0,0,1-2v-7.23c0-.76-.46-1.12-1-.78l-47.55,27.45a2.5,2.5,0,0,0-1,2V220C127.9,220.73,128.37,221.08,128.94,220.75Z"/><path class="cls-4" d="M166.58,195.36l7.1-4.1a2.4,2.4,0,0,0,1-1.92h0c0-.74-.45-1.09-1-.76l-7.1,4.09a2.44,2.44,0,0,0-1,1.93h0C165.58,195.34,166,195.68,166.58,195.36Z"/><path class="cls-7" d="M160.54,197.51c0,.74.52,1,1.16.67a2.57,2.57,0,0,0,1.16-2c0-.74-.52-1-1.16-.67A2.59,2.59,0,0,0,160.54,197.51Z"/><path class="cls-7" d="M156.43,199.88c0,.74.52,1,1.17.67a2.57,2.57,0,0,0,1.16-2c0-.74-.52-1-1.16-.67A2.55,2.55,0,0,0,156.43,199.88Z"/><path class="cls-4" d="M152.33,202.25c0,.74.52,1,1.16.67a2.59,2.59,0,0,0,1.16-2c0-.74-.52-1-1.16-.67A2.57,2.57,0,0,0,152.33,202.25Z"/><path class="cls-7" d="M148.23,204.61c0,.75.52,1,1.16.68a2.59,2.59,0,0,0,1.16-2c0-.74-.52-1-1.16-.67A2.57,2.57,0,0,0,148.23,204.61Z"/><path class="cls-4" d="M130.94,216.72l2.39-1.38a1.55,1.55,0,0,0,.65-1.23v-2.53c0-.48-.29-.7-.65-.49l-2.39,1.38a1.53,1.53,0,0,0-.65,1.23v2.53C130.29,216.71,130.58,216.93,130.94,216.72Z"/><path class="cls-3" d="M127.49,241.08,177.94,212a4.9,4.9,0,0,0,2.05-3.91v-9.62c0-1.5-.92-2.2-2.05-1.54L127.49,226a4.89,4.89,0,0,0-2,3.91v9.62C125.45,241,126.36,241.74,127.49,241.08Z"/><path class="cls-8" d="M128.94,237.71l47.55-27.45a2.47,2.47,0,0,0,1-2V201c0-.76-.46-1.11-1-.78l-47.55,27.45a2.5,2.5,0,0,0-1,2v7.23C127.9,237.69,128.37,238,128.94,237.71Z"/><path class="cls-4" d="M166.58,212.32l7.1-4.09a2.43,2.43,0,0,0,1-1.93h0c0-.74-.45-1.08-1-.76l-7.1,4.1a2.42,2.42,0,0,0-1,1.92h0C165.58,212.3,166,212.64,166.58,212.32Z"/><path class="cls-7" d="M160.54,214.47c0,.74.52,1,1.16.67a2.57,2.57,0,0,0,1.16-2c0-.74-.52-1-1.16-.67A2.57,2.57,0,0,0,160.54,214.47Z"/><path class="cls-5" d="M156.43,216.84c0,.74.52,1,1.17.67a2.57,2.57,0,0,0,1.16-2c0-.74-.52-1.05-1.16-.67A2.55,2.55,0,0,0,156.43,216.84Z"/><path class="cls-4" d="M152.33,219.21c0,.74.52,1,1.16.67a2.57,2.57,0,0,0,1.16-2c0-.75-.52-1.05-1.16-.68A2.6,2.6,0,0,0,152.33,219.21Z"/><path class="cls-5" d="M148.23,221.58c0,.74.52,1,1.16.67a2.57,2.57,0,0,0,1.16-2c0-.75-.52-1.05-1.16-.68A2.59,2.59,0,0,0,148.23,221.58Z"/><path class="cls-4" d="M130.94,233.68l2.39-1.38a1.52,1.52,0,0,0,.65-1.23v-2.53c0-.48-.29-.69-.65-.49l-2.39,1.38a1.55,1.55,0,0,0-.65,1.24v2.53C130.29,233.67,130.58,233.89,130.94,233.68Z"/><path class="cls-3" d="M127.49,258.05l50.45-29.13A4.89,4.89,0,0,0,180,225V215.4c0-1.51-.92-2.2-2.05-1.55L127.49,243a4.88,4.88,0,0,0-2,3.9v9.62C125.45,258,126.36,258.7,127.49,258.05Z"/><path class="cls-8" d="M128.94,254.68l47.55-27.46a2.47,2.47,0,0,0,1-2V218c0-.77-.46-1.12-1-.79l-47.55,27.46a2.5,2.5,0,0,0-1,2v7.23C127.9,254.66,128.37,255,128.94,254.68Z"/><path class="cls-4" d="M166.58,229.29l7.1-4.1a2.4,2.4,0,0,0,1-1.93h0c0-.74-.45-1.08-1-.76l-7.1,4.1a2.42,2.42,0,0,0-1,1.92h0C165.58,229.27,166,229.61,166.58,229.29Z"/><path class="cls-7" d="M160.54,231.43c0,.75.52,1,1.16.68a2.59,2.59,0,0,0,1.16-2c0-.74-.52-1-1.16-.67A2.57,2.57,0,0,0,160.54,231.43Z"/><path class="cls-7" d="M156.43,233.8c0,.75.52,1,1.17.68a2.6,2.6,0,0,0,1.16-2c0-.74-.52-1-1.16-.67A2.55,2.55,0,0,0,156.43,233.8Z"/><path class="cls-4" d="M152.33,236.17c0,.74.52,1.05,1.16.67a2.57,2.57,0,0,0,1.16-2c0-.74-.52-1-1.16-.67A2.57,2.57,0,0,0,152.33,236.17Z"/><path class="cls-7" d="M148.23,238.54c0,.74.52,1,1.16.67a2.57,2.57,0,0,0,1.16-2c0-.74-.52-1-1.16-.67A2.57,2.57,0,0,0,148.23,238.54Z"/><path class="cls-7" d="M130.94,250.65l2.39-1.38A1.55,1.55,0,0,0,134,248V245.5c0-.47-.29-.69-.65-.48l-2.39,1.38a1.52,1.52,0,0,0-.65,1.23v2.53C130.29,250.64,130.58,250.85,130.94,250.65Z"/><path class="cls-3" d="M127.49,275l50.45-29.12A4.93,4.93,0,0,0,180,242v-9.62c0-1.51-.92-2.2-2.05-1.55l-50.45,29.13a4.89,4.89,0,0,0-2,3.91v9.62C125.45,275,126.36,275.66,127.49,275Z"/><path class="cls-8" d="M128.94,271.64l47.55-27.46a2.45,2.45,0,0,0,1-2V235c0-.76-.46-1.11-1-.78l-47.55,27.45a2.5,2.5,0,0,0-1,2v7.24C127.9,271.62,128.37,272,128.94,271.64Z"/><path class="cls-4" d="M166.58,246.25l7.1-4.1a2.4,2.4,0,0,0,1-1.92h0c0-.74-.45-1.08-1-.76l-7.1,4.09a2.45,2.45,0,0,0-1,1.93h0C165.58,246.23,166,246.57,166.58,246.25Z"/><path class="cls-5" d="M159.24,249.32c0,1.4,1,2,2.2,1.27a4.88,4.88,0,0,0,2.19-3.81c0-1.4-1-2-2.19-1.27A4.85,4.85,0,0,0,159.24,249.32Z"/><path class="cls-7" d="M150.74,254.29c0,.74.52,1,1.16.67a2.58,2.58,0,0,0,1.17-2c0-.74-.53-1-1.17-.67A2.57,2.57,0,0,0,150.74,254.29Z"/><path class="cls-4" d="M146.64,256.66c0,.74.52,1,1.16.67a2.57,2.57,0,0,0,1.16-2c0-.75-.52-1-1.16-.68A2.6,2.6,0,0,0,146.64,256.66Z"/><path class="cls-7" d="M142.53,259c0,.74.52,1,1.17.67a2.57,2.57,0,0,0,1.16-2c0-.74-.52-1-1.16-.67A2.57,2.57,0,0,0,142.53,259Z"/><path class="cls-4" d="M130.94,267.61l2.39-1.38A1.53,1.53,0,0,0,134,265v-2.53c0-.48-.29-.7-.65-.49l-2.39,1.38a1.55,1.55,0,0,0-.65,1.23v2.53C130.29,267.6,130.58,267.82,130.94,267.61Z"/><path class="cls-2" d="M244.31,247.89h0V122.18l50-13.09,9.21-5.31c2.11-1.22,5.8-1.07,8.24.34l8.59,5H347l-7.9,121.35a2.38,2.38,0,0,1-1.41,2.21l-49.88,37.63c-2.11,1.22-5.8,1.07-8.24-.34l-33.24-19.19C244.91,249.92,244.23,248.87,244.31,247.89Z"/><path class="cls-4" d="M307.31,103a9.56,9.56,0,0,1,4.42,1.16l8.59,5H347V235.12a2.38,2.38,0,0,1-1.42,2.2l-57.77,32.94a7.34,7.34,0,0,1-3.82.82l-.6-126.84Z"/><path class="cls-3" d="M287.26,270.52a9.41,9.41,0,0,1-6.59-.07V142.74h6.59Z"/><path class="cls-4" d="M287.79,144.26l57.77-32.94c2.11-1.22,1.85-3.35-.59-4.76L311.73,87.37c-2.44-1.41-6.13-1.56-8.24-.34L245.72,120c-2.11,1.22-1.85,3.35.59,4.76l33.24,19.19C282,145.32,285.68,145.48,287.79,144.26Z"/><path class="cls-6" d="M246.31,122.39l33.24,19.19c2.44,1.41,6.13,1.56,8.24.34L345.56,109a3.12,3.12,0,0,0,1.05-.93c.73,1.16.4,2.43-1.05,3.27l-57.77,32.94c-2.11,1.22-5.8,1.06-8.24-.34l-33.24-19.19c-1.89-1.1-2.47-2.63-1.64-3.83A4.54,4.54,0,0,0,246.31,122.39Z"/><path class="cls-7" d="M286.16,130.91l38.46-22.3c1-.57.86-1.56-.28-2.22l-15.55-9a4.29,4.29,0,0,0-3.86-.16l-38.46,22.29c-1,.57-.86,1.57.28,2.23l15.55,9A4.29,4.29,0,0,0,286.16,130.91Z"/><path class="cls-4" d="M306.92,109.61l2.23-1.28c.14-.08.12-.22,0-.31L307,106.78a.59.59,0,0,0-.53,0L304.2,108c-.14.08-.12.22,0,.31l2.15,1.24A.59.59,0,0,0,306.92,109.61Z"/><path class="cls-4" d="M299.48,113.9l2.23-1.29c.13-.08.12-.22,0-.31l-2.15-1.24a.61.61,0,0,0-.54,0l-2.23,1.28c-.13.08-.12.22,0,.31l2.15,1.24A.64.64,0,0,0,299.48,113.9Z"/><path class="cls-4" d="M292,118.18l2.23-1.29c.14-.08.12-.22,0-.31l-2.15-1.24a.59.59,0,0,0-.53,0l-2.23,1.28c-.14.08-.12.22,0,.31l2.15,1.24A.56.56,0,0,0,292,118.18Z"/><path class="cls-4" d="M284.59,122.46l2.22-1.29c.14-.08.12-.22,0-.31l-2.16-1.24a.58.58,0,0,0-.53,0l-2.23,1.29c-.13.07-.12.21,0,.3l2.15,1.25A.61.61,0,0,0,284.59,122.46Z"/><path class="cls-3" d="M324.62,108.61l-.05,0a2.29,2.29,0,0,0-.23-.16l-15.55-9a4.29,4.29,0,0,0-3.86-.16l-38.41,22.27c-.91-.65-1-1.54,0-2.07l38.46-22.29a4.29,4.29,0,0,1,3.86.16l15.55,9C325.48,107.05,325.61,108,324.62,108.61Z"/><path class="cls-7" d="M273.06,169.16l-21.87-12.52a5.32,5.32,0,0,1-2.22-4.25v-7.82c0-1.64,1-2.4,2.22-1.69l21.87,12.52a5.34,5.34,0,0,1,2.23,4.26v7.82C275.29,169.12,274.29,169.87,273.06,169.16Z"/><path class="cls-5" d="M250.11,142.65a2.17,2.17,0,0,0-.56,1.62v7.82a5.34,5.34,0,0,0,2.23,4.26l21.87,12.52a1.62,1.62,0,0,0,1.08.24,1.33,1.33,0,0,1-1.67,0l-21.87-12.52a5.32,5.32,0,0,1-2.22-4.25v-7.82C249,143.45,249.43,142.76,250.11,142.65Z"/><path class="cls-2" d="M266.48,160.67l-2-1.16a1.16,1.16,0,0,1-.49-.93v-2.14c0-.36.22-.52.49-.37l2,1.16a1.17,1.17,0,0,1,.49.93v2.14C267,160.66,266.75,160.82,266.48,160.67Z"/><path class="cls-5" d="M259.78,156.8l-2-1.16a1.16,1.16,0,0,1-.48-.93v-2.14c0-.36.21-.52.48-.37l2,1.16a1.15,1.15,0,0,1,.48.93v2.14C260.26,156.79,260.05,157,259.78,156.8Z"/><path class="cls-7" d="M273.06,225.67l-21.87-12.52a5.32,5.32,0,0,1-2.22-4.26v-7.82c0-1.64,1-2.39,2.22-1.68l21.87,12.52a5.34,5.34,0,0,1,2.23,4.26V224C275.29,225.63,274.29,226.38,273.06,225.67Z"/><path class="cls-5" d="M250.11,199.15a2.22,2.22,0,0,0-.56,1.63v7.82a5.34,5.34,0,0,0,2.23,4.26l21.87,12.52a1.55,1.55,0,0,0,1.08.23,1.32,1.32,0,0,1-1.67.06l-21.87-12.52a5.32,5.32,0,0,1-2.22-4.26v-7.82C249,200,249.43,199.27,250.11,199.15Z"/><path class="cls-2" d="M266.48,217.18l-2-1.16a1.17,1.17,0,0,1-.49-.93V213c0-.36.22-.52.49-.37l2,1.16a1.16,1.16,0,0,1,.49.93v2.14C267,217.17,266.75,217.33,266.48,217.18Z"/><path class="cls-5" d="M259.78,213.3l-2-1.15a1.16,1.16,0,0,1-.48-.93v-2.14c0-.36.21-.53.48-.37l2,1.16a1.14,1.14,0,0,1,.48.92v2.15C260.26,213.29,260.05,213.46,259.78,213.3Z"/><path class="cls-7" d="M273.06,253.93l-21.87-12.52a5.34,5.34,0,0,1-2.22-4.26v-7.82c0-1.64,1-2.4,2.22-1.69l21.87,12.52a5.34,5.34,0,0,1,2.23,4.26v7.82C275.29,253.88,274.29,254.64,273.06,253.93Z"/><path class="cls-5" d="M250.11,227.41a2.2,2.2,0,0,0-.56,1.63v7.82a5.33,5.33,0,0,0,2.23,4.25l21.87,12.52a1.62,1.62,0,0,0,1.08.24,1.34,1.34,0,0,1-1.67.06l-21.87-12.52a5.34,5.34,0,0,1-2.22-4.26v-7.82C249,228.21,249.43,227.52,250.11,227.41Z"/><path class="cls-2" d="M266.48,245.43l-2-1.16a1.16,1.16,0,0,1-.49-.93V241.2c0-.36.22-.52.49-.36l2,1.15a1.17,1.17,0,0,1,.49.93v2.14C267,245.42,266.75,245.59,266.48,245.43Z"/><path class="cls-5" d="M259.78,241.56l-2-1.16a1.15,1.15,0,0,1-.48-.93v-2.14c0-.36.21-.52.48-.37l2,1.16a1.16,1.16,0,0,1,.48.93v2.14C260.26,241.55,260.05,241.71,259.78,241.56Z"/><path class="cls-7" d="M273.06,197.42,251.19,184.9a5.34,5.34,0,0,1-2.22-4.26v-7.82c0-1.64,1-2.39,2.22-1.68l21.87,12.52a5.33,5.33,0,0,1,2.23,4.25v7.82C275.29,197.37,274.29,198.13,273.06,197.42Z"/><path class="cls-5" d="M250.11,170.9a2.2,2.2,0,0,0-.56,1.63v7.82a5.33,5.33,0,0,0,2.23,4.25l21.87,12.52a1.56,1.56,0,0,0,1.08.24,1.33,1.33,0,0,1-1.67.06L251.19,184.9a5.34,5.34,0,0,1-2.22-4.26v-7.82C249,171.71,249.43,171,250.11,170.9Z"/><path class="cls-2" d="M266.48,188.92l-2-1.16a1.15,1.15,0,0,1-.49-.92v-2.15c0-.35.22-.52.49-.36l2,1.16a1.15,1.15,0,0,1,.49.92v2.15C267,188.91,266.75,189.08,266.48,188.92Z"/><path class="cls-5" d="M259.78,185.05l-2-1.16a1.15,1.15,0,0,1-.48-.93v-2.14c0-.36.21-.52.48-.37l2,1.16a1.16,1.16,0,0,1,.48.93v2.14C260.26,185,260.05,185.21,259.78,185.05Z"/><path class="cls-3" d="M292,161.16,342.45,132a4.89,4.89,0,0,0,2.05-3.9v-9.62c0-1.51-.92-2.2-2.05-1.55L292,146.09a4.88,4.88,0,0,0-2,3.9v9.62C290,161.12,290.87,161.81,292,161.16Z"/><path class="cls-8" d="M293.45,157.79,341,130.33a2.47,2.47,0,0,0,1-2v-7.23c0-.77-.46-1.12-1-.79l-47.55,27.46a2.5,2.5,0,0,0-1,2V157C292.41,157.77,292.88,158.12,293.45,157.79Z"/><path class="cls-4" d="M331.09,132.4l7.1-4.1a2.4,2.4,0,0,0,1-1.93h0c0-.74-.45-1.08-1-.76l-7.1,4.1a2.43,2.43,0,0,0-1,1.93h0C330.08,132.38,330.54,132.72,331.09,132.4Z"/><path class="cls-7" d="M325,134.55c0,.74.53,1,1.17.67a2.59,2.59,0,0,0,1.16-2c0-.74-.52-1-1.16-.67A2.58,2.58,0,0,0,325,134.55Z"/><path class="cls-7" d="M320.94,136.91c0,.75.52,1.05,1.16.68a2.58,2.58,0,0,0,1.17-2c0-.74-.52-1-1.17-.67A2.57,2.57,0,0,0,320.94,136.91Z"/><path class="cls-4" d="M316.84,139.28c0,.74.52,1.05,1.16.67a2.57,2.57,0,0,0,1.16-2c0-.74-.52-1-1.16-.67A2.57,2.57,0,0,0,316.84,139.28Z"/><path class="cls-7" d="M312.73,141.65c0,.74.53,1,1.17.67a2.57,2.57,0,0,0,1.16-2c0-.74-.52-1-1.16-.67A2.58,2.58,0,0,0,312.73,141.65Z"/><path class="cls-7" d="M295.45,153.76l2.39-1.38a1.55,1.55,0,0,0,.65-1.24v-2.53c0-.47-.29-.69-.65-.48l-2.39,1.38a1.52,1.52,0,0,0-.65,1.23v2.53C294.8,153.75,295.09,154,295.45,153.76Z"/><path class="cls-3" d="M292,178.12,342.45,149a4.93,4.93,0,0,0,2.05-3.91v-9.62c0-1.51-.92-2.2-2.05-1.55L292,163.05a4.89,4.89,0,0,0-2,3.91v9.62C290,178.08,290.87,178.77,292,178.12Z"/><path class="cls-8" d="M293.45,174.75,341,147.29a2.45,2.45,0,0,0,1-2v-7.23c0-.76-.46-1.11-1-.78l-47.55,27.45a2.5,2.5,0,0,0-1,2V174C292.41,174.73,292.88,175.08,293.45,174.75Z"/><path class="cls-4" d="M331.09,149.36l7.1-4.1a2.4,2.4,0,0,0,1-1.92h0c0-.74-.45-1.08-1-.76l-7.1,4.09a2.46,2.46,0,0,0-1,1.93h0C330.08,149.34,330.54,149.68,331.09,149.36Z"/><path class="cls-5" d="M325,151.51c0,.74.53,1,1.17.67a2.57,2.57,0,0,0,1.16-2c0-.75-.52-1-1.16-.68A2.61,2.61,0,0,0,325,151.51Z"/><path class="cls-7" d="M320.94,153.88c0,.74.52,1,1.16.67a2.55,2.55,0,0,0,1.17-2c0-.74-.52-1-1.17-.67A2.59,2.59,0,0,0,320.94,153.88Z"/><path class="cls-4" d="M316.84,156.25c0,.74.52,1,1.16.67a2.57,2.57,0,0,0,1.16-2c0-.74-.52-1-1.16-.67A2.59,2.59,0,0,0,316.84,156.25Z"/><path class="cls-7" d="M312.73,158.62c0,.74.53,1,1.17.67a2.59,2.59,0,0,0,1.16-2c0-.74-.52-1-1.16-.67A2.58,2.58,0,0,0,312.73,158.62Z"/><path class="cls-7" d="M295.45,170.72l2.39-1.38a1.53,1.53,0,0,0,.65-1.23v-2.53c0-.48-.29-.7-.65-.49l-2.39,1.38a1.55,1.55,0,0,0-.65,1.23v2.53C294.8,170.71,295.09,170.93,295.45,170.72Z"/><path class="cls-3" d="M292,195.09,342.45,166a4.9,4.9,0,0,0,2.05-3.91v-9.62c0-1.5-.92-2.19-2.05-1.54L292,180a4.92,4.92,0,0,0-2,3.91v9.62C290,195.05,290.87,195.74,292,195.09Z"/><path class="cls-8" d="M293.45,191.71,341,164.26a2.47,2.47,0,0,0,1-2V155c0-.76-.46-1.11-1-.78l-47.55,27.46a2.48,2.48,0,0,0-1,2v7.23C292.41,191.69,292.88,192,293.45,191.71Z"/><path class="cls-4" d="M331.09,166.32l7.1-4.09a2.42,2.42,0,0,0,1-1.93h0c0-.74-.45-1.08-1-.76l-7.1,4.1a2.42,2.42,0,0,0-1,1.92h0C330.08,166.3,330.54,166.65,331.09,166.32Z"/><path class="cls-5" d="M325,168.47c0,.74.53,1,1.17.67a2.57,2.57,0,0,0,1.16-2c0-.74-.52-1-1.16-.67A2.58,2.58,0,0,0,325,168.47Z"/><path class="cls-7" d="M320.94,170.84c0,.74.52,1,1.16.67a2.55,2.55,0,0,0,1.17-2c0-.74-.52-1-1.17-.67A2.57,2.57,0,0,0,320.94,170.84Z"/><path class="cls-4" d="M316.84,173.21c0,.74.52,1,1.16.67a2.57,2.57,0,0,0,1.16-2c0-.74-.52-1-1.16-.67A2.57,2.57,0,0,0,316.84,173.21Z"/><path class="cls-7" d="M312.73,175.58c0,.74.53,1,1.17.67a2.57,2.57,0,0,0,1.16-2c0-.75-.52-1.05-1.16-.67A2.58,2.58,0,0,0,312.73,175.58Z"/><path class="cls-7" d="M295.45,187.69l2.39-1.38a1.55,1.55,0,0,0,.65-1.24v-2.53c0-.47-.29-.69-.65-.49l-2.39,1.38a1.55,1.55,0,0,0-.65,1.24v2.53C294.8,187.67,295.09,187.89,295.45,187.69Z"/><path class="cls-3" d="M292,212.05l50.45-29.13a4.89,4.89,0,0,0,2.05-3.9V169.4c0-1.51-.92-2.2-2.05-1.55L292,197a4.88,4.88,0,0,0-2,3.9v9.62C290,212,290.87,212.7,292,212.05Z"/><path class="cls-8" d="M293.45,208.68,341,181.22a2.47,2.47,0,0,0,1-2V172c0-.77-.46-1.12-1-.79l-47.55,27.46a2.5,2.5,0,0,0-1,2v7.23C292.41,208.66,292.88,209,293.45,208.68Z"/><path class="cls-4" d="M331.09,183.29l7.1-4.1a2.4,2.4,0,0,0,1-1.92h0c0-.75-.45-1.09-1-.77l-7.1,4.1a2.43,2.43,0,0,0-1,1.93h0C330.08,183.27,330.54,183.61,331.09,183.29Z"/><path class="cls-7" d="M325,185.44c0,.74.53,1,1.17.67a2.59,2.59,0,0,0,1.16-2c0-.74-.52-1-1.16-.67A2.58,2.58,0,0,0,325,185.44Z"/><path class="cls-7" d="M320.94,187.81c0,.74.52,1,1.16.67a2.57,2.57,0,0,0,1.17-2c0-.74-.52-1-1.17-.67A2.57,2.57,0,0,0,320.94,187.81Z"/><path class="cls-4" d="M316.84,190.17c0,.75.52,1.05,1.16.68a2.6,2.6,0,0,0,1.16-2c0-.74-.52-1-1.16-.67A2.57,2.57,0,0,0,316.84,190.17Z"/><path class="cls-7" d="M312.73,192.54c0,.75.53,1.05,1.17.67a2.57,2.57,0,0,0,1.16-2c0-.74-.52-1-1.16-.67A2.58,2.58,0,0,0,312.73,192.54Z"/><path class="cls-4" d="M295.45,204.65l2.39-1.38a1.55,1.55,0,0,0,.65-1.24v-2.52c0-.48-.29-.7-.65-.49l-2.39,1.38a1.53,1.53,0,0,0-.65,1.23v2.53C294.8,204.64,295.09,204.86,295.45,204.65Z"/><path class="cls-3" d="M292,229l50.45-29.12A4.91,4.91,0,0,0,344.5,196v-9.62c0-1.51-.92-2.2-2.05-1.55L292,213.94a4.89,4.89,0,0,0-2,3.91v9.62C290,229,290.87,229.67,292,229Z"/><path class="cls-8" d="M293.45,225.64,341,198.19a2.47,2.47,0,0,0,1-2V189c0-.76-.46-1.11-1-.78l-47.55,27.45a2.5,2.5,0,0,0-1,2v7.24C292.41,225.62,292.88,226,293.45,225.64Z"/><path class="cls-4" d="M331.09,200.25l7.1-4.1a2.4,2.4,0,0,0,1-1.92h0c0-.74-.45-1.08-1-.76l-7.1,4.1a2.42,2.42,0,0,0-1,1.92h0C330.08,200.23,330.54,200.57,331.09,200.25Z"/><path class="cls-7" d="M325,202.4c0,.74.53,1,1.17.67a2.57,2.57,0,0,0,1.16-2c0-.74-.52-1.05-1.16-.67A2.58,2.58,0,0,0,325,202.4Z"/><path class="cls-5" d="M320.94,204.77c0,.74.52,1,1.16.67a2.55,2.55,0,0,0,1.17-2c0-.75-.52-1.05-1.17-.68A2.6,2.6,0,0,0,320.94,204.77Z"/><path class="cls-4" d="M316.84,207.14c0,.74.52,1,1.16.67a2.57,2.57,0,0,0,1.16-2c0-.74-.52-1-1.16-.67A2.59,2.59,0,0,0,316.84,207.14Z"/><path class="cls-5" d="M312.73,209.51c0,.74.53,1,1.17.67a2.57,2.57,0,0,0,1.16-2c0-.74-.52-1-1.16-.67A2.6,2.6,0,0,0,312.73,209.51Z"/><path class="cls-4" d="M295.45,221.61l2.39-1.38a1.53,1.53,0,0,0,.65-1.23v-2.53c0-.48-.29-.7-.65-.49l-2.39,1.38a1.55,1.55,0,0,0-.65,1.24v2.52C294.8,221.6,295.09,221.82,295.45,221.61Z"/><path class="cls-3" d="M292,246l50.45-29.13a4.9,4.9,0,0,0,2.05-3.91v-9.62c0-1.5-.92-2.19-2.05-1.54L292,230.91a4.88,4.88,0,0,0-2,3.9v9.62C290,245.94,290.87,246.63,292,246Z"/><path class="cls-8" d="M293.45,242.6,341,215.15a2.47,2.47,0,0,0,1-2v-7.23c0-.77-.46-1.12-1-.79l-47.55,27.46a2.48,2.48,0,0,0-1,2v7.23C292.41,242.58,292.88,242.94,293.45,242.6Z"/><path class="cls-4" d="M331.09,217.22l7.1-4.1a2.42,2.42,0,0,0,1-1.93h0c0-.74-.45-1.08-1-.76l-7.1,4.1a2.42,2.42,0,0,0-1,1.92h0C330.08,217.2,330.54,217.54,331.09,217.22Z"/><path class="cls-7" d="M325,219.36c0,.75.53,1,1.17.68a2.6,2.6,0,0,0,1.16-2c0-.74-.52-1-1.16-.67A2.58,2.58,0,0,0,325,219.36Z"/><path class="cls-7" d="M320.94,221.73c0,.74.52,1.05,1.16.67a2.55,2.55,0,0,0,1.17-2c0-.74-.52-1-1.17-.67A2.57,2.57,0,0,0,320.94,221.73Z"/><path class="cls-4" d="M316.84,224.1c0,.74.52,1,1.16.67a2.57,2.57,0,0,0,1.16-2c0-.74-.52-1-1.16-.67A2.57,2.57,0,0,0,316.84,224.1Z"/><path class="cls-7" d="M312.73,226.47c0,.74.53,1,1.17.67a2.57,2.57,0,0,0,1.16-2c0-.74-.52-1-1.16-.67A2.58,2.58,0,0,0,312.73,226.47Z"/><path class="cls-7" d="M295.45,238.58l2.39-1.38a1.55,1.55,0,0,0,.65-1.24v-2.53c0-.47-.29-.69-.65-.49l-2.39,1.38a1.55,1.55,0,0,0-.65,1.24v2.53C294.8,238.56,295.09,238.78,295.45,238.58Z"/><path class="cls-3" d="M292,262.94l50.45-29.13a4.89,4.89,0,0,0,2.05-3.9v-9.62c0-1.51-.92-2.2-2.05-1.55L292,247.87a4.89,4.89,0,0,0-2,3.91v9.62C290,262.9,290.87,263.59,292,262.94Z"/><path class="cls-8" d="M293.45,259.57,341,232.11a2.45,2.45,0,0,0,1-2V222.9c0-.76-.46-1.12-1-.78l-47.55,27.45a2.5,2.5,0,0,0-1,2v7.23C292.41,259.55,292.88,259.9,293.45,259.57Z"/><path class="cls-4" d="M331.09,234.18l7.1-4.1a2.4,2.4,0,0,0,1-1.92h0c0-.74-.45-1.09-1-.76l-7.1,4.09a2.44,2.44,0,0,0-1,1.93h0C330.08,234.16,330.54,234.5,331.09,234.18Z"/><path class="cls-5" d="M323.75,237.25c0,1.4,1,2,2.19,1.26a4.83,4.83,0,0,0,2.2-3.8c0-1.4-1-2-2.2-1.27A4.85,4.85,0,0,0,323.75,237.25Z"/><path class="cls-7" d="M315.25,242.22c0,.74.52,1,1.16.67a2.58,2.58,0,0,0,1.17-2c0-.75-.53-1-1.17-.68A2.6,2.6,0,0,0,315.25,242.22Z"/><path class="cls-4" d="M311.15,244.59c0,.74.52,1,1.16.67a2.57,2.57,0,0,0,1.16-2c0-.74-.52-1-1.16-.67A2.59,2.59,0,0,0,311.15,244.59Z"/><path class="cls-7" d="M307,247c0,.74.52,1,1.17.67a2.57,2.57,0,0,0,1.16-2c0-.74-.52-1-1.16-.67A2.57,2.57,0,0,0,307,247Z"/><path class="cls-4" d="M295.45,255.54l2.39-1.38a1.55,1.55,0,0,0,.65-1.23V250.4c0-.48-.29-.7-.65-.49l-2.39,1.38a1.53,1.53,0,0,0-.65,1.23v2.53C294.8,255.53,295.09,255.75,295.45,255.54Z"/><path class="cls-2" d="M151.6,301.26h0V175.55l50-13.08,9.21-5.32c2.11-1.22,5.8-1.07,8.24.34l8.59,5h26.66l-7.9,121.36A2.38,2.38,0,0,1,245,286l-49.88,37.64c-2.11,1.22-5.8,1.06-8.24-.35L153.6,304.1C152.2,303.29,151.52,302.24,151.6,301.26Z"/><path class="cls-4" d="M214.6,156.33a9.56,9.56,0,0,1,4.42,1.16l8.59,5h26.66V288.49a2.41,2.41,0,0,1-1.42,2.21l-57.77,32.94a7.44,7.44,0,0,1-3.82.81l-.6-126.84Z"/><path class="cls-3" d="M194.55,323.9a9.41,9.41,0,0,1-6.59-.08V196.11h6.59Z"/><path class="cls-4" d="M195.08,197.63l57.77-32.94c2.11-1.22,1.85-3.35-.59-4.76L219,140.74c-2.44-1.41-6.13-1.56-8.24-.34L153,173.34c-2.11,1.22-1.85,3.35.59,4.76l33.24,19.19C189.28,198.7,193,198.85,195.08,197.63Z"/><path class="cls-6" d="M153.6,175.76,186.84,195c2.44,1.41,6.13,1.56,8.24.34l57.77-32.94a3.12,3.12,0,0,0,1.05-.93c.73,1.16.4,2.43-1.05,3.27l-57.77,32.94c-2.11,1.22-5.8,1.07-8.24-.34L153.6,178.1c-1.89-1.1-2.47-2.63-1.64-3.83A4.54,4.54,0,0,0,153.6,175.76Z"/><path class="cls-7" d="M193.45,184.28,231.91,162c1-.57.86-1.56-.28-2.22l-15.55-9a4.29,4.29,0,0,0-3.86-.16l-38.46,22.29c-1,.57-.86,1.57.28,2.23l15.55,9A4.29,4.29,0,0,0,193.45,184.28Z"/><path class="cls-4" d="M214.21,163l2.23-1.29c.14-.08.12-.22,0-.31l-2.15-1.24a.59.59,0,0,0-.53,0l-2.23,1.28c-.14.08-.12.22,0,.31l2.15,1.24A.56.56,0,0,0,214.21,163Z"/><path class="cls-4" d="M206.77,167.27,209,166c.13-.08.11-.22,0-.31l-2.16-1.24a.58.58,0,0,0-.53,0L204,165.69c-.13.08-.12.22,0,.31l2.15,1.25A.61.61,0,0,0,206.77,167.27Z"/><path class="cls-4" d="M199.32,171.55l2.23-1.29c.14-.08.12-.22,0-.31l-2.15-1.24a.59.59,0,0,0-.53,0L196.6,170c-.14.07-.12.21,0,.3l2.15,1.25A.59.59,0,0,0,199.32,171.55Z"/><path class="cls-4" d="M191.88,175.83l2.22-1.29c.14-.08.12-.21,0-.31L191.91,173a.58.58,0,0,0-.53,0l-2.23,1.29c-.13.08-.12.21,0,.3l2.15,1.25A.61.61,0,0,0,191.88,175.83Z"/><path class="cls-3" d="M231.91,162l0,0a2.29,2.29,0,0,0-.23-.16l-15.55-9a4.29,4.29,0,0,0-3.86-.16L173.81,175c-.91-.65-1-1.54-.05-2.07l38.46-22.29a4.29,4.29,0,0,1,3.86.16l15.55,9C232.77,160.42,232.9,161.41,231.91,162Z"/><path class="cls-7" d="M180.35,222.54,158.48,210a5.35,5.35,0,0,1-2.22-4.26v-7.82c0-1.64,1-2.4,2.22-1.69l21.87,12.52a5.34,5.34,0,0,1,2.23,4.26v7.82C182.58,222.49,181.58,223.25,180.35,222.54Z"/><path class="cls-5" d="M157.4,196a2.17,2.17,0,0,0-.56,1.62v7.82a5.33,5.33,0,0,0,2.23,4.26l21.87,12.52a1.62,1.62,0,0,0,1.08.24,1.34,1.34,0,0,1-1.67.06L158.48,210a5.35,5.35,0,0,1-2.22-4.26v-7.82C156.26,196.82,156.72,196.13,157.4,196Z"/><path class="cls-2" d="M173.77,214l-2-1.16a1.16,1.16,0,0,1-.49-.93v-2.14c0-.36.22-.52.49-.37l2,1.16a1.17,1.17,0,0,1,.49.93v2.14C174.26,214,174,214.2,173.77,214Z"/><path class="cls-5" d="M167.07,210.17l-2-1.16a1.16,1.16,0,0,1-.49-.93v-2.14c0-.36.22-.52.49-.37l2,1.16a1.19,1.19,0,0,1,.48.93v2.14C167.55,210.16,167.33,210.32,167.07,210.17Z"/><path class="cls-7" d="M180.35,279l-21.87-12.52a5.32,5.32,0,0,1-2.22-4.25v-7.82c0-1.64,1-2.4,2.22-1.69l21.87,12.52a5.34,5.34,0,0,1,2.23,4.26v7.82C182.58,279,181.58,279.75,180.35,279Z"/><path class="cls-5" d="M157.4,252.53a2.17,2.17,0,0,0-.56,1.62V262a5.34,5.34,0,0,0,2.23,4.26l21.87,12.52A1.62,1.62,0,0,0,182,279a1.33,1.33,0,0,1-1.67.05l-21.87-12.52a5.32,5.32,0,0,1-2.22-4.25v-7.82C156.26,253.33,156.72,252.64,157.4,252.53Z"/><path class="cls-2" d="M173.77,270.55l-2-1.16a1.16,1.16,0,0,1-.49-.93v-2.14c0-.36.22-.52.49-.37l2,1.16a1.17,1.17,0,0,1,.49.93v2.14C174.26,270.54,174,270.7,173.77,270.55Z"/><path class="cls-5" d="M167.07,266.68l-2-1.16a1.17,1.17,0,0,1-.49-.93v-2.14c0-.36.22-.52.49-.37l2,1.16a1.17,1.17,0,0,1,.48.93v2.14C167.55,266.67,167.33,266.83,167.07,266.68Z"/><path class="cls-7" d="M180.35,307.3l-21.87-12.52a5.34,5.34,0,0,1-2.22-4.26V282.7c0-1.64,1-2.39,2.22-1.68l21.87,12.52a5.33,5.33,0,0,1,2.23,4.25v7.82C182.58,307.25,181.58,308,180.35,307.3Z"/><path class="cls-5" d="M157.4,280.78a2.2,2.2,0,0,0-.56,1.63v7.82a5.33,5.33,0,0,0,2.23,4.25L180.94,307a1.62,1.62,0,0,0,1.08.24,1.34,1.34,0,0,1-1.67.06l-21.87-12.52a5.34,5.34,0,0,1-2.22-4.26V282.7C156.26,281.59,156.72,280.9,157.4,280.78Z"/><path class="cls-2" d="M173.77,298.8l-2-1.16a1.15,1.15,0,0,1-.49-.92v-2.15c0-.35.22-.52.49-.36l2,1.15a1.17,1.17,0,0,1,.49.93v2.15C174.26,298.79,174,299,173.77,298.8Z"/><path class="cls-5" d="M167.07,294.93l-2-1.16a1.16,1.16,0,0,1-.49-.93V290.7c0-.36.22-.52.49-.37l2,1.16a1.19,1.19,0,0,1,.48.93v2.14C167.55,294.92,167.33,295.08,167.07,294.93Z"/><path class="cls-7" d="M180.35,250.79l-21.87-12.52a5.34,5.34,0,0,1-2.22-4.26v-7.82c0-1.64,1-2.39,2.22-1.68L180.35,237a5.33,5.33,0,0,1,2.23,4.25v7.82C182.58,250.75,181.58,251.5,180.35,250.79Z"/><path class="cls-5" d="M157.4,224.27a2.22,2.22,0,0,0-.56,1.63v7.82a5.34,5.34,0,0,0,2.23,4.26l21.87,12.52a1.61,1.61,0,0,0,1.08.23,1.33,1.33,0,0,1-1.67.06l-21.87-12.52a5.34,5.34,0,0,1-2.22-4.26v-7.82C156.26,225.08,156.72,224.39,157.4,224.27Z"/><path class="cls-2" d="M173.77,242.29l-2-1.15a1.17,1.17,0,0,1-.49-.93v-2.14c0-.36.22-.53.49-.37l2,1.16a1.15,1.15,0,0,1,.49.92v2.15C174.26,242.28,174,242.45,173.77,242.29Z"/><path class="cls-5" d="M167.07,238.42l-2-1.16a1.15,1.15,0,0,1-.49-.92v-2.15c0-.35.22-.52.49-.36l2,1.15a1.19,1.19,0,0,1,.48.93v2.14C167.55,238.41,167.33,238.58,167.07,238.42Z"/><path class="cls-3" d="M199.29,214.53l50.45-29.13a4.88,4.88,0,0,0,2-3.9v-9.62c0-1.51-.91-2.2-2-1.55l-50.45,29.13a4.88,4.88,0,0,0-2,3.9V213C197.25,214.49,198.16,215.18,199.29,214.53Z"/><path class="cls-8" d="M200.74,211.16l47.55-27.46a2.5,2.5,0,0,0,1-2v-7.23c0-.77-.47-1.12-1-.79l-47.55,27.46a2.5,2.5,0,0,0-1,2v7.23C199.7,211.14,200.17,211.49,200.74,211.16Z"/><path class="cls-4" d="M238.38,185.77l7.1-4.1a2.42,2.42,0,0,0,1-1.92h0c0-.75-.46-1.09-1-.77l-7.1,4.1a2.43,2.43,0,0,0-1,1.93h0C237.37,185.75,237.83,186.09,238.38,185.77Z"/><path class="cls-7" d="M232.33,187.92c0,.74.53,1,1.17.67a2.57,2.57,0,0,0,1.16-2c0-.74-.52-1-1.16-.67A2.58,2.58,0,0,0,232.33,187.92Z"/><path class="cls-7" d="M228.23,190.29c0,.74.52,1,1.16.67a2.57,2.57,0,0,0,1.17-2c0-.74-.52-1-1.17-.67A2.57,2.57,0,0,0,228.23,190.29Z"/><path class="cls-4" d="M224.13,192.65c0,.75.52,1,1.16.68a2.59,2.59,0,0,0,1.16-2c0-.74-.52-1-1.16-.67A2.57,2.57,0,0,0,224.13,192.65Z"/><path class="cls-7" d="M220,195c0,.75.53,1,1.17.68a2.6,2.6,0,0,0,1.16-2c0-.74-.52-1-1.16-.67A2.58,2.58,0,0,0,220,195Z"/><path class="cls-7" d="M202.74,207.13l2.39-1.38a1.55,1.55,0,0,0,.65-1.24V202c0-.48-.29-.7-.65-.49l-2.39,1.38a1.53,1.53,0,0,0-.65,1.23v2.53C202.09,207.12,202.38,207.34,202.74,207.13Z"/><path class="cls-3" d="M199.29,231.49l50.45-29.12a4.89,4.89,0,0,0,2-3.91v-9.62c0-1.5-.91-2.2-2-1.54l-50.45,29.12a4.89,4.89,0,0,0-2,3.91V230C197.25,231.45,198.16,232.15,199.29,231.49Z"/><path class="cls-8" d="M200.74,228.12l47.55-27.45a2.5,2.5,0,0,0,1-2v-7.23c0-.76-.47-1.11-1-.78l-47.55,27.45a2.5,2.5,0,0,0-1,2v7.24C199.7,228.1,200.17,228.45,200.74,228.12Z"/><path class="cls-4" d="M238.38,202.73l7.1-4.1a2.42,2.42,0,0,0,1-1.92h0c0-.74-.46-1.08-1-.76l-7.1,4.1a2.42,2.42,0,0,0-1,1.92h0C237.37,202.71,237.83,203.05,238.38,202.73Z"/><path class="cls-5" d="M232.33,204.88c0,.74.53,1,1.17.67a2.57,2.57,0,0,0,1.16-2c0-.74-.52-1-1.16-.67A2.58,2.58,0,0,0,232.33,204.88Z"/><path class="cls-7" d="M228.23,207.25c0,.74.52,1,1.16.67a2.55,2.55,0,0,0,1.17-2c0-.75-.52-1-1.17-.68A2.6,2.6,0,0,0,228.23,207.25Z"/><path class="cls-4" d="M224.13,209.62c0,.74.52,1,1.16.67a2.57,2.57,0,0,0,1.16-2c0-.75-.52-1.05-1.16-.68A2.59,2.59,0,0,0,224.13,209.62Z"/><path class="cls-7" d="M220,212c0,.74.53,1,1.17.67a2.57,2.57,0,0,0,1.16-2c0-.74-.52-1-1.16-.67A2.6,2.6,0,0,0,220,212Z"/><path class="cls-7" d="M202.74,224.09l2.39-1.38a1.53,1.53,0,0,0,.65-1.23V219c0-.48-.29-.7-.65-.49l-2.39,1.38a1.55,1.55,0,0,0-.65,1.24v2.52C202.09,224.08,202.38,224.3,202.74,224.09Z"/><path class="cls-3" d="M199.29,248.46l50.45-29.13a4.89,4.89,0,0,0,2-3.91V205.8c0-1.5-.91-2.19-2-1.54l-50.45,29.13a4.88,4.88,0,0,0-2,3.9v9.62C197.25,248.42,198.16,249.11,199.29,248.46Z"/><path class="cls-8" d="M200.74,245.08l47.55-27.45a2.5,2.5,0,0,0,1-2v-7.23c0-.77-.47-1.12-1-.79l-47.55,27.46a2.48,2.48,0,0,0-1,2v7.23C199.7,245.06,200.17,245.42,200.74,245.08Z"/><path class="cls-4" d="M238.38,219.7l7.1-4.1a2.43,2.43,0,0,0,1-1.93h0c0-.74-.46-1.08-1-.76l-7.1,4.1a2.42,2.42,0,0,0-1,1.92h0C237.37,219.68,237.83,220,238.38,219.7Z"/><path class="cls-5" d="M232.33,221.84c0,.75.53,1,1.17.68a2.6,2.6,0,0,0,1.16-2c0-.74-.52-1-1.16-.67A2.58,2.58,0,0,0,232.33,221.84Z"/><path class="cls-7" d="M228.23,224.21c0,.74.52,1,1.16.67a2.55,2.55,0,0,0,1.17-2c0-.74-.52-1-1.17-.67A2.57,2.57,0,0,0,228.23,224.21Z"/><path class="cls-4" d="M224.13,226.58c0,.74.52,1,1.16.67a2.57,2.57,0,0,0,1.16-2c0-.74-.52-1-1.16-.67A2.57,2.57,0,0,0,224.13,226.58Z"/><path class="cls-7" d="M220,229c0,.74.53,1,1.17.67a2.57,2.57,0,0,0,1.16-2c0-.74-.52-1-1.16-.67A2.58,2.58,0,0,0,220,229Z"/><path class="cls-7" d="M202.74,241.06l2.39-1.38a1.55,1.55,0,0,0,.65-1.24v-2.53c0-.47-.29-.69-.65-.49l-2.39,1.38a1.55,1.55,0,0,0-.65,1.24v2.53C202.09,241,202.38,241.26,202.74,241.06Z"/><path class="cls-3" d="M199.29,265.42l50.45-29.13a4.88,4.88,0,0,0,2-3.9v-9.62c0-1.51-.91-2.2-2-1.55l-50.45,29.13a4.89,4.89,0,0,0-2,3.91v9.62C197.25,265.38,198.16,266.07,199.29,265.42Z"/><path class="cls-8" d="M200.74,262.05l47.55-27.46a2.48,2.48,0,0,0,1-2v-7.23c0-.76-.47-1.12-1-.78l-47.55,27.45a2.5,2.5,0,0,0-1,2v7.23C199.7,262,200.17,262.38,200.74,262.05Z"/><path class="cls-4" d="M238.38,236.66l7.1-4.1a2.42,2.42,0,0,0,1-1.92h0c0-.74-.46-1.09-1-.76l-7.1,4.09a2.44,2.44,0,0,0-1,1.93h0C237.37,236.64,237.83,237,238.38,236.66Z"/><path class="cls-7" d="M232.33,238.81c0,.74.53,1,1.17.67a2.57,2.57,0,0,0,1.16-2c0-.74-.52-1-1.16-.67A2.6,2.6,0,0,0,232.33,238.81Z"/><path class="cls-7" d="M228.23,241.18c0,.74.52,1,1.16.67a2.55,2.55,0,0,0,1.17-2c0-.74-.52-1-1.17-.67A2.57,2.57,0,0,0,228.23,241.18Z"/><path class="cls-4" d="M224.13,243.55c0,.74.52,1,1.16.67a2.59,2.59,0,0,0,1.16-2c0-.74-.52-1-1.16-.67A2.57,2.57,0,0,0,224.13,243.55Z"/><path class="cls-7" d="M220,245.91c0,.75.53,1.05,1.17.68a2.59,2.59,0,0,0,1.16-2c0-.74-.52-1-1.16-.67A2.58,2.58,0,0,0,220,245.91Z"/><path class="cls-4" d="M202.74,258l2.39-1.38a1.55,1.55,0,0,0,.65-1.23v-2.53c0-.48-.29-.7-.65-.49l-2.39,1.38a1.53,1.53,0,0,0-.65,1.23v2.53C202.09,258,202.38,258.23,202.74,258Z"/><path class="cls-3" d="M199.29,282.39l50.45-29.13a4.89,4.89,0,0,0,2-3.91v-9.62c0-1.5-.91-2.2-2-1.54l-50.45,29.12a4.9,4.9,0,0,0-2,3.91v9.62C197.25,282.35,198.16,283,199.29,282.39Z"/><path class="cls-8" d="M200.74,279l47.55-27.45a2.5,2.5,0,0,0,1-2v-7.24c0-.76-.47-1.11-1-.78L200.74,269a2.5,2.5,0,0,0-1,2v7.23C199.7,279,200.17,279.34,200.74,279Z"/><path class="cls-4" d="M238.38,253.62l7.1-4.09a2.46,2.46,0,0,0,1-1.93h0c0-.74-.46-1.08-1-.76l-7.1,4.1a2.42,2.42,0,0,0-1,1.92h0C237.37,253.6,237.83,253.94,238.38,253.62Z"/><path class="cls-7" d="M232.33,255.77c0,.74.53,1,1.17.67a2.57,2.57,0,0,0,1.16-2c0-.74-.52-1-1.16-.67A2.58,2.58,0,0,0,232.33,255.77Z"/><path class="cls-5" d="M228.23,258.14c0,.74.52,1,1.16.67a2.55,2.55,0,0,0,1.17-2c0-.74-.52-1.05-1.17-.67A2.57,2.57,0,0,0,228.23,258.14Z"/><path class="cls-4" d="M224.13,260.51c0,.74.52,1,1.16.67a2.57,2.57,0,0,0,1.16-2c0-.75-.52-1.05-1.16-.68A2.6,2.6,0,0,0,224.13,260.51Z"/><path class="cls-5" d="M220,262.88c0,.74.53,1,1.17.67a2.57,2.57,0,0,0,1.16-2c0-.75-.52-1.05-1.16-.68A2.6,2.6,0,0,0,220,262.88Z"/><path class="cls-4" d="M202.74,275l2.39-1.38a1.52,1.52,0,0,0,.65-1.23v-2.53c0-.48-.29-.69-.65-.49l-2.39,1.38a1.55,1.55,0,0,0-.65,1.24v2.53C202.09,275,202.38,275.19,202.74,275Z"/><path class="cls-3" d="M199.29,299.35l50.45-29.13a4.88,4.88,0,0,0,2-3.9V256.7c0-1.51-.91-2.2-2-1.55l-50.45,29.13a4.88,4.88,0,0,0-2,3.9v9.62C197.25,299.31,198.16,300,199.29,299.35Z"/><path class="cls-8" d="M200.74,296l47.55-27.46a2.5,2.5,0,0,0,1-2v-7.23c0-.77-.47-1.12-1-.79L200.74,286a2.5,2.5,0,0,0-1,2v7.23C199.7,296,200.17,296.31,200.74,296Z"/><path class="cls-4" d="M238.38,270.59l7.1-4.1a2.43,2.43,0,0,0,1-1.93h0c0-.74-.46-1.08-1-.76l-7.1,4.1a2.43,2.43,0,0,0-1,1.93h0C237.37,270.57,237.83,270.91,238.38,270.59Z"/><path class="cls-7" d="M232.33,272.74c0,.74.53,1,1.17.67a2.59,2.59,0,0,0,1.16-2c0-.74-.52-1-1.16-.67A2.58,2.58,0,0,0,232.33,272.74Z"/><path class="cls-7" d="M228.23,275.1c0,.75.52,1,1.16.68a2.58,2.58,0,0,0,1.17-2c0-.74-.52-1-1.17-.67A2.57,2.57,0,0,0,228.23,275.1Z"/><path class="cls-4" d="M224.13,277.47c0,.74.52,1,1.16.67a2.57,2.57,0,0,0,1.16-2c0-.74-.52-1-1.16-.67A2.57,2.57,0,0,0,224.13,277.47Z"/><path class="cls-7" d="M220,279.84c0,.74.53,1,1.17.67a2.57,2.57,0,0,0,1.16-2c0-.74-.52-1-1.16-.67A2.58,2.58,0,0,0,220,279.84Z"/><path class="cls-7" d="M202.74,292l2.39-1.38a1.55,1.55,0,0,0,.65-1.24V286.8c0-.47-.29-.69-.65-.48l-2.39,1.38a1.52,1.52,0,0,0-.65,1.23v2.53C202.09,291.94,202.38,292.15,202.74,292Z"/><path class="cls-3" d="M199.29,316.31l50.45-29.12a4.92,4.92,0,0,0,2-3.91v-9.62c0-1.51-.91-2.2-2-1.55l-50.45,29.13a4.89,4.89,0,0,0-2,3.91v9.62C197.25,316.27,198.16,317,199.29,316.31Z"/><path class="cls-8" d="M200.74,312.94l47.55-27.46a2.48,2.48,0,0,0,1-2v-7.23c0-.76-.47-1.11-1-.78l-47.55,27.45a2.5,2.5,0,0,0-1,2v7.24C199.7,312.92,200.17,313.27,200.74,312.94Z"/><path class="cls-4" d="M238.38,287.55l7.1-4.1a2.42,2.42,0,0,0,1-1.92h0c0-.74-.46-1.08-1-.76l-7.1,4.09a2.46,2.46,0,0,0-1,1.93h0C237.37,287.53,237.83,287.87,238.38,287.55Z"/><path class="cls-5" d="M231,290.62c0,1.4,1,2,2.19,1.27a4.87,4.87,0,0,0,2.2-3.81c0-1.4-1-2-2.2-1.27A4.87,4.87,0,0,0,231,290.62Z"/><path class="cls-7" d="M222.54,295.59c0,.74.52,1,1.16.67a2.57,2.57,0,0,0,1.16-2c0-.74-.52-1.05-1.16-.67A2.57,2.57,0,0,0,222.54,295.59Z"/><path class="cls-4" d="M218.44,298c0,.74.52,1,1.16.67a2.57,2.57,0,0,0,1.16-2c0-.75-.52-1.05-1.16-.68A2.6,2.6,0,0,0,218.44,298Z"/><path class="cls-7" d="M214.33,300.33c0,.74.52,1,1.16.67a2.55,2.55,0,0,0,1.17-2c0-.75-.52-1.05-1.17-.68A2.59,2.59,0,0,0,214.33,300.33Z"/><path class="cls-4" d="M202.74,308.91l2.39-1.38a1.53,1.53,0,0,0,.65-1.23v-2.53c0-.48-.29-.7-.65-.49l-2.39,1.38a1.55,1.55,0,0,0-.65,1.23v2.53C202.09,308.9,202.38,309.12,202.74,308.91Z"/><path class="cls-4" d="M216,100.67l57.77-32.94c2.11-1.22,1.85-3.35-.59-4.76L239.93,43.78c-2.44-1.41-6.13-1.56-8.24-.34L173.92,76.38c-2.11,1.21-1.85,3.35.59,4.75l33.24,19.19C210.19,101.73,213.88,101.88,216,100.67Z"/><path class="cls-4" d="M123.28,154l57.77-32.94c2.11-1.22,1.85-3.35-.59-4.76L147.22,97.15c-2.44-1.41-6.13-1.56-8.24-.34L81.21,129.75c-2.11,1.22-1.85,3.35.59,4.76L115,153.7C117.48,155.1,121.17,155.26,123.28,154Z"/><path class="cls-4" d="M287.79,142,345.56,109c2.11-1.22,1.85-3.35-.59-4.76L311.73,85.08c-2.44-1.41-6.13-1.56-8.24-.34l-57.77,32.94c-2.11,1.22-1.85,3.35.59,4.75l33.24,19.19C282,143,285.68,143.19,287.79,142Z"/><path class="cls-1" d="M231.69,43.44,193.82,65l34.7,20L270,61.13,239.93,43.78C237.49,42.37,233.8,42.22,231.69,43.44Z"/><path class="cls-7" d="M272.31,39.25l-6.4-3.69,23.58-13.62a1.23,1.23,0,0,0,0-2.33L265.4,5.7a4.49,4.49,0,0,0-4,0L237.78,19.32l-6.39-3.7L255,2c4.64-2.68,12.19-2.68,16.83,0l24.09,13.91c4.64,2.68,4.64,7,0,9.72Z"/><path class="cls-4" d="M282.63,40.88c0-3.42-2.08-7.4-4.65-8.88L235.26,7.34a3,3,0,0,0-3-.26h0l-51,29.64L230.57,73.9l50.26-29.17a3.91,3.91,0,0,0,.44-.26h0A4.38,4.38,0,0,0,282.63,40.88Z"/><path class="cls-2" d="M230.57,73.9l50.26-29.17a3.91,3.91,0,0,0,.44-.26h0a4.38,4.38,0,0,0,1.36-3.59,11.4,11.4,0,0,0-1.25-4.94L224.09,69Z"/><path class="cls-3" d="M227.35,73.76,184.63,49.1c-2.57-1.48-4.64-5.46-4.64-8.88h0c0-3.42,2.07-5,4.64-3.51l42.72,24.67c2.57,1.48,4.65,5.45,4.65,8.87h0C232,73.67,229.92,75.24,227.35,73.76Z"/><path class="cls-5" d="M227.87,61.15,185.14,36.48a3,3,0,0,0-3.07-.22,3.27,3.27,0,0,1,2.56.45l42.72,24.67c2.57,1.48,4.65,5.45,4.65,8.87h0c0,1.85-.61,3.15-1.57,3.73,1.25-.38,2.08-1.8,2.08-4h0C232.51,66.6,230.43,62.63,227.87,61.15Z"/><path class="cls-5" d="M221,65.44l-5.13-3a2.22,2.22,0,0,1-.93-1.77h0c0-.68.42-1,.93-.7L221,63a2.18,2.18,0,0,1,.93,1.76h0C221.88,65.43,221.47,65.74,221,65.44Z"/><path class="cls-3" d="M226.75,30.37c1.55-.91,1.53-2.37,0-3.26a6.23,6.23,0,0,0-5.64.06c-1.55.92-1.54,2.38,0,3.26A6.25,6.25,0,0,0,226.75,30.37Z"/><path class="cls-5" d="M235.35,35.22c1.55-.92,1.54-2.38,0-3.26a6.25,6.25,0,0,0-5.65.06c-1.55.92-1.53,2.37,0,3.26A6.23,6.23,0,0,0,235.35,35.22Z"/><path class="cls-5" d="M244,40.07c1.55-.92,1.54-2.38,0-3.26a6.2,6.2,0,0,0-5.64.06c-1.55.91-1.54,2.37,0,3.26A6.26,6.26,0,0,0,244,40.07Z"/><polygon class="cls-1" points="77.69 342.12 62.36 333.26 77.69 324.41 93.02 333.26 77.69 342.12"/><polygon class="cls-7" points="93.02 322.03 77.69 330.88 77.69 313.18 93.02 304.33 93.02 322.03"/><polygon class="cls-4" points="77.69 313.18 62.36 304.33 77.69 295.48 93.02 304.33 77.69 313.18"/><polygon class="cls-3" points="77.69 330.88 62.36 322.03 62.36 304.33 77.69 313.18 77.69 330.88"/><polygon class="cls-5" points="72.17 321.31 67.88 318.84 67.88 313.89 72.17 316.37 72.17 321.31"/><polygon class="cls-1" points="333.68 339.88 318.35 331.03 333.68 322.18 349 331.03 333.68 339.88"/><polygon class="cls-7" points="349 319.79 333.68 328.64 333.68 310.94 349 302.09 349 319.79"/><polygon class="cls-4" points="333.68 310.94 318.35 302.09 333.68 293.24 349 302.09 333.68 310.94"/><polygon class="cls-3" points="333.68 328.64 318.35 319.79 318.35 302.09 333.68 310.94 333.68 328.64"/><polygon class="cls-5" points="328.15 319.08 323.87 316.6 323.87 311.65 328.15 314.13 328.15 319.08"/></g></g></svg>