<svg xmlns="http://www.w3.org/2000/svg" viewBox="0 0 282.11 334.2"><defs><style>.cls-1{fill:#5793ce;}.cls-2{fill:#396caa;}.cls-3{fill:#d4ecff;}.cls-4{fill:#fff;}.cls-5{fill:#b2d3ea;}</style></defs><title>server-5_1</title><g id="Layer_2" data-name="Layer 2"><g id="Ñëîé_1" data-name="Ñëîé 1"><path class="cls-1" d="M27,203a.68.68,0,0,1-.33-.09L17,197.24a2,2,0,0,1,0-3.5l70.44-39.28a7.29,7.29,0,0,0,3.73-6.35v-37.6A1.74,1.74,0,0,1,92.1,109a1.76,1.76,0,0,1,1.75,0l6.65,3.84a.65.65,0,1,1-.65,1.13l-6.65-3.84a.45.45,0,0,0-.68.39v37.6a8.57,8.57,0,0,1-4.39,7.48L17.69,194.87a.7.7,0,0,0-.37.62.69.69,0,0,0,.35.63l9.66,5.71a.65.65,0,0,1,.22.89A.63.63,0,0,1,27,203Z"/><rect class="cls-1" x="25.39" y="197.16" width="5.36" height="11.57" transform="translate(218.09 279.55) rotate(119.83)"/><path class="cls-1" d="M21.16,201.17a4.19,4.19,0,0,1,1.89-3.29c1-.61,1.89-.12,1.9,1.09a4.19,4.19,0,0,1-1.89,3.29C22,202.86,21.17,202.38,21.16,201.17Z"/><rect class="cls-1" x="34.87" y="200.26" width="8.69" height="18.15" transform="translate(240.31 279.45) rotate(119.83)"/><path class="cls-2" d="M32.78,202.55l-3.4-2a6.94,6.94,0,0,0-2.67,4.65l3.4,1.95A7,7,0,0,0,32.78,202.55Z"/><path class="cls-1" d="M28.27,206.6a6.81,6.81,0,0,1,3.06-5.33c1.69-1,3.07-.19,3.08,1.76a6.81,6.81,0,0,1-3.06,5.33C29.66,209.35,28.28,208.56,28.27,206.6Z"/><path class="cls-3" d="M24.33,199.93c-.49-.29-.49-.75,0-1a2,2,0,0,1,1.78,0c.49.29.49.75,0,1A2,2,0,0,1,24.33,199.93Z"/><rect class="cls-1" x="101.61" y="109.96" width="5.36" height="11.57" transform="translate(256.57 82.84) rotate(119.83)"/><path class="cls-1" d="M97.38,114a4.19,4.19,0,0,1,1.89-3.29c1-.6,1.89-.12,1.89,1.09a4.18,4.18,0,0,1-1.88,3.29C98.23,115.66,97.38,115.17,97.38,114Z"/><rect class="cls-1" x="111.08" y="113.05" width="8.69" height="18.15" transform="translate(278.79 82.74) rotate(119.83)"/><path class="cls-2" d="M109,115.35l-3.4-1.95a6.94,6.94,0,0,0-2.66,4.65l3.39,2A6.94,6.94,0,0,0,109,115.35Z"/><path class="cls-1" d="M104.49,119.39a6.76,6.76,0,0,1,3.06-5.32c1.69-1,3.07-.2,3.07,1.76a6.79,6.79,0,0,1-3.05,5.33C105.87,122.14,104.49,121.35,104.49,119.39Z"/><path class="cls-3" d="M100.55,112.72a.54.54,0,0,1,0-1,2,2,0,0,1,1.78,0c.49.28.49.74,0,1A2,2,0,0,1,100.55,112.72Z"/><path class="cls-1" d="M139.4,136.76a.67.67,0,0,1-.57-.32.65.65,0,0,1,.24-.89l24.28-14a6.65,6.65,0,0,0,3.31-5.73V79.18a2,2,0,0,1,3-1.73l39.24,22.74V69.63a.65.65,0,0,1,1.3,0v31.69a.65.65,0,0,1-.33.56.63.63,0,0,1-.65,0L169,78.58a.68.68,0,0,0-.69,0,.66.66,0,0,0-.35.6V115.8a8,8,0,0,1-4,6.86l-24.28,14A.65.65,0,0,1,139.4,136.76Z"/><path class="cls-1" d="M188,164.05a.64.64,0,0,1-.56-.32.65.65,0,0,1,.23-.89l30.2-17.43a6.65,6.65,0,0,0,3.31-5.74V76.6a.65.65,0,0,1,1.3,0v63.07a8,8,0,0,1-4,6.86L188.28,164A.61.61,0,0,1,188,164.05Z"/><path class="cls-1" d="M242.1,194.37a.68.68,0,0,1-.6-.35.7.7,0,0,1,.25-1l27.38-15.81a6.56,6.56,0,0,0,3.29-5.71l-.09-29.44a6.6,6.6,0,0,0-3.29-5.68L233.7,116.08a.71.71,0,0,1-.35-.61V83.58a.7.7,0,1,1,1.39,0v31.49l35,20.15a8,8,0,0,1,4,6.88l.09,29.44a8,8,0,0,1-4,6.93l-27.38,15.81A.73.73,0,0,1,242.1,194.37Z"/><rect class="cls-1" x="231.37" y="81.64" width="5.36" height="11.57"/><path class="cls-1" d="M235.94,94.3a4.15,4.15,0,0,1-3.79,0,1.16,1.16,0,0,1,0-2.19,4.22,4.22,0,0,1,3.79,0A1.16,1.16,0,0,1,235.94,94.3Z"/><rect class="cls-1" x="229.7" y="65.51" width="8.69" height="18.15"/><path class="cls-2" d="M231.37,83.54v3.92a6.92,6.92,0,0,0,5.36,0V83.54A6.92,6.92,0,0,0,231.37,83.54Z"/><path class="cls-1" d="M237.12,85.43a6.8,6.8,0,0,1-6.15,0c-1.69-1-1.69-2.57,0-3.54a6.8,6.8,0,0,1,6.15,0C238.81,82.87,238.81,84.45,237.12,85.43Z"/><rect class="cls-1" x="219.11" y="74.66" width="5.36" height="11.57"/><path class="cls-1" d="M223.69,87.33a4.22,4.22,0,0,1-3.79,0,1.16,1.16,0,0,1,0-2.19,4.15,4.15,0,0,1,3.79,0A1.16,1.16,0,0,1,223.69,87.33Z"/><rect class="cls-1" x="217.45" y="58.54" width="8.69" height="18.15"/><path class="cls-2" d="M219.11,76.57v3.91a6.92,6.92,0,0,0,5.36,0V76.57A6.92,6.92,0,0,0,219.11,76.57Z"/><path class="cls-1" d="M224.86,78.46a6.78,6.78,0,0,1-6.14,0c-1.7-1-1.7-2.57,0-3.55a6.78,6.78,0,0,1,6.14,0C226.56,75.89,226.56,77.48,224.86,78.46Z"/><rect class="cls-1" x="206.86" y="67.69" width="5.36" height="11.57"/><path class="cls-1" d="M211.43,80.35a4.15,4.15,0,0,1-3.79,0,1.15,1.15,0,0,1,0-2.18,4.15,4.15,0,0,1,3.79,0A1.15,1.15,0,0,1,211.43,80.35Z"/><rect class="cls-1" x="205.19" y="51.57" width="8.69" height="18.15"/><path class="cls-2" d="M206.86,69.59v3.92a6.92,6.92,0,0,0,5.36,0V69.59A6.92,6.92,0,0,0,206.86,69.59Z"/><ellipse class="cls-1" cx="209.54" cy="69.71" rx="4.34" ry="2.51"/><polygon class="cls-1" points="267.1 97.69 278.75 90.83 267.65 76.98 264.74 81.75 267.1 97.69"/><path class="cls-1" d="M182.52,21.7,201.11,11s-.7,10.67-.7,10.7S189.73,25,189.73,25Z"/><path class="cls-1" d="M270.34,62.87a11.75,11.75,0,0,0-4-1.49c-1.87-9.85-8.73-20.31-16.9-25A16.51,16.51,0,0,0,242.49,34C241.38,22.07,233.08,8.5,223,2.68c-5.26-3-10-3.4-13.57-1.54h0l-.17.1-.26.15L198,7.86l3.65,2.87c-3.28,1.43-5.34,5.1-5.34,10.52,0,10,7,22.15,15.67,27.15l58.34,41.66c6.5,3.75,11.77.71,11.77-6.8S276.84,66.62,270.34,62.87Z"/><path class="cls-1" d="M196.87,16.85,222,2.15c-4.88-2.55-9.3-2.76-12.61-1h0l-.17.1-.26.15L198,7.86l3.65,2.87A8.78,8.78,0,0,0,196.87,16.85Z"/><path class="cls-1" d="M243.34,60.1,261.7,49.32c-3.15-5.44-7.49-10.2-12.29-13a19.79,19.79,0,0,0-1.88-1L224.18,49Z"/><path class="cls-3" d="M203.2,9.06l8.18,4.72,15-8.82A28.93,28.93,0,0,0,223,2.68a20.8,20.8,0,0,0-5.23-2.2Z"/><path class="cls-3" d="M259.67,46.15,245,54.79l5.09,5.68,13.31-7.85A43.9,43.9,0,0,0,259.67,46.15Z"/><path class="cls-3" d="M258.83,69.65a11.75,11.75,0,0,0-4-1.49c-1.87-9.85-8.73-20.31-16.9-25A16.51,16.51,0,0,0,231,40.79c-1.11-11.94-9.41-25.51-19.5-31.33-10.84-6.26-19.63-1.19-19.63,11.33,0,.43,0,.85,0,1.28-7.92-3.67-14.12.47-14.12,9.86,0,10,7,22.16,15.68,27.15l65.39,37.76c6.5,3.75,11.77.71,11.77-6.8S265.33,73.4,258.83,69.65Z"/><path class="cls-4" d="M191.88,22.07c0-.43,0-.85,0-1.28v-.05c-4.38-1.71-8.14-1-10.5,1.77C183.91,20.4,187.64,20.11,191.88,22.07Z"/><path class="cls-4" d="M259.78,68.72a11.43,11.43,0,0,0-4-1.49c-1.87-9.85-8.73-20.32-16.9-25a16.68,16.68,0,0,0-6.92-2.35c-1.11-11.94-9.42-25.51-19.5-31.33-6.75-3.9-12.71-3.4-16.24.56,3.6-3.07,9.11-3.19,15.28.38,10.09,5.82,18.39,19.39,19.5,31.33a16.51,16.51,0,0,1,6.92,2.34c8.17,4.72,15,15.18,16.9,25a11.75,11.75,0,0,1,4,1.49C265.33,73.4,270.6,82.53,270.6,90a9.69,9.69,0,0,1-1.88,6.26c1.76-1.36,2.83-3.82,2.83-7.19C271.55,81.6,266.28,72.47,259.78,68.72Z"/><path class="cls-2" d="M190.5,25.06l4.92,2.27-.25-5.41c0-.38,0-.75,0-1.13,0-4.83,1.46-8.33,4.11-9.86s6.41-1,10.59,1.37c9,5.2,16.85,17.84,17.87,28.79l.26,2.76,2.76.21A13.4,13.4,0,0,1,236.26,46c7.14,4.13,13.59,13.72,15.31,22.8l.44,2.28,2.28.36a8.34,8.34,0,0,1,2.89,1.09c5.49,3.17,10.13,11.2,10.13,17.54,0,2.37-.66,4.11-1.8,4.77s-3,.37-5-.82L195.08,56.24c-7.61-4.39-14-15.52-14-24.31,0-3.45,1-6.07,2.79-7.2a4.73,4.73,0,0,1,2.6-.7A9.73,9.73,0,0,1,190.5,25.06Z"/><polygon class="cls-1" points="223.14 66.04 224.86 65.17 223.16 63.88 223.14 66.04"/><polygon class="cls-1" points="217.96 42.74 219.63 41.89 219.66 42.77 217.96 42.74"/><polygon class="cls-1" points="228.06 60.59 229.81 59.71 226.44 56.51 228.06 60.59"/><path class="cls-1" d="M224.36,65.12l-8.17-4.81a1.77,1.77,0,0,1-.75-1.38l0-9.45,9.67,5.69,0,9.46C225.11,65.14,224.77,65.36,224.36,65.12Z"/><path class="cls-1" d="M219.61,41.9l-8.82,5.68c-.37.24-.07,1.13.5,1.47l9,5.3,9,5.31c.56.33.87-.2.5-.88l-8.76-16C220.67,42.05,220,41.65,219.61,41.9Z"/><path class="cls-3" d="M222.61,66l-8.17-4.81a1.74,1.74,0,0,1-.75-1.38l0-9.45,9.67,5.69,0,9.46C223.36,66,223,66.24,222.61,66Z"/><path class="cls-3" d="M217.86,42.78,209,48.46c-.37.24-.07,1.14.5,1.47l9,5.31,9,5.3c.57.34.88-.2.51-.88l-8.76-16C218.92,42.94,218.24,42.54,217.86,42.78Z"/><path class="cls-3" d="M208.78,78.23c0,.56-.4.79-.89.51A2,2,0,0,1,207,77.2c0-.57.4-.8.89-.51A2,2,0,0,1,208.78,78.23Z"/><path class="cls-5" d="M136.54,204.9l24.52-14.15c1.51-.87,1.32-2.39-.42-3.39L137,173.69a6.55,6.55,0,0,0-5.88-.24L106.58,187.6c-1.51.87-1.32,2.39.42,3.39l23.67,13.67A6.53,6.53,0,0,0,136.54,204.9Z"/><path class="cls-2" d="M98.44,176.82h0V166.23l23.76,0,8.21-4.74a8.18,8.18,0,0,1,7.35.31l7.66,4.42h23.77v10.89a2.1,2.1,0,0,1-1.26,2l-30.7,17.73a8.15,8.15,0,0,1-7.35-.31l-29.65-17.11C99,178.63,98.37,177.7,98.44,176.82Z"/><path class="cls-2" d="M133.82,160.75a8.46,8.46,0,0,1,3.94,1l7.66,4.42h23.77v10.89a2.1,2.1,0,0,1-1.26,2l-30.7,17.73a6.71,6.71,0,0,1-3.41.73Z"/><path class="cls-1" d="M166.5,166.19h2.69v10.89a2.1,2.1,0,0,1-1.26,2l-1.43.83Z"/><path class="cls-1" d="M136.76,197a8.34,8.34,0,0,1-5.88-.07V184.57h5.88Z"/><path class="cls-3" d="M137.23,185.92l30.7-17.72c1.89-1.09,1.65-3-.53-4.25l-29.64-17.11a8.18,8.18,0,0,0-7.35-.31l-30.7,17.73c-1.89,1.09-1.65,3,.52,4.24l29.65,17.12A8.18,8.18,0,0,0,137.23,185.92Z"/><path class="cls-1" d="M136.68,182.73l25.73-14.85c1.57-.91,1.38-2.51-.45-3.56L137.12,150a6.86,6.86,0,0,0-6.16-.26l-25.73,14.86c-1.58.91-1.38,2.5.44,3.55l24.85,14.35A6.86,6.86,0,0,0,136.68,182.73Z"/><path class="cls-3" d="M109.74,179.62a2.71,2.71,0,0,0,1.24,2.14c.68.4,1.24.08,1.24-.71A2.77,2.77,0,0,0,111,178.9C110.29,178.51,109.74,178.83,109.74,179.62Z"/><path class="cls-3" d="M105.75,177.31a2.72,2.72,0,0,0,1.24,2.15c.68.4,1.24.08,1.24-.71A2.74,2.74,0,0,0,107,176.6C106.3,176.2,105.75,176.52,105.75,177.31Z"/><path class="cls-3" d="M101.76,175a2.74,2.74,0,0,0,1.24,2.15c.68.39,1.24.07,1.24-.72a2.77,2.77,0,0,0-1.24-2.15C102.31,173.9,101.76,174.22,101.76,175Z"/><path class="cls-2" d="M98.44,159.89h0V149.3H122.2l8.21-4.74a8.15,8.15,0,0,1,7.35.3l7.66,4.42h23.77v10.89a2.1,2.1,0,0,1-1.26,2l-30.7,17.73a8.18,8.18,0,0,1-7.35-.3l-29.65-17.12C99,161.7,98.37,160.77,98.44,159.89Z"/><path class="cls-2" d="M133.82,143.82a8.46,8.46,0,0,1,3.94,1l7.66,4.42h23.77v10.89a2.1,2.1,0,0,1-1.26,2l-30.7,17.73a6.71,6.71,0,0,1-3.41.73Z"/><path class="cls-1" d="M166.5,149.26h2.69v10.89a2.1,2.1,0,0,1-1.26,2l-1.43.83Z"/><path class="cls-1" d="M136.76,180.08a8.34,8.34,0,0,1-5.88-.07V167.64h5.88Z"/><path class="cls-3" d="M137.23,169l30.7-17.72c1.89-1.09,1.65-3-.53-4.25l-29.64-17.11a8.18,8.18,0,0,0-7.35-.31l-30.7,17.73c-1.89,1.09-1.65,3,.52,4.24l29.65,17.12A8.15,8.15,0,0,0,137.23,169Z"/><path class="cls-1" d="M136.68,165.8,162.41,151c1.57-.91,1.38-2.5-.45-3.56l-24.84-14.34a6.86,6.86,0,0,0-6.16-.26l-25.73,14.86c-1.58.91-1.38,2.5.44,3.56l24.85,14.34A6.83,6.83,0,0,0,136.68,165.8Z"/><path class="cls-3" d="M109.74,162.69a2.74,2.74,0,0,0,1.24,2.15c.68.39,1.24.07,1.24-.72A2.77,2.77,0,0,0,111,162C110.29,161.58,109.74,161.9,109.74,162.69Z"/><path class="cls-1" d="M105.75,160.38a2.71,2.71,0,0,0,1.24,2.15c.68.4,1.24.08,1.24-.71a2.75,2.75,0,0,0-1.24-2.15C106.3,159.27,105.75,159.59,105.75,160.38Z"/><path class="cls-1" d="M101.76,158.08a2.74,2.74,0,0,0,1.24,2.15c.68.39,1.24.07,1.24-.72a2.73,2.73,0,0,0-1.24-2.14C102.31,157,101.76,157.29,101.76,158.08Z"/><path class="cls-2" d="M98.44,143h0V132.37H122.2l8.21-4.74c1.88-1.09,5.17-1,7.35.3l7.66,4.42h23.77v10.9a2.12,2.12,0,0,1-1.26,2l-30.7,17.72a8.18,8.18,0,0,1-7.35-.3L100.23,145.5A2.91,2.91,0,0,1,98.44,143Z"/><path class="cls-2" d="M133.82,126.89a8.46,8.46,0,0,1,3.94,1l7.66,4.42h23.77v10.9a2.12,2.12,0,0,1-1.26,2l-30.7,17.72a6.71,6.71,0,0,1-3.41.73Z"/><path class="cls-1" d="M166.5,132.33h2.69v10.9a2.12,2.12,0,0,1-1.26,2l-1.43.82Z"/><path class="cls-1" d="M136.76,163.15a8.39,8.39,0,0,1-5.88-.06V150.72h5.88Z"/><path class="cls-3" d="M137.23,152.07l30.7-17.73c1.89-1.09,1.65-3-.53-4.24L137.76,113a8.15,8.15,0,0,0-7.35-.3L99.71,130.4c-1.89,1.09-1.65,3,.52,4.25l29.65,17.11A8.18,8.18,0,0,0,137.23,152.07Z"/><path class="cls-4" d="M100.23,132.56l29.65,17.12a8.18,8.18,0,0,0,7.35.3l30.7-17.72a2.89,2.89,0,0,0,.94-.84c.65,1,.36,2.17-.94,2.92l-30.7,17.73a8.18,8.18,0,0,1-7.35-.31l-29.65-17.11c-1.69-1-2.2-2.34-1.46-3.41A4.05,4.05,0,0,0,100.23,132.56Z"/><path class="cls-1" d="M109.74,145.76a2.74,2.74,0,0,0,1.24,2.15c.68.39,1.24.07,1.24-.72A2.77,2.77,0,0,0,111,145C110.29,144.65,109.74,145,109.74,145.76Z"/><path class="cls-3" d="M105.75,143.46A2.71,2.71,0,0,0,107,145.6c.68.4,1.24.08,1.24-.71a2.77,2.77,0,0,0-1.24-2.15C106.3,142.34,105.75,142.67,105.75,143.46Z"/><path class="cls-3" d="M101.76,141.15A2.74,2.74,0,0,0,103,143.3c.68.4,1.24.08,1.24-.72a2.73,2.73,0,0,0-1.24-2.14C102.31,140,101.76,140.36,101.76,141.15Z"/><path class="cls-1" d="M135.41,141.08l14.37-8.3c.88-.51.77-1.4-.25-2l-13.87-8a3.82,3.82,0,0,0-3.44-.15l-14.37,8.3c-.88.51-.77,1.4.25,2l13.87,8A3.82,3.82,0,0,0,135.41,141.08Z"/><path class="cls-3" d="M134,134.13l2-1.15c.12-.07.1-.19,0-.27l-1.92-1.11a.52.52,0,0,0-.47,0l-2,1.15c-.12.07-.11.19,0,.27l1.92,1.11A.54.54,0,0,0,134,134.13Z"/><path class="cls-2" d="M149.78,132.78l0,0-.21-.14-13.87-8a3.84,3.84,0,0,0-3.44-.14l-14.32,8.27c-.82-.58-.86-1.37-.05-1.84l14.37-8.3a3.82,3.82,0,0,1,3.44.15l13.87,8C150.55,131.38,150.66,132.27,149.78,132.78Z"/><path class="cls-5" d="M190.68,235.36l24.52-14.15c1.51-.87,1.32-2.39-.42-3.39l-23.67-13.67a6.53,6.53,0,0,0-5.87-.24l-24.52,14.15c-1.51.87-1.32,2.39.42,3.39l23.67,13.67A6.53,6.53,0,0,0,190.68,235.36Z"/><path class="cls-2" d="M152.58,207.28h0V196.69l23.76,0,8.21-4.74a8.18,8.18,0,0,1,7.35.31l7.66,4.42h23.77v10.89a2.1,2.1,0,0,1-1.26,2l-30.7,17.73a8.15,8.15,0,0,1-7.35-.31l-29.65-17.11C153.12,209.09,152.51,208.16,152.58,207.28Z"/><path class="cls-2" d="M188,191.21a8.46,8.46,0,0,1,3.94,1l7.66,4.42h23.77v10.89a2.1,2.1,0,0,1-1.26,2l-30.7,17.73A6.69,6.69,0,0,1,188,228Z"/><path class="cls-1" d="M220.64,196.65h2.69v10.89a2.1,2.1,0,0,1-1.26,2l-1.43.83Z"/><path class="cls-1" d="M190.9,227.47a8.34,8.34,0,0,1-5.88-.07V215h5.88Z"/><path class="cls-3" d="M191.37,216.38l30.7-17.72c1.89-1.09,1.65-3-.53-4.25L191.9,177.3a8.18,8.18,0,0,0-7.35-.31l-30.7,17.73c-1.89,1.09-1.65,3,.52,4.24L184,216.08C186.2,217.33,189.49,217.47,191.37,216.38Z"/><path class="cls-1" d="M190.82,213.19l25.73-14.85c1.58-.91,1.38-2.51-.45-3.56l-24.84-14.34a6.86,6.86,0,0,0-6.16-.26L159.37,195c-1.58.91-1.38,2.5.45,3.55l24.84,14.35A6.86,6.86,0,0,0,190.82,213.19Z"/><path class="cls-3" d="M163.88,210.08a2.71,2.71,0,0,0,1.24,2.14c.68.4,1.24.08,1.24-.71a2.77,2.77,0,0,0-1.24-2.15C164.43,209,163.88,209.29,163.88,210.08Z"/><path class="cls-1" d="M159.89,207.77a2.72,2.72,0,0,0,1.24,2.15c.68.4,1.24.08,1.24-.71a2.74,2.74,0,0,0-1.24-2.15C160.44,206.66,159.89,207,159.89,207.77Z"/><path class="cls-3" d="M155.9,205.47a2.74,2.74,0,0,0,1.24,2.15c.68.39,1.24.07,1.24-.72a2.77,2.77,0,0,0-1.24-2.15C156.45,204.36,155.9,204.68,155.9,205.47Z"/><path class="cls-2" d="M152.58,190.35h0V179.76h23.76l8.21-4.74a8.15,8.15,0,0,1,7.35.3l7.66,4.42h23.77v10.89a2.1,2.1,0,0,1-1.26,2l-30.7,17.73c-1.88,1.09-5.17.95-7.35-.3l-29.65-17.12C153.12,192.16,152.51,191.23,152.58,190.35Z"/><path class="cls-2" d="M188,174.28a8.46,8.46,0,0,1,3.94,1l7.66,4.42h23.77v10.89a2.1,2.1,0,0,1-1.26,2l-30.7,17.73A6.69,6.69,0,0,1,188,211Z"/><path class="cls-1" d="M220.64,179.72h2.69v10.89a2.1,2.1,0,0,1-1.26,2l-1.43.83Z"/><path class="cls-1" d="M190.9,210.54a8.34,8.34,0,0,1-5.88-.07V198.1h5.88Z"/><path class="cls-3" d="M191.37,199.45l30.7-17.72c1.89-1.09,1.65-3-.53-4.25L191.9,160.37a8.18,8.18,0,0,0-7.35-.31l-30.7,17.73c-1.89,1.09-1.65,3,.52,4.24L184,199.15A8.15,8.15,0,0,0,191.37,199.45Z"/><path class="cls-1" d="M190.82,196.26l25.73-14.85c1.58-.91,1.38-2.5-.45-3.56l-24.84-14.34a6.86,6.86,0,0,0-6.16-.26l-25.73,14.86c-1.58.91-1.38,2.5.45,3.56L184.66,196A6.83,6.83,0,0,0,190.82,196.26Z"/><path class="cls-3" d="M163.88,193.15a2.74,2.74,0,0,0,1.24,2.15c.68.39,1.24.07,1.24-.72a2.77,2.77,0,0,0-1.24-2.15C164.43,192,163.88,192.36,163.88,193.15Z"/><path class="cls-3" d="M159.89,190.84a2.71,2.71,0,0,0,1.24,2.15c.68.4,1.24.08,1.24-.71a2.75,2.75,0,0,0-1.24-2.15C160.44,189.73,159.89,190.05,159.89,190.84Z"/><path class="cls-1" d="M155.9,188.54a2.74,2.74,0,0,0,1.24,2.15c.68.39,1.24.07,1.24-.72a2.73,2.73,0,0,0-1.24-2.14C156.45,187.43,155.9,187.75,155.9,188.54Z"/><path class="cls-2" d="M152.58,173.42h0V162.83h23.76l8.21-4.74c1.88-1.09,5.17-1,7.35.3l7.66,4.42h23.77v10.9a2.12,2.12,0,0,1-1.26,2l-30.7,17.72c-1.88,1.09-5.17,1-7.35-.3L154.37,176A2.91,2.91,0,0,1,152.58,173.42Z"/><path class="cls-2" d="M188,157.35a8.46,8.46,0,0,1,3.94,1l7.66,4.42h23.77v10.9a2.12,2.12,0,0,1-1.26,2l-30.7,17.72a6.69,6.69,0,0,1-3.41.73Z"/><path class="cls-1" d="M220.64,162.79h2.69v10.9a2.12,2.12,0,0,1-1.26,2l-1.43.82Z"/><path class="cls-1" d="M190.9,193.61a8.39,8.39,0,0,1-5.88-.06V181.18h5.88Z"/><path class="cls-3" d="M191.37,182.53l30.7-17.73c1.89-1.09,1.65-3-.53-4.24L191.9,143.44a8.15,8.15,0,0,0-7.35-.3l-30.7,17.72c-1.89,1.09-1.65,3,.52,4.25L184,182.22A8.18,8.18,0,0,0,191.37,182.53Z"/><path class="cls-4" d="M154.37,163,184,180.14c2.18,1.25,5.47,1.39,7.35.3l30.7-17.72a2.89,2.89,0,0,0,.94-.84c.65,1,.36,2.17-.94,2.92l-30.7,17.73a8.18,8.18,0,0,1-7.35-.31l-29.65-17.11c-1.69-1-2.2-2.34-1.46-3.41A4.05,4.05,0,0,0,154.37,163Z"/><path class="cls-1" d="M163.88,176.22a2.74,2.74,0,0,0,1.24,2.15c.68.39,1.24.07,1.24-.72a2.77,2.77,0,0,0-1.24-2.15C164.43,175.11,163.88,175.43,163.88,176.22Z"/><path class="cls-1" d="M159.89,173.92a2.71,2.71,0,0,0,1.24,2.14c.68.4,1.24.08,1.24-.71a2.77,2.77,0,0,0-1.24-2.15C160.44,172.8,159.89,173.13,159.89,173.92Z"/><path class="cls-3" d="M155.9,171.61a2.74,2.74,0,0,0,1.24,2.15c.68.4,1.24.08,1.24-.72a2.73,2.73,0,0,0-1.24-2.14C156.45,170.5,155.9,170.82,155.9,171.61Z"/><path class="cls-1" d="M189.56,171.54l14.36-8.3c.88-.51.77-1.4-.24-2l-13.88-8a3.82,3.82,0,0,0-3.44-.15L172,161.4c-.89.51-.77,1.4.24,2l13.88,8A3.81,3.81,0,0,0,189.56,171.54Z"/><path class="cls-3" d="M188.18,164.59l2-1.15c.12-.07.1-.19,0-.27l-1.92-1.11a.52.52,0,0,0-.47,0l-2,1.15c-.12.07-.11.19,0,.27l1.92,1.11A.54.54,0,0,0,188.18,164.59Z"/><path class="cls-2" d="M203.92,163.24l0,0-.2-.14-13.88-8a3.84,3.84,0,0,0-3.44-.14L172,163.24c-.82-.58-.86-1.37,0-1.84l14.36-8.3a3.82,3.82,0,0,1,3.44.15l13.88,8C204.69,161.84,204.8,162.73,203.92,163.24Z"/><path class="cls-3" d="M194.1,202c0,.57.4.8.89.51a2,2,0,0,0,.89-1.54c0-.56-.4-.79-.89-.51A2,2,0,0,0,194.1,202Z"/><path class="cls-3" d="M196.86,200.4c0,.56.4.79.89.51a2,2,0,0,0,.89-1.54c0-.57-.4-.8-.89-.51A2,2,0,0,0,196.86,200.4Z"/><path class="cls-3" d="M194.1,205.31c0,.57.4.8.89.51a2,2,0,0,0,.89-1.54c0-.56-.4-.79-.89-.51A2,2,0,0,0,194.1,205.31Z"/><path class="cls-1" d="M196.86,203.73c0,.56.4.79.89.51a2,2,0,0,0,.89-1.54c0-.57-.4-.8-.89-.51A2,2,0,0,0,196.86,203.73Z"/><path class="cls-5" d="M244.83,265.82l24.51-14.15c1.51-.87,1.32-2.39-.42-3.39l-23.67-13.67a6.53,6.53,0,0,0-5.87-.24l-24.52,14.15c-1.51.87-1.32,2.39.42,3.39L239,265.58A6.55,6.55,0,0,0,244.83,265.82Z"/><path class="cls-2" d="M206.73,237.74h0V227.15l23.75,0,8.21-4.74a8.18,8.18,0,0,1,7.35.31l7.66,4.42h23.78V238a2.13,2.13,0,0,1-1.27,2l-30.7,17.73a8.15,8.15,0,0,1-7.35-.31l-29.64-17.11C207.26,239.55,206.66,238.62,206.73,237.74Z"/><path class="cls-2" d="M242.1,221.67a8.46,8.46,0,0,1,3.94,1l7.66,4.42h23.78V238a2.13,2.13,0,0,1-1.27,2l-30.7,17.73a6.66,6.66,0,0,1-3.41.73Z"/><path class="cls-1" d="M274.79,227.11h2.69V238a2.13,2.13,0,0,1-1.27,2l-1.42.83Z"/><path class="cls-1" d="M245,257.93a8.34,8.34,0,0,1-5.88-.07V245.49H245Z"/><path class="cls-3" d="M245.51,246.84l30.7-17.72c1.89-1.09,1.65-3-.52-4.25L246,207.76a8.18,8.18,0,0,0-7.35-.31L208,225.18c-1.89,1.09-1.65,3,.53,4.24l29.64,17.12C240.34,247.79,243.63,247.93,245.51,246.84Z"/><path class="cls-1" d="M245,243.65l25.73-14.85c1.58-.91,1.38-2.51-.44-3.56L245.4,210.9a6.86,6.86,0,0,0-6.16-.26L213.51,225.5c-1.57.91-1.38,2.5.45,3.55L238.8,243.4A6.86,6.86,0,0,0,245,243.65Z"/><path class="cls-3" d="M218,240.54a2.71,2.71,0,0,0,1.24,2.14c.68.4,1.24.08,1.24-.71a2.77,2.77,0,0,0-1.24-2.15C218.57,239.43,218,239.75,218,240.54Z"/><path class="cls-1" d="M214,238.23a2.72,2.72,0,0,0,1.24,2.15c.68.4,1.24.08,1.24-.71a2.74,2.74,0,0,0-1.24-2.15C214.58,237.12,214,237.44,214,238.23Z"/><path class="cls-3" d="M210,235.93a2.74,2.74,0,0,0,1.24,2.15c.68.39,1.24.07,1.24-.72a2.77,2.77,0,0,0-1.24-2.15C210.59,234.82,210,235.14,210,235.93Z"/><path class="cls-2" d="M206.73,220.81h0V210.22h23.75l8.21-4.74a8.15,8.15,0,0,1,7.35.3l7.66,4.42h23.78v10.89a2.13,2.13,0,0,1-1.27,2l-30.7,17.73c-1.88,1.09-5.17.95-7.35-.3l-29.64-17.12C207.26,222.62,206.66,221.69,206.73,220.81Z"/><path class="cls-2" d="M242.1,204.74a8.46,8.46,0,0,1,3.94,1l7.66,4.42h23.78v10.89a2.13,2.13,0,0,1-1.27,2l-30.7,17.73a6.66,6.66,0,0,1-3.41.73Z"/><path class="cls-1" d="M274.79,210.18h2.69v10.89a2.13,2.13,0,0,1-1.27,2l-1.42.83Z"/><path class="cls-1" d="M245,241a8.34,8.34,0,0,1-5.88-.07V228.56H245Z"/><path class="cls-3" d="M245.51,229.91l30.7-17.72c1.89-1.09,1.65-3-.52-4.25L246,190.83a8.18,8.18,0,0,0-7.35-.31L208,208.25c-1.89,1.09-1.65,3,.53,4.24l29.64,17.12A8.15,8.15,0,0,0,245.51,229.91Z"/><path class="cls-1" d="M245,226.72l25.73-14.85c1.58-.91,1.38-2.5-.44-3.56L245.4,194a6.86,6.86,0,0,0-6.16-.26l-25.73,14.86c-1.57.91-1.38,2.5.45,3.56l24.84,14.34A6.83,6.83,0,0,0,245,226.72Z"/><path class="cls-1" d="M218,223.61a2.74,2.74,0,0,0,1.24,2.15c.68.39,1.24.07,1.24-.72a2.77,2.77,0,0,0-1.24-2.15C218.57,222.5,218,222.82,218,223.61Z"/><path class="cls-1" d="M214,221.3a2.71,2.71,0,0,0,1.24,2.15c.68.4,1.24.08,1.24-.71a2.75,2.75,0,0,0-1.24-2.15C214.58,220.19,214,220.51,214,221.3Z"/><path class="cls-3" d="M210,219a2.74,2.74,0,0,0,1.24,2.15c.68.39,1.24.07,1.24-.72a2.73,2.73,0,0,0-1.24-2.14C210.59,217.89,210,218.21,210,219Z"/><path class="cls-2" d="M206.73,203.88h0V193.29h23.75l8.21-4.74a8.18,8.18,0,0,1,7.35.3l7.66,4.42h23.78v10.9a2.15,2.15,0,0,1-1.27,2l-30.7,17.72c-1.88,1.09-5.17.95-7.35-.3l-29.64-17.12A2.9,2.9,0,0,1,206.73,203.88Z"/><path class="cls-2" d="M242.1,187.81a8.46,8.46,0,0,1,3.94,1l7.66,4.42h23.78v10.9a2.15,2.15,0,0,1-1.27,2l-30.7,17.72a6.66,6.66,0,0,1-3.41.73Z"/><path class="cls-1" d="M274.79,193.25h2.69v10.9a2.15,2.15,0,0,1-1.27,2l-1.42.82Z"/><path class="cls-1" d="M245,224.07a8.39,8.39,0,0,1-5.88-.06V211.64H245Z"/><path class="cls-3" d="M245.51,213l30.7-17.73c1.89-1.09,1.65-3-.52-4.24L246,173.9a8.15,8.15,0,0,0-7.35-.3L208,191.32c-1.89,1.09-1.65,3,.53,4.25l29.64,17.11A8.18,8.18,0,0,0,245.51,213Z"/><path class="cls-4" d="M208.52,193.48l29.64,17.12c2.18,1.25,5.47,1.39,7.35.3l30.7-17.72a2.89,2.89,0,0,0,.94-.84c.65,1,.36,2.17-.94,2.92L245.51,213a8.18,8.18,0,0,1-7.35-.31l-29.64-17.11c-1.69-1-2.21-2.34-1.47-3.41A4,4,0,0,0,208.52,193.48Z"/><path class="cls-3" d="M218,206.68a2.74,2.74,0,0,0,1.24,2.15c.68.39,1.24.07,1.24-.72a2.77,2.77,0,0,0-1.24-2.15C218.57,205.57,218,205.89,218,206.68Z"/><path class="cls-3" d="M214,204.38a2.71,2.71,0,0,0,1.24,2.14c.68.4,1.24.08,1.24-.71a2.77,2.77,0,0,0-1.24-2.15C214.58,203.26,214,203.59,214,204.38Z"/><path class="cls-1" d="M210,202.07a2.72,2.72,0,0,0,1.24,2.15c.68.4,1.24.08,1.24-.72a2.73,2.73,0,0,0-1.24-2.14C210.59,201,210,201.28,210,202.07Z"/><path class="cls-1" d="M243.7,202l14.36-8.3c.89-.51.77-1.4-.24-2l-13.88-8a3.81,3.81,0,0,0-3.44-.15l-14.36,8.3c-.88.51-.77,1.4.24,2l13.88,8A3.81,3.81,0,0,0,243.7,202Z"/><path class="cls-3" d="M242.32,195.05l2-1.15c.12-.07.11-.19,0-.27l-1.91-1.11a.54.54,0,0,0-.48,0l-2,1.15c-.12.07-.1.19,0,.27l1.92,1.11A.52.52,0,0,0,242.32,195.05Z"/><path class="cls-2" d="M258.06,193.7l0,0-.2-.14-13.88-8a3.84,3.84,0,0,0-3.44-.14l-14.32,8.27c-.81-.58-.86-1.37,0-1.84l14.36-8.3a3.81,3.81,0,0,1,3.44.15l13.88,8C258.83,192.3,259,193.19,258.06,193.7Z"/><path class="cls-3" d="M247.85,215.75c0,.57.4.8.89.52a2,2,0,0,0,.89-1.54c0-.57-.4-.8-.89-.52A2,2,0,0,0,247.85,215.75Z"/><path class="cls-3" d="M250.61,214.17c0,.57.4.8.89.51a2,2,0,0,0,.89-1.54c0-.56-.4-.79-.89-.51A2,2,0,0,0,250.61,214.17Z"/><path class="cls-3" d="M247.85,219.08c0,.57.4.8.89.52a2,2,0,0,0,.89-1.54c0-.57-.4-.8-.89-.52A2,2,0,0,0,247.85,219.08Z"/><path class="cls-1" d="M250.61,217.5c0,.57.4.8.89.51a2,2,0,0,0,.89-1.54c0-.56-.4-.79-.89-.51A2,2,0,0,0,250.61,217.5Z"/><path class="cls-1" d="M247.85,232.68c0,.57.4.8.89.52a2,2,0,0,0,.89-1.55c0-.56-.4-.79-.89-.51A2,2,0,0,0,247.85,232.68Z"/><path class="cls-3" d="M250.61,231.1c0,.57.4.8.89.51a2,2,0,0,0,.89-1.54c0-.56-.4-.79-.89-.51A2,2,0,0,0,250.61,231.1Z"/><path class="cls-1" d="M247.85,236c0,.57.4.8.89.51a2,2,0,0,0,.89-1.54c0-.56-.4-.79-.89-.51A2,2,0,0,0,247.85,236Z"/><path class="cls-3" d="M250.61,234.43c0,.57.4.8.89.51a2,2,0,0,0,.89-1.54c0-.57-.4-.8-.89-.51A2,2,0,0,0,250.61,234.43Z"/><path class="cls-3" d="M247.85,249.61c0,.57.4.8.89.51a2,2,0,0,0,.89-1.54c0-.56-.4-.79-.89-.51A2,2,0,0,0,247.85,249.61Z"/><path class="cls-1" d="M250.61,248c0,.57.4.8.89.51a2,2,0,0,0,.89-1.54c0-.57-.4-.8-.89-.51A2,2,0,0,0,250.61,248Z"/><path class="cls-3" d="M247.85,252.94c0,.57.4.8.89.51a2,2,0,0,0,.89-1.54c0-.56-.4-.79-.89-.51A2,2,0,0,0,247.85,252.94Z"/><path class="cls-3" d="M250.61,251.36c0,.56.4.79.89.51a2,2,0,0,0,.89-1.54c0-.57-.4-.8-.89-.51A2,2,0,0,0,250.61,251.36Z"/><polygon class="cls-1" points="246.97 161.9 248.97 161.1 247.42 159.91 246.97 161.9"/><polygon class="cls-1" points="245.98 140.32 247.91 139.53 247.78 140.35 245.98 140.32"/><polygon class="cls-1" points="253.23 156.85 255.25 156.04 252.31 153.08 253.23 156.85"/><path class="cls-1" d="M248.44,161l-7.71-4.45a1.25,1.25,0,0,1-.53-1.27l1.85-8.76,9.13,5.28-1.85,8.75A.58.58,0,0,1,248.44,161Z"/><path class="cls-1" d="M247.89,139.54l-10.42,5.26c-.45.22-.3,1.06.24,1.37l8.51,4.91,8.51,4.91c.54.31,1-.19.7-.82l-6.18-14.84C249,139.69,248.34,139.32,247.89,139.54Z"/><path class="cls-3" d="M246.42,161.86l-7.71-4.45a1.24,1.24,0,0,1-.53-1.27l1.85-8.76,9.13,5.27-1.85,8.76A.58.58,0,0,1,246.42,161.86Z"/><path class="cls-3" d="M245.87,140.36l-10.43,5.26c-.44.22-.29,1,.25,1.36l8.51,4.92,8.51,4.91c.53.31,1-.19.7-.82l-6.18-14.85C247,140.5,246.32,140.13,245.87,140.36Z"/><polygon class="cls-1" points="193.44 131.19 195.43 130.38 193.88 129.19 193.44 131.19"/><polygon class="cls-1" points="192.44 109.61 194.38 108.82 194.24 109.64 192.44 109.61"/><polygon class="cls-1" points="199.69 126.14 201.71 125.33 198.77 122.37 199.69 126.14"/><path class="cls-1" d="M194.91,130.33l-7.72-4.45a1.26,1.26,0,0,1-.53-1.27l1.85-8.76,9.14,5.27-1.85,8.76A.58.58,0,0,1,194.91,130.33Z"/><path class="cls-1" d="M194.36,108.83l-10.43,5.26c-.44.22-.29,1,.24,1.36l8.51,4.92,8.51,4.91c.54.31,1-.19.71-.82l-6.19-14.84C195.45,109,194.81,108.61,194.36,108.83Z"/><path class="cls-3" d="M192.88,131.15l-7.71-4.45a1.27,1.27,0,0,1-.53-1.28l1.85-8.75,9.13,5.27-1.85,8.76A.58.58,0,0,1,192.88,131.15Z"/><path class="cls-3" d="M192.33,109.65l-10.42,5.26c-.44.22-.3,1,.24,1.36l8.51,4.91,8.51,4.92c.54.31,1-.19.7-.82l-6.18-14.85C193.42,109.79,192.78,109.42,192.33,109.65Z"/><path class="cls-5" d="M7.78,252.38l58-33.31c4.57-2.63,12.55-2.28,17.82.77l118.91,69c5.27,3.06,5.83,7.67,1.26,10.29l-58,33.32c-4.57,2.63-12.55,2.28-17.81-.78L9,262.67C3.77,259.62,3.21,255,7.78,252.38Z"/><path class="cls-2" d="M148.08,321.43l59.38-34.12c2.6-1.49,3.91-3.48,4-5.58h0l.05-10.22-1.91,3.29a14.07,14.07,0,0,0-3.73-3L86.28,202.42c-6.77-3.93-17-4.37-22.92-1L4,235.54a10.24,10.24,0,0,0-1.65,1.17L.05,233.8l0,9.6H0c-.08,2.65,1.81,5.46,5.59,7.66l119.58,69.37C131.94,324.36,142.2,324.81,148.08,321.43Z"/><path class="cls-3" d="M4,228l59.38-34.12c5.88-3.38,16.14-2.93,22.91,1L205.9,264.2c6.77,3.93,7.5,9.86,1.61,13.23l-59.38,34.12c-5.88,3.38-16.14,2.93-22.91-1L5.64,241.18C-1.13,237.25-1.86,231.33,4,228Z"/><path class="cls-4" d="M207.51,277.43l-59.37,34.12c-5.89,3.38-16.15,2.93-22.92-1L5.64,241.18c-3.28-1.9-5.13-4.27-5.5-6.6-.48,2.84,1.39,6,5.5,8.35L125.22,312.3c6.77,3.93,17,4.38,22.92,1l59.37-34.12c3-1.74,4.3-4.16,3.9-6.63C211.1,274.39,209.82,276.11,207.51,277.43Z"/><path class="cls-4" d="M7.78,229.32l58-33.32c4.57-2.62,12.55-2.28,17.82.78l118.91,69c5.27,3.06,5.83,7.66,1.26,10.29l-58,33.32c-4.57,2.62-12.55,2.28-17.81-.78L9,239.61C3.77,236.55,3.21,232,7.78,229.32Z"/><path class="cls-5" d="M101.2,241.44,79.74,229.05c-.8-.46-.7-1.27.22-1.8h0a3.44,3.44,0,0,1,3.1-.12l21.47,12.39c.8.46.7,1.26-.22,1.79h0A3.46,3.46,0,0,1,101.2,241.44Z"/><path class="cls-5" d="M80.85,237.24l-7.65-4.42c-.8-.46-.7-1.26.22-1.79h0a3.46,3.46,0,0,1,3.11-.13l7.65,4.42c.8.46.7,1.26-.22,1.79h0A3.46,3.46,0,0,1,80.85,237.24Z"/><path class="cls-2" d="M93.71,244.66l-7.66-4.42c-.8-.46-.7-1.26.22-1.79h0a3.46,3.46,0,0,1,3.11-.13L97,242.74c.8.46.7,1.26-.22,1.79h0A3.44,3.44,0,0,1,93.71,244.66Z"/><path class="cls-5" d="M119.69,259.66l-20.79-12c-.8-.46-.7-1.26.22-1.79h0a3.46,3.46,0,0,1,3.11-.13l20.79,12c.79.46.69,1.26-.23,1.79h0A3.41,3.41,0,0,1,119.69,259.66Z"/><path class="cls-5" d="M93.48,252.08,66.66,236.6c-.8-.46-.7-1.27.22-1.8h0a3.46,3.46,0,0,1,3.11-.13l26.82,15.49c.79.46.69,1.26-.22,1.79h0A3.46,3.46,0,0,1,93.48,252.08Z"/><path class="cls-2" d="M125.74,278.26,60.12,240.37c-.79-.46-.69-1.26.23-1.79h0a3.44,3.44,0,0,1,3.1-.13l65.61,37.88c.8.46.7,1.27-.22,1.8h0A3.44,3.44,0,0,1,125.74,278.26Z"/><path class="cls-5" d="M144.88,266.66l-37.75-21.8c-.8-.46-.7-1.26.22-1.79h0a3.46,3.46,0,0,1,3.11-.13l37.75,21.8c.8.46.7,1.26-.22,1.79h0A3.46,3.46,0,0,1,144.88,266.66Z"/></g></g></svg>