<svg width="65.000000" height="59.000000" viewBox="0 0 65 59" fill="none" xmlns="http://www.w3.org/2000/svg" xmlns:xlink="http://www.w3.org/1999/xlink">
	<desc>
			Created with Pixso.
	</desc>
	<defs/>
	<mask id="mask146_441" mask-type="alpha" maskUnits="userSpaceOnUse" x="0.000000" y="0.000000" width="65.000000" height="59.000000">
		<rect id="Rectangle 106" width="65.000000" height="59.000000" fill="#C4C4C4" fill-opacity="1.000000"/>
	</mask>
	<g mask="url(#mask146_441)">
		<path id="path" d="M31.58 28.74L24.27 41.57C24.03 41.98 24.78 42.63 25.18 42.37C26.03 41.83 26.93 41.39 27.87 41.05C28.09 40.97 28.28 40.82 28.39 40.62L31.58 35.02C31.94 34.39 32.83 34.39 33.19 35.02L36.41 40.67C36.53 40.87 36.71 41.02 36.92 41.1C37.92 41.47 38.86 41.95 39.74 42.55C40.1 42.79 40.84 42.16 40.62 41.78L33.19 28.74C32.83 28.11 31.94 28.11 31.58 28.74Z" fill="#F1C804" fill-opacity="1.000000" fill-rule="nonzero"/>
		<path id="path" d="M36.49 45.61C36.48 45.6 36.49 45.59 36.5 45.59C36.5 45.59 36.51 45.58 36.5 45.58L33.13 40.16C32.76 39.58 31.92 39.58 31.56 40.16L28.25 45.47C28.2 45.55 28.14 45.62 28.07 45.68C27.94 45.8 27.82 45.92 27.71 46.05C27.56 46.21 27.42 46.37 27.28 46.55C27.15 46.72 27.03 46.9 26.91 47.09C26.8 47.28 26.69 47.47 26.6 47.67C26.5 47.87 26.42 48.07 26.34 48.28C26.27 48.49 26.2 48.7 26.15 48.91C26.09 49.13 26.05 49.34 26.02 49.56C25.98 49.78 25.96 50 25.95 50.22C25.94 50.44 25.94 50.66 25.95 50.88C25.96 51.11 25.98 51.33 26.01 51.54C26.05 51.76 26.09 51.98 26.14 52.19C26.2 52.41 26.26 52.62 26.34 52.83C26.41 53.03 26.5 53.24 26.59 53.44C26.69 53.64 26.79 53.83 26.9 54.02C27.02 54.2 27.14 54.39 27.27 54.56C27.41 54.74 27.55 54.9 27.7 55.06C27.84 55.22 28 55.38 28.16 55.52C28.33 55.67 28.5 55.8 28.68 55.93C28.85 56.05 29.04 56.17 29.22 56.28C29.41 56.39 29.61 56.48 29.81 56.57C30 56.66 30.21 56.74 30.41 56.8C30.62 56.87 30.83 56.92 31.04 56.97C31.25 57.01 31.46 57.05 31.68 57.07C31.89 57.09 32.11 57.1 32.33 57.1C32.54 57.1 32.76 57.09 32.97 57.07C33.19 57.05 33.4 57.01 33.61 56.97C33.82 56.92 34.03 56.87 34.24 56.8C34.44 56.74 34.65 56.66 34.84 56.57C35.04 56.48 35.24 56.39 35.43 56.28C35.61 56.17 35.8 56.05 35.98 55.93C36.15 55.8 36.32 55.67 36.49 55.52C36.65 55.38 36.81 55.22 36.96 55.06C37.1 54.9 37.24 54.74 37.38 54.56C37.51 54.39 37.63 54.2 37.75 54.02C37.86 53.83 37.96 53.64 38.06 53.44C38.15 53.24 38.24 53.03 38.31 52.83C38.39 52.62 38.45 52.41 38.51 52.19C38.56 51.98 38.6 51.76 38.64 51.54C38.67 51.33 38.69 51.11 38.7 50.88C38.71 50.66 38.71 50.44 38.7 50.22C38.69 50 38.67 49.78 38.63 49.56C38.6 49.34 38.56 49.13 38.5 48.91C38.45 48.7 38.38 48.49 38.31 48.28C38.23 48.07 38.15 47.87 38.05 47.67C37.96 47.47 37.85 47.28 37.74 47.09C37.62 46.9 37.5 46.72 37.37 46.55C37.23 46.37 37.09 46.21 36.94 46.05C36.8 45.89 36.65 45.74 36.49 45.61ZM32.33 53.88C32.12 53.88 31.91 53.86 31.7 53.82C31.49 53.78 31.29 53.71 31.1 53.63C30.9 53.55 30.72 53.45 30.54 53.33C30.37 53.21 30.21 53.07 30.06 52.92C29.91 52.76 29.77 52.6 29.66 52.42C29.54 52.24 29.44 52.05 29.36 51.85C29.28 51.65 29.22 51.44 29.18 51.23C29.14 51.02 29.12 50.8 29.12 50.59C29.12 50.37 29.14 50.16 29.18 49.95C29.22 49.73 29.28 49.53 29.36 49.33C29.44 49.13 29.54 48.94 29.66 48.76C29.77 48.58 29.91 48.41 30.06 48.26C30.21 48.11 30.37 47.97 30.54 47.85C30.72 47.73 30.9 47.63 31.1 47.55C31.29 47.46 31.5 47.4 31.7 47.36C31.91 47.32 32.12 47.3 32.33 47.3C32.54 47.3 32.75 47.32 32.96 47.36C33.16 47.4 33.36 47.46 33.56 47.55C33.75 47.63 33.94 47.73 34.12 47.85C34.29 47.97 34.45 48.11 34.6 48.26C34.75 48.41 34.88 48.58 35 48.76C35.12 48.94 35.22 49.13 35.3 49.33C35.38 49.53 35.44 49.73 35.48 49.94C35.52 50.16 35.54 50.37 35.54 50.59C35.54 50.8 35.52 51.02 35.48 51.23C35.44 51.44 35.38 51.65 35.3 51.85C35.22 52.05 35.12 52.24 35 52.42C34.89 52.6 34.75 52.76 34.6 52.92C34.45 53.07 34.29 53.21 34.12 53.33C33.94 53.45 33.75 53.55 33.56 53.63C33.36 53.71 33.16 53.78 32.96 53.82C32.75 53.86 32.54 53.88 32.33 53.88Z" fill="#002175" fill-opacity="1.000000" fill-rule="nonzero"/>
		<path id="polygon" d="M10.13 38.66L1.25 54.24C0.53 55.52 1.42 57.12 2.86 57.12L11.12 57.12C11.78 57.12 12.39 56.76 12.73 56.18L20.04 43.36C20.62 42.36 20.18 41.06 19.13 40.62L12.44 37.85C11.58 37.5 10.6 37.84 10.13 38.66Z" fill="#002175" fill-opacity="1.000000" fill-rule="nonzero"/>
		<path id="polygon" d="M52.34 37.88L45.7 40.63C44.64 41.07 44.21 42.37 44.79 43.38L52.12 56.18C52.45 56.76 53.07 57.12 53.73 57.12L61.91 57.12C63.35 57.12 64.25 55.52 63.52 54.24L54.65 38.69C54.19 37.87 53.2 37.52 52.34 37.88Z" fill="#002175" fill-opacity="1.000000" fill-rule="nonzero"/>
		<path id="polygon" d="M50.57 31.52L34 2.44C33.28 1.18 31.49 1.18 30.77 2.44L14.22 31.5C13.64 32.5 14.07 33.8 15.13 34.24L21.82 37.01C22.68 37.36 23.66 37.02 24.13 36.2L30.78 24.55C31.5 23.29 33.28 23.29 34 24.55L40.68 36.22C41.15 37.04 42.14 37.38 42.99 37.03L49.66 34.26C50.71 33.83 51.14 32.53 50.57 31.52Z" fill="#002175" fill-opacity="1.000000" fill-rule="nonzero"/>
	</g>
</svg>
